M48
METRIC,TZ
T1C0.762
T2C0.800
T3C1.000
T4C1.200
T5C2.499
%
G90
G05
T1
X4.445Y68.707
X4.445Y53.467
X6.985Y68.707
X6.985Y53.467
X9.525Y68.707
X9.525Y53.467
X12.065Y68.707
X12.065Y66.167
X12.065Y53.467
X14.605Y68.707
X14.605Y66.167
X14.605Y53.467
X17.145Y68.707
X17.145Y66.167
X17.145Y53.467
X19.685Y68.707
X19.685Y53.467
X22.225Y68.707
X22.225Y53.467
X24.765Y68.707
X24.765Y53.467
X27.305Y68.707
X27.305Y53.467
X29.845Y68.707
X29.845Y53.467
X32.385Y68.707
X32.385Y53.467
X34.925Y68.707
X34.925Y53.467
X37.465Y68.707
X37.465Y53.467
T2
X17.145Y62.23
X24.765Y63.5
X46.99Y25.4
X53.34Y39.37
X57.15Y47.625
X57.785Y36.83
X57.785Y14.605
X65.405Y34.29
X65.405Y31.75
X66.04Y60.325
X66.04Y58.42
X69.977Y31.242
X70.104Y57.277
X72.39Y73.66
X72.39Y71.12
X72.39Y68.58
X72.39Y66.04
X72.39Y47.625
X72.39Y45.085
X72.39Y42.545
X72.39Y40.005
X72.39Y21.59
X72.39Y19.05
X72.39Y16.51
X72.39Y13.97
X80.01Y73.66
X80.01Y71.12
X80.01Y68.58
X80.01Y66.04
X80.01Y47.625
X80.01Y45.085
X80.01Y42.545
X80.01Y40.005
X80.01Y21.59
X80.01Y19.05
X80.01Y16.51
X80.01Y13.97
X81.661Y57.277
X81.661Y31.242
X92.075Y77.47
X92.075Y75.17
X92.075Y72.87
X92.075Y62.23
X92.075Y59.93
X92.075Y57.63
X92.075Y51.435
X92.075Y49.135
X92.075Y46.835
X92.075Y36.195
X92.075Y33.895
X92.075Y31.595
X92.075Y25.4
X92.075Y23.1
X92.075Y20.8
X92.075Y10.16
X92.075Y7.86
X92.075Y5.56
T3
X4.445Y47.371
X4.445Y44.831
X4.953Y27.051
X4.953Y24.511
X4.953Y21.971
X8.89Y77.47
X11.43Y77.47
X13.97Y77.47
X17.653Y77.343
X17.653Y73.787
X20.193Y77.343
X20.193Y73.787
X22.733Y77.343
X22.733Y73.787
X25.273Y77.343
X25.273Y73.787
X27.813Y77.343
X27.813Y73.787
X30.353Y77.343
X30.353Y73.787
X65.024Y47.625
X65.024Y40.125
X65.278Y73.66
X65.278Y66.16
X65.405Y21.463
X65.405Y13.963
T4
X21.59Y13.335
X21.59Y8.335
X35.56Y13.335
X35.56Y8.335
T5
X10.795Y13.97
X10.795Y6.985
T0
M30
