G04 #@! TF.FileFunction,Copper,L1,Top,Signal*
%FSLAX46Y46*%
G04 Gerber Fmt 4.6, Leading zero omitted, Abs format (unit mm)*
G04 Created by KiCad (PCBNEW 4.0.4-stable) date 07/18/17 09:52:18*
%MOMM*%
%LPD*%
G01*
G04 APERTURE LIST*
%ADD10C,0.100000*%
%ADD11C,1.750000*%
%ADD12R,2.400000X1.600000*%
%ADD13O,2.400000X1.600000*%
%ADD14R,3.500000X1.800000*%
%ADD15C,5.999480*%
%ADD16R,2.000000X1.700000*%
%ADD17R,1.800000X1.800000*%
%ADD18O,1.800000X1.800000*%
%ADD19R,1.400000X1.400000*%
%ADD20O,1.400000X1.400000*%
%ADD21R,9.500000X6.750000*%
%ADD22R,1.700000X2.000000*%
%ADD23R,2.000000X2.000000*%
%ADD24C,2.000000*%
%ADD25R,2.400000X2.400000*%
%ADD26C,2.400000*%
%ADD27R,2.000000X1.600000*%
%ADD28R,1.700000X1.700000*%
%ADD29O,1.700000X1.700000*%
%ADD30R,0.400000X1.500000*%
%ADD31C,1.200000*%
%ADD32C,0.350000*%
%ADD33C,0.550000*%
%ADD34C,0.800000*%
%ADD35C,1.500000*%
%ADD36C,0.254000*%
G04 APERTURE END LIST*
D10*
D11*
X17145000Y66167000D03*
X14605000Y66167000D03*
X12065000Y66167000D03*
X6985000Y53467000D03*
X9525000Y53467000D03*
X12065000Y53467000D03*
X14605000Y53467000D03*
X17145000Y53467000D03*
X19685000Y53467000D03*
X22225000Y53467000D03*
X24765000Y53467000D03*
X27305000Y53467000D03*
X29845000Y53467000D03*
X32385000Y53467000D03*
X34925000Y53467000D03*
X37465000Y53467000D03*
X37465000Y68707000D03*
X34925000Y68707000D03*
X32385000Y68707000D03*
X29845000Y68707000D03*
X27305000Y68707000D03*
X24765000Y68707000D03*
X22225000Y68707000D03*
X19685000Y68707000D03*
X17145000Y68707000D03*
X14605000Y68707000D03*
X12065000Y68707000D03*
X9525000Y68707000D03*
X6985000Y68707000D03*
X4445000Y68707000D03*
X4445000Y53467000D03*
D12*
X72390000Y73660000D03*
D13*
X80010000Y66040000D03*
X72390000Y71120000D03*
X80010000Y68580000D03*
X72390000Y68580000D03*
X80010000Y71120000D03*
X72390000Y66040000D03*
X80010000Y73660000D03*
D14*
X78700000Y77470000D03*
X73700000Y77470000D03*
X78700000Y51435000D03*
X73700000Y51435000D03*
X78700000Y25400000D03*
X73700000Y25400000D03*
D15*
X10795000Y6985000D03*
X10795000Y13970000D03*
D16*
X87725000Y77470000D03*
X83725000Y77470000D03*
X87725000Y66040000D03*
X83725000Y66040000D03*
X87725000Y51435000D03*
X83725000Y51435000D03*
X87725000Y40005000D03*
X83725000Y40005000D03*
X87725000Y25400000D03*
X83725000Y25400000D03*
X87725000Y13970000D03*
X83725000Y13970000D03*
X87725000Y60325000D03*
X83725000Y60325000D03*
X87725000Y34290000D03*
X83725000Y34290000D03*
D17*
X4953000Y21971000D03*
D18*
X4953000Y24511000D03*
X4953000Y27051000D03*
D19*
X92075000Y51435000D03*
X92075000Y49135000D03*
D20*
X92075000Y46835000D03*
D21*
X98575000Y49135000D03*
D19*
X92075000Y77470000D03*
X92075000Y75170000D03*
D20*
X92075000Y72870000D03*
D21*
X98575000Y75170000D03*
D19*
X92075000Y36195000D03*
X92075000Y33895000D03*
D20*
X92075000Y31595000D03*
D21*
X98575000Y33895000D03*
D19*
X92075000Y25400000D03*
X92075000Y23100000D03*
D20*
X92075000Y20800000D03*
D21*
X98575000Y23100000D03*
D19*
X92075000Y10160000D03*
X92075000Y7860000D03*
D20*
X92075000Y5560000D03*
D21*
X98575000Y7860000D03*
D16*
X87725000Y8255000D03*
X83725000Y8255000D03*
D22*
X76200000Y64230000D03*
X76200000Y60230000D03*
X76200000Y38195000D03*
X76200000Y34195000D03*
X76200000Y12160000D03*
X76200000Y8160000D03*
D12*
X72390000Y47625000D03*
D13*
X80010000Y40005000D03*
X72390000Y45085000D03*
X80010000Y42545000D03*
X72390000Y42545000D03*
X80010000Y45085000D03*
X72390000Y40005000D03*
X80010000Y47625000D03*
D12*
X72390000Y21590000D03*
D13*
X80010000Y13970000D03*
X72390000Y19050000D03*
X80010000Y16510000D03*
X72390000Y16510000D03*
X80010000Y19050000D03*
X72390000Y13970000D03*
X80010000Y21590000D03*
D23*
X65278000Y73660000D03*
D24*
X65278000Y66160000D03*
D23*
X65024000Y47625000D03*
D24*
X65024000Y40125000D03*
D23*
X65405000Y21463000D03*
D24*
X65405000Y13963000D03*
D25*
X21590000Y13335000D03*
D26*
X21590000Y8335000D03*
D27*
X71787000Y28448000D03*
X75787000Y28448000D03*
X71787000Y54356000D03*
X75787000Y54356000D03*
D28*
X30353000Y77343000D03*
D29*
X27813000Y77343000D03*
X25273000Y77343000D03*
X22733000Y77343000D03*
X20193000Y77343000D03*
X17653000Y77343000D03*
D28*
X30353000Y73787000D03*
D29*
X27813000Y73787000D03*
X25273000Y73787000D03*
X22733000Y73787000D03*
X20193000Y73787000D03*
X17653000Y73787000D03*
D28*
X4445000Y44831000D03*
D29*
X4445000Y47371000D03*
D19*
X92075000Y62230000D03*
X92075000Y59930000D03*
D20*
X92075000Y57630000D03*
D21*
X98575000Y59930000D03*
D30*
X68184000Y51248000D03*
X68834000Y51248000D03*
X69484000Y51248000D03*
X69484000Y53908000D03*
X68834000Y53908000D03*
X68184000Y53908000D03*
X68311000Y25213000D03*
X68961000Y25213000D03*
X69611000Y25213000D03*
X69611000Y27873000D03*
X68961000Y27873000D03*
X68311000Y27873000D03*
D25*
X35560000Y13335000D03*
D26*
X35560000Y8335000D03*
D28*
X8890000Y77470000D03*
D29*
X11430000Y77470000D03*
X13970000Y77470000D03*
D31*
X70104000Y57277000D03*
X69977000Y31242000D03*
X81661000Y31242000D03*
X81661000Y57277000D03*
X53340000Y39370000D03*
X24765000Y63500000D03*
X66040000Y60325000D03*
X65405000Y34290000D03*
X17145000Y62230000D03*
X46990000Y25400000D03*
X57785000Y14605000D03*
X66040000Y58420000D03*
X57150000Y47625000D03*
X57785000Y36830000D03*
X65405000Y31750000D03*
D32*
X68834000Y51248000D02*
X68184000Y51248000D01*
X68961000Y25213000D02*
X68311000Y25213000D01*
D33*
X71787000Y54356000D02*
X71787000Y53880000D01*
X71787000Y53880000D02*
X70485000Y52578000D01*
X70485000Y52578000D02*
X68834000Y52578000D01*
D32*
X68834000Y53908000D02*
X68834000Y52578000D01*
X68834000Y52578000D02*
X68834000Y51248000D01*
X68834000Y53908000D02*
X68834000Y56007000D01*
X68834000Y56007000D02*
X70104000Y57277000D01*
X68961000Y25213000D02*
X68961000Y26162000D01*
X69882000Y26543000D02*
X71787000Y28448000D01*
D33*
X69342000Y26543000D02*
X69882000Y26543000D01*
D32*
X68961000Y26162000D02*
X69342000Y26543000D01*
X68961000Y25213000D02*
X68961000Y27873000D01*
X68961000Y27873000D02*
X68961000Y30226000D01*
D33*
X68961000Y30226000D02*
X69977000Y31242000D01*
X72390000Y13970000D02*
X74930000Y13970000D01*
X72390000Y40005000D02*
X74930000Y40005000D01*
X72390000Y66040000D02*
X74930000Y66040000D01*
X76200000Y64230000D02*
X76200000Y64770000D01*
X76200000Y64770000D02*
X74930000Y66040000D01*
X76200000Y38195000D02*
X76200000Y38735000D01*
X76200000Y38735000D02*
X74930000Y40005000D01*
X76200000Y12160000D02*
X76200000Y12700000D01*
X76200000Y12700000D02*
X74930000Y13970000D01*
D34*
X87725000Y77470000D02*
X92075000Y77470000D01*
X87725000Y66040000D02*
X88265000Y66040000D01*
X88265000Y66040000D02*
X92075000Y62230000D01*
X87725000Y51435000D02*
X92075000Y51435000D01*
X87725000Y40005000D02*
X89535000Y40005000D01*
X92075000Y37465000D02*
X92075000Y36195000D01*
X89535000Y40005000D02*
X92075000Y37465000D01*
D32*
X69611000Y27873000D02*
X69611000Y29479000D01*
X69611000Y29479000D02*
X71374000Y31242000D01*
X71374000Y31242000D02*
X81661000Y31242000D01*
D34*
X87725000Y25400000D02*
X92075000Y25400000D01*
X87725000Y13970000D02*
X89535000Y13970000D01*
X92075000Y11430000D02*
X92075000Y10160000D01*
X89535000Y13970000D02*
X92075000Y11430000D01*
X80010000Y71120000D02*
X81280000Y71120000D01*
X83725000Y73565000D02*
X83725000Y77470000D01*
X81280000Y71120000D02*
X83725000Y73565000D01*
X80010000Y66040000D02*
X83725000Y66040000D01*
X80010000Y45085000D02*
X82550000Y45085000D01*
X83725000Y46260000D02*
X83725000Y51435000D01*
X82550000Y45085000D02*
X83725000Y46260000D01*
X80010000Y40005000D02*
X83725000Y40005000D01*
X80010000Y19050000D02*
X81280000Y19050000D01*
X83725000Y21495000D02*
X83725000Y25400000D01*
X81280000Y19050000D02*
X83725000Y21495000D01*
X80010000Y13970000D02*
X83725000Y13970000D01*
D32*
X69484000Y53908000D02*
X69484000Y55133000D01*
X71628000Y57277000D02*
X81661000Y57277000D01*
X69484000Y55133000D02*
X71628000Y57277000D01*
D35*
X87725000Y60325000D02*
X91680000Y60325000D01*
X91680000Y60325000D02*
X92075000Y59930000D01*
X94615000Y69850000D02*
X96520000Y69850000D01*
X100965000Y65405000D02*
X100965000Y62320000D01*
X96520000Y69850000D02*
X100965000Y65405000D01*
X100965000Y62320000D02*
X98575000Y59930000D01*
X92710000Y69850000D02*
X94615000Y69850000D01*
X99695000Y64770000D02*
X99695000Y61050000D01*
X94615000Y69850000D02*
X99695000Y64770000D01*
X99695000Y61050000D02*
X98575000Y59930000D01*
X92075000Y69850000D02*
X92710000Y69850000D01*
X98575000Y63985000D02*
X98575000Y59930000D01*
X92710000Y69850000D02*
X98575000Y63985000D01*
X92075000Y70485000D02*
X92075000Y69850000D01*
X92075000Y69850000D02*
X92075000Y68580000D01*
X92075000Y68580000D02*
X98575000Y62080000D01*
X98575000Y62080000D02*
X98575000Y59930000D01*
X92075000Y72870000D02*
X92075000Y70485000D01*
X92075000Y70485000D02*
X92075000Y66430000D01*
X92075000Y66430000D02*
X98575000Y59930000D01*
X95885000Y62620000D02*
X98575000Y59930000D01*
X97155000Y61350000D02*
X98575000Y59930000D01*
X98425000Y60080000D02*
X98575000Y59930000D01*
X99695000Y61050000D02*
X98575000Y59930000D01*
X100965000Y62320000D02*
X98575000Y59930000D01*
X98665000Y59930000D02*
X98575000Y59930000D01*
X100965000Y62320000D02*
X98575000Y59930000D01*
X99695000Y61050000D02*
X98575000Y59930000D01*
X92075000Y59930000D02*
X98575000Y59930000D01*
X98575000Y59930000D02*
X98425000Y60080000D01*
D34*
X78700000Y77470000D02*
X78700000Y76875000D01*
X78700000Y76875000D02*
X80010000Y75565000D01*
X80010000Y75565000D02*
X80010000Y73660000D01*
D35*
X87725000Y34290000D02*
X91680000Y34290000D01*
X91680000Y34290000D02*
X92075000Y33895000D01*
X98575000Y33895000D02*
X98575000Y35075000D01*
X98575000Y35075000D02*
X100965000Y37465000D01*
X97155000Y43180000D02*
X92075000Y43180000D01*
X100965000Y39370000D02*
X97155000Y43180000D01*
X100965000Y37465000D02*
X100965000Y39370000D01*
X93345000Y43180000D02*
X95250000Y43180000D01*
X99695000Y38735000D02*
X99695000Y35015000D01*
X95250000Y43180000D02*
X99695000Y38735000D01*
X99695000Y35015000D02*
X98575000Y33895000D01*
X92075000Y43180000D02*
X93345000Y43180000D01*
X98575000Y37950000D02*
X98575000Y33895000D01*
X93345000Y43180000D02*
X98575000Y37950000D01*
X92075000Y41910000D02*
X92710000Y41910000D01*
X92710000Y41910000D02*
X98575000Y36045000D01*
X98575000Y36045000D02*
X98575000Y33895000D01*
X92075000Y46835000D02*
X92075000Y43180000D01*
X92075000Y43180000D02*
X92075000Y41910000D01*
X92075000Y41910000D02*
X92075000Y40640000D01*
X92075000Y40640000D02*
X98575000Y34140000D01*
X98575000Y34140000D02*
X98575000Y33895000D01*
X92075000Y33895000D02*
X98575000Y33895000D01*
D34*
X78700000Y51435000D02*
X78740000Y51435000D01*
X78740000Y51435000D02*
X80010000Y50165000D01*
X80010000Y50165000D02*
X80010000Y47625000D01*
D35*
X87725000Y8255000D02*
X91680000Y8255000D01*
X91680000Y8255000D02*
X92075000Y7860000D01*
X92075000Y17780000D02*
X95885000Y17780000D01*
X100965000Y12700000D02*
X100965000Y10250000D01*
X95885000Y17780000D02*
X100965000Y12700000D01*
X100965000Y10250000D02*
X98575000Y7860000D01*
X92075000Y17780000D02*
X93980000Y17780000D01*
X99695000Y12065000D02*
X99695000Y8980000D01*
X93980000Y17780000D02*
X99695000Y12065000D01*
X99695000Y8980000D02*
X98575000Y7860000D01*
X98575000Y7860000D02*
X98575000Y11280000D01*
X93345000Y16510000D02*
X92075000Y16510000D01*
X98575000Y11280000D02*
X93345000Y16510000D01*
X92075000Y15240000D02*
X92710000Y15240000D01*
X92710000Y15240000D02*
X98575000Y9375000D01*
X98575000Y9375000D02*
X98575000Y7860000D01*
X92075000Y7860000D02*
X98575000Y7860000D01*
X92075000Y20800000D02*
X92075000Y17780000D01*
X92075000Y17780000D02*
X92075000Y16510000D01*
X92075000Y16510000D02*
X92075000Y15240000D01*
X92075000Y15240000D02*
X92075000Y14360000D01*
X92075000Y14360000D02*
X98575000Y7860000D01*
D34*
X78700000Y25400000D02*
X78740000Y25400000D01*
X78740000Y25400000D02*
X80010000Y24130000D01*
X80010000Y24130000D02*
X80010000Y21590000D01*
D33*
X53340000Y57150000D02*
X53340000Y39370000D01*
X50800000Y59690000D02*
X53340000Y57150000D01*
X28575000Y59690000D02*
X50800000Y59690000D01*
X24765000Y63500000D02*
X28575000Y59690000D01*
X19685000Y68199000D02*
X19685000Y68707000D01*
X76200000Y60230000D02*
X66135000Y60230000D01*
X66135000Y60230000D02*
X66040000Y60325000D01*
X76200000Y60230000D02*
X83630000Y60230000D01*
X83630000Y60230000D02*
X83725000Y60325000D01*
X76200000Y34195000D02*
X65500000Y34195000D01*
X65500000Y34195000D02*
X65405000Y34290000D01*
X83725000Y34290000D02*
X76295000Y34290000D01*
X76295000Y34290000D02*
X76200000Y34195000D01*
X76200000Y8160000D02*
X64230000Y8160000D01*
X20955000Y58420000D02*
X17145000Y62230000D01*
X45720000Y58420000D02*
X20955000Y58420000D01*
X46990000Y57150000D02*
X45720000Y58420000D01*
X46990000Y25400000D02*
X46990000Y57150000D01*
X64230000Y8160000D02*
X57785000Y14605000D01*
X83725000Y8255000D02*
X76295000Y8255000D01*
X76295000Y8255000D02*
X76200000Y8160000D01*
D32*
X68184000Y53908000D02*
X68184000Y56276000D01*
D33*
X68184000Y56276000D02*
X66040000Y58420000D01*
X57150000Y47625000D02*
X57785000Y46990000D01*
X57785000Y46990000D02*
X57785000Y36830000D01*
D32*
X65405000Y31750000D02*
X68311000Y28209000D01*
X68311000Y28209000D02*
X68311000Y27873000D01*
D36*
G36*
X108628601Y82283285D02*
X109203889Y81898889D01*
X109588285Y81323601D01*
X109738000Y80570932D01*
X109738000Y2614068D01*
X109588285Y1861399D01*
X109203889Y1286111D01*
X108628601Y901715D01*
X107875932Y752000D01*
X2614068Y752000D01*
X1861399Y901715D01*
X1286111Y1286111D01*
X901715Y1861399D01*
X752000Y2614068D01*
X752000Y6256860D01*
X7117623Y6256860D01*
X7676194Y4905015D01*
X8709575Y3869829D01*
X10060443Y3308899D01*
X11523140Y3307623D01*
X12874985Y3866194D01*
X13910171Y4899575D01*
X14471101Y6250443D01*
X14472377Y7713140D01*
X14369022Y7963280D01*
X19712675Y7963280D01*
X19997829Y7273154D01*
X20525376Y6744684D01*
X21215004Y6458326D01*
X21961720Y6457675D01*
X22651846Y6742829D01*
X23180316Y7270376D01*
X23466674Y7960004D01*
X23466676Y7963280D01*
X33682675Y7963280D01*
X33967829Y7273154D01*
X34495376Y6744684D01*
X35185004Y6458326D01*
X35931720Y6457675D01*
X36621846Y6742829D01*
X37150316Y7270376D01*
X37436674Y7960004D01*
X37437325Y8706720D01*
X37152171Y9396846D01*
X36624624Y9925316D01*
X35934996Y10211674D01*
X35188280Y10212325D01*
X34498154Y9927171D01*
X33969684Y9399624D01*
X33683326Y8709996D01*
X33682675Y7963280D01*
X23466676Y7963280D01*
X23467325Y8706720D01*
X23182171Y9396846D01*
X22654624Y9925316D01*
X21964996Y10211674D01*
X21218280Y10212325D01*
X20528154Y9927171D01*
X19999684Y9399624D01*
X19713326Y8709996D01*
X19712675Y7963280D01*
X14369022Y7963280D01*
X13913806Y9064985D01*
X12880425Y10100171D01*
X11995393Y10467669D01*
X12793010Y10798053D01*
X13144660Y11269615D01*
X10795000Y13619275D01*
X8445340Y11269615D01*
X8796990Y10798053D01*
X9626408Y10480386D01*
X8715015Y10103806D01*
X7679829Y9070425D01*
X7118899Y7719557D01*
X7117623Y6256860D01*
X752000Y6256860D01*
X752000Y14602069D01*
X7099898Y14602069D01*
X7139288Y13139901D01*
X7623053Y11971990D01*
X8094615Y11620340D01*
X10444275Y13970000D01*
X11145725Y13970000D01*
X13495385Y11620340D01*
X13966947Y11971990D01*
X14329172Y12917750D01*
X19713000Y12917750D01*
X19713000Y12000336D01*
X19816067Y11751510D01*
X20006511Y11561067D01*
X20255337Y11458000D01*
X21172750Y11458000D01*
X21342000Y11627250D01*
X21342000Y13087000D01*
X21838000Y13087000D01*
X21838000Y11627250D01*
X22007250Y11458000D01*
X22924663Y11458000D01*
X23173489Y11561067D01*
X23363933Y11751510D01*
X23467000Y12000336D01*
X23467000Y12917750D01*
X33683000Y12917750D01*
X33683000Y12000336D01*
X33786067Y11751510D01*
X33976511Y11561067D01*
X34225337Y11458000D01*
X35142750Y11458000D01*
X35312000Y11627250D01*
X35312000Y13087000D01*
X35808000Y13087000D01*
X35808000Y11627250D01*
X35977250Y11458000D01*
X36894663Y11458000D01*
X37143489Y11561067D01*
X37333933Y11751510D01*
X37437000Y12000336D01*
X37437000Y12917750D01*
X37267750Y13087000D01*
X35808000Y13087000D01*
X35312000Y13087000D01*
X33852250Y13087000D01*
X33683000Y12917750D01*
X23467000Y12917750D01*
X23297750Y13087000D01*
X21838000Y13087000D01*
X21342000Y13087000D01*
X19882250Y13087000D01*
X19713000Y12917750D01*
X14329172Y12917750D01*
X14490102Y13337931D01*
X14454226Y14669664D01*
X19713000Y14669664D01*
X19713000Y13752250D01*
X19882250Y13583000D01*
X21342000Y13583000D01*
X21342000Y15042750D01*
X21838000Y15042750D01*
X21838000Y13583000D01*
X23297750Y13583000D01*
X23467000Y13752250D01*
X23467000Y14669664D01*
X33683000Y14669664D01*
X33683000Y13752250D01*
X33852250Y13583000D01*
X35312000Y13583000D01*
X35312000Y15042750D01*
X35808000Y15042750D01*
X35808000Y13583000D01*
X37267750Y13583000D01*
X37437000Y13752250D01*
X37437000Y14352103D01*
X56507779Y14352103D01*
X56701781Y13882583D01*
X57060693Y13523043D01*
X57529875Y13328222D01*
X57715608Y13328060D01*
X63556832Y7486837D01*
X63556834Y7486834D01*
X63865685Y7280467D01*
X64230000Y7208000D01*
X74659737Y7208000D01*
X74659737Y7160000D01*
X74706944Y6909119D01*
X74855214Y6678700D01*
X75081449Y6524120D01*
X75350000Y6469737D01*
X77050000Y6469737D01*
X77300881Y6516944D01*
X77531300Y6665214D01*
X77685880Y6891449D01*
X77740263Y7160000D01*
X77740263Y7303000D01*
X82053930Y7303000D01*
X82081944Y7154119D01*
X82230214Y6923700D01*
X82456449Y6769120D01*
X82725000Y6714737D01*
X84725000Y6714737D01*
X84975881Y6761944D01*
X85206300Y6910214D01*
X85360880Y7136449D01*
X85415263Y7405000D01*
X85415263Y9105000D01*
X85368056Y9355881D01*
X85219786Y9586300D01*
X84993551Y9740880D01*
X84725000Y9795263D01*
X82725000Y9795263D01*
X82474119Y9748056D01*
X82243700Y9599786D01*
X82089120Y9373551D01*
X82055393Y9207000D01*
X77731419Y9207000D01*
X77693056Y9410881D01*
X77544786Y9641300D01*
X77318551Y9795880D01*
X77050000Y9850263D01*
X75350000Y9850263D01*
X75099119Y9803056D01*
X74868700Y9654786D01*
X74714120Y9428551D01*
X74659737Y9160000D01*
X74659737Y9112000D01*
X64624331Y9112000D01*
X60105444Y13630888D01*
X63727710Y13630888D01*
X63982480Y13014297D01*
X64453816Y12542138D01*
X65069961Y12286292D01*
X65737112Y12285710D01*
X66353703Y12540480D01*
X66825862Y13011816D01*
X67081708Y13627961D01*
X67082290Y14295112D01*
X66827520Y14911703D01*
X66356184Y15383862D01*
X65740039Y15639708D01*
X65072888Y15640290D01*
X64456297Y15385520D01*
X63984138Y14914184D01*
X63728292Y14298039D01*
X63727710Y13630888D01*
X60105444Y13630888D01*
X59062061Y14674271D01*
X59062221Y14857897D01*
X58868219Y15327417D01*
X58509307Y15686957D01*
X58040125Y15881778D01*
X57532103Y15882221D01*
X57062583Y15688219D01*
X56703043Y15329307D01*
X56508222Y14860125D01*
X56507779Y14352103D01*
X37437000Y14352103D01*
X37437000Y14669664D01*
X37333933Y14918490D01*
X37143489Y15108933D01*
X36894663Y15212000D01*
X35977250Y15212000D01*
X35808000Y15042750D01*
X35312000Y15042750D01*
X35142750Y15212000D01*
X34225337Y15212000D01*
X33976511Y15108933D01*
X33786067Y14918490D01*
X33683000Y14669664D01*
X23467000Y14669664D01*
X23363933Y14918490D01*
X23173489Y15108933D01*
X22924663Y15212000D01*
X22007250Y15212000D01*
X21838000Y15042750D01*
X21342000Y15042750D01*
X21172750Y15212000D01*
X20255337Y15212000D01*
X20006511Y15108933D01*
X19816067Y14918490D01*
X19713000Y14669664D01*
X14454226Y14669664D01*
X14450712Y14800099D01*
X13966947Y15968010D01*
X13495385Y16319660D01*
X11145725Y13970000D01*
X10444275Y13970000D01*
X8094615Y16319660D01*
X7623053Y15968010D01*
X7099898Y14602069D01*
X752000Y14602069D01*
X752000Y16670385D01*
X8445340Y16670385D01*
X10795000Y14320725D01*
X13144660Y16670385D01*
X12793010Y17141947D01*
X11427069Y17665102D01*
X9964901Y17625712D01*
X8796990Y17141947D01*
X8445340Y16670385D01*
X752000Y16670385D01*
X752000Y19050000D01*
X70476227Y19050000D01*
X70588657Y18484777D01*
X70908830Y18005603D01*
X71246470Y17780000D01*
X70908830Y17554397D01*
X70588657Y17075223D01*
X70476227Y16510000D01*
X70588657Y15944777D01*
X70908830Y15465603D01*
X71246470Y15240000D01*
X70908830Y15014397D01*
X70588657Y14535223D01*
X70476227Y13970000D01*
X70588657Y13404777D01*
X70908830Y12925603D01*
X71388004Y12605430D01*
X71953227Y12493000D01*
X72826773Y12493000D01*
X73391996Y12605430D01*
X73871170Y12925603D01*
X73932908Y13018000D01*
X74535668Y13018000D01*
X74659737Y12893931D01*
X74659737Y11160000D01*
X74706944Y10909119D01*
X74855214Y10678700D01*
X75081449Y10524120D01*
X75350000Y10469737D01*
X77050000Y10469737D01*
X77300881Y10516944D01*
X77531300Y10665214D01*
X77685880Y10891449D01*
X77740263Y11160000D01*
X77740263Y13160000D01*
X77693056Y13410881D01*
X77544786Y13641300D01*
X77318551Y13795880D01*
X77050000Y13850263D01*
X76396068Y13850263D01*
X75603166Y14643166D01*
X75563509Y14669664D01*
X75294315Y14849533D01*
X74930000Y14922000D01*
X73932908Y14922000D01*
X73871170Y15014397D01*
X73533530Y15240000D01*
X73871170Y15465603D01*
X74191343Y15944777D01*
X74303773Y16510000D01*
X74191343Y17075223D01*
X73871170Y17554397D01*
X73533530Y17780000D01*
X73871170Y18005603D01*
X74191343Y18484777D01*
X74303773Y19050000D01*
X74191343Y19615223D01*
X73871170Y20094397D01*
X73797918Y20143343D01*
X73973490Y20216067D01*
X74163933Y20406511D01*
X74267000Y20655337D01*
X74267000Y21172750D01*
X74097750Y21342000D01*
X72638000Y21342000D01*
X72638000Y21322000D01*
X72142000Y21322000D01*
X72142000Y21342000D01*
X70682250Y21342000D01*
X70513000Y21172750D01*
X70513000Y20655337D01*
X70616067Y20406511D01*
X70806510Y20216067D01*
X70982082Y20143343D01*
X70908830Y20094397D01*
X70588657Y19615223D01*
X70476227Y19050000D01*
X752000Y19050000D01*
X752000Y21553750D01*
X3376000Y21553750D01*
X3376000Y20936336D01*
X3479067Y20687510D01*
X3669511Y20497067D01*
X3918337Y20394000D01*
X4535750Y20394000D01*
X4705000Y20563250D01*
X4705000Y21723000D01*
X5201000Y21723000D01*
X5201000Y20563250D01*
X5370250Y20394000D01*
X5987663Y20394000D01*
X6236489Y20497067D01*
X6426933Y20687510D01*
X6530000Y20936336D01*
X6530000Y21045750D01*
X63728000Y21045750D01*
X63728000Y20328336D01*
X63831067Y20079510D01*
X64021511Y19889067D01*
X64270337Y19786000D01*
X64987750Y19786000D01*
X65157000Y19955250D01*
X65157000Y21215000D01*
X65653000Y21215000D01*
X65653000Y19955250D01*
X65822250Y19786000D01*
X66539663Y19786000D01*
X66788489Y19889067D01*
X66978933Y20079510D01*
X67082000Y20328336D01*
X67082000Y21045750D01*
X66912750Y21215000D01*
X65653000Y21215000D01*
X65157000Y21215000D01*
X63897250Y21215000D01*
X63728000Y21045750D01*
X6530000Y21045750D01*
X6530000Y21553750D01*
X6360750Y21723000D01*
X5201000Y21723000D01*
X4705000Y21723000D01*
X3545250Y21723000D01*
X3376000Y21553750D01*
X752000Y21553750D01*
X752000Y27081895D01*
X3376000Y27081895D01*
X3376000Y27020105D01*
X3496042Y26416613D01*
X3837893Y25904998D01*
X4023469Y25781000D01*
X3837893Y25657002D01*
X3496042Y25145387D01*
X3376000Y24541895D01*
X3376000Y24480105D01*
X3496042Y23876613D01*
X3759559Y23482232D01*
X3669511Y23444933D01*
X3479067Y23254490D01*
X3376000Y23005664D01*
X3376000Y22388250D01*
X3545250Y22219000D01*
X4705000Y22219000D01*
X4705000Y22239000D01*
X5201000Y22239000D01*
X5201000Y22219000D01*
X6360750Y22219000D01*
X6530000Y22388250D01*
X6530000Y23005664D01*
X6426933Y23254490D01*
X6236489Y23444933D01*
X6146441Y23482232D01*
X6409958Y23876613D01*
X6530000Y24480105D01*
X6530000Y24541895D01*
X6526688Y24558548D01*
X19186000Y24558548D01*
X19186000Y24463452D01*
X19370744Y23534679D01*
X19896852Y22747304D01*
X20684227Y22221196D01*
X21613000Y22036452D01*
X22541773Y22221196D01*
X23105196Y22597664D01*
X63728000Y22597664D01*
X63728000Y21880250D01*
X63897250Y21711000D01*
X65157000Y21711000D01*
X65157000Y22970750D01*
X65653000Y22970750D01*
X65653000Y21711000D01*
X66912750Y21711000D01*
X67082000Y21880250D01*
X67082000Y22524663D01*
X70513000Y22524663D01*
X70513000Y22007250D01*
X70682250Y21838000D01*
X72142000Y21838000D01*
X72142000Y22897750D01*
X72638000Y22897750D01*
X72638000Y21838000D01*
X74097750Y21838000D01*
X74267000Y22007250D01*
X74267000Y22524663D01*
X74163933Y22773489D01*
X73973490Y22963933D01*
X73724664Y23067000D01*
X72807250Y23067000D01*
X72638000Y22897750D01*
X72142000Y22897750D01*
X71972750Y23067000D01*
X71055336Y23067000D01*
X70806510Y22963933D01*
X70616067Y22773489D01*
X70513000Y22524663D01*
X67082000Y22524663D01*
X67082000Y22597664D01*
X66978933Y22846490D01*
X66788489Y23036933D01*
X66539663Y23140000D01*
X65822250Y23140000D01*
X65653000Y22970750D01*
X65157000Y22970750D01*
X64987750Y23140000D01*
X64270337Y23140000D01*
X64021511Y23036933D01*
X63831067Y22846490D01*
X63728000Y22597664D01*
X23105196Y22597664D01*
X23329148Y22747304D01*
X23855256Y23534679D01*
X24040000Y24463452D01*
X24040000Y24558548D01*
X23855256Y25487321D01*
X23329148Y26274696D01*
X22541773Y26800804D01*
X21613000Y26985548D01*
X20684227Y26800804D01*
X19896852Y26274696D01*
X19370744Y25487321D01*
X19186000Y24558548D01*
X6526688Y24558548D01*
X6409958Y25145387D01*
X6068107Y25657002D01*
X5882531Y25781000D01*
X6068107Y25904998D01*
X6409958Y26416613D01*
X6530000Y27020105D01*
X6530000Y27081895D01*
X6409958Y27685387D01*
X6068107Y28197002D01*
X5556492Y28538853D01*
X4953000Y28658895D01*
X4349508Y28538853D01*
X3837893Y28197002D01*
X3496042Y27685387D01*
X3376000Y27081895D01*
X752000Y27081895D01*
X752000Y30988000D01*
X46038000Y30988000D01*
X46038000Y26254037D01*
X45908043Y26124307D01*
X45713222Y25655125D01*
X45712779Y25147103D01*
X45906781Y24677583D01*
X46265693Y24318043D01*
X46734875Y24123222D01*
X47242897Y24122779D01*
X47712417Y24316781D01*
X48071957Y24675693D01*
X48266778Y25144875D01*
X48267221Y25652897D01*
X48073219Y26122417D01*
X47942000Y26253866D01*
X47942000Y30988000D01*
X59817000Y30988000D01*
X59866410Y30998006D01*
X59908035Y31026447D01*
X59935315Y31068841D01*
X59944000Y31115000D01*
X59944000Y34037103D01*
X64127779Y34037103D01*
X64321781Y33567583D01*
X64680693Y33208043D01*
X65134088Y33019777D01*
X64682583Y32833219D01*
X64323043Y32474307D01*
X64128222Y32005125D01*
X64127779Y31497103D01*
X64321781Y31027583D01*
X64680693Y30668043D01*
X65149875Y30473222D01*
X65350779Y30473047D01*
X67420737Y27950775D01*
X67420737Y27123000D01*
X67467944Y26872119D01*
X67616214Y26641700D01*
X67761375Y26542516D01*
X67629700Y26457786D01*
X67475120Y26231551D01*
X67420737Y25963000D01*
X67420737Y24463000D01*
X67467944Y24212119D01*
X67616214Y23981700D01*
X67842449Y23827120D01*
X68111000Y23772737D01*
X68511000Y23772737D01*
X68640588Y23797121D01*
X68761000Y23772737D01*
X69161000Y23772737D01*
X69262327Y23791803D01*
X69276337Y23786000D01*
X69341750Y23786000D01*
X69367307Y23811557D01*
X69411881Y23819944D01*
X69642300Y23968214D01*
X69711000Y24068760D01*
X69711000Y23955250D01*
X69880250Y23786000D01*
X69945663Y23786000D01*
X70194489Y23889067D01*
X70384933Y24079510D01*
X70488000Y24328336D01*
X70488000Y24795750D01*
X70318750Y24965000D01*
X69851263Y24965000D01*
X69851263Y24982750D01*
X71273000Y24982750D01*
X71273000Y24365337D01*
X71376067Y24116511D01*
X71566510Y23926067D01*
X71815336Y23823000D01*
X73282750Y23823000D01*
X73452000Y23992250D01*
X73452000Y25152000D01*
X73948000Y25152000D01*
X73948000Y23992250D01*
X74117250Y23823000D01*
X75584664Y23823000D01*
X75833490Y23926067D01*
X76023933Y24116511D01*
X76127000Y24365337D01*
X76127000Y24982750D01*
X75957750Y25152000D01*
X73948000Y25152000D01*
X73452000Y25152000D01*
X71442250Y25152000D01*
X71273000Y24982750D01*
X69851263Y24982750D01*
X69851263Y25461000D01*
X70318750Y25461000D01*
X70488000Y25630250D01*
X70488000Y25824955D01*
X70555166Y25869834D01*
X70761533Y26178685D01*
X70771201Y26227291D01*
X71501647Y26957737D01*
X71768831Y26957737D01*
X71566510Y26873933D01*
X71376067Y26683489D01*
X71273000Y26434663D01*
X71273000Y25817250D01*
X71442250Y25648000D01*
X73452000Y25648000D01*
X73452000Y26807750D01*
X73948000Y26807750D01*
X73948000Y25648000D01*
X75957750Y25648000D01*
X76127000Y25817250D01*
X76127000Y26434663D01*
X76023933Y26683489D01*
X75833490Y26873933D01*
X75584664Y26977000D01*
X75375750Y26977000D01*
X75539000Y27140250D01*
X75539000Y28200000D01*
X76035000Y28200000D01*
X76035000Y27140250D01*
X76204250Y26971000D01*
X76847627Y26971000D01*
X76699119Y26943056D01*
X76468700Y26794786D01*
X76314120Y26568551D01*
X76259737Y26300000D01*
X76259737Y24500000D01*
X76306944Y24249119D01*
X76455214Y24018700D01*
X76681449Y23864120D01*
X76950000Y23809737D01*
X78807155Y23809737D01*
X78933000Y23683892D01*
X78933000Y22904454D01*
X78528830Y22634397D01*
X78208657Y22155223D01*
X78096227Y21590000D01*
X78208657Y21024777D01*
X78528830Y20545603D01*
X78866470Y20320000D01*
X78528830Y20094397D01*
X78208657Y19615223D01*
X78096227Y19050000D01*
X78208657Y18484777D01*
X78528830Y18005603D01*
X78866470Y17780000D01*
X78528830Y17554397D01*
X78208657Y17075223D01*
X78096227Y16510000D01*
X78208657Y15944777D01*
X78528830Y15465603D01*
X78866470Y15240000D01*
X78528830Y15014397D01*
X78208657Y14535223D01*
X78096227Y13970000D01*
X78208657Y13404777D01*
X78528830Y12925603D01*
X79008004Y12605430D01*
X79573227Y12493000D01*
X80446773Y12493000D01*
X81011996Y12605430D01*
X81442376Y12893000D01*
X82077450Y12893000D01*
X82081944Y12869119D01*
X82230214Y12638700D01*
X82456449Y12484120D01*
X82725000Y12429737D01*
X84725000Y12429737D01*
X84975881Y12476944D01*
X85206300Y12625214D01*
X85360880Y12851449D01*
X85415263Y13120000D01*
X85415263Y14820000D01*
X86034737Y14820000D01*
X86034737Y13120000D01*
X86081944Y12869119D01*
X86230214Y12638700D01*
X86456449Y12484120D01*
X86725000Y12429737D01*
X88725000Y12429737D01*
X88975881Y12476944D01*
X89206300Y12625214D01*
X89267341Y12714551D01*
X90785484Y11196408D01*
X90739120Y11128551D01*
X90684737Y10860000D01*
X90684737Y9682000D01*
X89079725Y9682000D01*
X88993551Y9740880D01*
X88725000Y9795263D01*
X86725000Y9795263D01*
X86474119Y9748056D01*
X86243700Y9599786D01*
X86089120Y9373551D01*
X86034737Y9105000D01*
X86034737Y7405000D01*
X86081944Y7154119D01*
X86230214Y6923700D01*
X86456449Y6769120D01*
X86725000Y6714737D01*
X88725000Y6714737D01*
X88975881Y6761944D01*
X89078535Y6828000D01*
X90784142Y6828000D01*
X90880214Y6678700D01*
X91086160Y6537983D01*
X90802818Y6113932D01*
X90698000Y5586977D01*
X90698000Y5533023D01*
X90802818Y5006068D01*
X91101314Y4559337D01*
X91548045Y4260841D01*
X92075000Y4156023D01*
X92601955Y4260841D01*
X93048686Y4559337D01*
X93134737Y4688121D01*
X93134737Y4485000D01*
X93181944Y4234119D01*
X93330214Y4003700D01*
X93556449Y3849120D01*
X93825000Y3794737D01*
X103325000Y3794737D01*
X103575881Y3841944D01*
X103806300Y3990214D01*
X103960880Y4216449D01*
X104015263Y4485000D01*
X104015263Y11235000D01*
X103968056Y11485881D01*
X103819786Y11716300D01*
X103593551Y11870880D01*
X103325000Y11925263D01*
X102392000Y11925263D01*
X102392000Y12700000D01*
X102283376Y13246089D01*
X101974041Y13709041D01*
X96894041Y18789041D01*
X96506482Y19048000D01*
X98157750Y19048000D01*
X98327000Y19217250D01*
X98327000Y22852000D01*
X98823000Y22852000D01*
X98823000Y19217250D01*
X98992250Y19048000D01*
X103459663Y19048000D01*
X103708489Y19151067D01*
X103898933Y19341510D01*
X104002000Y19590336D01*
X104002000Y22682750D01*
X103832750Y22852000D01*
X98823000Y22852000D01*
X98327000Y22852000D01*
X93317250Y22852000D01*
X93300000Y22834750D01*
X93282750Y22852000D01*
X92323000Y22852000D01*
X92323000Y22832000D01*
X91827000Y22832000D01*
X91827000Y22852000D01*
X90867250Y22852000D01*
X90698000Y22682750D01*
X90698000Y22265336D01*
X90801067Y22016510D01*
X90991511Y21826067D01*
X91058731Y21798224D01*
X90756624Y21346089D01*
X90648000Y20800000D01*
X90648000Y14380108D01*
X90296554Y14731554D01*
X89947150Y14965018D01*
X89535000Y15047000D01*
X89372550Y15047000D01*
X89368056Y15070881D01*
X89219786Y15301300D01*
X88993551Y15455880D01*
X88725000Y15510263D01*
X86725000Y15510263D01*
X86474119Y15463056D01*
X86243700Y15314786D01*
X86089120Y15088551D01*
X86034737Y14820000D01*
X85415263Y14820000D01*
X85368056Y15070881D01*
X85219786Y15301300D01*
X84993551Y15455880D01*
X84725000Y15510263D01*
X82725000Y15510263D01*
X82474119Y15463056D01*
X82243700Y15314786D01*
X82089120Y15088551D01*
X82080706Y15047000D01*
X81442376Y15047000D01*
X81153530Y15240000D01*
X81491170Y15465603D01*
X81811343Y15944777D01*
X81923773Y16510000D01*
X81811343Y17075223D01*
X81491170Y17554397D01*
X81153530Y17780000D01*
X81491170Y18005603D01*
X81498415Y18016446D01*
X81692150Y18054982D01*
X82041554Y18288446D01*
X84486554Y20733446D01*
X84720018Y21082850D01*
X84802000Y21495000D01*
X84802000Y23874226D01*
X84975881Y23906944D01*
X85206300Y24055214D01*
X85360880Y24281449D01*
X85415263Y24550000D01*
X85415263Y26250000D01*
X86034737Y26250000D01*
X86034737Y24550000D01*
X86081944Y24299119D01*
X86230214Y24068700D01*
X86456449Y23914120D01*
X86725000Y23859737D01*
X88725000Y23859737D01*
X88975881Y23906944D01*
X89206300Y24055214D01*
X89360880Y24281449D01*
X89369294Y24323000D01*
X90813099Y24323000D01*
X90863011Y24245434D01*
X90801067Y24183490D01*
X90698000Y23934664D01*
X90698000Y23517250D01*
X90867250Y23348000D01*
X91827000Y23348000D01*
X91827000Y23368000D01*
X92323000Y23368000D01*
X92323000Y23348000D01*
X93282750Y23348000D01*
X93300000Y23365250D01*
X93317250Y23348000D01*
X98327000Y23348000D01*
X98327000Y26982750D01*
X98823000Y26982750D01*
X98823000Y23348000D01*
X103832750Y23348000D01*
X104002000Y23517250D01*
X104002000Y26609664D01*
X103898933Y26858490D01*
X103708489Y27048933D01*
X103459663Y27152000D01*
X98992250Y27152000D01*
X98823000Y26982750D01*
X98327000Y26982750D01*
X98157750Y27152000D01*
X93690337Y27152000D01*
X93441511Y27048933D01*
X93251067Y26858490D01*
X93165708Y26652414D01*
X93043551Y26735880D01*
X92775000Y26790263D01*
X91375000Y26790263D01*
X91124119Y26743056D01*
X90893700Y26594786D01*
X90813220Y26477000D01*
X89372550Y26477000D01*
X89368056Y26500881D01*
X89219786Y26731300D01*
X88993551Y26885880D01*
X88725000Y26940263D01*
X86725000Y26940263D01*
X86474119Y26893056D01*
X86243700Y26744786D01*
X86089120Y26518551D01*
X86034737Y26250000D01*
X85415263Y26250000D01*
X85368056Y26500881D01*
X85219786Y26731300D01*
X84993551Y26885880D01*
X84725000Y26940263D01*
X82725000Y26940263D01*
X82474119Y26893056D01*
X82243700Y26744786D01*
X82089120Y26518551D01*
X82034737Y26250000D01*
X82034737Y24550000D01*
X82081944Y24299119D01*
X82230214Y24068700D01*
X82456449Y23914120D01*
X82648000Y23875330D01*
X82648000Y21941108D01*
X81831126Y21124234D01*
X81923773Y21590000D01*
X81811343Y22155223D01*
X81491170Y22634397D01*
X81087000Y22904454D01*
X81087000Y24130000D01*
X81071118Y24209844D01*
X81085880Y24231449D01*
X81140263Y24500000D01*
X81140263Y26300000D01*
X81093056Y26550881D01*
X80944786Y26781300D01*
X80718551Y26935880D01*
X80450000Y26990263D01*
X76968169Y26990263D01*
X77170490Y27074067D01*
X77360933Y27264511D01*
X77464000Y27513337D01*
X77464000Y28030750D01*
X77294750Y28200000D01*
X76035000Y28200000D01*
X75539000Y28200000D01*
X74279250Y28200000D01*
X74110000Y28030750D01*
X74110000Y27513337D01*
X74213067Y27264511D01*
X74403510Y27074067D01*
X74637851Y26977000D01*
X74117250Y26977000D01*
X73948000Y26807750D01*
X73452000Y26807750D01*
X73282750Y26977000D01*
X72889373Y26977000D01*
X73037881Y27004944D01*
X73268300Y27153214D01*
X73422880Y27379449D01*
X73477263Y27648000D01*
X73477263Y29248000D01*
X73451925Y29382663D01*
X74110000Y29382663D01*
X74110000Y28865250D01*
X74279250Y28696000D01*
X75539000Y28696000D01*
X75539000Y29755750D01*
X76035000Y29755750D01*
X76035000Y28696000D01*
X77294750Y28696000D01*
X77464000Y28865250D01*
X77464000Y29382663D01*
X77360933Y29631489D01*
X77170490Y29821933D01*
X76921664Y29925000D01*
X76204250Y29925000D01*
X76035000Y29755750D01*
X75539000Y29755750D01*
X75369750Y29925000D01*
X74652336Y29925000D01*
X74403510Y29821933D01*
X74213067Y29631489D01*
X74110000Y29382663D01*
X73451925Y29382663D01*
X73430056Y29498881D01*
X73281786Y29729300D01*
X73055551Y29883880D01*
X72787000Y29938263D01*
X71275173Y29938263D01*
X71726910Y30390000D01*
X80707138Y30390000D01*
X80936693Y30160043D01*
X81405875Y29965222D01*
X81913897Y29964779D01*
X82383417Y30158781D01*
X82742957Y30517693D01*
X82937778Y30986875D01*
X82938221Y31494897D01*
X82744219Y31964417D01*
X82385307Y32323957D01*
X81916125Y32518778D01*
X81408103Y32519221D01*
X80938583Y32325219D01*
X80706959Y32094000D01*
X71374000Y32094000D01*
X71047954Y32029145D01*
X71016550Y32008162D01*
X70701307Y32323957D01*
X70232125Y32518778D01*
X69724103Y32519221D01*
X69254583Y32325219D01*
X68895043Y31966307D01*
X68700222Y31497125D01*
X68700060Y31311392D01*
X68287834Y30899166D01*
X68081467Y30590314D01*
X68009000Y30226000D01*
X68081467Y29861686D01*
X68109000Y29820480D01*
X68109000Y29798161D01*
X66681815Y31537205D01*
X66682221Y32002897D01*
X66488219Y32472417D01*
X66129307Y32831957D01*
X65675912Y33020223D01*
X66127417Y33206781D01*
X66163699Y33243000D01*
X74659737Y33243000D01*
X74659737Y33195000D01*
X74706944Y32944119D01*
X74855214Y32713700D01*
X75081449Y32559120D01*
X75350000Y32504737D01*
X77050000Y32504737D01*
X77300881Y32551944D01*
X77531300Y32700214D01*
X77685880Y32926449D01*
X77740263Y33195000D01*
X77740263Y33338000D01*
X82053930Y33338000D01*
X82081944Y33189119D01*
X82230214Y32958700D01*
X82456449Y32804120D01*
X82725000Y32749737D01*
X84725000Y32749737D01*
X84975881Y32796944D01*
X85206300Y32945214D01*
X85360880Y33171449D01*
X85415263Y33440000D01*
X85415263Y35140000D01*
X85368056Y35390881D01*
X85219786Y35621300D01*
X84993551Y35775880D01*
X84725000Y35830263D01*
X82725000Y35830263D01*
X82474119Y35783056D01*
X82243700Y35634786D01*
X82089120Y35408551D01*
X82055393Y35242000D01*
X77731419Y35242000D01*
X77693056Y35445881D01*
X77544786Y35676300D01*
X77318551Y35830880D01*
X77050000Y35885263D01*
X75350000Y35885263D01*
X75099119Y35838056D01*
X74868700Y35689786D01*
X74714120Y35463551D01*
X74659737Y35195000D01*
X74659737Y35147000D01*
X66353871Y35147000D01*
X66129307Y35371957D01*
X65660125Y35566778D01*
X65152103Y35567221D01*
X64682583Y35373219D01*
X64323043Y35014307D01*
X64128222Y34545125D01*
X64127779Y34037103D01*
X59944000Y34037103D01*
X59944000Y39792888D01*
X63346710Y39792888D01*
X63601480Y39176297D01*
X64072816Y38704138D01*
X64688961Y38448292D01*
X65356112Y38447710D01*
X65972703Y38702480D01*
X66444862Y39173816D01*
X66700708Y39789961D01*
X66701290Y40457112D01*
X66446520Y41073703D01*
X65975184Y41545862D01*
X65359039Y41801708D01*
X64691888Y41802290D01*
X64075297Y41547520D01*
X63603138Y41076184D01*
X63347292Y40460039D01*
X63346710Y39792888D01*
X59944000Y39792888D01*
X59944000Y45085000D01*
X70476227Y45085000D01*
X70588657Y44519777D01*
X70908830Y44040603D01*
X71246470Y43815000D01*
X70908830Y43589397D01*
X70588657Y43110223D01*
X70476227Y42545000D01*
X70588657Y41979777D01*
X70908830Y41500603D01*
X71246470Y41275000D01*
X70908830Y41049397D01*
X70588657Y40570223D01*
X70476227Y40005000D01*
X70588657Y39439777D01*
X70908830Y38960603D01*
X71388004Y38640430D01*
X71953227Y38528000D01*
X72826773Y38528000D01*
X73391996Y38640430D01*
X73871170Y38960603D01*
X73932908Y39053000D01*
X74535668Y39053000D01*
X74659737Y38928931D01*
X74659737Y37195000D01*
X74706944Y36944119D01*
X74855214Y36713700D01*
X75081449Y36559120D01*
X75350000Y36504737D01*
X77050000Y36504737D01*
X77300881Y36551944D01*
X77531300Y36700214D01*
X77685880Y36926449D01*
X77740263Y37195000D01*
X77740263Y39195000D01*
X77693056Y39445881D01*
X77544786Y39676300D01*
X77318551Y39830880D01*
X77050000Y39885263D01*
X76396068Y39885263D01*
X75603166Y40678166D01*
X75587886Y40688376D01*
X75294315Y40884533D01*
X74930000Y40957000D01*
X73932908Y40957000D01*
X73871170Y41049397D01*
X73533530Y41275000D01*
X73871170Y41500603D01*
X74191343Y41979777D01*
X74303773Y42545000D01*
X74191343Y43110223D01*
X73871170Y43589397D01*
X73533530Y43815000D01*
X73871170Y44040603D01*
X74191343Y44519777D01*
X74303773Y45085000D01*
X74191343Y45650223D01*
X73871170Y46129397D01*
X73797918Y46178343D01*
X73973490Y46251067D01*
X74163933Y46441511D01*
X74267000Y46690337D01*
X74267000Y47207750D01*
X74097750Y47377000D01*
X72638000Y47377000D01*
X72638000Y47357000D01*
X72142000Y47357000D01*
X72142000Y47377000D01*
X70682250Y47377000D01*
X70513000Y47207750D01*
X70513000Y46690337D01*
X70616067Y46441511D01*
X70806510Y46251067D01*
X70982082Y46178343D01*
X70908830Y46129397D01*
X70588657Y45650223D01*
X70476227Y45085000D01*
X59944000Y45085000D01*
X59944000Y47207750D01*
X63347000Y47207750D01*
X63347000Y46490336D01*
X63450067Y46241510D01*
X63640511Y46051067D01*
X63889337Y45948000D01*
X64606750Y45948000D01*
X64776000Y46117250D01*
X64776000Y47377000D01*
X65272000Y47377000D01*
X65272000Y46117250D01*
X65441250Y45948000D01*
X66158663Y45948000D01*
X66407489Y46051067D01*
X66597933Y46241510D01*
X66701000Y46490336D01*
X66701000Y47207750D01*
X66531750Y47377000D01*
X65272000Y47377000D01*
X64776000Y47377000D01*
X63516250Y47377000D01*
X63347000Y47207750D01*
X59944000Y47207750D01*
X59944000Y48759664D01*
X63347000Y48759664D01*
X63347000Y48042250D01*
X63516250Y47873000D01*
X64776000Y47873000D01*
X64776000Y49132750D01*
X65272000Y49132750D01*
X65272000Y47873000D01*
X66531750Y47873000D01*
X66701000Y48042250D01*
X66701000Y48559663D01*
X70513000Y48559663D01*
X70513000Y48042250D01*
X70682250Y47873000D01*
X72142000Y47873000D01*
X72142000Y48932750D01*
X72638000Y48932750D01*
X72638000Y47873000D01*
X74097750Y47873000D01*
X74267000Y48042250D01*
X74267000Y48559663D01*
X74163933Y48808489D01*
X73973490Y48998933D01*
X73724664Y49102000D01*
X72807250Y49102000D01*
X72638000Y48932750D01*
X72142000Y48932750D01*
X71972750Y49102000D01*
X71055336Y49102000D01*
X70806510Y48998933D01*
X70616067Y48808489D01*
X70513000Y48559663D01*
X66701000Y48559663D01*
X66701000Y48759664D01*
X66597933Y49008490D01*
X66407489Y49198933D01*
X66158663Y49302000D01*
X65441250Y49302000D01*
X65272000Y49132750D01*
X64776000Y49132750D01*
X64606750Y49302000D01*
X63889337Y49302000D01*
X63640511Y49198933D01*
X63450067Y49008490D01*
X63347000Y48759664D01*
X59944000Y48759664D01*
X59944000Y60072103D01*
X64762779Y60072103D01*
X64956781Y59602583D01*
X65186549Y59372413D01*
X64958043Y59144307D01*
X64763222Y58675125D01*
X64762779Y58167103D01*
X64956781Y57697583D01*
X65315693Y57338043D01*
X65784875Y57143222D01*
X65970608Y57143060D01*
X67332000Y55781668D01*
X67332000Y54846948D01*
X67293737Y54658000D01*
X67293737Y53158000D01*
X67340944Y52907119D01*
X67489214Y52676700D01*
X67634375Y52577516D01*
X67502700Y52492786D01*
X67348120Y52266551D01*
X67293737Y51998000D01*
X67293737Y50498000D01*
X67340944Y50247119D01*
X67489214Y50016700D01*
X67715449Y49862120D01*
X67984000Y49807737D01*
X68384000Y49807737D01*
X68513588Y49832121D01*
X68634000Y49807737D01*
X69034000Y49807737D01*
X69135327Y49826803D01*
X69149337Y49821000D01*
X69214750Y49821000D01*
X69240307Y49846557D01*
X69284881Y49854944D01*
X69515300Y50003214D01*
X69584000Y50103760D01*
X69584000Y49990250D01*
X69753250Y49821000D01*
X69818663Y49821000D01*
X70067489Y49924067D01*
X70257933Y50114510D01*
X70361000Y50363336D01*
X70361000Y50830750D01*
X70191750Y51000000D01*
X69724263Y51000000D01*
X69724263Y51017750D01*
X71273000Y51017750D01*
X71273000Y50400337D01*
X71376067Y50151511D01*
X71566510Y49961067D01*
X71815336Y49858000D01*
X73282750Y49858000D01*
X73452000Y50027250D01*
X73452000Y51187000D01*
X73948000Y51187000D01*
X73948000Y50027250D01*
X74117250Y49858000D01*
X75584664Y49858000D01*
X75833490Y49961067D01*
X76023933Y50151511D01*
X76127000Y50400337D01*
X76127000Y51017750D01*
X75957750Y51187000D01*
X73948000Y51187000D01*
X73452000Y51187000D01*
X71442250Y51187000D01*
X71273000Y51017750D01*
X69724263Y51017750D01*
X69724263Y51496000D01*
X70191750Y51496000D01*
X70321750Y51626000D01*
X70485000Y51626000D01*
X70849315Y51698467D01*
X71158166Y51904834D01*
X71273000Y52019668D01*
X71273000Y51852250D01*
X71442250Y51683000D01*
X73452000Y51683000D01*
X73452000Y52842750D01*
X73948000Y52842750D01*
X73948000Y51683000D01*
X75957750Y51683000D01*
X76127000Y51852250D01*
X76127000Y52469663D01*
X76023933Y52718489D01*
X75863423Y52879000D01*
X76035002Y52879000D01*
X76035002Y53048248D01*
X76204250Y52879000D01*
X76545181Y52879000D01*
X76468700Y52829786D01*
X76314120Y52603551D01*
X76259737Y52335000D01*
X76259737Y50535000D01*
X76306944Y50284119D01*
X76455214Y50053700D01*
X76681449Y49899120D01*
X76950000Y49844737D01*
X78807155Y49844737D01*
X78933000Y49718892D01*
X78933000Y48939454D01*
X78528830Y48669397D01*
X78208657Y48190223D01*
X78096227Y47625000D01*
X78208657Y47059777D01*
X78528830Y46580603D01*
X78866470Y46355000D01*
X78528830Y46129397D01*
X78208657Y45650223D01*
X78096227Y45085000D01*
X78208657Y44519777D01*
X78528830Y44040603D01*
X78866470Y43815000D01*
X78528830Y43589397D01*
X78208657Y43110223D01*
X78096227Y42545000D01*
X78208657Y41979777D01*
X78528830Y41500603D01*
X78866470Y41275000D01*
X78528830Y41049397D01*
X78208657Y40570223D01*
X78096227Y40005000D01*
X78208657Y39439777D01*
X78528830Y38960603D01*
X79008004Y38640430D01*
X79573227Y38528000D01*
X80446773Y38528000D01*
X81011996Y38640430D01*
X81442376Y38928000D01*
X82077450Y38928000D01*
X82081944Y38904119D01*
X82230214Y38673700D01*
X82456449Y38519120D01*
X82725000Y38464737D01*
X84725000Y38464737D01*
X84975881Y38511944D01*
X85206300Y38660214D01*
X85360880Y38886449D01*
X85415263Y39155000D01*
X85415263Y40855000D01*
X86034737Y40855000D01*
X86034737Y39155000D01*
X86081944Y38904119D01*
X86230214Y38673700D01*
X86456449Y38519120D01*
X86725000Y38464737D01*
X88725000Y38464737D01*
X88975881Y38511944D01*
X89206300Y38660214D01*
X89267341Y38749551D01*
X90785484Y37231408D01*
X90739120Y37163551D01*
X90684737Y36895000D01*
X90684737Y35717000D01*
X89079725Y35717000D01*
X88993551Y35775880D01*
X88725000Y35830263D01*
X86725000Y35830263D01*
X86474119Y35783056D01*
X86243700Y35634786D01*
X86089120Y35408551D01*
X86034737Y35140000D01*
X86034737Y33440000D01*
X86081944Y33189119D01*
X86230214Y32958700D01*
X86456449Y32804120D01*
X86725000Y32749737D01*
X88725000Y32749737D01*
X88975881Y32796944D01*
X89078535Y32863000D01*
X90784142Y32863000D01*
X90880214Y32713700D01*
X91086160Y32572983D01*
X90802818Y32148932D01*
X90698000Y31621977D01*
X90698000Y31568023D01*
X90802818Y31041068D01*
X91101314Y30594337D01*
X91548045Y30295841D01*
X92075000Y30191023D01*
X92601955Y30295841D01*
X93048686Y30594337D01*
X93134737Y30723121D01*
X93134737Y30520000D01*
X93181944Y30269119D01*
X93330214Y30038700D01*
X93556449Y29884120D01*
X93825000Y29829737D01*
X103325000Y29829737D01*
X103575881Y29876944D01*
X103806300Y30025214D01*
X103960880Y30251449D01*
X104015263Y30520000D01*
X104015263Y37270000D01*
X103968056Y37520881D01*
X103819786Y37751300D01*
X103593551Y37905880D01*
X103325000Y37960263D01*
X102392000Y37960263D01*
X102392000Y39370000D01*
X102283376Y39916089D01*
X101974042Y40379041D01*
X98164041Y44189041D01*
X97701089Y44498376D01*
X97155000Y44607000D01*
X93502000Y44607000D01*
X93502000Y45161012D01*
X93690337Y45083000D01*
X98157750Y45083000D01*
X98327000Y45252250D01*
X98327000Y48887000D01*
X98823000Y48887000D01*
X98823000Y45252250D01*
X98992250Y45083000D01*
X103459663Y45083000D01*
X103708489Y45186067D01*
X103898933Y45376510D01*
X104002000Y45625336D01*
X104002000Y48717750D01*
X103832750Y48887000D01*
X98823000Y48887000D01*
X98327000Y48887000D01*
X93317250Y48887000D01*
X93300000Y48869750D01*
X93282750Y48887000D01*
X92323000Y48887000D01*
X92323000Y48867000D01*
X91827000Y48867000D01*
X91827000Y48887000D01*
X90867250Y48887000D01*
X90698000Y48717750D01*
X90698000Y48300336D01*
X90801067Y48051510D01*
X90991511Y47861067D01*
X91058731Y47833224D01*
X90756624Y47381089D01*
X90648000Y46835000D01*
X90648000Y40640000D01*
X90701843Y40369315D01*
X90703842Y40359266D01*
X90296554Y40766554D01*
X89947150Y41000018D01*
X89535000Y41082000D01*
X89372550Y41082000D01*
X89368056Y41105881D01*
X89219786Y41336300D01*
X88993551Y41490880D01*
X88725000Y41545263D01*
X86725000Y41545263D01*
X86474119Y41498056D01*
X86243700Y41349786D01*
X86089120Y41123551D01*
X86034737Y40855000D01*
X85415263Y40855000D01*
X85368056Y41105881D01*
X85219786Y41336300D01*
X84993551Y41490880D01*
X84725000Y41545263D01*
X82725000Y41545263D01*
X82474119Y41498056D01*
X82243700Y41349786D01*
X82089120Y41123551D01*
X82080706Y41082000D01*
X81442376Y41082000D01*
X81153530Y41275000D01*
X81491170Y41500603D01*
X81811343Y41979777D01*
X81923773Y42545000D01*
X81811343Y43110223D01*
X81491170Y43589397D01*
X81153530Y43815000D01*
X81442376Y44008000D01*
X82550000Y44008000D01*
X82962150Y44089982D01*
X83311554Y44323446D01*
X84486554Y45498446D01*
X84720018Y45847850D01*
X84802000Y46260000D01*
X84802000Y49909226D01*
X84975881Y49941944D01*
X85206300Y50090214D01*
X85360880Y50316449D01*
X85415263Y50585000D01*
X85415263Y52285000D01*
X86034737Y52285000D01*
X86034737Y50585000D01*
X86081944Y50334119D01*
X86230214Y50103700D01*
X86456449Y49949120D01*
X86725000Y49894737D01*
X88725000Y49894737D01*
X88975881Y49941944D01*
X89206300Y50090214D01*
X89360880Y50316449D01*
X89369294Y50358000D01*
X90813099Y50358000D01*
X90863011Y50280434D01*
X90801067Y50218490D01*
X90698000Y49969664D01*
X90698000Y49552250D01*
X90867250Y49383000D01*
X91827000Y49383000D01*
X91827000Y49403000D01*
X92323000Y49403000D01*
X92323000Y49383000D01*
X93282750Y49383000D01*
X93300000Y49400250D01*
X93317250Y49383000D01*
X98327000Y49383000D01*
X98327000Y53017750D01*
X98823000Y53017750D01*
X98823000Y49383000D01*
X103832750Y49383000D01*
X104002000Y49552250D01*
X104002000Y52644664D01*
X103898933Y52893490D01*
X103708489Y53083933D01*
X103459663Y53187000D01*
X98992250Y53187000D01*
X98823000Y53017750D01*
X98327000Y53017750D01*
X98157750Y53187000D01*
X93690337Y53187000D01*
X93441511Y53083933D01*
X93251067Y52893490D01*
X93165708Y52687414D01*
X93043551Y52770880D01*
X92775000Y52825263D01*
X91375000Y52825263D01*
X91124119Y52778056D01*
X90893700Y52629786D01*
X90813220Y52512000D01*
X89372550Y52512000D01*
X89368056Y52535881D01*
X89219786Y52766300D01*
X88993551Y52920880D01*
X88725000Y52975263D01*
X86725000Y52975263D01*
X86474119Y52928056D01*
X86243700Y52779786D01*
X86089120Y52553551D01*
X86034737Y52285000D01*
X85415263Y52285000D01*
X85368056Y52535881D01*
X85219786Y52766300D01*
X84993551Y52920880D01*
X84725000Y52975263D01*
X82725000Y52975263D01*
X82474119Y52928056D01*
X82243700Y52779786D01*
X82089120Y52553551D01*
X82034737Y52285000D01*
X82034737Y50585000D01*
X82081944Y50334119D01*
X82230214Y50103700D01*
X82456449Y49949120D01*
X82648000Y49910330D01*
X82648000Y46706108D01*
X82103892Y46162000D01*
X81442376Y46162000D01*
X81153530Y46355000D01*
X81491170Y46580603D01*
X81811343Y47059777D01*
X81923773Y47625000D01*
X81811343Y48190223D01*
X81491170Y48669397D01*
X81087000Y48939454D01*
X81087000Y50165000D01*
X81071118Y50244844D01*
X81085880Y50266449D01*
X81140263Y50535000D01*
X81140263Y52335000D01*
X81093056Y52585881D01*
X80944786Y52816300D01*
X80718551Y52970880D01*
X80450000Y53025263D01*
X77213686Y53025263D01*
X77360933Y53172511D01*
X77464000Y53421337D01*
X77464000Y53938750D01*
X77294750Y54108000D01*
X76035000Y54108000D01*
X76035000Y54088000D01*
X75539000Y54088000D01*
X75539000Y54108000D01*
X74279250Y54108000D01*
X74110000Y53938750D01*
X74110000Y53421337D01*
X74213067Y53172511D01*
X74373577Y53012000D01*
X74117250Y53012000D01*
X73948000Y52842750D01*
X73452000Y52842750D01*
X73282750Y53012000D01*
X73191819Y53012000D01*
X73268300Y53061214D01*
X73422880Y53287449D01*
X73477263Y53556000D01*
X73477263Y55156000D01*
X73451925Y55290663D01*
X74110000Y55290663D01*
X74110000Y54773250D01*
X74279250Y54604000D01*
X75539000Y54604000D01*
X75539000Y55663750D01*
X76035000Y55663750D01*
X76035000Y54604000D01*
X77294750Y54604000D01*
X77464000Y54773250D01*
X77464000Y55290663D01*
X77360933Y55539489D01*
X77170490Y55729933D01*
X76921664Y55833000D01*
X76204250Y55833000D01*
X76035000Y55663750D01*
X75539000Y55663750D01*
X75369750Y55833000D01*
X74652336Y55833000D01*
X74403510Y55729933D01*
X74213067Y55539489D01*
X74110000Y55290663D01*
X73451925Y55290663D01*
X73430056Y55406881D01*
X73281786Y55637300D01*
X73055551Y55791880D01*
X72787000Y55846263D01*
X71402173Y55846263D01*
X71980910Y56425000D01*
X80707138Y56425000D01*
X80936693Y56195043D01*
X81405875Y56000222D01*
X81913897Y55999779D01*
X82383417Y56193781D01*
X82742957Y56552693D01*
X82937778Y57021875D01*
X82938221Y57529897D01*
X82744219Y57999417D01*
X82385307Y58358957D01*
X81916125Y58553778D01*
X81408103Y58554221D01*
X80938583Y58360219D01*
X80706959Y58129000D01*
X71628000Y58129000D01*
X71301954Y58064145D01*
X71191084Y57990064D01*
X71187219Y57999417D01*
X70828307Y58358957D01*
X70359125Y58553778D01*
X69851103Y58554221D01*
X69381583Y58360219D01*
X69022043Y58001307D01*
X68827222Y57532125D01*
X68826937Y57204847D01*
X68714211Y57092121D01*
X67317061Y58489271D01*
X67317221Y58672897D01*
X67123219Y59142417D01*
X66987873Y59278000D01*
X74659737Y59278000D01*
X74659737Y59230000D01*
X74706944Y58979119D01*
X74855214Y58748700D01*
X75081449Y58594120D01*
X75350000Y58539737D01*
X77050000Y58539737D01*
X77300881Y58586944D01*
X77531300Y58735214D01*
X77685880Y58961449D01*
X77740263Y59230000D01*
X77740263Y59278000D01*
X82071805Y59278000D01*
X82081944Y59224119D01*
X82230214Y58993700D01*
X82456449Y58839120D01*
X82725000Y58784737D01*
X84725000Y58784737D01*
X84975881Y58831944D01*
X85206300Y58980214D01*
X85360880Y59206449D01*
X85415263Y59475000D01*
X85415263Y61175000D01*
X85368056Y61425881D01*
X85219786Y61656300D01*
X84993551Y61810880D01*
X84725000Y61865263D01*
X82725000Y61865263D01*
X82474119Y61818056D01*
X82243700Y61669786D01*
X82089120Y61443551D01*
X82036155Y61182000D01*
X77740263Y61182000D01*
X77740263Y61230000D01*
X77693056Y61480881D01*
X77544786Y61711300D01*
X77318551Y61865880D01*
X77050000Y61920263D01*
X75350000Y61920263D01*
X75099119Y61873056D01*
X74868700Y61724786D01*
X74714120Y61498551D01*
X74659737Y61230000D01*
X74659737Y61182000D01*
X66988871Y61182000D01*
X66764307Y61406957D01*
X66295125Y61601778D01*
X65787103Y61602221D01*
X65317583Y61408219D01*
X64958043Y61049307D01*
X64763222Y60580125D01*
X64762779Y60072103D01*
X59944000Y60072103D01*
X59944000Y65827888D01*
X63600710Y65827888D01*
X63855480Y65211297D01*
X64326816Y64739138D01*
X64942961Y64483292D01*
X65610112Y64482710D01*
X66226703Y64737480D01*
X66698862Y65208816D01*
X66954708Y65824961D01*
X66955290Y66492112D01*
X66700520Y67108703D01*
X66229184Y67580862D01*
X65613039Y67836708D01*
X64945888Y67837290D01*
X64329297Y67582520D01*
X63857138Y67111184D01*
X63601292Y66495039D01*
X63600710Y65827888D01*
X59944000Y65827888D01*
X59944000Y71120000D01*
X70476227Y71120000D01*
X70588657Y70554777D01*
X70908830Y70075603D01*
X71246470Y69850000D01*
X70908830Y69624397D01*
X70588657Y69145223D01*
X70476227Y68580000D01*
X70588657Y68014777D01*
X70908830Y67535603D01*
X71246470Y67310000D01*
X70908830Y67084397D01*
X70588657Y66605223D01*
X70476227Y66040000D01*
X70588657Y65474777D01*
X70908830Y64995603D01*
X71388004Y64675430D01*
X71953227Y64563000D01*
X72826773Y64563000D01*
X73391996Y64675430D01*
X73871170Y64995603D01*
X73932908Y65088000D01*
X74535668Y65088000D01*
X74659737Y64963931D01*
X74659737Y63230000D01*
X74706944Y62979119D01*
X74855214Y62748700D01*
X75081449Y62594120D01*
X75350000Y62539737D01*
X77050000Y62539737D01*
X77300881Y62586944D01*
X77531300Y62735214D01*
X77685880Y62961449D01*
X77740263Y63230000D01*
X77740263Y65230000D01*
X77693056Y65480881D01*
X77544786Y65711300D01*
X77318551Y65865880D01*
X77050000Y65920263D01*
X76396068Y65920263D01*
X75603166Y66713166D01*
X75587886Y66723376D01*
X75294315Y66919533D01*
X74930000Y66992000D01*
X73932908Y66992000D01*
X73871170Y67084397D01*
X73533530Y67310000D01*
X73871170Y67535603D01*
X74191343Y68014777D01*
X74303773Y68580000D01*
X74191343Y69145223D01*
X73871170Y69624397D01*
X73533530Y69850000D01*
X73871170Y70075603D01*
X74191343Y70554777D01*
X74303773Y71120000D01*
X74191343Y71685223D01*
X73871170Y72164397D01*
X73797918Y72213343D01*
X73973490Y72286067D01*
X74163933Y72476511D01*
X74267000Y72725337D01*
X74267000Y73242750D01*
X74097750Y73412000D01*
X72638000Y73412000D01*
X72638000Y73392000D01*
X72142000Y73392000D01*
X72142000Y73412000D01*
X70682250Y73412000D01*
X70513000Y73242750D01*
X70513000Y72725337D01*
X70616067Y72476511D01*
X70806510Y72286067D01*
X70982082Y72213343D01*
X70908830Y72164397D01*
X70588657Y71685223D01*
X70476227Y71120000D01*
X59944000Y71120000D01*
X59944000Y73242750D01*
X63601000Y73242750D01*
X63601000Y72525336D01*
X63704067Y72276510D01*
X63894511Y72086067D01*
X64143337Y71983000D01*
X64860750Y71983000D01*
X65030000Y72152250D01*
X65030000Y73412000D01*
X65526000Y73412000D01*
X65526000Y72152250D01*
X65695250Y71983000D01*
X66412663Y71983000D01*
X66661489Y72086067D01*
X66851933Y72276510D01*
X66955000Y72525336D01*
X66955000Y73242750D01*
X66785750Y73412000D01*
X65526000Y73412000D01*
X65030000Y73412000D01*
X63770250Y73412000D01*
X63601000Y73242750D01*
X59944000Y73242750D01*
X59944000Y74794664D01*
X63601000Y74794664D01*
X63601000Y74077250D01*
X63770250Y73908000D01*
X65030000Y73908000D01*
X65030000Y75167750D01*
X65526000Y75167750D01*
X65526000Y73908000D01*
X66785750Y73908000D01*
X66955000Y74077250D01*
X66955000Y74594663D01*
X70513000Y74594663D01*
X70513000Y74077250D01*
X70682250Y73908000D01*
X72142000Y73908000D01*
X72142000Y74967750D01*
X72638000Y74967750D01*
X72638000Y73908000D01*
X74097750Y73908000D01*
X74267000Y74077250D01*
X74267000Y74594663D01*
X74163933Y74843489D01*
X73973490Y75033933D01*
X73724664Y75137000D01*
X72807250Y75137000D01*
X72638000Y74967750D01*
X72142000Y74967750D01*
X71972750Y75137000D01*
X71055336Y75137000D01*
X70806510Y75033933D01*
X70616067Y74843489D01*
X70513000Y74594663D01*
X66955000Y74594663D01*
X66955000Y74794664D01*
X66851933Y75043490D01*
X66661489Y75233933D01*
X66412663Y75337000D01*
X65695250Y75337000D01*
X65526000Y75167750D01*
X65030000Y75167750D01*
X64860750Y75337000D01*
X64143337Y75337000D01*
X63894511Y75233933D01*
X63704067Y75043490D01*
X63601000Y74794664D01*
X59944000Y74794664D01*
X59944000Y77052750D01*
X71273000Y77052750D01*
X71273000Y76435337D01*
X71376067Y76186511D01*
X71566510Y75996067D01*
X71815336Y75893000D01*
X73282750Y75893000D01*
X73452000Y76062250D01*
X73452000Y77222000D01*
X73948000Y77222000D01*
X73948000Y76062250D01*
X74117250Y75893000D01*
X75584664Y75893000D01*
X75833490Y75996067D01*
X76023933Y76186511D01*
X76127000Y76435337D01*
X76127000Y77052750D01*
X75957750Y77222000D01*
X73948000Y77222000D01*
X73452000Y77222000D01*
X71442250Y77222000D01*
X71273000Y77052750D01*
X59944000Y77052750D01*
X59944000Y78504663D01*
X71273000Y78504663D01*
X71273000Y77887250D01*
X71442250Y77718000D01*
X73452000Y77718000D01*
X73452000Y78877750D01*
X73948000Y78877750D01*
X73948000Y77718000D01*
X75957750Y77718000D01*
X76127000Y77887250D01*
X76127000Y78370000D01*
X76259737Y78370000D01*
X76259737Y76570000D01*
X76306944Y76319119D01*
X76455214Y76088700D01*
X76681449Y75934120D01*
X76950000Y75879737D01*
X78172155Y75879737D01*
X78933000Y75118892D01*
X78933000Y74974454D01*
X78528830Y74704397D01*
X78208657Y74225223D01*
X78096227Y73660000D01*
X78208657Y73094777D01*
X78528830Y72615603D01*
X78866470Y72390000D01*
X78528830Y72164397D01*
X78208657Y71685223D01*
X78096227Y71120000D01*
X78208657Y70554777D01*
X78528830Y70075603D01*
X78866470Y69850000D01*
X78528830Y69624397D01*
X78208657Y69145223D01*
X78096227Y68580000D01*
X78208657Y68014777D01*
X78528830Y67535603D01*
X78866470Y67310000D01*
X78528830Y67084397D01*
X78208657Y66605223D01*
X78096227Y66040000D01*
X78208657Y65474777D01*
X78528830Y64995603D01*
X79008004Y64675430D01*
X79573227Y64563000D01*
X80446773Y64563000D01*
X81011996Y64675430D01*
X81442376Y64963000D01*
X82077450Y64963000D01*
X82081944Y64939119D01*
X82230214Y64708700D01*
X82456449Y64554120D01*
X82725000Y64499737D01*
X84725000Y64499737D01*
X84975881Y64546944D01*
X85206300Y64695214D01*
X85360880Y64921449D01*
X85415263Y65190000D01*
X85415263Y66890000D01*
X86034737Y66890000D01*
X86034737Y65190000D01*
X86081944Y64939119D01*
X86230214Y64708700D01*
X86456449Y64554120D01*
X86725000Y64499737D01*
X88282155Y64499737D01*
X90684737Y62097155D01*
X90684737Y61752000D01*
X89079725Y61752000D01*
X88993551Y61810880D01*
X88725000Y61865263D01*
X86725000Y61865263D01*
X86474119Y61818056D01*
X86243700Y61669786D01*
X86089120Y61443551D01*
X86034737Y61175000D01*
X86034737Y59475000D01*
X86081944Y59224119D01*
X86230214Y58993700D01*
X86456449Y58839120D01*
X86725000Y58784737D01*
X88725000Y58784737D01*
X88975881Y58831944D01*
X89078535Y58898000D01*
X90784142Y58898000D01*
X90880214Y58748700D01*
X91086160Y58607983D01*
X90802818Y58183932D01*
X90698000Y57656977D01*
X90698000Y57603023D01*
X90802818Y57076068D01*
X91101314Y56629337D01*
X91548045Y56330841D01*
X92075000Y56226023D01*
X92601955Y56330841D01*
X93048686Y56629337D01*
X93134737Y56758121D01*
X93134737Y56555000D01*
X93181944Y56304119D01*
X93330214Y56073700D01*
X93556449Y55919120D01*
X93825000Y55864737D01*
X103325000Y55864737D01*
X103575881Y55911944D01*
X103806300Y56060214D01*
X103960880Y56286449D01*
X104015263Y56555000D01*
X104015263Y63305000D01*
X103968056Y63555881D01*
X103819786Y63786300D01*
X103593551Y63940880D01*
X103325000Y63995263D01*
X102392000Y63995263D01*
X102392000Y65405000D01*
X102283376Y65951089D01*
X102283376Y65951090D01*
X101974041Y66414042D01*
X97529041Y70859041D01*
X97141482Y71118000D01*
X98157750Y71118000D01*
X98327000Y71287250D01*
X98327000Y74922000D01*
X98823000Y74922000D01*
X98823000Y71287250D01*
X98992250Y71118000D01*
X103459663Y71118000D01*
X103708489Y71221067D01*
X103898933Y71411510D01*
X104002000Y71660336D01*
X104002000Y74752750D01*
X103832750Y74922000D01*
X98823000Y74922000D01*
X98327000Y74922000D01*
X93317250Y74922000D01*
X93300000Y74904750D01*
X93282750Y74922000D01*
X92323000Y74922000D01*
X92323000Y74902000D01*
X91827000Y74902000D01*
X91827000Y74922000D01*
X90867250Y74922000D01*
X90698000Y74752750D01*
X90698000Y74335336D01*
X90801067Y74086510D01*
X90991511Y73896067D01*
X91058731Y73868224D01*
X90756624Y73416089D01*
X90648000Y72870000D01*
X90648000Y66430000D01*
X90749393Y65920263D01*
X90756624Y65883911D01*
X91065959Y65420959D01*
X92889929Y63596989D01*
X92775000Y63620263D01*
X92207845Y63620263D01*
X89415263Y66412845D01*
X89415263Y66890000D01*
X89368056Y67140881D01*
X89219786Y67371300D01*
X88993551Y67525880D01*
X88725000Y67580263D01*
X86725000Y67580263D01*
X86474119Y67533056D01*
X86243700Y67384786D01*
X86089120Y67158551D01*
X86034737Y66890000D01*
X85415263Y66890000D01*
X85368056Y67140881D01*
X85219786Y67371300D01*
X84993551Y67525880D01*
X84725000Y67580263D01*
X82725000Y67580263D01*
X82474119Y67533056D01*
X82243700Y67384786D01*
X82089120Y67158551D01*
X82080706Y67117000D01*
X81442376Y67117000D01*
X81153530Y67310000D01*
X81491170Y67535603D01*
X81811343Y68014777D01*
X81923773Y68580000D01*
X81811343Y69145223D01*
X81491170Y69624397D01*
X81153530Y69850000D01*
X81491170Y70075603D01*
X81498415Y70086446D01*
X81692150Y70124982D01*
X82041554Y70358446D01*
X84486554Y72803446D01*
X84720018Y73152850D01*
X84802000Y73565000D01*
X84802000Y75944226D01*
X84975881Y75976944D01*
X85206300Y76125214D01*
X85360880Y76351449D01*
X85415263Y76620000D01*
X85415263Y78320000D01*
X86034737Y78320000D01*
X86034737Y76620000D01*
X86081944Y76369119D01*
X86230214Y76138700D01*
X86456449Y75984120D01*
X86725000Y75929737D01*
X88725000Y75929737D01*
X88975881Y75976944D01*
X89206300Y76125214D01*
X89360880Y76351449D01*
X89369294Y76393000D01*
X90813099Y76393000D01*
X90863011Y76315434D01*
X90801067Y76253490D01*
X90698000Y76004664D01*
X90698000Y75587250D01*
X90867250Y75418000D01*
X91827000Y75418000D01*
X91827000Y75438000D01*
X92323000Y75438000D01*
X92323000Y75418000D01*
X93282750Y75418000D01*
X93300000Y75435250D01*
X93317250Y75418000D01*
X98327000Y75418000D01*
X98327000Y79052750D01*
X98823000Y79052750D01*
X98823000Y75418000D01*
X103832750Y75418000D01*
X104002000Y75587250D01*
X104002000Y78679664D01*
X103898933Y78928490D01*
X103708489Y79118933D01*
X103459663Y79222000D01*
X98992250Y79222000D01*
X98823000Y79052750D01*
X98327000Y79052750D01*
X98157750Y79222000D01*
X93690337Y79222000D01*
X93441511Y79118933D01*
X93251067Y78928490D01*
X93165708Y78722414D01*
X93043551Y78805880D01*
X92775000Y78860263D01*
X91375000Y78860263D01*
X91124119Y78813056D01*
X90893700Y78664786D01*
X90813220Y78547000D01*
X89372550Y78547000D01*
X89368056Y78570881D01*
X89219786Y78801300D01*
X88993551Y78955880D01*
X88725000Y79010263D01*
X86725000Y79010263D01*
X86474119Y78963056D01*
X86243700Y78814786D01*
X86089120Y78588551D01*
X86034737Y78320000D01*
X85415263Y78320000D01*
X85368056Y78570881D01*
X85219786Y78801300D01*
X84993551Y78955880D01*
X84725000Y79010263D01*
X82725000Y79010263D01*
X82474119Y78963056D01*
X82243700Y78814786D01*
X82089120Y78588551D01*
X82034737Y78320000D01*
X82034737Y76620000D01*
X82081944Y76369119D01*
X82230214Y76138700D01*
X82456449Y75984120D01*
X82648000Y75945330D01*
X82648000Y74011108D01*
X81831126Y73194234D01*
X81923773Y73660000D01*
X81811343Y74225223D01*
X81491170Y74704397D01*
X81087000Y74974454D01*
X81087000Y75565000D01*
X81005018Y75977150D01*
X80935443Y76081277D01*
X81085880Y76301449D01*
X81140263Y76570000D01*
X81140263Y78370000D01*
X81093056Y78620881D01*
X80944786Y78851300D01*
X80718551Y79005880D01*
X80450000Y79060263D01*
X76950000Y79060263D01*
X76699119Y79013056D01*
X76468700Y78864786D01*
X76314120Y78638551D01*
X76259737Y78370000D01*
X76127000Y78370000D01*
X76127000Y78504663D01*
X76023933Y78753489D01*
X75833490Y78943933D01*
X75584664Y79047000D01*
X74117250Y79047000D01*
X73948000Y78877750D01*
X73452000Y78877750D01*
X73282750Y79047000D01*
X71815336Y79047000D01*
X71566510Y78943933D01*
X71376067Y78753489D01*
X71273000Y78504663D01*
X59944000Y78504663D01*
X59944000Y82433000D01*
X107875932Y82433000D01*
X108628601Y82283285D01*
X108628601Y82283285D01*
G37*
X108628601Y82283285D02*
X109203889Y81898889D01*
X109588285Y81323601D01*
X109738000Y80570932D01*
X109738000Y2614068D01*
X109588285Y1861399D01*
X109203889Y1286111D01*
X108628601Y901715D01*
X107875932Y752000D01*
X2614068Y752000D01*
X1861399Y901715D01*
X1286111Y1286111D01*
X901715Y1861399D01*
X752000Y2614068D01*
X752000Y6256860D01*
X7117623Y6256860D01*
X7676194Y4905015D01*
X8709575Y3869829D01*
X10060443Y3308899D01*
X11523140Y3307623D01*
X12874985Y3866194D01*
X13910171Y4899575D01*
X14471101Y6250443D01*
X14472377Y7713140D01*
X14369022Y7963280D01*
X19712675Y7963280D01*
X19997829Y7273154D01*
X20525376Y6744684D01*
X21215004Y6458326D01*
X21961720Y6457675D01*
X22651846Y6742829D01*
X23180316Y7270376D01*
X23466674Y7960004D01*
X23466676Y7963280D01*
X33682675Y7963280D01*
X33967829Y7273154D01*
X34495376Y6744684D01*
X35185004Y6458326D01*
X35931720Y6457675D01*
X36621846Y6742829D01*
X37150316Y7270376D01*
X37436674Y7960004D01*
X37437325Y8706720D01*
X37152171Y9396846D01*
X36624624Y9925316D01*
X35934996Y10211674D01*
X35188280Y10212325D01*
X34498154Y9927171D01*
X33969684Y9399624D01*
X33683326Y8709996D01*
X33682675Y7963280D01*
X23466676Y7963280D01*
X23467325Y8706720D01*
X23182171Y9396846D01*
X22654624Y9925316D01*
X21964996Y10211674D01*
X21218280Y10212325D01*
X20528154Y9927171D01*
X19999684Y9399624D01*
X19713326Y8709996D01*
X19712675Y7963280D01*
X14369022Y7963280D01*
X13913806Y9064985D01*
X12880425Y10100171D01*
X11995393Y10467669D01*
X12793010Y10798053D01*
X13144660Y11269615D01*
X10795000Y13619275D01*
X8445340Y11269615D01*
X8796990Y10798053D01*
X9626408Y10480386D01*
X8715015Y10103806D01*
X7679829Y9070425D01*
X7118899Y7719557D01*
X7117623Y6256860D01*
X752000Y6256860D01*
X752000Y14602069D01*
X7099898Y14602069D01*
X7139288Y13139901D01*
X7623053Y11971990D01*
X8094615Y11620340D01*
X10444275Y13970000D01*
X11145725Y13970000D01*
X13495385Y11620340D01*
X13966947Y11971990D01*
X14329172Y12917750D01*
X19713000Y12917750D01*
X19713000Y12000336D01*
X19816067Y11751510D01*
X20006511Y11561067D01*
X20255337Y11458000D01*
X21172750Y11458000D01*
X21342000Y11627250D01*
X21342000Y13087000D01*
X21838000Y13087000D01*
X21838000Y11627250D01*
X22007250Y11458000D01*
X22924663Y11458000D01*
X23173489Y11561067D01*
X23363933Y11751510D01*
X23467000Y12000336D01*
X23467000Y12917750D01*
X33683000Y12917750D01*
X33683000Y12000336D01*
X33786067Y11751510D01*
X33976511Y11561067D01*
X34225337Y11458000D01*
X35142750Y11458000D01*
X35312000Y11627250D01*
X35312000Y13087000D01*
X35808000Y13087000D01*
X35808000Y11627250D01*
X35977250Y11458000D01*
X36894663Y11458000D01*
X37143489Y11561067D01*
X37333933Y11751510D01*
X37437000Y12000336D01*
X37437000Y12917750D01*
X37267750Y13087000D01*
X35808000Y13087000D01*
X35312000Y13087000D01*
X33852250Y13087000D01*
X33683000Y12917750D01*
X23467000Y12917750D01*
X23297750Y13087000D01*
X21838000Y13087000D01*
X21342000Y13087000D01*
X19882250Y13087000D01*
X19713000Y12917750D01*
X14329172Y12917750D01*
X14490102Y13337931D01*
X14454226Y14669664D01*
X19713000Y14669664D01*
X19713000Y13752250D01*
X19882250Y13583000D01*
X21342000Y13583000D01*
X21342000Y15042750D01*
X21838000Y15042750D01*
X21838000Y13583000D01*
X23297750Y13583000D01*
X23467000Y13752250D01*
X23467000Y14669664D01*
X33683000Y14669664D01*
X33683000Y13752250D01*
X33852250Y13583000D01*
X35312000Y13583000D01*
X35312000Y15042750D01*
X35808000Y15042750D01*
X35808000Y13583000D01*
X37267750Y13583000D01*
X37437000Y13752250D01*
X37437000Y14352103D01*
X56507779Y14352103D01*
X56701781Y13882583D01*
X57060693Y13523043D01*
X57529875Y13328222D01*
X57715608Y13328060D01*
X63556832Y7486837D01*
X63556834Y7486834D01*
X63865685Y7280467D01*
X64230000Y7208000D01*
X74659737Y7208000D01*
X74659737Y7160000D01*
X74706944Y6909119D01*
X74855214Y6678700D01*
X75081449Y6524120D01*
X75350000Y6469737D01*
X77050000Y6469737D01*
X77300881Y6516944D01*
X77531300Y6665214D01*
X77685880Y6891449D01*
X77740263Y7160000D01*
X77740263Y7303000D01*
X82053930Y7303000D01*
X82081944Y7154119D01*
X82230214Y6923700D01*
X82456449Y6769120D01*
X82725000Y6714737D01*
X84725000Y6714737D01*
X84975881Y6761944D01*
X85206300Y6910214D01*
X85360880Y7136449D01*
X85415263Y7405000D01*
X85415263Y9105000D01*
X85368056Y9355881D01*
X85219786Y9586300D01*
X84993551Y9740880D01*
X84725000Y9795263D01*
X82725000Y9795263D01*
X82474119Y9748056D01*
X82243700Y9599786D01*
X82089120Y9373551D01*
X82055393Y9207000D01*
X77731419Y9207000D01*
X77693056Y9410881D01*
X77544786Y9641300D01*
X77318551Y9795880D01*
X77050000Y9850263D01*
X75350000Y9850263D01*
X75099119Y9803056D01*
X74868700Y9654786D01*
X74714120Y9428551D01*
X74659737Y9160000D01*
X74659737Y9112000D01*
X64624331Y9112000D01*
X60105444Y13630888D01*
X63727710Y13630888D01*
X63982480Y13014297D01*
X64453816Y12542138D01*
X65069961Y12286292D01*
X65737112Y12285710D01*
X66353703Y12540480D01*
X66825862Y13011816D01*
X67081708Y13627961D01*
X67082290Y14295112D01*
X66827520Y14911703D01*
X66356184Y15383862D01*
X65740039Y15639708D01*
X65072888Y15640290D01*
X64456297Y15385520D01*
X63984138Y14914184D01*
X63728292Y14298039D01*
X63727710Y13630888D01*
X60105444Y13630888D01*
X59062061Y14674271D01*
X59062221Y14857897D01*
X58868219Y15327417D01*
X58509307Y15686957D01*
X58040125Y15881778D01*
X57532103Y15882221D01*
X57062583Y15688219D01*
X56703043Y15329307D01*
X56508222Y14860125D01*
X56507779Y14352103D01*
X37437000Y14352103D01*
X37437000Y14669664D01*
X37333933Y14918490D01*
X37143489Y15108933D01*
X36894663Y15212000D01*
X35977250Y15212000D01*
X35808000Y15042750D01*
X35312000Y15042750D01*
X35142750Y15212000D01*
X34225337Y15212000D01*
X33976511Y15108933D01*
X33786067Y14918490D01*
X33683000Y14669664D01*
X23467000Y14669664D01*
X23363933Y14918490D01*
X23173489Y15108933D01*
X22924663Y15212000D01*
X22007250Y15212000D01*
X21838000Y15042750D01*
X21342000Y15042750D01*
X21172750Y15212000D01*
X20255337Y15212000D01*
X20006511Y15108933D01*
X19816067Y14918490D01*
X19713000Y14669664D01*
X14454226Y14669664D01*
X14450712Y14800099D01*
X13966947Y15968010D01*
X13495385Y16319660D01*
X11145725Y13970000D01*
X10444275Y13970000D01*
X8094615Y16319660D01*
X7623053Y15968010D01*
X7099898Y14602069D01*
X752000Y14602069D01*
X752000Y16670385D01*
X8445340Y16670385D01*
X10795000Y14320725D01*
X13144660Y16670385D01*
X12793010Y17141947D01*
X11427069Y17665102D01*
X9964901Y17625712D01*
X8796990Y17141947D01*
X8445340Y16670385D01*
X752000Y16670385D01*
X752000Y19050000D01*
X70476227Y19050000D01*
X70588657Y18484777D01*
X70908830Y18005603D01*
X71246470Y17780000D01*
X70908830Y17554397D01*
X70588657Y17075223D01*
X70476227Y16510000D01*
X70588657Y15944777D01*
X70908830Y15465603D01*
X71246470Y15240000D01*
X70908830Y15014397D01*
X70588657Y14535223D01*
X70476227Y13970000D01*
X70588657Y13404777D01*
X70908830Y12925603D01*
X71388004Y12605430D01*
X71953227Y12493000D01*
X72826773Y12493000D01*
X73391996Y12605430D01*
X73871170Y12925603D01*
X73932908Y13018000D01*
X74535668Y13018000D01*
X74659737Y12893931D01*
X74659737Y11160000D01*
X74706944Y10909119D01*
X74855214Y10678700D01*
X75081449Y10524120D01*
X75350000Y10469737D01*
X77050000Y10469737D01*
X77300881Y10516944D01*
X77531300Y10665214D01*
X77685880Y10891449D01*
X77740263Y11160000D01*
X77740263Y13160000D01*
X77693056Y13410881D01*
X77544786Y13641300D01*
X77318551Y13795880D01*
X77050000Y13850263D01*
X76396068Y13850263D01*
X75603166Y14643166D01*
X75563509Y14669664D01*
X75294315Y14849533D01*
X74930000Y14922000D01*
X73932908Y14922000D01*
X73871170Y15014397D01*
X73533530Y15240000D01*
X73871170Y15465603D01*
X74191343Y15944777D01*
X74303773Y16510000D01*
X74191343Y17075223D01*
X73871170Y17554397D01*
X73533530Y17780000D01*
X73871170Y18005603D01*
X74191343Y18484777D01*
X74303773Y19050000D01*
X74191343Y19615223D01*
X73871170Y20094397D01*
X73797918Y20143343D01*
X73973490Y20216067D01*
X74163933Y20406511D01*
X74267000Y20655337D01*
X74267000Y21172750D01*
X74097750Y21342000D01*
X72638000Y21342000D01*
X72638000Y21322000D01*
X72142000Y21322000D01*
X72142000Y21342000D01*
X70682250Y21342000D01*
X70513000Y21172750D01*
X70513000Y20655337D01*
X70616067Y20406511D01*
X70806510Y20216067D01*
X70982082Y20143343D01*
X70908830Y20094397D01*
X70588657Y19615223D01*
X70476227Y19050000D01*
X752000Y19050000D01*
X752000Y21553750D01*
X3376000Y21553750D01*
X3376000Y20936336D01*
X3479067Y20687510D01*
X3669511Y20497067D01*
X3918337Y20394000D01*
X4535750Y20394000D01*
X4705000Y20563250D01*
X4705000Y21723000D01*
X5201000Y21723000D01*
X5201000Y20563250D01*
X5370250Y20394000D01*
X5987663Y20394000D01*
X6236489Y20497067D01*
X6426933Y20687510D01*
X6530000Y20936336D01*
X6530000Y21045750D01*
X63728000Y21045750D01*
X63728000Y20328336D01*
X63831067Y20079510D01*
X64021511Y19889067D01*
X64270337Y19786000D01*
X64987750Y19786000D01*
X65157000Y19955250D01*
X65157000Y21215000D01*
X65653000Y21215000D01*
X65653000Y19955250D01*
X65822250Y19786000D01*
X66539663Y19786000D01*
X66788489Y19889067D01*
X66978933Y20079510D01*
X67082000Y20328336D01*
X67082000Y21045750D01*
X66912750Y21215000D01*
X65653000Y21215000D01*
X65157000Y21215000D01*
X63897250Y21215000D01*
X63728000Y21045750D01*
X6530000Y21045750D01*
X6530000Y21553750D01*
X6360750Y21723000D01*
X5201000Y21723000D01*
X4705000Y21723000D01*
X3545250Y21723000D01*
X3376000Y21553750D01*
X752000Y21553750D01*
X752000Y27081895D01*
X3376000Y27081895D01*
X3376000Y27020105D01*
X3496042Y26416613D01*
X3837893Y25904998D01*
X4023469Y25781000D01*
X3837893Y25657002D01*
X3496042Y25145387D01*
X3376000Y24541895D01*
X3376000Y24480105D01*
X3496042Y23876613D01*
X3759559Y23482232D01*
X3669511Y23444933D01*
X3479067Y23254490D01*
X3376000Y23005664D01*
X3376000Y22388250D01*
X3545250Y22219000D01*
X4705000Y22219000D01*
X4705000Y22239000D01*
X5201000Y22239000D01*
X5201000Y22219000D01*
X6360750Y22219000D01*
X6530000Y22388250D01*
X6530000Y23005664D01*
X6426933Y23254490D01*
X6236489Y23444933D01*
X6146441Y23482232D01*
X6409958Y23876613D01*
X6530000Y24480105D01*
X6530000Y24541895D01*
X6526688Y24558548D01*
X19186000Y24558548D01*
X19186000Y24463452D01*
X19370744Y23534679D01*
X19896852Y22747304D01*
X20684227Y22221196D01*
X21613000Y22036452D01*
X22541773Y22221196D01*
X23105196Y22597664D01*
X63728000Y22597664D01*
X63728000Y21880250D01*
X63897250Y21711000D01*
X65157000Y21711000D01*
X65157000Y22970750D01*
X65653000Y22970750D01*
X65653000Y21711000D01*
X66912750Y21711000D01*
X67082000Y21880250D01*
X67082000Y22524663D01*
X70513000Y22524663D01*
X70513000Y22007250D01*
X70682250Y21838000D01*
X72142000Y21838000D01*
X72142000Y22897750D01*
X72638000Y22897750D01*
X72638000Y21838000D01*
X74097750Y21838000D01*
X74267000Y22007250D01*
X74267000Y22524663D01*
X74163933Y22773489D01*
X73973490Y22963933D01*
X73724664Y23067000D01*
X72807250Y23067000D01*
X72638000Y22897750D01*
X72142000Y22897750D01*
X71972750Y23067000D01*
X71055336Y23067000D01*
X70806510Y22963933D01*
X70616067Y22773489D01*
X70513000Y22524663D01*
X67082000Y22524663D01*
X67082000Y22597664D01*
X66978933Y22846490D01*
X66788489Y23036933D01*
X66539663Y23140000D01*
X65822250Y23140000D01*
X65653000Y22970750D01*
X65157000Y22970750D01*
X64987750Y23140000D01*
X64270337Y23140000D01*
X64021511Y23036933D01*
X63831067Y22846490D01*
X63728000Y22597664D01*
X23105196Y22597664D01*
X23329148Y22747304D01*
X23855256Y23534679D01*
X24040000Y24463452D01*
X24040000Y24558548D01*
X23855256Y25487321D01*
X23329148Y26274696D01*
X22541773Y26800804D01*
X21613000Y26985548D01*
X20684227Y26800804D01*
X19896852Y26274696D01*
X19370744Y25487321D01*
X19186000Y24558548D01*
X6526688Y24558548D01*
X6409958Y25145387D01*
X6068107Y25657002D01*
X5882531Y25781000D01*
X6068107Y25904998D01*
X6409958Y26416613D01*
X6530000Y27020105D01*
X6530000Y27081895D01*
X6409958Y27685387D01*
X6068107Y28197002D01*
X5556492Y28538853D01*
X4953000Y28658895D01*
X4349508Y28538853D01*
X3837893Y28197002D01*
X3496042Y27685387D01*
X3376000Y27081895D01*
X752000Y27081895D01*
X752000Y30988000D01*
X46038000Y30988000D01*
X46038000Y26254037D01*
X45908043Y26124307D01*
X45713222Y25655125D01*
X45712779Y25147103D01*
X45906781Y24677583D01*
X46265693Y24318043D01*
X46734875Y24123222D01*
X47242897Y24122779D01*
X47712417Y24316781D01*
X48071957Y24675693D01*
X48266778Y25144875D01*
X48267221Y25652897D01*
X48073219Y26122417D01*
X47942000Y26253866D01*
X47942000Y30988000D01*
X59817000Y30988000D01*
X59866410Y30998006D01*
X59908035Y31026447D01*
X59935315Y31068841D01*
X59944000Y31115000D01*
X59944000Y34037103D01*
X64127779Y34037103D01*
X64321781Y33567583D01*
X64680693Y33208043D01*
X65134088Y33019777D01*
X64682583Y32833219D01*
X64323043Y32474307D01*
X64128222Y32005125D01*
X64127779Y31497103D01*
X64321781Y31027583D01*
X64680693Y30668043D01*
X65149875Y30473222D01*
X65350779Y30473047D01*
X67420737Y27950775D01*
X67420737Y27123000D01*
X67467944Y26872119D01*
X67616214Y26641700D01*
X67761375Y26542516D01*
X67629700Y26457786D01*
X67475120Y26231551D01*
X67420737Y25963000D01*
X67420737Y24463000D01*
X67467944Y24212119D01*
X67616214Y23981700D01*
X67842449Y23827120D01*
X68111000Y23772737D01*
X68511000Y23772737D01*
X68640588Y23797121D01*
X68761000Y23772737D01*
X69161000Y23772737D01*
X69262327Y23791803D01*
X69276337Y23786000D01*
X69341750Y23786000D01*
X69367307Y23811557D01*
X69411881Y23819944D01*
X69642300Y23968214D01*
X69711000Y24068760D01*
X69711000Y23955250D01*
X69880250Y23786000D01*
X69945663Y23786000D01*
X70194489Y23889067D01*
X70384933Y24079510D01*
X70488000Y24328336D01*
X70488000Y24795750D01*
X70318750Y24965000D01*
X69851263Y24965000D01*
X69851263Y24982750D01*
X71273000Y24982750D01*
X71273000Y24365337D01*
X71376067Y24116511D01*
X71566510Y23926067D01*
X71815336Y23823000D01*
X73282750Y23823000D01*
X73452000Y23992250D01*
X73452000Y25152000D01*
X73948000Y25152000D01*
X73948000Y23992250D01*
X74117250Y23823000D01*
X75584664Y23823000D01*
X75833490Y23926067D01*
X76023933Y24116511D01*
X76127000Y24365337D01*
X76127000Y24982750D01*
X75957750Y25152000D01*
X73948000Y25152000D01*
X73452000Y25152000D01*
X71442250Y25152000D01*
X71273000Y24982750D01*
X69851263Y24982750D01*
X69851263Y25461000D01*
X70318750Y25461000D01*
X70488000Y25630250D01*
X70488000Y25824955D01*
X70555166Y25869834D01*
X70761533Y26178685D01*
X70771201Y26227291D01*
X71501647Y26957737D01*
X71768831Y26957737D01*
X71566510Y26873933D01*
X71376067Y26683489D01*
X71273000Y26434663D01*
X71273000Y25817250D01*
X71442250Y25648000D01*
X73452000Y25648000D01*
X73452000Y26807750D01*
X73948000Y26807750D01*
X73948000Y25648000D01*
X75957750Y25648000D01*
X76127000Y25817250D01*
X76127000Y26434663D01*
X76023933Y26683489D01*
X75833490Y26873933D01*
X75584664Y26977000D01*
X75375750Y26977000D01*
X75539000Y27140250D01*
X75539000Y28200000D01*
X76035000Y28200000D01*
X76035000Y27140250D01*
X76204250Y26971000D01*
X76847627Y26971000D01*
X76699119Y26943056D01*
X76468700Y26794786D01*
X76314120Y26568551D01*
X76259737Y26300000D01*
X76259737Y24500000D01*
X76306944Y24249119D01*
X76455214Y24018700D01*
X76681449Y23864120D01*
X76950000Y23809737D01*
X78807155Y23809737D01*
X78933000Y23683892D01*
X78933000Y22904454D01*
X78528830Y22634397D01*
X78208657Y22155223D01*
X78096227Y21590000D01*
X78208657Y21024777D01*
X78528830Y20545603D01*
X78866470Y20320000D01*
X78528830Y20094397D01*
X78208657Y19615223D01*
X78096227Y19050000D01*
X78208657Y18484777D01*
X78528830Y18005603D01*
X78866470Y17780000D01*
X78528830Y17554397D01*
X78208657Y17075223D01*
X78096227Y16510000D01*
X78208657Y15944777D01*
X78528830Y15465603D01*
X78866470Y15240000D01*
X78528830Y15014397D01*
X78208657Y14535223D01*
X78096227Y13970000D01*
X78208657Y13404777D01*
X78528830Y12925603D01*
X79008004Y12605430D01*
X79573227Y12493000D01*
X80446773Y12493000D01*
X81011996Y12605430D01*
X81442376Y12893000D01*
X82077450Y12893000D01*
X82081944Y12869119D01*
X82230214Y12638700D01*
X82456449Y12484120D01*
X82725000Y12429737D01*
X84725000Y12429737D01*
X84975881Y12476944D01*
X85206300Y12625214D01*
X85360880Y12851449D01*
X85415263Y13120000D01*
X85415263Y14820000D01*
X86034737Y14820000D01*
X86034737Y13120000D01*
X86081944Y12869119D01*
X86230214Y12638700D01*
X86456449Y12484120D01*
X86725000Y12429737D01*
X88725000Y12429737D01*
X88975881Y12476944D01*
X89206300Y12625214D01*
X89267341Y12714551D01*
X90785484Y11196408D01*
X90739120Y11128551D01*
X90684737Y10860000D01*
X90684737Y9682000D01*
X89079725Y9682000D01*
X88993551Y9740880D01*
X88725000Y9795263D01*
X86725000Y9795263D01*
X86474119Y9748056D01*
X86243700Y9599786D01*
X86089120Y9373551D01*
X86034737Y9105000D01*
X86034737Y7405000D01*
X86081944Y7154119D01*
X86230214Y6923700D01*
X86456449Y6769120D01*
X86725000Y6714737D01*
X88725000Y6714737D01*
X88975881Y6761944D01*
X89078535Y6828000D01*
X90784142Y6828000D01*
X90880214Y6678700D01*
X91086160Y6537983D01*
X90802818Y6113932D01*
X90698000Y5586977D01*
X90698000Y5533023D01*
X90802818Y5006068D01*
X91101314Y4559337D01*
X91548045Y4260841D01*
X92075000Y4156023D01*
X92601955Y4260841D01*
X93048686Y4559337D01*
X93134737Y4688121D01*
X93134737Y4485000D01*
X93181944Y4234119D01*
X93330214Y4003700D01*
X93556449Y3849120D01*
X93825000Y3794737D01*
X103325000Y3794737D01*
X103575881Y3841944D01*
X103806300Y3990214D01*
X103960880Y4216449D01*
X104015263Y4485000D01*
X104015263Y11235000D01*
X103968056Y11485881D01*
X103819786Y11716300D01*
X103593551Y11870880D01*
X103325000Y11925263D01*
X102392000Y11925263D01*
X102392000Y12700000D01*
X102283376Y13246089D01*
X101974041Y13709041D01*
X96894041Y18789041D01*
X96506482Y19048000D01*
X98157750Y19048000D01*
X98327000Y19217250D01*
X98327000Y22852000D01*
X98823000Y22852000D01*
X98823000Y19217250D01*
X98992250Y19048000D01*
X103459663Y19048000D01*
X103708489Y19151067D01*
X103898933Y19341510D01*
X104002000Y19590336D01*
X104002000Y22682750D01*
X103832750Y22852000D01*
X98823000Y22852000D01*
X98327000Y22852000D01*
X93317250Y22852000D01*
X93300000Y22834750D01*
X93282750Y22852000D01*
X92323000Y22852000D01*
X92323000Y22832000D01*
X91827000Y22832000D01*
X91827000Y22852000D01*
X90867250Y22852000D01*
X90698000Y22682750D01*
X90698000Y22265336D01*
X90801067Y22016510D01*
X90991511Y21826067D01*
X91058731Y21798224D01*
X90756624Y21346089D01*
X90648000Y20800000D01*
X90648000Y14380108D01*
X90296554Y14731554D01*
X89947150Y14965018D01*
X89535000Y15047000D01*
X89372550Y15047000D01*
X89368056Y15070881D01*
X89219786Y15301300D01*
X88993551Y15455880D01*
X88725000Y15510263D01*
X86725000Y15510263D01*
X86474119Y15463056D01*
X86243700Y15314786D01*
X86089120Y15088551D01*
X86034737Y14820000D01*
X85415263Y14820000D01*
X85368056Y15070881D01*
X85219786Y15301300D01*
X84993551Y15455880D01*
X84725000Y15510263D01*
X82725000Y15510263D01*
X82474119Y15463056D01*
X82243700Y15314786D01*
X82089120Y15088551D01*
X82080706Y15047000D01*
X81442376Y15047000D01*
X81153530Y15240000D01*
X81491170Y15465603D01*
X81811343Y15944777D01*
X81923773Y16510000D01*
X81811343Y17075223D01*
X81491170Y17554397D01*
X81153530Y17780000D01*
X81491170Y18005603D01*
X81498415Y18016446D01*
X81692150Y18054982D01*
X82041554Y18288446D01*
X84486554Y20733446D01*
X84720018Y21082850D01*
X84802000Y21495000D01*
X84802000Y23874226D01*
X84975881Y23906944D01*
X85206300Y24055214D01*
X85360880Y24281449D01*
X85415263Y24550000D01*
X85415263Y26250000D01*
X86034737Y26250000D01*
X86034737Y24550000D01*
X86081944Y24299119D01*
X86230214Y24068700D01*
X86456449Y23914120D01*
X86725000Y23859737D01*
X88725000Y23859737D01*
X88975881Y23906944D01*
X89206300Y24055214D01*
X89360880Y24281449D01*
X89369294Y24323000D01*
X90813099Y24323000D01*
X90863011Y24245434D01*
X90801067Y24183490D01*
X90698000Y23934664D01*
X90698000Y23517250D01*
X90867250Y23348000D01*
X91827000Y23348000D01*
X91827000Y23368000D01*
X92323000Y23368000D01*
X92323000Y23348000D01*
X93282750Y23348000D01*
X93300000Y23365250D01*
X93317250Y23348000D01*
X98327000Y23348000D01*
X98327000Y26982750D01*
X98823000Y26982750D01*
X98823000Y23348000D01*
X103832750Y23348000D01*
X104002000Y23517250D01*
X104002000Y26609664D01*
X103898933Y26858490D01*
X103708489Y27048933D01*
X103459663Y27152000D01*
X98992250Y27152000D01*
X98823000Y26982750D01*
X98327000Y26982750D01*
X98157750Y27152000D01*
X93690337Y27152000D01*
X93441511Y27048933D01*
X93251067Y26858490D01*
X93165708Y26652414D01*
X93043551Y26735880D01*
X92775000Y26790263D01*
X91375000Y26790263D01*
X91124119Y26743056D01*
X90893700Y26594786D01*
X90813220Y26477000D01*
X89372550Y26477000D01*
X89368056Y26500881D01*
X89219786Y26731300D01*
X88993551Y26885880D01*
X88725000Y26940263D01*
X86725000Y26940263D01*
X86474119Y26893056D01*
X86243700Y26744786D01*
X86089120Y26518551D01*
X86034737Y26250000D01*
X85415263Y26250000D01*
X85368056Y26500881D01*
X85219786Y26731300D01*
X84993551Y26885880D01*
X84725000Y26940263D01*
X82725000Y26940263D01*
X82474119Y26893056D01*
X82243700Y26744786D01*
X82089120Y26518551D01*
X82034737Y26250000D01*
X82034737Y24550000D01*
X82081944Y24299119D01*
X82230214Y24068700D01*
X82456449Y23914120D01*
X82648000Y23875330D01*
X82648000Y21941108D01*
X81831126Y21124234D01*
X81923773Y21590000D01*
X81811343Y22155223D01*
X81491170Y22634397D01*
X81087000Y22904454D01*
X81087000Y24130000D01*
X81071118Y24209844D01*
X81085880Y24231449D01*
X81140263Y24500000D01*
X81140263Y26300000D01*
X81093056Y26550881D01*
X80944786Y26781300D01*
X80718551Y26935880D01*
X80450000Y26990263D01*
X76968169Y26990263D01*
X77170490Y27074067D01*
X77360933Y27264511D01*
X77464000Y27513337D01*
X77464000Y28030750D01*
X77294750Y28200000D01*
X76035000Y28200000D01*
X75539000Y28200000D01*
X74279250Y28200000D01*
X74110000Y28030750D01*
X74110000Y27513337D01*
X74213067Y27264511D01*
X74403510Y27074067D01*
X74637851Y26977000D01*
X74117250Y26977000D01*
X73948000Y26807750D01*
X73452000Y26807750D01*
X73282750Y26977000D01*
X72889373Y26977000D01*
X73037881Y27004944D01*
X73268300Y27153214D01*
X73422880Y27379449D01*
X73477263Y27648000D01*
X73477263Y29248000D01*
X73451925Y29382663D01*
X74110000Y29382663D01*
X74110000Y28865250D01*
X74279250Y28696000D01*
X75539000Y28696000D01*
X75539000Y29755750D01*
X76035000Y29755750D01*
X76035000Y28696000D01*
X77294750Y28696000D01*
X77464000Y28865250D01*
X77464000Y29382663D01*
X77360933Y29631489D01*
X77170490Y29821933D01*
X76921664Y29925000D01*
X76204250Y29925000D01*
X76035000Y29755750D01*
X75539000Y29755750D01*
X75369750Y29925000D01*
X74652336Y29925000D01*
X74403510Y29821933D01*
X74213067Y29631489D01*
X74110000Y29382663D01*
X73451925Y29382663D01*
X73430056Y29498881D01*
X73281786Y29729300D01*
X73055551Y29883880D01*
X72787000Y29938263D01*
X71275173Y29938263D01*
X71726910Y30390000D01*
X80707138Y30390000D01*
X80936693Y30160043D01*
X81405875Y29965222D01*
X81913897Y29964779D01*
X82383417Y30158781D01*
X82742957Y30517693D01*
X82937778Y30986875D01*
X82938221Y31494897D01*
X82744219Y31964417D01*
X82385307Y32323957D01*
X81916125Y32518778D01*
X81408103Y32519221D01*
X80938583Y32325219D01*
X80706959Y32094000D01*
X71374000Y32094000D01*
X71047954Y32029145D01*
X71016550Y32008162D01*
X70701307Y32323957D01*
X70232125Y32518778D01*
X69724103Y32519221D01*
X69254583Y32325219D01*
X68895043Y31966307D01*
X68700222Y31497125D01*
X68700060Y31311392D01*
X68287834Y30899166D01*
X68081467Y30590314D01*
X68009000Y30226000D01*
X68081467Y29861686D01*
X68109000Y29820480D01*
X68109000Y29798161D01*
X66681815Y31537205D01*
X66682221Y32002897D01*
X66488219Y32472417D01*
X66129307Y32831957D01*
X65675912Y33020223D01*
X66127417Y33206781D01*
X66163699Y33243000D01*
X74659737Y33243000D01*
X74659737Y33195000D01*
X74706944Y32944119D01*
X74855214Y32713700D01*
X75081449Y32559120D01*
X75350000Y32504737D01*
X77050000Y32504737D01*
X77300881Y32551944D01*
X77531300Y32700214D01*
X77685880Y32926449D01*
X77740263Y33195000D01*
X77740263Y33338000D01*
X82053930Y33338000D01*
X82081944Y33189119D01*
X82230214Y32958700D01*
X82456449Y32804120D01*
X82725000Y32749737D01*
X84725000Y32749737D01*
X84975881Y32796944D01*
X85206300Y32945214D01*
X85360880Y33171449D01*
X85415263Y33440000D01*
X85415263Y35140000D01*
X85368056Y35390881D01*
X85219786Y35621300D01*
X84993551Y35775880D01*
X84725000Y35830263D01*
X82725000Y35830263D01*
X82474119Y35783056D01*
X82243700Y35634786D01*
X82089120Y35408551D01*
X82055393Y35242000D01*
X77731419Y35242000D01*
X77693056Y35445881D01*
X77544786Y35676300D01*
X77318551Y35830880D01*
X77050000Y35885263D01*
X75350000Y35885263D01*
X75099119Y35838056D01*
X74868700Y35689786D01*
X74714120Y35463551D01*
X74659737Y35195000D01*
X74659737Y35147000D01*
X66353871Y35147000D01*
X66129307Y35371957D01*
X65660125Y35566778D01*
X65152103Y35567221D01*
X64682583Y35373219D01*
X64323043Y35014307D01*
X64128222Y34545125D01*
X64127779Y34037103D01*
X59944000Y34037103D01*
X59944000Y39792888D01*
X63346710Y39792888D01*
X63601480Y39176297D01*
X64072816Y38704138D01*
X64688961Y38448292D01*
X65356112Y38447710D01*
X65972703Y38702480D01*
X66444862Y39173816D01*
X66700708Y39789961D01*
X66701290Y40457112D01*
X66446520Y41073703D01*
X65975184Y41545862D01*
X65359039Y41801708D01*
X64691888Y41802290D01*
X64075297Y41547520D01*
X63603138Y41076184D01*
X63347292Y40460039D01*
X63346710Y39792888D01*
X59944000Y39792888D01*
X59944000Y45085000D01*
X70476227Y45085000D01*
X70588657Y44519777D01*
X70908830Y44040603D01*
X71246470Y43815000D01*
X70908830Y43589397D01*
X70588657Y43110223D01*
X70476227Y42545000D01*
X70588657Y41979777D01*
X70908830Y41500603D01*
X71246470Y41275000D01*
X70908830Y41049397D01*
X70588657Y40570223D01*
X70476227Y40005000D01*
X70588657Y39439777D01*
X70908830Y38960603D01*
X71388004Y38640430D01*
X71953227Y38528000D01*
X72826773Y38528000D01*
X73391996Y38640430D01*
X73871170Y38960603D01*
X73932908Y39053000D01*
X74535668Y39053000D01*
X74659737Y38928931D01*
X74659737Y37195000D01*
X74706944Y36944119D01*
X74855214Y36713700D01*
X75081449Y36559120D01*
X75350000Y36504737D01*
X77050000Y36504737D01*
X77300881Y36551944D01*
X77531300Y36700214D01*
X77685880Y36926449D01*
X77740263Y37195000D01*
X77740263Y39195000D01*
X77693056Y39445881D01*
X77544786Y39676300D01*
X77318551Y39830880D01*
X77050000Y39885263D01*
X76396068Y39885263D01*
X75603166Y40678166D01*
X75587886Y40688376D01*
X75294315Y40884533D01*
X74930000Y40957000D01*
X73932908Y40957000D01*
X73871170Y41049397D01*
X73533530Y41275000D01*
X73871170Y41500603D01*
X74191343Y41979777D01*
X74303773Y42545000D01*
X74191343Y43110223D01*
X73871170Y43589397D01*
X73533530Y43815000D01*
X73871170Y44040603D01*
X74191343Y44519777D01*
X74303773Y45085000D01*
X74191343Y45650223D01*
X73871170Y46129397D01*
X73797918Y46178343D01*
X73973490Y46251067D01*
X74163933Y46441511D01*
X74267000Y46690337D01*
X74267000Y47207750D01*
X74097750Y47377000D01*
X72638000Y47377000D01*
X72638000Y47357000D01*
X72142000Y47357000D01*
X72142000Y47377000D01*
X70682250Y47377000D01*
X70513000Y47207750D01*
X70513000Y46690337D01*
X70616067Y46441511D01*
X70806510Y46251067D01*
X70982082Y46178343D01*
X70908830Y46129397D01*
X70588657Y45650223D01*
X70476227Y45085000D01*
X59944000Y45085000D01*
X59944000Y47207750D01*
X63347000Y47207750D01*
X63347000Y46490336D01*
X63450067Y46241510D01*
X63640511Y46051067D01*
X63889337Y45948000D01*
X64606750Y45948000D01*
X64776000Y46117250D01*
X64776000Y47377000D01*
X65272000Y47377000D01*
X65272000Y46117250D01*
X65441250Y45948000D01*
X66158663Y45948000D01*
X66407489Y46051067D01*
X66597933Y46241510D01*
X66701000Y46490336D01*
X66701000Y47207750D01*
X66531750Y47377000D01*
X65272000Y47377000D01*
X64776000Y47377000D01*
X63516250Y47377000D01*
X63347000Y47207750D01*
X59944000Y47207750D01*
X59944000Y48759664D01*
X63347000Y48759664D01*
X63347000Y48042250D01*
X63516250Y47873000D01*
X64776000Y47873000D01*
X64776000Y49132750D01*
X65272000Y49132750D01*
X65272000Y47873000D01*
X66531750Y47873000D01*
X66701000Y48042250D01*
X66701000Y48559663D01*
X70513000Y48559663D01*
X70513000Y48042250D01*
X70682250Y47873000D01*
X72142000Y47873000D01*
X72142000Y48932750D01*
X72638000Y48932750D01*
X72638000Y47873000D01*
X74097750Y47873000D01*
X74267000Y48042250D01*
X74267000Y48559663D01*
X74163933Y48808489D01*
X73973490Y48998933D01*
X73724664Y49102000D01*
X72807250Y49102000D01*
X72638000Y48932750D01*
X72142000Y48932750D01*
X71972750Y49102000D01*
X71055336Y49102000D01*
X70806510Y48998933D01*
X70616067Y48808489D01*
X70513000Y48559663D01*
X66701000Y48559663D01*
X66701000Y48759664D01*
X66597933Y49008490D01*
X66407489Y49198933D01*
X66158663Y49302000D01*
X65441250Y49302000D01*
X65272000Y49132750D01*
X64776000Y49132750D01*
X64606750Y49302000D01*
X63889337Y49302000D01*
X63640511Y49198933D01*
X63450067Y49008490D01*
X63347000Y48759664D01*
X59944000Y48759664D01*
X59944000Y60072103D01*
X64762779Y60072103D01*
X64956781Y59602583D01*
X65186549Y59372413D01*
X64958043Y59144307D01*
X64763222Y58675125D01*
X64762779Y58167103D01*
X64956781Y57697583D01*
X65315693Y57338043D01*
X65784875Y57143222D01*
X65970608Y57143060D01*
X67332000Y55781668D01*
X67332000Y54846948D01*
X67293737Y54658000D01*
X67293737Y53158000D01*
X67340944Y52907119D01*
X67489214Y52676700D01*
X67634375Y52577516D01*
X67502700Y52492786D01*
X67348120Y52266551D01*
X67293737Y51998000D01*
X67293737Y50498000D01*
X67340944Y50247119D01*
X67489214Y50016700D01*
X67715449Y49862120D01*
X67984000Y49807737D01*
X68384000Y49807737D01*
X68513588Y49832121D01*
X68634000Y49807737D01*
X69034000Y49807737D01*
X69135327Y49826803D01*
X69149337Y49821000D01*
X69214750Y49821000D01*
X69240307Y49846557D01*
X69284881Y49854944D01*
X69515300Y50003214D01*
X69584000Y50103760D01*
X69584000Y49990250D01*
X69753250Y49821000D01*
X69818663Y49821000D01*
X70067489Y49924067D01*
X70257933Y50114510D01*
X70361000Y50363336D01*
X70361000Y50830750D01*
X70191750Y51000000D01*
X69724263Y51000000D01*
X69724263Y51017750D01*
X71273000Y51017750D01*
X71273000Y50400337D01*
X71376067Y50151511D01*
X71566510Y49961067D01*
X71815336Y49858000D01*
X73282750Y49858000D01*
X73452000Y50027250D01*
X73452000Y51187000D01*
X73948000Y51187000D01*
X73948000Y50027250D01*
X74117250Y49858000D01*
X75584664Y49858000D01*
X75833490Y49961067D01*
X76023933Y50151511D01*
X76127000Y50400337D01*
X76127000Y51017750D01*
X75957750Y51187000D01*
X73948000Y51187000D01*
X73452000Y51187000D01*
X71442250Y51187000D01*
X71273000Y51017750D01*
X69724263Y51017750D01*
X69724263Y51496000D01*
X70191750Y51496000D01*
X70321750Y51626000D01*
X70485000Y51626000D01*
X70849315Y51698467D01*
X71158166Y51904834D01*
X71273000Y52019668D01*
X71273000Y51852250D01*
X71442250Y51683000D01*
X73452000Y51683000D01*
X73452000Y52842750D01*
X73948000Y52842750D01*
X73948000Y51683000D01*
X75957750Y51683000D01*
X76127000Y51852250D01*
X76127000Y52469663D01*
X76023933Y52718489D01*
X75863423Y52879000D01*
X76035002Y52879000D01*
X76035002Y53048248D01*
X76204250Y52879000D01*
X76545181Y52879000D01*
X76468700Y52829786D01*
X76314120Y52603551D01*
X76259737Y52335000D01*
X76259737Y50535000D01*
X76306944Y50284119D01*
X76455214Y50053700D01*
X76681449Y49899120D01*
X76950000Y49844737D01*
X78807155Y49844737D01*
X78933000Y49718892D01*
X78933000Y48939454D01*
X78528830Y48669397D01*
X78208657Y48190223D01*
X78096227Y47625000D01*
X78208657Y47059777D01*
X78528830Y46580603D01*
X78866470Y46355000D01*
X78528830Y46129397D01*
X78208657Y45650223D01*
X78096227Y45085000D01*
X78208657Y44519777D01*
X78528830Y44040603D01*
X78866470Y43815000D01*
X78528830Y43589397D01*
X78208657Y43110223D01*
X78096227Y42545000D01*
X78208657Y41979777D01*
X78528830Y41500603D01*
X78866470Y41275000D01*
X78528830Y41049397D01*
X78208657Y40570223D01*
X78096227Y40005000D01*
X78208657Y39439777D01*
X78528830Y38960603D01*
X79008004Y38640430D01*
X79573227Y38528000D01*
X80446773Y38528000D01*
X81011996Y38640430D01*
X81442376Y38928000D01*
X82077450Y38928000D01*
X82081944Y38904119D01*
X82230214Y38673700D01*
X82456449Y38519120D01*
X82725000Y38464737D01*
X84725000Y38464737D01*
X84975881Y38511944D01*
X85206300Y38660214D01*
X85360880Y38886449D01*
X85415263Y39155000D01*
X85415263Y40855000D01*
X86034737Y40855000D01*
X86034737Y39155000D01*
X86081944Y38904119D01*
X86230214Y38673700D01*
X86456449Y38519120D01*
X86725000Y38464737D01*
X88725000Y38464737D01*
X88975881Y38511944D01*
X89206300Y38660214D01*
X89267341Y38749551D01*
X90785484Y37231408D01*
X90739120Y37163551D01*
X90684737Y36895000D01*
X90684737Y35717000D01*
X89079725Y35717000D01*
X88993551Y35775880D01*
X88725000Y35830263D01*
X86725000Y35830263D01*
X86474119Y35783056D01*
X86243700Y35634786D01*
X86089120Y35408551D01*
X86034737Y35140000D01*
X86034737Y33440000D01*
X86081944Y33189119D01*
X86230214Y32958700D01*
X86456449Y32804120D01*
X86725000Y32749737D01*
X88725000Y32749737D01*
X88975881Y32796944D01*
X89078535Y32863000D01*
X90784142Y32863000D01*
X90880214Y32713700D01*
X91086160Y32572983D01*
X90802818Y32148932D01*
X90698000Y31621977D01*
X90698000Y31568023D01*
X90802818Y31041068D01*
X91101314Y30594337D01*
X91548045Y30295841D01*
X92075000Y30191023D01*
X92601955Y30295841D01*
X93048686Y30594337D01*
X93134737Y30723121D01*
X93134737Y30520000D01*
X93181944Y30269119D01*
X93330214Y30038700D01*
X93556449Y29884120D01*
X93825000Y29829737D01*
X103325000Y29829737D01*
X103575881Y29876944D01*
X103806300Y30025214D01*
X103960880Y30251449D01*
X104015263Y30520000D01*
X104015263Y37270000D01*
X103968056Y37520881D01*
X103819786Y37751300D01*
X103593551Y37905880D01*
X103325000Y37960263D01*
X102392000Y37960263D01*
X102392000Y39370000D01*
X102283376Y39916089D01*
X101974042Y40379041D01*
X98164041Y44189041D01*
X97701089Y44498376D01*
X97155000Y44607000D01*
X93502000Y44607000D01*
X93502000Y45161012D01*
X93690337Y45083000D01*
X98157750Y45083000D01*
X98327000Y45252250D01*
X98327000Y48887000D01*
X98823000Y48887000D01*
X98823000Y45252250D01*
X98992250Y45083000D01*
X103459663Y45083000D01*
X103708489Y45186067D01*
X103898933Y45376510D01*
X104002000Y45625336D01*
X104002000Y48717750D01*
X103832750Y48887000D01*
X98823000Y48887000D01*
X98327000Y48887000D01*
X93317250Y48887000D01*
X93300000Y48869750D01*
X93282750Y48887000D01*
X92323000Y48887000D01*
X92323000Y48867000D01*
X91827000Y48867000D01*
X91827000Y48887000D01*
X90867250Y48887000D01*
X90698000Y48717750D01*
X90698000Y48300336D01*
X90801067Y48051510D01*
X90991511Y47861067D01*
X91058731Y47833224D01*
X90756624Y47381089D01*
X90648000Y46835000D01*
X90648000Y40640000D01*
X90701843Y40369315D01*
X90703842Y40359266D01*
X90296554Y40766554D01*
X89947150Y41000018D01*
X89535000Y41082000D01*
X89372550Y41082000D01*
X89368056Y41105881D01*
X89219786Y41336300D01*
X88993551Y41490880D01*
X88725000Y41545263D01*
X86725000Y41545263D01*
X86474119Y41498056D01*
X86243700Y41349786D01*
X86089120Y41123551D01*
X86034737Y40855000D01*
X85415263Y40855000D01*
X85368056Y41105881D01*
X85219786Y41336300D01*
X84993551Y41490880D01*
X84725000Y41545263D01*
X82725000Y41545263D01*
X82474119Y41498056D01*
X82243700Y41349786D01*
X82089120Y41123551D01*
X82080706Y41082000D01*
X81442376Y41082000D01*
X81153530Y41275000D01*
X81491170Y41500603D01*
X81811343Y41979777D01*
X81923773Y42545000D01*
X81811343Y43110223D01*
X81491170Y43589397D01*
X81153530Y43815000D01*
X81442376Y44008000D01*
X82550000Y44008000D01*
X82962150Y44089982D01*
X83311554Y44323446D01*
X84486554Y45498446D01*
X84720018Y45847850D01*
X84802000Y46260000D01*
X84802000Y49909226D01*
X84975881Y49941944D01*
X85206300Y50090214D01*
X85360880Y50316449D01*
X85415263Y50585000D01*
X85415263Y52285000D01*
X86034737Y52285000D01*
X86034737Y50585000D01*
X86081944Y50334119D01*
X86230214Y50103700D01*
X86456449Y49949120D01*
X86725000Y49894737D01*
X88725000Y49894737D01*
X88975881Y49941944D01*
X89206300Y50090214D01*
X89360880Y50316449D01*
X89369294Y50358000D01*
X90813099Y50358000D01*
X90863011Y50280434D01*
X90801067Y50218490D01*
X90698000Y49969664D01*
X90698000Y49552250D01*
X90867250Y49383000D01*
X91827000Y49383000D01*
X91827000Y49403000D01*
X92323000Y49403000D01*
X92323000Y49383000D01*
X93282750Y49383000D01*
X93300000Y49400250D01*
X93317250Y49383000D01*
X98327000Y49383000D01*
X98327000Y53017750D01*
X98823000Y53017750D01*
X98823000Y49383000D01*
X103832750Y49383000D01*
X104002000Y49552250D01*
X104002000Y52644664D01*
X103898933Y52893490D01*
X103708489Y53083933D01*
X103459663Y53187000D01*
X98992250Y53187000D01*
X98823000Y53017750D01*
X98327000Y53017750D01*
X98157750Y53187000D01*
X93690337Y53187000D01*
X93441511Y53083933D01*
X93251067Y52893490D01*
X93165708Y52687414D01*
X93043551Y52770880D01*
X92775000Y52825263D01*
X91375000Y52825263D01*
X91124119Y52778056D01*
X90893700Y52629786D01*
X90813220Y52512000D01*
X89372550Y52512000D01*
X89368056Y52535881D01*
X89219786Y52766300D01*
X88993551Y52920880D01*
X88725000Y52975263D01*
X86725000Y52975263D01*
X86474119Y52928056D01*
X86243700Y52779786D01*
X86089120Y52553551D01*
X86034737Y52285000D01*
X85415263Y52285000D01*
X85368056Y52535881D01*
X85219786Y52766300D01*
X84993551Y52920880D01*
X84725000Y52975263D01*
X82725000Y52975263D01*
X82474119Y52928056D01*
X82243700Y52779786D01*
X82089120Y52553551D01*
X82034737Y52285000D01*
X82034737Y50585000D01*
X82081944Y50334119D01*
X82230214Y50103700D01*
X82456449Y49949120D01*
X82648000Y49910330D01*
X82648000Y46706108D01*
X82103892Y46162000D01*
X81442376Y46162000D01*
X81153530Y46355000D01*
X81491170Y46580603D01*
X81811343Y47059777D01*
X81923773Y47625000D01*
X81811343Y48190223D01*
X81491170Y48669397D01*
X81087000Y48939454D01*
X81087000Y50165000D01*
X81071118Y50244844D01*
X81085880Y50266449D01*
X81140263Y50535000D01*
X81140263Y52335000D01*
X81093056Y52585881D01*
X80944786Y52816300D01*
X80718551Y52970880D01*
X80450000Y53025263D01*
X77213686Y53025263D01*
X77360933Y53172511D01*
X77464000Y53421337D01*
X77464000Y53938750D01*
X77294750Y54108000D01*
X76035000Y54108000D01*
X76035000Y54088000D01*
X75539000Y54088000D01*
X75539000Y54108000D01*
X74279250Y54108000D01*
X74110000Y53938750D01*
X74110000Y53421337D01*
X74213067Y53172511D01*
X74373577Y53012000D01*
X74117250Y53012000D01*
X73948000Y52842750D01*
X73452000Y52842750D01*
X73282750Y53012000D01*
X73191819Y53012000D01*
X73268300Y53061214D01*
X73422880Y53287449D01*
X73477263Y53556000D01*
X73477263Y55156000D01*
X73451925Y55290663D01*
X74110000Y55290663D01*
X74110000Y54773250D01*
X74279250Y54604000D01*
X75539000Y54604000D01*
X75539000Y55663750D01*
X76035000Y55663750D01*
X76035000Y54604000D01*
X77294750Y54604000D01*
X77464000Y54773250D01*
X77464000Y55290663D01*
X77360933Y55539489D01*
X77170490Y55729933D01*
X76921664Y55833000D01*
X76204250Y55833000D01*
X76035000Y55663750D01*
X75539000Y55663750D01*
X75369750Y55833000D01*
X74652336Y55833000D01*
X74403510Y55729933D01*
X74213067Y55539489D01*
X74110000Y55290663D01*
X73451925Y55290663D01*
X73430056Y55406881D01*
X73281786Y55637300D01*
X73055551Y55791880D01*
X72787000Y55846263D01*
X71402173Y55846263D01*
X71980910Y56425000D01*
X80707138Y56425000D01*
X80936693Y56195043D01*
X81405875Y56000222D01*
X81913897Y55999779D01*
X82383417Y56193781D01*
X82742957Y56552693D01*
X82937778Y57021875D01*
X82938221Y57529897D01*
X82744219Y57999417D01*
X82385307Y58358957D01*
X81916125Y58553778D01*
X81408103Y58554221D01*
X80938583Y58360219D01*
X80706959Y58129000D01*
X71628000Y58129000D01*
X71301954Y58064145D01*
X71191084Y57990064D01*
X71187219Y57999417D01*
X70828307Y58358957D01*
X70359125Y58553778D01*
X69851103Y58554221D01*
X69381583Y58360219D01*
X69022043Y58001307D01*
X68827222Y57532125D01*
X68826937Y57204847D01*
X68714211Y57092121D01*
X67317061Y58489271D01*
X67317221Y58672897D01*
X67123219Y59142417D01*
X66987873Y59278000D01*
X74659737Y59278000D01*
X74659737Y59230000D01*
X74706944Y58979119D01*
X74855214Y58748700D01*
X75081449Y58594120D01*
X75350000Y58539737D01*
X77050000Y58539737D01*
X77300881Y58586944D01*
X77531300Y58735214D01*
X77685880Y58961449D01*
X77740263Y59230000D01*
X77740263Y59278000D01*
X82071805Y59278000D01*
X82081944Y59224119D01*
X82230214Y58993700D01*
X82456449Y58839120D01*
X82725000Y58784737D01*
X84725000Y58784737D01*
X84975881Y58831944D01*
X85206300Y58980214D01*
X85360880Y59206449D01*
X85415263Y59475000D01*
X85415263Y61175000D01*
X85368056Y61425881D01*
X85219786Y61656300D01*
X84993551Y61810880D01*
X84725000Y61865263D01*
X82725000Y61865263D01*
X82474119Y61818056D01*
X82243700Y61669786D01*
X82089120Y61443551D01*
X82036155Y61182000D01*
X77740263Y61182000D01*
X77740263Y61230000D01*
X77693056Y61480881D01*
X77544786Y61711300D01*
X77318551Y61865880D01*
X77050000Y61920263D01*
X75350000Y61920263D01*
X75099119Y61873056D01*
X74868700Y61724786D01*
X74714120Y61498551D01*
X74659737Y61230000D01*
X74659737Y61182000D01*
X66988871Y61182000D01*
X66764307Y61406957D01*
X66295125Y61601778D01*
X65787103Y61602221D01*
X65317583Y61408219D01*
X64958043Y61049307D01*
X64763222Y60580125D01*
X64762779Y60072103D01*
X59944000Y60072103D01*
X59944000Y65827888D01*
X63600710Y65827888D01*
X63855480Y65211297D01*
X64326816Y64739138D01*
X64942961Y64483292D01*
X65610112Y64482710D01*
X66226703Y64737480D01*
X66698862Y65208816D01*
X66954708Y65824961D01*
X66955290Y66492112D01*
X66700520Y67108703D01*
X66229184Y67580862D01*
X65613039Y67836708D01*
X64945888Y67837290D01*
X64329297Y67582520D01*
X63857138Y67111184D01*
X63601292Y66495039D01*
X63600710Y65827888D01*
X59944000Y65827888D01*
X59944000Y71120000D01*
X70476227Y71120000D01*
X70588657Y70554777D01*
X70908830Y70075603D01*
X71246470Y69850000D01*
X70908830Y69624397D01*
X70588657Y69145223D01*
X70476227Y68580000D01*
X70588657Y68014777D01*
X70908830Y67535603D01*
X71246470Y67310000D01*
X70908830Y67084397D01*
X70588657Y66605223D01*
X70476227Y66040000D01*
X70588657Y65474777D01*
X70908830Y64995603D01*
X71388004Y64675430D01*
X71953227Y64563000D01*
X72826773Y64563000D01*
X73391996Y64675430D01*
X73871170Y64995603D01*
X73932908Y65088000D01*
X74535668Y65088000D01*
X74659737Y64963931D01*
X74659737Y63230000D01*
X74706944Y62979119D01*
X74855214Y62748700D01*
X75081449Y62594120D01*
X75350000Y62539737D01*
X77050000Y62539737D01*
X77300881Y62586944D01*
X77531300Y62735214D01*
X77685880Y62961449D01*
X77740263Y63230000D01*
X77740263Y65230000D01*
X77693056Y65480881D01*
X77544786Y65711300D01*
X77318551Y65865880D01*
X77050000Y65920263D01*
X76396068Y65920263D01*
X75603166Y66713166D01*
X75587886Y66723376D01*
X75294315Y66919533D01*
X74930000Y66992000D01*
X73932908Y66992000D01*
X73871170Y67084397D01*
X73533530Y67310000D01*
X73871170Y67535603D01*
X74191343Y68014777D01*
X74303773Y68580000D01*
X74191343Y69145223D01*
X73871170Y69624397D01*
X73533530Y69850000D01*
X73871170Y70075603D01*
X74191343Y70554777D01*
X74303773Y71120000D01*
X74191343Y71685223D01*
X73871170Y72164397D01*
X73797918Y72213343D01*
X73973490Y72286067D01*
X74163933Y72476511D01*
X74267000Y72725337D01*
X74267000Y73242750D01*
X74097750Y73412000D01*
X72638000Y73412000D01*
X72638000Y73392000D01*
X72142000Y73392000D01*
X72142000Y73412000D01*
X70682250Y73412000D01*
X70513000Y73242750D01*
X70513000Y72725337D01*
X70616067Y72476511D01*
X70806510Y72286067D01*
X70982082Y72213343D01*
X70908830Y72164397D01*
X70588657Y71685223D01*
X70476227Y71120000D01*
X59944000Y71120000D01*
X59944000Y73242750D01*
X63601000Y73242750D01*
X63601000Y72525336D01*
X63704067Y72276510D01*
X63894511Y72086067D01*
X64143337Y71983000D01*
X64860750Y71983000D01*
X65030000Y72152250D01*
X65030000Y73412000D01*
X65526000Y73412000D01*
X65526000Y72152250D01*
X65695250Y71983000D01*
X66412663Y71983000D01*
X66661489Y72086067D01*
X66851933Y72276510D01*
X66955000Y72525336D01*
X66955000Y73242750D01*
X66785750Y73412000D01*
X65526000Y73412000D01*
X65030000Y73412000D01*
X63770250Y73412000D01*
X63601000Y73242750D01*
X59944000Y73242750D01*
X59944000Y74794664D01*
X63601000Y74794664D01*
X63601000Y74077250D01*
X63770250Y73908000D01*
X65030000Y73908000D01*
X65030000Y75167750D01*
X65526000Y75167750D01*
X65526000Y73908000D01*
X66785750Y73908000D01*
X66955000Y74077250D01*
X66955000Y74594663D01*
X70513000Y74594663D01*
X70513000Y74077250D01*
X70682250Y73908000D01*
X72142000Y73908000D01*
X72142000Y74967750D01*
X72638000Y74967750D01*
X72638000Y73908000D01*
X74097750Y73908000D01*
X74267000Y74077250D01*
X74267000Y74594663D01*
X74163933Y74843489D01*
X73973490Y75033933D01*
X73724664Y75137000D01*
X72807250Y75137000D01*
X72638000Y74967750D01*
X72142000Y74967750D01*
X71972750Y75137000D01*
X71055336Y75137000D01*
X70806510Y75033933D01*
X70616067Y74843489D01*
X70513000Y74594663D01*
X66955000Y74594663D01*
X66955000Y74794664D01*
X66851933Y75043490D01*
X66661489Y75233933D01*
X66412663Y75337000D01*
X65695250Y75337000D01*
X65526000Y75167750D01*
X65030000Y75167750D01*
X64860750Y75337000D01*
X64143337Y75337000D01*
X63894511Y75233933D01*
X63704067Y75043490D01*
X63601000Y74794664D01*
X59944000Y74794664D01*
X59944000Y77052750D01*
X71273000Y77052750D01*
X71273000Y76435337D01*
X71376067Y76186511D01*
X71566510Y75996067D01*
X71815336Y75893000D01*
X73282750Y75893000D01*
X73452000Y76062250D01*
X73452000Y77222000D01*
X73948000Y77222000D01*
X73948000Y76062250D01*
X74117250Y75893000D01*
X75584664Y75893000D01*
X75833490Y75996067D01*
X76023933Y76186511D01*
X76127000Y76435337D01*
X76127000Y77052750D01*
X75957750Y77222000D01*
X73948000Y77222000D01*
X73452000Y77222000D01*
X71442250Y77222000D01*
X71273000Y77052750D01*
X59944000Y77052750D01*
X59944000Y78504663D01*
X71273000Y78504663D01*
X71273000Y77887250D01*
X71442250Y77718000D01*
X73452000Y77718000D01*
X73452000Y78877750D01*
X73948000Y78877750D01*
X73948000Y77718000D01*
X75957750Y77718000D01*
X76127000Y77887250D01*
X76127000Y78370000D01*
X76259737Y78370000D01*
X76259737Y76570000D01*
X76306944Y76319119D01*
X76455214Y76088700D01*
X76681449Y75934120D01*
X76950000Y75879737D01*
X78172155Y75879737D01*
X78933000Y75118892D01*
X78933000Y74974454D01*
X78528830Y74704397D01*
X78208657Y74225223D01*
X78096227Y73660000D01*
X78208657Y73094777D01*
X78528830Y72615603D01*
X78866470Y72390000D01*
X78528830Y72164397D01*
X78208657Y71685223D01*
X78096227Y71120000D01*
X78208657Y70554777D01*
X78528830Y70075603D01*
X78866470Y69850000D01*
X78528830Y69624397D01*
X78208657Y69145223D01*
X78096227Y68580000D01*
X78208657Y68014777D01*
X78528830Y67535603D01*
X78866470Y67310000D01*
X78528830Y67084397D01*
X78208657Y66605223D01*
X78096227Y66040000D01*
X78208657Y65474777D01*
X78528830Y64995603D01*
X79008004Y64675430D01*
X79573227Y64563000D01*
X80446773Y64563000D01*
X81011996Y64675430D01*
X81442376Y64963000D01*
X82077450Y64963000D01*
X82081944Y64939119D01*
X82230214Y64708700D01*
X82456449Y64554120D01*
X82725000Y64499737D01*
X84725000Y64499737D01*
X84975881Y64546944D01*
X85206300Y64695214D01*
X85360880Y64921449D01*
X85415263Y65190000D01*
X85415263Y66890000D01*
X86034737Y66890000D01*
X86034737Y65190000D01*
X86081944Y64939119D01*
X86230214Y64708700D01*
X86456449Y64554120D01*
X86725000Y64499737D01*
X88282155Y64499737D01*
X90684737Y62097155D01*
X90684737Y61752000D01*
X89079725Y61752000D01*
X88993551Y61810880D01*
X88725000Y61865263D01*
X86725000Y61865263D01*
X86474119Y61818056D01*
X86243700Y61669786D01*
X86089120Y61443551D01*
X86034737Y61175000D01*
X86034737Y59475000D01*
X86081944Y59224119D01*
X86230214Y58993700D01*
X86456449Y58839120D01*
X86725000Y58784737D01*
X88725000Y58784737D01*
X88975881Y58831944D01*
X89078535Y58898000D01*
X90784142Y58898000D01*
X90880214Y58748700D01*
X91086160Y58607983D01*
X90802818Y58183932D01*
X90698000Y57656977D01*
X90698000Y57603023D01*
X90802818Y57076068D01*
X91101314Y56629337D01*
X91548045Y56330841D01*
X92075000Y56226023D01*
X92601955Y56330841D01*
X93048686Y56629337D01*
X93134737Y56758121D01*
X93134737Y56555000D01*
X93181944Y56304119D01*
X93330214Y56073700D01*
X93556449Y55919120D01*
X93825000Y55864737D01*
X103325000Y55864737D01*
X103575881Y55911944D01*
X103806300Y56060214D01*
X103960880Y56286449D01*
X104015263Y56555000D01*
X104015263Y63305000D01*
X103968056Y63555881D01*
X103819786Y63786300D01*
X103593551Y63940880D01*
X103325000Y63995263D01*
X102392000Y63995263D01*
X102392000Y65405000D01*
X102283376Y65951089D01*
X102283376Y65951090D01*
X101974041Y66414042D01*
X97529041Y70859041D01*
X97141482Y71118000D01*
X98157750Y71118000D01*
X98327000Y71287250D01*
X98327000Y74922000D01*
X98823000Y74922000D01*
X98823000Y71287250D01*
X98992250Y71118000D01*
X103459663Y71118000D01*
X103708489Y71221067D01*
X103898933Y71411510D01*
X104002000Y71660336D01*
X104002000Y74752750D01*
X103832750Y74922000D01*
X98823000Y74922000D01*
X98327000Y74922000D01*
X93317250Y74922000D01*
X93300000Y74904750D01*
X93282750Y74922000D01*
X92323000Y74922000D01*
X92323000Y74902000D01*
X91827000Y74902000D01*
X91827000Y74922000D01*
X90867250Y74922000D01*
X90698000Y74752750D01*
X90698000Y74335336D01*
X90801067Y74086510D01*
X90991511Y73896067D01*
X91058731Y73868224D01*
X90756624Y73416089D01*
X90648000Y72870000D01*
X90648000Y66430000D01*
X90749393Y65920263D01*
X90756624Y65883911D01*
X91065959Y65420959D01*
X92889929Y63596989D01*
X92775000Y63620263D01*
X92207845Y63620263D01*
X89415263Y66412845D01*
X89415263Y66890000D01*
X89368056Y67140881D01*
X89219786Y67371300D01*
X88993551Y67525880D01*
X88725000Y67580263D01*
X86725000Y67580263D01*
X86474119Y67533056D01*
X86243700Y67384786D01*
X86089120Y67158551D01*
X86034737Y66890000D01*
X85415263Y66890000D01*
X85368056Y67140881D01*
X85219786Y67371300D01*
X84993551Y67525880D01*
X84725000Y67580263D01*
X82725000Y67580263D01*
X82474119Y67533056D01*
X82243700Y67384786D01*
X82089120Y67158551D01*
X82080706Y67117000D01*
X81442376Y67117000D01*
X81153530Y67310000D01*
X81491170Y67535603D01*
X81811343Y68014777D01*
X81923773Y68580000D01*
X81811343Y69145223D01*
X81491170Y69624397D01*
X81153530Y69850000D01*
X81491170Y70075603D01*
X81498415Y70086446D01*
X81692150Y70124982D01*
X82041554Y70358446D01*
X84486554Y72803446D01*
X84720018Y73152850D01*
X84802000Y73565000D01*
X84802000Y75944226D01*
X84975881Y75976944D01*
X85206300Y76125214D01*
X85360880Y76351449D01*
X85415263Y76620000D01*
X85415263Y78320000D01*
X86034737Y78320000D01*
X86034737Y76620000D01*
X86081944Y76369119D01*
X86230214Y76138700D01*
X86456449Y75984120D01*
X86725000Y75929737D01*
X88725000Y75929737D01*
X88975881Y75976944D01*
X89206300Y76125214D01*
X89360880Y76351449D01*
X89369294Y76393000D01*
X90813099Y76393000D01*
X90863011Y76315434D01*
X90801067Y76253490D01*
X90698000Y76004664D01*
X90698000Y75587250D01*
X90867250Y75418000D01*
X91827000Y75418000D01*
X91827000Y75438000D01*
X92323000Y75438000D01*
X92323000Y75418000D01*
X93282750Y75418000D01*
X93300000Y75435250D01*
X93317250Y75418000D01*
X98327000Y75418000D01*
X98327000Y79052750D01*
X98823000Y79052750D01*
X98823000Y75418000D01*
X103832750Y75418000D01*
X104002000Y75587250D01*
X104002000Y78679664D01*
X103898933Y78928490D01*
X103708489Y79118933D01*
X103459663Y79222000D01*
X98992250Y79222000D01*
X98823000Y79052750D01*
X98327000Y79052750D01*
X98157750Y79222000D01*
X93690337Y79222000D01*
X93441511Y79118933D01*
X93251067Y78928490D01*
X93165708Y78722414D01*
X93043551Y78805880D01*
X92775000Y78860263D01*
X91375000Y78860263D01*
X91124119Y78813056D01*
X90893700Y78664786D01*
X90813220Y78547000D01*
X89372550Y78547000D01*
X89368056Y78570881D01*
X89219786Y78801300D01*
X88993551Y78955880D01*
X88725000Y79010263D01*
X86725000Y79010263D01*
X86474119Y78963056D01*
X86243700Y78814786D01*
X86089120Y78588551D01*
X86034737Y78320000D01*
X85415263Y78320000D01*
X85368056Y78570881D01*
X85219786Y78801300D01*
X84993551Y78955880D01*
X84725000Y79010263D01*
X82725000Y79010263D01*
X82474119Y78963056D01*
X82243700Y78814786D01*
X82089120Y78588551D01*
X82034737Y78320000D01*
X82034737Y76620000D01*
X82081944Y76369119D01*
X82230214Y76138700D01*
X82456449Y75984120D01*
X82648000Y75945330D01*
X82648000Y74011108D01*
X81831126Y73194234D01*
X81923773Y73660000D01*
X81811343Y74225223D01*
X81491170Y74704397D01*
X81087000Y74974454D01*
X81087000Y75565000D01*
X81005018Y75977150D01*
X80935443Y76081277D01*
X81085880Y76301449D01*
X81140263Y76570000D01*
X81140263Y78370000D01*
X81093056Y78620881D01*
X80944786Y78851300D01*
X80718551Y79005880D01*
X80450000Y79060263D01*
X76950000Y79060263D01*
X76699119Y79013056D01*
X76468700Y78864786D01*
X76314120Y78638551D01*
X76259737Y78370000D01*
X76127000Y78370000D01*
X76127000Y78504663D01*
X76023933Y78753489D01*
X75833490Y78943933D01*
X75584664Y79047000D01*
X74117250Y79047000D01*
X73948000Y78877750D01*
X73452000Y78877750D01*
X73282750Y79047000D01*
X71815336Y79047000D01*
X71566510Y78943933D01*
X71376067Y78753489D01*
X71273000Y78504663D01*
X59944000Y78504663D01*
X59944000Y82433000D01*
X107875932Y82433000D01*
X108628601Y82283285D01*
M02*
