M48
;DRILL file {KiCad 4.0.6-e0-6349~53~ubuntu16.04.1} date Sun May 14 21:04:59 2017
;FORMAT={-:-/ absolute / inch / decimal}
FMAT,2
INCH,TZ
T1C0.030
T2C0.031
T3C0.035
T4C0.039
T5C0.047
T6C0.098
%
G90
G05
M72
T1
X2.425Y-3.55
X2.425Y-4.15
X2.525Y-3.55
X2.525Y-4.15
X2.625Y-3.55
X2.625Y-4.15
X2.725Y-3.55
X2.725Y-4.15
X2.825Y-3.55
X2.825Y-4.15
X2.925Y-3.55
X2.925Y-4.15
X3.025Y-3.55
X3.025Y-4.15
X3.125Y-3.55
X3.125Y-4.15
X3.225Y-3.55
X3.225Y-4.15
X3.325Y-3.55
X3.325Y-4.15
X3.425Y-3.55
X3.425Y-4.15
X3.525Y-3.55
X3.525Y-4.15
X3.625Y-3.55
X3.625Y-4.15
X3.725Y-3.55
X3.725Y-4.15
T2
X4.025Y-4.05
X4.025Y-4.35
X4.125Y-4.05
X4.125Y-4.35
X4.225Y-4.05
X4.225Y-4.35
X4.325Y-4.05
X4.325Y-4.35
X4.425Y-4.05
X4.425Y-4.35
X4.525Y-4.05
X4.525Y-4.35
X4.625Y-4.05
X4.625Y-4.35
X5.075Y-3.025
X5.075Y-3.125
X5.075Y-3.225
X5.075Y-3.325
X5.075Y-4.05
X5.075Y-4.15
X5.075Y-4.25
X5.075Y-4.35
X5.075Y-5.075
X5.075Y-5.175
X5.075Y-5.275
X5.075Y-5.375
X5.375Y-3.025
X5.375Y-3.125
X5.375Y-3.225
X5.375Y-3.325
X5.375Y-4.05
X5.375Y-4.15
X5.375Y-4.25
X5.375Y-4.35
X5.375Y-5.075
X5.375Y-5.175
X5.375Y-5.275
X5.375Y-5.375
X5.85Y-2.875
X5.85Y-2.9656
X5.85Y-3.0561
X5.85Y-3.475
X5.85Y-3.5656
X5.85Y-3.6561
X5.85Y-3.9
X5.85Y-3.9906
X5.85Y-4.0811
X5.85Y-4.5
X5.85Y-4.5906
X5.85Y-4.6811
X5.85Y-4.925
X5.85Y-5.0156
X5.85Y-5.1061
X5.85Y-5.525
X5.85Y-5.6156
X5.85Y-5.7061
T3
X2.95Y-2.95
X2.95Y-3.05
X2.95Y-3.15
X2.95Y-3.25
X3.05Y-3.
X3.05Y-3.1
X3.05Y-3.2
X3.05Y-3.3
T4
X2.425Y-4.75
X2.425Y-4.85
X2.425Y-4.95
X2.925Y-3.4
X3.075Y-3.425
X3.225Y-2.875
X3.225Y-2.975
X3.225Y-3.075
X3.225Y-3.175
X3.225Y-3.275
X3.225Y-3.375
X3.225Y-4.
X3.325Y-4.
X3.375Y-2.975
X3.375Y-3.075
X3.375Y-3.175
X3.425Y-4.325
X3.525Y-4.325
X3.625Y-4.325
X3.725Y-4.325
X3.75Y-3.275
X3.9Y-2.875
X3.9Y-2.975
X3.9Y-3.075
X3.9Y-3.175
X3.9Y-3.275
X3.9Y-3.375
X4.05Y-2.875
X4.05Y-2.975
X4.05Y-3.075
X4.05Y-3.175
X4.05Y-3.275
X4.05Y-3.375
X4.175Y-3.175
X4.175Y-3.275
X4.375Y-3.125
X4.375Y-3.225
X4.625Y-4.575
X4.975Y-4.85
T5
X4.375Y-5.5
X4.375Y-5.7953
T6
X4.625Y-5.525
X4.625Y-5.8
T0
M30
