G04 #@! TF.FileFunction,Copper,L2,Bot,Signal*
%FSLAX46Y46*%
G04 Gerber Fmt 4.6, Leading zero omitted, Abs format (unit mm)*
G04 Created by KiCad (PCBNEW 4.0.6-e0-6349~53~ubuntu16.04.1) date Sun May 14 21:04:42 2017*
%MOMM*%
%LPD*%
G01*
G04 APERTURE LIST*
%ADD10C,0.100000*%
%ADD11R,2.400000X2.400000*%
%ADD12C,2.400000*%
%ADD13C,3.650000*%
%ADD14R,1.500000X1.500000*%
%ADD15C,1.500000*%
%ADD16C,1.750000*%
%ADD17R,2.400000X1.600000*%
%ADD18O,2.400000X1.600000*%
%ADD19R,1.400000X1.400000*%
%ADD20O,1.400000X1.400000*%
%ADD21R,1.600000X2.000000*%
%ADD22R,2.000000X1.600000*%
%ADD23C,5.999480*%
%ADD24R,2.000000X1.700000*%
%ADD25R,1.700000X2.000000*%
%ADD26R,6.000000X6.200000*%
%ADD27R,1.800000X1.800000*%
%ADD28O,1.800000X1.800000*%
%ADD29R,1.600000X2.400000*%
%ADD30O,1.600000X2.400000*%
%ADD31R,1.700000X1.700000*%
%ADD32O,1.700000X1.700000*%
%ADD33C,0.800000*%
%ADD34C,0.350000*%
%ADD35C,0.600000*%
%ADD36C,1.500000*%
%ADD37C,0.254000*%
G04 APERTURE END LIST*
D10*
D11*
X111125000Y-139700000D03*
D12*
X111125000Y-147200000D03*
D13*
X68580000Y-85310000D03*
X68580000Y-73440000D03*
D14*
X74930000Y-74930000D03*
D15*
X77470000Y-76200000D03*
X74930000Y-77470000D03*
X77470000Y-78740000D03*
X74930000Y-80010000D03*
X77470000Y-81280000D03*
X74930000Y-82550000D03*
X77470000Y-83820000D03*
D16*
X64135000Y-105410000D03*
X66675000Y-105410000D03*
X69215000Y-105410000D03*
X71755000Y-105410000D03*
X74295000Y-105410000D03*
X76835000Y-105410000D03*
X79375000Y-105410000D03*
X81915000Y-105410000D03*
X84455000Y-105410000D03*
X86995000Y-105410000D03*
X89535000Y-105410000D03*
X92075000Y-105410000D03*
X94615000Y-105410000D03*
X94615000Y-90170000D03*
X92075000Y-90170000D03*
X89535000Y-90170000D03*
X86995000Y-90170000D03*
X84455000Y-90170000D03*
X81915000Y-90170000D03*
X79375000Y-90170000D03*
X76835000Y-90170000D03*
X74295000Y-90170000D03*
X71755000Y-90170000D03*
X69215000Y-90170000D03*
X66675000Y-90170000D03*
X64135000Y-90170000D03*
X61595000Y-90170000D03*
X61595000Y-105410000D03*
D17*
X128905000Y-76835000D03*
D18*
X136525000Y-84455000D03*
X128905000Y-79375000D03*
X136525000Y-81915000D03*
X128905000Y-81915000D03*
X136525000Y-79375000D03*
X128905000Y-84455000D03*
X136525000Y-76835000D03*
D19*
X148590000Y-88265000D03*
X148590000Y-90565000D03*
D20*
X148590000Y-92865000D03*
D21*
X144145000Y-81375000D03*
X144145000Y-77375000D03*
X140335000Y-81375000D03*
X140335000Y-77375000D03*
X140335000Y-107410000D03*
X140335000Y-103410000D03*
X143510000Y-107410000D03*
X143510000Y-103410000D03*
X143510000Y-133445000D03*
X143510000Y-129445000D03*
X140335000Y-133445000D03*
X140335000Y-129445000D03*
X61595000Y-97060000D03*
X61595000Y-101060000D03*
D22*
X119475000Y-94615000D03*
X115475000Y-94615000D03*
X102140000Y-118110000D03*
X106140000Y-118110000D03*
D23*
X117475000Y-147320000D03*
X117475000Y-140335000D03*
D24*
X119475000Y-79375000D03*
X115475000Y-79375000D03*
X119475000Y-81915000D03*
X115475000Y-81915000D03*
X119475000Y-123190000D03*
X115475000Y-123190000D03*
X119475000Y-126365000D03*
X115475000Y-126365000D03*
X109315000Y-126365000D03*
X105315000Y-126365000D03*
X101060000Y-128270000D03*
X97060000Y-128270000D03*
D25*
X112395000Y-99155000D03*
X112395000Y-95155000D03*
X109855000Y-115475000D03*
X109855000Y-119475000D03*
D26*
X140420000Y-90805000D03*
X128820000Y-90805000D03*
X140420000Y-142875000D03*
X128820000Y-142875000D03*
D24*
X119475000Y-99060000D03*
X115475000Y-99060000D03*
X102140000Y-114300000D03*
X106140000Y-114300000D03*
D27*
X61595000Y-125730000D03*
D28*
X61595000Y-123190000D03*
X61595000Y-120650000D03*
D19*
X148590000Y-99060000D03*
X148590000Y-101360000D03*
D20*
X148590000Y-103660000D03*
D19*
X148590000Y-73025000D03*
X148590000Y-75325000D03*
D20*
X148590000Y-77625000D03*
D19*
X148590000Y-114300000D03*
X148590000Y-116600000D03*
D20*
X148590000Y-118900000D03*
D19*
X148590000Y-125095000D03*
X148590000Y-127395000D03*
D20*
X148590000Y-129695000D03*
D19*
X148590000Y-140335000D03*
X148590000Y-142635000D03*
D20*
X148590000Y-144935000D03*
D22*
X102140000Y-94615000D03*
X106140000Y-94615000D03*
D25*
X109220000Y-99155000D03*
X109220000Y-95155000D03*
D26*
X140420000Y-116840000D03*
X128820000Y-116840000D03*
D24*
X102140000Y-99060000D03*
X106140000Y-99060000D03*
D29*
X117475000Y-102870000D03*
D30*
X102235000Y-110490000D03*
X114935000Y-102870000D03*
X104775000Y-110490000D03*
X112395000Y-102870000D03*
X107315000Y-110490000D03*
X109855000Y-102870000D03*
X109855000Y-110490000D03*
X107315000Y-102870000D03*
X112395000Y-110490000D03*
X104775000Y-102870000D03*
X114935000Y-110490000D03*
X102235000Y-102870000D03*
X117475000Y-110490000D03*
D17*
X128905000Y-102870000D03*
D18*
X136525000Y-110490000D03*
X128905000Y-105410000D03*
X136525000Y-107950000D03*
X128905000Y-107950000D03*
X136525000Y-105410000D03*
X128905000Y-110490000D03*
X136525000Y-102870000D03*
D17*
X128905000Y-128905000D03*
D18*
X136525000Y-136525000D03*
X128905000Y-131445000D03*
X136525000Y-133985000D03*
X128905000Y-133985000D03*
X136525000Y-131445000D03*
X128905000Y-136525000D03*
X136525000Y-128905000D03*
D31*
X89535000Y-109855000D03*
D32*
X86995000Y-109855000D03*
D31*
X111125000Y-79375000D03*
D32*
X111125000Y-81915000D03*
D31*
X117475000Y-116205000D03*
X126365000Y-123190000D03*
X106045000Y-80645000D03*
D32*
X106045000Y-83185000D03*
D31*
X81915000Y-101600000D03*
D32*
X84455000Y-101600000D03*
D31*
X102870000Y-73025000D03*
D32*
X102870000Y-75565000D03*
X102870000Y-78105000D03*
X102870000Y-80645000D03*
X102870000Y-83185000D03*
X102870000Y-85725000D03*
D31*
X99060000Y-73025000D03*
D32*
X99060000Y-75565000D03*
X99060000Y-78105000D03*
X99060000Y-80645000D03*
X99060000Y-83185000D03*
X99060000Y-85725000D03*
D31*
X81915000Y-73025000D03*
D32*
X81915000Y-75565000D03*
X81915000Y-78105000D03*
X81915000Y-80645000D03*
X81915000Y-83185000D03*
X81915000Y-85725000D03*
D31*
X85725000Y-80645000D03*
X95250000Y-83185000D03*
X74295000Y-86360000D03*
X94615000Y-109855000D03*
X85725000Y-78105000D03*
X85725000Y-75565000D03*
X78105000Y-86995000D03*
X92075000Y-109855000D03*
D33*
X111125000Y-139700000D02*
X111125000Y-135255000D01*
X61595000Y-128270000D02*
X61595000Y-125730000D01*
X64135000Y-130810000D02*
X61595000Y-128270000D01*
X106680000Y-130810000D02*
X64135000Y-130810000D01*
X111125000Y-135255000D02*
X106680000Y-130810000D01*
D34*
X64135000Y-90170000D02*
X64135000Y-87630000D01*
X64135000Y-90170000D02*
X64135000Y-92710000D01*
X61595000Y-101060000D02*
X61595000Y-105410000D01*
D33*
X140335000Y-77375000D02*
X144145000Y-77375000D01*
X136525000Y-76835000D02*
X137795000Y-76835000D01*
X138335000Y-77375000D02*
X140335000Y-77375000D01*
X137795000Y-76835000D02*
X138335000Y-77375000D01*
X140335000Y-103410000D02*
X143510000Y-103410000D01*
X136525000Y-102870000D02*
X138430000Y-102870000D01*
X138970000Y-103410000D02*
X140335000Y-103410000D01*
X138430000Y-102870000D02*
X138970000Y-103410000D01*
X140335000Y-129445000D02*
X143510000Y-129445000D01*
X140335000Y-129445000D02*
X137065000Y-129445000D01*
X137065000Y-129445000D02*
X136525000Y-128905000D01*
D35*
X136525000Y-128905000D02*
X137160000Y-128905000D01*
D34*
X61595000Y-97060000D02*
X61595000Y-90170000D01*
X61595000Y-120650000D02*
X61595000Y-116840000D01*
X59785000Y-97060000D02*
X61595000Y-97060000D01*
X58420000Y-98425000D02*
X59785000Y-97060000D01*
X58420000Y-113665000D02*
X58420000Y-98425000D01*
X61595000Y-116840000D02*
X58420000Y-113665000D01*
X89535000Y-90170000D02*
X89535000Y-87630000D01*
X93345000Y-75565000D02*
X99060000Y-75565000D01*
X91440000Y-77470000D02*
X93345000Y-75565000D01*
X91440000Y-85725000D02*
X91440000Y-77470000D01*
X89535000Y-87630000D02*
X91440000Y-85725000D01*
X99060000Y-75565000D02*
X102870000Y-75565000D01*
X99060000Y-78105000D02*
X97155000Y-78105000D01*
X92075000Y-86995000D02*
X92075000Y-90170000D01*
X92710000Y-86360000D02*
X92075000Y-86995000D01*
X92710000Y-77985002D02*
X92710000Y-86360000D01*
X93860002Y-76835000D02*
X92710000Y-77985002D01*
X95885000Y-76835000D02*
X93860002Y-76835000D01*
X97155000Y-78105000D02*
X95885000Y-76835000D01*
X99060000Y-78105000D02*
X102870000Y-78105000D01*
X81915000Y-101600000D02*
X81915000Y-105410000D01*
X84455000Y-101600000D02*
X84455000Y-105410000D01*
X76835000Y-90170000D02*
X76835000Y-88265000D01*
X76835000Y-88265000D02*
X78105000Y-86995000D01*
X85725000Y-80645000D02*
X81915000Y-80645000D01*
X94615000Y-90170000D02*
X94615000Y-83820000D01*
X94615000Y-83820000D02*
X95250000Y-83185000D01*
X77470000Y-81280000D02*
X79375000Y-81280000D01*
X80010000Y-80645000D02*
X81915000Y-80645000D01*
X79375000Y-81280000D02*
X80010000Y-80645000D01*
X92075000Y-105410000D02*
X92075000Y-109855000D01*
X74295000Y-86360000D02*
X74930000Y-86360000D01*
X74930000Y-86360000D02*
X77470000Y-83820000D01*
X94615000Y-105410000D02*
X94615000Y-109855000D01*
X77470000Y-83820000D02*
X79375000Y-83820000D01*
X80010000Y-83185000D02*
X81915000Y-83185000D01*
X79375000Y-83820000D02*
X80010000Y-83185000D01*
X107315000Y-102870000D02*
X107315000Y-104775000D01*
X136610000Y-113030000D02*
X140420000Y-116840000D01*
X134620000Y-113030000D02*
X136610000Y-113030000D01*
X132715000Y-111125000D02*
X134620000Y-113030000D01*
X132715000Y-101600000D02*
X132715000Y-111125000D01*
X130175000Y-99060000D02*
X132715000Y-101600000D01*
X126365000Y-99060000D02*
X130175000Y-99060000D01*
X121920000Y-103505000D02*
X126365000Y-99060000D01*
X121920000Y-104775000D02*
X121920000Y-103505000D01*
X120015000Y-106680000D02*
X121920000Y-104775000D01*
X109220000Y-106680000D02*
X120015000Y-106680000D01*
X107315000Y-104775000D02*
X109220000Y-106680000D01*
X140420000Y-116840000D02*
X140420000Y-116290000D01*
D36*
X148590000Y-118900000D02*
X142480000Y-118900000D01*
X142480000Y-118900000D02*
X140420000Y-116840000D01*
D34*
X107315000Y-110490000D02*
X107315000Y-109220000D01*
X136610000Y-139065000D02*
X140420000Y-142875000D01*
X135890000Y-139065000D02*
X136610000Y-139065000D01*
X132715000Y-135890000D02*
X135890000Y-139065000D01*
X132715000Y-127000000D02*
X132715000Y-135890000D01*
X132080000Y-126365000D02*
X132715000Y-127000000D01*
X126365000Y-126365000D02*
X132080000Y-126365000D01*
X123825000Y-128905000D02*
X126365000Y-126365000D01*
X118110000Y-128905000D02*
X123825000Y-128905000D01*
X117475000Y-128270000D02*
X118110000Y-128905000D01*
X117475000Y-120650000D02*
X117475000Y-128270000D01*
X120650000Y-117475000D02*
X117475000Y-120650000D01*
X120650000Y-108585000D02*
X120650000Y-117475000D01*
X120015000Y-107950000D02*
X120650000Y-108585000D01*
X108585000Y-107950000D02*
X120015000Y-107950000D01*
X107315000Y-109220000D02*
X108585000Y-107950000D01*
X140420000Y-142875000D02*
X140335000Y-142875000D01*
X140420000Y-142875000D02*
X139700000Y-142875000D01*
D36*
X148590000Y-144935000D02*
X142480000Y-144935000D01*
X142480000Y-144935000D02*
X140420000Y-142875000D01*
D34*
X119475000Y-79375000D02*
X128905000Y-79375000D01*
X119475000Y-81915000D02*
X128905000Y-81915000D01*
X128905000Y-105410000D02*
X126365000Y-105410000D01*
X121920000Y-120745000D02*
X119475000Y-123190000D01*
X121920000Y-109855000D02*
X121920000Y-120745000D01*
X126365000Y-105410000D02*
X121920000Y-109855000D01*
X119475000Y-126365000D02*
X120015000Y-126365000D01*
X120015000Y-126365000D02*
X123070002Y-123309998D01*
X123070002Y-123309998D02*
X123070002Y-110609998D01*
X123070002Y-110609998D02*
X125730000Y-107950000D01*
X125730000Y-107950000D02*
X128905000Y-107950000D01*
X128905000Y-131445000D02*
X116205000Y-131445000D01*
X111125000Y-126365000D02*
X109315000Y-126365000D01*
X116205000Y-131445000D02*
X111125000Y-126365000D01*
X128905000Y-133985000D02*
X116840000Y-133985000D01*
X111125000Y-128270000D02*
X101060000Y-128270000D01*
X116840000Y-133985000D02*
X111125000Y-128270000D01*
D35*
X128905000Y-133985000D02*
X128270000Y-133985000D01*
D34*
X114935000Y-102870000D02*
X114935000Y-100965000D01*
X115475000Y-100425000D02*
X115475000Y-99060000D01*
X114935000Y-100965000D02*
X115475000Y-100425000D01*
X106140000Y-114300000D02*
X107315000Y-114300000D01*
X108490000Y-115475000D02*
X109855000Y-115475000D01*
X107315000Y-114300000D02*
X108490000Y-115475000D01*
X104775000Y-110490000D02*
X104775000Y-112935000D01*
X104775000Y-112935000D02*
X106140000Y-114300000D01*
D36*
X144145000Y-81375000D02*
X146590000Y-81375000D01*
X148590000Y-79375000D02*
X148590000Y-77625000D01*
X146590000Y-81375000D02*
X148590000Y-79375000D01*
X140335000Y-81375000D02*
X144145000Y-81375000D01*
X136525000Y-81915000D02*
X139795000Y-81915000D01*
D34*
X139795000Y-81915000D02*
X140335000Y-81375000D01*
D36*
X140335000Y-107410000D02*
X143510000Y-107410000D01*
D34*
X143510000Y-107410000D02*
X143605000Y-107315000D01*
D36*
X143605000Y-107315000D02*
X146685000Y-107315000D01*
X146685000Y-107315000D02*
X148590000Y-105410000D01*
X148590000Y-105410000D02*
X148590000Y-103660000D01*
X136525000Y-107950000D02*
X138430000Y-107950000D01*
X138970000Y-107410000D02*
X140335000Y-107410000D01*
X138430000Y-107950000D02*
X138970000Y-107410000D01*
X140335000Y-133445000D02*
X143510000Y-133445000D01*
X143510000Y-133445000D02*
X143605000Y-133350000D01*
X143605000Y-133350000D02*
X147320000Y-133350000D01*
X147320000Y-133350000D02*
X148590000Y-132080000D01*
X148590000Y-132080000D02*
X148590000Y-129695000D01*
X136525000Y-133985000D02*
X139795000Y-133985000D01*
X139795000Y-133985000D02*
X140335000Y-133445000D01*
D34*
X71755000Y-90170000D02*
X71755000Y-90805000D01*
X71755000Y-90805000D02*
X74930000Y-93980000D01*
X74930000Y-93980000D02*
X92075000Y-93980000D01*
X92075000Y-93980000D02*
X100965000Y-102870000D01*
X100965000Y-102870000D02*
X102235000Y-102870000D01*
X102140000Y-94615000D02*
X102140000Y-99060000D01*
X102235000Y-102870000D02*
X102235000Y-99155000D01*
X102235000Y-99155000D02*
X102140000Y-99060000D01*
X102235000Y-110490000D02*
X102235000Y-106680000D01*
X73660000Y-95250000D02*
X69215000Y-90805000D01*
X90805000Y-95250000D02*
X73660000Y-95250000D01*
X102235000Y-106680000D02*
X90805000Y-95250000D01*
X69215000Y-90805000D02*
X69215000Y-90170000D01*
X102235000Y-110490000D02*
X102235000Y-109855000D01*
X102140000Y-114300000D02*
X102140000Y-110585000D01*
X102140000Y-110585000D02*
X102235000Y-110490000D01*
X102140000Y-118110000D02*
X102140000Y-114300000D01*
D35*
X102140000Y-114300000D02*
X102235000Y-114205000D01*
D34*
X140420000Y-90805000D02*
X140335000Y-90805000D01*
X140335000Y-90805000D02*
X135890000Y-95250000D01*
X112395000Y-104775000D02*
X112395000Y-102870000D01*
X113030000Y-105410000D02*
X112395000Y-104775000D01*
X119380000Y-105410000D02*
X113030000Y-105410000D01*
X120650000Y-104140000D02*
X119380000Y-105410000D01*
X120650000Y-102235000D02*
X120650000Y-104140000D01*
X127635000Y-95250000D02*
X120650000Y-102235000D01*
X135890000Y-95250000D02*
X127635000Y-95250000D01*
D36*
X148590000Y-92865000D02*
X142480000Y-92865000D01*
D34*
X142480000Y-92865000D02*
X140420000Y-90805000D01*
X111125000Y-79375000D02*
X115475000Y-79375000D01*
X115475000Y-81915000D02*
X111125000Y-81915000D01*
X115475000Y-123190000D02*
X95250000Y-123190000D01*
X79375000Y-107315000D02*
X79375000Y-105410000D01*
X95250000Y-123190000D02*
X79375000Y-107315000D01*
X115475000Y-126365000D02*
X113149998Y-126365000D01*
X76835000Y-106680000D02*
X76835000Y-105410000D01*
X94615000Y-124460000D02*
X76835000Y-106680000D01*
X111244998Y-124460000D02*
X94615000Y-124460000D01*
X113149998Y-126365000D02*
X111244998Y-124460000D01*
X105315000Y-126365000D02*
X93980000Y-126365000D01*
X74295000Y-106680000D02*
X74295000Y-105410000D01*
X93980000Y-126365000D02*
X74295000Y-106680000D01*
X97060000Y-128270000D02*
X93345000Y-128270000D01*
X71755000Y-106680000D02*
X71755000Y-105410000D01*
X93345000Y-128270000D02*
X71755000Y-106680000D01*
X119475000Y-99060000D02*
X119380000Y-99060000D01*
X119380000Y-99060000D02*
X117475000Y-97155000D01*
X74295000Y-91440000D02*
X74295000Y-90170000D01*
X75565000Y-92710000D02*
X74295000Y-91440000D01*
X104140000Y-92710000D02*
X75565000Y-92710000D01*
X104140000Y-95885000D02*
X104140000Y-92710000D01*
X105410000Y-97155000D02*
X104140000Y-95885000D01*
X117475000Y-97155000D02*
X105410000Y-97155000D01*
X119475000Y-99060000D02*
X119475000Y-94615000D01*
X119475000Y-99060000D02*
X119475000Y-98520000D01*
X117475000Y-102870000D02*
X117475000Y-101600000D01*
X117475000Y-101600000D02*
X119475000Y-99600000D01*
X119475000Y-99600000D02*
X119475000Y-99060000D01*
X106140000Y-99060000D02*
X109125000Y-99060000D01*
X109125000Y-99060000D02*
X109220000Y-99155000D01*
X104775000Y-102870000D02*
X104775000Y-100425000D01*
X104775000Y-100425000D02*
X106140000Y-99060000D01*
X89535000Y-105410000D02*
X89535000Y-109855000D01*
X86995000Y-105410000D02*
X86995000Y-109855000D01*
X99060000Y-80645000D02*
X102870000Y-80645000D01*
X102870000Y-80645000D02*
X106045000Y-80645000D01*
X106045000Y-83185000D02*
X102870000Y-83185000D01*
X102870000Y-83185000D02*
X99060000Y-83185000D01*
X85725000Y-75565000D02*
X81915000Y-75565000D01*
X85725000Y-78105000D02*
X81915000Y-78105000D01*
D37*
G36*
X165046055Y-70352209D02*
X165538650Y-70681351D01*
X165867790Y-71173945D01*
X166003000Y-71853690D01*
X166003000Y-149126310D01*
X165867790Y-149806055D01*
X165538650Y-150298649D01*
X165046055Y-150627791D01*
X164366311Y-150763000D01*
X119478745Y-150763000D01*
X119601959Y-150711963D01*
X119942115Y-150173195D01*
X117475000Y-147706080D01*
X115007885Y-150173195D01*
X115348041Y-150711963D01*
X115482114Y-150763000D01*
X110588690Y-150763000D01*
X109908945Y-150627790D01*
X109416351Y-150298650D01*
X109087209Y-149806055D01*
X108952000Y-149126311D01*
X108952000Y-148748977D01*
X109962104Y-148748977D01*
X110081290Y-149100999D01*
X110888219Y-149355705D01*
X111731195Y-149282224D01*
X112168710Y-149100999D01*
X112287896Y-148748977D01*
X111125000Y-147586080D01*
X109962104Y-148748977D01*
X108952000Y-148748977D01*
X108952000Y-146963219D01*
X108969295Y-146963219D01*
X109042776Y-147806195D01*
X109224001Y-148243710D01*
X109576023Y-148362896D01*
X110738920Y-147200000D01*
X111511080Y-147200000D01*
X112673977Y-148362896D01*
X113025999Y-148243710D01*
X113280705Y-147436781D01*
X113212384Y-146652994D01*
X113527283Y-146652994D01*
X113572533Y-148214493D01*
X114083037Y-149446959D01*
X114621805Y-149787115D01*
X117088920Y-147320000D01*
X117861080Y-147320000D01*
X120328195Y-149787115D01*
X120866963Y-149446959D01*
X121422717Y-147987006D01*
X121377467Y-146425507D01*
X120866963Y-145193041D01*
X120328195Y-144852885D01*
X117861080Y-147320000D01*
X117088920Y-147320000D01*
X114621805Y-144852885D01*
X114083037Y-145193041D01*
X113527283Y-146652994D01*
X113212384Y-146652994D01*
X113207224Y-146593805D01*
X113025999Y-146156290D01*
X112673977Y-146037104D01*
X111511080Y-147200000D01*
X110738920Y-147200000D01*
X109576023Y-146037104D01*
X109224001Y-146156290D01*
X108969295Y-146963219D01*
X108952000Y-146963219D01*
X108952000Y-145651023D01*
X109962104Y-145651023D01*
X111125000Y-146813920D01*
X112287896Y-145651023D01*
X112168710Y-145299001D01*
X111361781Y-145044295D01*
X110518805Y-145117776D01*
X110081290Y-145299001D01*
X109962104Y-145651023D01*
X108952000Y-145651023D01*
X108952000Y-137795000D01*
X108932747Y-137698209D01*
X108932747Y-137599520D01*
X108744274Y-136652000D01*
X109798000Y-136652000D01*
X109798000Y-137578736D01*
X109581474Y-137619478D01*
X109265967Y-137822501D01*
X109054304Y-138132279D01*
X108979839Y-138500000D01*
X108979839Y-140900000D01*
X109044478Y-141243526D01*
X109247501Y-141559033D01*
X109557279Y-141770696D01*
X109925000Y-141845161D01*
X112325000Y-141845161D01*
X112668526Y-141780522D01*
X112984033Y-141577499D01*
X113195696Y-141267721D01*
X113270161Y-140900000D01*
X113270161Y-138500000D01*
X113205522Y-138156474D01*
X113002499Y-137840967D01*
X112692721Y-137629304D01*
X112452000Y-137580557D01*
X112452000Y-136652000D01*
X116105809Y-136652000D01*
X115253587Y-137004131D01*
X114148013Y-138107776D01*
X113548943Y-139550496D01*
X113547580Y-141112650D01*
X114144131Y-142556413D01*
X115247776Y-143661987D01*
X115618601Y-143815967D01*
X115348041Y-143928037D01*
X115007885Y-144466805D01*
X117475000Y-146933920D01*
X119942115Y-144466805D01*
X119601959Y-143928037D01*
X119320875Y-143821038D01*
X119696413Y-143665869D01*
X119983032Y-143379750D01*
X124893000Y-143379750D01*
X124893000Y-146159392D01*
X125034127Y-146500103D01*
X125294896Y-146760873D01*
X125635608Y-146902000D01*
X128315250Y-146902000D01*
X128547000Y-146670250D01*
X128547000Y-143148000D01*
X129093000Y-143148000D01*
X129093000Y-146670250D01*
X129324750Y-146902000D01*
X132004392Y-146902000D01*
X132345104Y-146760873D01*
X132605873Y-146500103D01*
X132747000Y-146159392D01*
X132747000Y-143379750D01*
X132515250Y-143148000D01*
X129093000Y-143148000D01*
X128547000Y-143148000D01*
X125124750Y-143148000D01*
X124893000Y-143379750D01*
X119983032Y-143379750D01*
X120801987Y-142562224D01*
X121401057Y-141119504D01*
X121402390Y-139590608D01*
X124893000Y-139590608D01*
X124893000Y-142370250D01*
X125124750Y-142602000D01*
X128547000Y-142602000D01*
X128547000Y-139079750D01*
X129093000Y-139079750D01*
X129093000Y-142602000D01*
X132515250Y-142602000D01*
X132747000Y-142370250D01*
X132747000Y-139590608D01*
X132605873Y-139249897D01*
X132345104Y-138989127D01*
X132004392Y-138848000D01*
X129324750Y-138848000D01*
X129093000Y-139079750D01*
X128547000Y-139079750D01*
X128315250Y-138848000D01*
X125635608Y-138848000D01*
X125294896Y-138989127D01*
X125034127Y-139249897D01*
X124893000Y-139590608D01*
X121402390Y-139590608D01*
X121402420Y-139557350D01*
X120805869Y-138113587D01*
X119755522Y-137061404D01*
X126863416Y-137061404D01*
X127174386Y-137648729D01*
X127705705Y-138072394D01*
X128358710Y-138260483D01*
X128632000Y-138030251D01*
X128632000Y-136798000D01*
X129178000Y-136798000D01*
X129178000Y-138030251D01*
X129451290Y-138260483D01*
X130104295Y-138072394D01*
X130635614Y-137648729D01*
X130946584Y-137061404D01*
X130775117Y-136798000D01*
X129178000Y-136798000D01*
X128632000Y-136798000D01*
X127034883Y-136798000D01*
X126863416Y-137061404D01*
X119755522Y-137061404D01*
X119702224Y-137008013D01*
X118844850Y-136652000D01*
X123190000Y-136652000D01*
X123239410Y-136641994D01*
X123281035Y-136613553D01*
X123308315Y-136571159D01*
X123317000Y-136525000D01*
X123317000Y-135087000D01*
X127162528Y-135087000D01*
X127242157Y-135206173D01*
X127338406Y-135270484D01*
X127174386Y-135401271D01*
X126863416Y-135988596D01*
X127034883Y-136252000D01*
X128632000Y-136252000D01*
X128632000Y-136232000D01*
X129178000Y-136232000D01*
X129178000Y-136252000D01*
X130775117Y-136252000D01*
X130946584Y-135988596D01*
X130635614Y-135401271D01*
X130471594Y-135270484D01*
X130567843Y-135206173D01*
X130942210Y-134645894D01*
X131073670Y-133985000D01*
X130942210Y-133324106D01*
X130567843Y-132763827D01*
X130494768Y-132715000D01*
X130567843Y-132666173D01*
X130942210Y-132105894D01*
X131073670Y-131445000D01*
X130942210Y-130784106D01*
X130700976Y-130423075D01*
X130764033Y-130382499D01*
X130975696Y-130072721D01*
X131050161Y-129705000D01*
X131050161Y-128105000D01*
X130985522Y-127761474D01*
X130796033Y-127467000D01*
X131613000Y-127467000D01*
X131613000Y-135890000D01*
X131696885Y-136311717D01*
X131935768Y-136669232D01*
X135110768Y-139844232D01*
X135468283Y-140083115D01*
X135890000Y-140167000D01*
X136153536Y-140167000D01*
X136474839Y-140488303D01*
X136474839Y-145975000D01*
X136539478Y-146318526D01*
X136742501Y-146634033D01*
X137052279Y-146845696D01*
X137420000Y-146920161D01*
X143420000Y-146920161D01*
X143763526Y-146855522D01*
X144079033Y-146652499D01*
X144106705Y-146612000D01*
X148590000Y-146612000D01*
X149231760Y-146484346D01*
X149775818Y-146120818D01*
X150139346Y-145576760D01*
X150267000Y-144935000D01*
X150139346Y-144293240D01*
X149950412Y-144010481D01*
X150160696Y-143702721D01*
X150235161Y-143335000D01*
X150235161Y-141935000D01*
X150170522Y-141591474D01*
X150103205Y-141486861D01*
X150160696Y-141402721D01*
X150235161Y-141035000D01*
X150235161Y-139635000D01*
X150170522Y-139291474D01*
X149967499Y-138975967D01*
X149657721Y-138764304D01*
X149290000Y-138689839D01*
X147890000Y-138689839D01*
X147546474Y-138754478D01*
X147230967Y-138957501D01*
X147019304Y-139267279D01*
X146944839Y-139635000D01*
X146944839Y-141035000D01*
X147009478Y-141378526D01*
X147076795Y-141483139D01*
X147019304Y-141567279D01*
X146944839Y-141935000D01*
X146944839Y-143258000D01*
X144365161Y-143258000D01*
X144365161Y-139775000D01*
X144300522Y-139431474D01*
X144097499Y-139115967D01*
X143787721Y-138904304D01*
X143420000Y-138829839D01*
X137933303Y-138829839D01*
X137389232Y-138285768D01*
X137253351Y-138194976D01*
X137627564Y-138120540D01*
X138187843Y-137746173D01*
X138562210Y-137185894D01*
X138693670Y-136525000D01*
X138562210Y-135864106D01*
X138489606Y-135755446D01*
X160032562Y-135755446D01*
X160416464Y-136684561D01*
X161126700Y-137396037D01*
X162055143Y-137781561D01*
X163060446Y-137782438D01*
X163989561Y-137398536D01*
X164701037Y-136688300D01*
X165086561Y-135759857D01*
X165087438Y-134754554D01*
X164703536Y-133825439D01*
X163993300Y-133113963D01*
X163064857Y-132728439D01*
X162059554Y-132727562D01*
X161130439Y-133111464D01*
X160418963Y-133821700D01*
X160033439Y-134750143D01*
X160032562Y-135755446D01*
X138489606Y-135755446D01*
X138427167Y-135662000D01*
X139795000Y-135662000D01*
X140436760Y-135534346D01*
X140652548Y-135390161D01*
X141135000Y-135390161D01*
X141478526Y-135325522D01*
X141794033Y-135122499D01*
X141794374Y-135122000D01*
X142058796Y-135122000D01*
X142342279Y-135315696D01*
X142710000Y-135390161D01*
X144310000Y-135390161D01*
X144653526Y-135325522D01*
X144969033Y-135122499D01*
X145034285Y-135027000D01*
X147320000Y-135027000D01*
X147961760Y-134899346D01*
X148505818Y-134535818D01*
X149775818Y-133265818D01*
X150139346Y-132721760D01*
X150267000Y-132080000D01*
X150267000Y-129695000D01*
X150139346Y-129053240D01*
X149950412Y-128770481D01*
X150160696Y-128462721D01*
X150235161Y-128095000D01*
X150235161Y-126695000D01*
X150170522Y-126351474D01*
X150103205Y-126246861D01*
X150160696Y-126162721D01*
X150235161Y-125795000D01*
X150235161Y-124395000D01*
X150170522Y-124051474D01*
X149967499Y-123735967D01*
X149657721Y-123524304D01*
X149290000Y-123449839D01*
X147890000Y-123449839D01*
X147546474Y-123514478D01*
X147230967Y-123717501D01*
X147019304Y-124027279D01*
X146944839Y-124395000D01*
X146944839Y-125795000D01*
X147009478Y-126138526D01*
X147076795Y-126243139D01*
X147019304Y-126327279D01*
X146944839Y-126695000D01*
X146944839Y-128095000D01*
X147009478Y-128438526D01*
X147212501Y-128754033D01*
X147231777Y-128767204D01*
X147040654Y-129053240D01*
X146913000Y-129695000D01*
X146913000Y-131385364D01*
X146625364Y-131673000D01*
X144822167Y-131673000D01*
X144677721Y-131574304D01*
X144310000Y-131499839D01*
X142710000Y-131499839D01*
X142366474Y-131564478D01*
X142050967Y-131767501D01*
X142050626Y-131768000D01*
X141786204Y-131768000D01*
X141502721Y-131574304D01*
X141135000Y-131499839D01*
X139535000Y-131499839D01*
X139191474Y-131564478D01*
X138875967Y-131767501D01*
X138664304Y-132077279D01*
X138617582Y-132308000D01*
X138427167Y-132308000D01*
X138562210Y-132105894D01*
X138693670Y-131445000D01*
X138562210Y-130784106D01*
X138554121Y-130772000D01*
X138651368Y-130772000D01*
X138654478Y-130788526D01*
X138857501Y-131104033D01*
X139167279Y-131315696D01*
X139535000Y-131390161D01*
X141135000Y-131390161D01*
X141478526Y-131325522D01*
X141794033Y-131122499D01*
X141922962Y-130933805D01*
X142032501Y-131104033D01*
X142342279Y-131315696D01*
X142710000Y-131390161D01*
X144310000Y-131390161D01*
X144653526Y-131325522D01*
X144969033Y-131122499D01*
X145180696Y-130812721D01*
X145255161Y-130445000D01*
X145255161Y-128445000D01*
X145190522Y-128101474D01*
X144987499Y-127785967D01*
X144677721Y-127574304D01*
X144310000Y-127499839D01*
X142710000Y-127499839D01*
X142366474Y-127564478D01*
X142050967Y-127767501D01*
X141922038Y-127956195D01*
X141812499Y-127785967D01*
X141502721Y-127574304D01*
X141135000Y-127499839D01*
X139535000Y-127499839D01*
X139191474Y-127564478D01*
X138875967Y-127767501D01*
X138664304Y-128077279D01*
X138656058Y-128118000D01*
X138477949Y-128118000D01*
X138187843Y-127683827D01*
X137627564Y-127309460D01*
X136966670Y-127178000D01*
X136083330Y-127178000D01*
X135422436Y-127309460D01*
X134862157Y-127683827D01*
X134487790Y-128244106D01*
X134356330Y-128905000D01*
X134487790Y-129565894D01*
X134862157Y-130126173D01*
X134935232Y-130175000D01*
X134862157Y-130223827D01*
X134487790Y-130784106D01*
X134356330Y-131445000D01*
X134487790Y-132105894D01*
X134862157Y-132666173D01*
X134935232Y-132715000D01*
X134862157Y-132763827D01*
X134487790Y-133324106D01*
X134356330Y-133985000D01*
X134487790Y-134645894D01*
X134862157Y-135206173D01*
X134935232Y-135255000D01*
X134862157Y-135303827D01*
X134487790Y-135864106D01*
X134447935Y-136064471D01*
X133817000Y-135433536D01*
X133817000Y-127000005D01*
X133817001Y-127000000D01*
X133733115Y-126578283D01*
X133494232Y-126220768D01*
X133494229Y-126220766D01*
X132859232Y-125585768D01*
X132501717Y-125346885D01*
X132080000Y-125263000D01*
X126365000Y-125263000D01*
X125943283Y-125346885D01*
X125585768Y-125585768D01*
X125585766Y-125585771D01*
X123368536Y-127803000D01*
X123317000Y-127803000D01*
X123317000Y-124621463D01*
X123849231Y-124089232D01*
X123849234Y-124089230D01*
X124088117Y-123731715D01*
X124095469Y-123694750D01*
X124588000Y-123694750D01*
X124588000Y-124224392D01*
X124729127Y-124565103D01*
X124989896Y-124825873D01*
X125330608Y-124967000D01*
X125860250Y-124967000D01*
X126092000Y-124735250D01*
X126092000Y-123463000D01*
X126638000Y-123463000D01*
X126638000Y-124735250D01*
X126869750Y-124967000D01*
X127399392Y-124967000D01*
X127740104Y-124825873D01*
X128000873Y-124565103D01*
X128142000Y-124224392D01*
X128142000Y-123694750D01*
X127910250Y-123463000D01*
X126638000Y-123463000D01*
X126092000Y-123463000D01*
X124819750Y-123463000D01*
X124588000Y-123694750D01*
X124095469Y-123694750D01*
X124172002Y-123309998D01*
X124172002Y-122155608D01*
X124588000Y-122155608D01*
X124588000Y-122685250D01*
X124819750Y-122917000D01*
X126092000Y-122917000D01*
X126092000Y-121644750D01*
X126638000Y-121644750D01*
X126638000Y-122917000D01*
X127910250Y-122917000D01*
X128142000Y-122685250D01*
X128142000Y-122155608D01*
X128000873Y-121814897D01*
X127740104Y-121554127D01*
X127399392Y-121413000D01*
X126869750Y-121413000D01*
X126638000Y-121644750D01*
X126092000Y-121644750D01*
X125860250Y-121413000D01*
X125330608Y-121413000D01*
X124989896Y-121554127D01*
X124729127Y-121814897D01*
X124588000Y-122155608D01*
X124172002Y-122155608D01*
X124172002Y-117344750D01*
X124893000Y-117344750D01*
X124893000Y-120124392D01*
X125034127Y-120465103D01*
X125294896Y-120725873D01*
X125635608Y-120867000D01*
X128315250Y-120867000D01*
X128547000Y-120635250D01*
X128547000Y-117113000D01*
X129093000Y-117113000D01*
X129093000Y-120635250D01*
X129324750Y-120867000D01*
X132004392Y-120867000D01*
X132345104Y-120725873D01*
X132605873Y-120465103D01*
X132747000Y-120124392D01*
X132747000Y-117344750D01*
X132515250Y-117113000D01*
X129093000Y-117113000D01*
X128547000Y-117113000D01*
X125124750Y-117113000D01*
X124893000Y-117344750D01*
X124172002Y-117344750D01*
X124172002Y-113555608D01*
X124893000Y-113555608D01*
X124893000Y-116335250D01*
X125124750Y-116567000D01*
X128547000Y-116567000D01*
X128547000Y-113044750D01*
X129093000Y-113044750D01*
X129093000Y-116567000D01*
X132515250Y-116567000D01*
X132747000Y-116335250D01*
X132747000Y-113555608D01*
X132605873Y-113214897D01*
X132345104Y-112954127D01*
X132004392Y-112813000D01*
X129324750Y-112813000D01*
X129093000Y-113044750D01*
X128547000Y-113044750D01*
X128315250Y-112813000D01*
X125635608Y-112813000D01*
X125294896Y-112954127D01*
X125034127Y-113214897D01*
X124893000Y-113555608D01*
X124172002Y-113555608D01*
X124172002Y-111066462D01*
X124212059Y-111026404D01*
X126863416Y-111026404D01*
X127174386Y-111613729D01*
X127705705Y-112037394D01*
X128358710Y-112225483D01*
X128632000Y-111995251D01*
X128632000Y-110763000D01*
X129178000Y-110763000D01*
X129178000Y-111995251D01*
X129451290Y-112225483D01*
X130104295Y-112037394D01*
X130635614Y-111613729D01*
X130946584Y-111026404D01*
X130775117Y-110763000D01*
X129178000Y-110763000D01*
X128632000Y-110763000D01*
X127034883Y-110763000D01*
X126863416Y-111026404D01*
X124212059Y-111026404D01*
X126186463Y-109052000D01*
X127162528Y-109052000D01*
X127242157Y-109171173D01*
X127338406Y-109235484D01*
X127174386Y-109366271D01*
X126863416Y-109953596D01*
X127034883Y-110217000D01*
X128632000Y-110217000D01*
X128632000Y-110197000D01*
X129178000Y-110197000D01*
X129178000Y-110217000D01*
X130775117Y-110217000D01*
X130946584Y-109953596D01*
X130635614Y-109366271D01*
X130471594Y-109235484D01*
X130567843Y-109171173D01*
X130942210Y-108610894D01*
X131073670Y-107950000D01*
X130942210Y-107289106D01*
X130567843Y-106728827D01*
X130494768Y-106680000D01*
X130567843Y-106631173D01*
X130942210Y-106070894D01*
X131073670Y-105410000D01*
X130942210Y-104749106D01*
X130700976Y-104388075D01*
X130764033Y-104347499D01*
X130975696Y-104037721D01*
X131050161Y-103670000D01*
X131050161Y-102070000D01*
X130985522Y-101726474D01*
X130782499Y-101410967D01*
X130472721Y-101199304D01*
X130105000Y-101124839D01*
X127705000Y-101124839D01*
X127361474Y-101189478D01*
X127045967Y-101392501D01*
X126834304Y-101702279D01*
X126759839Y-102070000D01*
X126759839Y-103670000D01*
X126824478Y-104013526D01*
X127013967Y-104308000D01*
X126365000Y-104308000D01*
X125943283Y-104391885D01*
X125585768Y-104630768D01*
X125585766Y-104630771D01*
X123317000Y-106899536D01*
X123317000Y-103666464D01*
X126821463Y-100162000D01*
X129718536Y-100162000D01*
X131613000Y-102056463D01*
X131613000Y-111125000D01*
X131696885Y-111546717D01*
X131935768Y-111904232D01*
X133840768Y-113809232D01*
X134198283Y-114048115D01*
X134620000Y-114132001D01*
X134620005Y-114132000D01*
X136153536Y-114132000D01*
X136474839Y-114453303D01*
X136474839Y-119940000D01*
X136539478Y-120283526D01*
X136742501Y-120599033D01*
X137052279Y-120810696D01*
X137420000Y-120885161D01*
X143420000Y-120885161D01*
X143763526Y-120820522D01*
X144079033Y-120617499D01*
X144106705Y-120577000D01*
X148590000Y-120577000D01*
X149231760Y-120449346D01*
X149775818Y-120085818D01*
X150139346Y-119541760D01*
X150267000Y-118900000D01*
X150139346Y-118258240D01*
X149950412Y-117975481D01*
X150160696Y-117667721D01*
X150235161Y-117300000D01*
X150235161Y-115900000D01*
X150170522Y-115556474D01*
X150103205Y-115451861D01*
X150160696Y-115367721D01*
X150235161Y-115000000D01*
X150235161Y-113600000D01*
X150170522Y-113256474D01*
X149967499Y-112940967D01*
X149657721Y-112729304D01*
X149290000Y-112654839D01*
X147890000Y-112654839D01*
X147546474Y-112719478D01*
X147230967Y-112922501D01*
X147019304Y-113232279D01*
X146944839Y-113600000D01*
X146944839Y-115000000D01*
X147009478Y-115343526D01*
X147076795Y-115448139D01*
X147019304Y-115532279D01*
X146944839Y-115900000D01*
X146944839Y-117223000D01*
X144365161Y-117223000D01*
X144365161Y-113740000D01*
X144300522Y-113396474D01*
X144097499Y-113080967D01*
X143787721Y-112869304D01*
X143420000Y-112794839D01*
X137933303Y-112794839D01*
X137389232Y-112250768D01*
X137253351Y-112159976D01*
X137627564Y-112085540D01*
X138187843Y-111711173D01*
X138562210Y-111150894D01*
X138693670Y-110490000D01*
X138562210Y-109829106D01*
X138427167Y-109627000D01*
X138430000Y-109627000D01*
X139071760Y-109499346D01*
X139345101Y-109316706D01*
X139535000Y-109355161D01*
X141135000Y-109355161D01*
X141478526Y-109290522D01*
X141794033Y-109087499D01*
X141794374Y-109087000D01*
X142058796Y-109087000D01*
X142342279Y-109280696D01*
X142710000Y-109355161D01*
X144310000Y-109355161D01*
X144653526Y-109290522D01*
X144969033Y-109087499D01*
X145034285Y-108992000D01*
X146685000Y-108992000D01*
X147326760Y-108864346D01*
X147870818Y-108500818D01*
X149775818Y-106595818D01*
X150139346Y-106051760D01*
X150267000Y-105410000D01*
X150267000Y-103660000D01*
X150139346Y-103018240D01*
X149950412Y-102735481D01*
X150160696Y-102427721D01*
X150235161Y-102060000D01*
X150235161Y-100660000D01*
X150170522Y-100316474D01*
X150103205Y-100211861D01*
X150160696Y-100127721D01*
X150235161Y-99760000D01*
X150235161Y-98360000D01*
X150170522Y-98016474D01*
X149967499Y-97700967D01*
X149657721Y-97489304D01*
X149290000Y-97414839D01*
X147890000Y-97414839D01*
X147546474Y-97479478D01*
X147230967Y-97682501D01*
X147019304Y-97992279D01*
X146944839Y-98360000D01*
X146944839Y-99760000D01*
X147009478Y-100103526D01*
X147076795Y-100208139D01*
X147019304Y-100292279D01*
X146944839Y-100660000D01*
X146944839Y-102060000D01*
X147009478Y-102403526D01*
X147212501Y-102719033D01*
X147231777Y-102732204D01*
X147040654Y-103018240D01*
X146913000Y-103660000D01*
X146913000Y-104715364D01*
X145990364Y-105638000D01*
X144822167Y-105638000D01*
X144677721Y-105539304D01*
X144310000Y-105464839D01*
X142710000Y-105464839D01*
X142366474Y-105529478D01*
X142050967Y-105732501D01*
X142050626Y-105733000D01*
X141786204Y-105733000D01*
X141502721Y-105539304D01*
X141135000Y-105464839D01*
X139535000Y-105464839D01*
X139191474Y-105529478D01*
X138875967Y-105732501D01*
X138860782Y-105754725D01*
X138615391Y-105803536D01*
X138693670Y-105410000D01*
X138562210Y-104749106D01*
X138490374Y-104641596D01*
X138638979Y-104671156D01*
X138654478Y-104753526D01*
X138857501Y-105069033D01*
X139167279Y-105280696D01*
X139535000Y-105355161D01*
X141135000Y-105355161D01*
X141478526Y-105290522D01*
X141794033Y-105087499D01*
X141922962Y-104898805D01*
X142032501Y-105069033D01*
X142342279Y-105280696D01*
X142710000Y-105355161D01*
X144310000Y-105355161D01*
X144653526Y-105290522D01*
X144969033Y-105087499D01*
X145180696Y-104777721D01*
X145255161Y-104410000D01*
X145255161Y-102410000D01*
X145190522Y-102066474D01*
X144987499Y-101750967D01*
X144677721Y-101539304D01*
X144310000Y-101464839D01*
X142710000Y-101464839D01*
X142366474Y-101529478D01*
X142050967Y-101732501D01*
X141922038Y-101921195D01*
X141812499Y-101750967D01*
X141502721Y-101539304D01*
X141135000Y-101464839D01*
X139535000Y-101464839D01*
X139191474Y-101529478D01*
X138974940Y-101668814D01*
X138937821Y-101644012D01*
X138430000Y-101543000D01*
X138029462Y-101543000D01*
X137627564Y-101274460D01*
X136966670Y-101143000D01*
X136083330Y-101143000D01*
X135422436Y-101274460D01*
X134862157Y-101648827D01*
X134487790Y-102209106D01*
X134356330Y-102870000D01*
X134487790Y-103530894D01*
X134862157Y-104091173D01*
X134935232Y-104140000D01*
X134862157Y-104188827D01*
X134487790Y-104749106D01*
X134356330Y-105410000D01*
X134487790Y-106070894D01*
X134862157Y-106631173D01*
X134935232Y-106680000D01*
X134862157Y-106728827D01*
X134487790Y-107289106D01*
X134356330Y-107950000D01*
X134487790Y-108610894D01*
X134862157Y-109171173D01*
X134935232Y-109220000D01*
X134862157Y-109268827D01*
X134487790Y-109829106D01*
X134356330Y-110490000D01*
X134487790Y-111150894D01*
X134862157Y-111711173D01*
X135186661Y-111928000D01*
X135076464Y-111928000D01*
X133817000Y-110668536D01*
X133817000Y-101600000D01*
X133733115Y-101178283D01*
X133494232Y-100820768D01*
X133494229Y-100820766D01*
X130954232Y-98280768D01*
X130596717Y-98041885D01*
X130175000Y-97958000D01*
X126485463Y-97958000D01*
X128091463Y-96352000D01*
X135890000Y-96352000D01*
X136311717Y-96268115D01*
X136669232Y-96029232D01*
X137848303Y-94850161D01*
X143420000Y-94850161D01*
X143763526Y-94785522D01*
X144079033Y-94582499D01*
X144106705Y-94542000D01*
X148590000Y-94542000D01*
X149231760Y-94414346D01*
X149775818Y-94050818D01*
X150139346Y-93506760D01*
X150267000Y-92865000D01*
X150139346Y-92223240D01*
X149950412Y-91940481D01*
X150160696Y-91632721D01*
X150235161Y-91265000D01*
X150235161Y-89865000D01*
X150170522Y-89521474D01*
X150103205Y-89416861D01*
X150160696Y-89332721D01*
X150235161Y-88965000D01*
X150235161Y-87565000D01*
X150170522Y-87221474D01*
X149967499Y-86905967D01*
X149657721Y-86694304D01*
X149290000Y-86619839D01*
X147890000Y-86619839D01*
X147546474Y-86684478D01*
X147230967Y-86887501D01*
X147019304Y-87197279D01*
X146944839Y-87565000D01*
X146944839Y-88965000D01*
X147009478Y-89308526D01*
X147076795Y-89413139D01*
X147019304Y-89497279D01*
X146944839Y-89865000D01*
X146944839Y-91188000D01*
X144365161Y-91188000D01*
X144365161Y-87705000D01*
X144300522Y-87361474D01*
X144097499Y-87045967D01*
X143787721Y-86834304D01*
X143420000Y-86759839D01*
X137420000Y-86759839D01*
X137076474Y-86824478D01*
X136760967Y-87027501D01*
X136549304Y-87337279D01*
X136474839Y-87705000D01*
X136474839Y-93106697D01*
X135433536Y-94148000D01*
X132722724Y-94148000D01*
X132747000Y-94089392D01*
X132747000Y-91309750D01*
X132515250Y-91078000D01*
X129093000Y-91078000D01*
X129093000Y-91098000D01*
X128547000Y-91098000D01*
X128547000Y-91078000D01*
X125124750Y-91078000D01*
X124893000Y-91309750D01*
X124893000Y-94089392D01*
X125034127Y-94430103D01*
X125294896Y-94690873D01*
X125635608Y-94832000D01*
X126494537Y-94832000D01*
X123317000Y-98009536D01*
X123317000Y-87520608D01*
X124893000Y-87520608D01*
X124893000Y-90300250D01*
X125124750Y-90532000D01*
X128547000Y-90532000D01*
X128547000Y-87009750D01*
X129093000Y-87009750D01*
X129093000Y-90532000D01*
X132515250Y-90532000D01*
X132747000Y-90300250D01*
X132747000Y-87520608D01*
X132605873Y-87179897D01*
X132345104Y-86919127D01*
X132004392Y-86778000D01*
X129324750Y-86778000D01*
X129093000Y-87009750D01*
X128547000Y-87009750D01*
X128315250Y-86778000D01*
X125635608Y-86778000D01*
X125294896Y-86919127D01*
X125034127Y-87179897D01*
X124893000Y-87520608D01*
X123317000Y-87520608D01*
X123317000Y-84991404D01*
X126863416Y-84991404D01*
X127174386Y-85578729D01*
X127705705Y-86002394D01*
X128358710Y-86190483D01*
X128632000Y-85960251D01*
X128632000Y-84728000D01*
X129178000Y-84728000D01*
X129178000Y-85960251D01*
X129451290Y-86190483D01*
X130104295Y-86002394D01*
X130635614Y-85578729D01*
X130946584Y-84991404D01*
X130775117Y-84728000D01*
X129178000Y-84728000D01*
X128632000Y-84728000D01*
X127034883Y-84728000D01*
X126863416Y-84991404D01*
X123317000Y-84991404D01*
X123317000Y-83017000D01*
X127162528Y-83017000D01*
X127242157Y-83136173D01*
X127338406Y-83200484D01*
X127174386Y-83331271D01*
X126863416Y-83918596D01*
X127034883Y-84182000D01*
X128632000Y-84182000D01*
X128632000Y-84162000D01*
X129178000Y-84162000D01*
X129178000Y-84182000D01*
X130775117Y-84182000D01*
X130946584Y-83918596D01*
X130635614Y-83331271D01*
X130471594Y-83200484D01*
X130567843Y-83136173D01*
X130942210Y-82575894D01*
X131073670Y-81915000D01*
X130942210Y-81254106D01*
X130567843Y-80693827D01*
X130494768Y-80645000D01*
X130567843Y-80596173D01*
X130942210Y-80035894D01*
X131073670Y-79375000D01*
X130942210Y-78714106D01*
X130700976Y-78353075D01*
X130764033Y-78312499D01*
X130975696Y-78002721D01*
X131050161Y-77635000D01*
X131050161Y-76835000D01*
X134356330Y-76835000D01*
X134487790Y-77495894D01*
X134862157Y-78056173D01*
X134935232Y-78105000D01*
X134862157Y-78153827D01*
X134487790Y-78714106D01*
X134356330Y-79375000D01*
X134487790Y-80035894D01*
X134862157Y-80596173D01*
X134935232Y-80645000D01*
X134862157Y-80693827D01*
X134487790Y-81254106D01*
X134356330Y-81915000D01*
X134487790Y-82575894D01*
X134862157Y-83136173D01*
X134935232Y-83185000D01*
X134862157Y-83233827D01*
X134487790Y-83794106D01*
X134356330Y-84455000D01*
X134487790Y-85115894D01*
X134862157Y-85676173D01*
X135422436Y-86050540D01*
X136083330Y-86182000D01*
X136966670Y-86182000D01*
X137627564Y-86050540D01*
X138187843Y-85676173D01*
X138562210Y-85115894D01*
X138693670Y-84455000D01*
X138562210Y-83794106D01*
X138489606Y-83685446D01*
X160032562Y-83685446D01*
X160416464Y-84614561D01*
X161126700Y-85326037D01*
X162055143Y-85711561D01*
X163060446Y-85712438D01*
X163989561Y-85328536D01*
X164701037Y-84618300D01*
X165086561Y-83689857D01*
X165087438Y-82684554D01*
X164703536Y-81755439D01*
X163993300Y-81043963D01*
X163064857Y-80658439D01*
X162059554Y-80657562D01*
X161130439Y-81041464D01*
X160418963Y-81751700D01*
X160033439Y-82680143D01*
X160032562Y-83685446D01*
X138489606Y-83685446D01*
X138427167Y-83592000D01*
X139795000Y-83592000D01*
X140436760Y-83464346D01*
X140652548Y-83320161D01*
X141135000Y-83320161D01*
X141478526Y-83255522D01*
X141794033Y-83052499D01*
X141794374Y-83052000D01*
X142693796Y-83052000D01*
X142977279Y-83245696D01*
X143345000Y-83320161D01*
X144945000Y-83320161D01*
X145288526Y-83255522D01*
X145604033Y-83052499D01*
X145604374Y-83052000D01*
X146590000Y-83052000D01*
X147231760Y-82924346D01*
X147775818Y-82560818D01*
X149775818Y-80560818D01*
X150139346Y-80016760D01*
X150267000Y-79375000D01*
X150267000Y-77625000D01*
X150139346Y-76983240D01*
X149950412Y-76700481D01*
X150160696Y-76392721D01*
X150235161Y-76025000D01*
X150235161Y-74625000D01*
X150170522Y-74281474D01*
X150103205Y-74176861D01*
X150160696Y-74092721D01*
X150235161Y-73725000D01*
X150235161Y-72325000D01*
X150170522Y-71981474D01*
X149967499Y-71665967D01*
X149657721Y-71454304D01*
X149290000Y-71379839D01*
X147890000Y-71379839D01*
X147546474Y-71444478D01*
X147230967Y-71647501D01*
X147019304Y-71957279D01*
X146944839Y-72325000D01*
X146944839Y-73725000D01*
X147009478Y-74068526D01*
X147076795Y-74173139D01*
X147019304Y-74257279D01*
X146944839Y-74625000D01*
X146944839Y-76025000D01*
X147009478Y-76368526D01*
X147212501Y-76684033D01*
X147231777Y-76697204D01*
X147040654Y-76983240D01*
X146913000Y-77625000D01*
X146913000Y-78680364D01*
X145895364Y-79698000D01*
X145596204Y-79698000D01*
X145312721Y-79504304D01*
X144945000Y-79429839D01*
X143345000Y-79429839D01*
X143001474Y-79494478D01*
X142685967Y-79697501D01*
X142685626Y-79698000D01*
X141786204Y-79698000D01*
X141502721Y-79504304D01*
X141135000Y-79429839D01*
X139535000Y-79429839D01*
X139191474Y-79494478D01*
X138875967Y-79697501D01*
X138664304Y-80007279D01*
X138617582Y-80238000D01*
X138427167Y-80238000D01*
X138562210Y-80035894D01*
X138693670Y-79375000D01*
X138562210Y-78714106D01*
X138554121Y-78702000D01*
X138651368Y-78702000D01*
X138654478Y-78718526D01*
X138857501Y-79034033D01*
X139167279Y-79245696D01*
X139535000Y-79320161D01*
X141135000Y-79320161D01*
X141478526Y-79255522D01*
X141794033Y-79052499D01*
X142005696Y-78742721D01*
X142013942Y-78702000D01*
X142461368Y-78702000D01*
X142464478Y-78718526D01*
X142667501Y-79034033D01*
X142977279Y-79245696D01*
X143345000Y-79320161D01*
X144945000Y-79320161D01*
X145288526Y-79255522D01*
X145604033Y-79052499D01*
X145815696Y-78742721D01*
X145890161Y-78375000D01*
X145890161Y-76375000D01*
X145825522Y-76031474D01*
X145622499Y-75715967D01*
X145312721Y-75504304D01*
X144945000Y-75429839D01*
X143345000Y-75429839D01*
X143001474Y-75494478D01*
X142685967Y-75697501D01*
X142474304Y-76007279D01*
X142466058Y-76048000D01*
X142018632Y-76048000D01*
X142015522Y-76031474D01*
X141812499Y-75715967D01*
X141502721Y-75504304D01*
X141135000Y-75429839D01*
X139535000Y-75429839D01*
X139191474Y-75494478D01*
X138875967Y-75697501D01*
X138737222Y-75900560D01*
X138733331Y-75896669D01*
X138302821Y-75609012D01*
X138128846Y-75574406D01*
X137627564Y-75239460D01*
X136966670Y-75108000D01*
X136083330Y-75108000D01*
X135422436Y-75239460D01*
X134862157Y-75613827D01*
X134487790Y-76174106D01*
X134356330Y-76835000D01*
X131050161Y-76835000D01*
X131050161Y-76035000D01*
X130985522Y-75691474D01*
X130782499Y-75375967D01*
X130472721Y-75164304D01*
X130105000Y-75089839D01*
X127705000Y-75089839D01*
X127361474Y-75154478D01*
X127045967Y-75357501D01*
X126834304Y-75667279D01*
X126759839Y-76035000D01*
X126759839Y-77635000D01*
X126824478Y-77978526D01*
X127013967Y-78273000D01*
X123317000Y-78273000D01*
X123317000Y-70217000D01*
X164366311Y-70217000D01*
X165046055Y-70352209D01*
X165046055Y-70352209D01*
G37*
X165046055Y-70352209D02*
X165538650Y-70681351D01*
X165867790Y-71173945D01*
X166003000Y-71853690D01*
X166003000Y-149126310D01*
X165867790Y-149806055D01*
X165538650Y-150298649D01*
X165046055Y-150627791D01*
X164366311Y-150763000D01*
X119478745Y-150763000D01*
X119601959Y-150711963D01*
X119942115Y-150173195D01*
X117475000Y-147706080D01*
X115007885Y-150173195D01*
X115348041Y-150711963D01*
X115482114Y-150763000D01*
X110588690Y-150763000D01*
X109908945Y-150627790D01*
X109416351Y-150298650D01*
X109087209Y-149806055D01*
X108952000Y-149126311D01*
X108952000Y-148748977D01*
X109962104Y-148748977D01*
X110081290Y-149100999D01*
X110888219Y-149355705D01*
X111731195Y-149282224D01*
X112168710Y-149100999D01*
X112287896Y-148748977D01*
X111125000Y-147586080D01*
X109962104Y-148748977D01*
X108952000Y-148748977D01*
X108952000Y-146963219D01*
X108969295Y-146963219D01*
X109042776Y-147806195D01*
X109224001Y-148243710D01*
X109576023Y-148362896D01*
X110738920Y-147200000D01*
X111511080Y-147200000D01*
X112673977Y-148362896D01*
X113025999Y-148243710D01*
X113280705Y-147436781D01*
X113212384Y-146652994D01*
X113527283Y-146652994D01*
X113572533Y-148214493D01*
X114083037Y-149446959D01*
X114621805Y-149787115D01*
X117088920Y-147320000D01*
X117861080Y-147320000D01*
X120328195Y-149787115D01*
X120866963Y-149446959D01*
X121422717Y-147987006D01*
X121377467Y-146425507D01*
X120866963Y-145193041D01*
X120328195Y-144852885D01*
X117861080Y-147320000D01*
X117088920Y-147320000D01*
X114621805Y-144852885D01*
X114083037Y-145193041D01*
X113527283Y-146652994D01*
X113212384Y-146652994D01*
X113207224Y-146593805D01*
X113025999Y-146156290D01*
X112673977Y-146037104D01*
X111511080Y-147200000D01*
X110738920Y-147200000D01*
X109576023Y-146037104D01*
X109224001Y-146156290D01*
X108969295Y-146963219D01*
X108952000Y-146963219D01*
X108952000Y-145651023D01*
X109962104Y-145651023D01*
X111125000Y-146813920D01*
X112287896Y-145651023D01*
X112168710Y-145299001D01*
X111361781Y-145044295D01*
X110518805Y-145117776D01*
X110081290Y-145299001D01*
X109962104Y-145651023D01*
X108952000Y-145651023D01*
X108952000Y-137795000D01*
X108932747Y-137698209D01*
X108932747Y-137599520D01*
X108744274Y-136652000D01*
X109798000Y-136652000D01*
X109798000Y-137578736D01*
X109581474Y-137619478D01*
X109265967Y-137822501D01*
X109054304Y-138132279D01*
X108979839Y-138500000D01*
X108979839Y-140900000D01*
X109044478Y-141243526D01*
X109247501Y-141559033D01*
X109557279Y-141770696D01*
X109925000Y-141845161D01*
X112325000Y-141845161D01*
X112668526Y-141780522D01*
X112984033Y-141577499D01*
X113195696Y-141267721D01*
X113270161Y-140900000D01*
X113270161Y-138500000D01*
X113205522Y-138156474D01*
X113002499Y-137840967D01*
X112692721Y-137629304D01*
X112452000Y-137580557D01*
X112452000Y-136652000D01*
X116105809Y-136652000D01*
X115253587Y-137004131D01*
X114148013Y-138107776D01*
X113548943Y-139550496D01*
X113547580Y-141112650D01*
X114144131Y-142556413D01*
X115247776Y-143661987D01*
X115618601Y-143815967D01*
X115348041Y-143928037D01*
X115007885Y-144466805D01*
X117475000Y-146933920D01*
X119942115Y-144466805D01*
X119601959Y-143928037D01*
X119320875Y-143821038D01*
X119696413Y-143665869D01*
X119983032Y-143379750D01*
X124893000Y-143379750D01*
X124893000Y-146159392D01*
X125034127Y-146500103D01*
X125294896Y-146760873D01*
X125635608Y-146902000D01*
X128315250Y-146902000D01*
X128547000Y-146670250D01*
X128547000Y-143148000D01*
X129093000Y-143148000D01*
X129093000Y-146670250D01*
X129324750Y-146902000D01*
X132004392Y-146902000D01*
X132345104Y-146760873D01*
X132605873Y-146500103D01*
X132747000Y-146159392D01*
X132747000Y-143379750D01*
X132515250Y-143148000D01*
X129093000Y-143148000D01*
X128547000Y-143148000D01*
X125124750Y-143148000D01*
X124893000Y-143379750D01*
X119983032Y-143379750D01*
X120801987Y-142562224D01*
X121401057Y-141119504D01*
X121402390Y-139590608D01*
X124893000Y-139590608D01*
X124893000Y-142370250D01*
X125124750Y-142602000D01*
X128547000Y-142602000D01*
X128547000Y-139079750D01*
X129093000Y-139079750D01*
X129093000Y-142602000D01*
X132515250Y-142602000D01*
X132747000Y-142370250D01*
X132747000Y-139590608D01*
X132605873Y-139249897D01*
X132345104Y-138989127D01*
X132004392Y-138848000D01*
X129324750Y-138848000D01*
X129093000Y-139079750D01*
X128547000Y-139079750D01*
X128315250Y-138848000D01*
X125635608Y-138848000D01*
X125294896Y-138989127D01*
X125034127Y-139249897D01*
X124893000Y-139590608D01*
X121402390Y-139590608D01*
X121402420Y-139557350D01*
X120805869Y-138113587D01*
X119755522Y-137061404D01*
X126863416Y-137061404D01*
X127174386Y-137648729D01*
X127705705Y-138072394D01*
X128358710Y-138260483D01*
X128632000Y-138030251D01*
X128632000Y-136798000D01*
X129178000Y-136798000D01*
X129178000Y-138030251D01*
X129451290Y-138260483D01*
X130104295Y-138072394D01*
X130635614Y-137648729D01*
X130946584Y-137061404D01*
X130775117Y-136798000D01*
X129178000Y-136798000D01*
X128632000Y-136798000D01*
X127034883Y-136798000D01*
X126863416Y-137061404D01*
X119755522Y-137061404D01*
X119702224Y-137008013D01*
X118844850Y-136652000D01*
X123190000Y-136652000D01*
X123239410Y-136641994D01*
X123281035Y-136613553D01*
X123308315Y-136571159D01*
X123317000Y-136525000D01*
X123317000Y-135087000D01*
X127162528Y-135087000D01*
X127242157Y-135206173D01*
X127338406Y-135270484D01*
X127174386Y-135401271D01*
X126863416Y-135988596D01*
X127034883Y-136252000D01*
X128632000Y-136252000D01*
X128632000Y-136232000D01*
X129178000Y-136232000D01*
X129178000Y-136252000D01*
X130775117Y-136252000D01*
X130946584Y-135988596D01*
X130635614Y-135401271D01*
X130471594Y-135270484D01*
X130567843Y-135206173D01*
X130942210Y-134645894D01*
X131073670Y-133985000D01*
X130942210Y-133324106D01*
X130567843Y-132763827D01*
X130494768Y-132715000D01*
X130567843Y-132666173D01*
X130942210Y-132105894D01*
X131073670Y-131445000D01*
X130942210Y-130784106D01*
X130700976Y-130423075D01*
X130764033Y-130382499D01*
X130975696Y-130072721D01*
X131050161Y-129705000D01*
X131050161Y-128105000D01*
X130985522Y-127761474D01*
X130796033Y-127467000D01*
X131613000Y-127467000D01*
X131613000Y-135890000D01*
X131696885Y-136311717D01*
X131935768Y-136669232D01*
X135110768Y-139844232D01*
X135468283Y-140083115D01*
X135890000Y-140167000D01*
X136153536Y-140167000D01*
X136474839Y-140488303D01*
X136474839Y-145975000D01*
X136539478Y-146318526D01*
X136742501Y-146634033D01*
X137052279Y-146845696D01*
X137420000Y-146920161D01*
X143420000Y-146920161D01*
X143763526Y-146855522D01*
X144079033Y-146652499D01*
X144106705Y-146612000D01*
X148590000Y-146612000D01*
X149231760Y-146484346D01*
X149775818Y-146120818D01*
X150139346Y-145576760D01*
X150267000Y-144935000D01*
X150139346Y-144293240D01*
X149950412Y-144010481D01*
X150160696Y-143702721D01*
X150235161Y-143335000D01*
X150235161Y-141935000D01*
X150170522Y-141591474D01*
X150103205Y-141486861D01*
X150160696Y-141402721D01*
X150235161Y-141035000D01*
X150235161Y-139635000D01*
X150170522Y-139291474D01*
X149967499Y-138975967D01*
X149657721Y-138764304D01*
X149290000Y-138689839D01*
X147890000Y-138689839D01*
X147546474Y-138754478D01*
X147230967Y-138957501D01*
X147019304Y-139267279D01*
X146944839Y-139635000D01*
X146944839Y-141035000D01*
X147009478Y-141378526D01*
X147076795Y-141483139D01*
X147019304Y-141567279D01*
X146944839Y-141935000D01*
X146944839Y-143258000D01*
X144365161Y-143258000D01*
X144365161Y-139775000D01*
X144300522Y-139431474D01*
X144097499Y-139115967D01*
X143787721Y-138904304D01*
X143420000Y-138829839D01*
X137933303Y-138829839D01*
X137389232Y-138285768D01*
X137253351Y-138194976D01*
X137627564Y-138120540D01*
X138187843Y-137746173D01*
X138562210Y-137185894D01*
X138693670Y-136525000D01*
X138562210Y-135864106D01*
X138489606Y-135755446D01*
X160032562Y-135755446D01*
X160416464Y-136684561D01*
X161126700Y-137396037D01*
X162055143Y-137781561D01*
X163060446Y-137782438D01*
X163989561Y-137398536D01*
X164701037Y-136688300D01*
X165086561Y-135759857D01*
X165087438Y-134754554D01*
X164703536Y-133825439D01*
X163993300Y-133113963D01*
X163064857Y-132728439D01*
X162059554Y-132727562D01*
X161130439Y-133111464D01*
X160418963Y-133821700D01*
X160033439Y-134750143D01*
X160032562Y-135755446D01*
X138489606Y-135755446D01*
X138427167Y-135662000D01*
X139795000Y-135662000D01*
X140436760Y-135534346D01*
X140652548Y-135390161D01*
X141135000Y-135390161D01*
X141478526Y-135325522D01*
X141794033Y-135122499D01*
X141794374Y-135122000D01*
X142058796Y-135122000D01*
X142342279Y-135315696D01*
X142710000Y-135390161D01*
X144310000Y-135390161D01*
X144653526Y-135325522D01*
X144969033Y-135122499D01*
X145034285Y-135027000D01*
X147320000Y-135027000D01*
X147961760Y-134899346D01*
X148505818Y-134535818D01*
X149775818Y-133265818D01*
X150139346Y-132721760D01*
X150267000Y-132080000D01*
X150267000Y-129695000D01*
X150139346Y-129053240D01*
X149950412Y-128770481D01*
X150160696Y-128462721D01*
X150235161Y-128095000D01*
X150235161Y-126695000D01*
X150170522Y-126351474D01*
X150103205Y-126246861D01*
X150160696Y-126162721D01*
X150235161Y-125795000D01*
X150235161Y-124395000D01*
X150170522Y-124051474D01*
X149967499Y-123735967D01*
X149657721Y-123524304D01*
X149290000Y-123449839D01*
X147890000Y-123449839D01*
X147546474Y-123514478D01*
X147230967Y-123717501D01*
X147019304Y-124027279D01*
X146944839Y-124395000D01*
X146944839Y-125795000D01*
X147009478Y-126138526D01*
X147076795Y-126243139D01*
X147019304Y-126327279D01*
X146944839Y-126695000D01*
X146944839Y-128095000D01*
X147009478Y-128438526D01*
X147212501Y-128754033D01*
X147231777Y-128767204D01*
X147040654Y-129053240D01*
X146913000Y-129695000D01*
X146913000Y-131385364D01*
X146625364Y-131673000D01*
X144822167Y-131673000D01*
X144677721Y-131574304D01*
X144310000Y-131499839D01*
X142710000Y-131499839D01*
X142366474Y-131564478D01*
X142050967Y-131767501D01*
X142050626Y-131768000D01*
X141786204Y-131768000D01*
X141502721Y-131574304D01*
X141135000Y-131499839D01*
X139535000Y-131499839D01*
X139191474Y-131564478D01*
X138875967Y-131767501D01*
X138664304Y-132077279D01*
X138617582Y-132308000D01*
X138427167Y-132308000D01*
X138562210Y-132105894D01*
X138693670Y-131445000D01*
X138562210Y-130784106D01*
X138554121Y-130772000D01*
X138651368Y-130772000D01*
X138654478Y-130788526D01*
X138857501Y-131104033D01*
X139167279Y-131315696D01*
X139535000Y-131390161D01*
X141135000Y-131390161D01*
X141478526Y-131325522D01*
X141794033Y-131122499D01*
X141922962Y-130933805D01*
X142032501Y-131104033D01*
X142342279Y-131315696D01*
X142710000Y-131390161D01*
X144310000Y-131390161D01*
X144653526Y-131325522D01*
X144969033Y-131122499D01*
X145180696Y-130812721D01*
X145255161Y-130445000D01*
X145255161Y-128445000D01*
X145190522Y-128101474D01*
X144987499Y-127785967D01*
X144677721Y-127574304D01*
X144310000Y-127499839D01*
X142710000Y-127499839D01*
X142366474Y-127564478D01*
X142050967Y-127767501D01*
X141922038Y-127956195D01*
X141812499Y-127785967D01*
X141502721Y-127574304D01*
X141135000Y-127499839D01*
X139535000Y-127499839D01*
X139191474Y-127564478D01*
X138875967Y-127767501D01*
X138664304Y-128077279D01*
X138656058Y-128118000D01*
X138477949Y-128118000D01*
X138187843Y-127683827D01*
X137627564Y-127309460D01*
X136966670Y-127178000D01*
X136083330Y-127178000D01*
X135422436Y-127309460D01*
X134862157Y-127683827D01*
X134487790Y-128244106D01*
X134356330Y-128905000D01*
X134487790Y-129565894D01*
X134862157Y-130126173D01*
X134935232Y-130175000D01*
X134862157Y-130223827D01*
X134487790Y-130784106D01*
X134356330Y-131445000D01*
X134487790Y-132105894D01*
X134862157Y-132666173D01*
X134935232Y-132715000D01*
X134862157Y-132763827D01*
X134487790Y-133324106D01*
X134356330Y-133985000D01*
X134487790Y-134645894D01*
X134862157Y-135206173D01*
X134935232Y-135255000D01*
X134862157Y-135303827D01*
X134487790Y-135864106D01*
X134447935Y-136064471D01*
X133817000Y-135433536D01*
X133817000Y-127000005D01*
X133817001Y-127000000D01*
X133733115Y-126578283D01*
X133494232Y-126220768D01*
X133494229Y-126220766D01*
X132859232Y-125585768D01*
X132501717Y-125346885D01*
X132080000Y-125263000D01*
X126365000Y-125263000D01*
X125943283Y-125346885D01*
X125585768Y-125585768D01*
X125585766Y-125585771D01*
X123368536Y-127803000D01*
X123317000Y-127803000D01*
X123317000Y-124621463D01*
X123849231Y-124089232D01*
X123849234Y-124089230D01*
X124088117Y-123731715D01*
X124095469Y-123694750D01*
X124588000Y-123694750D01*
X124588000Y-124224392D01*
X124729127Y-124565103D01*
X124989896Y-124825873D01*
X125330608Y-124967000D01*
X125860250Y-124967000D01*
X126092000Y-124735250D01*
X126092000Y-123463000D01*
X126638000Y-123463000D01*
X126638000Y-124735250D01*
X126869750Y-124967000D01*
X127399392Y-124967000D01*
X127740104Y-124825873D01*
X128000873Y-124565103D01*
X128142000Y-124224392D01*
X128142000Y-123694750D01*
X127910250Y-123463000D01*
X126638000Y-123463000D01*
X126092000Y-123463000D01*
X124819750Y-123463000D01*
X124588000Y-123694750D01*
X124095469Y-123694750D01*
X124172002Y-123309998D01*
X124172002Y-122155608D01*
X124588000Y-122155608D01*
X124588000Y-122685250D01*
X124819750Y-122917000D01*
X126092000Y-122917000D01*
X126092000Y-121644750D01*
X126638000Y-121644750D01*
X126638000Y-122917000D01*
X127910250Y-122917000D01*
X128142000Y-122685250D01*
X128142000Y-122155608D01*
X128000873Y-121814897D01*
X127740104Y-121554127D01*
X127399392Y-121413000D01*
X126869750Y-121413000D01*
X126638000Y-121644750D01*
X126092000Y-121644750D01*
X125860250Y-121413000D01*
X125330608Y-121413000D01*
X124989896Y-121554127D01*
X124729127Y-121814897D01*
X124588000Y-122155608D01*
X124172002Y-122155608D01*
X124172002Y-117344750D01*
X124893000Y-117344750D01*
X124893000Y-120124392D01*
X125034127Y-120465103D01*
X125294896Y-120725873D01*
X125635608Y-120867000D01*
X128315250Y-120867000D01*
X128547000Y-120635250D01*
X128547000Y-117113000D01*
X129093000Y-117113000D01*
X129093000Y-120635250D01*
X129324750Y-120867000D01*
X132004392Y-120867000D01*
X132345104Y-120725873D01*
X132605873Y-120465103D01*
X132747000Y-120124392D01*
X132747000Y-117344750D01*
X132515250Y-117113000D01*
X129093000Y-117113000D01*
X128547000Y-117113000D01*
X125124750Y-117113000D01*
X124893000Y-117344750D01*
X124172002Y-117344750D01*
X124172002Y-113555608D01*
X124893000Y-113555608D01*
X124893000Y-116335250D01*
X125124750Y-116567000D01*
X128547000Y-116567000D01*
X128547000Y-113044750D01*
X129093000Y-113044750D01*
X129093000Y-116567000D01*
X132515250Y-116567000D01*
X132747000Y-116335250D01*
X132747000Y-113555608D01*
X132605873Y-113214897D01*
X132345104Y-112954127D01*
X132004392Y-112813000D01*
X129324750Y-112813000D01*
X129093000Y-113044750D01*
X128547000Y-113044750D01*
X128315250Y-112813000D01*
X125635608Y-112813000D01*
X125294896Y-112954127D01*
X125034127Y-113214897D01*
X124893000Y-113555608D01*
X124172002Y-113555608D01*
X124172002Y-111066462D01*
X124212059Y-111026404D01*
X126863416Y-111026404D01*
X127174386Y-111613729D01*
X127705705Y-112037394D01*
X128358710Y-112225483D01*
X128632000Y-111995251D01*
X128632000Y-110763000D01*
X129178000Y-110763000D01*
X129178000Y-111995251D01*
X129451290Y-112225483D01*
X130104295Y-112037394D01*
X130635614Y-111613729D01*
X130946584Y-111026404D01*
X130775117Y-110763000D01*
X129178000Y-110763000D01*
X128632000Y-110763000D01*
X127034883Y-110763000D01*
X126863416Y-111026404D01*
X124212059Y-111026404D01*
X126186463Y-109052000D01*
X127162528Y-109052000D01*
X127242157Y-109171173D01*
X127338406Y-109235484D01*
X127174386Y-109366271D01*
X126863416Y-109953596D01*
X127034883Y-110217000D01*
X128632000Y-110217000D01*
X128632000Y-110197000D01*
X129178000Y-110197000D01*
X129178000Y-110217000D01*
X130775117Y-110217000D01*
X130946584Y-109953596D01*
X130635614Y-109366271D01*
X130471594Y-109235484D01*
X130567843Y-109171173D01*
X130942210Y-108610894D01*
X131073670Y-107950000D01*
X130942210Y-107289106D01*
X130567843Y-106728827D01*
X130494768Y-106680000D01*
X130567843Y-106631173D01*
X130942210Y-106070894D01*
X131073670Y-105410000D01*
X130942210Y-104749106D01*
X130700976Y-104388075D01*
X130764033Y-104347499D01*
X130975696Y-104037721D01*
X131050161Y-103670000D01*
X131050161Y-102070000D01*
X130985522Y-101726474D01*
X130782499Y-101410967D01*
X130472721Y-101199304D01*
X130105000Y-101124839D01*
X127705000Y-101124839D01*
X127361474Y-101189478D01*
X127045967Y-101392501D01*
X126834304Y-101702279D01*
X126759839Y-102070000D01*
X126759839Y-103670000D01*
X126824478Y-104013526D01*
X127013967Y-104308000D01*
X126365000Y-104308000D01*
X125943283Y-104391885D01*
X125585768Y-104630768D01*
X125585766Y-104630771D01*
X123317000Y-106899536D01*
X123317000Y-103666464D01*
X126821463Y-100162000D01*
X129718536Y-100162000D01*
X131613000Y-102056463D01*
X131613000Y-111125000D01*
X131696885Y-111546717D01*
X131935768Y-111904232D01*
X133840768Y-113809232D01*
X134198283Y-114048115D01*
X134620000Y-114132001D01*
X134620005Y-114132000D01*
X136153536Y-114132000D01*
X136474839Y-114453303D01*
X136474839Y-119940000D01*
X136539478Y-120283526D01*
X136742501Y-120599033D01*
X137052279Y-120810696D01*
X137420000Y-120885161D01*
X143420000Y-120885161D01*
X143763526Y-120820522D01*
X144079033Y-120617499D01*
X144106705Y-120577000D01*
X148590000Y-120577000D01*
X149231760Y-120449346D01*
X149775818Y-120085818D01*
X150139346Y-119541760D01*
X150267000Y-118900000D01*
X150139346Y-118258240D01*
X149950412Y-117975481D01*
X150160696Y-117667721D01*
X150235161Y-117300000D01*
X150235161Y-115900000D01*
X150170522Y-115556474D01*
X150103205Y-115451861D01*
X150160696Y-115367721D01*
X150235161Y-115000000D01*
X150235161Y-113600000D01*
X150170522Y-113256474D01*
X149967499Y-112940967D01*
X149657721Y-112729304D01*
X149290000Y-112654839D01*
X147890000Y-112654839D01*
X147546474Y-112719478D01*
X147230967Y-112922501D01*
X147019304Y-113232279D01*
X146944839Y-113600000D01*
X146944839Y-115000000D01*
X147009478Y-115343526D01*
X147076795Y-115448139D01*
X147019304Y-115532279D01*
X146944839Y-115900000D01*
X146944839Y-117223000D01*
X144365161Y-117223000D01*
X144365161Y-113740000D01*
X144300522Y-113396474D01*
X144097499Y-113080967D01*
X143787721Y-112869304D01*
X143420000Y-112794839D01*
X137933303Y-112794839D01*
X137389232Y-112250768D01*
X137253351Y-112159976D01*
X137627564Y-112085540D01*
X138187843Y-111711173D01*
X138562210Y-111150894D01*
X138693670Y-110490000D01*
X138562210Y-109829106D01*
X138427167Y-109627000D01*
X138430000Y-109627000D01*
X139071760Y-109499346D01*
X139345101Y-109316706D01*
X139535000Y-109355161D01*
X141135000Y-109355161D01*
X141478526Y-109290522D01*
X141794033Y-109087499D01*
X141794374Y-109087000D01*
X142058796Y-109087000D01*
X142342279Y-109280696D01*
X142710000Y-109355161D01*
X144310000Y-109355161D01*
X144653526Y-109290522D01*
X144969033Y-109087499D01*
X145034285Y-108992000D01*
X146685000Y-108992000D01*
X147326760Y-108864346D01*
X147870818Y-108500818D01*
X149775818Y-106595818D01*
X150139346Y-106051760D01*
X150267000Y-105410000D01*
X150267000Y-103660000D01*
X150139346Y-103018240D01*
X149950412Y-102735481D01*
X150160696Y-102427721D01*
X150235161Y-102060000D01*
X150235161Y-100660000D01*
X150170522Y-100316474D01*
X150103205Y-100211861D01*
X150160696Y-100127721D01*
X150235161Y-99760000D01*
X150235161Y-98360000D01*
X150170522Y-98016474D01*
X149967499Y-97700967D01*
X149657721Y-97489304D01*
X149290000Y-97414839D01*
X147890000Y-97414839D01*
X147546474Y-97479478D01*
X147230967Y-97682501D01*
X147019304Y-97992279D01*
X146944839Y-98360000D01*
X146944839Y-99760000D01*
X147009478Y-100103526D01*
X147076795Y-100208139D01*
X147019304Y-100292279D01*
X146944839Y-100660000D01*
X146944839Y-102060000D01*
X147009478Y-102403526D01*
X147212501Y-102719033D01*
X147231777Y-102732204D01*
X147040654Y-103018240D01*
X146913000Y-103660000D01*
X146913000Y-104715364D01*
X145990364Y-105638000D01*
X144822167Y-105638000D01*
X144677721Y-105539304D01*
X144310000Y-105464839D01*
X142710000Y-105464839D01*
X142366474Y-105529478D01*
X142050967Y-105732501D01*
X142050626Y-105733000D01*
X141786204Y-105733000D01*
X141502721Y-105539304D01*
X141135000Y-105464839D01*
X139535000Y-105464839D01*
X139191474Y-105529478D01*
X138875967Y-105732501D01*
X138860782Y-105754725D01*
X138615391Y-105803536D01*
X138693670Y-105410000D01*
X138562210Y-104749106D01*
X138490374Y-104641596D01*
X138638979Y-104671156D01*
X138654478Y-104753526D01*
X138857501Y-105069033D01*
X139167279Y-105280696D01*
X139535000Y-105355161D01*
X141135000Y-105355161D01*
X141478526Y-105290522D01*
X141794033Y-105087499D01*
X141922962Y-104898805D01*
X142032501Y-105069033D01*
X142342279Y-105280696D01*
X142710000Y-105355161D01*
X144310000Y-105355161D01*
X144653526Y-105290522D01*
X144969033Y-105087499D01*
X145180696Y-104777721D01*
X145255161Y-104410000D01*
X145255161Y-102410000D01*
X145190522Y-102066474D01*
X144987499Y-101750967D01*
X144677721Y-101539304D01*
X144310000Y-101464839D01*
X142710000Y-101464839D01*
X142366474Y-101529478D01*
X142050967Y-101732501D01*
X141922038Y-101921195D01*
X141812499Y-101750967D01*
X141502721Y-101539304D01*
X141135000Y-101464839D01*
X139535000Y-101464839D01*
X139191474Y-101529478D01*
X138974940Y-101668814D01*
X138937821Y-101644012D01*
X138430000Y-101543000D01*
X138029462Y-101543000D01*
X137627564Y-101274460D01*
X136966670Y-101143000D01*
X136083330Y-101143000D01*
X135422436Y-101274460D01*
X134862157Y-101648827D01*
X134487790Y-102209106D01*
X134356330Y-102870000D01*
X134487790Y-103530894D01*
X134862157Y-104091173D01*
X134935232Y-104140000D01*
X134862157Y-104188827D01*
X134487790Y-104749106D01*
X134356330Y-105410000D01*
X134487790Y-106070894D01*
X134862157Y-106631173D01*
X134935232Y-106680000D01*
X134862157Y-106728827D01*
X134487790Y-107289106D01*
X134356330Y-107950000D01*
X134487790Y-108610894D01*
X134862157Y-109171173D01*
X134935232Y-109220000D01*
X134862157Y-109268827D01*
X134487790Y-109829106D01*
X134356330Y-110490000D01*
X134487790Y-111150894D01*
X134862157Y-111711173D01*
X135186661Y-111928000D01*
X135076464Y-111928000D01*
X133817000Y-110668536D01*
X133817000Y-101600000D01*
X133733115Y-101178283D01*
X133494232Y-100820768D01*
X133494229Y-100820766D01*
X130954232Y-98280768D01*
X130596717Y-98041885D01*
X130175000Y-97958000D01*
X126485463Y-97958000D01*
X128091463Y-96352000D01*
X135890000Y-96352000D01*
X136311717Y-96268115D01*
X136669232Y-96029232D01*
X137848303Y-94850161D01*
X143420000Y-94850161D01*
X143763526Y-94785522D01*
X144079033Y-94582499D01*
X144106705Y-94542000D01*
X148590000Y-94542000D01*
X149231760Y-94414346D01*
X149775818Y-94050818D01*
X150139346Y-93506760D01*
X150267000Y-92865000D01*
X150139346Y-92223240D01*
X149950412Y-91940481D01*
X150160696Y-91632721D01*
X150235161Y-91265000D01*
X150235161Y-89865000D01*
X150170522Y-89521474D01*
X150103205Y-89416861D01*
X150160696Y-89332721D01*
X150235161Y-88965000D01*
X150235161Y-87565000D01*
X150170522Y-87221474D01*
X149967499Y-86905967D01*
X149657721Y-86694304D01*
X149290000Y-86619839D01*
X147890000Y-86619839D01*
X147546474Y-86684478D01*
X147230967Y-86887501D01*
X147019304Y-87197279D01*
X146944839Y-87565000D01*
X146944839Y-88965000D01*
X147009478Y-89308526D01*
X147076795Y-89413139D01*
X147019304Y-89497279D01*
X146944839Y-89865000D01*
X146944839Y-91188000D01*
X144365161Y-91188000D01*
X144365161Y-87705000D01*
X144300522Y-87361474D01*
X144097499Y-87045967D01*
X143787721Y-86834304D01*
X143420000Y-86759839D01*
X137420000Y-86759839D01*
X137076474Y-86824478D01*
X136760967Y-87027501D01*
X136549304Y-87337279D01*
X136474839Y-87705000D01*
X136474839Y-93106697D01*
X135433536Y-94148000D01*
X132722724Y-94148000D01*
X132747000Y-94089392D01*
X132747000Y-91309750D01*
X132515250Y-91078000D01*
X129093000Y-91078000D01*
X129093000Y-91098000D01*
X128547000Y-91098000D01*
X128547000Y-91078000D01*
X125124750Y-91078000D01*
X124893000Y-91309750D01*
X124893000Y-94089392D01*
X125034127Y-94430103D01*
X125294896Y-94690873D01*
X125635608Y-94832000D01*
X126494537Y-94832000D01*
X123317000Y-98009536D01*
X123317000Y-87520608D01*
X124893000Y-87520608D01*
X124893000Y-90300250D01*
X125124750Y-90532000D01*
X128547000Y-90532000D01*
X128547000Y-87009750D01*
X129093000Y-87009750D01*
X129093000Y-90532000D01*
X132515250Y-90532000D01*
X132747000Y-90300250D01*
X132747000Y-87520608D01*
X132605873Y-87179897D01*
X132345104Y-86919127D01*
X132004392Y-86778000D01*
X129324750Y-86778000D01*
X129093000Y-87009750D01*
X128547000Y-87009750D01*
X128315250Y-86778000D01*
X125635608Y-86778000D01*
X125294896Y-86919127D01*
X125034127Y-87179897D01*
X124893000Y-87520608D01*
X123317000Y-87520608D01*
X123317000Y-84991404D01*
X126863416Y-84991404D01*
X127174386Y-85578729D01*
X127705705Y-86002394D01*
X128358710Y-86190483D01*
X128632000Y-85960251D01*
X128632000Y-84728000D01*
X129178000Y-84728000D01*
X129178000Y-85960251D01*
X129451290Y-86190483D01*
X130104295Y-86002394D01*
X130635614Y-85578729D01*
X130946584Y-84991404D01*
X130775117Y-84728000D01*
X129178000Y-84728000D01*
X128632000Y-84728000D01*
X127034883Y-84728000D01*
X126863416Y-84991404D01*
X123317000Y-84991404D01*
X123317000Y-83017000D01*
X127162528Y-83017000D01*
X127242157Y-83136173D01*
X127338406Y-83200484D01*
X127174386Y-83331271D01*
X126863416Y-83918596D01*
X127034883Y-84182000D01*
X128632000Y-84182000D01*
X128632000Y-84162000D01*
X129178000Y-84162000D01*
X129178000Y-84182000D01*
X130775117Y-84182000D01*
X130946584Y-83918596D01*
X130635614Y-83331271D01*
X130471594Y-83200484D01*
X130567843Y-83136173D01*
X130942210Y-82575894D01*
X131073670Y-81915000D01*
X130942210Y-81254106D01*
X130567843Y-80693827D01*
X130494768Y-80645000D01*
X130567843Y-80596173D01*
X130942210Y-80035894D01*
X131073670Y-79375000D01*
X130942210Y-78714106D01*
X130700976Y-78353075D01*
X130764033Y-78312499D01*
X130975696Y-78002721D01*
X131050161Y-77635000D01*
X131050161Y-76835000D01*
X134356330Y-76835000D01*
X134487790Y-77495894D01*
X134862157Y-78056173D01*
X134935232Y-78105000D01*
X134862157Y-78153827D01*
X134487790Y-78714106D01*
X134356330Y-79375000D01*
X134487790Y-80035894D01*
X134862157Y-80596173D01*
X134935232Y-80645000D01*
X134862157Y-80693827D01*
X134487790Y-81254106D01*
X134356330Y-81915000D01*
X134487790Y-82575894D01*
X134862157Y-83136173D01*
X134935232Y-83185000D01*
X134862157Y-83233827D01*
X134487790Y-83794106D01*
X134356330Y-84455000D01*
X134487790Y-85115894D01*
X134862157Y-85676173D01*
X135422436Y-86050540D01*
X136083330Y-86182000D01*
X136966670Y-86182000D01*
X137627564Y-86050540D01*
X138187843Y-85676173D01*
X138562210Y-85115894D01*
X138693670Y-84455000D01*
X138562210Y-83794106D01*
X138489606Y-83685446D01*
X160032562Y-83685446D01*
X160416464Y-84614561D01*
X161126700Y-85326037D01*
X162055143Y-85711561D01*
X163060446Y-85712438D01*
X163989561Y-85328536D01*
X164701037Y-84618300D01*
X165086561Y-83689857D01*
X165087438Y-82684554D01*
X164703536Y-81755439D01*
X163993300Y-81043963D01*
X163064857Y-80658439D01*
X162059554Y-80657562D01*
X161130439Y-81041464D01*
X160418963Y-81751700D01*
X160033439Y-82680143D01*
X160032562Y-83685446D01*
X138489606Y-83685446D01*
X138427167Y-83592000D01*
X139795000Y-83592000D01*
X140436760Y-83464346D01*
X140652548Y-83320161D01*
X141135000Y-83320161D01*
X141478526Y-83255522D01*
X141794033Y-83052499D01*
X141794374Y-83052000D01*
X142693796Y-83052000D01*
X142977279Y-83245696D01*
X143345000Y-83320161D01*
X144945000Y-83320161D01*
X145288526Y-83255522D01*
X145604033Y-83052499D01*
X145604374Y-83052000D01*
X146590000Y-83052000D01*
X147231760Y-82924346D01*
X147775818Y-82560818D01*
X149775818Y-80560818D01*
X150139346Y-80016760D01*
X150267000Y-79375000D01*
X150267000Y-77625000D01*
X150139346Y-76983240D01*
X149950412Y-76700481D01*
X150160696Y-76392721D01*
X150235161Y-76025000D01*
X150235161Y-74625000D01*
X150170522Y-74281474D01*
X150103205Y-74176861D01*
X150160696Y-74092721D01*
X150235161Y-73725000D01*
X150235161Y-72325000D01*
X150170522Y-71981474D01*
X149967499Y-71665967D01*
X149657721Y-71454304D01*
X149290000Y-71379839D01*
X147890000Y-71379839D01*
X147546474Y-71444478D01*
X147230967Y-71647501D01*
X147019304Y-71957279D01*
X146944839Y-72325000D01*
X146944839Y-73725000D01*
X147009478Y-74068526D01*
X147076795Y-74173139D01*
X147019304Y-74257279D01*
X146944839Y-74625000D01*
X146944839Y-76025000D01*
X147009478Y-76368526D01*
X147212501Y-76684033D01*
X147231777Y-76697204D01*
X147040654Y-76983240D01*
X146913000Y-77625000D01*
X146913000Y-78680364D01*
X145895364Y-79698000D01*
X145596204Y-79698000D01*
X145312721Y-79504304D01*
X144945000Y-79429839D01*
X143345000Y-79429839D01*
X143001474Y-79494478D01*
X142685967Y-79697501D01*
X142685626Y-79698000D01*
X141786204Y-79698000D01*
X141502721Y-79504304D01*
X141135000Y-79429839D01*
X139535000Y-79429839D01*
X139191474Y-79494478D01*
X138875967Y-79697501D01*
X138664304Y-80007279D01*
X138617582Y-80238000D01*
X138427167Y-80238000D01*
X138562210Y-80035894D01*
X138693670Y-79375000D01*
X138562210Y-78714106D01*
X138554121Y-78702000D01*
X138651368Y-78702000D01*
X138654478Y-78718526D01*
X138857501Y-79034033D01*
X139167279Y-79245696D01*
X139535000Y-79320161D01*
X141135000Y-79320161D01*
X141478526Y-79255522D01*
X141794033Y-79052499D01*
X142005696Y-78742721D01*
X142013942Y-78702000D01*
X142461368Y-78702000D01*
X142464478Y-78718526D01*
X142667501Y-79034033D01*
X142977279Y-79245696D01*
X143345000Y-79320161D01*
X144945000Y-79320161D01*
X145288526Y-79255522D01*
X145604033Y-79052499D01*
X145815696Y-78742721D01*
X145890161Y-78375000D01*
X145890161Y-76375000D01*
X145825522Y-76031474D01*
X145622499Y-75715967D01*
X145312721Y-75504304D01*
X144945000Y-75429839D01*
X143345000Y-75429839D01*
X143001474Y-75494478D01*
X142685967Y-75697501D01*
X142474304Y-76007279D01*
X142466058Y-76048000D01*
X142018632Y-76048000D01*
X142015522Y-76031474D01*
X141812499Y-75715967D01*
X141502721Y-75504304D01*
X141135000Y-75429839D01*
X139535000Y-75429839D01*
X139191474Y-75494478D01*
X138875967Y-75697501D01*
X138737222Y-75900560D01*
X138733331Y-75896669D01*
X138302821Y-75609012D01*
X138128846Y-75574406D01*
X137627564Y-75239460D01*
X136966670Y-75108000D01*
X136083330Y-75108000D01*
X135422436Y-75239460D01*
X134862157Y-75613827D01*
X134487790Y-76174106D01*
X134356330Y-76835000D01*
X131050161Y-76835000D01*
X131050161Y-76035000D01*
X130985522Y-75691474D01*
X130782499Y-75375967D01*
X130472721Y-75164304D01*
X130105000Y-75089839D01*
X127705000Y-75089839D01*
X127361474Y-75154478D01*
X127045967Y-75357501D01*
X126834304Y-75667279D01*
X126759839Y-76035000D01*
X126759839Y-77635000D01*
X126824478Y-77978526D01*
X127013967Y-78273000D01*
X123317000Y-78273000D01*
X123317000Y-70217000D01*
X164366311Y-70217000D01*
X165046055Y-70352209D01*
G36*
X68192916Y-91696770D02*
X68800665Y-91949129D01*
X72880766Y-96029229D01*
X72880768Y-96029232D01*
X73238283Y-96268115D01*
X73660000Y-96352000D01*
X90348536Y-96352000D01*
X101133000Y-107136464D01*
X101133000Y-108747528D01*
X101013827Y-108827157D01*
X100639460Y-109387436D01*
X100508000Y-110048330D01*
X100508000Y-110931670D01*
X100639460Y-111592564D01*
X101013827Y-112152843D01*
X101038000Y-112168995D01*
X101038000Y-112524032D01*
X100796474Y-112569478D01*
X100480967Y-112772501D01*
X100269304Y-113082279D01*
X100194839Y-113450000D01*
X100194839Y-115150000D01*
X100259478Y-115493526D01*
X100462501Y-115809033D01*
X100772279Y-116020696D01*
X101038000Y-116074506D01*
X101038000Y-116384032D01*
X100796474Y-116429478D01*
X100480967Y-116632501D01*
X100269304Y-116942279D01*
X100194839Y-117310000D01*
X100194839Y-118910000D01*
X100259478Y-119253526D01*
X100462501Y-119569033D01*
X100772279Y-119780696D01*
X101140000Y-119855161D01*
X103140000Y-119855161D01*
X103483526Y-119790522D01*
X103799033Y-119587499D01*
X104010696Y-119277721D01*
X104085161Y-118910000D01*
X104085161Y-118614750D01*
X104213000Y-118614750D01*
X104213000Y-119094392D01*
X104354127Y-119435103D01*
X104614896Y-119695873D01*
X104955608Y-119837000D01*
X105635250Y-119837000D01*
X105867000Y-119605250D01*
X105867000Y-118383000D01*
X106413000Y-118383000D01*
X106413000Y-119605250D01*
X106644750Y-119837000D01*
X107324392Y-119837000D01*
X107665104Y-119695873D01*
X107925873Y-119435103D01*
X108067000Y-119094392D01*
X108067000Y-118614750D01*
X107835250Y-118383000D01*
X106413000Y-118383000D01*
X105867000Y-118383000D01*
X104444750Y-118383000D01*
X104213000Y-118614750D01*
X104085161Y-118614750D01*
X104085161Y-118290608D01*
X108078000Y-118290608D01*
X108078000Y-118970250D01*
X108309750Y-119202000D01*
X109582000Y-119202000D01*
X109582000Y-117779750D01*
X110128000Y-117779750D01*
X110128000Y-119202000D01*
X111400250Y-119202000D01*
X111632000Y-118970250D01*
X111632000Y-118290608D01*
X111490873Y-117949896D01*
X111230103Y-117689127D01*
X110889392Y-117548000D01*
X110359750Y-117548000D01*
X110128000Y-117779750D01*
X109582000Y-117779750D01*
X109350250Y-117548000D01*
X108820608Y-117548000D01*
X108479897Y-117689127D01*
X108219127Y-117949896D01*
X108078000Y-118290608D01*
X104085161Y-118290608D01*
X104085161Y-117310000D01*
X104050466Y-117125608D01*
X104213000Y-117125608D01*
X104213000Y-117605250D01*
X104444750Y-117837000D01*
X105867000Y-117837000D01*
X105867000Y-116614750D01*
X106413000Y-116614750D01*
X106413000Y-117837000D01*
X107835250Y-117837000D01*
X108067000Y-117605250D01*
X108067000Y-117125608D01*
X107925873Y-116784897D01*
X107665104Y-116524127D01*
X107324392Y-116383000D01*
X106644750Y-116383000D01*
X106413000Y-116614750D01*
X105867000Y-116614750D01*
X105635250Y-116383000D01*
X104955608Y-116383000D01*
X104614896Y-116524127D01*
X104354127Y-116784897D01*
X104213000Y-117125608D01*
X104050466Y-117125608D01*
X104020522Y-116966474D01*
X103817499Y-116650967D01*
X103507721Y-116439304D01*
X103242000Y-116385494D01*
X103242000Y-116075968D01*
X103483526Y-116030522D01*
X103799033Y-115827499D01*
X104010696Y-115517721D01*
X104085161Y-115150000D01*
X104085161Y-113803625D01*
X104194839Y-113913303D01*
X104194839Y-115150000D01*
X104259478Y-115493526D01*
X104462501Y-115809033D01*
X104772279Y-116020696D01*
X105140000Y-116095161D01*
X107140000Y-116095161D01*
X107483526Y-116030522D01*
X107485675Y-116029139D01*
X107710768Y-116254232D01*
X108062523Y-116489267D01*
X108124478Y-116818526D01*
X108327501Y-117134033D01*
X108637279Y-117345696D01*
X109005000Y-117420161D01*
X110705000Y-117420161D01*
X111048526Y-117355522D01*
X111364033Y-117152499D01*
X111575696Y-116842721D01*
X111602623Y-116709750D01*
X115698000Y-116709750D01*
X115698000Y-117239392D01*
X115839127Y-117580103D01*
X116099896Y-117840873D01*
X116440608Y-117982000D01*
X116970250Y-117982000D01*
X117202000Y-117750250D01*
X117202000Y-116478000D01*
X115929750Y-116478000D01*
X115698000Y-116709750D01*
X111602623Y-116709750D01*
X111650161Y-116475000D01*
X111650161Y-115170608D01*
X115698000Y-115170608D01*
X115698000Y-115700250D01*
X115929750Y-115932000D01*
X117202000Y-115932000D01*
X117202000Y-114659750D01*
X117748000Y-114659750D01*
X117748000Y-115932000D01*
X119020250Y-115932000D01*
X119252000Y-115700250D01*
X119252000Y-115170608D01*
X119110873Y-114829897D01*
X118850104Y-114569127D01*
X118509392Y-114428000D01*
X117979750Y-114428000D01*
X117748000Y-114659750D01*
X117202000Y-114659750D01*
X116970250Y-114428000D01*
X116440608Y-114428000D01*
X116099896Y-114569127D01*
X115839127Y-114829897D01*
X115698000Y-115170608D01*
X111650161Y-115170608D01*
X111650161Y-114475000D01*
X111585522Y-114131474D01*
X111382499Y-113815967D01*
X111072721Y-113604304D01*
X110705000Y-113529839D01*
X109005000Y-113529839D01*
X108661474Y-113594478D01*
X108361177Y-113787713D01*
X108094232Y-113520768D01*
X108085161Y-113514707D01*
X108085161Y-113450000D01*
X108020522Y-113106474D01*
X107817499Y-112790967D01*
X107554232Y-112611084D01*
X107975894Y-112527210D01*
X108536173Y-112152843D01*
X108600484Y-112056594D01*
X108731271Y-112220614D01*
X109318596Y-112531584D01*
X109582000Y-112360117D01*
X109582000Y-110763000D01*
X109562000Y-110763000D01*
X109562000Y-110217000D01*
X109582000Y-110217000D01*
X109582000Y-110197000D01*
X110128000Y-110197000D01*
X110128000Y-110217000D01*
X110148000Y-110217000D01*
X110148000Y-110763000D01*
X110128000Y-110763000D01*
X110128000Y-112360117D01*
X110391404Y-112531584D01*
X110978729Y-112220614D01*
X111109516Y-112056594D01*
X111173827Y-112152843D01*
X111734106Y-112527210D01*
X112395000Y-112658670D01*
X113055894Y-112527210D01*
X113616173Y-112152843D01*
X113665000Y-112079768D01*
X113713827Y-112152843D01*
X114274106Y-112527210D01*
X114935000Y-112658670D01*
X115595894Y-112527210D01*
X116156173Y-112152843D01*
X116205000Y-112079768D01*
X116253827Y-112152843D01*
X116814106Y-112527210D01*
X117475000Y-112658670D01*
X118135894Y-112527210D01*
X118696173Y-112152843D01*
X119070540Y-111592564D01*
X119202000Y-110931670D01*
X119202000Y-110048330D01*
X119070540Y-109387436D01*
X118846409Y-109052000D01*
X119548000Y-109052000D01*
X119548000Y-117018536D01*
X119198865Y-117367671D01*
X119252000Y-117239392D01*
X119252000Y-116709750D01*
X119020250Y-116478000D01*
X117748000Y-116478000D01*
X117748000Y-117750250D01*
X117979750Y-117982000D01*
X118509392Y-117982000D01*
X118637670Y-117928866D01*
X116695768Y-119870768D01*
X116456885Y-120228283D01*
X116373000Y-120650000D01*
X116373000Y-121394839D01*
X114475000Y-121394839D01*
X114131474Y-121459478D01*
X113815967Y-121662501D01*
X113604304Y-121972279D01*
X113580870Y-122088000D01*
X95706463Y-122088000D01*
X93598214Y-119979750D01*
X108078000Y-119979750D01*
X108078000Y-120659392D01*
X108219127Y-121000104D01*
X108479897Y-121260873D01*
X108820608Y-121402000D01*
X109350250Y-121402000D01*
X109582000Y-121170250D01*
X109582000Y-119748000D01*
X110128000Y-119748000D01*
X110128000Y-121170250D01*
X110359750Y-121402000D01*
X110889392Y-121402000D01*
X111230103Y-121260873D01*
X111490873Y-121000104D01*
X111632000Y-120659392D01*
X111632000Y-119979750D01*
X111400250Y-119748000D01*
X110128000Y-119748000D01*
X109582000Y-119748000D01*
X108309750Y-119748000D01*
X108078000Y-119979750D01*
X93598214Y-119979750D01*
X80477000Y-106858536D01*
X80477000Y-106856113D01*
X80644993Y-106688413D01*
X80892916Y-106936770D01*
X81554988Y-107211686D01*
X82271867Y-107212312D01*
X82934417Y-106938552D01*
X83184993Y-106688413D01*
X83432916Y-106936770D01*
X84094988Y-107211686D01*
X84811867Y-107212312D01*
X85474417Y-106938552D01*
X85724993Y-106688413D01*
X85893000Y-106856714D01*
X85893000Y-108460405D01*
X85738471Y-108563658D01*
X85353266Y-109140159D01*
X85218000Y-109820187D01*
X85218000Y-109889813D01*
X85353266Y-110569841D01*
X85738471Y-111146342D01*
X86314972Y-111531547D01*
X86995000Y-111666813D01*
X87675028Y-111531547D01*
X87982914Y-111325824D01*
X88007501Y-111364033D01*
X88317279Y-111575696D01*
X88685000Y-111650161D01*
X90385000Y-111650161D01*
X90728526Y-111585522D01*
X90802239Y-111538089D01*
X90857279Y-111575696D01*
X91225000Y-111650161D01*
X92925000Y-111650161D01*
X93268526Y-111585522D01*
X93342239Y-111538089D01*
X93397279Y-111575696D01*
X93765000Y-111650161D01*
X95465000Y-111650161D01*
X95808526Y-111585522D01*
X96124033Y-111382499D01*
X96335696Y-111072721D01*
X96410161Y-110705000D01*
X96410161Y-109005000D01*
X96345522Y-108661474D01*
X96142499Y-108345967D01*
X95832721Y-108134304D01*
X95717000Y-108110870D01*
X95717000Y-106856113D01*
X96141770Y-106432084D01*
X96416686Y-105770012D01*
X96417312Y-105053133D01*
X96143552Y-104390583D01*
X95637084Y-103883230D01*
X94975012Y-103608314D01*
X94258133Y-103607688D01*
X93595583Y-103881448D01*
X93345007Y-104131587D01*
X93097084Y-103883230D01*
X92435012Y-103608314D01*
X91718133Y-103607688D01*
X91055583Y-103881448D01*
X90805007Y-104131587D01*
X90557084Y-103883230D01*
X89895012Y-103608314D01*
X89178133Y-103607688D01*
X88515583Y-103881448D01*
X88265007Y-104131587D01*
X88017084Y-103883230D01*
X87355012Y-103608314D01*
X86638133Y-103607688D01*
X85975583Y-103881448D01*
X85725007Y-104131587D01*
X85557000Y-103963286D01*
X85557000Y-102994595D01*
X85711529Y-102891342D01*
X86096734Y-102314841D01*
X86232000Y-101634813D01*
X86232000Y-101565187D01*
X86096734Y-100885159D01*
X85711529Y-100308658D01*
X85135028Y-99923453D01*
X84455000Y-99788187D01*
X83774972Y-99923453D01*
X83467086Y-100129176D01*
X83442499Y-100090967D01*
X83132721Y-99879304D01*
X82765000Y-99804839D01*
X81065000Y-99804839D01*
X80721474Y-99869478D01*
X80405967Y-100072501D01*
X80194304Y-100382279D01*
X80119839Y-100750000D01*
X80119839Y-102450000D01*
X80184478Y-102793526D01*
X80387501Y-103109033D01*
X80697279Y-103320696D01*
X80813000Y-103344130D01*
X80813000Y-103963887D01*
X80645007Y-104131587D01*
X80397084Y-103883230D01*
X79735012Y-103608314D01*
X79018133Y-103607688D01*
X78355583Y-103881448D01*
X78105007Y-104131587D01*
X77857084Y-103883230D01*
X77195012Y-103608314D01*
X76478133Y-103607688D01*
X75815583Y-103881448D01*
X75565007Y-104131587D01*
X75317084Y-103883230D01*
X74655012Y-103608314D01*
X73938133Y-103607688D01*
X73275583Y-103881448D01*
X73025007Y-104131587D01*
X72777084Y-103883230D01*
X72115012Y-103608314D01*
X71398133Y-103607688D01*
X70735583Y-103881448D01*
X70485007Y-104131587D01*
X70237084Y-103883230D01*
X69575012Y-103608314D01*
X68858133Y-103607688D01*
X68195583Y-103881448D01*
X67945007Y-104131587D01*
X67697084Y-103883230D01*
X67035012Y-103608314D01*
X66318133Y-103607688D01*
X65655583Y-103881448D01*
X65405007Y-104131587D01*
X65157084Y-103883230D01*
X64495012Y-103608314D01*
X63778133Y-103607688D01*
X63115583Y-103881448D01*
X62888228Y-104108407D01*
X62699369Y-103919548D01*
X62520724Y-104098193D01*
X62442090Y-103779625D01*
X61753691Y-103579563D01*
X61041133Y-103658168D01*
X60747910Y-103779625D01*
X60669275Y-104098195D01*
X61595000Y-105023920D01*
X61609143Y-105009778D01*
X61995223Y-105395858D01*
X61981080Y-105410000D01*
X61995223Y-105424143D01*
X61609143Y-105810223D01*
X61595000Y-105796080D01*
X60669275Y-106721805D01*
X60747910Y-107040375D01*
X61436309Y-107240437D01*
X62148867Y-107161832D01*
X62442090Y-107040375D01*
X62520724Y-106721807D01*
X62699369Y-106900452D01*
X62888180Y-106711641D01*
X63112916Y-106936770D01*
X63774988Y-107211686D01*
X64491867Y-107212312D01*
X65154417Y-106938552D01*
X65404993Y-106688413D01*
X65652916Y-106936770D01*
X66314988Y-107211686D01*
X67031867Y-107212312D01*
X67694417Y-106938552D01*
X67944993Y-106688413D01*
X68192916Y-106936770D01*
X68854988Y-107211686D01*
X69571867Y-107212312D01*
X70234417Y-106938552D01*
X70484993Y-106688413D01*
X70696898Y-106900689D01*
X70736885Y-107101717D01*
X70975768Y-107459232D01*
X92565768Y-129049232D01*
X92923283Y-129288115D01*
X93345000Y-129372001D01*
X93345005Y-129372000D01*
X95162256Y-129372000D01*
X95179478Y-129463526D01*
X95192009Y-129483000D01*
X64684661Y-129483000D01*
X62922000Y-127720338D01*
X62922000Y-127456808D01*
X63154033Y-127307499D01*
X63365696Y-126997721D01*
X63440161Y-126630000D01*
X63440161Y-124830000D01*
X63375522Y-124486474D01*
X63172499Y-124170967D01*
X63120140Y-124135192D01*
X63336557Y-123742239D01*
X63169755Y-123463000D01*
X61868000Y-123463000D01*
X61868000Y-123483000D01*
X61322000Y-123483000D01*
X61322000Y-123463000D01*
X60020245Y-123463000D01*
X59853443Y-123742239D01*
X60068030Y-124131869D01*
X60035967Y-124152501D01*
X59824304Y-124462279D01*
X59749839Y-124830000D01*
X59749839Y-126630000D01*
X59814478Y-126973526D01*
X60017501Y-127289033D01*
X60268000Y-127460192D01*
X60268000Y-128270000D01*
X60369012Y-128777821D01*
X60656669Y-129208331D01*
X63196667Y-131748328D01*
X63196669Y-131748331D01*
X63627179Y-132035988D01*
X64135000Y-132137000D01*
X106130338Y-132137000D01*
X109121339Y-135128000D01*
X107706137Y-135128000D01*
X106938698Y-134615214D01*
X106577497Y-134465599D01*
X105605480Y-134272253D01*
X105506791Y-134272253D01*
X105410000Y-134253000D01*
X59153690Y-134253000D01*
X58473945Y-134117790D01*
X57981351Y-133788650D01*
X57652209Y-133296055D01*
X57517000Y-132616311D01*
X57517000Y-123137554D01*
X75578000Y-123137554D01*
X75578000Y-123242446D01*
X75781774Y-124266890D01*
X76362075Y-125135371D01*
X77230556Y-125715672D01*
X78255000Y-125919446D01*
X79279444Y-125715672D01*
X80147925Y-125135371D01*
X80728226Y-124266890D01*
X80932000Y-123242446D01*
X80932000Y-123137554D01*
X80728226Y-122113110D01*
X80147925Y-121244629D01*
X79279444Y-120664328D01*
X78255000Y-120460554D01*
X77230556Y-120664328D01*
X76362075Y-121244629D01*
X75781774Y-122113110D01*
X75578000Y-123137554D01*
X57517000Y-123137554D01*
X57517000Y-114258999D01*
X57640768Y-114444232D01*
X60493000Y-117296464D01*
X60493000Y-119195446D01*
X60303116Y-119322323D01*
X59907072Y-119915044D01*
X59768000Y-120614207D01*
X59768000Y-120685793D01*
X59907072Y-121384956D01*
X60281800Y-121945776D01*
X60197344Y-122013333D01*
X59853443Y-122637761D01*
X60020245Y-122917000D01*
X61322000Y-122917000D01*
X61322000Y-122897000D01*
X61868000Y-122897000D01*
X61868000Y-122917000D01*
X63169755Y-122917000D01*
X63336557Y-122637761D01*
X62992656Y-122013333D01*
X62908200Y-121945776D01*
X63282928Y-121384956D01*
X63422000Y-120685793D01*
X63422000Y-120614207D01*
X63282928Y-119915044D01*
X62886884Y-119322323D01*
X62697000Y-119195446D01*
X62697000Y-116840000D01*
X62613115Y-116418283D01*
X62374232Y-116060768D01*
X60605910Y-114292446D01*
X68846562Y-114292446D01*
X69230464Y-115221561D01*
X69940700Y-115933037D01*
X70869143Y-116318561D01*
X71874446Y-116319438D01*
X72803561Y-115935536D01*
X73515037Y-115225300D01*
X73900561Y-114296857D01*
X73901438Y-113291554D01*
X73517536Y-112362439D01*
X72807300Y-111650963D01*
X71878857Y-111265439D01*
X70873554Y-111264562D01*
X69944439Y-111648464D01*
X69232963Y-112358700D01*
X68847439Y-113287143D01*
X68846562Y-114292446D01*
X60605910Y-114292446D01*
X59522000Y-113208536D01*
X59522000Y-105251309D01*
X59764563Y-105251309D01*
X59843168Y-105963867D01*
X59964625Y-106257090D01*
X60283195Y-106335725D01*
X61208920Y-105410000D01*
X60283195Y-104484275D01*
X59964625Y-104562910D01*
X59764563Y-105251309D01*
X59522000Y-105251309D01*
X59522000Y-101564750D01*
X59868000Y-101564750D01*
X59868000Y-102244392D01*
X60009127Y-102585104D01*
X60269897Y-102845873D01*
X60610608Y-102987000D01*
X61090250Y-102987000D01*
X61322000Y-102755250D01*
X61322000Y-101333000D01*
X61868000Y-101333000D01*
X61868000Y-102755250D01*
X62099750Y-102987000D01*
X62579392Y-102987000D01*
X62920103Y-102845873D01*
X63180873Y-102585104D01*
X63322000Y-102244392D01*
X63322000Y-101564750D01*
X63090250Y-101333000D01*
X61868000Y-101333000D01*
X61322000Y-101333000D01*
X60099750Y-101333000D01*
X59868000Y-101564750D01*
X59522000Y-101564750D01*
X59522000Y-99875608D01*
X59868000Y-99875608D01*
X59868000Y-100555250D01*
X60099750Y-100787000D01*
X61322000Y-100787000D01*
X61322000Y-99364750D01*
X61868000Y-99364750D01*
X61868000Y-100787000D01*
X63090250Y-100787000D01*
X63322000Y-100555250D01*
X63322000Y-99875608D01*
X63180873Y-99534896D01*
X62920103Y-99274127D01*
X62579392Y-99133000D01*
X62099750Y-99133000D01*
X61868000Y-99364750D01*
X61322000Y-99364750D01*
X61090250Y-99133000D01*
X60610608Y-99133000D01*
X60269897Y-99274127D01*
X60009127Y-99534896D01*
X59868000Y-99875608D01*
X59522000Y-99875608D01*
X59522000Y-98881464D01*
X59947938Y-98455525D01*
X60117501Y-98719033D01*
X60427279Y-98930696D01*
X60795000Y-99005161D01*
X62395000Y-99005161D01*
X62738526Y-98940522D01*
X63054033Y-98737499D01*
X63265696Y-98427721D01*
X63340161Y-98060000D01*
X63340161Y-96060000D01*
X63275522Y-95716474D01*
X63072499Y-95400967D01*
X62762721Y-95189304D01*
X62697000Y-95175995D01*
X62697000Y-91616113D01*
X62841772Y-91471593D01*
X63030631Y-91660452D01*
X63209276Y-91481807D01*
X63287910Y-91800375D01*
X63976309Y-92000437D01*
X64688867Y-91921832D01*
X64982090Y-91800375D01*
X65060724Y-91481807D01*
X65239369Y-91660452D01*
X65428180Y-91471641D01*
X65652916Y-91696770D01*
X66314988Y-91971686D01*
X67031867Y-91972312D01*
X67694417Y-91698552D01*
X67944993Y-91448413D01*
X68192916Y-91696770D01*
X68192916Y-91696770D01*
G37*
X68192916Y-91696770D02*
X68800665Y-91949129D01*
X72880766Y-96029229D01*
X72880768Y-96029232D01*
X73238283Y-96268115D01*
X73660000Y-96352000D01*
X90348536Y-96352000D01*
X101133000Y-107136464D01*
X101133000Y-108747528D01*
X101013827Y-108827157D01*
X100639460Y-109387436D01*
X100508000Y-110048330D01*
X100508000Y-110931670D01*
X100639460Y-111592564D01*
X101013827Y-112152843D01*
X101038000Y-112168995D01*
X101038000Y-112524032D01*
X100796474Y-112569478D01*
X100480967Y-112772501D01*
X100269304Y-113082279D01*
X100194839Y-113450000D01*
X100194839Y-115150000D01*
X100259478Y-115493526D01*
X100462501Y-115809033D01*
X100772279Y-116020696D01*
X101038000Y-116074506D01*
X101038000Y-116384032D01*
X100796474Y-116429478D01*
X100480967Y-116632501D01*
X100269304Y-116942279D01*
X100194839Y-117310000D01*
X100194839Y-118910000D01*
X100259478Y-119253526D01*
X100462501Y-119569033D01*
X100772279Y-119780696D01*
X101140000Y-119855161D01*
X103140000Y-119855161D01*
X103483526Y-119790522D01*
X103799033Y-119587499D01*
X104010696Y-119277721D01*
X104085161Y-118910000D01*
X104085161Y-118614750D01*
X104213000Y-118614750D01*
X104213000Y-119094392D01*
X104354127Y-119435103D01*
X104614896Y-119695873D01*
X104955608Y-119837000D01*
X105635250Y-119837000D01*
X105867000Y-119605250D01*
X105867000Y-118383000D01*
X106413000Y-118383000D01*
X106413000Y-119605250D01*
X106644750Y-119837000D01*
X107324392Y-119837000D01*
X107665104Y-119695873D01*
X107925873Y-119435103D01*
X108067000Y-119094392D01*
X108067000Y-118614750D01*
X107835250Y-118383000D01*
X106413000Y-118383000D01*
X105867000Y-118383000D01*
X104444750Y-118383000D01*
X104213000Y-118614750D01*
X104085161Y-118614750D01*
X104085161Y-118290608D01*
X108078000Y-118290608D01*
X108078000Y-118970250D01*
X108309750Y-119202000D01*
X109582000Y-119202000D01*
X109582000Y-117779750D01*
X110128000Y-117779750D01*
X110128000Y-119202000D01*
X111400250Y-119202000D01*
X111632000Y-118970250D01*
X111632000Y-118290608D01*
X111490873Y-117949896D01*
X111230103Y-117689127D01*
X110889392Y-117548000D01*
X110359750Y-117548000D01*
X110128000Y-117779750D01*
X109582000Y-117779750D01*
X109350250Y-117548000D01*
X108820608Y-117548000D01*
X108479897Y-117689127D01*
X108219127Y-117949896D01*
X108078000Y-118290608D01*
X104085161Y-118290608D01*
X104085161Y-117310000D01*
X104050466Y-117125608D01*
X104213000Y-117125608D01*
X104213000Y-117605250D01*
X104444750Y-117837000D01*
X105867000Y-117837000D01*
X105867000Y-116614750D01*
X106413000Y-116614750D01*
X106413000Y-117837000D01*
X107835250Y-117837000D01*
X108067000Y-117605250D01*
X108067000Y-117125608D01*
X107925873Y-116784897D01*
X107665104Y-116524127D01*
X107324392Y-116383000D01*
X106644750Y-116383000D01*
X106413000Y-116614750D01*
X105867000Y-116614750D01*
X105635250Y-116383000D01*
X104955608Y-116383000D01*
X104614896Y-116524127D01*
X104354127Y-116784897D01*
X104213000Y-117125608D01*
X104050466Y-117125608D01*
X104020522Y-116966474D01*
X103817499Y-116650967D01*
X103507721Y-116439304D01*
X103242000Y-116385494D01*
X103242000Y-116075968D01*
X103483526Y-116030522D01*
X103799033Y-115827499D01*
X104010696Y-115517721D01*
X104085161Y-115150000D01*
X104085161Y-113803625D01*
X104194839Y-113913303D01*
X104194839Y-115150000D01*
X104259478Y-115493526D01*
X104462501Y-115809033D01*
X104772279Y-116020696D01*
X105140000Y-116095161D01*
X107140000Y-116095161D01*
X107483526Y-116030522D01*
X107485675Y-116029139D01*
X107710768Y-116254232D01*
X108062523Y-116489267D01*
X108124478Y-116818526D01*
X108327501Y-117134033D01*
X108637279Y-117345696D01*
X109005000Y-117420161D01*
X110705000Y-117420161D01*
X111048526Y-117355522D01*
X111364033Y-117152499D01*
X111575696Y-116842721D01*
X111602623Y-116709750D01*
X115698000Y-116709750D01*
X115698000Y-117239392D01*
X115839127Y-117580103D01*
X116099896Y-117840873D01*
X116440608Y-117982000D01*
X116970250Y-117982000D01*
X117202000Y-117750250D01*
X117202000Y-116478000D01*
X115929750Y-116478000D01*
X115698000Y-116709750D01*
X111602623Y-116709750D01*
X111650161Y-116475000D01*
X111650161Y-115170608D01*
X115698000Y-115170608D01*
X115698000Y-115700250D01*
X115929750Y-115932000D01*
X117202000Y-115932000D01*
X117202000Y-114659750D01*
X117748000Y-114659750D01*
X117748000Y-115932000D01*
X119020250Y-115932000D01*
X119252000Y-115700250D01*
X119252000Y-115170608D01*
X119110873Y-114829897D01*
X118850104Y-114569127D01*
X118509392Y-114428000D01*
X117979750Y-114428000D01*
X117748000Y-114659750D01*
X117202000Y-114659750D01*
X116970250Y-114428000D01*
X116440608Y-114428000D01*
X116099896Y-114569127D01*
X115839127Y-114829897D01*
X115698000Y-115170608D01*
X111650161Y-115170608D01*
X111650161Y-114475000D01*
X111585522Y-114131474D01*
X111382499Y-113815967D01*
X111072721Y-113604304D01*
X110705000Y-113529839D01*
X109005000Y-113529839D01*
X108661474Y-113594478D01*
X108361177Y-113787713D01*
X108094232Y-113520768D01*
X108085161Y-113514707D01*
X108085161Y-113450000D01*
X108020522Y-113106474D01*
X107817499Y-112790967D01*
X107554232Y-112611084D01*
X107975894Y-112527210D01*
X108536173Y-112152843D01*
X108600484Y-112056594D01*
X108731271Y-112220614D01*
X109318596Y-112531584D01*
X109582000Y-112360117D01*
X109582000Y-110763000D01*
X109562000Y-110763000D01*
X109562000Y-110217000D01*
X109582000Y-110217000D01*
X109582000Y-110197000D01*
X110128000Y-110197000D01*
X110128000Y-110217000D01*
X110148000Y-110217000D01*
X110148000Y-110763000D01*
X110128000Y-110763000D01*
X110128000Y-112360117D01*
X110391404Y-112531584D01*
X110978729Y-112220614D01*
X111109516Y-112056594D01*
X111173827Y-112152843D01*
X111734106Y-112527210D01*
X112395000Y-112658670D01*
X113055894Y-112527210D01*
X113616173Y-112152843D01*
X113665000Y-112079768D01*
X113713827Y-112152843D01*
X114274106Y-112527210D01*
X114935000Y-112658670D01*
X115595894Y-112527210D01*
X116156173Y-112152843D01*
X116205000Y-112079768D01*
X116253827Y-112152843D01*
X116814106Y-112527210D01*
X117475000Y-112658670D01*
X118135894Y-112527210D01*
X118696173Y-112152843D01*
X119070540Y-111592564D01*
X119202000Y-110931670D01*
X119202000Y-110048330D01*
X119070540Y-109387436D01*
X118846409Y-109052000D01*
X119548000Y-109052000D01*
X119548000Y-117018536D01*
X119198865Y-117367671D01*
X119252000Y-117239392D01*
X119252000Y-116709750D01*
X119020250Y-116478000D01*
X117748000Y-116478000D01*
X117748000Y-117750250D01*
X117979750Y-117982000D01*
X118509392Y-117982000D01*
X118637670Y-117928866D01*
X116695768Y-119870768D01*
X116456885Y-120228283D01*
X116373000Y-120650000D01*
X116373000Y-121394839D01*
X114475000Y-121394839D01*
X114131474Y-121459478D01*
X113815967Y-121662501D01*
X113604304Y-121972279D01*
X113580870Y-122088000D01*
X95706463Y-122088000D01*
X93598214Y-119979750D01*
X108078000Y-119979750D01*
X108078000Y-120659392D01*
X108219127Y-121000104D01*
X108479897Y-121260873D01*
X108820608Y-121402000D01*
X109350250Y-121402000D01*
X109582000Y-121170250D01*
X109582000Y-119748000D01*
X110128000Y-119748000D01*
X110128000Y-121170250D01*
X110359750Y-121402000D01*
X110889392Y-121402000D01*
X111230103Y-121260873D01*
X111490873Y-121000104D01*
X111632000Y-120659392D01*
X111632000Y-119979750D01*
X111400250Y-119748000D01*
X110128000Y-119748000D01*
X109582000Y-119748000D01*
X108309750Y-119748000D01*
X108078000Y-119979750D01*
X93598214Y-119979750D01*
X80477000Y-106858536D01*
X80477000Y-106856113D01*
X80644993Y-106688413D01*
X80892916Y-106936770D01*
X81554988Y-107211686D01*
X82271867Y-107212312D01*
X82934417Y-106938552D01*
X83184993Y-106688413D01*
X83432916Y-106936770D01*
X84094988Y-107211686D01*
X84811867Y-107212312D01*
X85474417Y-106938552D01*
X85724993Y-106688413D01*
X85893000Y-106856714D01*
X85893000Y-108460405D01*
X85738471Y-108563658D01*
X85353266Y-109140159D01*
X85218000Y-109820187D01*
X85218000Y-109889813D01*
X85353266Y-110569841D01*
X85738471Y-111146342D01*
X86314972Y-111531547D01*
X86995000Y-111666813D01*
X87675028Y-111531547D01*
X87982914Y-111325824D01*
X88007501Y-111364033D01*
X88317279Y-111575696D01*
X88685000Y-111650161D01*
X90385000Y-111650161D01*
X90728526Y-111585522D01*
X90802239Y-111538089D01*
X90857279Y-111575696D01*
X91225000Y-111650161D01*
X92925000Y-111650161D01*
X93268526Y-111585522D01*
X93342239Y-111538089D01*
X93397279Y-111575696D01*
X93765000Y-111650161D01*
X95465000Y-111650161D01*
X95808526Y-111585522D01*
X96124033Y-111382499D01*
X96335696Y-111072721D01*
X96410161Y-110705000D01*
X96410161Y-109005000D01*
X96345522Y-108661474D01*
X96142499Y-108345967D01*
X95832721Y-108134304D01*
X95717000Y-108110870D01*
X95717000Y-106856113D01*
X96141770Y-106432084D01*
X96416686Y-105770012D01*
X96417312Y-105053133D01*
X96143552Y-104390583D01*
X95637084Y-103883230D01*
X94975012Y-103608314D01*
X94258133Y-103607688D01*
X93595583Y-103881448D01*
X93345007Y-104131587D01*
X93097084Y-103883230D01*
X92435012Y-103608314D01*
X91718133Y-103607688D01*
X91055583Y-103881448D01*
X90805007Y-104131587D01*
X90557084Y-103883230D01*
X89895012Y-103608314D01*
X89178133Y-103607688D01*
X88515583Y-103881448D01*
X88265007Y-104131587D01*
X88017084Y-103883230D01*
X87355012Y-103608314D01*
X86638133Y-103607688D01*
X85975583Y-103881448D01*
X85725007Y-104131587D01*
X85557000Y-103963286D01*
X85557000Y-102994595D01*
X85711529Y-102891342D01*
X86096734Y-102314841D01*
X86232000Y-101634813D01*
X86232000Y-101565187D01*
X86096734Y-100885159D01*
X85711529Y-100308658D01*
X85135028Y-99923453D01*
X84455000Y-99788187D01*
X83774972Y-99923453D01*
X83467086Y-100129176D01*
X83442499Y-100090967D01*
X83132721Y-99879304D01*
X82765000Y-99804839D01*
X81065000Y-99804839D01*
X80721474Y-99869478D01*
X80405967Y-100072501D01*
X80194304Y-100382279D01*
X80119839Y-100750000D01*
X80119839Y-102450000D01*
X80184478Y-102793526D01*
X80387501Y-103109033D01*
X80697279Y-103320696D01*
X80813000Y-103344130D01*
X80813000Y-103963887D01*
X80645007Y-104131587D01*
X80397084Y-103883230D01*
X79735012Y-103608314D01*
X79018133Y-103607688D01*
X78355583Y-103881448D01*
X78105007Y-104131587D01*
X77857084Y-103883230D01*
X77195012Y-103608314D01*
X76478133Y-103607688D01*
X75815583Y-103881448D01*
X75565007Y-104131587D01*
X75317084Y-103883230D01*
X74655012Y-103608314D01*
X73938133Y-103607688D01*
X73275583Y-103881448D01*
X73025007Y-104131587D01*
X72777084Y-103883230D01*
X72115012Y-103608314D01*
X71398133Y-103607688D01*
X70735583Y-103881448D01*
X70485007Y-104131587D01*
X70237084Y-103883230D01*
X69575012Y-103608314D01*
X68858133Y-103607688D01*
X68195583Y-103881448D01*
X67945007Y-104131587D01*
X67697084Y-103883230D01*
X67035012Y-103608314D01*
X66318133Y-103607688D01*
X65655583Y-103881448D01*
X65405007Y-104131587D01*
X65157084Y-103883230D01*
X64495012Y-103608314D01*
X63778133Y-103607688D01*
X63115583Y-103881448D01*
X62888228Y-104108407D01*
X62699369Y-103919548D01*
X62520724Y-104098193D01*
X62442090Y-103779625D01*
X61753691Y-103579563D01*
X61041133Y-103658168D01*
X60747910Y-103779625D01*
X60669275Y-104098195D01*
X61595000Y-105023920D01*
X61609143Y-105009778D01*
X61995223Y-105395858D01*
X61981080Y-105410000D01*
X61995223Y-105424143D01*
X61609143Y-105810223D01*
X61595000Y-105796080D01*
X60669275Y-106721805D01*
X60747910Y-107040375D01*
X61436309Y-107240437D01*
X62148867Y-107161832D01*
X62442090Y-107040375D01*
X62520724Y-106721807D01*
X62699369Y-106900452D01*
X62888180Y-106711641D01*
X63112916Y-106936770D01*
X63774988Y-107211686D01*
X64491867Y-107212312D01*
X65154417Y-106938552D01*
X65404993Y-106688413D01*
X65652916Y-106936770D01*
X66314988Y-107211686D01*
X67031867Y-107212312D01*
X67694417Y-106938552D01*
X67944993Y-106688413D01*
X68192916Y-106936770D01*
X68854988Y-107211686D01*
X69571867Y-107212312D01*
X70234417Y-106938552D01*
X70484993Y-106688413D01*
X70696898Y-106900689D01*
X70736885Y-107101717D01*
X70975768Y-107459232D01*
X92565768Y-129049232D01*
X92923283Y-129288115D01*
X93345000Y-129372001D01*
X93345005Y-129372000D01*
X95162256Y-129372000D01*
X95179478Y-129463526D01*
X95192009Y-129483000D01*
X64684661Y-129483000D01*
X62922000Y-127720338D01*
X62922000Y-127456808D01*
X63154033Y-127307499D01*
X63365696Y-126997721D01*
X63440161Y-126630000D01*
X63440161Y-124830000D01*
X63375522Y-124486474D01*
X63172499Y-124170967D01*
X63120140Y-124135192D01*
X63336557Y-123742239D01*
X63169755Y-123463000D01*
X61868000Y-123463000D01*
X61868000Y-123483000D01*
X61322000Y-123483000D01*
X61322000Y-123463000D01*
X60020245Y-123463000D01*
X59853443Y-123742239D01*
X60068030Y-124131869D01*
X60035967Y-124152501D01*
X59824304Y-124462279D01*
X59749839Y-124830000D01*
X59749839Y-126630000D01*
X59814478Y-126973526D01*
X60017501Y-127289033D01*
X60268000Y-127460192D01*
X60268000Y-128270000D01*
X60369012Y-128777821D01*
X60656669Y-129208331D01*
X63196667Y-131748328D01*
X63196669Y-131748331D01*
X63627179Y-132035988D01*
X64135000Y-132137000D01*
X106130338Y-132137000D01*
X109121339Y-135128000D01*
X107706137Y-135128000D01*
X106938698Y-134615214D01*
X106577497Y-134465599D01*
X105605480Y-134272253D01*
X105506791Y-134272253D01*
X105410000Y-134253000D01*
X59153690Y-134253000D01*
X58473945Y-134117790D01*
X57981351Y-133788650D01*
X57652209Y-133296055D01*
X57517000Y-132616311D01*
X57517000Y-123137554D01*
X75578000Y-123137554D01*
X75578000Y-123242446D01*
X75781774Y-124266890D01*
X76362075Y-125135371D01*
X77230556Y-125715672D01*
X78255000Y-125919446D01*
X79279444Y-125715672D01*
X80147925Y-125135371D01*
X80728226Y-124266890D01*
X80932000Y-123242446D01*
X80932000Y-123137554D01*
X80728226Y-122113110D01*
X80147925Y-121244629D01*
X79279444Y-120664328D01*
X78255000Y-120460554D01*
X77230556Y-120664328D01*
X76362075Y-121244629D01*
X75781774Y-122113110D01*
X75578000Y-123137554D01*
X57517000Y-123137554D01*
X57517000Y-114258999D01*
X57640768Y-114444232D01*
X60493000Y-117296464D01*
X60493000Y-119195446D01*
X60303116Y-119322323D01*
X59907072Y-119915044D01*
X59768000Y-120614207D01*
X59768000Y-120685793D01*
X59907072Y-121384956D01*
X60281800Y-121945776D01*
X60197344Y-122013333D01*
X59853443Y-122637761D01*
X60020245Y-122917000D01*
X61322000Y-122917000D01*
X61322000Y-122897000D01*
X61868000Y-122897000D01*
X61868000Y-122917000D01*
X63169755Y-122917000D01*
X63336557Y-122637761D01*
X62992656Y-122013333D01*
X62908200Y-121945776D01*
X63282928Y-121384956D01*
X63422000Y-120685793D01*
X63422000Y-120614207D01*
X63282928Y-119915044D01*
X62886884Y-119322323D01*
X62697000Y-119195446D01*
X62697000Y-116840000D01*
X62613115Y-116418283D01*
X62374232Y-116060768D01*
X60605910Y-114292446D01*
X68846562Y-114292446D01*
X69230464Y-115221561D01*
X69940700Y-115933037D01*
X70869143Y-116318561D01*
X71874446Y-116319438D01*
X72803561Y-115935536D01*
X73515037Y-115225300D01*
X73900561Y-114296857D01*
X73901438Y-113291554D01*
X73517536Y-112362439D01*
X72807300Y-111650963D01*
X71878857Y-111265439D01*
X70873554Y-111264562D01*
X69944439Y-111648464D01*
X69232963Y-112358700D01*
X68847439Y-113287143D01*
X68846562Y-114292446D01*
X60605910Y-114292446D01*
X59522000Y-113208536D01*
X59522000Y-105251309D01*
X59764563Y-105251309D01*
X59843168Y-105963867D01*
X59964625Y-106257090D01*
X60283195Y-106335725D01*
X61208920Y-105410000D01*
X60283195Y-104484275D01*
X59964625Y-104562910D01*
X59764563Y-105251309D01*
X59522000Y-105251309D01*
X59522000Y-101564750D01*
X59868000Y-101564750D01*
X59868000Y-102244392D01*
X60009127Y-102585104D01*
X60269897Y-102845873D01*
X60610608Y-102987000D01*
X61090250Y-102987000D01*
X61322000Y-102755250D01*
X61322000Y-101333000D01*
X61868000Y-101333000D01*
X61868000Y-102755250D01*
X62099750Y-102987000D01*
X62579392Y-102987000D01*
X62920103Y-102845873D01*
X63180873Y-102585104D01*
X63322000Y-102244392D01*
X63322000Y-101564750D01*
X63090250Y-101333000D01*
X61868000Y-101333000D01*
X61322000Y-101333000D01*
X60099750Y-101333000D01*
X59868000Y-101564750D01*
X59522000Y-101564750D01*
X59522000Y-99875608D01*
X59868000Y-99875608D01*
X59868000Y-100555250D01*
X60099750Y-100787000D01*
X61322000Y-100787000D01*
X61322000Y-99364750D01*
X61868000Y-99364750D01*
X61868000Y-100787000D01*
X63090250Y-100787000D01*
X63322000Y-100555250D01*
X63322000Y-99875608D01*
X63180873Y-99534896D01*
X62920103Y-99274127D01*
X62579392Y-99133000D01*
X62099750Y-99133000D01*
X61868000Y-99364750D01*
X61322000Y-99364750D01*
X61090250Y-99133000D01*
X60610608Y-99133000D01*
X60269897Y-99274127D01*
X60009127Y-99534896D01*
X59868000Y-99875608D01*
X59522000Y-99875608D01*
X59522000Y-98881464D01*
X59947938Y-98455525D01*
X60117501Y-98719033D01*
X60427279Y-98930696D01*
X60795000Y-99005161D01*
X62395000Y-99005161D01*
X62738526Y-98940522D01*
X63054033Y-98737499D01*
X63265696Y-98427721D01*
X63340161Y-98060000D01*
X63340161Y-96060000D01*
X63275522Y-95716474D01*
X63072499Y-95400967D01*
X62762721Y-95189304D01*
X62697000Y-95175995D01*
X62697000Y-91616113D01*
X62841772Y-91471593D01*
X63030631Y-91660452D01*
X63209276Y-91481807D01*
X63287910Y-91800375D01*
X63976309Y-92000437D01*
X64688867Y-91921832D01*
X64982090Y-91800375D01*
X65060724Y-91481807D01*
X65239369Y-91660452D01*
X65428180Y-91471641D01*
X65652916Y-91696770D01*
X66314988Y-91971686D01*
X67031867Y-91972312D01*
X67694417Y-91698552D01*
X67944993Y-91448413D01*
X68192916Y-91696770D01*
G36*
X121793000Y-78273000D02*
X121372744Y-78273000D01*
X121355522Y-78181474D01*
X121152499Y-77865967D01*
X120842721Y-77654304D01*
X120475000Y-77579839D01*
X118475000Y-77579839D01*
X118131474Y-77644478D01*
X117815967Y-77847501D01*
X117604304Y-78157279D01*
X117529839Y-78525000D01*
X117529839Y-80225000D01*
X117594478Y-80568526D01*
X117641911Y-80642239D01*
X117604304Y-80697279D01*
X117529839Y-81065000D01*
X117529839Y-82765000D01*
X117594478Y-83108526D01*
X117797501Y-83424033D01*
X118107279Y-83635696D01*
X118475000Y-83710161D01*
X120475000Y-83710161D01*
X120818526Y-83645522D01*
X121134033Y-83442499D01*
X121345696Y-83132721D01*
X121369130Y-83017000D01*
X121793000Y-83017000D01*
X121793000Y-99533536D01*
X121420161Y-99906375D01*
X121420161Y-98210000D01*
X121355522Y-97866474D01*
X121152499Y-97550967D01*
X120842721Y-97339304D01*
X120577000Y-97285494D01*
X120577000Y-96340968D01*
X120818526Y-96295522D01*
X121134033Y-96092499D01*
X121345696Y-95782721D01*
X121420161Y-95415000D01*
X121420161Y-93815000D01*
X121355522Y-93471474D01*
X121152499Y-93155967D01*
X120842721Y-92944304D01*
X120475000Y-92869839D01*
X118475000Y-92869839D01*
X118131474Y-92934478D01*
X117815967Y-93137501D01*
X117604304Y-93447279D01*
X117529839Y-93815000D01*
X117529839Y-95415000D01*
X117594478Y-95758526D01*
X117797501Y-96074033D01*
X117886519Y-96134856D01*
X117475000Y-96053000D01*
X117147976Y-96053000D01*
X117260873Y-95940103D01*
X117402000Y-95599392D01*
X117402000Y-95119750D01*
X117170250Y-94888000D01*
X115748000Y-94888000D01*
X115748000Y-94908000D01*
X115202000Y-94908000D01*
X115202000Y-94888000D01*
X115182000Y-94888000D01*
X115182000Y-94342000D01*
X115202000Y-94342000D01*
X115202000Y-93119750D01*
X115748000Y-93119750D01*
X115748000Y-94342000D01*
X117170250Y-94342000D01*
X117402000Y-94110250D01*
X117402000Y-93630608D01*
X117260873Y-93289897D01*
X117000104Y-93029127D01*
X116659392Y-92888000D01*
X115979750Y-92888000D01*
X115748000Y-93119750D01*
X115202000Y-93119750D01*
X114970250Y-92888000D01*
X114290608Y-92888000D01*
X113949896Y-93029127D01*
X113689127Y-93289897D01*
X113672974Y-93328895D01*
X113429392Y-93228000D01*
X112899750Y-93228000D01*
X112668000Y-93459750D01*
X112668000Y-94882000D01*
X112688000Y-94882000D01*
X112688000Y-95428000D01*
X112668000Y-95428000D01*
X112668000Y-95448000D01*
X112122000Y-95448000D01*
X112122000Y-95428000D01*
X110849750Y-95428000D01*
X110807500Y-95470250D01*
X110765250Y-95428000D01*
X109493000Y-95428000D01*
X109493000Y-95448000D01*
X108947000Y-95448000D01*
X108947000Y-95428000D01*
X108927000Y-95428000D01*
X108927000Y-94882000D01*
X108947000Y-94882000D01*
X108947000Y-93459750D01*
X109493000Y-93459750D01*
X109493000Y-94882000D01*
X110765250Y-94882000D01*
X110807500Y-94839750D01*
X110849750Y-94882000D01*
X112122000Y-94882000D01*
X112122000Y-93459750D01*
X111890250Y-93228000D01*
X111360608Y-93228000D01*
X111019897Y-93369127D01*
X110807500Y-93581523D01*
X110595103Y-93369127D01*
X110254392Y-93228000D01*
X109724750Y-93228000D01*
X109493000Y-93459750D01*
X108947000Y-93459750D01*
X108715250Y-93228000D01*
X108185608Y-93228000D01*
X107942026Y-93328895D01*
X107925873Y-93289897D01*
X107665104Y-93029127D01*
X107324392Y-92888000D01*
X106644750Y-92888000D01*
X106413000Y-93119750D01*
X106413000Y-94342000D01*
X106433000Y-94342000D01*
X106433000Y-94888000D01*
X106413000Y-94888000D01*
X106413000Y-94908000D01*
X105867000Y-94908000D01*
X105867000Y-94888000D01*
X105847000Y-94888000D01*
X105847000Y-94342000D01*
X105867000Y-94342000D01*
X105867000Y-93119750D01*
X105635250Y-92888000D01*
X105242000Y-92888000D01*
X105242000Y-92710000D01*
X105158115Y-92288283D01*
X104919232Y-91930768D01*
X104561717Y-91691885D01*
X104140000Y-91608000D01*
X95725127Y-91608000D01*
X96141770Y-91192084D01*
X96416686Y-90530012D01*
X96417312Y-89813133D01*
X96143552Y-89150583D01*
X95717000Y-88723286D01*
X95717000Y-84980161D01*
X96100000Y-84980161D01*
X96443526Y-84915522D01*
X96759033Y-84712499D01*
X96970696Y-84402721D01*
X97045161Y-84035000D01*
X97045161Y-82335000D01*
X96980522Y-81991474D01*
X96777499Y-81675967D01*
X96467721Y-81464304D01*
X96100000Y-81389839D01*
X94400000Y-81389839D01*
X94056474Y-81454478D01*
X93812000Y-81611793D01*
X93812000Y-78441466D01*
X94316465Y-77937000D01*
X95428536Y-77937000D01*
X96375768Y-78884232D01*
X96733283Y-79123115D01*
X97155000Y-79207000D01*
X97665405Y-79207000D01*
X97768658Y-79361529D01*
X97788819Y-79375000D01*
X97768658Y-79388471D01*
X97383453Y-79964972D01*
X97248187Y-80645000D01*
X97383453Y-81325028D01*
X97768658Y-81901529D01*
X97788819Y-81915000D01*
X97768658Y-81928471D01*
X97383453Y-82504972D01*
X97248187Y-83185000D01*
X97383453Y-83865028D01*
X97768658Y-84441529D01*
X97788819Y-84455000D01*
X97768658Y-84468471D01*
X97383453Y-85044972D01*
X97248187Y-85725000D01*
X97383453Y-86405028D01*
X97768658Y-86981529D01*
X98345159Y-87366734D01*
X99025187Y-87502000D01*
X99094813Y-87502000D01*
X99774841Y-87366734D01*
X100351342Y-86981529D01*
X100736547Y-86405028D01*
X100871813Y-85725000D01*
X100736547Y-85044972D01*
X100351342Y-84468471D01*
X100331181Y-84455000D01*
X100351342Y-84441529D01*
X100454595Y-84287000D01*
X101475405Y-84287000D01*
X101578658Y-84441529D01*
X101598819Y-84455000D01*
X101578658Y-84468471D01*
X101193453Y-85044972D01*
X101058187Y-85725000D01*
X101193453Y-86405028D01*
X101578658Y-86981529D01*
X102155159Y-87366734D01*
X102835187Y-87502000D01*
X102904813Y-87502000D01*
X103584841Y-87366734D01*
X104161342Y-86981529D01*
X104546547Y-86405028D01*
X104681813Y-85725000D01*
X104546547Y-85044972D01*
X104161342Y-84468471D01*
X104141181Y-84455000D01*
X104161342Y-84441529D01*
X104264595Y-84287000D01*
X104650405Y-84287000D01*
X104753658Y-84441529D01*
X105330159Y-84826734D01*
X106010187Y-84962000D01*
X106079813Y-84962000D01*
X106759841Y-84826734D01*
X107336342Y-84441529D01*
X107721547Y-83865028D01*
X107856813Y-83185000D01*
X107721547Y-82504972D01*
X107515824Y-82197086D01*
X107554033Y-82172499D01*
X107729975Y-81915000D01*
X109313187Y-81915000D01*
X109448453Y-82595028D01*
X109833658Y-83171529D01*
X110410159Y-83556734D01*
X111090187Y-83692000D01*
X111159813Y-83692000D01*
X111839841Y-83556734D01*
X112416342Y-83171529D01*
X112519595Y-83017000D01*
X113577256Y-83017000D01*
X113594478Y-83108526D01*
X113797501Y-83424033D01*
X114107279Y-83635696D01*
X114475000Y-83710161D01*
X116475000Y-83710161D01*
X116818526Y-83645522D01*
X117134033Y-83442499D01*
X117345696Y-83132721D01*
X117420161Y-82765000D01*
X117420161Y-81065000D01*
X117355522Y-80721474D01*
X117308089Y-80647761D01*
X117345696Y-80592721D01*
X117420161Y-80225000D01*
X117420161Y-78525000D01*
X117355522Y-78181474D01*
X117152499Y-77865967D01*
X116842721Y-77654304D01*
X116475000Y-77579839D01*
X114475000Y-77579839D01*
X114131474Y-77644478D01*
X113815967Y-77847501D01*
X113604304Y-78157279D01*
X113580870Y-78273000D01*
X112872744Y-78273000D01*
X112855522Y-78181474D01*
X112652499Y-77865967D01*
X112342721Y-77654304D01*
X111975000Y-77579839D01*
X110275000Y-77579839D01*
X109931474Y-77644478D01*
X109615967Y-77847501D01*
X109404304Y-78157279D01*
X109329839Y-78525000D01*
X109329839Y-80225000D01*
X109394478Y-80568526D01*
X109597501Y-80884033D01*
X109656161Y-80924114D01*
X109448453Y-81234972D01*
X109313187Y-81915000D01*
X107729975Y-81915000D01*
X107765696Y-81862721D01*
X107840161Y-81495000D01*
X107840161Y-79795000D01*
X107775522Y-79451474D01*
X107572499Y-79135967D01*
X107262721Y-78924304D01*
X106895000Y-78849839D01*
X105195000Y-78849839D01*
X104851474Y-78914478D01*
X104535967Y-79117501D01*
X104324304Y-79427279D01*
X104300870Y-79543000D01*
X104264595Y-79543000D01*
X104161342Y-79388471D01*
X104141181Y-79375000D01*
X104161342Y-79361529D01*
X104546547Y-78785028D01*
X104681813Y-78105000D01*
X104546547Y-77424972D01*
X104161342Y-76848471D01*
X104141181Y-76835000D01*
X104161342Y-76821529D01*
X104546547Y-76245028D01*
X104681813Y-75565000D01*
X104546547Y-74884972D01*
X104336044Y-74569932D01*
X104505873Y-74400103D01*
X104647000Y-74059392D01*
X104647000Y-73529750D01*
X104415250Y-73298000D01*
X103143000Y-73298000D01*
X103143000Y-73318000D01*
X102597000Y-73318000D01*
X102597000Y-73298000D01*
X101324750Y-73298000D01*
X101093000Y-73529750D01*
X101093000Y-74059392D01*
X101234127Y-74400103D01*
X101297024Y-74463000D01*
X100632976Y-74463000D01*
X100695873Y-74400103D01*
X100837000Y-74059392D01*
X100837000Y-73529750D01*
X100605250Y-73298000D01*
X99333000Y-73298000D01*
X99333000Y-73318000D01*
X98787000Y-73318000D01*
X98787000Y-73298000D01*
X97514750Y-73298000D01*
X97283000Y-73529750D01*
X97283000Y-74059392D01*
X97424127Y-74400103D01*
X97487024Y-74463000D01*
X93345005Y-74463000D01*
X93345000Y-74462999D01*
X92923283Y-74546885D01*
X92565768Y-74785768D01*
X90660768Y-76690768D01*
X90421885Y-77048283D01*
X90338000Y-77470000D01*
X90338000Y-85268536D01*
X88755768Y-86850768D01*
X88516885Y-87208283D01*
X88433000Y-87630000D01*
X88433000Y-88723887D01*
X88265007Y-88891587D01*
X88017084Y-88643230D01*
X87355012Y-88368314D01*
X86638133Y-88367688D01*
X85975583Y-88641448D01*
X85725007Y-88891587D01*
X85477084Y-88643230D01*
X84815012Y-88368314D01*
X84098133Y-88367688D01*
X83435583Y-88641448D01*
X83185007Y-88891587D01*
X82937084Y-88643230D01*
X82275012Y-88368314D01*
X81558133Y-88367688D01*
X80895583Y-88641448D01*
X80645007Y-88891587D01*
X80397084Y-88643230D01*
X79735012Y-88368314D01*
X79719393Y-88368300D01*
X79825696Y-88212721D01*
X79900161Y-87845000D01*
X79900161Y-86145000D01*
X79835522Y-85801474D01*
X79632499Y-85485967D01*
X79322721Y-85274304D01*
X78955000Y-85199839D01*
X78461459Y-85199839D01*
X78739783Y-84922000D01*
X79375000Y-84922000D01*
X79796717Y-84838115D01*
X80154232Y-84599232D01*
X80466464Y-84287000D01*
X80520405Y-84287000D01*
X80623658Y-84441529D01*
X80643819Y-84455000D01*
X80623658Y-84468471D01*
X80238453Y-85044972D01*
X80103187Y-85725000D01*
X80238453Y-86405028D01*
X80623658Y-86981529D01*
X81200159Y-87366734D01*
X81880187Y-87502000D01*
X81949813Y-87502000D01*
X82629841Y-87366734D01*
X83206342Y-86981529D01*
X83591547Y-86405028D01*
X83726813Y-85725000D01*
X83591547Y-85044972D01*
X83206342Y-84468471D01*
X83186181Y-84455000D01*
X83206342Y-84441529D01*
X83591547Y-83865028D01*
X83726813Y-83185000D01*
X83591547Y-82504972D01*
X83206342Y-81928471D01*
X83186181Y-81915000D01*
X83206342Y-81901529D01*
X83309595Y-81747000D01*
X83977256Y-81747000D01*
X83994478Y-81838526D01*
X84197501Y-82154033D01*
X84507279Y-82365696D01*
X84875000Y-82440161D01*
X86575000Y-82440161D01*
X86918526Y-82375522D01*
X87234033Y-82172499D01*
X87445696Y-81862721D01*
X87520161Y-81495000D01*
X87520161Y-79795000D01*
X87455522Y-79451474D01*
X87408089Y-79377761D01*
X87445696Y-79322721D01*
X87520161Y-78955000D01*
X87520161Y-77255000D01*
X87455522Y-76911474D01*
X87408089Y-76837761D01*
X87445696Y-76782721D01*
X87520161Y-76415000D01*
X87520161Y-74715000D01*
X87455522Y-74371474D01*
X87252499Y-74055967D01*
X86942721Y-73844304D01*
X86575000Y-73769839D01*
X84875000Y-73769839D01*
X84531474Y-73834478D01*
X84215967Y-74037501D01*
X84004304Y-74347279D01*
X83980870Y-74463000D01*
X83487976Y-74463000D01*
X83550873Y-74400103D01*
X83692000Y-74059392D01*
X83692000Y-73529750D01*
X83460250Y-73298000D01*
X82188000Y-73298000D01*
X82188000Y-73318000D01*
X81642000Y-73318000D01*
X81642000Y-73298000D01*
X80369750Y-73298000D01*
X80138000Y-73529750D01*
X80138000Y-74059392D01*
X80279127Y-74400103D01*
X80448956Y-74569932D01*
X80238453Y-74884972D01*
X80103187Y-75565000D01*
X80238453Y-76245028D01*
X80623658Y-76821529D01*
X80643819Y-76835000D01*
X80623658Y-76848471D01*
X80238453Y-77424972D01*
X80103187Y-78105000D01*
X80238453Y-78785028D01*
X80623658Y-79361529D01*
X80643819Y-79375000D01*
X80623658Y-79388471D01*
X80520405Y-79543000D01*
X80010005Y-79543000D01*
X80010000Y-79542999D01*
X79588283Y-79626885D01*
X79230768Y-79865768D01*
X79230766Y-79865771D01*
X78918537Y-80178000D01*
X78739490Y-80178000D01*
X78421184Y-79859138D01*
X78048167Y-79704248D01*
X77470000Y-79126080D01*
X77455858Y-79140223D01*
X77069777Y-78754142D01*
X77083920Y-78740000D01*
X77856080Y-78740000D01*
X78690236Y-79574155D01*
X78996021Y-79511272D01*
X79175012Y-78868580D01*
X79094431Y-78206313D01*
X78996021Y-77968728D01*
X78690236Y-77905845D01*
X77856080Y-78740000D01*
X77083920Y-78740000D01*
X77069777Y-78725858D01*
X77455858Y-78339777D01*
X77470000Y-78353920D01*
X78048389Y-77775531D01*
X78418703Y-77622520D01*
X78890862Y-77151184D01*
X79146708Y-76535039D01*
X79147290Y-75867888D01*
X78892520Y-75251297D01*
X78421184Y-74779138D01*
X77805039Y-74523292D01*
X77137888Y-74522710D01*
X76607000Y-74742068D01*
X76607000Y-74656998D01*
X76375252Y-74656998D01*
X76607000Y-74425250D01*
X76607000Y-73995608D01*
X76465873Y-73654896D01*
X76205103Y-73394127D01*
X75864392Y-73253000D01*
X75434750Y-73253000D01*
X75203000Y-73484750D01*
X75203000Y-74657000D01*
X75223000Y-74657000D01*
X75223000Y-75203000D01*
X75203000Y-75203000D01*
X75203000Y-75223000D01*
X74657000Y-75223000D01*
X74657000Y-75203000D01*
X73484750Y-75203000D01*
X73253000Y-75434750D01*
X73253000Y-75864392D01*
X73394127Y-76205104D01*
X73608576Y-76419552D01*
X73509138Y-76518816D01*
X73253292Y-77134961D01*
X73252710Y-77802112D01*
X73507480Y-78418703D01*
X73828364Y-78740147D01*
X73509138Y-79058816D01*
X73253292Y-79674961D01*
X73252710Y-80342112D01*
X73507480Y-80958703D01*
X73978816Y-81430862D01*
X74351833Y-81585752D01*
X74930000Y-82163920D01*
X74944143Y-82149778D01*
X75330223Y-82535858D01*
X75316080Y-82550000D01*
X75330223Y-82564142D01*
X74944142Y-82950223D01*
X74930000Y-82936080D01*
X74095845Y-83770236D01*
X74158728Y-84076021D01*
X74801420Y-84255012D01*
X75463687Y-84174431D01*
X75623161Y-84108375D01*
X75163044Y-84568493D01*
X75145000Y-84564839D01*
X73445000Y-84564839D01*
X73101474Y-84629478D01*
X72785967Y-84832501D01*
X72574304Y-85142279D01*
X72499839Y-85510000D01*
X72499839Y-87210000D01*
X72564478Y-87553526D01*
X72767501Y-87869033D01*
X73077279Y-88080696D01*
X73445000Y-88155161D01*
X75145000Y-88155161D01*
X75488526Y-88090522D01*
X75804033Y-87887499D01*
X75809756Y-87879123D01*
X75733000Y-88265000D01*
X75733000Y-88723887D01*
X75565007Y-88891587D01*
X75317084Y-88643230D01*
X74655012Y-88368314D01*
X73938133Y-88367688D01*
X73275583Y-88641448D01*
X73025007Y-88891587D01*
X72777084Y-88643230D01*
X72115012Y-88368314D01*
X71398133Y-88367688D01*
X70735583Y-88641448D01*
X70485007Y-88891587D01*
X70237084Y-88643230D01*
X69575012Y-88368314D01*
X68858133Y-88367688D01*
X68195583Y-88641448D01*
X67945007Y-88891587D01*
X67697084Y-88643230D01*
X67035012Y-88368314D01*
X66318133Y-88367688D01*
X65655583Y-88641448D01*
X65428228Y-88868407D01*
X65239369Y-88679548D01*
X65060724Y-88858193D01*
X64982090Y-88539625D01*
X64293691Y-88339563D01*
X63581133Y-88418168D01*
X63287910Y-88539625D01*
X63209276Y-88858193D01*
X63030631Y-88679548D01*
X62841820Y-88868359D01*
X62617084Y-88643230D01*
X61955012Y-88368314D01*
X61238133Y-88367688D01*
X60575583Y-88641448D01*
X60068230Y-89147916D01*
X59793314Y-89809988D01*
X59792688Y-90526867D01*
X60066448Y-91189417D01*
X60493000Y-91616714D01*
X60493000Y-95171664D01*
X60451474Y-95179478D01*
X60135967Y-95382501D01*
X59924304Y-95692279D01*
X59870494Y-95958000D01*
X59785005Y-95958000D01*
X59785000Y-95957999D01*
X59363283Y-96041885D01*
X59005768Y-96280768D01*
X59005766Y-96280771D01*
X57640768Y-97645768D01*
X57517000Y-97831001D01*
X57517000Y-85855005D01*
X65827523Y-85855005D01*
X66245607Y-86866846D01*
X67019082Y-87641672D01*
X68030192Y-88061521D01*
X69125005Y-88062477D01*
X70136846Y-87644393D01*
X70911672Y-86870918D01*
X71331521Y-85859808D01*
X71332477Y-84764995D01*
X70914393Y-83753154D01*
X70140918Y-82978328D01*
X69129808Y-82558479D01*
X68034995Y-82557523D01*
X67023154Y-82975607D01*
X66248328Y-83749082D01*
X65828479Y-84760192D01*
X65827523Y-85855005D01*
X57517000Y-85855005D01*
X57517000Y-82421420D01*
X73224988Y-82421420D01*
X73305569Y-83083687D01*
X73403979Y-83321272D01*
X73709764Y-83384155D01*
X74543920Y-82550000D01*
X73709764Y-81715845D01*
X73403979Y-81778728D01*
X73224988Y-82421420D01*
X57517000Y-82421420D01*
X57517000Y-73985005D01*
X65827523Y-73985005D01*
X66245607Y-74996846D01*
X67019082Y-75771672D01*
X68030192Y-76191521D01*
X69125005Y-76192477D01*
X70136846Y-75774393D01*
X70911672Y-75000918D01*
X71329112Y-73995608D01*
X73253000Y-73995608D01*
X73253000Y-74425250D01*
X73484750Y-74657000D01*
X74657000Y-74657000D01*
X74657000Y-73484750D01*
X74425250Y-73253000D01*
X73995608Y-73253000D01*
X73654897Y-73394127D01*
X73394127Y-73654896D01*
X73253000Y-73995608D01*
X71329112Y-73995608D01*
X71331521Y-73989808D01*
X71332477Y-72894995D01*
X70958793Y-71990608D01*
X80138000Y-71990608D01*
X80138000Y-72520250D01*
X80369750Y-72752000D01*
X81642000Y-72752000D01*
X81642000Y-71479750D01*
X82188000Y-71479750D01*
X82188000Y-72752000D01*
X83460250Y-72752000D01*
X83692000Y-72520250D01*
X83692000Y-71990608D01*
X97283000Y-71990608D01*
X97283000Y-72520250D01*
X97514750Y-72752000D01*
X98787000Y-72752000D01*
X98787000Y-71479750D01*
X99333000Y-71479750D01*
X99333000Y-72752000D01*
X100605250Y-72752000D01*
X100837000Y-72520250D01*
X100837000Y-71990608D01*
X101093000Y-71990608D01*
X101093000Y-72520250D01*
X101324750Y-72752000D01*
X102597000Y-72752000D01*
X102597000Y-71479750D01*
X103143000Y-71479750D01*
X103143000Y-72752000D01*
X104415250Y-72752000D01*
X104647000Y-72520250D01*
X104647000Y-71990608D01*
X104505873Y-71649897D01*
X104245104Y-71389127D01*
X103904392Y-71248000D01*
X103374750Y-71248000D01*
X103143000Y-71479750D01*
X102597000Y-71479750D01*
X102365250Y-71248000D01*
X101835608Y-71248000D01*
X101494896Y-71389127D01*
X101234127Y-71649897D01*
X101093000Y-71990608D01*
X100837000Y-71990608D01*
X100695873Y-71649897D01*
X100435104Y-71389127D01*
X100094392Y-71248000D01*
X99564750Y-71248000D01*
X99333000Y-71479750D01*
X98787000Y-71479750D01*
X98555250Y-71248000D01*
X98025608Y-71248000D01*
X97684896Y-71389127D01*
X97424127Y-71649897D01*
X97283000Y-71990608D01*
X83692000Y-71990608D01*
X83550873Y-71649897D01*
X83290104Y-71389127D01*
X82949392Y-71248000D01*
X82419750Y-71248000D01*
X82188000Y-71479750D01*
X81642000Y-71479750D01*
X81410250Y-71248000D01*
X80880608Y-71248000D01*
X80539896Y-71389127D01*
X80279127Y-71649897D01*
X80138000Y-71990608D01*
X70958793Y-71990608D01*
X70914393Y-71883154D01*
X70140918Y-71108328D01*
X69129808Y-70688479D01*
X68034995Y-70687523D01*
X67023154Y-71105607D01*
X66248328Y-71879082D01*
X65828479Y-72890192D01*
X65827523Y-73985005D01*
X57517000Y-73985005D01*
X57517000Y-71853689D01*
X57652209Y-71173945D01*
X57981351Y-70681350D01*
X58473945Y-70352210D01*
X59153690Y-70217000D01*
X121793000Y-70217000D01*
X121793000Y-78273000D01*
X121793000Y-78273000D01*
G37*
X121793000Y-78273000D02*
X121372744Y-78273000D01*
X121355522Y-78181474D01*
X121152499Y-77865967D01*
X120842721Y-77654304D01*
X120475000Y-77579839D01*
X118475000Y-77579839D01*
X118131474Y-77644478D01*
X117815967Y-77847501D01*
X117604304Y-78157279D01*
X117529839Y-78525000D01*
X117529839Y-80225000D01*
X117594478Y-80568526D01*
X117641911Y-80642239D01*
X117604304Y-80697279D01*
X117529839Y-81065000D01*
X117529839Y-82765000D01*
X117594478Y-83108526D01*
X117797501Y-83424033D01*
X118107279Y-83635696D01*
X118475000Y-83710161D01*
X120475000Y-83710161D01*
X120818526Y-83645522D01*
X121134033Y-83442499D01*
X121345696Y-83132721D01*
X121369130Y-83017000D01*
X121793000Y-83017000D01*
X121793000Y-99533536D01*
X121420161Y-99906375D01*
X121420161Y-98210000D01*
X121355522Y-97866474D01*
X121152499Y-97550967D01*
X120842721Y-97339304D01*
X120577000Y-97285494D01*
X120577000Y-96340968D01*
X120818526Y-96295522D01*
X121134033Y-96092499D01*
X121345696Y-95782721D01*
X121420161Y-95415000D01*
X121420161Y-93815000D01*
X121355522Y-93471474D01*
X121152499Y-93155967D01*
X120842721Y-92944304D01*
X120475000Y-92869839D01*
X118475000Y-92869839D01*
X118131474Y-92934478D01*
X117815967Y-93137501D01*
X117604304Y-93447279D01*
X117529839Y-93815000D01*
X117529839Y-95415000D01*
X117594478Y-95758526D01*
X117797501Y-96074033D01*
X117886519Y-96134856D01*
X117475000Y-96053000D01*
X117147976Y-96053000D01*
X117260873Y-95940103D01*
X117402000Y-95599392D01*
X117402000Y-95119750D01*
X117170250Y-94888000D01*
X115748000Y-94888000D01*
X115748000Y-94908000D01*
X115202000Y-94908000D01*
X115202000Y-94888000D01*
X115182000Y-94888000D01*
X115182000Y-94342000D01*
X115202000Y-94342000D01*
X115202000Y-93119750D01*
X115748000Y-93119750D01*
X115748000Y-94342000D01*
X117170250Y-94342000D01*
X117402000Y-94110250D01*
X117402000Y-93630608D01*
X117260873Y-93289897D01*
X117000104Y-93029127D01*
X116659392Y-92888000D01*
X115979750Y-92888000D01*
X115748000Y-93119750D01*
X115202000Y-93119750D01*
X114970250Y-92888000D01*
X114290608Y-92888000D01*
X113949896Y-93029127D01*
X113689127Y-93289897D01*
X113672974Y-93328895D01*
X113429392Y-93228000D01*
X112899750Y-93228000D01*
X112668000Y-93459750D01*
X112668000Y-94882000D01*
X112688000Y-94882000D01*
X112688000Y-95428000D01*
X112668000Y-95428000D01*
X112668000Y-95448000D01*
X112122000Y-95448000D01*
X112122000Y-95428000D01*
X110849750Y-95428000D01*
X110807500Y-95470250D01*
X110765250Y-95428000D01*
X109493000Y-95428000D01*
X109493000Y-95448000D01*
X108947000Y-95448000D01*
X108947000Y-95428000D01*
X108927000Y-95428000D01*
X108927000Y-94882000D01*
X108947000Y-94882000D01*
X108947000Y-93459750D01*
X109493000Y-93459750D01*
X109493000Y-94882000D01*
X110765250Y-94882000D01*
X110807500Y-94839750D01*
X110849750Y-94882000D01*
X112122000Y-94882000D01*
X112122000Y-93459750D01*
X111890250Y-93228000D01*
X111360608Y-93228000D01*
X111019897Y-93369127D01*
X110807500Y-93581523D01*
X110595103Y-93369127D01*
X110254392Y-93228000D01*
X109724750Y-93228000D01*
X109493000Y-93459750D01*
X108947000Y-93459750D01*
X108715250Y-93228000D01*
X108185608Y-93228000D01*
X107942026Y-93328895D01*
X107925873Y-93289897D01*
X107665104Y-93029127D01*
X107324392Y-92888000D01*
X106644750Y-92888000D01*
X106413000Y-93119750D01*
X106413000Y-94342000D01*
X106433000Y-94342000D01*
X106433000Y-94888000D01*
X106413000Y-94888000D01*
X106413000Y-94908000D01*
X105867000Y-94908000D01*
X105867000Y-94888000D01*
X105847000Y-94888000D01*
X105847000Y-94342000D01*
X105867000Y-94342000D01*
X105867000Y-93119750D01*
X105635250Y-92888000D01*
X105242000Y-92888000D01*
X105242000Y-92710000D01*
X105158115Y-92288283D01*
X104919232Y-91930768D01*
X104561717Y-91691885D01*
X104140000Y-91608000D01*
X95725127Y-91608000D01*
X96141770Y-91192084D01*
X96416686Y-90530012D01*
X96417312Y-89813133D01*
X96143552Y-89150583D01*
X95717000Y-88723286D01*
X95717000Y-84980161D01*
X96100000Y-84980161D01*
X96443526Y-84915522D01*
X96759033Y-84712499D01*
X96970696Y-84402721D01*
X97045161Y-84035000D01*
X97045161Y-82335000D01*
X96980522Y-81991474D01*
X96777499Y-81675967D01*
X96467721Y-81464304D01*
X96100000Y-81389839D01*
X94400000Y-81389839D01*
X94056474Y-81454478D01*
X93812000Y-81611793D01*
X93812000Y-78441466D01*
X94316465Y-77937000D01*
X95428536Y-77937000D01*
X96375768Y-78884232D01*
X96733283Y-79123115D01*
X97155000Y-79207000D01*
X97665405Y-79207000D01*
X97768658Y-79361529D01*
X97788819Y-79375000D01*
X97768658Y-79388471D01*
X97383453Y-79964972D01*
X97248187Y-80645000D01*
X97383453Y-81325028D01*
X97768658Y-81901529D01*
X97788819Y-81915000D01*
X97768658Y-81928471D01*
X97383453Y-82504972D01*
X97248187Y-83185000D01*
X97383453Y-83865028D01*
X97768658Y-84441529D01*
X97788819Y-84455000D01*
X97768658Y-84468471D01*
X97383453Y-85044972D01*
X97248187Y-85725000D01*
X97383453Y-86405028D01*
X97768658Y-86981529D01*
X98345159Y-87366734D01*
X99025187Y-87502000D01*
X99094813Y-87502000D01*
X99774841Y-87366734D01*
X100351342Y-86981529D01*
X100736547Y-86405028D01*
X100871813Y-85725000D01*
X100736547Y-85044972D01*
X100351342Y-84468471D01*
X100331181Y-84455000D01*
X100351342Y-84441529D01*
X100454595Y-84287000D01*
X101475405Y-84287000D01*
X101578658Y-84441529D01*
X101598819Y-84455000D01*
X101578658Y-84468471D01*
X101193453Y-85044972D01*
X101058187Y-85725000D01*
X101193453Y-86405028D01*
X101578658Y-86981529D01*
X102155159Y-87366734D01*
X102835187Y-87502000D01*
X102904813Y-87502000D01*
X103584841Y-87366734D01*
X104161342Y-86981529D01*
X104546547Y-86405028D01*
X104681813Y-85725000D01*
X104546547Y-85044972D01*
X104161342Y-84468471D01*
X104141181Y-84455000D01*
X104161342Y-84441529D01*
X104264595Y-84287000D01*
X104650405Y-84287000D01*
X104753658Y-84441529D01*
X105330159Y-84826734D01*
X106010187Y-84962000D01*
X106079813Y-84962000D01*
X106759841Y-84826734D01*
X107336342Y-84441529D01*
X107721547Y-83865028D01*
X107856813Y-83185000D01*
X107721547Y-82504972D01*
X107515824Y-82197086D01*
X107554033Y-82172499D01*
X107729975Y-81915000D01*
X109313187Y-81915000D01*
X109448453Y-82595028D01*
X109833658Y-83171529D01*
X110410159Y-83556734D01*
X111090187Y-83692000D01*
X111159813Y-83692000D01*
X111839841Y-83556734D01*
X112416342Y-83171529D01*
X112519595Y-83017000D01*
X113577256Y-83017000D01*
X113594478Y-83108526D01*
X113797501Y-83424033D01*
X114107279Y-83635696D01*
X114475000Y-83710161D01*
X116475000Y-83710161D01*
X116818526Y-83645522D01*
X117134033Y-83442499D01*
X117345696Y-83132721D01*
X117420161Y-82765000D01*
X117420161Y-81065000D01*
X117355522Y-80721474D01*
X117308089Y-80647761D01*
X117345696Y-80592721D01*
X117420161Y-80225000D01*
X117420161Y-78525000D01*
X117355522Y-78181474D01*
X117152499Y-77865967D01*
X116842721Y-77654304D01*
X116475000Y-77579839D01*
X114475000Y-77579839D01*
X114131474Y-77644478D01*
X113815967Y-77847501D01*
X113604304Y-78157279D01*
X113580870Y-78273000D01*
X112872744Y-78273000D01*
X112855522Y-78181474D01*
X112652499Y-77865967D01*
X112342721Y-77654304D01*
X111975000Y-77579839D01*
X110275000Y-77579839D01*
X109931474Y-77644478D01*
X109615967Y-77847501D01*
X109404304Y-78157279D01*
X109329839Y-78525000D01*
X109329839Y-80225000D01*
X109394478Y-80568526D01*
X109597501Y-80884033D01*
X109656161Y-80924114D01*
X109448453Y-81234972D01*
X109313187Y-81915000D01*
X107729975Y-81915000D01*
X107765696Y-81862721D01*
X107840161Y-81495000D01*
X107840161Y-79795000D01*
X107775522Y-79451474D01*
X107572499Y-79135967D01*
X107262721Y-78924304D01*
X106895000Y-78849839D01*
X105195000Y-78849839D01*
X104851474Y-78914478D01*
X104535967Y-79117501D01*
X104324304Y-79427279D01*
X104300870Y-79543000D01*
X104264595Y-79543000D01*
X104161342Y-79388471D01*
X104141181Y-79375000D01*
X104161342Y-79361529D01*
X104546547Y-78785028D01*
X104681813Y-78105000D01*
X104546547Y-77424972D01*
X104161342Y-76848471D01*
X104141181Y-76835000D01*
X104161342Y-76821529D01*
X104546547Y-76245028D01*
X104681813Y-75565000D01*
X104546547Y-74884972D01*
X104336044Y-74569932D01*
X104505873Y-74400103D01*
X104647000Y-74059392D01*
X104647000Y-73529750D01*
X104415250Y-73298000D01*
X103143000Y-73298000D01*
X103143000Y-73318000D01*
X102597000Y-73318000D01*
X102597000Y-73298000D01*
X101324750Y-73298000D01*
X101093000Y-73529750D01*
X101093000Y-74059392D01*
X101234127Y-74400103D01*
X101297024Y-74463000D01*
X100632976Y-74463000D01*
X100695873Y-74400103D01*
X100837000Y-74059392D01*
X100837000Y-73529750D01*
X100605250Y-73298000D01*
X99333000Y-73298000D01*
X99333000Y-73318000D01*
X98787000Y-73318000D01*
X98787000Y-73298000D01*
X97514750Y-73298000D01*
X97283000Y-73529750D01*
X97283000Y-74059392D01*
X97424127Y-74400103D01*
X97487024Y-74463000D01*
X93345005Y-74463000D01*
X93345000Y-74462999D01*
X92923283Y-74546885D01*
X92565768Y-74785768D01*
X90660768Y-76690768D01*
X90421885Y-77048283D01*
X90338000Y-77470000D01*
X90338000Y-85268536D01*
X88755768Y-86850768D01*
X88516885Y-87208283D01*
X88433000Y-87630000D01*
X88433000Y-88723887D01*
X88265007Y-88891587D01*
X88017084Y-88643230D01*
X87355012Y-88368314D01*
X86638133Y-88367688D01*
X85975583Y-88641448D01*
X85725007Y-88891587D01*
X85477084Y-88643230D01*
X84815012Y-88368314D01*
X84098133Y-88367688D01*
X83435583Y-88641448D01*
X83185007Y-88891587D01*
X82937084Y-88643230D01*
X82275012Y-88368314D01*
X81558133Y-88367688D01*
X80895583Y-88641448D01*
X80645007Y-88891587D01*
X80397084Y-88643230D01*
X79735012Y-88368314D01*
X79719393Y-88368300D01*
X79825696Y-88212721D01*
X79900161Y-87845000D01*
X79900161Y-86145000D01*
X79835522Y-85801474D01*
X79632499Y-85485967D01*
X79322721Y-85274304D01*
X78955000Y-85199839D01*
X78461459Y-85199839D01*
X78739783Y-84922000D01*
X79375000Y-84922000D01*
X79796717Y-84838115D01*
X80154232Y-84599232D01*
X80466464Y-84287000D01*
X80520405Y-84287000D01*
X80623658Y-84441529D01*
X80643819Y-84455000D01*
X80623658Y-84468471D01*
X80238453Y-85044972D01*
X80103187Y-85725000D01*
X80238453Y-86405028D01*
X80623658Y-86981529D01*
X81200159Y-87366734D01*
X81880187Y-87502000D01*
X81949813Y-87502000D01*
X82629841Y-87366734D01*
X83206342Y-86981529D01*
X83591547Y-86405028D01*
X83726813Y-85725000D01*
X83591547Y-85044972D01*
X83206342Y-84468471D01*
X83186181Y-84455000D01*
X83206342Y-84441529D01*
X83591547Y-83865028D01*
X83726813Y-83185000D01*
X83591547Y-82504972D01*
X83206342Y-81928471D01*
X83186181Y-81915000D01*
X83206342Y-81901529D01*
X83309595Y-81747000D01*
X83977256Y-81747000D01*
X83994478Y-81838526D01*
X84197501Y-82154033D01*
X84507279Y-82365696D01*
X84875000Y-82440161D01*
X86575000Y-82440161D01*
X86918526Y-82375522D01*
X87234033Y-82172499D01*
X87445696Y-81862721D01*
X87520161Y-81495000D01*
X87520161Y-79795000D01*
X87455522Y-79451474D01*
X87408089Y-79377761D01*
X87445696Y-79322721D01*
X87520161Y-78955000D01*
X87520161Y-77255000D01*
X87455522Y-76911474D01*
X87408089Y-76837761D01*
X87445696Y-76782721D01*
X87520161Y-76415000D01*
X87520161Y-74715000D01*
X87455522Y-74371474D01*
X87252499Y-74055967D01*
X86942721Y-73844304D01*
X86575000Y-73769839D01*
X84875000Y-73769839D01*
X84531474Y-73834478D01*
X84215967Y-74037501D01*
X84004304Y-74347279D01*
X83980870Y-74463000D01*
X83487976Y-74463000D01*
X83550873Y-74400103D01*
X83692000Y-74059392D01*
X83692000Y-73529750D01*
X83460250Y-73298000D01*
X82188000Y-73298000D01*
X82188000Y-73318000D01*
X81642000Y-73318000D01*
X81642000Y-73298000D01*
X80369750Y-73298000D01*
X80138000Y-73529750D01*
X80138000Y-74059392D01*
X80279127Y-74400103D01*
X80448956Y-74569932D01*
X80238453Y-74884972D01*
X80103187Y-75565000D01*
X80238453Y-76245028D01*
X80623658Y-76821529D01*
X80643819Y-76835000D01*
X80623658Y-76848471D01*
X80238453Y-77424972D01*
X80103187Y-78105000D01*
X80238453Y-78785028D01*
X80623658Y-79361529D01*
X80643819Y-79375000D01*
X80623658Y-79388471D01*
X80520405Y-79543000D01*
X80010005Y-79543000D01*
X80010000Y-79542999D01*
X79588283Y-79626885D01*
X79230768Y-79865768D01*
X79230766Y-79865771D01*
X78918537Y-80178000D01*
X78739490Y-80178000D01*
X78421184Y-79859138D01*
X78048167Y-79704248D01*
X77470000Y-79126080D01*
X77455858Y-79140223D01*
X77069777Y-78754142D01*
X77083920Y-78740000D01*
X77856080Y-78740000D01*
X78690236Y-79574155D01*
X78996021Y-79511272D01*
X79175012Y-78868580D01*
X79094431Y-78206313D01*
X78996021Y-77968728D01*
X78690236Y-77905845D01*
X77856080Y-78740000D01*
X77083920Y-78740000D01*
X77069777Y-78725858D01*
X77455858Y-78339777D01*
X77470000Y-78353920D01*
X78048389Y-77775531D01*
X78418703Y-77622520D01*
X78890862Y-77151184D01*
X79146708Y-76535039D01*
X79147290Y-75867888D01*
X78892520Y-75251297D01*
X78421184Y-74779138D01*
X77805039Y-74523292D01*
X77137888Y-74522710D01*
X76607000Y-74742068D01*
X76607000Y-74656998D01*
X76375252Y-74656998D01*
X76607000Y-74425250D01*
X76607000Y-73995608D01*
X76465873Y-73654896D01*
X76205103Y-73394127D01*
X75864392Y-73253000D01*
X75434750Y-73253000D01*
X75203000Y-73484750D01*
X75203000Y-74657000D01*
X75223000Y-74657000D01*
X75223000Y-75203000D01*
X75203000Y-75203000D01*
X75203000Y-75223000D01*
X74657000Y-75223000D01*
X74657000Y-75203000D01*
X73484750Y-75203000D01*
X73253000Y-75434750D01*
X73253000Y-75864392D01*
X73394127Y-76205104D01*
X73608576Y-76419552D01*
X73509138Y-76518816D01*
X73253292Y-77134961D01*
X73252710Y-77802112D01*
X73507480Y-78418703D01*
X73828364Y-78740147D01*
X73509138Y-79058816D01*
X73253292Y-79674961D01*
X73252710Y-80342112D01*
X73507480Y-80958703D01*
X73978816Y-81430862D01*
X74351833Y-81585752D01*
X74930000Y-82163920D01*
X74944143Y-82149778D01*
X75330223Y-82535858D01*
X75316080Y-82550000D01*
X75330223Y-82564142D01*
X74944142Y-82950223D01*
X74930000Y-82936080D01*
X74095845Y-83770236D01*
X74158728Y-84076021D01*
X74801420Y-84255012D01*
X75463687Y-84174431D01*
X75623161Y-84108375D01*
X75163044Y-84568493D01*
X75145000Y-84564839D01*
X73445000Y-84564839D01*
X73101474Y-84629478D01*
X72785967Y-84832501D01*
X72574304Y-85142279D01*
X72499839Y-85510000D01*
X72499839Y-87210000D01*
X72564478Y-87553526D01*
X72767501Y-87869033D01*
X73077279Y-88080696D01*
X73445000Y-88155161D01*
X75145000Y-88155161D01*
X75488526Y-88090522D01*
X75804033Y-87887499D01*
X75809756Y-87879123D01*
X75733000Y-88265000D01*
X75733000Y-88723887D01*
X75565007Y-88891587D01*
X75317084Y-88643230D01*
X74655012Y-88368314D01*
X73938133Y-88367688D01*
X73275583Y-88641448D01*
X73025007Y-88891587D01*
X72777084Y-88643230D01*
X72115012Y-88368314D01*
X71398133Y-88367688D01*
X70735583Y-88641448D01*
X70485007Y-88891587D01*
X70237084Y-88643230D01*
X69575012Y-88368314D01*
X68858133Y-88367688D01*
X68195583Y-88641448D01*
X67945007Y-88891587D01*
X67697084Y-88643230D01*
X67035012Y-88368314D01*
X66318133Y-88367688D01*
X65655583Y-88641448D01*
X65428228Y-88868407D01*
X65239369Y-88679548D01*
X65060724Y-88858193D01*
X64982090Y-88539625D01*
X64293691Y-88339563D01*
X63581133Y-88418168D01*
X63287910Y-88539625D01*
X63209276Y-88858193D01*
X63030631Y-88679548D01*
X62841820Y-88868359D01*
X62617084Y-88643230D01*
X61955012Y-88368314D01*
X61238133Y-88367688D01*
X60575583Y-88641448D01*
X60068230Y-89147916D01*
X59793314Y-89809988D01*
X59792688Y-90526867D01*
X60066448Y-91189417D01*
X60493000Y-91616714D01*
X60493000Y-95171664D01*
X60451474Y-95179478D01*
X60135967Y-95382501D01*
X59924304Y-95692279D01*
X59870494Y-95958000D01*
X59785005Y-95958000D01*
X59785000Y-95957999D01*
X59363283Y-96041885D01*
X59005768Y-96280768D01*
X59005766Y-96280771D01*
X57640768Y-97645768D01*
X57517000Y-97831001D01*
X57517000Y-85855005D01*
X65827523Y-85855005D01*
X66245607Y-86866846D01*
X67019082Y-87641672D01*
X68030192Y-88061521D01*
X69125005Y-88062477D01*
X70136846Y-87644393D01*
X70911672Y-86870918D01*
X71331521Y-85859808D01*
X71332477Y-84764995D01*
X70914393Y-83753154D01*
X70140918Y-82978328D01*
X69129808Y-82558479D01*
X68034995Y-82557523D01*
X67023154Y-82975607D01*
X66248328Y-83749082D01*
X65828479Y-84760192D01*
X65827523Y-85855005D01*
X57517000Y-85855005D01*
X57517000Y-82421420D01*
X73224988Y-82421420D01*
X73305569Y-83083687D01*
X73403979Y-83321272D01*
X73709764Y-83384155D01*
X74543920Y-82550000D01*
X73709764Y-81715845D01*
X73403979Y-81778728D01*
X73224988Y-82421420D01*
X57517000Y-82421420D01*
X57517000Y-73985005D01*
X65827523Y-73985005D01*
X66245607Y-74996846D01*
X67019082Y-75771672D01*
X68030192Y-76191521D01*
X69125005Y-76192477D01*
X70136846Y-75774393D01*
X70911672Y-75000918D01*
X71329112Y-73995608D01*
X73253000Y-73995608D01*
X73253000Y-74425250D01*
X73484750Y-74657000D01*
X74657000Y-74657000D01*
X74657000Y-73484750D01*
X74425250Y-73253000D01*
X73995608Y-73253000D01*
X73654897Y-73394127D01*
X73394127Y-73654896D01*
X73253000Y-73995608D01*
X71329112Y-73995608D01*
X71331521Y-73989808D01*
X71332477Y-72894995D01*
X70958793Y-71990608D01*
X80138000Y-71990608D01*
X80138000Y-72520250D01*
X80369750Y-72752000D01*
X81642000Y-72752000D01*
X81642000Y-71479750D01*
X82188000Y-71479750D01*
X82188000Y-72752000D01*
X83460250Y-72752000D01*
X83692000Y-72520250D01*
X83692000Y-71990608D01*
X97283000Y-71990608D01*
X97283000Y-72520250D01*
X97514750Y-72752000D01*
X98787000Y-72752000D01*
X98787000Y-71479750D01*
X99333000Y-71479750D01*
X99333000Y-72752000D01*
X100605250Y-72752000D01*
X100837000Y-72520250D01*
X100837000Y-71990608D01*
X101093000Y-71990608D01*
X101093000Y-72520250D01*
X101324750Y-72752000D01*
X102597000Y-72752000D01*
X102597000Y-71479750D01*
X103143000Y-71479750D01*
X103143000Y-72752000D01*
X104415250Y-72752000D01*
X104647000Y-72520250D01*
X104647000Y-71990608D01*
X104505873Y-71649897D01*
X104245104Y-71389127D01*
X103904392Y-71248000D01*
X103374750Y-71248000D01*
X103143000Y-71479750D01*
X102597000Y-71479750D01*
X102365250Y-71248000D01*
X101835608Y-71248000D01*
X101494896Y-71389127D01*
X101234127Y-71649897D01*
X101093000Y-71990608D01*
X100837000Y-71990608D01*
X100695873Y-71649897D01*
X100435104Y-71389127D01*
X100094392Y-71248000D01*
X99564750Y-71248000D01*
X99333000Y-71479750D01*
X98787000Y-71479750D01*
X98555250Y-71248000D01*
X98025608Y-71248000D01*
X97684896Y-71389127D01*
X97424127Y-71649897D01*
X97283000Y-71990608D01*
X83692000Y-71990608D01*
X83550873Y-71649897D01*
X83290104Y-71389127D01*
X82949392Y-71248000D01*
X82419750Y-71248000D01*
X82188000Y-71479750D01*
X81642000Y-71479750D01*
X81410250Y-71248000D01*
X80880608Y-71248000D01*
X80539896Y-71389127D01*
X80279127Y-71649897D01*
X80138000Y-71990608D01*
X70958793Y-71990608D01*
X70914393Y-71883154D01*
X70140918Y-71108328D01*
X69129808Y-70688479D01*
X68034995Y-70687523D01*
X67023154Y-71105607D01*
X66248328Y-71879082D01*
X65828479Y-72890192D01*
X65827523Y-73985005D01*
X57517000Y-73985005D01*
X57517000Y-71853689D01*
X57652209Y-71173945D01*
X57981351Y-70681350D01*
X58473945Y-70352210D01*
X59153690Y-70217000D01*
X121793000Y-70217000D01*
X121793000Y-78273000D01*
G36*
X64535223Y-90155858D02*
X64521080Y-90170000D01*
X64535223Y-90184143D01*
X64149143Y-90570223D01*
X64135000Y-90556080D01*
X64120858Y-90570223D01*
X63734778Y-90184143D01*
X63748920Y-90170000D01*
X63734778Y-90155858D01*
X64120858Y-89769778D01*
X64135000Y-89783920D01*
X64149143Y-89769778D01*
X64535223Y-90155858D01*
X64535223Y-90155858D01*
G37*
X64535223Y-90155858D02*
X64521080Y-90170000D01*
X64535223Y-90184143D01*
X64149143Y-90570223D01*
X64135000Y-90556080D01*
X64120858Y-90570223D01*
X63734778Y-90184143D01*
X63748920Y-90170000D01*
X63734778Y-90155858D01*
X64120858Y-89769778D01*
X64135000Y-89783920D01*
X64149143Y-89769778D01*
X64535223Y-90155858D01*
M02*
