G04 #@! TF.FileFunction,Copper,L1,Top,Signal*
%FSLAX46Y46*%
G04 Gerber Fmt 4.6, Leading zero omitted, Abs format (unit mm)*
G04 Created by KiCad (PCBNEW 4.0.4-stable) date 08/15/17 16:15:30*
%MOMM*%
%LPD*%
G01*
G04 APERTURE LIST*
%ADD10C,0.100000*%
%ADD11R,1.270000X1.270000*%
%ADD12R,2.000000X1.600000*%
%ADD13R,1.800000X3.500000*%
%ADD14R,1.600000X2.000000*%
%ADD15R,3.500000X1.600000*%
%ADD16R,3.500000X1.800000*%
%ADD17R,1.700000X1.700000*%
%ADD18O,1.700000X1.700000*%
%ADD19C,5.999480*%
%ADD20R,2.200000X3.900000*%
%ADD21R,1.700000X2.000000*%
%ADD22R,2.000000X1.700000*%
%ADD23C,1.750000*%
%ADD24R,1.000000X0.285000*%
%ADD25R,2.400000X2.400000*%
%ADD26C,2.400000*%
%ADD27C,0.700000*%
%ADD28C,0.800000*%
%ADD29C,0.250000*%
%ADD30C,0.200000*%
G04 APERTURE END LIST*
D10*
D11*
X69913500Y47307500D03*
X69913500Y46037500D03*
X69913500Y44767500D03*
X69913500Y43497500D03*
X68643500Y47307500D03*
X68643500Y46037500D03*
X67373500Y46037500D03*
X67373500Y47307500D03*
X66103500Y47307500D03*
X66103500Y46037500D03*
X64833500Y46037500D03*
X64833500Y47307500D03*
X63563500Y47307500D03*
X63563500Y46037500D03*
X66103500Y44767500D03*
X67373500Y44767500D03*
X68643500Y44767500D03*
X68643500Y43497500D03*
X67373500Y43497500D03*
X66103500Y43497500D03*
X64833500Y43497500D03*
X64833500Y44767500D03*
X63563500Y44767500D03*
X63563500Y43497500D03*
D12*
X61309000Y47180500D03*
X57309000Y47180500D03*
D13*
X42735500Y55459000D03*
X42735500Y50459000D03*
D11*
X69913500Y30162500D03*
X69913500Y28892500D03*
X69913500Y27622500D03*
X69913500Y26352500D03*
X68643500Y30162500D03*
X68643500Y28892500D03*
X67373500Y28892500D03*
X67373500Y30162500D03*
X66103500Y30162500D03*
X66103500Y28892500D03*
X64833500Y28892500D03*
X64833500Y30162500D03*
X63563500Y30162500D03*
X63563500Y28892500D03*
X66103500Y27622500D03*
X67373500Y27622500D03*
X68643500Y27622500D03*
X68643500Y26352500D03*
X67373500Y26352500D03*
X66103500Y26352500D03*
X64833500Y26352500D03*
X64833500Y27622500D03*
X63563500Y27622500D03*
X63563500Y26352500D03*
D14*
X17653000Y54324000D03*
X17653000Y50324000D03*
X26543000Y31210000D03*
X26543000Y27210000D03*
X28448000Y31210000D03*
X28448000Y27210000D03*
X31432500Y45625000D03*
X31432500Y49625000D03*
X30353000Y31210000D03*
X30353000Y27210000D03*
X33655000Y45625000D03*
X33655000Y49625000D03*
D12*
X36544000Y24892000D03*
X32544000Y24892000D03*
D14*
X36322000Y34766000D03*
X36322000Y30766000D03*
X40259000Y49689000D03*
X40259000Y53689000D03*
D12*
X46831500Y45275500D03*
X50831500Y45275500D03*
X61245500Y30035500D03*
X57245500Y30035500D03*
X61372500Y13144500D03*
X57372500Y13144500D03*
D14*
X41275000Y18256000D03*
X41275000Y14256000D03*
X41275000Y24860000D03*
X41275000Y20860000D03*
D15*
X51531500Y49911000D03*
X46131500Y49911000D03*
D16*
X31155000Y54356000D03*
X36155000Y54356000D03*
D17*
X2921000Y24638000D03*
D18*
X2921000Y27178000D03*
X2921000Y29718000D03*
X2921000Y32258000D03*
X2921000Y34798000D03*
X2921000Y37338000D03*
D19*
X7112000Y8382000D03*
X7239000Y15113000D03*
D17*
X26416000Y52451000D03*
D18*
X26416000Y54991000D03*
D17*
X2921000Y54991000D03*
D18*
X2921000Y52451000D03*
X2921000Y49911000D03*
D20*
X49969500Y55753000D03*
X46169500Y55753000D03*
D17*
X2921000Y42164000D03*
D18*
X2921000Y44704000D03*
X2921000Y47244000D03*
D11*
X58928000Y49911000D03*
X58928000Y51181000D03*
X58928000Y52451000D03*
X58928000Y53721000D03*
X60198000Y49911000D03*
X60198000Y51181000D03*
X61468000Y51181000D03*
X61468000Y49911000D03*
X62738000Y49911000D03*
X62738000Y51181000D03*
X64008000Y51181000D03*
X64008000Y49911000D03*
X65278000Y49911000D03*
X65278000Y51181000D03*
X62738000Y52451000D03*
X61468000Y52451000D03*
X60198000Y52451000D03*
X60198000Y53721000D03*
X61468000Y53721000D03*
X62738000Y53721000D03*
X64008000Y53721000D03*
X64008000Y52451000D03*
X65278000Y52451000D03*
X65278000Y53721000D03*
X59182000Y32766000D03*
X59182000Y34036000D03*
X59182000Y35306000D03*
X59182000Y36576000D03*
X60452000Y32766000D03*
X60452000Y34036000D03*
X61722000Y34036000D03*
X61722000Y32766000D03*
X62992000Y32766000D03*
X62992000Y34036000D03*
X64262000Y34036000D03*
X64262000Y32766000D03*
X65532000Y32766000D03*
X65532000Y34036000D03*
X62992000Y35306000D03*
X61722000Y35306000D03*
X60452000Y35306000D03*
X60452000Y36576000D03*
X61722000Y36576000D03*
X62992000Y36576000D03*
X64262000Y36576000D03*
X64262000Y35306000D03*
X65532000Y35306000D03*
X65532000Y36576000D03*
X58991500Y15938500D03*
X58991500Y17208500D03*
X58991500Y18478500D03*
X58991500Y19748500D03*
X60261500Y15938500D03*
X60261500Y17208500D03*
X61531500Y17208500D03*
X61531500Y15938500D03*
X62801500Y15938500D03*
X62801500Y17208500D03*
X64071500Y17208500D03*
X64071500Y15938500D03*
X65341500Y15938500D03*
X65341500Y17208500D03*
X62801500Y18478500D03*
X61531500Y18478500D03*
X60261500Y18478500D03*
X60261500Y19748500D03*
X61531500Y19748500D03*
X62801500Y19748500D03*
X64071500Y19748500D03*
X64071500Y18478500D03*
X65341500Y18478500D03*
X65341500Y19748500D03*
X69977000Y13335000D03*
X69977000Y12065000D03*
X69977000Y10795000D03*
X69977000Y9525000D03*
X68707000Y13335000D03*
X68707000Y12065000D03*
X67437000Y12065000D03*
X67437000Y13335000D03*
X66167000Y13335000D03*
X66167000Y12065000D03*
X64897000Y12065000D03*
X64897000Y13335000D03*
X63627000Y13335000D03*
X63627000Y12065000D03*
X66167000Y10795000D03*
X67437000Y10795000D03*
X68707000Y10795000D03*
X68707000Y9525000D03*
X67437000Y9525000D03*
X66167000Y9525000D03*
X64897000Y9525000D03*
X64897000Y10795000D03*
X63627000Y10795000D03*
X63627000Y9525000D03*
D21*
X28956000Y42450000D03*
X28956000Y46450000D03*
X28956000Y35401500D03*
X28956000Y39401500D03*
X26733500Y39402000D03*
X26733500Y43402000D03*
X31305500Y35401500D03*
X31305500Y39401500D03*
X33655000Y35401500D03*
X33655000Y39401500D03*
D22*
X31591500Y43180000D03*
X35591500Y43180000D03*
D21*
X35877500Y45625000D03*
X35877500Y49625000D03*
D22*
X40227500Y45275500D03*
X44227500Y45275500D03*
X47593000Y15240000D03*
X43593000Y15240000D03*
X47593000Y17462500D03*
X43593000Y17462500D03*
X47593000Y21844000D03*
X43593000Y21844000D03*
X47593000Y23876000D03*
X43593000Y23876000D03*
X63913000Y41465500D03*
X67913000Y41465500D03*
X63913000Y24447500D03*
X67913000Y24447500D03*
X63976500Y7556500D03*
X67976500Y7556500D03*
D23*
X18669000Y42291000D03*
X18669000Y44831000D03*
X18669000Y47371000D03*
X18669000Y21971000D03*
X5969000Y52451000D03*
X5969000Y49911000D03*
X5969000Y47371000D03*
X5969000Y44831000D03*
X5969000Y42291000D03*
X5969000Y39751000D03*
X5969000Y37211000D03*
X5969000Y34671000D03*
X5969000Y32131000D03*
X5969000Y29591000D03*
X5969000Y27051000D03*
X5969000Y24511000D03*
X5969000Y21971000D03*
X21209000Y21971000D03*
X21209000Y24511000D03*
X21209000Y27051000D03*
X21209000Y29591000D03*
X21209000Y32131000D03*
X21209000Y34671000D03*
X21209000Y37211000D03*
X21209000Y39751000D03*
X21209000Y42291000D03*
X21209000Y44831000D03*
X21209000Y47371000D03*
X21209000Y49911000D03*
X21209000Y52451000D03*
X21209000Y54991000D03*
X5969000Y54991000D03*
D11*
X47561500Y33401000D03*
X47561500Y34671000D03*
X46291500Y34671000D03*
X46291500Y33401000D03*
X45021500Y33401000D03*
X45021500Y34671000D03*
X45021500Y39751000D03*
X45021500Y38481000D03*
X46291500Y38481000D03*
X46291500Y39751000D03*
X47561500Y39751000D03*
X47561500Y38481000D03*
X47561500Y35941000D03*
X47561500Y37211000D03*
X45021500Y37211000D03*
X45021500Y35941000D03*
X46291500Y35941000D03*
D24*
X42541500Y43326000D03*
X42541500Y42826000D03*
X42541500Y42326000D03*
X42541500Y41826000D03*
X42541500Y41326000D03*
X42541500Y40826000D03*
X42541500Y40326000D03*
X42541500Y39826000D03*
X42541500Y39326000D03*
X42541500Y38826000D03*
X42541500Y38326000D03*
X42541500Y37826000D03*
X42541500Y37326000D03*
X42541500Y36826000D03*
X42541500Y36326000D03*
X42541500Y35826000D03*
X42541500Y35326000D03*
X42541500Y34826000D03*
X42541500Y34326000D03*
X42541500Y33826000D03*
X42541500Y33326000D03*
X42541500Y32826000D03*
X42541500Y32326000D03*
X42541500Y31826000D03*
X42541500Y31326000D03*
X42541500Y30826000D03*
X42541500Y30326000D03*
X42541500Y29826000D03*
X50041500Y29826000D03*
X50041500Y30326000D03*
X50041500Y30826000D03*
X50041500Y31326000D03*
X50041500Y31826000D03*
X50041500Y32326000D03*
X50041500Y32826000D03*
X50041500Y33326000D03*
X50041500Y33826000D03*
X50041500Y34326000D03*
X50041500Y34826000D03*
X50041500Y35326000D03*
X50041500Y35826000D03*
X50041500Y36326000D03*
X50041500Y36826000D03*
X50041500Y37326000D03*
X50041500Y37826000D03*
X50041500Y38326000D03*
X50041500Y38826000D03*
X50041500Y39326000D03*
X50041500Y39826000D03*
X50041500Y40326000D03*
X50041500Y40826000D03*
X50041500Y41326000D03*
X50041500Y41826000D03*
X50041500Y42326000D03*
X50041500Y42826000D03*
X50041500Y43326000D03*
D11*
X46291500Y37211000D03*
D25*
X18161000Y14478000D03*
D26*
X18161000Y9478000D03*
D25*
X31496000Y14478000D03*
D26*
X31496000Y9478000D03*
D27*
X49403000Y28702000D03*
X51562000Y42164000D03*
X36155000Y54356000D03*
X28956000Y33528000D03*
D28*
X40259000Y49689000D03*
X42735500Y50459000D03*
X31432500Y49625000D03*
X46131500Y49911000D03*
D27*
X38163500Y27686000D03*
X41021000Y29337000D03*
X17907000Y24511000D03*
X59372500Y41846500D03*
X59309000Y24701500D03*
X59436000Y7937500D03*
X27686000Y48641000D03*
X35052000Y12065000D03*
X22860000Y12065000D03*
X35941000Y13208000D03*
X23749000Y12827000D03*
X34544000Y28448000D03*
X33909000Y27686000D03*
X24511000Y32131000D03*
D28*
X29210000Y48260000D03*
X49530000Y47625000D03*
D27*
X36703000Y27432000D03*
X40259000Y37592000D03*
X27559000Y34036000D03*
X52832000Y39052500D03*
X54800500Y43116500D03*
X55753000Y54483000D03*
X54102000Y36068000D03*
X56642000Y23876000D03*
X35179000Y29210000D03*
X16446500Y39814500D03*
X38227000Y35560000D03*
X37973000Y31623000D03*
X24955500Y38417500D03*
X40449500Y33083500D03*
X37782500Y30162500D03*
X37338000Y32385000D03*
X27114500Y45593000D03*
X38163500Y34607500D03*
X38227000Y33655000D03*
X15430500Y39306500D03*
X16192500Y49593500D03*
X37782500Y41148000D03*
X47752000Y25527000D03*
X51689000Y26797000D03*
X54292500Y31813500D03*
X54483000Y14859000D03*
X59309000Y46355000D03*
X56261000Y42926000D03*
X56134000Y39370000D03*
X48768000Y11176000D03*
X50419000Y11176000D03*
D29*
X32544000Y24892000D02*
X32544000Y26924000D01*
X32544000Y26924000D02*
X32258000Y27210000D01*
X32258000Y27210000D02*
X28448000Y27210000D01*
X28448000Y27210000D02*
X26543000Y27210000D01*
X38481000Y26924000D02*
X38481000Y23876000D01*
X38481000Y23876000D02*
X37719000Y23114000D01*
X42541500Y29826000D02*
X42541500Y28698500D01*
X42541500Y28698500D02*
X41656000Y27813000D01*
X41656000Y27813000D02*
X39370000Y27813000D01*
X39370000Y27813000D02*
X38481000Y26924000D01*
X37719000Y23114000D02*
X34322000Y23114000D01*
X34322000Y23114000D02*
X32544000Y24892000D01*
X42541500Y29826000D02*
X42399000Y29826000D01*
X42541500Y29826000D02*
X43415000Y29826000D01*
X43415000Y29826000D02*
X43688000Y30099000D01*
X43688000Y30099000D02*
X43688000Y31623000D01*
X43688000Y31623000D02*
X45021500Y32956500D01*
X45021500Y32956500D02*
X45021500Y33401000D01*
X17653000Y54324000D02*
X17685000Y54324000D01*
X17685000Y54324000D02*
X19558000Y52451000D01*
X19558000Y52451000D02*
X21209000Y52451000D01*
X28956000Y35401500D02*
X28956000Y33528000D01*
X40227500Y45275500D02*
X40227500Y49657500D01*
X40227500Y49657500D02*
X40259000Y49689000D01*
X43283500Y49911000D02*
X42735500Y50459000D01*
X35877500Y49625000D02*
X31432500Y49625000D01*
X28956000Y35401500D02*
X33655000Y35401500D01*
X42541500Y30326000D02*
X41629000Y30326000D01*
X41629000Y30326000D02*
X41021000Y29718000D01*
X41021000Y29718000D02*
X41021000Y29337000D01*
X36544000Y24892000D02*
X36544000Y26066500D01*
X36544000Y26066500D02*
X38163500Y27686000D01*
X36544000Y24987000D02*
X36544000Y24892000D01*
X2921000Y27178000D02*
X3556000Y27178000D01*
X3556000Y27178000D02*
X5969000Y29591000D01*
X17907000Y24511000D02*
X21209000Y24511000D01*
X2921000Y34798000D02*
X5842000Y34798000D01*
X5842000Y34798000D02*
X5969000Y34671000D01*
X17653000Y50324000D02*
X20796000Y50324000D01*
X20796000Y50324000D02*
X21209000Y49911000D01*
X2921000Y32258000D02*
X5842000Y32258000D01*
X5842000Y32258000D02*
X5969000Y32131000D01*
X63913000Y41465500D02*
X59753500Y41465500D01*
X59753500Y41465500D02*
X59372500Y41846500D01*
X63913000Y24447500D02*
X59563000Y24447500D01*
X59563000Y24447500D02*
X59309000Y24701500D01*
X63976500Y7556500D02*
X59817000Y7556500D01*
X59817000Y7556500D02*
X59436000Y7937500D01*
X28956000Y42450000D02*
X28956000Y39401500D01*
X42541500Y42326000D02*
X37881000Y42326000D01*
X33147000Y41783000D02*
X29623000Y41783000D01*
X33655000Y41275000D02*
X33147000Y41783000D01*
X36830000Y41275000D02*
X33655000Y41275000D01*
X37881000Y42326000D02*
X36830000Y41275000D01*
X29623000Y41783000D02*
X28956000Y42450000D01*
X28956000Y42450000D02*
X29241500Y42450000D01*
X26733500Y39402000D02*
X26733500Y38798500D01*
X26733500Y38798500D02*
X27495500Y38036500D01*
X27495500Y38036500D02*
X34671000Y38036500D01*
X34671000Y38036500D02*
X35960500Y39326000D01*
X35960500Y39326000D02*
X42541500Y39326000D01*
X42541500Y39326000D02*
X42541500Y38826000D01*
X61309000Y47180500D02*
X63436500Y47180500D01*
X63436500Y47180500D02*
X63563500Y47307500D01*
X50041500Y38326000D02*
X53185000Y38326000D01*
X53185000Y38326000D02*
X61309000Y46450000D01*
X61309000Y46450000D02*
X61309000Y47180500D01*
X61436000Y47307500D02*
X61309000Y47180500D01*
X61309000Y46513500D02*
X61309000Y47180500D01*
X61245500Y30035500D02*
X63436500Y30035500D01*
X63436500Y30035500D02*
X63563500Y30162500D01*
X50041500Y35826000D02*
X53264500Y35826000D01*
X59658000Y28448000D02*
X61245500Y30035500D01*
X56388000Y28448000D02*
X59658000Y28448000D01*
X55499000Y29337000D02*
X56388000Y28448000D01*
X55499000Y33591500D02*
X55499000Y29337000D01*
X53264500Y35826000D02*
X55499000Y33591500D01*
X61372500Y13144500D02*
X60007500Y13144500D01*
X60007500Y13144500D02*
X58801000Y11938000D01*
X58801000Y11938000D02*
X56134000Y11938000D01*
X56134000Y11938000D02*
X55880000Y12192000D01*
X55880000Y12192000D02*
X55880000Y14224000D01*
X55880000Y14224000D02*
X56769000Y15113000D01*
X56769000Y15113000D02*
X56769000Y22733000D01*
X56769000Y22733000D02*
X55753000Y23749000D01*
X55753000Y23749000D02*
X55753000Y24638000D01*
X55753000Y24638000D02*
X53340000Y27051000D01*
X53340000Y27051000D02*
X53340000Y29718000D01*
X53340000Y29718000D02*
X52578000Y30480000D01*
X52016602Y33326000D02*
X50041500Y33326000D01*
X61372500Y13144500D02*
X63436500Y13144500D01*
X63436500Y13144500D02*
X63627000Y13335000D01*
X52578000Y30480000D02*
X52578000Y32764602D01*
X52578000Y32764602D02*
X52016602Y33326000D01*
X42541500Y39826000D02*
X34079500Y39826000D01*
X34079500Y39826000D02*
X33655000Y39401500D01*
X27686000Y48641000D02*
X25146000Y46101000D01*
X25146000Y46101000D02*
X19939000Y46101000D01*
X19939000Y46101000D02*
X18669000Y44831000D01*
X35052000Y12065000D02*
X22860000Y12065000D01*
X35941000Y13208000D02*
X35560000Y12827000D01*
X35560000Y12827000D02*
X23749000Y12827000D01*
X41402000Y31326000D02*
X41168500Y31326000D01*
X41168500Y31326000D02*
X38798500Y28956000D01*
X38798500Y28956000D02*
X37528500Y28956000D01*
X37528500Y28956000D02*
X37274500Y28702000D01*
X37274500Y28702000D02*
X35687000Y28702000D01*
X35687000Y28702000D02*
X35433000Y28448000D01*
X35433000Y28448000D02*
X34544000Y28448000D01*
X41359000Y31326000D02*
X41402000Y31326000D01*
X41402000Y31326000D02*
X42541500Y31326000D01*
X41656000Y30826000D02*
X41367000Y30826000D01*
X41367000Y30826000D02*
X38989000Y28448000D01*
X38989000Y28448000D02*
X38608000Y28448000D01*
X33909000Y27686000D02*
X34798000Y27686000D01*
X34798000Y27686000D02*
X35052000Y27940000D01*
X35052000Y27940000D02*
X35687000Y27940000D01*
X35687000Y27940000D02*
X35941000Y28194000D01*
X35941000Y28194000D02*
X37465000Y28194000D01*
X37465000Y28194000D02*
X37719000Y28448000D01*
X37719000Y28448000D02*
X38544500Y28448000D01*
X38544500Y28448000D02*
X38608000Y28448000D01*
X42541500Y30826000D02*
X41656000Y30826000D01*
X41656000Y30826000D02*
X41621000Y30826000D01*
X41621000Y30826000D02*
X41621000Y30826000D01*
X21209000Y37211000D02*
X23749000Y37211000D01*
X23749000Y37211000D02*
X24511000Y36449000D01*
X24511000Y36449000D02*
X24511000Y32131000D01*
X26416000Y52451000D02*
X23749000Y52451000D01*
X23749000Y52451000D02*
X22479000Y53721000D01*
X22479000Y53721000D02*
X19939000Y53721000D01*
X19939000Y53721000D02*
X19304000Y54356000D01*
X19304000Y54356000D02*
X19304000Y55626000D01*
X19304000Y55626000D02*
X18923000Y56007000D01*
X18923000Y56007000D02*
X16256000Y56007000D01*
X16256000Y56007000D02*
X13970000Y53721000D01*
X13970000Y53721000D02*
X4191000Y53721000D01*
X4191000Y53721000D02*
X2921000Y54991000D01*
X26416000Y52451000D02*
X29250000Y52451000D01*
X29250000Y52451000D02*
X31155000Y54356000D01*
X29210000Y48260000D02*
X29210000Y49657000D01*
X29210000Y49657000D02*
X26416000Y52451000D01*
X51531500Y49911000D02*
X51531500Y49626500D01*
X51531500Y49626500D02*
X49530000Y47625000D01*
X28956000Y48006000D02*
X28956000Y46450000D01*
X29210000Y48260000D02*
X28956000Y48006000D01*
X28956000Y46450000D02*
X28956000Y45624500D01*
X28956000Y45624500D02*
X26733500Y43402000D01*
X51531500Y49911000D02*
X51531500Y51084500D01*
X49969500Y52646500D02*
X49969500Y55753000D01*
X51531500Y51084500D02*
X49969500Y52646500D01*
X52415000Y34326000D02*
X53594000Y33147000D01*
X53594000Y33147000D02*
X53594000Y31115000D01*
X53594000Y31115000D02*
X54483000Y30226000D01*
X54483000Y30226000D02*
X54483000Y27559000D01*
X54483000Y27559000D02*
X57372500Y24669500D01*
X50041500Y34326000D02*
X52415000Y34326000D01*
X57372500Y24669500D02*
X57372500Y13144500D01*
X26543000Y31210000D02*
X28448000Y31210000D01*
X35786000Y38326000D02*
X36258500Y38798500D01*
X36258500Y38798500D02*
X40957500Y38798500D01*
X40957500Y38798500D02*
X41430000Y38326000D01*
X41430000Y38326000D02*
X42541500Y38326000D01*
X35786000Y38326000D02*
X34798000Y37338000D01*
X34798000Y37338000D02*
X27686000Y37338000D01*
X27686000Y37338000D02*
X26479500Y36131500D01*
X26479500Y36131500D02*
X26479500Y31273500D01*
X26479500Y31305500D02*
X26479500Y31273500D01*
X42541500Y32326000D02*
X43620000Y32326000D01*
X42541500Y38326000D02*
X43596500Y38326000D01*
X43624500Y32321500D02*
X43620000Y32326000D01*
X43624500Y38298000D02*
X43624500Y32321500D01*
X43596500Y38326000D02*
X43624500Y38298000D01*
X31591500Y43180000D02*
X32829500Y43180000D01*
X37619000Y42826000D02*
X42541500Y42826000D01*
X36703000Y41910000D02*
X37619000Y42826000D01*
X34099500Y41910000D02*
X36703000Y41910000D01*
X32829500Y43180000D02*
X34099500Y41910000D01*
X31432500Y45625000D02*
X31432500Y43339000D01*
X31432500Y43339000D02*
X31591500Y43180000D01*
X30353000Y31210000D02*
X30353000Y30226000D01*
X30353000Y30226000D02*
X33655000Y26924000D01*
X33655000Y26924000D02*
X36195000Y26924000D01*
X36195000Y26924000D02*
X36703000Y27432000D01*
X40259000Y37592000D02*
X40525000Y37326000D01*
X40525000Y37326000D02*
X42541500Y37326000D01*
X33655000Y45625000D02*
X33655000Y43942000D01*
X34417000Y43180000D02*
X35591500Y43180000D01*
X33655000Y43942000D02*
X34417000Y43180000D01*
X42541500Y36826000D02*
X36826000Y36826000D01*
X36322000Y36322000D02*
X36322000Y34766000D01*
X36826000Y36826000D02*
X36322000Y36322000D01*
X42541500Y36326000D02*
X37596000Y36326000D01*
X36322000Y32385000D02*
X36322000Y30766000D01*
X37465000Y33528000D02*
X36322000Y32385000D01*
X37465000Y36195000D02*
X37465000Y33528000D01*
X37596000Y36326000D02*
X37465000Y36195000D01*
X42735500Y55459000D02*
X45875500Y55459000D01*
X42473500Y55721000D02*
X42735500Y55459000D01*
X50041500Y40826000D02*
X49217000Y40826000D01*
X46831500Y42195500D02*
X46831500Y45275500D01*
X47625000Y41402000D02*
X46831500Y42195500D01*
X48641000Y41402000D02*
X47625000Y41402000D01*
X49217000Y40826000D02*
X48641000Y41402000D01*
X46169500Y55753000D02*
X46169500Y54224000D01*
X46169500Y54224000D02*
X48831500Y51562000D01*
X48831500Y51562000D02*
X48831500Y48514000D01*
X48831500Y48514000D02*
X46831500Y46514000D01*
X46831500Y46514000D02*
X46831500Y45275500D01*
X46169500Y55753000D02*
X46169500Y54033500D01*
X45875500Y55459000D02*
X46169500Y55753000D01*
X50041500Y40326000D02*
X50041500Y40826000D01*
X50041500Y41326000D02*
X49353398Y41326000D01*
X48577500Y43942000D02*
X49911000Y45275500D01*
X48577500Y42101898D02*
X48577500Y43942000D01*
X49353398Y41326000D02*
X48577500Y42101898D01*
X49911000Y45275500D02*
X50831500Y45275500D01*
X50831500Y45275500D02*
X50038000Y45275500D01*
X50041500Y39326000D02*
X52026000Y39326000D01*
X55499000Y45370500D02*
X57309000Y47180500D01*
X55499000Y42799000D02*
X55499000Y45370500D01*
X52026000Y39326000D02*
X55499000Y42799000D01*
X57245500Y33940500D02*
X57245500Y30035500D01*
X54360000Y36826000D02*
X57245500Y33940500D01*
X50041500Y36826000D02*
X54360000Y36826000D01*
X45085000Y27940000D02*
X43434000Y27940000D01*
X43434000Y27940000D02*
X42291000Y26797000D01*
X42291000Y26797000D02*
X39878000Y26797000D01*
X39878000Y26797000D02*
X39497000Y26416000D01*
X50041500Y31326000D02*
X48471000Y31326000D01*
X39497000Y20034000D02*
X41275000Y18256000D01*
X39497000Y26416000D02*
X39497000Y20034000D01*
X48471000Y31326000D02*
X45085000Y27940000D01*
X43593000Y17462500D02*
X42068500Y17462500D01*
X42068500Y17462500D02*
X41275000Y18256000D01*
X44831000Y28448000D02*
X43180000Y28448000D01*
X43180000Y28448000D02*
X42037000Y27305000D01*
X42037000Y27305000D02*
X39624000Y27305000D01*
X39624000Y27305000D02*
X38989000Y26670000D01*
X50041500Y31826000D02*
X48209000Y31826000D01*
X38989000Y16542000D02*
X41275000Y14256000D01*
X38989000Y26670000D02*
X38989000Y16542000D01*
X48209000Y31826000D02*
X44831000Y28448000D01*
X43593000Y15240000D02*
X42259000Y15240000D01*
X42259000Y15240000D02*
X41275000Y14256000D01*
X48995000Y30326000D02*
X50041500Y30326000D01*
X45593000Y26924000D02*
X48995000Y30326000D01*
X41275000Y24860000D02*
X42005000Y24860000D01*
X42005000Y24860000D02*
X44069000Y26924000D01*
X44069000Y26924000D02*
X45593000Y26924000D01*
X43593000Y23876000D02*
X42259000Y23876000D01*
X42259000Y23876000D02*
X41275000Y24860000D01*
X45339000Y27432000D02*
X43688000Y27432000D01*
X43688000Y27432000D02*
X42545000Y26289000D01*
X42545000Y26289000D02*
X40132000Y26289000D01*
X40132000Y26289000D02*
X40005000Y26162000D01*
X41275000Y20860000D02*
X41275000Y21844000D01*
X41275000Y21844000D02*
X40005000Y23114000D01*
X48733000Y30826000D02*
X50041500Y30826000D01*
X45339000Y27432000D02*
X48733000Y30826000D01*
X40005000Y23114000D02*
X40005000Y26162000D01*
X43593000Y21844000D02*
X42259000Y21844000D01*
X42259000Y21844000D02*
X41275000Y20860000D01*
X26416000Y54991000D02*
X21209000Y54991000D01*
X42541500Y37826000D02*
X41168000Y37826000D01*
X41168000Y37826000D02*
X40703500Y38290500D01*
X40703500Y38290500D02*
X36512500Y38290500D01*
X36512500Y38290500D02*
X36048000Y37826000D01*
X36048000Y37826000D02*
X35052000Y36830000D01*
X35052000Y36830000D02*
X27940000Y36830000D01*
X27940000Y36830000D02*
X27559000Y36449000D01*
X27559000Y36449000D02*
X27559000Y34036000D01*
X2921000Y52451000D02*
X1905000Y52451000D01*
X1905000Y52451000D02*
X1397000Y51943000D01*
X1397000Y51943000D02*
X1397000Y48768000D01*
X1397000Y48768000D02*
X2921000Y47244000D01*
X42541500Y40326000D02*
X35239000Y40326000D01*
X32671000Y40767000D02*
X31305500Y39401500D01*
X34798000Y40767000D02*
X32671000Y40767000D01*
X35239000Y40326000D02*
X34798000Y40767000D01*
X35877500Y45625000D02*
X36195502Y45625000D01*
X36195502Y45625000D02*
X38494502Y43326000D01*
X38494502Y43326000D02*
X42541500Y43326000D01*
X44227500Y45275500D02*
X44227500Y43593000D01*
X48820000Y39826000D02*
X50041500Y39826000D01*
X48641000Y40005000D02*
X48820000Y39826000D01*
X48641000Y40576500D02*
X48641000Y40005000D01*
X48323500Y40894000D02*
X48641000Y40576500D01*
X46926500Y40894000D02*
X48323500Y40894000D01*
X44227500Y43593000D02*
X46926500Y40894000D01*
X52605500Y38826000D02*
X50041500Y38826000D01*
X52832000Y39052500D02*
X52605500Y38826000D01*
X54800500Y53530500D02*
X54800500Y43116500D01*
X55753000Y54483000D02*
X54800500Y53530500D01*
X50041500Y37826000D02*
X53510500Y37826000D01*
X66579500Y40132000D02*
X67913000Y41465500D01*
X55816500Y40132000D02*
X66579500Y40132000D01*
X53510500Y37826000D02*
X55816500Y40132000D01*
X50041500Y36326000D02*
X53844000Y36326000D01*
X53844000Y36326000D02*
X54102000Y36068000D01*
X53002500Y35326000D02*
X54991000Y33337500D01*
X54991000Y33337500D02*
X54991000Y28003500D01*
X54991000Y28003500D02*
X59880500Y23114000D01*
X59880500Y23114000D02*
X66579500Y23114000D01*
X50041500Y35326000D02*
X53002500Y35326000D01*
X66579500Y23114000D02*
X67849500Y24384000D01*
X52153000Y33826000D02*
X53086000Y32893000D01*
X53086000Y32893000D02*
X53086000Y30861000D01*
X53086000Y30861000D02*
X53975000Y29972000D01*
X53975000Y29972000D02*
X53975000Y27305000D01*
X53975000Y27305000D02*
X56642000Y24638000D01*
X56642000Y24638000D02*
X56642000Y23876000D01*
X50041500Y33826000D02*
X52153000Y33826000D01*
X51756000Y32826000D02*
X52070000Y32512000D01*
X52070000Y32512000D02*
X52070000Y30099000D01*
X52070000Y30099000D02*
X52832000Y29337000D01*
X52832000Y29337000D02*
X52832000Y26797000D01*
X52832000Y26797000D02*
X55245000Y24384000D01*
X55245000Y24384000D02*
X55245000Y23495000D01*
X55245000Y23495000D02*
X55372000Y23368000D01*
X55372000Y23368000D02*
X55372000Y10160000D01*
X55372000Y10160000D02*
X59436000Y6096000D01*
X59436000Y6096000D02*
X66516000Y6096000D01*
X50041500Y32826000D02*
X51756000Y32826000D01*
X66516000Y6096000D02*
X67976500Y7556500D01*
X41097000Y31826000D02*
X40970000Y31826000D01*
X40970000Y31826000D02*
X38608000Y29464000D01*
X38608000Y29464000D02*
X37338000Y29464000D01*
X37338000Y29464000D02*
X37084000Y29210000D01*
X37084000Y29210000D02*
X35179000Y29210000D01*
X42541500Y31826000D02*
X41097000Y31826000D01*
X16446500Y39814500D02*
X16446500Y46863000D01*
X16446500Y46863000D02*
X16954500Y47371000D01*
X16954500Y47371000D02*
X18669000Y47371000D01*
X42541500Y35826000D02*
X38493000Y35826000D01*
X38493000Y35826000D02*
X38227000Y35560000D01*
X42541500Y33826000D02*
X40176000Y33826000D01*
X40176000Y33826000D02*
X37973000Y31623000D01*
X8064500Y37211000D02*
X5969000Y37211000D01*
X9334500Y38481000D02*
X8064500Y37211000D01*
X24892000Y38481000D02*
X9334500Y38481000D01*
X24955500Y38417500D02*
X24892000Y38481000D01*
X40692000Y33326000D02*
X40449500Y33083500D01*
X42541500Y33326000D02*
X40692000Y33326000D01*
X42541500Y32826000D02*
X41208000Y32826000D01*
X38544500Y30162500D02*
X37782500Y30162500D01*
X41208000Y32826000D02*
X38544500Y30162500D01*
X42541500Y34326000D02*
X39914000Y34326000D01*
X37973000Y32385000D02*
X37338000Y32385000D01*
X39914000Y34326000D02*
X37973000Y32385000D01*
X26352500Y44831000D02*
X21209000Y44831000D01*
X27114500Y45593000D02*
X26352500Y44831000D01*
X38290500Y34607500D02*
X38163500Y34607500D01*
X39009000Y35326000D02*
X38290500Y34607500D01*
X42541500Y35326000D02*
X39009000Y35326000D01*
X38227000Y33655000D02*
X39398000Y34826000D01*
X39398000Y34826000D02*
X42541500Y34826000D01*
X42513500Y34798000D02*
X42541500Y34826000D01*
X42541500Y40826000D02*
X38104500Y40826000D01*
X15430500Y48831500D02*
X15430500Y39306500D01*
X16192500Y49593500D02*
X15430500Y48831500D01*
X38104500Y40826000D02*
X37782500Y41148000D01*
X47752000Y25527000D02*
X47593000Y25368000D01*
X47593000Y25368000D02*
X47593000Y23876000D01*
X47593000Y23876000D02*
X47593000Y24416000D01*
X47593000Y21844000D02*
X48514000Y21844000D01*
X48514000Y21844000D02*
X51689000Y25019000D01*
X51689000Y25019000D02*
X51689000Y26797000D01*
X54292500Y33274000D02*
X54292500Y31813500D01*
X52740500Y34826000D02*
X54292500Y33274000D01*
X50041500Y34826000D02*
X52740500Y34826000D01*
X54483000Y14859000D02*
X54737000Y15113000D01*
X54737000Y15113000D02*
X54737000Y24003000D01*
X54737000Y24003000D02*
X52381998Y26358002D01*
X52381998Y26358002D02*
X52381998Y29025002D01*
X52381998Y29025002D02*
X51435000Y29972000D01*
X51435000Y29972000D02*
X51435000Y32004000D01*
X51435000Y32004000D02*
X51113000Y32326000D01*
X51113000Y32326000D02*
X50041500Y32326000D01*
X50041500Y37326000D02*
X54090000Y37326000D01*
X59309000Y45974000D02*
X59309000Y46355000D01*
X56261000Y42926000D02*
X59309000Y45974000D01*
X54090000Y37326000D02*
X56134000Y39370000D01*
X47593000Y17462500D02*
X46672500Y17462500D01*
X46672500Y17462500D02*
X45974000Y16764000D01*
X45974000Y16764000D02*
X45974000Y13843000D01*
X45974000Y13843000D02*
X47498000Y12319000D01*
X47498000Y12319000D02*
X48387000Y12319000D01*
X48387000Y12319000D02*
X48768000Y11938000D01*
X48768000Y11938000D02*
X48768000Y11176000D01*
X47593000Y15240000D02*
X48895000Y15240000D01*
X50419000Y13716000D02*
X50419000Y11176000D01*
X48895000Y15240000D02*
X50419000Y13716000D01*
D30*
G36*
X72169195Y62857976D02*
X73058658Y62263655D01*
X73652976Y61374194D01*
X73870000Y60283139D01*
X73870000Y3216861D01*
X73652976Y2125806D01*
X73058658Y1236345D01*
X72169195Y642024D01*
X71078140Y425000D01*
X3216861Y425000D01*
X2125806Y642024D01*
X1236345Y1236342D01*
X642024Y2125805D01*
X510142Y2788823D01*
X36149662Y2788823D01*
X36445906Y2071857D01*
X36993971Y1522834D01*
X37710419Y1225339D01*
X38486177Y1224662D01*
X39203143Y1520906D01*
X39752166Y2068971D01*
X40049661Y2785419D01*
X40050338Y3561177D01*
X39754094Y4278143D01*
X39206029Y4827166D01*
X38489581Y5124661D01*
X37713823Y5125338D01*
X36996857Y4829094D01*
X36447834Y4281029D01*
X36150339Y3564581D01*
X36149662Y2788823D01*
X510142Y2788823D01*
X425000Y3216860D01*
X425000Y7718619D01*
X3761680Y7718619D01*
X4270573Y6487004D01*
X5212047Y5543885D01*
X6442772Y5032843D01*
X7775381Y5031680D01*
X9006996Y5540573D01*
X9950115Y6482047D01*
X10461157Y7712772D01*
X10462320Y9045381D01*
X10410400Y9171039D01*
X16610732Y9171039D01*
X16846208Y8601143D01*
X17281849Y8164740D01*
X17851333Y7928270D01*
X18467961Y7927732D01*
X19037857Y8163208D01*
X19474260Y8598849D01*
X19710730Y9168333D01*
X19710732Y9171039D01*
X29945732Y9171039D01*
X30181208Y8601143D01*
X30616849Y8164740D01*
X31186333Y7928270D01*
X31802961Y7927732D01*
X32372857Y8163208D01*
X32809260Y8598849D01*
X33045730Y9168333D01*
X33046268Y9784961D01*
X32810792Y10354857D01*
X32375151Y10791260D01*
X31805667Y11027730D01*
X31189039Y11028268D01*
X30619143Y10792792D01*
X30182740Y10357151D01*
X29946270Y9787667D01*
X29945732Y9171039D01*
X19710732Y9171039D01*
X19711268Y9784961D01*
X19475792Y10354857D01*
X19040151Y10791260D01*
X18470667Y11027730D01*
X17854039Y11028268D01*
X17284143Y10792792D01*
X16847740Y10357151D01*
X16611270Y9787667D01*
X16610732Y9171039D01*
X10410400Y9171039D01*
X9953427Y10276996D01*
X9011953Y11220115D01*
X7781228Y11731157D01*
X6448619Y11732320D01*
X5217004Y11223427D01*
X4273885Y10281953D01*
X3762843Y9051228D01*
X3761680Y7718619D01*
X425000Y7718619D01*
X425000Y11926372D01*
X22159879Y11926372D01*
X22266223Y11669000D01*
X22462964Y11471915D01*
X22720150Y11365122D01*
X22998628Y11364879D01*
X23256000Y11471223D01*
X23374985Y11590000D01*
X34537085Y11590000D01*
X34654964Y11471915D01*
X34912150Y11365122D01*
X35190628Y11364879D01*
X35448000Y11471223D01*
X35645085Y11667964D01*
X35751878Y11925150D01*
X35752121Y12203628D01*
X35680880Y12376044D01*
X35741775Y12388157D01*
X35895876Y12491124D01*
X35912777Y12508025D01*
X36079628Y12507879D01*
X36337000Y12614223D01*
X36534085Y12810964D01*
X36640878Y13068150D01*
X36641121Y13346628D01*
X36534777Y13604000D01*
X36338036Y13801085D01*
X36080850Y13907878D01*
X35802372Y13908121D01*
X35545000Y13801777D01*
X35347915Y13605036D01*
X35241122Y13347850D01*
X35241082Y13302000D01*
X32996000Y13302000D01*
X32996000Y14378000D01*
X32921000Y14453000D01*
X31521000Y14453000D01*
X31521000Y14433000D01*
X31471000Y14433000D01*
X31471000Y14453000D01*
X30071000Y14453000D01*
X29996000Y14378000D01*
X29996000Y13302000D01*
X24263915Y13302000D01*
X24146036Y13420085D01*
X23888850Y13526878D01*
X23610372Y13527121D01*
X23353000Y13420777D01*
X23155915Y13224036D01*
X23049122Y12966850D01*
X23048928Y12744499D01*
X22999850Y12764878D01*
X22721372Y12765121D01*
X22464000Y12658777D01*
X22266915Y12462036D01*
X22160122Y12204850D01*
X22159879Y11926372D01*
X425000Y11926372D01*
X425000Y14378000D01*
X16661000Y14378000D01*
X16661000Y13218326D01*
X16706672Y13108063D01*
X16791064Y13023672D01*
X16901327Y12978000D01*
X18061000Y12978000D01*
X18136000Y13053000D01*
X18136000Y14453000D01*
X18186000Y14453000D01*
X18186000Y13053000D01*
X18261000Y12978000D01*
X19420673Y12978000D01*
X19530936Y13023672D01*
X19615328Y13108063D01*
X19661000Y13218326D01*
X19661000Y14378000D01*
X19586000Y14453000D01*
X18186000Y14453000D01*
X18136000Y14453000D01*
X16736000Y14453000D01*
X16661000Y14378000D01*
X425000Y14378000D01*
X425000Y15737674D01*
X16661000Y15737674D01*
X16661000Y14578000D01*
X16736000Y14503000D01*
X18136000Y14503000D01*
X18136000Y15903000D01*
X18186000Y15903000D01*
X18186000Y14503000D01*
X19586000Y14503000D01*
X19661000Y14578000D01*
X19661000Y15737674D01*
X29996000Y15737674D01*
X29996000Y14578000D01*
X30071000Y14503000D01*
X31471000Y14503000D01*
X31471000Y15903000D01*
X31521000Y15903000D01*
X31521000Y14503000D01*
X32921000Y14503000D01*
X32996000Y14578000D01*
X32996000Y15737674D01*
X32950328Y15847937D01*
X32865936Y15932328D01*
X32755673Y15978000D01*
X31596000Y15978000D01*
X31521000Y15903000D01*
X31471000Y15903000D01*
X31396000Y15978000D01*
X30236327Y15978000D01*
X30126064Y15932328D01*
X30041672Y15847937D01*
X29996000Y15737674D01*
X19661000Y15737674D01*
X19615328Y15847937D01*
X19530936Y15932328D01*
X19420673Y15978000D01*
X18261000Y15978000D01*
X18186000Y15903000D01*
X18136000Y15903000D01*
X18061000Y15978000D01*
X16901327Y15978000D01*
X16791064Y15932328D01*
X16706672Y15847937D01*
X16661000Y15737674D01*
X425000Y15737674D01*
X425000Y18696000D01*
X24003000Y18696000D01*
X24041906Y18703879D01*
X24074681Y18726273D01*
X24096161Y18759654D01*
X24103000Y18796000D01*
X24103000Y31548898D01*
X24113964Y31537915D01*
X24371150Y31431122D01*
X24649628Y31430879D01*
X24907000Y31537223D01*
X25104085Y31733964D01*
X25210878Y31991150D01*
X25211121Y32269628D01*
X25104777Y32527000D01*
X24986000Y32645985D01*
X24986000Y36448995D01*
X24986001Y36449000D01*
X24949843Y36630774D01*
X24949843Y36630775D01*
X24846876Y36784876D01*
X24103000Y37528752D01*
X24103000Y38006000D01*
X24377196Y38006000D01*
X24558464Y37824415D01*
X24815650Y37717622D01*
X25094128Y37717379D01*
X25351500Y37823723D01*
X25548585Y38020464D01*
X25613109Y38175855D01*
X25627703Y38153175D01*
X25744663Y38073259D01*
X25883500Y38045144D01*
X26815104Y38045144D01*
X27159624Y37700624D01*
X27289855Y37613606D01*
X26143624Y36467376D01*
X26040657Y36313275D01*
X26004500Y36131500D01*
X26004500Y32566856D01*
X25743000Y32566856D01*
X25613298Y32542451D01*
X25494175Y32465797D01*
X25414259Y32348837D01*
X25386144Y32210000D01*
X25386144Y30210000D01*
X25410549Y30080298D01*
X25487203Y29961175D01*
X25604163Y29881259D01*
X25743000Y29853144D01*
X27343000Y29853144D01*
X27472702Y29877549D01*
X27494276Y29891431D01*
X27509163Y29881259D01*
X27648000Y29853144D01*
X29248000Y29853144D01*
X29377702Y29877549D01*
X29399276Y29891431D01*
X29414163Y29881259D01*
X29553000Y29853144D01*
X30054104Y29853144D01*
X32222248Y27685000D01*
X31509856Y27685000D01*
X31509856Y28210000D01*
X31485451Y28339702D01*
X31408797Y28458825D01*
X31291837Y28538741D01*
X31153000Y28566856D01*
X29553000Y28566856D01*
X29423298Y28542451D01*
X29401724Y28528569D01*
X29386837Y28538741D01*
X29248000Y28566856D01*
X27648000Y28566856D01*
X27518298Y28542451D01*
X27496724Y28528569D01*
X27481837Y28538741D01*
X27343000Y28566856D01*
X25743000Y28566856D01*
X25613298Y28542451D01*
X25494175Y28465797D01*
X25414259Y28348837D01*
X25386144Y28210000D01*
X25386144Y26210000D01*
X25410549Y26080298D01*
X25487203Y25961175D01*
X25604163Y25881259D01*
X25743000Y25853144D01*
X27343000Y25853144D01*
X27472702Y25877549D01*
X27494276Y25891431D01*
X27509163Y25881259D01*
X27648000Y25853144D01*
X29248000Y25853144D01*
X29377702Y25877549D01*
X29399276Y25891431D01*
X29414163Y25881259D01*
X29553000Y25853144D01*
X31153000Y25853144D01*
X31241935Y25869878D01*
X31215259Y25830837D01*
X31187144Y25692000D01*
X31187144Y24092000D01*
X31211549Y23962298D01*
X31288203Y23843175D01*
X31405163Y23763259D01*
X31544000Y23735144D01*
X33029104Y23735144D01*
X33986124Y22778124D01*
X34140225Y22675157D01*
X34170384Y22669158D01*
X34322000Y22638999D01*
X34322005Y22639000D01*
X37719000Y22639000D01*
X37900775Y22675157D01*
X38054876Y22778124D01*
X38514000Y23237248D01*
X38514000Y16542000D01*
X38550157Y16360225D01*
X38653124Y16206124D01*
X40118144Y14741104D01*
X40118144Y13256000D01*
X40142549Y13126298D01*
X40219203Y13007175D01*
X40336163Y12927259D01*
X40475000Y12899144D01*
X42075000Y12899144D01*
X42204702Y12923549D01*
X42323825Y13000203D01*
X42403741Y13117163D01*
X42431856Y13256000D01*
X42431856Y14076501D01*
X42454163Y14061259D01*
X42593000Y14033144D01*
X44593000Y14033144D01*
X44722702Y14057549D01*
X44841825Y14134203D01*
X44921741Y14251163D01*
X44949856Y14390000D01*
X44949856Y16090000D01*
X44925451Y16219702D01*
X44848797Y16338825D01*
X44831941Y16350343D01*
X44841825Y16356703D01*
X44921741Y16473663D01*
X44949856Y16612500D01*
X44949856Y16764000D01*
X45499000Y16764000D01*
X45499000Y13843000D01*
X45535157Y13661225D01*
X45638124Y13507124D01*
X47162122Y11983127D01*
X47162124Y11983124D01*
X47316225Y11880157D01*
X47498000Y11844000D01*
X48190248Y11844000D01*
X48293000Y11741249D01*
X48293000Y11690915D01*
X48174915Y11573036D01*
X48068122Y11315850D01*
X48067879Y11037372D01*
X48174223Y10780000D01*
X48370964Y10582915D01*
X48628150Y10476122D01*
X48906628Y10475879D01*
X49164000Y10582223D01*
X49361085Y10778964D01*
X49467878Y11036150D01*
X49468121Y11314628D01*
X49361777Y11572000D01*
X49243000Y11690985D01*
X49243000Y11938000D01*
X49206843Y12119775D01*
X49103876Y12273876D01*
X49103873Y12273878D01*
X48722876Y12654876D01*
X48568775Y12757843D01*
X48387000Y12794000D01*
X47694751Y12794000D01*
X46449000Y14039752D01*
X46449000Y14064787D01*
X46454163Y14061259D01*
X46593000Y14033144D01*
X48593000Y14033144D01*
X48722702Y14057549D01*
X48841825Y14134203D01*
X48921741Y14251163D01*
X48949856Y14390000D01*
X48949856Y14513392D01*
X49944000Y13519249D01*
X49944000Y11690915D01*
X49825915Y11573036D01*
X49719122Y11315850D01*
X49718879Y11037372D01*
X49825223Y10780000D01*
X50021964Y10582915D01*
X50279150Y10476122D01*
X50557628Y10475879D01*
X50815000Y10582223D01*
X51012085Y10778964D01*
X51118878Y11036150D01*
X51119121Y11314628D01*
X51012777Y11572000D01*
X50894000Y11690985D01*
X50894000Y13716000D01*
X50857843Y13897775D01*
X50754876Y14051876D01*
X50754873Y14051878D01*
X49230876Y15575876D01*
X49076775Y15678843D01*
X48949856Y15704089D01*
X48949856Y16090000D01*
X48925451Y16219702D01*
X48848797Y16338825D01*
X48831941Y16350343D01*
X48841825Y16356703D01*
X48921741Y16473663D01*
X48949856Y16612500D01*
X48949856Y18312500D01*
X48925451Y18442202D01*
X48848797Y18561325D01*
X48731837Y18641241D01*
X48593000Y18669356D01*
X46593000Y18669356D01*
X46463298Y18644951D01*
X46344175Y18568297D01*
X46264259Y18451337D01*
X46236144Y18312500D01*
X46236144Y17697896D01*
X45638124Y17099876D01*
X45535157Y16945775D01*
X45499000Y16764000D01*
X44949856Y16764000D01*
X44949856Y18312500D01*
X44925451Y18442202D01*
X44848797Y18561325D01*
X44731837Y18641241D01*
X44593000Y18669356D01*
X42593000Y18669356D01*
X42463298Y18644951D01*
X42431856Y18624719D01*
X42431856Y19256000D01*
X42407451Y19385702D01*
X42330797Y19504825D01*
X42252513Y19558315D01*
X42323825Y19604203D01*
X42403741Y19721163D01*
X42431856Y19860000D01*
X42431856Y20680501D01*
X42454163Y20665259D01*
X42593000Y20637144D01*
X44593000Y20637144D01*
X44722702Y20661549D01*
X44841825Y20738203D01*
X44921741Y20855163D01*
X44949856Y20994000D01*
X44949856Y22694000D01*
X44925451Y22823702D01*
X44902621Y22859180D01*
X44921741Y22887163D01*
X44949856Y23026000D01*
X44949856Y24726000D01*
X44925451Y24855702D01*
X44848797Y24974825D01*
X44731837Y25054741D01*
X44593000Y25082856D01*
X42899608Y25082856D01*
X44265752Y26449000D01*
X45593000Y26449000D01*
X45774775Y26485157D01*
X45928876Y26588124D01*
X49066751Y29726000D01*
X49241500Y29726000D01*
X49241500Y29623827D01*
X49287172Y29513564D01*
X49371563Y29429172D01*
X49481826Y29383500D01*
X49941500Y29383500D01*
X50016500Y29458500D01*
X50016500Y29801000D01*
X50066500Y29801000D01*
X50066500Y29458500D01*
X50141500Y29383500D01*
X50601174Y29383500D01*
X50711437Y29429172D01*
X50795828Y29513564D01*
X50841500Y29623827D01*
X50841500Y29726000D01*
X50766500Y29801000D01*
X50066500Y29801000D01*
X50016500Y29801000D01*
X49316500Y29801000D01*
X49241500Y29726000D01*
X49066751Y29726000D01*
X49191751Y29851000D01*
X49421226Y29851000D01*
X49541500Y29826644D01*
X50541500Y29826644D01*
X50670942Y29851000D01*
X50766500Y29851000D01*
X50841500Y29926000D01*
X50841500Y30002599D01*
X50870241Y30044663D01*
X50898356Y30183500D01*
X50898356Y30468500D01*
X50877386Y30579946D01*
X50898356Y30683500D01*
X50898356Y30968500D01*
X50877386Y31079946D01*
X50898356Y31183500D01*
X50898356Y31468500D01*
X50877386Y31579946D01*
X50898356Y31683500D01*
X50898356Y31851000D01*
X50916248Y31851000D01*
X50960000Y31807248D01*
X50960000Y29972000D01*
X50996157Y29790225D01*
X51099124Y29636124D01*
X51906998Y28828251D01*
X51906998Y27464428D01*
X51828850Y27496878D01*
X51550372Y27497121D01*
X51293000Y27390777D01*
X51095915Y27194036D01*
X50989122Y26936850D01*
X50988879Y26658372D01*
X51095223Y26401000D01*
X51214000Y26282015D01*
X51214000Y25215752D01*
X48930966Y22932718D01*
X48949856Y23026000D01*
X48949856Y24726000D01*
X48925451Y24855702D01*
X48848797Y24974825D01*
X48731837Y25054741D01*
X48593000Y25082856D01*
X48297895Y25082856D01*
X48345085Y25129964D01*
X48451878Y25387150D01*
X48452121Y25665628D01*
X48345777Y25923000D01*
X48149036Y26120085D01*
X47891850Y26226878D01*
X47613372Y26227121D01*
X47356000Y26120777D01*
X47158915Y25924036D01*
X47052122Y25666850D01*
X47051879Y25388372D01*
X47118000Y25228347D01*
X47118000Y25082856D01*
X46593000Y25082856D01*
X46463298Y25058451D01*
X46344175Y24981797D01*
X46264259Y24864837D01*
X46236144Y24726000D01*
X46236144Y23026000D01*
X46260549Y22896298D01*
X46283379Y22860820D01*
X46264259Y22832837D01*
X46236144Y22694000D01*
X46236144Y20994000D01*
X46260549Y20864298D01*
X46337203Y20745175D01*
X46454163Y20665259D01*
X46593000Y20637144D01*
X48593000Y20637144D01*
X48722702Y20661549D01*
X48841825Y20738203D01*
X48921741Y20855163D01*
X48949856Y20994000D01*
X48949856Y21608104D01*
X52024876Y24683124D01*
X52127843Y24837225D01*
X52164000Y25019000D01*
X52164000Y25904248D01*
X54262000Y23806248D01*
X54262000Y15525086D01*
X54087000Y15452777D01*
X53889915Y15256036D01*
X53783122Y14998850D01*
X53782879Y14720372D01*
X53889223Y14463000D01*
X54085964Y14265915D01*
X54343150Y14159122D01*
X54621628Y14158879D01*
X54879000Y14265223D01*
X54897000Y14283192D01*
X54897000Y10160000D01*
X54933157Y9978225D01*
X55036124Y9824124D01*
X59100124Y5760124D01*
X59254225Y5657157D01*
X59436000Y5621000D01*
X66516000Y5621000D01*
X66697775Y5657157D01*
X66851876Y5760124D01*
X67441396Y6349644D01*
X68976500Y6349644D01*
X69106202Y6374049D01*
X69225325Y6450703D01*
X69305241Y6567663D01*
X69333356Y6706500D01*
X69333356Y8406500D01*
X69309526Y8533144D01*
X70612000Y8533144D01*
X70741702Y8557549D01*
X70860825Y8634203D01*
X70940741Y8751163D01*
X70968856Y8890000D01*
X70968856Y13970000D01*
X70944451Y14099702D01*
X70867797Y14218825D01*
X70750837Y14298741D01*
X70612000Y14326856D01*
X62992000Y14326856D01*
X62862298Y14302451D01*
X62743175Y14225797D01*
X62673252Y14123463D01*
X62628297Y14193325D01*
X62511337Y14273241D01*
X62372500Y14301356D01*
X60372500Y14301356D01*
X60242798Y14276951D01*
X60123675Y14200297D01*
X60043759Y14083337D01*
X60015644Y13944500D01*
X60015644Y13619500D01*
X60007505Y13619500D01*
X60007500Y13619501D01*
X59855884Y13589342D01*
X59825725Y13583343D01*
X59671624Y13480376D01*
X59671622Y13480373D01*
X58729356Y12538108D01*
X58729356Y13944500D01*
X58704951Y14074202D01*
X58628297Y14193325D01*
X58511337Y14273241D01*
X58372500Y14301356D01*
X57847500Y14301356D01*
X57847500Y15838500D01*
X58056500Y15838500D01*
X58056500Y15243827D01*
X58102172Y15133564D01*
X58186563Y15049172D01*
X58296826Y15003500D01*
X58891500Y15003500D01*
X58966500Y15078500D01*
X58966500Y15913500D01*
X59016500Y15913500D01*
X59016500Y15078500D01*
X59091500Y15003500D01*
X60161500Y15003500D01*
X60236500Y15078500D01*
X60236500Y15913500D01*
X60286500Y15913500D01*
X60286500Y15078500D01*
X60361500Y15003500D01*
X61431500Y15003500D01*
X61506500Y15078500D01*
X61506500Y15913500D01*
X61556500Y15913500D01*
X61556500Y15078500D01*
X61631500Y15003500D01*
X62701500Y15003500D01*
X62776500Y15078500D01*
X62776500Y15913500D01*
X62826500Y15913500D01*
X62826500Y15078500D01*
X62901500Y15003500D01*
X63971500Y15003500D01*
X64046500Y15078500D01*
X64046500Y15913500D01*
X64096500Y15913500D01*
X64096500Y15078500D01*
X64171500Y15003500D01*
X65241500Y15003500D01*
X65316500Y15078500D01*
X65316500Y15913500D01*
X65366500Y15913500D01*
X65366500Y15078500D01*
X65441500Y15003500D01*
X66036174Y15003500D01*
X66146437Y15049172D01*
X66230828Y15133564D01*
X66276500Y15243827D01*
X66276500Y15838500D01*
X66201500Y15913500D01*
X65366500Y15913500D01*
X65316500Y15913500D01*
X64096500Y15913500D01*
X64046500Y15913500D01*
X62826500Y15913500D01*
X62776500Y15913500D01*
X61556500Y15913500D01*
X61506500Y15913500D01*
X60286500Y15913500D01*
X60236500Y15913500D01*
X59016500Y15913500D01*
X58966500Y15913500D01*
X58131500Y15913500D01*
X58056500Y15838500D01*
X57847500Y15838500D01*
X57847500Y17108500D01*
X58056500Y17108500D01*
X58056500Y16038500D01*
X58131500Y15963500D01*
X58966500Y15963500D01*
X58966500Y17183500D01*
X59016500Y17183500D01*
X59016500Y15963500D01*
X60236500Y15963500D01*
X60236500Y17183500D01*
X60286500Y17183500D01*
X60286500Y15963500D01*
X61506500Y15963500D01*
X61506500Y17183500D01*
X61556500Y17183500D01*
X61556500Y15963500D01*
X62776500Y15963500D01*
X62776500Y17183500D01*
X62826500Y17183500D01*
X62826500Y15963500D01*
X64046500Y15963500D01*
X64046500Y17183500D01*
X64096500Y17183500D01*
X64096500Y15963500D01*
X65316500Y15963500D01*
X65316500Y17183500D01*
X65366500Y17183500D01*
X65366500Y15963500D01*
X66201500Y15963500D01*
X66276500Y16038500D01*
X66276500Y17108500D01*
X66201500Y17183500D01*
X65366500Y17183500D01*
X65316500Y17183500D01*
X64096500Y17183500D01*
X64046500Y17183500D01*
X62826500Y17183500D01*
X62776500Y17183500D01*
X61556500Y17183500D01*
X61506500Y17183500D01*
X60286500Y17183500D01*
X60236500Y17183500D01*
X59016500Y17183500D01*
X58966500Y17183500D01*
X58131500Y17183500D01*
X58056500Y17108500D01*
X57847500Y17108500D01*
X57847500Y18378500D01*
X58056500Y18378500D01*
X58056500Y17308500D01*
X58131500Y17233500D01*
X58966500Y17233500D01*
X58966500Y18453500D01*
X59016500Y18453500D01*
X59016500Y17233500D01*
X60236500Y17233500D01*
X60236500Y18453500D01*
X60286500Y18453500D01*
X60286500Y17233500D01*
X61506500Y17233500D01*
X61506500Y18453500D01*
X61556500Y18453500D01*
X61556500Y17233500D01*
X62776500Y17233500D01*
X62776500Y18453500D01*
X62826500Y18453500D01*
X62826500Y17233500D01*
X64046500Y17233500D01*
X64046500Y18453500D01*
X64096500Y18453500D01*
X64096500Y17233500D01*
X65316500Y17233500D01*
X65316500Y18453500D01*
X65366500Y18453500D01*
X65366500Y17233500D01*
X66201500Y17233500D01*
X66276500Y17308500D01*
X66276500Y18378500D01*
X66201500Y18453500D01*
X65366500Y18453500D01*
X65316500Y18453500D01*
X64096500Y18453500D01*
X64046500Y18453500D01*
X62826500Y18453500D01*
X62776500Y18453500D01*
X61556500Y18453500D01*
X61506500Y18453500D01*
X60286500Y18453500D01*
X60236500Y18453500D01*
X59016500Y18453500D01*
X58966500Y18453500D01*
X58131500Y18453500D01*
X58056500Y18378500D01*
X57847500Y18378500D01*
X57847500Y19648500D01*
X58056500Y19648500D01*
X58056500Y18578500D01*
X58131500Y18503500D01*
X58966500Y18503500D01*
X58966500Y19723500D01*
X59016500Y19723500D01*
X59016500Y18503500D01*
X60236500Y18503500D01*
X60236500Y19723500D01*
X60286500Y19723500D01*
X60286500Y18503500D01*
X61506500Y18503500D01*
X61506500Y19723500D01*
X61556500Y19723500D01*
X61556500Y18503500D01*
X62776500Y18503500D01*
X62776500Y19723500D01*
X62826500Y19723500D01*
X62826500Y18503500D01*
X64046500Y18503500D01*
X64046500Y19723500D01*
X64096500Y19723500D01*
X64096500Y18503500D01*
X65316500Y18503500D01*
X65316500Y19723500D01*
X65366500Y19723500D01*
X65366500Y18503500D01*
X66201500Y18503500D01*
X66276500Y18578500D01*
X66276500Y19648500D01*
X66201500Y19723500D01*
X65366500Y19723500D01*
X65316500Y19723500D01*
X64096500Y19723500D01*
X64046500Y19723500D01*
X62826500Y19723500D01*
X62776500Y19723500D01*
X61556500Y19723500D01*
X61506500Y19723500D01*
X60286500Y19723500D01*
X60236500Y19723500D01*
X59016500Y19723500D01*
X58966500Y19723500D01*
X58131500Y19723500D01*
X58056500Y19648500D01*
X57847500Y19648500D01*
X57847500Y20443173D01*
X58056500Y20443173D01*
X58056500Y19848500D01*
X58131500Y19773500D01*
X58966500Y19773500D01*
X58966500Y20608500D01*
X59016500Y20608500D01*
X59016500Y19773500D01*
X60236500Y19773500D01*
X60236500Y20608500D01*
X60286500Y20608500D01*
X60286500Y19773500D01*
X61506500Y19773500D01*
X61506500Y20608500D01*
X61556500Y20608500D01*
X61556500Y19773500D01*
X62776500Y19773500D01*
X62776500Y20608500D01*
X62826500Y20608500D01*
X62826500Y19773500D01*
X64046500Y19773500D01*
X64046500Y20608500D01*
X64096500Y20608500D01*
X64096500Y19773500D01*
X65316500Y19773500D01*
X65316500Y20608500D01*
X65366500Y20608500D01*
X65366500Y19773500D01*
X66201500Y19773500D01*
X66276500Y19848500D01*
X66276500Y20443173D01*
X66230828Y20553436D01*
X66146437Y20637828D01*
X66036174Y20683500D01*
X65441500Y20683500D01*
X65366500Y20608500D01*
X65316500Y20608500D01*
X65241500Y20683500D01*
X64171500Y20683500D01*
X64096500Y20608500D01*
X64046500Y20608500D01*
X63971500Y20683500D01*
X62901500Y20683500D01*
X62826500Y20608500D01*
X62776500Y20608500D01*
X62701500Y20683500D01*
X61631500Y20683500D01*
X61556500Y20608500D01*
X61506500Y20608500D01*
X61431500Y20683500D01*
X60361500Y20683500D01*
X60286500Y20608500D01*
X60236500Y20608500D01*
X60161500Y20683500D01*
X59091500Y20683500D01*
X59016500Y20608500D01*
X58966500Y20608500D01*
X58891500Y20683500D01*
X58296826Y20683500D01*
X58186563Y20637828D01*
X58102172Y20553436D01*
X58056500Y20443173D01*
X57847500Y20443173D01*
X57847500Y24475248D01*
X59544624Y22778124D01*
X59698725Y22675157D01*
X59880500Y22639000D01*
X66579500Y22639000D01*
X66761275Y22675157D01*
X66915376Y22778124D01*
X67377896Y23240644D01*
X68913000Y23240644D01*
X69042702Y23265049D01*
X69161825Y23341703D01*
X69241741Y23458663D01*
X69269856Y23597500D01*
X69269856Y25297500D01*
X69257975Y25360644D01*
X70548500Y25360644D01*
X70678202Y25385049D01*
X70797325Y25461703D01*
X70877241Y25578663D01*
X70905356Y25717500D01*
X70905356Y30797500D01*
X70880951Y30927202D01*
X70804297Y31046325D01*
X70687337Y31126241D01*
X70548500Y31154356D01*
X62928500Y31154356D01*
X62798798Y31129951D01*
X62679675Y31053297D01*
X62599759Y30936337D01*
X62591270Y30894417D01*
X62577951Y30965202D01*
X62501297Y31084325D01*
X62384337Y31164241D01*
X62245500Y31192356D01*
X60245500Y31192356D01*
X60115798Y31167951D01*
X59996675Y31091297D01*
X59916759Y30974337D01*
X59888644Y30835500D01*
X59888644Y29350396D01*
X59461248Y28923000D01*
X58406207Y28923000D01*
X58494325Y28979703D01*
X58574241Y29096663D01*
X58602356Y29235500D01*
X58602356Y30835500D01*
X58577951Y30965202D01*
X58501297Y31084325D01*
X58384337Y31164241D01*
X58245500Y31192356D01*
X57720500Y31192356D01*
X57720500Y32666000D01*
X58247000Y32666000D01*
X58247000Y32071327D01*
X58292672Y31961064D01*
X58377063Y31876672D01*
X58487326Y31831000D01*
X59082000Y31831000D01*
X59157000Y31906000D01*
X59157000Y32741000D01*
X59207000Y32741000D01*
X59207000Y31906000D01*
X59282000Y31831000D01*
X60352000Y31831000D01*
X60427000Y31906000D01*
X60427000Y32741000D01*
X60477000Y32741000D01*
X60477000Y31906000D01*
X60552000Y31831000D01*
X61622000Y31831000D01*
X61697000Y31906000D01*
X61697000Y32741000D01*
X61747000Y32741000D01*
X61747000Y31906000D01*
X61822000Y31831000D01*
X62892000Y31831000D01*
X62967000Y31906000D01*
X62967000Y32741000D01*
X63017000Y32741000D01*
X63017000Y31906000D01*
X63092000Y31831000D01*
X64162000Y31831000D01*
X64237000Y31906000D01*
X64237000Y32741000D01*
X64287000Y32741000D01*
X64287000Y31906000D01*
X64362000Y31831000D01*
X65432000Y31831000D01*
X65507000Y31906000D01*
X65507000Y32741000D01*
X65557000Y32741000D01*
X65557000Y31906000D01*
X65632000Y31831000D01*
X66226674Y31831000D01*
X66336937Y31876672D01*
X66421328Y31961064D01*
X66467000Y32071327D01*
X66467000Y32666000D01*
X66392000Y32741000D01*
X65557000Y32741000D01*
X65507000Y32741000D01*
X64287000Y32741000D01*
X64237000Y32741000D01*
X63017000Y32741000D01*
X62967000Y32741000D01*
X61747000Y32741000D01*
X61697000Y32741000D01*
X60477000Y32741000D01*
X60427000Y32741000D01*
X59207000Y32741000D01*
X59157000Y32741000D01*
X58322000Y32741000D01*
X58247000Y32666000D01*
X57720500Y32666000D01*
X57720500Y33936000D01*
X58247000Y33936000D01*
X58247000Y32866000D01*
X58322000Y32791000D01*
X59157000Y32791000D01*
X59157000Y34011000D01*
X59207000Y34011000D01*
X59207000Y32791000D01*
X60427000Y32791000D01*
X60427000Y34011000D01*
X60477000Y34011000D01*
X60477000Y32791000D01*
X61697000Y32791000D01*
X61697000Y34011000D01*
X61747000Y34011000D01*
X61747000Y32791000D01*
X62967000Y32791000D01*
X62967000Y34011000D01*
X63017000Y34011000D01*
X63017000Y32791000D01*
X64237000Y32791000D01*
X64237000Y34011000D01*
X64287000Y34011000D01*
X64287000Y32791000D01*
X65507000Y32791000D01*
X65507000Y34011000D01*
X65557000Y34011000D01*
X65557000Y32791000D01*
X66392000Y32791000D01*
X66467000Y32866000D01*
X66467000Y33936000D01*
X66392000Y34011000D01*
X65557000Y34011000D01*
X65507000Y34011000D01*
X64287000Y34011000D01*
X64237000Y34011000D01*
X63017000Y34011000D01*
X62967000Y34011000D01*
X61747000Y34011000D01*
X61697000Y34011000D01*
X60477000Y34011000D01*
X60427000Y34011000D01*
X59207000Y34011000D01*
X59157000Y34011000D01*
X58322000Y34011000D01*
X58247000Y33936000D01*
X57720500Y33936000D01*
X57720500Y33940500D01*
X57684343Y34122275D01*
X57581376Y34276376D01*
X56651752Y35206000D01*
X58247000Y35206000D01*
X58247000Y34136000D01*
X58322000Y34061000D01*
X59157000Y34061000D01*
X59157000Y35281000D01*
X59207000Y35281000D01*
X59207000Y34061000D01*
X60427000Y34061000D01*
X60427000Y35281000D01*
X60477000Y35281000D01*
X60477000Y34061000D01*
X61697000Y34061000D01*
X61697000Y35281000D01*
X61747000Y35281000D01*
X61747000Y34061000D01*
X62967000Y34061000D01*
X62967000Y35281000D01*
X63017000Y35281000D01*
X63017000Y34061000D01*
X64237000Y34061000D01*
X64237000Y35281000D01*
X64287000Y35281000D01*
X64287000Y34061000D01*
X65507000Y34061000D01*
X65507000Y35281000D01*
X65557000Y35281000D01*
X65557000Y34061000D01*
X66392000Y34061000D01*
X66467000Y34136000D01*
X66467000Y35206000D01*
X66392000Y35281000D01*
X65557000Y35281000D01*
X65507000Y35281000D01*
X64287000Y35281000D01*
X64237000Y35281000D01*
X63017000Y35281000D01*
X62967000Y35281000D01*
X61747000Y35281000D01*
X61697000Y35281000D01*
X60477000Y35281000D01*
X60427000Y35281000D01*
X59207000Y35281000D01*
X59157000Y35281000D01*
X58322000Y35281000D01*
X58247000Y35206000D01*
X56651752Y35206000D01*
X55381752Y36476000D01*
X58247000Y36476000D01*
X58247000Y35406000D01*
X58322000Y35331000D01*
X59157000Y35331000D01*
X59157000Y36551000D01*
X59207000Y36551000D01*
X59207000Y35331000D01*
X60427000Y35331000D01*
X60427000Y36551000D01*
X60477000Y36551000D01*
X60477000Y35331000D01*
X61697000Y35331000D01*
X61697000Y36551000D01*
X61747000Y36551000D01*
X61747000Y35331000D01*
X62967000Y35331000D01*
X62967000Y36551000D01*
X63017000Y36551000D01*
X63017000Y35331000D01*
X64237000Y35331000D01*
X64237000Y36551000D01*
X64287000Y36551000D01*
X64287000Y35331000D01*
X65507000Y35331000D01*
X65507000Y36551000D01*
X65557000Y36551000D01*
X65557000Y35331000D01*
X66392000Y35331000D01*
X66467000Y35406000D01*
X66467000Y36476000D01*
X66392000Y36551000D01*
X65557000Y36551000D01*
X65507000Y36551000D01*
X64287000Y36551000D01*
X64237000Y36551000D01*
X63017000Y36551000D01*
X62967000Y36551000D01*
X61747000Y36551000D01*
X61697000Y36551000D01*
X60477000Y36551000D01*
X60427000Y36551000D01*
X59207000Y36551000D01*
X59157000Y36551000D01*
X58322000Y36551000D01*
X58247000Y36476000D01*
X55381752Y36476000D01*
X54695876Y37161876D01*
X54636981Y37201229D01*
X54706424Y37270673D01*
X58247000Y37270673D01*
X58247000Y36676000D01*
X58322000Y36601000D01*
X59157000Y36601000D01*
X59157000Y37436000D01*
X59207000Y37436000D01*
X59207000Y36601000D01*
X60427000Y36601000D01*
X60427000Y37436000D01*
X60477000Y37436000D01*
X60477000Y36601000D01*
X61697000Y36601000D01*
X61697000Y37436000D01*
X61747000Y37436000D01*
X61747000Y36601000D01*
X62967000Y36601000D01*
X62967000Y37436000D01*
X63017000Y37436000D01*
X63017000Y36601000D01*
X64237000Y36601000D01*
X64237000Y37436000D01*
X64287000Y37436000D01*
X64287000Y36601000D01*
X65507000Y36601000D01*
X65507000Y37436000D01*
X65557000Y37436000D01*
X65557000Y36601000D01*
X66392000Y36601000D01*
X66467000Y36676000D01*
X66467000Y37270673D01*
X66421328Y37380936D01*
X66336937Y37465328D01*
X66226674Y37511000D01*
X65632000Y37511000D01*
X65557000Y37436000D01*
X65507000Y37436000D01*
X65432000Y37511000D01*
X64362000Y37511000D01*
X64287000Y37436000D01*
X64237000Y37436000D01*
X64162000Y37511000D01*
X63092000Y37511000D01*
X63017000Y37436000D01*
X62967000Y37436000D01*
X62892000Y37511000D01*
X61822000Y37511000D01*
X61747000Y37436000D01*
X61697000Y37436000D01*
X61622000Y37511000D01*
X60552000Y37511000D01*
X60477000Y37436000D01*
X60427000Y37436000D01*
X60352000Y37511000D01*
X59282000Y37511000D01*
X59207000Y37436000D01*
X59157000Y37436000D01*
X59082000Y37511000D01*
X58487326Y37511000D01*
X58377063Y37465328D01*
X58292672Y37380936D01*
X58247000Y37270673D01*
X54706424Y37270673D01*
X56105776Y38670025D01*
X56272628Y38669879D01*
X56530000Y38776223D01*
X56727085Y38972964D01*
X56833878Y39230150D01*
X56834121Y39508628D01*
X56772815Y39657000D01*
X66579500Y39657000D01*
X66761275Y39693157D01*
X66915376Y39796124D01*
X67377896Y40258644D01*
X68913000Y40258644D01*
X69042702Y40283049D01*
X69161825Y40359703D01*
X69241741Y40476663D01*
X69269856Y40615500D01*
X69269856Y42315500D01*
X69245451Y42445202D01*
X69206557Y42505644D01*
X70548500Y42505644D01*
X70678202Y42530049D01*
X70797325Y42606703D01*
X70877241Y42723663D01*
X70905356Y42862500D01*
X70905356Y47942500D01*
X70880951Y48072202D01*
X70804297Y48191325D01*
X70687337Y48271241D01*
X70548500Y48299356D01*
X62928500Y48299356D01*
X62798798Y48274951D01*
X62679675Y48198297D01*
X62630796Y48126761D01*
X62564797Y48229325D01*
X62447837Y48309241D01*
X62309000Y48337356D01*
X60309000Y48337356D01*
X60179298Y48312951D01*
X60060175Y48236297D01*
X59980259Y48119337D01*
X59952144Y47980500D01*
X59952144Y46631523D01*
X59902777Y46751000D01*
X59706036Y46948085D01*
X59448850Y47054878D01*
X59170372Y47055121D01*
X58913000Y46948777D01*
X58715915Y46752036D01*
X58665856Y46631481D01*
X58665856Y47980500D01*
X58641451Y48110202D01*
X58564797Y48229325D01*
X58447837Y48309241D01*
X58309000Y48337356D01*
X56309000Y48337356D01*
X56179298Y48312951D01*
X56060175Y48236297D01*
X55980259Y48119337D01*
X55952144Y47980500D01*
X55952144Y46495396D01*
X55275500Y45818752D01*
X55275500Y49811000D01*
X57993000Y49811000D01*
X57993000Y49216327D01*
X58038672Y49106064D01*
X58123063Y49021672D01*
X58233326Y48976000D01*
X58828000Y48976000D01*
X58903000Y49051000D01*
X58903000Y49886000D01*
X58953000Y49886000D01*
X58953000Y49051000D01*
X59028000Y48976000D01*
X60098000Y48976000D01*
X60173000Y49051000D01*
X60173000Y49886000D01*
X60223000Y49886000D01*
X60223000Y49051000D01*
X60298000Y48976000D01*
X61368000Y48976000D01*
X61443000Y49051000D01*
X61443000Y49886000D01*
X61493000Y49886000D01*
X61493000Y49051000D01*
X61568000Y48976000D01*
X62638000Y48976000D01*
X62713000Y49051000D01*
X62713000Y49886000D01*
X62763000Y49886000D01*
X62763000Y49051000D01*
X62838000Y48976000D01*
X63908000Y48976000D01*
X63983000Y49051000D01*
X63983000Y49886000D01*
X64033000Y49886000D01*
X64033000Y49051000D01*
X64108000Y48976000D01*
X65178000Y48976000D01*
X65253000Y49051000D01*
X65253000Y49886000D01*
X65303000Y49886000D01*
X65303000Y49051000D01*
X65378000Y48976000D01*
X65972674Y48976000D01*
X66082937Y49021672D01*
X66167328Y49106064D01*
X66213000Y49216327D01*
X66213000Y49811000D01*
X66138000Y49886000D01*
X65303000Y49886000D01*
X65253000Y49886000D01*
X64033000Y49886000D01*
X63983000Y49886000D01*
X62763000Y49886000D01*
X62713000Y49886000D01*
X61493000Y49886000D01*
X61443000Y49886000D01*
X60223000Y49886000D01*
X60173000Y49886000D01*
X58953000Y49886000D01*
X58903000Y49886000D01*
X58068000Y49886000D01*
X57993000Y49811000D01*
X55275500Y49811000D01*
X55275500Y51081000D01*
X57993000Y51081000D01*
X57993000Y50011000D01*
X58068000Y49936000D01*
X58903000Y49936000D01*
X58903000Y51156000D01*
X58953000Y51156000D01*
X58953000Y49936000D01*
X60173000Y49936000D01*
X60173000Y51156000D01*
X60223000Y51156000D01*
X60223000Y49936000D01*
X61443000Y49936000D01*
X61443000Y51156000D01*
X61493000Y51156000D01*
X61493000Y49936000D01*
X62713000Y49936000D01*
X62713000Y51156000D01*
X62763000Y51156000D01*
X62763000Y49936000D01*
X63983000Y49936000D01*
X63983000Y51156000D01*
X64033000Y51156000D01*
X64033000Y49936000D01*
X65253000Y49936000D01*
X65253000Y51156000D01*
X65303000Y51156000D01*
X65303000Y49936000D01*
X66138000Y49936000D01*
X66213000Y50011000D01*
X66213000Y51081000D01*
X66138000Y51156000D01*
X65303000Y51156000D01*
X65253000Y51156000D01*
X64033000Y51156000D01*
X63983000Y51156000D01*
X62763000Y51156000D01*
X62713000Y51156000D01*
X61493000Y51156000D01*
X61443000Y51156000D01*
X60223000Y51156000D01*
X60173000Y51156000D01*
X58953000Y51156000D01*
X58903000Y51156000D01*
X58068000Y51156000D01*
X57993000Y51081000D01*
X55275500Y51081000D01*
X55275500Y52351000D01*
X57993000Y52351000D01*
X57993000Y51281000D01*
X58068000Y51206000D01*
X58903000Y51206000D01*
X58903000Y52426000D01*
X58953000Y52426000D01*
X58953000Y51206000D01*
X60173000Y51206000D01*
X60173000Y52426000D01*
X60223000Y52426000D01*
X60223000Y51206000D01*
X61443000Y51206000D01*
X61443000Y52426000D01*
X61493000Y52426000D01*
X61493000Y51206000D01*
X62713000Y51206000D01*
X62713000Y52426000D01*
X62763000Y52426000D01*
X62763000Y51206000D01*
X63983000Y51206000D01*
X63983000Y52426000D01*
X64033000Y52426000D01*
X64033000Y51206000D01*
X65253000Y51206000D01*
X65253000Y52426000D01*
X65303000Y52426000D01*
X65303000Y51206000D01*
X66138000Y51206000D01*
X66213000Y51281000D01*
X66213000Y52351000D01*
X66138000Y52426000D01*
X65303000Y52426000D01*
X65253000Y52426000D01*
X64033000Y52426000D01*
X63983000Y52426000D01*
X62763000Y52426000D01*
X62713000Y52426000D01*
X61493000Y52426000D01*
X61443000Y52426000D01*
X60223000Y52426000D01*
X60173000Y52426000D01*
X58953000Y52426000D01*
X58903000Y52426000D01*
X58068000Y52426000D01*
X57993000Y52351000D01*
X55275500Y52351000D01*
X55275500Y53333748D01*
X55562751Y53621000D01*
X57993000Y53621000D01*
X57993000Y52551000D01*
X58068000Y52476000D01*
X58903000Y52476000D01*
X58903000Y53696000D01*
X58953000Y53696000D01*
X58953000Y52476000D01*
X60173000Y52476000D01*
X60173000Y53696000D01*
X60223000Y53696000D01*
X60223000Y52476000D01*
X61443000Y52476000D01*
X61443000Y53696000D01*
X61493000Y53696000D01*
X61493000Y52476000D01*
X62713000Y52476000D01*
X62713000Y53696000D01*
X62763000Y53696000D01*
X62763000Y52476000D01*
X63983000Y52476000D01*
X63983000Y53696000D01*
X64033000Y53696000D01*
X64033000Y52476000D01*
X65253000Y52476000D01*
X65253000Y53696000D01*
X65303000Y53696000D01*
X65303000Y52476000D01*
X66138000Y52476000D01*
X66213000Y52551000D01*
X66213000Y53621000D01*
X66138000Y53696000D01*
X65303000Y53696000D01*
X65253000Y53696000D01*
X64033000Y53696000D01*
X63983000Y53696000D01*
X62763000Y53696000D01*
X62713000Y53696000D01*
X61493000Y53696000D01*
X61443000Y53696000D01*
X60223000Y53696000D01*
X60173000Y53696000D01*
X58953000Y53696000D01*
X58903000Y53696000D01*
X58068000Y53696000D01*
X57993000Y53621000D01*
X55562751Y53621000D01*
X55724776Y53783025D01*
X55891628Y53782879D01*
X56149000Y53889223D01*
X56346085Y54085964D01*
X56452878Y54343150D01*
X56452941Y54415673D01*
X57993000Y54415673D01*
X57993000Y53821000D01*
X58068000Y53746000D01*
X58903000Y53746000D01*
X58903000Y54581000D01*
X58953000Y54581000D01*
X58953000Y53746000D01*
X60173000Y53746000D01*
X60173000Y54581000D01*
X60223000Y54581000D01*
X60223000Y53746000D01*
X61443000Y53746000D01*
X61443000Y54581000D01*
X61493000Y54581000D01*
X61493000Y53746000D01*
X62713000Y53746000D01*
X62713000Y54581000D01*
X62763000Y54581000D01*
X62763000Y53746000D01*
X63983000Y53746000D01*
X63983000Y54581000D01*
X64033000Y54581000D01*
X64033000Y53746000D01*
X65253000Y53746000D01*
X65253000Y54581000D01*
X65303000Y54581000D01*
X65303000Y53746000D01*
X66138000Y53746000D01*
X66213000Y53821000D01*
X66213000Y54415673D01*
X66167328Y54525936D01*
X66082937Y54610328D01*
X65972674Y54656000D01*
X65378000Y54656000D01*
X65303000Y54581000D01*
X65253000Y54581000D01*
X65178000Y54656000D01*
X64108000Y54656000D01*
X64033000Y54581000D01*
X63983000Y54581000D01*
X63908000Y54656000D01*
X62838000Y54656000D01*
X62763000Y54581000D01*
X62713000Y54581000D01*
X62638000Y54656000D01*
X61568000Y54656000D01*
X61493000Y54581000D01*
X61443000Y54581000D01*
X61368000Y54656000D01*
X60298000Y54656000D01*
X60223000Y54581000D01*
X60173000Y54581000D01*
X60098000Y54656000D01*
X59028000Y54656000D01*
X58953000Y54581000D01*
X58903000Y54581000D01*
X58828000Y54656000D01*
X58233326Y54656000D01*
X58123063Y54610328D01*
X58038672Y54525936D01*
X57993000Y54415673D01*
X56452941Y54415673D01*
X56453121Y54621628D01*
X56346777Y54879000D01*
X56150036Y55076085D01*
X55892850Y55182878D01*
X55614372Y55183121D01*
X55357000Y55076777D01*
X55159915Y54880036D01*
X55053122Y54622850D01*
X55052975Y54454727D01*
X54464624Y53866376D01*
X54361657Y53712275D01*
X54325500Y53530500D01*
X54325500Y43631415D01*
X54207415Y43513536D01*
X54100622Y43256350D01*
X54100379Y42977872D01*
X54206723Y42720500D01*
X54403464Y42523415D01*
X54508181Y42479933D01*
X51829248Y39801000D01*
X50898356Y39801000D01*
X50898356Y39968500D01*
X50877386Y40079946D01*
X50898356Y40183500D01*
X50898356Y40468500D01*
X50877386Y40579946D01*
X50898356Y40683500D01*
X50898356Y40968500D01*
X50877386Y41079946D01*
X50898356Y41183500D01*
X50898356Y41468500D01*
X50873951Y41598202D01*
X50841500Y41648632D01*
X50841500Y41726000D01*
X50766500Y41801000D01*
X50661774Y41801000D01*
X50541500Y41825356D01*
X49996500Y41825356D01*
X49996500Y41851000D01*
X50016500Y41851000D01*
X50016500Y42301000D01*
X50066500Y42301000D01*
X50066500Y41851000D01*
X50766500Y41851000D01*
X50841500Y41926000D01*
X50841500Y42028173D01*
X50821690Y42076000D01*
X50841500Y42123827D01*
X50841500Y42226000D01*
X50766500Y42301000D01*
X50066500Y42301000D01*
X50016500Y42301000D01*
X49316500Y42301000D01*
X49241500Y42226000D01*
X49241500Y42123827D01*
X49251525Y42099625D01*
X49052500Y42298650D01*
X49052500Y43468500D01*
X49184644Y43468500D01*
X49184644Y43183500D01*
X49205614Y43072054D01*
X49184644Y42968500D01*
X49184644Y42683500D01*
X49209049Y42553798D01*
X49241500Y42503368D01*
X49241500Y42426000D01*
X49316500Y42351000D01*
X49421226Y42351000D01*
X49541500Y42326644D01*
X50541500Y42326644D01*
X50670942Y42351000D01*
X50766500Y42351000D01*
X50841500Y42426000D01*
X50841500Y42502599D01*
X50870241Y42544663D01*
X50898356Y42683500D01*
X50898356Y42968500D01*
X50877386Y43079946D01*
X50898356Y43183500D01*
X50898356Y43468500D01*
X50873951Y43598202D01*
X50797297Y43717325D01*
X50680337Y43797241D01*
X50541500Y43825356D01*
X49541500Y43825356D01*
X49411798Y43800951D01*
X49292675Y43724297D01*
X49212759Y43607337D01*
X49184644Y43468500D01*
X49052500Y43468500D01*
X49052500Y43745248D01*
X49559346Y44252094D01*
X49575703Y44226675D01*
X49692663Y44146759D01*
X49831500Y44118644D01*
X51831500Y44118644D01*
X51961202Y44143049D01*
X52080325Y44219703D01*
X52160241Y44336663D01*
X52188356Y44475500D01*
X52188356Y46075500D01*
X52163951Y46205202D01*
X52087297Y46324325D01*
X51970337Y46404241D01*
X51831500Y46432356D01*
X49831500Y46432356D01*
X49701798Y46407951D01*
X49582675Y46331297D01*
X49502759Y46214337D01*
X49474644Y46075500D01*
X49474644Y45510896D01*
X48241624Y44277876D01*
X48138657Y44123775D01*
X48102500Y43942000D01*
X48102500Y42101898D01*
X48138657Y41920123D01*
X48167471Y41877000D01*
X47821751Y41877000D01*
X47306500Y42392252D01*
X47306500Y44118644D01*
X47831500Y44118644D01*
X47961202Y44143049D01*
X48080325Y44219703D01*
X48160241Y44336663D01*
X48188356Y44475500D01*
X48188356Y46075500D01*
X48163951Y46205202D01*
X48087297Y46324325D01*
X47970337Y46404241D01*
X47831500Y46432356D01*
X47421608Y46432356D01*
X48791521Y47802269D01*
X48780131Y47774839D01*
X48779870Y47476470D01*
X48893811Y47200714D01*
X49104605Y46989552D01*
X49380161Y46875131D01*
X49678530Y46874870D01*
X49954286Y46988811D01*
X50165448Y47199605D01*
X50279869Y47475161D01*
X50280069Y47703317D01*
X51330895Y48754144D01*
X53281500Y48754144D01*
X53411202Y48778549D01*
X53530325Y48855203D01*
X53610241Y48972163D01*
X53638356Y49111000D01*
X53638356Y50711000D01*
X53613951Y50840702D01*
X53537297Y50959825D01*
X53420337Y51039741D01*
X53281500Y51067856D01*
X52006500Y51067856D01*
X52006500Y51084495D01*
X52006501Y51084500D01*
X51970343Y51266274D01*
X51970343Y51266275D01*
X51867376Y51420376D01*
X51867373Y51420378D01*
X50444500Y52843252D01*
X50444500Y53446144D01*
X51069500Y53446144D01*
X51199202Y53470549D01*
X51318325Y53547203D01*
X51398241Y53664163D01*
X51426356Y53803000D01*
X51426356Y57703000D01*
X51401951Y57832702D01*
X51325297Y57951825D01*
X51208337Y58031741D01*
X51069500Y58059856D01*
X48869500Y58059856D01*
X48739798Y58035451D01*
X48620675Y57958797D01*
X48540759Y57841837D01*
X48512644Y57703000D01*
X48512644Y53803000D01*
X48537049Y53673298D01*
X48613703Y53554175D01*
X48730663Y53474259D01*
X48869500Y53446144D01*
X49494500Y53446144D01*
X49494500Y52646500D01*
X49530657Y52464725D01*
X49633624Y52310624D01*
X50876393Y51067856D01*
X49781500Y51067856D01*
X49651798Y51043451D01*
X49532675Y50966797D01*
X49452759Y50849837D01*
X49424644Y50711000D01*
X49424644Y49111000D01*
X49449049Y48981298D01*
X49525703Y48862175D01*
X49642663Y48782259D01*
X49781500Y48754144D01*
X49987392Y48754144D01*
X49608180Y48374932D01*
X49381470Y48375130D01*
X49267563Y48328064D01*
X49270343Y48332225D01*
X49306500Y48514000D01*
X49306500Y51561995D01*
X49306501Y51562000D01*
X49270344Y51743774D01*
X49236177Y51794908D01*
X49167376Y51897876D01*
X49167373Y51897878D01*
X47518157Y53547095D01*
X47518325Y53547203D01*
X47598241Y53664163D01*
X47626356Y53803000D01*
X47626356Y57703000D01*
X47601951Y57832702D01*
X47525297Y57951825D01*
X47408337Y58031741D01*
X47269500Y58059856D01*
X45069500Y58059856D01*
X44939798Y58035451D01*
X44820675Y57958797D01*
X44740759Y57841837D01*
X44712644Y57703000D01*
X44712644Y55934000D01*
X43992356Y55934000D01*
X43992356Y57209000D01*
X43967951Y57338702D01*
X43891297Y57457825D01*
X43774337Y57537741D01*
X43635500Y57565856D01*
X41835500Y57565856D01*
X41705798Y57541451D01*
X41586675Y57464797D01*
X41506759Y57347837D01*
X41478644Y57209000D01*
X41478644Y53709000D01*
X41503049Y53579298D01*
X41579703Y53460175D01*
X41696663Y53380259D01*
X41835500Y53352144D01*
X43635500Y53352144D01*
X43765202Y53376549D01*
X43884325Y53453203D01*
X43964241Y53570163D01*
X43992356Y53709000D01*
X43992356Y54984000D01*
X44712644Y54984000D01*
X44712644Y53803000D01*
X44737049Y53673298D01*
X44813703Y53554175D01*
X44930663Y53474259D01*
X45069500Y53446144D01*
X46275604Y53446144D01*
X48356500Y51365249D01*
X48356500Y48710752D01*
X46495624Y46849876D01*
X46392657Y46695775D01*
X46356500Y46514000D01*
X46356500Y46432356D01*
X45831500Y46432356D01*
X45701798Y46407951D01*
X45582675Y46331297D01*
X45545755Y46277263D01*
X45483297Y46374325D01*
X45366337Y46454241D01*
X45227500Y46482356D01*
X43227500Y46482356D01*
X43097798Y46457951D01*
X42978675Y46381297D01*
X42898759Y46264337D01*
X42870644Y46125500D01*
X42870644Y44425500D01*
X42895049Y44295798D01*
X42971703Y44176675D01*
X43088663Y44096759D01*
X43227500Y44068644D01*
X43752500Y44068644D01*
X43752500Y43593000D01*
X43788657Y43411225D01*
X43891624Y43257124D01*
X46405893Y40742856D01*
X44386500Y40742856D01*
X44256798Y40718451D01*
X44137675Y40641797D01*
X44057759Y40524837D01*
X44029644Y40386000D01*
X44029644Y38530209D01*
X43960376Y38633876D01*
X43932376Y38661876D01*
X43778275Y38764843D01*
X43596500Y38801000D01*
X43398356Y38801000D01*
X43398356Y38968500D01*
X43377386Y39079946D01*
X43398356Y39183500D01*
X43398356Y39468500D01*
X43377386Y39579946D01*
X43398356Y39683500D01*
X43398356Y39968500D01*
X43377386Y40079946D01*
X43398356Y40183500D01*
X43398356Y40468500D01*
X43377386Y40579946D01*
X43398356Y40683500D01*
X43398356Y40968500D01*
X43377386Y41079946D01*
X43398356Y41183500D01*
X43398356Y41468500D01*
X43377386Y41579946D01*
X43398356Y41683500D01*
X43398356Y41968500D01*
X43377386Y42079946D01*
X43398356Y42183500D01*
X43398356Y42468500D01*
X43377386Y42579946D01*
X43398356Y42683500D01*
X43398356Y42968500D01*
X43377386Y43079946D01*
X43398356Y43183500D01*
X43398356Y43468500D01*
X43373951Y43598202D01*
X43297297Y43717325D01*
X43180337Y43797241D01*
X43041500Y43825356D01*
X42041500Y43825356D01*
X41912058Y43801000D01*
X38691254Y43801000D01*
X37084356Y45407898D01*
X37084356Y46125500D01*
X38870644Y46125500D01*
X38870644Y44425500D01*
X38895049Y44295798D01*
X38971703Y44176675D01*
X39088663Y44096759D01*
X39227500Y44068644D01*
X41227500Y44068644D01*
X41357202Y44093049D01*
X41476325Y44169703D01*
X41556241Y44286663D01*
X41584356Y44425500D01*
X41584356Y46125500D01*
X41559951Y46255202D01*
X41483297Y46374325D01*
X41366337Y46454241D01*
X41227500Y46482356D01*
X40702500Y46482356D01*
X40702500Y48332144D01*
X41059000Y48332144D01*
X41188702Y48356549D01*
X41307825Y48433203D01*
X41387741Y48550163D01*
X41415856Y48689000D01*
X41415856Y50689000D01*
X41391451Y50818702D01*
X41314797Y50937825D01*
X41197837Y51017741D01*
X41059000Y51045856D01*
X39459000Y51045856D01*
X39329298Y51021451D01*
X39210175Y50944797D01*
X39130259Y50827837D01*
X39102144Y50689000D01*
X39102144Y48689000D01*
X39126549Y48559298D01*
X39203203Y48440175D01*
X39320163Y48360259D01*
X39459000Y48332144D01*
X39752500Y48332144D01*
X39752500Y46482356D01*
X39227500Y46482356D01*
X39097798Y46457951D01*
X38978675Y46381297D01*
X38898759Y46264337D01*
X38870644Y46125500D01*
X37084356Y46125500D01*
X37084356Y46625000D01*
X37059951Y46754702D01*
X36983297Y46873825D01*
X36866337Y46953741D01*
X36727500Y46981856D01*
X35027500Y46981856D01*
X34897798Y46957451D01*
X34778675Y46880797D01*
X34741408Y46826255D01*
X34710797Y46873825D01*
X34593837Y46953741D01*
X34455000Y46981856D01*
X32855000Y46981856D01*
X32725298Y46957451D01*
X32606175Y46880797D01*
X32543158Y46788569D01*
X32488297Y46873825D01*
X32371337Y46953741D01*
X32232500Y46981856D01*
X30632500Y46981856D01*
X30502798Y46957451D01*
X30383675Y46880797D01*
X30303759Y46763837D01*
X30275644Y46625000D01*
X30275644Y44625000D01*
X30300049Y44495298D01*
X30376703Y44376175D01*
X30428318Y44340907D01*
X30342675Y44285797D01*
X30262759Y44168837D01*
X30234644Y44030000D01*
X30234644Y42330000D01*
X30248192Y42258000D01*
X30162856Y42258000D01*
X30162856Y43450000D01*
X30138451Y43579702D01*
X30061797Y43698825D01*
X29944837Y43778741D01*
X29806000Y43806856D01*
X28106000Y43806856D01*
X27976298Y43782451D01*
X27940356Y43759323D01*
X27940356Y43937104D01*
X29096395Y45093144D01*
X29806000Y45093144D01*
X29935702Y45117549D01*
X30054825Y45194203D01*
X30134741Y45311163D01*
X30162856Y45450000D01*
X30162856Y47450000D01*
X30138451Y47579702D01*
X30061797Y47698825D01*
X29944837Y47778741D01*
X29815686Y47804895D01*
X29845448Y47834605D01*
X29959869Y48110161D01*
X29960130Y48408530D01*
X29846189Y48684286D01*
X29685000Y48845756D01*
X29685000Y49656995D01*
X29685001Y49657000D01*
X29651871Y49823552D01*
X29648843Y49838775D01*
X29545876Y49992876D01*
X28913752Y50625000D01*
X30275644Y50625000D01*
X30275644Y48625000D01*
X30300049Y48495298D01*
X30376703Y48376175D01*
X30493663Y48296259D01*
X30632500Y48268144D01*
X32232500Y48268144D01*
X32362202Y48292549D01*
X32481325Y48369203D01*
X32544342Y48461431D01*
X32599203Y48376175D01*
X32716163Y48296259D01*
X32855000Y48268144D01*
X34455000Y48268144D01*
X34584702Y48292549D01*
X34703825Y48369203D01*
X34741092Y48423745D01*
X34771703Y48376175D01*
X34888663Y48296259D01*
X35027500Y48268144D01*
X36727500Y48268144D01*
X36857202Y48292549D01*
X36976325Y48369203D01*
X37056241Y48486163D01*
X37084356Y48625000D01*
X37084356Y50625000D01*
X37059951Y50754702D01*
X36983297Y50873825D01*
X36866337Y50953741D01*
X36727500Y50981856D01*
X35027500Y50981856D01*
X34897798Y50957451D01*
X34778675Y50880797D01*
X34741408Y50826255D01*
X34710797Y50873825D01*
X34593837Y50953741D01*
X34455000Y50981856D01*
X32855000Y50981856D01*
X32725298Y50957451D01*
X32606175Y50880797D01*
X32543158Y50788569D01*
X32488297Y50873825D01*
X32371337Y50953741D01*
X32232500Y50981856D01*
X30632500Y50981856D01*
X30502798Y50957451D01*
X30383675Y50880797D01*
X30303759Y50763837D01*
X30275644Y50625000D01*
X28913752Y50625000D01*
X27622856Y51915896D01*
X27622856Y51976000D01*
X29250000Y51976000D01*
X29431775Y52012157D01*
X29585876Y52115124D01*
X29679752Y52209000D01*
X41478644Y52209000D01*
X41478644Y48709000D01*
X41503049Y48579298D01*
X41579703Y48460175D01*
X41696663Y48380259D01*
X41835500Y48352144D01*
X43635500Y48352144D01*
X43765202Y48376549D01*
X43884325Y48453203D01*
X43964241Y48570163D01*
X43992356Y48709000D01*
X43992356Y50711000D01*
X44024644Y50711000D01*
X44024644Y49111000D01*
X44049049Y48981298D01*
X44125703Y48862175D01*
X44242663Y48782259D01*
X44381500Y48754144D01*
X47881500Y48754144D01*
X48011202Y48778549D01*
X48130325Y48855203D01*
X48210241Y48972163D01*
X48238356Y49111000D01*
X48238356Y50711000D01*
X48213951Y50840702D01*
X48137297Y50959825D01*
X48020337Y51039741D01*
X47881500Y51067856D01*
X44381500Y51067856D01*
X44251798Y51043451D01*
X44132675Y50966797D01*
X44052759Y50849837D01*
X44024644Y50711000D01*
X43992356Y50711000D01*
X43992356Y52209000D01*
X43967951Y52338702D01*
X43891297Y52457825D01*
X43774337Y52537741D01*
X43635500Y52565856D01*
X41835500Y52565856D01*
X41705798Y52541451D01*
X41586675Y52464797D01*
X41506759Y52347837D01*
X41478644Y52209000D01*
X29679752Y52209000D01*
X30569896Y53099144D01*
X32905000Y53099144D01*
X33034702Y53123549D01*
X33153825Y53200203D01*
X33233741Y53317163D01*
X33261856Y53456000D01*
X33261856Y55256000D01*
X34048144Y55256000D01*
X34048144Y53456000D01*
X34072549Y53326298D01*
X34149203Y53207175D01*
X34266163Y53127259D01*
X34405000Y53099144D01*
X37905000Y53099144D01*
X38034702Y53123549D01*
X38153825Y53200203D01*
X38233741Y53317163D01*
X38261856Y53456000D01*
X38261856Y53589000D01*
X39159000Y53589000D01*
X39159000Y52629326D01*
X39204672Y52519063D01*
X39289064Y52434672D01*
X39399327Y52389000D01*
X40159000Y52389000D01*
X40234000Y52464000D01*
X40234000Y53664000D01*
X40284000Y53664000D01*
X40284000Y52464000D01*
X40359000Y52389000D01*
X41118673Y52389000D01*
X41228936Y52434672D01*
X41313328Y52519063D01*
X41359000Y52629326D01*
X41359000Y53589000D01*
X41284000Y53664000D01*
X40284000Y53664000D01*
X40234000Y53664000D01*
X39234000Y53664000D01*
X39159000Y53589000D01*
X38261856Y53589000D01*
X38261856Y54748674D01*
X39159000Y54748674D01*
X39159000Y53789000D01*
X39234000Y53714000D01*
X40234000Y53714000D01*
X40234000Y54914000D01*
X40284000Y54914000D01*
X40284000Y53714000D01*
X41284000Y53714000D01*
X41359000Y53789000D01*
X41359000Y54748674D01*
X41313328Y54858937D01*
X41228936Y54943328D01*
X41118673Y54989000D01*
X40359000Y54989000D01*
X40284000Y54914000D01*
X40234000Y54914000D01*
X40159000Y54989000D01*
X39399327Y54989000D01*
X39289064Y54943328D01*
X39204672Y54858937D01*
X39159000Y54748674D01*
X38261856Y54748674D01*
X38261856Y55256000D01*
X38237451Y55385702D01*
X38160797Y55504825D01*
X38043837Y55584741D01*
X37905000Y55612856D01*
X34405000Y55612856D01*
X34275298Y55588451D01*
X34156175Y55511797D01*
X34076259Y55394837D01*
X34048144Y55256000D01*
X33261856Y55256000D01*
X33237451Y55385702D01*
X33160797Y55504825D01*
X33043837Y55584741D01*
X32905000Y55612856D01*
X29405000Y55612856D01*
X29275298Y55588451D01*
X29156175Y55511797D01*
X29076259Y55394837D01*
X29048144Y55256000D01*
X29048144Y53456000D01*
X29072549Y53326298D01*
X29149203Y53207175D01*
X29259238Y53131990D01*
X29053248Y52926000D01*
X27622856Y52926000D01*
X27622856Y53301000D01*
X27598451Y53430702D01*
X27521797Y53549825D01*
X27404837Y53629741D01*
X27266000Y53657856D01*
X25566000Y53657856D01*
X25436298Y53633451D01*
X25317175Y53556797D01*
X25237259Y53439837D01*
X25209144Y53301000D01*
X25209144Y52926000D01*
X24103000Y52926000D01*
X24103000Y54516000D01*
X25294380Y54516000D01*
X25543963Y54142472D01*
X25933271Y53882345D01*
X26392491Y53791000D01*
X26439509Y53791000D01*
X26898729Y53882345D01*
X27288037Y54142472D01*
X27548164Y54531780D01*
X27639509Y54991000D01*
X27548164Y55450220D01*
X27288037Y55839528D01*
X26898729Y56099655D01*
X26439509Y56191000D01*
X26392491Y56191000D01*
X25933271Y56099655D01*
X25543963Y55839528D01*
X25294380Y55466000D01*
X24103000Y55466000D01*
X24103000Y59938823D01*
X69169662Y59938823D01*
X69465906Y59221857D01*
X70013971Y58672834D01*
X70730419Y58375339D01*
X71506177Y58374662D01*
X72223143Y58670906D01*
X72772166Y59218971D01*
X73069661Y59935419D01*
X73070338Y60711177D01*
X72774094Y61428143D01*
X72226029Y61977166D01*
X71509581Y62274661D01*
X70733823Y62275338D01*
X70016857Y61979094D01*
X69467834Y61431029D01*
X69170339Y60714581D01*
X69169662Y59938823D01*
X24103000Y59938823D01*
X24103000Y63075000D01*
X71078140Y63075000D01*
X72169195Y62857976D01*
X72169195Y62857976D01*
G37*
X72169195Y62857976D02*
X73058658Y62263655D01*
X73652976Y61374194D01*
X73870000Y60283139D01*
X73870000Y3216861D01*
X73652976Y2125806D01*
X73058658Y1236345D01*
X72169195Y642024D01*
X71078140Y425000D01*
X3216861Y425000D01*
X2125806Y642024D01*
X1236345Y1236342D01*
X642024Y2125805D01*
X510142Y2788823D01*
X36149662Y2788823D01*
X36445906Y2071857D01*
X36993971Y1522834D01*
X37710419Y1225339D01*
X38486177Y1224662D01*
X39203143Y1520906D01*
X39752166Y2068971D01*
X40049661Y2785419D01*
X40050338Y3561177D01*
X39754094Y4278143D01*
X39206029Y4827166D01*
X38489581Y5124661D01*
X37713823Y5125338D01*
X36996857Y4829094D01*
X36447834Y4281029D01*
X36150339Y3564581D01*
X36149662Y2788823D01*
X510142Y2788823D01*
X425000Y3216860D01*
X425000Y7718619D01*
X3761680Y7718619D01*
X4270573Y6487004D01*
X5212047Y5543885D01*
X6442772Y5032843D01*
X7775381Y5031680D01*
X9006996Y5540573D01*
X9950115Y6482047D01*
X10461157Y7712772D01*
X10462320Y9045381D01*
X10410400Y9171039D01*
X16610732Y9171039D01*
X16846208Y8601143D01*
X17281849Y8164740D01*
X17851333Y7928270D01*
X18467961Y7927732D01*
X19037857Y8163208D01*
X19474260Y8598849D01*
X19710730Y9168333D01*
X19710732Y9171039D01*
X29945732Y9171039D01*
X30181208Y8601143D01*
X30616849Y8164740D01*
X31186333Y7928270D01*
X31802961Y7927732D01*
X32372857Y8163208D01*
X32809260Y8598849D01*
X33045730Y9168333D01*
X33046268Y9784961D01*
X32810792Y10354857D01*
X32375151Y10791260D01*
X31805667Y11027730D01*
X31189039Y11028268D01*
X30619143Y10792792D01*
X30182740Y10357151D01*
X29946270Y9787667D01*
X29945732Y9171039D01*
X19710732Y9171039D01*
X19711268Y9784961D01*
X19475792Y10354857D01*
X19040151Y10791260D01*
X18470667Y11027730D01*
X17854039Y11028268D01*
X17284143Y10792792D01*
X16847740Y10357151D01*
X16611270Y9787667D01*
X16610732Y9171039D01*
X10410400Y9171039D01*
X9953427Y10276996D01*
X9011953Y11220115D01*
X7781228Y11731157D01*
X6448619Y11732320D01*
X5217004Y11223427D01*
X4273885Y10281953D01*
X3762843Y9051228D01*
X3761680Y7718619D01*
X425000Y7718619D01*
X425000Y11926372D01*
X22159879Y11926372D01*
X22266223Y11669000D01*
X22462964Y11471915D01*
X22720150Y11365122D01*
X22998628Y11364879D01*
X23256000Y11471223D01*
X23374985Y11590000D01*
X34537085Y11590000D01*
X34654964Y11471915D01*
X34912150Y11365122D01*
X35190628Y11364879D01*
X35448000Y11471223D01*
X35645085Y11667964D01*
X35751878Y11925150D01*
X35752121Y12203628D01*
X35680880Y12376044D01*
X35741775Y12388157D01*
X35895876Y12491124D01*
X35912777Y12508025D01*
X36079628Y12507879D01*
X36337000Y12614223D01*
X36534085Y12810964D01*
X36640878Y13068150D01*
X36641121Y13346628D01*
X36534777Y13604000D01*
X36338036Y13801085D01*
X36080850Y13907878D01*
X35802372Y13908121D01*
X35545000Y13801777D01*
X35347915Y13605036D01*
X35241122Y13347850D01*
X35241082Y13302000D01*
X32996000Y13302000D01*
X32996000Y14378000D01*
X32921000Y14453000D01*
X31521000Y14453000D01*
X31521000Y14433000D01*
X31471000Y14433000D01*
X31471000Y14453000D01*
X30071000Y14453000D01*
X29996000Y14378000D01*
X29996000Y13302000D01*
X24263915Y13302000D01*
X24146036Y13420085D01*
X23888850Y13526878D01*
X23610372Y13527121D01*
X23353000Y13420777D01*
X23155915Y13224036D01*
X23049122Y12966850D01*
X23048928Y12744499D01*
X22999850Y12764878D01*
X22721372Y12765121D01*
X22464000Y12658777D01*
X22266915Y12462036D01*
X22160122Y12204850D01*
X22159879Y11926372D01*
X425000Y11926372D01*
X425000Y14378000D01*
X16661000Y14378000D01*
X16661000Y13218326D01*
X16706672Y13108063D01*
X16791064Y13023672D01*
X16901327Y12978000D01*
X18061000Y12978000D01*
X18136000Y13053000D01*
X18136000Y14453000D01*
X18186000Y14453000D01*
X18186000Y13053000D01*
X18261000Y12978000D01*
X19420673Y12978000D01*
X19530936Y13023672D01*
X19615328Y13108063D01*
X19661000Y13218326D01*
X19661000Y14378000D01*
X19586000Y14453000D01*
X18186000Y14453000D01*
X18136000Y14453000D01*
X16736000Y14453000D01*
X16661000Y14378000D01*
X425000Y14378000D01*
X425000Y15737674D01*
X16661000Y15737674D01*
X16661000Y14578000D01*
X16736000Y14503000D01*
X18136000Y14503000D01*
X18136000Y15903000D01*
X18186000Y15903000D01*
X18186000Y14503000D01*
X19586000Y14503000D01*
X19661000Y14578000D01*
X19661000Y15737674D01*
X29996000Y15737674D01*
X29996000Y14578000D01*
X30071000Y14503000D01*
X31471000Y14503000D01*
X31471000Y15903000D01*
X31521000Y15903000D01*
X31521000Y14503000D01*
X32921000Y14503000D01*
X32996000Y14578000D01*
X32996000Y15737674D01*
X32950328Y15847937D01*
X32865936Y15932328D01*
X32755673Y15978000D01*
X31596000Y15978000D01*
X31521000Y15903000D01*
X31471000Y15903000D01*
X31396000Y15978000D01*
X30236327Y15978000D01*
X30126064Y15932328D01*
X30041672Y15847937D01*
X29996000Y15737674D01*
X19661000Y15737674D01*
X19615328Y15847937D01*
X19530936Y15932328D01*
X19420673Y15978000D01*
X18261000Y15978000D01*
X18186000Y15903000D01*
X18136000Y15903000D01*
X18061000Y15978000D01*
X16901327Y15978000D01*
X16791064Y15932328D01*
X16706672Y15847937D01*
X16661000Y15737674D01*
X425000Y15737674D01*
X425000Y18696000D01*
X24003000Y18696000D01*
X24041906Y18703879D01*
X24074681Y18726273D01*
X24096161Y18759654D01*
X24103000Y18796000D01*
X24103000Y31548898D01*
X24113964Y31537915D01*
X24371150Y31431122D01*
X24649628Y31430879D01*
X24907000Y31537223D01*
X25104085Y31733964D01*
X25210878Y31991150D01*
X25211121Y32269628D01*
X25104777Y32527000D01*
X24986000Y32645985D01*
X24986000Y36448995D01*
X24986001Y36449000D01*
X24949843Y36630774D01*
X24949843Y36630775D01*
X24846876Y36784876D01*
X24103000Y37528752D01*
X24103000Y38006000D01*
X24377196Y38006000D01*
X24558464Y37824415D01*
X24815650Y37717622D01*
X25094128Y37717379D01*
X25351500Y37823723D01*
X25548585Y38020464D01*
X25613109Y38175855D01*
X25627703Y38153175D01*
X25744663Y38073259D01*
X25883500Y38045144D01*
X26815104Y38045144D01*
X27159624Y37700624D01*
X27289855Y37613606D01*
X26143624Y36467376D01*
X26040657Y36313275D01*
X26004500Y36131500D01*
X26004500Y32566856D01*
X25743000Y32566856D01*
X25613298Y32542451D01*
X25494175Y32465797D01*
X25414259Y32348837D01*
X25386144Y32210000D01*
X25386144Y30210000D01*
X25410549Y30080298D01*
X25487203Y29961175D01*
X25604163Y29881259D01*
X25743000Y29853144D01*
X27343000Y29853144D01*
X27472702Y29877549D01*
X27494276Y29891431D01*
X27509163Y29881259D01*
X27648000Y29853144D01*
X29248000Y29853144D01*
X29377702Y29877549D01*
X29399276Y29891431D01*
X29414163Y29881259D01*
X29553000Y29853144D01*
X30054104Y29853144D01*
X32222248Y27685000D01*
X31509856Y27685000D01*
X31509856Y28210000D01*
X31485451Y28339702D01*
X31408797Y28458825D01*
X31291837Y28538741D01*
X31153000Y28566856D01*
X29553000Y28566856D01*
X29423298Y28542451D01*
X29401724Y28528569D01*
X29386837Y28538741D01*
X29248000Y28566856D01*
X27648000Y28566856D01*
X27518298Y28542451D01*
X27496724Y28528569D01*
X27481837Y28538741D01*
X27343000Y28566856D01*
X25743000Y28566856D01*
X25613298Y28542451D01*
X25494175Y28465797D01*
X25414259Y28348837D01*
X25386144Y28210000D01*
X25386144Y26210000D01*
X25410549Y26080298D01*
X25487203Y25961175D01*
X25604163Y25881259D01*
X25743000Y25853144D01*
X27343000Y25853144D01*
X27472702Y25877549D01*
X27494276Y25891431D01*
X27509163Y25881259D01*
X27648000Y25853144D01*
X29248000Y25853144D01*
X29377702Y25877549D01*
X29399276Y25891431D01*
X29414163Y25881259D01*
X29553000Y25853144D01*
X31153000Y25853144D01*
X31241935Y25869878D01*
X31215259Y25830837D01*
X31187144Y25692000D01*
X31187144Y24092000D01*
X31211549Y23962298D01*
X31288203Y23843175D01*
X31405163Y23763259D01*
X31544000Y23735144D01*
X33029104Y23735144D01*
X33986124Y22778124D01*
X34140225Y22675157D01*
X34170384Y22669158D01*
X34322000Y22638999D01*
X34322005Y22639000D01*
X37719000Y22639000D01*
X37900775Y22675157D01*
X38054876Y22778124D01*
X38514000Y23237248D01*
X38514000Y16542000D01*
X38550157Y16360225D01*
X38653124Y16206124D01*
X40118144Y14741104D01*
X40118144Y13256000D01*
X40142549Y13126298D01*
X40219203Y13007175D01*
X40336163Y12927259D01*
X40475000Y12899144D01*
X42075000Y12899144D01*
X42204702Y12923549D01*
X42323825Y13000203D01*
X42403741Y13117163D01*
X42431856Y13256000D01*
X42431856Y14076501D01*
X42454163Y14061259D01*
X42593000Y14033144D01*
X44593000Y14033144D01*
X44722702Y14057549D01*
X44841825Y14134203D01*
X44921741Y14251163D01*
X44949856Y14390000D01*
X44949856Y16090000D01*
X44925451Y16219702D01*
X44848797Y16338825D01*
X44831941Y16350343D01*
X44841825Y16356703D01*
X44921741Y16473663D01*
X44949856Y16612500D01*
X44949856Y16764000D01*
X45499000Y16764000D01*
X45499000Y13843000D01*
X45535157Y13661225D01*
X45638124Y13507124D01*
X47162122Y11983127D01*
X47162124Y11983124D01*
X47316225Y11880157D01*
X47498000Y11844000D01*
X48190248Y11844000D01*
X48293000Y11741249D01*
X48293000Y11690915D01*
X48174915Y11573036D01*
X48068122Y11315850D01*
X48067879Y11037372D01*
X48174223Y10780000D01*
X48370964Y10582915D01*
X48628150Y10476122D01*
X48906628Y10475879D01*
X49164000Y10582223D01*
X49361085Y10778964D01*
X49467878Y11036150D01*
X49468121Y11314628D01*
X49361777Y11572000D01*
X49243000Y11690985D01*
X49243000Y11938000D01*
X49206843Y12119775D01*
X49103876Y12273876D01*
X49103873Y12273878D01*
X48722876Y12654876D01*
X48568775Y12757843D01*
X48387000Y12794000D01*
X47694751Y12794000D01*
X46449000Y14039752D01*
X46449000Y14064787D01*
X46454163Y14061259D01*
X46593000Y14033144D01*
X48593000Y14033144D01*
X48722702Y14057549D01*
X48841825Y14134203D01*
X48921741Y14251163D01*
X48949856Y14390000D01*
X48949856Y14513392D01*
X49944000Y13519249D01*
X49944000Y11690915D01*
X49825915Y11573036D01*
X49719122Y11315850D01*
X49718879Y11037372D01*
X49825223Y10780000D01*
X50021964Y10582915D01*
X50279150Y10476122D01*
X50557628Y10475879D01*
X50815000Y10582223D01*
X51012085Y10778964D01*
X51118878Y11036150D01*
X51119121Y11314628D01*
X51012777Y11572000D01*
X50894000Y11690985D01*
X50894000Y13716000D01*
X50857843Y13897775D01*
X50754876Y14051876D01*
X50754873Y14051878D01*
X49230876Y15575876D01*
X49076775Y15678843D01*
X48949856Y15704089D01*
X48949856Y16090000D01*
X48925451Y16219702D01*
X48848797Y16338825D01*
X48831941Y16350343D01*
X48841825Y16356703D01*
X48921741Y16473663D01*
X48949856Y16612500D01*
X48949856Y18312500D01*
X48925451Y18442202D01*
X48848797Y18561325D01*
X48731837Y18641241D01*
X48593000Y18669356D01*
X46593000Y18669356D01*
X46463298Y18644951D01*
X46344175Y18568297D01*
X46264259Y18451337D01*
X46236144Y18312500D01*
X46236144Y17697896D01*
X45638124Y17099876D01*
X45535157Y16945775D01*
X45499000Y16764000D01*
X44949856Y16764000D01*
X44949856Y18312500D01*
X44925451Y18442202D01*
X44848797Y18561325D01*
X44731837Y18641241D01*
X44593000Y18669356D01*
X42593000Y18669356D01*
X42463298Y18644951D01*
X42431856Y18624719D01*
X42431856Y19256000D01*
X42407451Y19385702D01*
X42330797Y19504825D01*
X42252513Y19558315D01*
X42323825Y19604203D01*
X42403741Y19721163D01*
X42431856Y19860000D01*
X42431856Y20680501D01*
X42454163Y20665259D01*
X42593000Y20637144D01*
X44593000Y20637144D01*
X44722702Y20661549D01*
X44841825Y20738203D01*
X44921741Y20855163D01*
X44949856Y20994000D01*
X44949856Y22694000D01*
X44925451Y22823702D01*
X44902621Y22859180D01*
X44921741Y22887163D01*
X44949856Y23026000D01*
X44949856Y24726000D01*
X44925451Y24855702D01*
X44848797Y24974825D01*
X44731837Y25054741D01*
X44593000Y25082856D01*
X42899608Y25082856D01*
X44265752Y26449000D01*
X45593000Y26449000D01*
X45774775Y26485157D01*
X45928876Y26588124D01*
X49066751Y29726000D01*
X49241500Y29726000D01*
X49241500Y29623827D01*
X49287172Y29513564D01*
X49371563Y29429172D01*
X49481826Y29383500D01*
X49941500Y29383500D01*
X50016500Y29458500D01*
X50016500Y29801000D01*
X50066500Y29801000D01*
X50066500Y29458500D01*
X50141500Y29383500D01*
X50601174Y29383500D01*
X50711437Y29429172D01*
X50795828Y29513564D01*
X50841500Y29623827D01*
X50841500Y29726000D01*
X50766500Y29801000D01*
X50066500Y29801000D01*
X50016500Y29801000D01*
X49316500Y29801000D01*
X49241500Y29726000D01*
X49066751Y29726000D01*
X49191751Y29851000D01*
X49421226Y29851000D01*
X49541500Y29826644D01*
X50541500Y29826644D01*
X50670942Y29851000D01*
X50766500Y29851000D01*
X50841500Y29926000D01*
X50841500Y30002599D01*
X50870241Y30044663D01*
X50898356Y30183500D01*
X50898356Y30468500D01*
X50877386Y30579946D01*
X50898356Y30683500D01*
X50898356Y30968500D01*
X50877386Y31079946D01*
X50898356Y31183500D01*
X50898356Y31468500D01*
X50877386Y31579946D01*
X50898356Y31683500D01*
X50898356Y31851000D01*
X50916248Y31851000D01*
X50960000Y31807248D01*
X50960000Y29972000D01*
X50996157Y29790225D01*
X51099124Y29636124D01*
X51906998Y28828251D01*
X51906998Y27464428D01*
X51828850Y27496878D01*
X51550372Y27497121D01*
X51293000Y27390777D01*
X51095915Y27194036D01*
X50989122Y26936850D01*
X50988879Y26658372D01*
X51095223Y26401000D01*
X51214000Y26282015D01*
X51214000Y25215752D01*
X48930966Y22932718D01*
X48949856Y23026000D01*
X48949856Y24726000D01*
X48925451Y24855702D01*
X48848797Y24974825D01*
X48731837Y25054741D01*
X48593000Y25082856D01*
X48297895Y25082856D01*
X48345085Y25129964D01*
X48451878Y25387150D01*
X48452121Y25665628D01*
X48345777Y25923000D01*
X48149036Y26120085D01*
X47891850Y26226878D01*
X47613372Y26227121D01*
X47356000Y26120777D01*
X47158915Y25924036D01*
X47052122Y25666850D01*
X47051879Y25388372D01*
X47118000Y25228347D01*
X47118000Y25082856D01*
X46593000Y25082856D01*
X46463298Y25058451D01*
X46344175Y24981797D01*
X46264259Y24864837D01*
X46236144Y24726000D01*
X46236144Y23026000D01*
X46260549Y22896298D01*
X46283379Y22860820D01*
X46264259Y22832837D01*
X46236144Y22694000D01*
X46236144Y20994000D01*
X46260549Y20864298D01*
X46337203Y20745175D01*
X46454163Y20665259D01*
X46593000Y20637144D01*
X48593000Y20637144D01*
X48722702Y20661549D01*
X48841825Y20738203D01*
X48921741Y20855163D01*
X48949856Y20994000D01*
X48949856Y21608104D01*
X52024876Y24683124D01*
X52127843Y24837225D01*
X52164000Y25019000D01*
X52164000Y25904248D01*
X54262000Y23806248D01*
X54262000Y15525086D01*
X54087000Y15452777D01*
X53889915Y15256036D01*
X53783122Y14998850D01*
X53782879Y14720372D01*
X53889223Y14463000D01*
X54085964Y14265915D01*
X54343150Y14159122D01*
X54621628Y14158879D01*
X54879000Y14265223D01*
X54897000Y14283192D01*
X54897000Y10160000D01*
X54933157Y9978225D01*
X55036124Y9824124D01*
X59100124Y5760124D01*
X59254225Y5657157D01*
X59436000Y5621000D01*
X66516000Y5621000D01*
X66697775Y5657157D01*
X66851876Y5760124D01*
X67441396Y6349644D01*
X68976500Y6349644D01*
X69106202Y6374049D01*
X69225325Y6450703D01*
X69305241Y6567663D01*
X69333356Y6706500D01*
X69333356Y8406500D01*
X69309526Y8533144D01*
X70612000Y8533144D01*
X70741702Y8557549D01*
X70860825Y8634203D01*
X70940741Y8751163D01*
X70968856Y8890000D01*
X70968856Y13970000D01*
X70944451Y14099702D01*
X70867797Y14218825D01*
X70750837Y14298741D01*
X70612000Y14326856D01*
X62992000Y14326856D01*
X62862298Y14302451D01*
X62743175Y14225797D01*
X62673252Y14123463D01*
X62628297Y14193325D01*
X62511337Y14273241D01*
X62372500Y14301356D01*
X60372500Y14301356D01*
X60242798Y14276951D01*
X60123675Y14200297D01*
X60043759Y14083337D01*
X60015644Y13944500D01*
X60015644Y13619500D01*
X60007505Y13619500D01*
X60007500Y13619501D01*
X59855884Y13589342D01*
X59825725Y13583343D01*
X59671624Y13480376D01*
X59671622Y13480373D01*
X58729356Y12538108D01*
X58729356Y13944500D01*
X58704951Y14074202D01*
X58628297Y14193325D01*
X58511337Y14273241D01*
X58372500Y14301356D01*
X57847500Y14301356D01*
X57847500Y15838500D01*
X58056500Y15838500D01*
X58056500Y15243827D01*
X58102172Y15133564D01*
X58186563Y15049172D01*
X58296826Y15003500D01*
X58891500Y15003500D01*
X58966500Y15078500D01*
X58966500Y15913500D01*
X59016500Y15913500D01*
X59016500Y15078500D01*
X59091500Y15003500D01*
X60161500Y15003500D01*
X60236500Y15078500D01*
X60236500Y15913500D01*
X60286500Y15913500D01*
X60286500Y15078500D01*
X60361500Y15003500D01*
X61431500Y15003500D01*
X61506500Y15078500D01*
X61506500Y15913500D01*
X61556500Y15913500D01*
X61556500Y15078500D01*
X61631500Y15003500D01*
X62701500Y15003500D01*
X62776500Y15078500D01*
X62776500Y15913500D01*
X62826500Y15913500D01*
X62826500Y15078500D01*
X62901500Y15003500D01*
X63971500Y15003500D01*
X64046500Y15078500D01*
X64046500Y15913500D01*
X64096500Y15913500D01*
X64096500Y15078500D01*
X64171500Y15003500D01*
X65241500Y15003500D01*
X65316500Y15078500D01*
X65316500Y15913500D01*
X65366500Y15913500D01*
X65366500Y15078500D01*
X65441500Y15003500D01*
X66036174Y15003500D01*
X66146437Y15049172D01*
X66230828Y15133564D01*
X66276500Y15243827D01*
X66276500Y15838500D01*
X66201500Y15913500D01*
X65366500Y15913500D01*
X65316500Y15913500D01*
X64096500Y15913500D01*
X64046500Y15913500D01*
X62826500Y15913500D01*
X62776500Y15913500D01*
X61556500Y15913500D01*
X61506500Y15913500D01*
X60286500Y15913500D01*
X60236500Y15913500D01*
X59016500Y15913500D01*
X58966500Y15913500D01*
X58131500Y15913500D01*
X58056500Y15838500D01*
X57847500Y15838500D01*
X57847500Y17108500D01*
X58056500Y17108500D01*
X58056500Y16038500D01*
X58131500Y15963500D01*
X58966500Y15963500D01*
X58966500Y17183500D01*
X59016500Y17183500D01*
X59016500Y15963500D01*
X60236500Y15963500D01*
X60236500Y17183500D01*
X60286500Y17183500D01*
X60286500Y15963500D01*
X61506500Y15963500D01*
X61506500Y17183500D01*
X61556500Y17183500D01*
X61556500Y15963500D01*
X62776500Y15963500D01*
X62776500Y17183500D01*
X62826500Y17183500D01*
X62826500Y15963500D01*
X64046500Y15963500D01*
X64046500Y17183500D01*
X64096500Y17183500D01*
X64096500Y15963500D01*
X65316500Y15963500D01*
X65316500Y17183500D01*
X65366500Y17183500D01*
X65366500Y15963500D01*
X66201500Y15963500D01*
X66276500Y16038500D01*
X66276500Y17108500D01*
X66201500Y17183500D01*
X65366500Y17183500D01*
X65316500Y17183500D01*
X64096500Y17183500D01*
X64046500Y17183500D01*
X62826500Y17183500D01*
X62776500Y17183500D01*
X61556500Y17183500D01*
X61506500Y17183500D01*
X60286500Y17183500D01*
X60236500Y17183500D01*
X59016500Y17183500D01*
X58966500Y17183500D01*
X58131500Y17183500D01*
X58056500Y17108500D01*
X57847500Y17108500D01*
X57847500Y18378500D01*
X58056500Y18378500D01*
X58056500Y17308500D01*
X58131500Y17233500D01*
X58966500Y17233500D01*
X58966500Y18453500D01*
X59016500Y18453500D01*
X59016500Y17233500D01*
X60236500Y17233500D01*
X60236500Y18453500D01*
X60286500Y18453500D01*
X60286500Y17233500D01*
X61506500Y17233500D01*
X61506500Y18453500D01*
X61556500Y18453500D01*
X61556500Y17233500D01*
X62776500Y17233500D01*
X62776500Y18453500D01*
X62826500Y18453500D01*
X62826500Y17233500D01*
X64046500Y17233500D01*
X64046500Y18453500D01*
X64096500Y18453500D01*
X64096500Y17233500D01*
X65316500Y17233500D01*
X65316500Y18453500D01*
X65366500Y18453500D01*
X65366500Y17233500D01*
X66201500Y17233500D01*
X66276500Y17308500D01*
X66276500Y18378500D01*
X66201500Y18453500D01*
X65366500Y18453500D01*
X65316500Y18453500D01*
X64096500Y18453500D01*
X64046500Y18453500D01*
X62826500Y18453500D01*
X62776500Y18453500D01*
X61556500Y18453500D01*
X61506500Y18453500D01*
X60286500Y18453500D01*
X60236500Y18453500D01*
X59016500Y18453500D01*
X58966500Y18453500D01*
X58131500Y18453500D01*
X58056500Y18378500D01*
X57847500Y18378500D01*
X57847500Y19648500D01*
X58056500Y19648500D01*
X58056500Y18578500D01*
X58131500Y18503500D01*
X58966500Y18503500D01*
X58966500Y19723500D01*
X59016500Y19723500D01*
X59016500Y18503500D01*
X60236500Y18503500D01*
X60236500Y19723500D01*
X60286500Y19723500D01*
X60286500Y18503500D01*
X61506500Y18503500D01*
X61506500Y19723500D01*
X61556500Y19723500D01*
X61556500Y18503500D01*
X62776500Y18503500D01*
X62776500Y19723500D01*
X62826500Y19723500D01*
X62826500Y18503500D01*
X64046500Y18503500D01*
X64046500Y19723500D01*
X64096500Y19723500D01*
X64096500Y18503500D01*
X65316500Y18503500D01*
X65316500Y19723500D01*
X65366500Y19723500D01*
X65366500Y18503500D01*
X66201500Y18503500D01*
X66276500Y18578500D01*
X66276500Y19648500D01*
X66201500Y19723500D01*
X65366500Y19723500D01*
X65316500Y19723500D01*
X64096500Y19723500D01*
X64046500Y19723500D01*
X62826500Y19723500D01*
X62776500Y19723500D01*
X61556500Y19723500D01*
X61506500Y19723500D01*
X60286500Y19723500D01*
X60236500Y19723500D01*
X59016500Y19723500D01*
X58966500Y19723500D01*
X58131500Y19723500D01*
X58056500Y19648500D01*
X57847500Y19648500D01*
X57847500Y20443173D01*
X58056500Y20443173D01*
X58056500Y19848500D01*
X58131500Y19773500D01*
X58966500Y19773500D01*
X58966500Y20608500D01*
X59016500Y20608500D01*
X59016500Y19773500D01*
X60236500Y19773500D01*
X60236500Y20608500D01*
X60286500Y20608500D01*
X60286500Y19773500D01*
X61506500Y19773500D01*
X61506500Y20608500D01*
X61556500Y20608500D01*
X61556500Y19773500D01*
X62776500Y19773500D01*
X62776500Y20608500D01*
X62826500Y20608500D01*
X62826500Y19773500D01*
X64046500Y19773500D01*
X64046500Y20608500D01*
X64096500Y20608500D01*
X64096500Y19773500D01*
X65316500Y19773500D01*
X65316500Y20608500D01*
X65366500Y20608500D01*
X65366500Y19773500D01*
X66201500Y19773500D01*
X66276500Y19848500D01*
X66276500Y20443173D01*
X66230828Y20553436D01*
X66146437Y20637828D01*
X66036174Y20683500D01*
X65441500Y20683500D01*
X65366500Y20608500D01*
X65316500Y20608500D01*
X65241500Y20683500D01*
X64171500Y20683500D01*
X64096500Y20608500D01*
X64046500Y20608500D01*
X63971500Y20683500D01*
X62901500Y20683500D01*
X62826500Y20608500D01*
X62776500Y20608500D01*
X62701500Y20683500D01*
X61631500Y20683500D01*
X61556500Y20608500D01*
X61506500Y20608500D01*
X61431500Y20683500D01*
X60361500Y20683500D01*
X60286500Y20608500D01*
X60236500Y20608500D01*
X60161500Y20683500D01*
X59091500Y20683500D01*
X59016500Y20608500D01*
X58966500Y20608500D01*
X58891500Y20683500D01*
X58296826Y20683500D01*
X58186563Y20637828D01*
X58102172Y20553436D01*
X58056500Y20443173D01*
X57847500Y20443173D01*
X57847500Y24475248D01*
X59544624Y22778124D01*
X59698725Y22675157D01*
X59880500Y22639000D01*
X66579500Y22639000D01*
X66761275Y22675157D01*
X66915376Y22778124D01*
X67377896Y23240644D01*
X68913000Y23240644D01*
X69042702Y23265049D01*
X69161825Y23341703D01*
X69241741Y23458663D01*
X69269856Y23597500D01*
X69269856Y25297500D01*
X69257975Y25360644D01*
X70548500Y25360644D01*
X70678202Y25385049D01*
X70797325Y25461703D01*
X70877241Y25578663D01*
X70905356Y25717500D01*
X70905356Y30797500D01*
X70880951Y30927202D01*
X70804297Y31046325D01*
X70687337Y31126241D01*
X70548500Y31154356D01*
X62928500Y31154356D01*
X62798798Y31129951D01*
X62679675Y31053297D01*
X62599759Y30936337D01*
X62591270Y30894417D01*
X62577951Y30965202D01*
X62501297Y31084325D01*
X62384337Y31164241D01*
X62245500Y31192356D01*
X60245500Y31192356D01*
X60115798Y31167951D01*
X59996675Y31091297D01*
X59916759Y30974337D01*
X59888644Y30835500D01*
X59888644Y29350396D01*
X59461248Y28923000D01*
X58406207Y28923000D01*
X58494325Y28979703D01*
X58574241Y29096663D01*
X58602356Y29235500D01*
X58602356Y30835500D01*
X58577951Y30965202D01*
X58501297Y31084325D01*
X58384337Y31164241D01*
X58245500Y31192356D01*
X57720500Y31192356D01*
X57720500Y32666000D01*
X58247000Y32666000D01*
X58247000Y32071327D01*
X58292672Y31961064D01*
X58377063Y31876672D01*
X58487326Y31831000D01*
X59082000Y31831000D01*
X59157000Y31906000D01*
X59157000Y32741000D01*
X59207000Y32741000D01*
X59207000Y31906000D01*
X59282000Y31831000D01*
X60352000Y31831000D01*
X60427000Y31906000D01*
X60427000Y32741000D01*
X60477000Y32741000D01*
X60477000Y31906000D01*
X60552000Y31831000D01*
X61622000Y31831000D01*
X61697000Y31906000D01*
X61697000Y32741000D01*
X61747000Y32741000D01*
X61747000Y31906000D01*
X61822000Y31831000D01*
X62892000Y31831000D01*
X62967000Y31906000D01*
X62967000Y32741000D01*
X63017000Y32741000D01*
X63017000Y31906000D01*
X63092000Y31831000D01*
X64162000Y31831000D01*
X64237000Y31906000D01*
X64237000Y32741000D01*
X64287000Y32741000D01*
X64287000Y31906000D01*
X64362000Y31831000D01*
X65432000Y31831000D01*
X65507000Y31906000D01*
X65507000Y32741000D01*
X65557000Y32741000D01*
X65557000Y31906000D01*
X65632000Y31831000D01*
X66226674Y31831000D01*
X66336937Y31876672D01*
X66421328Y31961064D01*
X66467000Y32071327D01*
X66467000Y32666000D01*
X66392000Y32741000D01*
X65557000Y32741000D01*
X65507000Y32741000D01*
X64287000Y32741000D01*
X64237000Y32741000D01*
X63017000Y32741000D01*
X62967000Y32741000D01*
X61747000Y32741000D01*
X61697000Y32741000D01*
X60477000Y32741000D01*
X60427000Y32741000D01*
X59207000Y32741000D01*
X59157000Y32741000D01*
X58322000Y32741000D01*
X58247000Y32666000D01*
X57720500Y32666000D01*
X57720500Y33936000D01*
X58247000Y33936000D01*
X58247000Y32866000D01*
X58322000Y32791000D01*
X59157000Y32791000D01*
X59157000Y34011000D01*
X59207000Y34011000D01*
X59207000Y32791000D01*
X60427000Y32791000D01*
X60427000Y34011000D01*
X60477000Y34011000D01*
X60477000Y32791000D01*
X61697000Y32791000D01*
X61697000Y34011000D01*
X61747000Y34011000D01*
X61747000Y32791000D01*
X62967000Y32791000D01*
X62967000Y34011000D01*
X63017000Y34011000D01*
X63017000Y32791000D01*
X64237000Y32791000D01*
X64237000Y34011000D01*
X64287000Y34011000D01*
X64287000Y32791000D01*
X65507000Y32791000D01*
X65507000Y34011000D01*
X65557000Y34011000D01*
X65557000Y32791000D01*
X66392000Y32791000D01*
X66467000Y32866000D01*
X66467000Y33936000D01*
X66392000Y34011000D01*
X65557000Y34011000D01*
X65507000Y34011000D01*
X64287000Y34011000D01*
X64237000Y34011000D01*
X63017000Y34011000D01*
X62967000Y34011000D01*
X61747000Y34011000D01*
X61697000Y34011000D01*
X60477000Y34011000D01*
X60427000Y34011000D01*
X59207000Y34011000D01*
X59157000Y34011000D01*
X58322000Y34011000D01*
X58247000Y33936000D01*
X57720500Y33936000D01*
X57720500Y33940500D01*
X57684343Y34122275D01*
X57581376Y34276376D01*
X56651752Y35206000D01*
X58247000Y35206000D01*
X58247000Y34136000D01*
X58322000Y34061000D01*
X59157000Y34061000D01*
X59157000Y35281000D01*
X59207000Y35281000D01*
X59207000Y34061000D01*
X60427000Y34061000D01*
X60427000Y35281000D01*
X60477000Y35281000D01*
X60477000Y34061000D01*
X61697000Y34061000D01*
X61697000Y35281000D01*
X61747000Y35281000D01*
X61747000Y34061000D01*
X62967000Y34061000D01*
X62967000Y35281000D01*
X63017000Y35281000D01*
X63017000Y34061000D01*
X64237000Y34061000D01*
X64237000Y35281000D01*
X64287000Y35281000D01*
X64287000Y34061000D01*
X65507000Y34061000D01*
X65507000Y35281000D01*
X65557000Y35281000D01*
X65557000Y34061000D01*
X66392000Y34061000D01*
X66467000Y34136000D01*
X66467000Y35206000D01*
X66392000Y35281000D01*
X65557000Y35281000D01*
X65507000Y35281000D01*
X64287000Y35281000D01*
X64237000Y35281000D01*
X63017000Y35281000D01*
X62967000Y35281000D01*
X61747000Y35281000D01*
X61697000Y35281000D01*
X60477000Y35281000D01*
X60427000Y35281000D01*
X59207000Y35281000D01*
X59157000Y35281000D01*
X58322000Y35281000D01*
X58247000Y35206000D01*
X56651752Y35206000D01*
X55381752Y36476000D01*
X58247000Y36476000D01*
X58247000Y35406000D01*
X58322000Y35331000D01*
X59157000Y35331000D01*
X59157000Y36551000D01*
X59207000Y36551000D01*
X59207000Y35331000D01*
X60427000Y35331000D01*
X60427000Y36551000D01*
X60477000Y36551000D01*
X60477000Y35331000D01*
X61697000Y35331000D01*
X61697000Y36551000D01*
X61747000Y36551000D01*
X61747000Y35331000D01*
X62967000Y35331000D01*
X62967000Y36551000D01*
X63017000Y36551000D01*
X63017000Y35331000D01*
X64237000Y35331000D01*
X64237000Y36551000D01*
X64287000Y36551000D01*
X64287000Y35331000D01*
X65507000Y35331000D01*
X65507000Y36551000D01*
X65557000Y36551000D01*
X65557000Y35331000D01*
X66392000Y35331000D01*
X66467000Y35406000D01*
X66467000Y36476000D01*
X66392000Y36551000D01*
X65557000Y36551000D01*
X65507000Y36551000D01*
X64287000Y36551000D01*
X64237000Y36551000D01*
X63017000Y36551000D01*
X62967000Y36551000D01*
X61747000Y36551000D01*
X61697000Y36551000D01*
X60477000Y36551000D01*
X60427000Y36551000D01*
X59207000Y36551000D01*
X59157000Y36551000D01*
X58322000Y36551000D01*
X58247000Y36476000D01*
X55381752Y36476000D01*
X54695876Y37161876D01*
X54636981Y37201229D01*
X54706424Y37270673D01*
X58247000Y37270673D01*
X58247000Y36676000D01*
X58322000Y36601000D01*
X59157000Y36601000D01*
X59157000Y37436000D01*
X59207000Y37436000D01*
X59207000Y36601000D01*
X60427000Y36601000D01*
X60427000Y37436000D01*
X60477000Y37436000D01*
X60477000Y36601000D01*
X61697000Y36601000D01*
X61697000Y37436000D01*
X61747000Y37436000D01*
X61747000Y36601000D01*
X62967000Y36601000D01*
X62967000Y37436000D01*
X63017000Y37436000D01*
X63017000Y36601000D01*
X64237000Y36601000D01*
X64237000Y37436000D01*
X64287000Y37436000D01*
X64287000Y36601000D01*
X65507000Y36601000D01*
X65507000Y37436000D01*
X65557000Y37436000D01*
X65557000Y36601000D01*
X66392000Y36601000D01*
X66467000Y36676000D01*
X66467000Y37270673D01*
X66421328Y37380936D01*
X66336937Y37465328D01*
X66226674Y37511000D01*
X65632000Y37511000D01*
X65557000Y37436000D01*
X65507000Y37436000D01*
X65432000Y37511000D01*
X64362000Y37511000D01*
X64287000Y37436000D01*
X64237000Y37436000D01*
X64162000Y37511000D01*
X63092000Y37511000D01*
X63017000Y37436000D01*
X62967000Y37436000D01*
X62892000Y37511000D01*
X61822000Y37511000D01*
X61747000Y37436000D01*
X61697000Y37436000D01*
X61622000Y37511000D01*
X60552000Y37511000D01*
X60477000Y37436000D01*
X60427000Y37436000D01*
X60352000Y37511000D01*
X59282000Y37511000D01*
X59207000Y37436000D01*
X59157000Y37436000D01*
X59082000Y37511000D01*
X58487326Y37511000D01*
X58377063Y37465328D01*
X58292672Y37380936D01*
X58247000Y37270673D01*
X54706424Y37270673D01*
X56105776Y38670025D01*
X56272628Y38669879D01*
X56530000Y38776223D01*
X56727085Y38972964D01*
X56833878Y39230150D01*
X56834121Y39508628D01*
X56772815Y39657000D01*
X66579500Y39657000D01*
X66761275Y39693157D01*
X66915376Y39796124D01*
X67377896Y40258644D01*
X68913000Y40258644D01*
X69042702Y40283049D01*
X69161825Y40359703D01*
X69241741Y40476663D01*
X69269856Y40615500D01*
X69269856Y42315500D01*
X69245451Y42445202D01*
X69206557Y42505644D01*
X70548500Y42505644D01*
X70678202Y42530049D01*
X70797325Y42606703D01*
X70877241Y42723663D01*
X70905356Y42862500D01*
X70905356Y47942500D01*
X70880951Y48072202D01*
X70804297Y48191325D01*
X70687337Y48271241D01*
X70548500Y48299356D01*
X62928500Y48299356D01*
X62798798Y48274951D01*
X62679675Y48198297D01*
X62630796Y48126761D01*
X62564797Y48229325D01*
X62447837Y48309241D01*
X62309000Y48337356D01*
X60309000Y48337356D01*
X60179298Y48312951D01*
X60060175Y48236297D01*
X59980259Y48119337D01*
X59952144Y47980500D01*
X59952144Y46631523D01*
X59902777Y46751000D01*
X59706036Y46948085D01*
X59448850Y47054878D01*
X59170372Y47055121D01*
X58913000Y46948777D01*
X58715915Y46752036D01*
X58665856Y46631481D01*
X58665856Y47980500D01*
X58641451Y48110202D01*
X58564797Y48229325D01*
X58447837Y48309241D01*
X58309000Y48337356D01*
X56309000Y48337356D01*
X56179298Y48312951D01*
X56060175Y48236297D01*
X55980259Y48119337D01*
X55952144Y47980500D01*
X55952144Y46495396D01*
X55275500Y45818752D01*
X55275500Y49811000D01*
X57993000Y49811000D01*
X57993000Y49216327D01*
X58038672Y49106064D01*
X58123063Y49021672D01*
X58233326Y48976000D01*
X58828000Y48976000D01*
X58903000Y49051000D01*
X58903000Y49886000D01*
X58953000Y49886000D01*
X58953000Y49051000D01*
X59028000Y48976000D01*
X60098000Y48976000D01*
X60173000Y49051000D01*
X60173000Y49886000D01*
X60223000Y49886000D01*
X60223000Y49051000D01*
X60298000Y48976000D01*
X61368000Y48976000D01*
X61443000Y49051000D01*
X61443000Y49886000D01*
X61493000Y49886000D01*
X61493000Y49051000D01*
X61568000Y48976000D01*
X62638000Y48976000D01*
X62713000Y49051000D01*
X62713000Y49886000D01*
X62763000Y49886000D01*
X62763000Y49051000D01*
X62838000Y48976000D01*
X63908000Y48976000D01*
X63983000Y49051000D01*
X63983000Y49886000D01*
X64033000Y49886000D01*
X64033000Y49051000D01*
X64108000Y48976000D01*
X65178000Y48976000D01*
X65253000Y49051000D01*
X65253000Y49886000D01*
X65303000Y49886000D01*
X65303000Y49051000D01*
X65378000Y48976000D01*
X65972674Y48976000D01*
X66082937Y49021672D01*
X66167328Y49106064D01*
X66213000Y49216327D01*
X66213000Y49811000D01*
X66138000Y49886000D01*
X65303000Y49886000D01*
X65253000Y49886000D01*
X64033000Y49886000D01*
X63983000Y49886000D01*
X62763000Y49886000D01*
X62713000Y49886000D01*
X61493000Y49886000D01*
X61443000Y49886000D01*
X60223000Y49886000D01*
X60173000Y49886000D01*
X58953000Y49886000D01*
X58903000Y49886000D01*
X58068000Y49886000D01*
X57993000Y49811000D01*
X55275500Y49811000D01*
X55275500Y51081000D01*
X57993000Y51081000D01*
X57993000Y50011000D01*
X58068000Y49936000D01*
X58903000Y49936000D01*
X58903000Y51156000D01*
X58953000Y51156000D01*
X58953000Y49936000D01*
X60173000Y49936000D01*
X60173000Y51156000D01*
X60223000Y51156000D01*
X60223000Y49936000D01*
X61443000Y49936000D01*
X61443000Y51156000D01*
X61493000Y51156000D01*
X61493000Y49936000D01*
X62713000Y49936000D01*
X62713000Y51156000D01*
X62763000Y51156000D01*
X62763000Y49936000D01*
X63983000Y49936000D01*
X63983000Y51156000D01*
X64033000Y51156000D01*
X64033000Y49936000D01*
X65253000Y49936000D01*
X65253000Y51156000D01*
X65303000Y51156000D01*
X65303000Y49936000D01*
X66138000Y49936000D01*
X66213000Y50011000D01*
X66213000Y51081000D01*
X66138000Y51156000D01*
X65303000Y51156000D01*
X65253000Y51156000D01*
X64033000Y51156000D01*
X63983000Y51156000D01*
X62763000Y51156000D01*
X62713000Y51156000D01*
X61493000Y51156000D01*
X61443000Y51156000D01*
X60223000Y51156000D01*
X60173000Y51156000D01*
X58953000Y51156000D01*
X58903000Y51156000D01*
X58068000Y51156000D01*
X57993000Y51081000D01*
X55275500Y51081000D01*
X55275500Y52351000D01*
X57993000Y52351000D01*
X57993000Y51281000D01*
X58068000Y51206000D01*
X58903000Y51206000D01*
X58903000Y52426000D01*
X58953000Y52426000D01*
X58953000Y51206000D01*
X60173000Y51206000D01*
X60173000Y52426000D01*
X60223000Y52426000D01*
X60223000Y51206000D01*
X61443000Y51206000D01*
X61443000Y52426000D01*
X61493000Y52426000D01*
X61493000Y51206000D01*
X62713000Y51206000D01*
X62713000Y52426000D01*
X62763000Y52426000D01*
X62763000Y51206000D01*
X63983000Y51206000D01*
X63983000Y52426000D01*
X64033000Y52426000D01*
X64033000Y51206000D01*
X65253000Y51206000D01*
X65253000Y52426000D01*
X65303000Y52426000D01*
X65303000Y51206000D01*
X66138000Y51206000D01*
X66213000Y51281000D01*
X66213000Y52351000D01*
X66138000Y52426000D01*
X65303000Y52426000D01*
X65253000Y52426000D01*
X64033000Y52426000D01*
X63983000Y52426000D01*
X62763000Y52426000D01*
X62713000Y52426000D01*
X61493000Y52426000D01*
X61443000Y52426000D01*
X60223000Y52426000D01*
X60173000Y52426000D01*
X58953000Y52426000D01*
X58903000Y52426000D01*
X58068000Y52426000D01*
X57993000Y52351000D01*
X55275500Y52351000D01*
X55275500Y53333748D01*
X55562751Y53621000D01*
X57993000Y53621000D01*
X57993000Y52551000D01*
X58068000Y52476000D01*
X58903000Y52476000D01*
X58903000Y53696000D01*
X58953000Y53696000D01*
X58953000Y52476000D01*
X60173000Y52476000D01*
X60173000Y53696000D01*
X60223000Y53696000D01*
X60223000Y52476000D01*
X61443000Y52476000D01*
X61443000Y53696000D01*
X61493000Y53696000D01*
X61493000Y52476000D01*
X62713000Y52476000D01*
X62713000Y53696000D01*
X62763000Y53696000D01*
X62763000Y52476000D01*
X63983000Y52476000D01*
X63983000Y53696000D01*
X64033000Y53696000D01*
X64033000Y52476000D01*
X65253000Y52476000D01*
X65253000Y53696000D01*
X65303000Y53696000D01*
X65303000Y52476000D01*
X66138000Y52476000D01*
X66213000Y52551000D01*
X66213000Y53621000D01*
X66138000Y53696000D01*
X65303000Y53696000D01*
X65253000Y53696000D01*
X64033000Y53696000D01*
X63983000Y53696000D01*
X62763000Y53696000D01*
X62713000Y53696000D01*
X61493000Y53696000D01*
X61443000Y53696000D01*
X60223000Y53696000D01*
X60173000Y53696000D01*
X58953000Y53696000D01*
X58903000Y53696000D01*
X58068000Y53696000D01*
X57993000Y53621000D01*
X55562751Y53621000D01*
X55724776Y53783025D01*
X55891628Y53782879D01*
X56149000Y53889223D01*
X56346085Y54085964D01*
X56452878Y54343150D01*
X56452941Y54415673D01*
X57993000Y54415673D01*
X57993000Y53821000D01*
X58068000Y53746000D01*
X58903000Y53746000D01*
X58903000Y54581000D01*
X58953000Y54581000D01*
X58953000Y53746000D01*
X60173000Y53746000D01*
X60173000Y54581000D01*
X60223000Y54581000D01*
X60223000Y53746000D01*
X61443000Y53746000D01*
X61443000Y54581000D01*
X61493000Y54581000D01*
X61493000Y53746000D01*
X62713000Y53746000D01*
X62713000Y54581000D01*
X62763000Y54581000D01*
X62763000Y53746000D01*
X63983000Y53746000D01*
X63983000Y54581000D01*
X64033000Y54581000D01*
X64033000Y53746000D01*
X65253000Y53746000D01*
X65253000Y54581000D01*
X65303000Y54581000D01*
X65303000Y53746000D01*
X66138000Y53746000D01*
X66213000Y53821000D01*
X66213000Y54415673D01*
X66167328Y54525936D01*
X66082937Y54610328D01*
X65972674Y54656000D01*
X65378000Y54656000D01*
X65303000Y54581000D01*
X65253000Y54581000D01*
X65178000Y54656000D01*
X64108000Y54656000D01*
X64033000Y54581000D01*
X63983000Y54581000D01*
X63908000Y54656000D01*
X62838000Y54656000D01*
X62763000Y54581000D01*
X62713000Y54581000D01*
X62638000Y54656000D01*
X61568000Y54656000D01*
X61493000Y54581000D01*
X61443000Y54581000D01*
X61368000Y54656000D01*
X60298000Y54656000D01*
X60223000Y54581000D01*
X60173000Y54581000D01*
X60098000Y54656000D01*
X59028000Y54656000D01*
X58953000Y54581000D01*
X58903000Y54581000D01*
X58828000Y54656000D01*
X58233326Y54656000D01*
X58123063Y54610328D01*
X58038672Y54525936D01*
X57993000Y54415673D01*
X56452941Y54415673D01*
X56453121Y54621628D01*
X56346777Y54879000D01*
X56150036Y55076085D01*
X55892850Y55182878D01*
X55614372Y55183121D01*
X55357000Y55076777D01*
X55159915Y54880036D01*
X55053122Y54622850D01*
X55052975Y54454727D01*
X54464624Y53866376D01*
X54361657Y53712275D01*
X54325500Y53530500D01*
X54325500Y43631415D01*
X54207415Y43513536D01*
X54100622Y43256350D01*
X54100379Y42977872D01*
X54206723Y42720500D01*
X54403464Y42523415D01*
X54508181Y42479933D01*
X51829248Y39801000D01*
X50898356Y39801000D01*
X50898356Y39968500D01*
X50877386Y40079946D01*
X50898356Y40183500D01*
X50898356Y40468500D01*
X50877386Y40579946D01*
X50898356Y40683500D01*
X50898356Y40968500D01*
X50877386Y41079946D01*
X50898356Y41183500D01*
X50898356Y41468500D01*
X50873951Y41598202D01*
X50841500Y41648632D01*
X50841500Y41726000D01*
X50766500Y41801000D01*
X50661774Y41801000D01*
X50541500Y41825356D01*
X49996500Y41825356D01*
X49996500Y41851000D01*
X50016500Y41851000D01*
X50016500Y42301000D01*
X50066500Y42301000D01*
X50066500Y41851000D01*
X50766500Y41851000D01*
X50841500Y41926000D01*
X50841500Y42028173D01*
X50821690Y42076000D01*
X50841500Y42123827D01*
X50841500Y42226000D01*
X50766500Y42301000D01*
X50066500Y42301000D01*
X50016500Y42301000D01*
X49316500Y42301000D01*
X49241500Y42226000D01*
X49241500Y42123827D01*
X49251525Y42099625D01*
X49052500Y42298650D01*
X49052500Y43468500D01*
X49184644Y43468500D01*
X49184644Y43183500D01*
X49205614Y43072054D01*
X49184644Y42968500D01*
X49184644Y42683500D01*
X49209049Y42553798D01*
X49241500Y42503368D01*
X49241500Y42426000D01*
X49316500Y42351000D01*
X49421226Y42351000D01*
X49541500Y42326644D01*
X50541500Y42326644D01*
X50670942Y42351000D01*
X50766500Y42351000D01*
X50841500Y42426000D01*
X50841500Y42502599D01*
X50870241Y42544663D01*
X50898356Y42683500D01*
X50898356Y42968500D01*
X50877386Y43079946D01*
X50898356Y43183500D01*
X50898356Y43468500D01*
X50873951Y43598202D01*
X50797297Y43717325D01*
X50680337Y43797241D01*
X50541500Y43825356D01*
X49541500Y43825356D01*
X49411798Y43800951D01*
X49292675Y43724297D01*
X49212759Y43607337D01*
X49184644Y43468500D01*
X49052500Y43468500D01*
X49052500Y43745248D01*
X49559346Y44252094D01*
X49575703Y44226675D01*
X49692663Y44146759D01*
X49831500Y44118644D01*
X51831500Y44118644D01*
X51961202Y44143049D01*
X52080325Y44219703D01*
X52160241Y44336663D01*
X52188356Y44475500D01*
X52188356Y46075500D01*
X52163951Y46205202D01*
X52087297Y46324325D01*
X51970337Y46404241D01*
X51831500Y46432356D01*
X49831500Y46432356D01*
X49701798Y46407951D01*
X49582675Y46331297D01*
X49502759Y46214337D01*
X49474644Y46075500D01*
X49474644Y45510896D01*
X48241624Y44277876D01*
X48138657Y44123775D01*
X48102500Y43942000D01*
X48102500Y42101898D01*
X48138657Y41920123D01*
X48167471Y41877000D01*
X47821751Y41877000D01*
X47306500Y42392252D01*
X47306500Y44118644D01*
X47831500Y44118644D01*
X47961202Y44143049D01*
X48080325Y44219703D01*
X48160241Y44336663D01*
X48188356Y44475500D01*
X48188356Y46075500D01*
X48163951Y46205202D01*
X48087297Y46324325D01*
X47970337Y46404241D01*
X47831500Y46432356D01*
X47421608Y46432356D01*
X48791521Y47802269D01*
X48780131Y47774839D01*
X48779870Y47476470D01*
X48893811Y47200714D01*
X49104605Y46989552D01*
X49380161Y46875131D01*
X49678530Y46874870D01*
X49954286Y46988811D01*
X50165448Y47199605D01*
X50279869Y47475161D01*
X50280069Y47703317D01*
X51330895Y48754144D01*
X53281500Y48754144D01*
X53411202Y48778549D01*
X53530325Y48855203D01*
X53610241Y48972163D01*
X53638356Y49111000D01*
X53638356Y50711000D01*
X53613951Y50840702D01*
X53537297Y50959825D01*
X53420337Y51039741D01*
X53281500Y51067856D01*
X52006500Y51067856D01*
X52006500Y51084495D01*
X52006501Y51084500D01*
X51970343Y51266274D01*
X51970343Y51266275D01*
X51867376Y51420376D01*
X51867373Y51420378D01*
X50444500Y52843252D01*
X50444500Y53446144D01*
X51069500Y53446144D01*
X51199202Y53470549D01*
X51318325Y53547203D01*
X51398241Y53664163D01*
X51426356Y53803000D01*
X51426356Y57703000D01*
X51401951Y57832702D01*
X51325297Y57951825D01*
X51208337Y58031741D01*
X51069500Y58059856D01*
X48869500Y58059856D01*
X48739798Y58035451D01*
X48620675Y57958797D01*
X48540759Y57841837D01*
X48512644Y57703000D01*
X48512644Y53803000D01*
X48537049Y53673298D01*
X48613703Y53554175D01*
X48730663Y53474259D01*
X48869500Y53446144D01*
X49494500Y53446144D01*
X49494500Y52646500D01*
X49530657Y52464725D01*
X49633624Y52310624D01*
X50876393Y51067856D01*
X49781500Y51067856D01*
X49651798Y51043451D01*
X49532675Y50966797D01*
X49452759Y50849837D01*
X49424644Y50711000D01*
X49424644Y49111000D01*
X49449049Y48981298D01*
X49525703Y48862175D01*
X49642663Y48782259D01*
X49781500Y48754144D01*
X49987392Y48754144D01*
X49608180Y48374932D01*
X49381470Y48375130D01*
X49267563Y48328064D01*
X49270343Y48332225D01*
X49306500Y48514000D01*
X49306500Y51561995D01*
X49306501Y51562000D01*
X49270344Y51743774D01*
X49236177Y51794908D01*
X49167376Y51897876D01*
X49167373Y51897878D01*
X47518157Y53547095D01*
X47518325Y53547203D01*
X47598241Y53664163D01*
X47626356Y53803000D01*
X47626356Y57703000D01*
X47601951Y57832702D01*
X47525297Y57951825D01*
X47408337Y58031741D01*
X47269500Y58059856D01*
X45069500Y58059856D01*
X44939798Y58035451D01*
X44820675Y57958797D01*
X44740759Y57841837D01*
X44712644Y57703000D01*
X44712644Y55934000D01*
X43992356Y55934000D01*
X43992356Y57209000D01*
X43967951Y57338702D01*
X43891297Y57457825D01*
X43774337Y57537741D01*
X43635500Y57565856D01*
X41835500Y57565856D01*
X41705798Y57541451D01*
X41586675Y57464797D01*
X41506759Y57347837D01*
X41478644Y57209000D01*
X41478644Y53709000D01*
X41503049Y53579298D01*
X41579703Y53460175D01*
X41696663Y53380259D01*
X41835500Y53352144D01*
X43635500Y53352144D01*
X43765202Y53376549D01*
X43884325Y53453203D01*
X43964241Y53570163D01*
X43992356Y53709000D01*
X43992356Y54984000D01*
X44712644Y54984000D01*
X44712644Y53803000D01*
X44737049Y53673298D01*
X44813703Y53554175D01*
X44930663Y53474259D01*
X45069500Y53446144D01*
X46275604Y53446144D01*
X48356500Y51365249D01*
X48356500Y48710752D01*
X46495624Y46849876D01*
X46392657Y46695775D01*
X46356500Y46514000D01*
X46356500Y46432356D01*
X45831500Y46432356D01*
X45701798Y46407951D01*
X45582675Y46331297D01*
X45545755Y46277263D01*
X45483297Y46374325D01*
X45366337Y46454241D01*
X45227500Y46482356D01*
X43227500Y46482356D01*
X43097798Y46457951D01*
X42978675Y46381297D01*
X42898759Y46264337D01*
X42870644Y46125500D01*
X42870644Y44425500D01*
X42895049Y44295798D01*
X42971703Y44176675D01*
X43088663Y44096759D01*
X43227500Y44068644D01*
X43752500Y44068644D01*
X43752500Y43593000D01*
X43788657Y43411225D01*
X43891624Y43257124D01*
X46405893Y40742856D01*
X44386500Y40742856D01*
X44256798Y40718451D01*
X44137675Y40641797D01*
X44057759Y40524837D01*
X44029644Y40386000D01*
X44029644Y38530209D01*
X43960376Y38633876D01*
X43932376Y38661876D01*
X43778275Y38764843D01*
X43596500Y38801000D01*
X43398356Y38801000D01*
X43398356Y38968500D01*
X43377386Y39079946D01*
X43398356Y39183500D01*
X43398356Y39468500D01*
X43377386Y39579946D01*
X43398356Y39683500D01*
X43398356Y39968500D01*
X43377386Y40079946D01*
X43398356Y40183500D01*
X43398356Y40468500D01*
X43377386Y40579946D01*
X43398356Y40683500D01*
X43398356Y40968500D01*
X43377386Y41079946D01*
X43398356Y41183500D01*
X43398356Y41468500D01*
X43377386Y41579946D01*
X43398356Y41683500D01*
X43398356Y41968500D01*
X43377386Y42079946D01*
X43398356Y42183500D01*
X43398356Y42468500D01*
X43377386Y42579946D01*
X43398356Y42683500D01*
X43398356Y42968500D01*
X43377386Y43079946D01*
X43398356Y43183500D01*
X43398356Y43468500D01*
X43373951Y43598202D01*
X43297297Y43717325D01*
X43180337Y43797241D01*
X43041500Y43825356D01*
X42041500Y43825356D01*
X41912058Y43801000D01*
X38691254Y43801000D01*
X37084356Y45407898D01*
X37084356Y46125500D01*
X38870644Y46125500D01*
X38870644Y44425500D01*
X38895049Y44295798D01*
X38971703Y44176675D01*
X39088663Y44096759D01*
X39227500Y44068644D01*
X41227500Y44068644D01*
X41357202Y44093049D01*
X41476325Y44169703D01*
X41556241Y44286663D01*
X41584356Y44425500D01*
X41584356Y46125500D01*
X41559951Y46255202D01*
X41483297Y46374325D01*
X41366337Y46454241D01*
X41227500Y46482356D01*
X40702500Y46482356D01*
X40702500Y48332144D01*
X41059000Y48332144D01*
X41188702Y48356549D01*
X41307825Y48433203D01*
X41387741Y48550163D01*
X41415856Y48689000D01*
X41415856Y50689000D01*
X41391451Y50818702D01*
X41314797Y50937825D01*
X41197837Y51017741D01*
X41059000Y51045856D01*
X39459000Y51045856D01*
X39329298Y51021451D01*
X39210175Y50944797D01*
X39130259Y50827837D01*
X39102144Y50689000D01*
X39102144Y48689000D01*
X39126549Y48559298D01*
X39203203Y48440175D01*
X39320163Y48360259D01*
X39459000Y48332144D01*
X39752500Y48332144D01*
X39752500Y46482356D01*
X39227500Y46482356D01*
X39097798Y46457951D01*
X38978675Y46381297D01*
X38898759Y46264337D01*
X38870644Y46125500D01*
X37084356Y46125500D01*
X37084356Y46625000D01*
X37059951Y46754702D01*
X36983297Y46873825D01*
X36866337Y46953741D01*
X36727500Y46981856D01*
X35027500Y46981856D01*
X34897798Y46957451D01*
X34778675Y46880797D01*
X34741408Y46826255D01*
X34710797Y46873825D01*
X34593837Y46953741D01*
X34455000Y46981856D01*
X32855000Y46981856D01*
X32725298Y46957451D01*
X32606175Y46880797D01*
X32543158Y46788569D01*
X32488297Y46873825D01*
X32371337Y46953741D01*
X32232500Y46981856D01*
X30632500Y46981856D01*
X30502798Y46957451D01*
X30383675Y46880797D01*
X30303759Y46763837D01*
X30275644Y46625000D01*
X30275644Y44625000D01*
X30300049Y44495298D01*
X30376703Y44376175D01*
X30428318Y44340907D01*
X30342675Y44285797D01*
X30262759Y44168837D01*
X30234644Y44030000D01*
X30234644Y42330000D01*
X30248192Y42258000D01*
X30162856Y42258000D01*
X30162856Y43450000D01*
X30138451Y43579702D01*
X30061797Y43698825D01*
X29944837Y43778741D01*
X29806000Y43806856D01*
X28106000Y43806856D01*
X27976298Y43782451D01*
X27940356Y43759323D01*
X27940356Y43937104D01*
X29096395Y45093144D01*
X29806000Y45093144D01*
X29935702Y45117549D01*
X30054825Y45194203D01*
X30134741Y45311163D01*
X30162856Y45450000D01*
X30162856Y47450000D01*
X30138451Y47579702D01*
X30061797Y47698825D01*
X29944837Y47778741D01*
X29815686Y47804895D01*
X29845448Y47834605D01*
X29959869Y48110161D01*
X29960130Y48408530D01*
X29846189Y48684286D01*
X29685000Y48845756D01*
X29685000Y49656995D01*
X29685001Y49657000D01*
X29651871Y49823552D01*
X29648843Y49838775D01*
X29545876Y49992876D01*
X28913752Y50625000D01*
X30275644Y50625000D01*
X30275644Y48625000D01*
X30300049Y48495298D01*
X30376703Y48376175D01*
X30493663Y48296259D01*
X30632500Y48268144D01*
X32232500Y48268144D01*
X32362202Y48292549D01*
X32481325Y48369203D01*
X32544342Y48461431D01*
X32599203Y48376175D01*
X32716163Y48296259D01*
X32855000Y48268144D01*
X34455000Y48268144D01*
X34584702Y48292549D01*
X34703825Y48369203D01*
X34741092Y48423745D01*
X34771703Y48376175D01*
X34888663Y48296259D01*
X35027500Y48268144D01*
X36727500Y48268144D01*
X36857202Y48292549D01*
X36976325Y48369203D01*
X37056241Y48486163D01*
X37084356Y48625000D01*
X37084356Y50625000D01*
X37059951Y50754702D01*
X36983297Y50873825D01*
X36866337Y50953741D01*
X36727500Y50981856D01*
X35027500Y50981856D01*
X34897798Y50957451D01*
X34778675Y50880797D01*
X34741408Y50826255D01*
X34710797Y50873825D01*
X34593837Y50953741D01*
X34455000Y50981856D01*
X32855000Y50981856D01*
X32725298Y50957451D01*
X32606175Y50880797D01*
X32543158Y50788569D01*
X32488297Y50873825D01*
X32371337Y50953741D01*
X32232500Y50981856D01*
X30632500Y50981856D01*
X30502798Y50957451D01*
X30383675Y50880797D01*
X30303759Y50763837D01*
X30275644Y50625000D01*
X28913752Y50625000D01*
X27622856Y51915896D01*
X27622856Y51976000D01*
X29250000Y51976000D01*
X29431775Y52012157D01*
X29585876Y52115124D01*
X29679752Y52209000D01*
X41478644Y52209000D01*
X41478644Y48709000D01*
X41503049Y48579298D01*
X41579703Y48460175D01*
X41696663Y48380259D01*
X41835500Y48352144D01*
X43635500Y48352144D01*
X43765202Y48376549D01*
X43884325Y48453203D01*
X43964241Y48570163D01*
X43992356Y48709000D01*
X43992356Y50711000D01*
X44024644Y50711000D01*
X44024644Y49111000D01*
X44049049Y48981298D01*
X44125703Y48862175D01*
X44242663Y48782259D01*
X44381500Y48754144D01*
X47881500Y48754144D01*
X48011202Y48778549D01*
X48130325Y48855203D01*
X48210241Y48972163D01*
X48238356Y49111000D01*
X48238356Y50711000D01*
X48213951Y50840702D01*
X48137297Y50959825D01*
X48020337Y51039741D01*
X47881500Y51067856D01*
X44381500Y51067856D01*
X44251798Y51043451D01*
X44132675Y50966797D01*
X44052759Y50849837D01*
X44024644Y50711000D01*
X43992356Y50711000D01*
X43992356Y52209000D01*
X43967951Y52338702D01*
X43891297Y52457825D01*
X43774337Y52537741D01*
X43635500Y52565856D01*
X41835500Y52565856D01*
X41705798Y52541451D01*
X41586675Y52464797D01*
X41506759Y52347837D01*
X41478644Y52209000D01*
X29679752Y52209000D01*
X30569896Y53099144D01*
X32905000Y53099144D01*
X33034702Y53123549D01*
X33153825Y53200203D01*
X33233741Y53317163D01*
X33261856Y53456000D01*
X33261856Y55256000D01*
X34048144Y55256000D01*
X34048144Y53456000D01*
X34072549Y53326298D01*
X34149203Y53207175D01*
X34266163Y53127259D01*
X34405000Y53099144D01*
X37905000Y53099144D01*
X38034702Y53123549D01*
X38153825Y53200203D01*
X38233741Y53317163D01*
X38261856Y53456000D01*
X38261856Y53589000D01*
X39159000Y53589000D01*
X39159000Y52629326D01*
X39204672Y52519063D01*
X39289064Y52434672D01*
X39399327Y52389000D01*
X40159000Y52389000D01*
X40234000Y52464000D01*
X40234000Y53664000D01*
X40284000Y53664000D01*
X40284000Y52464000D01*
X40359000Y52389000D01*
X41118673Y52389000D01*
X41228936Y52434672D01*
X41313328Y52519063D01*
X41359000Y52629326D01*
X41359000Y53589000D01*
X41284000Y53664000D01*
X40284000Y53664000D01*
X40234000Y53664000D01*
X39234000Y53664000D01*
X39159000Y53589000D01*
X38261856Y53589000D01*
X38261856Y54748674D01*
X39159000Y54748674D01*
X39159000Y53789000D01*
X39234000Y53714000D01*
X40234000Y53714000D01*
X40234000Y54914000D01*
X40284000Y54914000D01*
X40284000Y53714000D01*
X41284000Y53714000D01*
X41359000Y53789000D01*
X41359000Y54748674D01*
X41313328Y54858937D01*
X41228936Y54943328D01*
X41118673Y54989000D01*
X40359000Y54989000D01*
X40284000Y54914000D01*
X40234000Y54914000D01*
X40159000Y54989000D01*
X39399327Y54989000D01*
X39289064Y54943328D01*
X39204672Y54858937D01*
X39159000Y54748674D01*
X38261856Y54748674D01*
X38261856Y55256000D01*
X38237451Y55385702D01*
X38160797Y55504825D01*
X38043837Y55584741D01*
X37905000Y55612856D01*
X34405000Y55612856D01*
X34275298Y55588451D01*
X34156175Y55511797D01*
X34076259Y55394837D01*
X34048144Y55256000D01*
X33261856Y55256000D01*
X33237451Y55385702D01*
X33160797Y55504825D01*
X33043837Y55584741D01*
X32905000Y55612856D01*
X29405000Y55612856D01*
X29275298Y55588451D01*
X29156175Y55511797D01*
X29076259Y55394837D01*
X29048144Y55256000D01*
X29048144Y53456000D01*
X29072549Y53326298D01*
X29149203Y53207175D01*
X29259238Y53131990D01*
X29053248Y52926000D01*
X27622856Y52926000D01*
X27622856Y53301000D01*
X27598451Y53430702D01*
X27521797Y53549825D01*
X27404837Y53629741D01*
X27266000Y53657856D01*
X25566000Y53657856D01*
X25436298Y53633451D01*
X25317175Y53556797D01*
X25237259Y53439837D01*
X25209144Y53301000D01*
X25209144Y52926000D01*
X24103000Y52926000D01*
X24103000Y54516000D01*
X25294380Y54516000D01*
X25543963Y54142472D01*
X25933271Y53882345D01*
X26392491Y53791000D01*
X26439509Y53791000D01*
X26898729Y53882345D01*
X27288037Y54142472D01*
X27548164Y54531780D01*
X27639509Y54991000D01*
X27548164Y55450220D01*
X27288037Y55839528D01*
X26898729Y56099655D01*
X26439509Y56191000D01*
X26392491Y56191000D01*
X25933271Y56099655D01*
X25543963Y55839528D01*
X25294380Y55466000D01*
X24103000Y55466000D01*
X24103000Y59938823D01*
X69169662Y59938823D01*
X69465906Y59221857D01*
X70013971Y58672834D01*
X70730419Y58375339D01*
X71506177Y58374662D01*
X72223143Y58670906D01*
X72772166Y59218971D01*
X73069661Y59935419D01*
X73070338Y60711177D01*
X72774094Y61428143D01*
X72226029Y61977166D01*
X71509581Y62274661D01*
X70733823Y62275338D01*
X70016857Y61979094D01*
X69467834Y61431029D01*
X69170339Y60714581D01*
X69169662Y59938823D01*
X24103000Y59938823D01*
X24103000Y63075000D01*
X71078140Y63075000D01*
X72169195Y62857976D01*
G36*
X23649000Y55466000D02*
X22338186Y55466000D01*
X22248110Y55684000D01*
X21903813Y56028899D01*
X21453737Y56215787D01*
X20966401Y56216212D01*
X20516000Y56030110D01*
X20171101Y55685813D01*
X19984213Y55235737D01*
X19983788Y54748401D01*
X20169890Y54298000D01*
X20271712Y54196000D01*
X20135751Y54196000D01*
X19779000Y54552752D01*
X19779000Y55626000D01*
X19742843Y55807775D01*
X19639876Y55961876D01*
X19639873Y55961878D01*
X19258876Y56342876D01*
X19104775Y56445843D01*
X18923000Y56482000D01*
X16256000Y56482000D01*
X16074225Y56445843D01*
X15920124Y56342876D01*
X13773248Y54196000D01*
X6906537Y54196000D01*
X7006899Y54296187D01*
X7193787Y54746263D01*
X7194212Y55233599D01*
X7008110Y55684000D01*
X6663813Y56028899D01*
X6213737Y56215787D01*
X5726401Y56216212D01*
X5276000Y56030110D01*
X4931101Y55685813D01*
X4744213Y55235737D01*
X4743788Y54748401D01*
X4929890Y54298000D01*
X5031712Y54196000D01*
X4387752Y54196000D01*
X4127856Y54455896D01*
X4127856Y55841000D01*
X4103451Y55970702D01*
X4026797Y56089825D01*
X3909837Y56169741D01*
X3771000Y56197856D01*
X2071000Y56197856D01*
X1941298Y56173451D01*
X1822175Y56096797D01*
X1742259Y55979837D01*
X1714144Y55841000D01*
X1714144Y54141000D01*
X1738549Y54011298D01*
X1815203Y53892175D01*
X1932163Y53812259D01*
X2071000Y53784144D01*
X3456104Y53784144D01*
X3855124Y53385124D01*
X4009225Y53282157D01*
X4191000Y53246000D01*
X5031463Y53246000D01*
X4931101Y53145813D01*
X4744213Y52695737D01*
X4743788Y52208401D01*
X4929890Y51758000D01*
X5274187Y51413101D01*
X5724263Y51226213D01*
X6211599Y51225788D01*
X6593712Y51383674D01*
X16553000Y51383674D01*
X16553000Y50424000D01*
X16628000Y50349000D01*
X17628000Y50349000D01*
X17628000Y51549000D01*
X17678000Y51549000D01*
X17678000Y50349000D01*
X18678000Y50349000D01*
X18753000Y50424000D01*
X18753000Y50722576D01*
X20432779Y50722576D01*
X21209000Y49946355D01*
X21985221Y50722576D01*
X21892800Y50894702D01*
X21464302Y51081501D01*
X20996937Y51090102D01*
X20561857Y50919195D01*
X20525200Y50894702D01*
X20432779Y50722576D01*
X18753000Y50722576D01*
X18753000Y51383674D01*
X18707328Y51493937D01*
X18622936Y51578328D01*
X18512673Y51624000D01*
X17753000Y51624000D01*
X17678000Y51549000D01*
X17628000Y51549000D01*
X17553000Y51624000D01*
X16793327Y51624000D01*
X16683064Y51578328D01*
X16598672Y51493937D01*
X16553000Y51383674D01*
X6593712Y51383674D01*
X6662000Y51411890D01*
X7006899Y51756187D01*
X7193787Y52206263D01*
X7194212Y52693599D01*
X7008110Y53144000D01*
X6906288Y53246000D01*
X13970000Y53246000D01*
X14151775Y53282157D01*
X14305876Y53385124D01*
X16452752Y55532000D01*
X16571516Y55532000D01*
X16524259Y55462837D01*
X16496144Y55324000D01*
X16496144Y53324000D01*
X16520549Y53194298D01*
X16597203Y53075175D01*
X16714163Y52995259D01*
X16853000Y52967144D01*
X18370104Y52967144D01*
X19222124Y52115124D01*
X19376225Y52012157D01*
X19558000Y51976000D01*
X20079814Y51976000D01*
X20169890Y51758000D01*
X20514187Y51413101D01*
X20964263Y51226213D01*
X21451599Y51225788D01*
X21902000Y51411890D01*
X22246899Y51756187D01*
X22433787Y52206263D01*
X22434212Y52693599D01*
X22248110Y53144000D01*
X22146288Y53246000D01*
X22282248Y53246000D01*
X23413124Y52115124D01*
X23567225Y52012157D01*
X23649000Y51995891D01*
X23649000Y46576000D01*
X22146537Y46576000D01*
X22246899Y46676187D01*
X22433787Y47126263D01*
X22434212Y47613599D01*
X22248110Y48064000D01*
X21903813Y48408899D01*
X21453737Y48595787D01*
X20966401Y48596212D01*
X20516000Y48410110D01*
X20171101Y48065813D01*
X19984213Y47615737D01*
X19983788Y47128401D01*
X20169890Y46678000D01*
X20271712Y46576000D01*
X19939000Y46576000D01*
X19757225Y46539843D01*
X19603124Y46436876D01*
X19131579Y45965331D01*
X18913737Y46055787D01*
X18426401Y46056212D01*
X17976000Y45870110D01*
X17631101Y45525813D01*
X17444213Y45075737D01*
X17443788Y44588401D01*
X17629890Y44138000D01*
X17974187Y43793101D01*
X18424263Y43606213D01*
X18911599Y43605788D01*
X19362000Y43791890D01*
X19706899Y44136187D01*
X19893787Y44586263D01*
X19894212Y45073599D01*
X19803322Y45293570D01*
X20135752Y45626000D01*
X20271463Y45626000D01*
X20171101Y45525813D01*
X19984213Y45075737D01*
X19983788Y44588401D01*
X20169890Y44138000D01*
X20514187Y43793101D01*
X20964263Y43606213D01*
X21451599Y43605788D01*
X21902000Y43791890D01*
X22246899Y44136187D01*
X22338173Y44356000D01*
X23649000Y44356000D01*
X23649000Y38956000D01*
X22146537Y38956000D01*
X22246899Y39056187D01*
X22433787Y39506263D01*
X22434212Y39993599D01*
X22248110Y40444000D01*
X21903813Y40788899D01*
X21453737Y40975787D01*
X20966401Y40976212D01*
X20516000Y40790110D01*
X20171101Y40445813D01*
X19984213Y39995737D01*
X19983788Y39508401D01*
X20169890Y39058000D01*
X20271712Y38956000D01*
X16042908Y38956000D01*
X16130378Y39166650D01*
X16130396Y39187809D01*
X16306650Y39114622D01*
X16585128Y39114379D01*
X16842500Y39220723D01*
X17039585Y39417464D01*
X17146378Y39674650D01*
X17146621Y39953128D01*
X17040277Y40210500D01*
X16921500Y40329485D01*
X16921500Y42048401D01*
X17443788Y42048401D01*
X17629890Y41598000D01*
X17974187Y41253101D01*
X18424263Y41066213D01*
X18911599Y41065788D01*
X19362000Y41251890D01*
X19706899Y41596187D01*
X19893787Y42046263D01*
X19893788Y42048401D01*
X19983788Y42048401D01*
X20169890Y41598000D01*
X20514187Y41253101D01*
X20964263Y41066213D01*
X21451599Y41065788D01*
X21902000Y41251890D01*
X22246899Y41596187D01*
X22433787Y42046263D01*
X22434212Y42533599D01*
X22248110Y42984000D01*
X21903813Y43328899D01*
X21453737Y43515787D01*
X20966401Y43516212D01*
X20516000Y43330110D01*
X20171101Y42985813D01*
X19984213Y42535737D01*
X19983788Y42048401D01*
X19893788Y42048401D01*
X19894212Y42533599D01*
X19708110Y42984000D01*
X19363813Y43328899D01*
X18913737Y43515787D01*
X18426401Y43516212D01*
X17976000Y43330110D01*
X17631101Y42985813D01*
X17444213Y42535737D01*
X17443788Y42048401D01*
X16921500Y42048401D01*
X16921500Y46666248D01*
X17151251Y46896000D01*
X17539814Y46896000D01*
X17629890Y46678000D01*
X17974187Y46333101D01*
X18424263Y46146213D01*
X18911599Y46145788D01*
X19362000Y46331890D01*
X19706899Y46676187D01*
X19893787Y47126263D01*
X19894212Y47613599D01*
X19708110Y48064000D01*
X19363813Y48408899D01*
X18913737Y48595787D01*
X18426401Y48596212D01*
X17976000Y48410110D01*
X17631101Y48065813D01*
X17539827Y47846000D01*
X16954500Y47846000D01*
X16772725Y47809843D01*
X16618624Y47706876D01*
X16618622Y47706873D01*
X16110624Y47198876D01*
X16007657Y47044775D01*
X15971500Y46863000D01*
X15971500Y40329415D01*
X15905500Y40263530D01*
X15905500Y48634748D01*
X16164277Y48893525D01*
X16331128Y48893379D01*
X16588500Y48999723D01*
X16670828Y49081908D01*
X16683064Y49069672D01*
X16793327Y49024000D01*
X17553000Y49024000D01*
X17628000Y49099000D01*
X17628000Y50299000D01*
X17678000Y50299000D01*
X17678000Y49099000D01*
X17753000Y49024000D01*
X18512673Y49024000D01*
X18622936Y49069672D01*
X18652688Y49099424D01*
X20432779Y49099424D01*
X20525200Y48927298D01*
X20953698Y48740499D01*
X21421063Y48731898D01*
X21856143Y48902805D01*
X21892800Y48927298D01*
X21985221Y49099424D01*
X21209000Y49875645D01*
X20432779Y49099424D01*
X18652688Y49099424D01*
X18707328Y49154063D01*
X18753000Y49264326D01*
X18753000Y49698937D01*
X20029898Y49698937D01*
X20200805Y49263857D01*
X20225298Y49227200D01*
X20397424Y49134779D01*
X21173645Y49911000D01*
X21244355Y49911000D01*
X22020576Y49134779D01*
X22192702Y49227200D01*
X22379501Y49655698D01*
X22388102Y50123063D01*
X22217195Y50558143D01*
X22192702Y50594800D01*
X22020576Y50687221D01*
X21244355Y49911000D01*
X21173645Y49911000D01*
X20397424Y50687221D01*
X20225298Y50594800D01*
X20038499Y50166302D01*
X20029898Y49698937D01*
X18753000Y49698937D01*
X18753000Y50224000D01*
X18678000Y50299000D01*
X17678000Y50299000D01*
X17628000Y50299000D01*
X16628000Y50299000D01*
X16553000Y50224000D01*
X16553000Y50201756D01*
X16332350Y50293378D01*
X16053872Y50293621D01*
X15796500Y50187277D01*
X15599415Y49990536D01*
X15492622Y49733350D01*
X15492475Y49565227D01*
X15094624Y49167376D01*
X14991657Y49013275D01*
X14955500Y48831500D01*
X14955500Y39821415D01*
X14837415Y39703536D01*
X14730622Y39446350D01*
X14730379Y39167872D01*
X14817923Y38956000D01*
X9334500Y38956000D01*
X9152725Y38919843D01*
X8998624Y38816876D01*
X7867748Y37686000D01*
X7098186Y37686000D01*
X7008110Y37904000D01*
X6663813Y38248899D01*
X6213737Y38435787D01*
X5726401Y38436212D01*
X5276000Y38250110D01*
X4931101Y37905813D01*
X4744213Y37455737D01*
X4743788Y36968401D01*
X4929890Y36518000D01*
X5274187Y36173101D01*
X5724263Y35986213D01*
X6211599Y35985788D01*
X6662000Y36171890D01*
X7006899Y36516187D01*
X7098173Y36736000D01*
X8064500Y36736000D01*
X8246275Y36772157D01*
X8400376Y36875124D01*
X9531252Y38006000D01*
X20271463Y38006000D01*
X20171101Y37905813D01*
X19984213Y37455737D01*
X19983788Y36968401D01*
X20169890Y36518000D01*
X20514187Y36173101D01*
X20964263Y35986213D01*
X21451599Y35985788D01*
X21902000Y36171890D01*
X22246899Y36516187D01*
X22338173Y36736000D01*
X23552248Y36736000D01*
X23649000Y36639248D01*
X23649000Y19531000D01*
X425000Y19531000D01*
X425000Y21728401D01*
X4743788Y21728401D01*
X4929890Y21278000D01*
X5274187Y20933101D01*
X5724263Y20746213D01*
X6211599Y20745788D01*
X6662000Y20931890D01*
X7006899Y21276187D01*
X7193787Y21726263D01*
X7193788Y21728401D01*
X17443788Y21728401D01*
X17629890Y21278000D01*
X17974187Y20933101D01*
X18424263Y20746213D01*
X18911599Y20745788D01*
X19362000Y20931890D01*
X19706899Y21276187D01*
X19893787Y21726263D01*
X19893788Y21728401D01*
X19983788Y21728401D01*
X20169890Y21278000D01*
X20514187Y20933101D01*
X20964263Y20746213D01*
X21451599Y20745788D01*
X21902000Y20931890D01*
X22246899Y21276187D01*
X22433787Y21726263D01*
X22434212Y22213599D01*
X22248110Y22664000D01*
X21903813Y23008899D01*
X21453737Y23195787D01*
X20966401Y23196212D01*
X20516000Y23010110D01*
X20171101Y22665813D01*
X19984213Y22215737D01*
X19983788Y21728401D01*
X19893788Y21728401D01*
X19894212Y22213599D01*
X19708110Y22664000D01*
X19363813Y23008899D01*
X18913737Y23195787D01*
X18426401Y23196212D01*
X17976000Y23010110D01*
X17631101Y22665813D01*
X17444213Y22215737D01*
X17443788Y21728401D01*
X7193788Y21728401D01*
X7194212Y22213599D01*
X7008110Y22664000D01*
X6663813Y23008899D01*
X6213737Y23195787D01*
X5726401Y23196212D01*
X5276000Y23010110D01*
X4931101Y22665813D01*
X4744213Y22215737D01*
X4743788Y21728401D01*
X425000Y21728401D01*
X425000Y25488000D01*
X1714144Y25488000D01*
X1714144Y23788000D01*
X1738549Y23658298D01*
X1815203Y23539175D01*
X1932163Y23459259D01*
X2071000Y23431144D01*
X3771000Y23431144D01*
X3900702Y23455549D01*
X4019825Y23532203D01*
X4099741Y23649163D01*
X4127856Y23788000D01*
X4127856Y24268401D01*
X4743788Y24268401D01*
X4929890Y23818000D01*
X5274187Y23473101D01*
X5724263Y23286213D01*
X6211599Y23285788D01*
X6662000Y23471890D01*
X7006899Y23816187D01*
X7193787Y24266263D01*
X7193879Y24372372D01*
X17206879Y24372372D01*
X17313223Y24115000D01*
X17509964Y23917915D01*
X17767150Y23811122D01*
X18045628Y23810879D01*
X18303000Y23917223D01*
X18421985Y24036000D01*
X20079814Y24036000D01*
X20169890Y23818000D01*
X20514187Y23473101D01*
X20964263Y23286213D01*
X21451599Y23285788D01*
X21902000Y23471890D01*
X22246899Y23816187D01*
X22433787Y24266263D01*
X22434212Y24753599D01*
X22248110Y25204000D01*
X21903813Y25548899D01*
X21453737Y25735787D01*
X20966401Y25736212D01*
X20516000Y25550110D01*
X20171101Y25205813D01*
X20079827Y24986000D01*
X18421915Y24986000D01*
X18304036Y25104085D01*
X18046850Y25210878D01*
X17768372Y25211121D01*
X17511000Y25104777D01*
X17313915Y24908036D01*
X17207122Y24650850D01*
X17206879Y24372372D01*
X7193879Y24372372D01*
X7194212Y24753599D01*
X7008110Y25204000D01*
X6663813Y25548899D01*
X6213737Y25735787D01*
X5726401Y25736212D01*
X5276000Y25550110D01*
X4931101Y25205813D01*
X4744213Y24755737D01*
X4743788Y24268401D01*
X4127856Y24268401D01*
X4127856Y25488000D01*
X4103451Y25617702D01*
X4026797Y25736825D01*
X3909837Y25816741D01*
X3771000Y25844856D01*
X2071000Y25844856D01*
X1941298Y25820451D01*
X1822175Y25743797D01*
X1742259Y25626837D01*
X1714144Y25488000D01*
X425000Y25488000D01*
X425000Y27178000D01*
X1697491Y27178000D01*
X1788836Y26718780D01*
X2048963Y26329472D01*
X2438271Y26069345D01*
X2897491Y25978000D01*
X2944509Y25978000D01*
X3403729Y26069345D01*
X3793037Y26329472D01*
X4053164Y26718780D01*
X4070990Y26808401D01*
X4743788Y26808401D01*
X4929890Y26358000D01*
X5274187Y26013101D01*
X5724263Y25826213D01*
X6211599Y25825788D01*
X6662000Y26011890D01*
X7006899Y26356187D01*
X7193787Y26806263D01*
X7193788Y26808401D01*
X19983788Y26808401D01*
X20169890Y26358000D01*
X20514187Y26013101D01*
X20964263Y25826213D01*
X21451599Y25825788D01*
X21902000Y26011890D01*
X22246899Y26356187D01*
X22433787Y26806263D01*
X22434212Y27293599D01*
X22248110Y27744000D01*
X21903813Y28088899D01*
X21453737Y28275787D01*
X20966401Y28276212D01*
X20516000Y28090110D01*
X20171101Y27745813D01*
X19984213Y27295737D01*
X19983788Y26808401D01*
X7193788Y26808401D01*
X7194212Y27293599D01*
X7008110Y27744000D01*
X6663813Y28088899D01*
X6213737Y28275787D01*
X5726401Y28276212D01*
X5276000Y28090110D01*
X4931101Y27745813D01*
X4744213Y27295737D01*
X4743788Y26808401D01*
X4070990Y26808401D01*
X4123839Y27074088D01*
X5506420Y28456669D01*
X5724263Y28366213D01*
X6211599Y28365788D01*
X6662000Y28551890D01*
X7006899Y28896187D01*
X7193787Y29346263D01*
X7193788Y29348401D01*
X19983788Y29348401D01*
X20169890Y28898000D01*
X20514187Y28553101D01*
X20964263Y28366213D01*
X21451599Y28365788D01*
X21902000Y28551890D01*
X22246899Y28896187D01*
X22433787Y29346263D01*
X22434212Y29833599D01*
X22248110Y30284000D01*
X21903813Y30628899D01*
X21453737Y30815787D01*
X20966401Y30816212D01*
X20516000Y30630110D01*
X20171101Y30285813D01*
X19984213Y29835737D01*
X19983788Y29348401D01*
X7193788Y29348401D01*
X7194212Y29833599D01*
X7008110Y30284000D01*
X6663813Y30628899D01*
X6213737Y30815787D01*
X5726401Y30816212D01*
X5276000Y30630110D01*
X4931101Y30285813D01*
X4744213Y29835737D01*
X4743788Y29348401D01*
X4834678Y29128430D01*
X3756913Y28050665D01*
X3403729Y28286655D01*
X2944509Y28378000D01*
X2897491Y28378000D01*
X2438271Y28286655D01*
X2048963Y28026528D01*
X1788836Y27637220D01*
X1697491Y27178000D01*
X425000Y27178000D01*
X425000Y29718000D01*
X1697491Y29718000D01*
X1788836Y29258780D01*
X2048963Y28869472D01*
X2438271Y28609345D01*
X2897491Y28518000D01*
X2944509Y28518000D01*
X3403729Y28609345D01*
X3793037Y28869472D01*
X4053164Y29258780D01*
X4144509Y29718000D01*
X4053164Y30177220D01*
X3793037Y30566528D01*
X3403729Y30826655D01*
X2944509Y30918000D01*
X2897491Y30918000D01*
X2438271Y30826655D01*
X2048963Y30566528D01*
X1788836Y30177220D01*
X1697491Y29718000D01*
X425000Y29718000D01*
X425000Y32258000D01*
X1697491Y32258000D01*
X1788836Y31798780D01*
X2048963Y31409472D01*
X2438271Y31149345D01*
X2897491Y31058000D01*
X2944509Y31058000D01*
X3403729Y31149345D01*
X3793037Y31409472D01*
X4042620Y31783000D01*
X4787339Y31783000D01*
X4929890Y31438000D01*
X5274187Y31093101D01*
X5724263Y30906213D01*
X6211599Y30905788D01*
X6662000Y31091890D01*
X7006899Y31436187D01*
X7193787Y31886263D01*
X7193788Y31888401D01*
X19983788Y31888401D01*
X20169890Y31438000D01*
X20514187Y31093101D01*
X20964263Y30906213D01*
X21451599Y30905788D01*
X21902000Y31091890D01*
X22246899Y31436187D01*
X22433787Y31886263D01*
X22434212Y32373599D01*
X22248110Y32824000D01*
X21903813Y33168899D01*
X21453737Y33355787D01*
X20966401Y33356212D01*
X20516000Y33170110D01*
X20171101Y32825813D01*
X19984213Y32375737D01*
X19983788Y31888401D01*
X7193788Y31888401D01*
X7194212Y32373599D01*
X7008110Y32824000D01*
X6663813Y33168899D01*
X6213737Y33355787D01*
X5726401Y33356212D01*
X5276000Y33170110D01*
X4931101Y32825813D01*
X4892562Y32733000D01*
X4042620Y32733000D01*
X3793037Y33106528D01*
X3403729Y33366655D01*
X2944509Y33458000D01*
X2897491Y33458000D01*
X2438271Y33366655D01*
X2048963Y33106528D01*
X1788836Y32717220D01*
X1697491Y32258000D01*
X425000Y32258000D01*
X425000Y34798000D01*
X1697491Y34798000D01*
X1788836Y34338780D01*
X2048963Y33949472D01*
X2438271Y33689345D01*
X2897491Y33598000D01*
X2944509Y33598000D01*
X3403729Y33689345D01*
X3793037Y33949472D01*
X4042620Y34323000D01*
X4787339Y34323000D01*
X4929890Y33978000D01*
X5274187Y33633101D01*
X5724263Y33446213D01*
X6211599Y33445788D01*
X6662000Y33631890D01*
X7006899Y33976187D01*
X7193787Y34426263D01*
X7193788Y34428401D01*
X19983788Y34428401D01*
X20169890Y33978000D01*
X20514187Y33633101D01*
X20964263Y33446213D01*
X21451599Y33445788D01*
X21902000Y33631890D01*
X22246899Y33976187D01*
X22433787Y34426263D01*
X22434212Y34913599D01*
X22248110Y35364000D01*
X21903813Y35708899D01*
X21453737Y35895787D01*
X20966401Y35896212D01*
X20516000Y35710110D01*
X20171101Y35365813D01*
X19984213Y34915737D01*
X19983788Y34428401D01*
X7193788Y34428401D01*
X7194212Y34913599D01*
X7008110Y35364000D01*
X6663813Y35708899D01*
X6213737Y35895787D01*
X5726401Y35896212D01*
X5276000Y35710110D01*
X4931101Y35365813D01*
X4892562Y35273000D01*
X4042620Y35273000D01*
X3793037Y35646528D01*
X3403729Y35906655D01*
X2944509Y35998000D01*
X2897491Y35998000D01*
X2438271Y35906655D01*
X2048963Y35646528D01*
X1788836Y35257220D01*
X1697491Y34798000D01*
X425000Y34798000D01*
X425000Y37133451D01*
X1789338Y37133451D01*
X1797200Y37093911D01*
X1976153Y36682431D01*
X2298951Y36370756D01*
X2716450Y36206335D01*
X2896000Y36263269D01*
X2896000Y37313000D01*
X2946000Y37313000D01*
X2946000Y36263269D01*
X3125550Y36206335D01*
X3543049Y36370756D01*
X3865847Y36682431D01*
X4044800Y37093911D01*
X4052662Y37133451D01*
X3995709Y37313000D01*
X2946000Y37313000D01*
X2896000Y37313000D01*
X1846291Y37313000D01*
X1789338Y37133451D01*
X425000Y37133451D01*
X425000Y37542549D01*
X1789338Y37542549D01*
X1846291Y37363000D01*
X2896000Y37363000D01*
X2896000Y38412731D01*
X2946000Y38412731D01*
X2946000Y37363000D01*
X3995709Y37363000D01*
X4052662Y37542549D01*
X4044800Y37582089D01*
X3865847Y37993569D01*
X3543049Y38305244D01*
X3125550Y38469665D01*
X2946000Y38412731D01*
X2896000Y38412731D01*
X2716450Y38469665D01*
X2298951Y38305244D01*
X1976153Y37993569D01*
X1797200Y37582089D01*
X1789338Y37542549D01*
X425000Y37542549D01*
X425000Y39508401D01*
X4743788Y39508401D01*
X4929890Y39058000D01*
X5274187Y38713101D01*
X5724263Y38526213D01*
X6211599Y38525788D01*
X6662000Y38711890D01*
X7006899Y39056187D01*
X7193787Y39506263D01*
X7194212Y39993599D01*
X7008110Y40444000D01*
X6663813Y40788899D01*
X6213737Y40975787D01*
X5726401Y40976212D01*
X5276000Y40790110D01*
X4931101Y40445813D01*
X4744213Y39995737D01*
X4743788Y39508401D01*
X425000Y39508401D01*
X425000Y43014000D01*
X1714144Y43014000D01*
X1714144Y41314000D01*
X1738549Y41184298D01*
X1815203Y41065175D01*
X1932163Y40985259D01*
X2071000Y40957144D01*
X3771000Y40957144D01*
X3900702Y40981549D01*
X4019825Y41058203D01*
X4099741Y41175163D01*
X4127856Y41314000D01*
X4127856Y42048401D01*
X4743788Y42048401D01*
X4929890Y41598000D01*
X5274187Y41253101D01*
X5724263Y41066213D01*
X6211599Y41065788D01*
X6662000Y41251890D01*
X7006899Y41596187D01*
X7193787Y42046263D01*
X7194212Y42533599D01*
X7008110Y42984000D01*
X6663813Y43328899D01*
X6213737Y43515787D01*
X5726401Y43516212D01*
X5276000Y43330110D01*
X4931101Y42985813D01*
X4744213Y42535737D01*
X4743788Y42048401D01*
X4127856Y42048401D01*
X4127856Y43014000D01*
X4103451Y43143702D01*
X4026797Y43262825D01*
X3909837Y43342741D01*
X3771000Y43370856D01*
X2071000Y43370856D01*
X1941298Y43346451D01*
X1822175Y43269797D01*
X1742259Y43152837D01*
X1714144Y43014000D01*
X425000Y43014000D01*
X425000Y44704000D01*
X1697491Y44704000D01*
X1788836Y44244780D01*
X2048963Y43855472D01*
X2438271Y43595345D01*
X2897491Y43504000D01*
X2944509Y43504000D01*
X3403729Y43595345D01*
X3793037Y43855472D01*
X4053164Y44244780D01*
X4121514Y44588401D01*
X4743788Y44588401D01*
X4929890Y44138000D01*
X5274187Y43793101D01*
X5724263Y43606213D01*
X6211599Y43605788D01*
X6662000Y43791890D01*
X7006899Y44136187D01*
X7193787Y44586263D01*
X7194212Y45073599D01*
X7008110Y45524000D01*
X6663813Y45868899D01*
X6213737Y46055787D01*
X5726401Y46056212D01*
X5276000Y45870110D01*
X4931101Y45525813D01*
X4744213Y45075737D01*
X4743788Y44588401D01*
X4121514Y44588401D01*
X4144509Y44704000D01*
X4053164Y45163220D01*
X3793037Y45552528D01*
X3403729Y45812655D01*
X2944509Y45904000D01*
X2897491Y45904000D01*
X2438271Y45812655D01*
X2048963Y45552528D01*
X1788836Y45163220D01*
X1697491Y44704000D01*
X425000Y44704000D01*
X425000Y51943000D01*
X922000Y51943000D01*
X922000Y48768000D01*
X958157Y48586225D01*
X1061124Y48432124D01*
X1789314Y47703935D01*
X1788836Y47703220D01*
X1697491Y47244000D01*
X1788836Y46784780D01*
X2048963Y46395472D01*
X2438271Y46135345D01*
X2897491Y46044000D01*
X2944509Y46044000D01*
X3403729Y46135345D01*
X3793037Y46395472D01*
X4053164Y46784780D01*
X4121514Y47128401D01*
X4743788Y47128401D01*
X4929890Y46678000D01*
X5274187Y46333101D01*
X5724263Y46146213D01*
X6211599Y46145788D01*
X6662000Y46331890D01*
X7006899Y46676187D01*
X7193787Y47126263D01*
X7194212Y47613599D01*
X7008110Y48064000D01*
X6663813Y48408899D01*
X6213737Y48595787D01*
X5726401Y48596212D01*
X5276000Y48410110D01*
X4931101Y48065813D01*
X4744213Y47615737D01*
X4743788Y47128401D01*
X4121514Y47128401D01*
X4144509Y47244000D01*
X4053164Y47703220D01*
X3793037Y48092528D01*
X3403729Y48352655D01*
X2944509Y48444000D01*
X2897491Y48444000D01*
X2476494Y48360258D01*
X1872000Y48964752D01*
X1872000Y49494918D01*
X1976153Y49255431D01*
X2298951Y48943756D01*
X2716450Y48779335D01*
X2896000Y48836269D01*
X2896000Y49886000D01*
X2946000Y49886000D01*
X2946000Y48836269D01*
X3125550Y48779335D01*
X3543049Y48943756D01*
X3865847Y49255431D01*
X4044800Y49666911D01*
X4045096Y49668401D01*
X4743788Y49668401D01*
X4929890Y49218000D01*
X5274187Y48873101D01*
X5724263Y48686213D01*
X6211599Y48685788D01*
X6662000Y48871890D01*
X7006899Y49216187D01*
X7193787Y49666263D01*
X7194212Y50153599D01*
X7008110Y50604000D01*
X6663813Y50948899D01*
X6213737Y51135787D01*
X5726401Y51136212D01*
X5276000Y50950110D01*
X4931101Y50605813D01*
X4744213Y50155737D01*
X4743788Y49668401D01*
X4045096Y49668401D01*
X4052662Y49706451D01*
X3995709Y49886000D01*
X2946000Y49886000D01*
X2896000Y49886000D01*
X2876000Y49886000D01*
X2876000Y49936000D01*
X2896000Y49936000D01*
X2896000Y50985731D01*
X2946000Y50985731D01*
X2946000Y49936000D01*
X3995709Y49936000D01*
X4052662Y50115549D01*
X4044800Y50155089D01*
X3865847Y50566569D01*
X3543049Y50878244D01*
X3125550Y51042665D01*
X2946000Y50985731D01*
X2896000Y50985731D01*
X2716450Y51042665D01*
X2298951Y50878244D01*
X1976153Y50566569D01*
X1872000Y50327082D01*
X1872000Y51746248D01*
X1920493Y51794741D01*
X2048963Y51602472D01*
X2438271Y51342345D01*
X2897491Y51251000D01*
X2944509Y51251000D01*
X3403729Y51342345D01*
X3793037Y51602472D01*
X4053164Y51991780D01*
X4144509Y52451000D01*
X4053164Y52910220D01*
X3793037Y53299528D01*
X3403729Y53559655D01*
X2944509Y53651000D01*
X2897491Y53651000D01*
X2438271Y53559655D01*
X2048963Y53299528D01*
X1788836Y52910220D01*
X1787319Y52902592D01*
X1723225Y52889843D01*
X1569124Y52786876D01*
X1569122Y52786873D01*
X1061124Y52278876D01*
X958157Y52124775D01*
X922000Y51943000D01*
X425000Y51943000D01*
X425000Y59938823D01*
X1224662Y59938823D01*
X1520906Y59221857D01*
X2068971Y58672834D01*
X2785419Y58375339D01*
X3561177Y58374662D01*
X4278143Y58670906D01*
X4827166Y59218971D01*
X5124661Y59935419D01*
X5125338Y60711177D01*
X4829094Y61428143D01*
X4281029Y61977166D01*
X3564581Y62274661D01*
X2788823Y62275338D01*
X2071857Y61979094D01*
X1522834Y61431029D01*
X1225339Y60714581D01*
X1224662Y59938823D01*
X425000Y59938823D01*
X425000Y60283140D01*
X642024Y61374195D01*
X1236345Y62263658D01*
X2125806Y62857976D01*
X3216861Y63075000D01*
X23649000Y63075000D01*
X23649000Y55466000D01*
X23649000Y55466000D01*
G37*
X23649000Y55466000D02*
X22338186Y55466000D01*
X22248110Y55684000D01*
X21903813Y56028899D01*
X21453737Y56215787D01*
X20966401Y56216212D01*
X20516000Y56030110D01*
X20171101Y55685813D01*
X19984213Y55235737D01*
X19983788Y54748401D01*
X20169890Y54298000D01*
X20271712Y54196000D01*
X20135751Y54196000D01*
X19779000Y54552752D01*
X19779000Y55626000D01*
X19742843Y55807775D01*
X19639876Y55961876D01*
X19639873Y55961878D01*
X19258876Y56342876D01*
X19104775Y56445843D01*
X18923000Y56482000D01*
X16256000Y56482000D01*
X16074225Y56445843D01*
X15920124Y56342876D01*
X13773248Y54196000D01*
X6906537Y54196000D01*
X7006899Y54296187D01*
X7193787Y54746263D01*
X7194212Y55233599D01*
X7008110Y55684000D01*
X6663813Y56028899D01*
X6213737Y56215787D01*
X5726401Y56216212D01*
X5276000Y56030110D01*
X4931101Y55685813D01*
X4744213Y55235737D01*
X4743788Y54748401D01*
X4929890Y54298000D01*
X5031712Y54196000D01*
X4387752Y54196000D01*
X4127856Y54455896D01*
X4127856Y55841000D01*
X4103451Y55970702D01*
X4026797Y56089825D01*
X3909837Y56169741D01*
X3771000Y56197856D01*
X2071000Y56197856D01*
X1941298Y56173451D01*
X1822175Y56096797D01*
X1742259Y55979837D01*
X1714144Y55841000D01*
X1714144Y54141000D01*
X1738549Y54011298D01*
X1815203Y53892175D01*
X1932163Y53812259D01*
X2071000Y53784144D01*
X3456104Y53784144D01*
X3855124Y53385124D01*
X4009225Y53282157D01*
X4191000Y53246000D01*
X5031463Y53246000D01*
X4931101Y53145813D01*
X4744213Y52695737D01*
X4743788Y52208401D01*
X4929890Y51758000D01*
X5274187Y51413101D01*
X5724263Y51226213D01*
X6211599Y51225788D01*
X6593712Y51383674D01*
X16553000Y51383674D01*
X16553000Y50424000D01*
X16628000Y50349000D01*
X17628000Y50349000D01*
X17628000Y51549000D01*
X17678000Y51549000D01*
X17678000Y50349000D01*
X18678000Y50349000D01*
X18753000Y50424000D01*
X18753000Y50722576D01*
X20432779Y50722576D01*
X21209000Y49946355D01*
X21985221Y50722576D01*
X21892800Y50894702D01*
X21464302Y51081501D01*
X20996937Y51090102D01*
X20561857Y50919195D01*
X20525200Y50894702D01*
X20432779Y50722576D01*
X18753000Y50722576D01*
X18753000Y51383674D01*
X18707328Y51493937D01*
X18622936Y51578328D01*
X18512673Y51624000D01*
X17753000Y51624000D01*
X17678000Y51549000D01*
X17628000Y51549000D01*
X17553000Y51624000D01*
X16793327Y51624000D01*
X16683064Y51578328D01*
X16598672Y51493937D01*
X16553000Y51383674D01*
X6593712Y51383674D01*
X6662000Y51411890D01*
X7006899Y51756187D01*
X7193787Y52206263D01*
X7194212Y52693599D01*
X7008110Y53144000D01*
X6906288Y53246000D01*
X13970000Y53246000D01*
X14151775Y53282157D01*
X14305876Y53385124D01*
X16452752Y55532000D01*
X16571516Y55532000D01*
X16524259Y55462837D01*
X16496144Y55324000D01*
X16496144Y53324000D01*
X16520549Y53194298D01*
X16597203Y53075175D01*
X16714163Y52995259D01*
X16853000Y52967144D01*
X18370104Y52967144D01*
X19222124Y52115124D01*
X19376225Y52012157D01*
X19558000Y51976000D01*
X20079814Y51976000D01*
X20169890Y51758000D01*
X20514187Y51413101D01*
X20964263Y51226213D01*
X21451599Y51225788D01*
X21902000Y51411890D01*
X22246899Y51756187D01*
X22433787Y52206263D01*
X22434212Y52693599D01*
X22248110Y53144000D01*
X22146288Y53246000D01*
X22282248Y53246000D01*
X23413124Y52115124D01*
X23567225Y52012157D01*
X23649000Y51995891D01*
X23649000Y46576000D01*
X22146537Y46576000D01*
X22246899Y46676187D01*
X22433787Y47126263D01*
X22434212Y47613599D01*
X22248110Y48064000D01*
X21903813Y48408899D01*
X21453737Y48595787D01*
X20966401Y48596212D01*
X20516000Y48410110D01*
X20171101Y48065813D01*
X19984213Y47615737D01*
X19983788Y47128401D01*
X20169890Y46678000D01*
X20271712Y46576000D01*
X19939000Y46576000D01*
X19757225Y46539843D01*
X19603124Y46436876D01*
X19131579Y45965331D01*
X18913737Y46055787D01*
X18426401Y46056212D01*
X17976000Y45870110D01*
X17631101Y45525813D01*
X17444213Y45075737D01*
X17443788Y44588401D01*
X17629890Y44138000D01*
X17974187Y43793101D01*
X18424263Y43606213D01*
X18911599Y43605788D01*
X19362000Y43791890D01*
X19706899Y44136187D01*
X19893787Y44586263D01*
X19894212Y45073599D01*
X19803322Y45293570D01*
X20135752Y45626000D01*
X20271463Y45626000D01*
X20171101Y45525813D01*
X19984213Y45075737D01*
X19983788Y44588401D01*
X20169890Y44138000D01*
X20514187Y43793101D01*
X20964263Y43606213D01*
X21451599Y43605788D01*
X21902000Y43791890D01*
X22246899Y44136187D01*
X22338173Y44356000D01*
X23649000Y44356000D01*
X23649000Y38956000D01*
X22146537Y38956000D01*
X22246899Y39056187D01*
X22433787Y39506263D01*
X22434212Y39993599D01*
X22248110Y40444000D01*
X21903813Y40788899D01*
X21453737Y40975787D01*
X20966401Y40976212D01*
X20516000Y40790110D01*
X20171101Y40445813D01*
X19984213Y39995737D01*
X19983788Y39508401D01*
X20169890Y39058000D01*
X20271712Y38956000D01*
X16042908Y38956000D01*
X16130378Y39166650D01*
X16130396Y39187809D01*
X16306650Y39114622D01*
X16585128Y39114379D01*
X16842500Y39220723D01*
X17039585Y39417464D01*
X17146378Y39674650D01*
X17146621Y39953128D01*
X17040277Y40210500D01*
X16921500Y40329485D01*
X16921500Y42048401D01*
X17443788Y42048401D01*
X17629890Y41598000D01*
X17974187Y41253101D01*
X18424263Y41066213D01*
X18911599Y41065788D01*
X19362000Y41251890D01*
X19706899Y41596187D01*
X19893787Y42046263D01*
X19893788Y42048401D01*
X19983788Y42048401D01*
X20169890Y41598000D01*
X20514187Y41253101D01*
X20964263Y41066213D01*
X21451599Y41065788D01*
X21902000Y41251890D01*
X22246899Y41596187D01*
X22433787Y42046263D01*
X22434212Y42533599D01*
X22248110Y42984000D01*
X21903813Y43328899D01*
X21453737Y43515787D01*
X20966401Y43516212D01*
X20516000Y43330110D01*
X20171101Y42985813D01*
X19984213Y42535737D01*
X19983788Y42048401D01*
X19893788Y42048401D01*
X19894212Y42533599D01*
X19708110Y42984000D01*
X19363813Y43328899D01*
X18913737Y43515787D01*
X18426401Y43516212D01*
X17976000Y43330110D01*
X17631101Y42985813D01*
X17444213Y42535737D01*
X17443788Y42048401D01*
X16921500Y42048401D01*
X16921500Y46666248D01*
X17151251Y46896000D01*
X17539814Y46896000D01*
X17629890Y46678000D01*
X17974187Y46333101D01*
X18424263Y46146213D01*
X18911599Y46145788D01*
X19362000Y46331890D01*
X19706899Y46676187D01*
X19893787Y47126263D01*
X19894212Y47613599D01*
X19708110Y48064000D01*
X19363813Y48408899D01*
X18913737Y48595787D01*
X18426401Y48596212D01*
X17976000Y48410110D01*
X17631101Y48065813D01*
X17539827Y47846000D01*
X16954500Y47846000D01*
X16772725Y47809843D01*
X16618624Y47706876D01*
X16618622Y47706873D01*
X16110624Y47198876D01*
X16007657Y47044775D01*
X15971500Y46863000D01*
X15971500Y40329415D01*
X15905500Y40263530D01*
X15905500Y48634748D01*
X16164277Y48893525D01*
X16331128Y48893379D01*
X16588500Y48999723D01*
X16670828Y49081908D01*
X16683064Y49069672D01*
X16793327Y49024000D01*
X17553000Y49024000D01*
X17628000Y49099000D01*
X17628000Y50299000D01*
X17678000Y50299000D01*
X17678000Y49099000D01*
X17753000Y49024000D01*
X18512673Y49024000D01*
X18622936Y49069672D01*
X18652688Y49099424D01*
X20432779Y49099424D01*
X20525200Y48927298D01*
X20953698Y48740499D01*
X21421063Y48731898D01*
X21856143Y48902805D01*
X21892800Y48927298D01*
X21985221Y49099424D01*
X21209000Y49875645D01*
X20432779Y49099424D01*
X18652688Y49099424D01*
X18707328Y49154063D01*
X18753000Y49264326D01*
X18753000Y49698937D01*
X20029898Y49698937D01*
X20200805Y49263857D01*
X20225298Y49227200D01*
X20397424Y49134779D01*
X21173645Y49911000D01*
X21244355Y49911000D01*
X22020576Y49134779D01*
X22192702Y49227200D01*
X22379501Y49655698D01*
X22388102Y50123063D01*
X22217195Y50558143D01*
X22192702Y50594800D01*
X22020576Y50687221D01*
X21244355Y49911000D01*
X21173645Y49911000D01*
X20397424Y50687221D01*
X20225298Y50594800D01*
X20038499Y50166302D01*
X20029898Y49698937D01*
X18753000Y49698937D01*
X18753000Y50224000D01*
X18678000Y50299000D01*
X17678000Y50299000D01*
X17628000Y50299000D01*
X16628000Y50299000D01*
X16553000Y50224000D01*
X16553000Y50201756D01*
X16332350Y50293378D01*
X16053872Y50293621D01*
X15796500Y50187277D01*
X15599415Y49990536D01*
X15492622Y49733350D01*
X15492475Y49565227D01*
X15094624Y49167376D01*
X14991657Y49013275D01*
X14955500Y48831500D01*
X14955500Y39821415D01*
X14837415Y39703536D01*
X14730622Y39446350D01*
X14730379Y39167872D01*
X14817923Y38956000D01*
X9334500Y38956000D01*
X9152725Y38919843D01*
X8998624Y38816876D01*
X7867748Y37686000D01*
X7098186Y37686000D01*
X7008110Y37904000D01*
X6663813Y38248899D01*
X6213737Y38435787D01*
X5726401Y38436212D01*
X5276000Y38250110D01*
X4931101Y37905813D01*
X4744213Y37455737D01*
X4743788Y36968401D01*
X4929890Y36518000D01*
X5274187Y36173101D01*
X5724263Y35986213D01*
X6211599Y35985788D01*
X6662000Y36171890D01*
X7006899Y36516187D01*
X7098173Y36736000D01*
X8064500Y36736000D01*
X8246275Y36772157D01*
X8400376Y36875124D01*
X9531252Y38006000D01*
X20271463Y38006000D01*
X20171101Y37905813D01*
X19984213Y37455737D01*
X19983788Y36968401D01*
X20169890Y36518000D01*
X20514187Y36173101D01*
X20964263Y35986213D01*
X21451599Y35985788D01*
X21902000Y36171890D01*
X22246899Y36516187D01*
X22338173Y36736000D01*
X23552248Y36736000D01*
X23649000Y36639248D01*
X23649000Y19531000D01*
X425000Y19531000D01*
X425000Y21728401D01*
X4743788Y21728401D01*
X4929890Y21278000D01*
X5274187Y20933101D01*
X5724263Y20746213D01*
X6211599Y20745788D01*
X6662000Y20931890D01*
X7006899Y21276187D01*
X7193787Y21726263D01*
X7193788Y21728401D01*
X17443788Y21728401D01*
X17629890Y21278000D01*
X17974187Y20933101D01*
X18424263Y20746213D01*
X18911599Y20745788D01*
X19362000Y20931890D01*
X19706899Y21276187D01*
X19893787Y21726263D01*
X19893788Y21728401D01*
X19983788Y21728401D01*
X20169890Y21278000D01*
X20514187Y20933101D01*
X20964263Y20746213D01*
X21451599Y20745788D01*
X21902000Y20931890D01*
X22246899Y21276187D01*
X22433787Y21726263D01*
X22434212Y22213599D01*
X22248110Y22664000D01*
X21903813Y23008899D01*
X21453737Y23195787D01*
X20966401Y23196212D01*
X20516000Y23010110D01*
X20171101Y22665813D01*
X19984213Y22215737D01*
X19983788Y21728401D01*
X19893788Y21728401D01*
X19894212Y22213599D01*
X19708110Y22664000D01*
X19363813Y23008899D01*
X18913737Y23195787D01*
X18426401Y23196212D01*
X17976000Y23010110D01*
X17631101Y22665813D01*
X17444213Y22215737D01*
X17443788Y21728401D01*
X7193788Y21728401D01*
X7194212Y22213599D01*
X7008110Y22664000D01*
X6663813Y23008899D01*
X6213737Y23195787D01*
X5726401Y23196212D01*
X5276000Y23010110D01*
X4931101Y22665813D01*
X4744213Y22215737D01*
X4743788Y21728401D01*
X425000Y21728401D01*
X425000Y25488000D01*
X1714144Y25488000D01*
X1714144Y23788000D01*
X1738549Y23658298D01*
X1815203Y23539175D01*
X1932163Y23459259D01*
X2071000Y23431144D01*
X3771000Y23431144D01*
X3900702Y23455549D01*
X4019825Y23532203D01*
X4099741Y23649163D01*
X4127856Y23788000D01*
X4127856Y24268401D01*
X4743788Y24268401D01*
X4929890Y23818000D01*
X5274187Y23473101D01*
X5724263Y23286213D01*
X6211599Y23285788D01*
X6662000Y23471890D01*
X7006899Y23816187D01*
X7193787Y24266263D01*
X7193879Y24372372D01*
X17206879Y24372372D01*
X17313223Y24115000D01*
X17509964Y23917915D01*
X17767150Y23811122D01*
X18045628Y23810879D01*
X18303000Y23917223D01*
X18421985Y24036000D01*
X20079814Y24036000D01*
X20169890Y23818000D01*
X20514187Y23473101D01*
X20964263Y23286213D01*
X21451599Y23285788D01*
X21902000Y23471890D01*
X22246899Y23816187D01*
X22433787Y24266263D01*
X22434212Y24753599D01*
X22248110Y25204000D01*
X21903813Y25548899D01*
X21453737Y25735787D01*
X20966401Y25736212D01*
X20516000Y25550110D01*
X20171101Y25205813D01*
X20079827Y24986000D01*
X18421915Y24986000D01*
X18304036Y25104085D01*
X18046850Y25210878D01*
X17768372Y25211121D01*
X17511000Y25104777D01*
X17313915Y24908036D01*
X17207122Y24650850D01*
X17206879Y24372372D01*
X7193879Y24372372D01*
X7194212Y24753599D01*
X7008110Y25204000D01*
X6663813Y25548899D01*
X6213737Y25735787D01*
X5726401Y25736212D01*
X5276000Y25550110D01*
X4931101Y25205813D01*
X4744213Y24755737D01*
X4743788Y24268401D01*
X4127856Y24268401D01*
X4127856Y25488000D01*
X4103451Y25617702D01*
X4026797Y25736825D01*
X3909837Y25816741D01*
X3771000Y25844856D01*
X2071000Y25844856D01*
X1941298Y25820451D01*
X1822175Y25743797D01*
X1742259Y25626837D01*
X1714144Y25488000D01*
X425000Y25488000D01*
X425000Y27178000D01*
X1697491Y27178000D01*
X1788836Y26718780D01*
X2048963Y26329472D01*
X2438271Y26069345D01*
X2897491Y25978000D01*
X2944509Y25978000D01*
X3403729Y26069345D01*
X3793037Y26329472D01*
X4053164Y26718780D01*
X4070990Y26808401D01*
X4743788Y26808401D01*
X4929890Y26358000D01*
X5274187Y26013101D01*
X5724263Y25826213D01*
X6211599Y25825788D01*
X6662000Y26011890D01*
X7006899Y26356187D01*
X7193787Y26806263D01*
X7193788Y26808401D01*
X19983788Y26808401D01*
X20169890Y26358000D01*
X20514187Y26013101D01*
X20964263Y25826213D01*
X21451599Y25825788D01*
X21902000Y26011890D01*
X22246899Y26356187D01*
X22433787Y26806263D01*
X22434212Y27293599D01*
X22248110Y27744000D01*
X21903813Y28088899D01*
X21453737Y28275787D01*
X20966401Y28276212D01*
X20516000Y28090110D01*
X20171101Y27745813D01*
X19984213Y27295737D01*
X19983788Y26808401D01*
X7193788Y26808401D01*
X7194212Y27293599D01*
X7008110Y27744000D01*
X6663813Y28088899D01*
X6213737Y28275787D01*
X5726401Y28276212D01*
X5276000Y28090110D01*
X4931101Y27745813D01*
X4744213Y27295737D01*
X4743788Y26808401D01*
X4070990Y26808401D01*
X4123839Y27074088D01*
X5506420Y28456669D01*
X5724263Y28366213D01*
X6211599Y28365788D01*
X6662000Y28551890D01*
X7006899Y28896187D01*
X7193787Y29346263D01*
X7193788Y29348401D01*
X19983788Y29348401D01*
X20169890Y28898000D01*
X20514187Y28553101D01*
X20964263Y28366213D01*
X21451599Y28365788D01*
X21902000Y28551890D01*
X22246899Y28896187D01*
X22433787Y29346263D01*
X22434212Y29833599D01*
X22248110Y30284000D01*
X21903813Y30628899D01*
X21453737Y30815787D01*
X20966401Y30816212D01*
X20516000Y30630110D01*
X20171101Y30285813D01*
X19984213Y29835737D01*
X19983788Y29348401D01*
X7193788Y29348401D01*
X7194212Y29833599D01*
X7008110Y30284000D01*
X6663813Y30628899D01*
X6213737Y30815787D01*
X5726401Y30816212D01*
X5276000Y30630110D01*
X4931101Y30285813D01*
X4744213Y29835737D01*
X4743788Y29348401D01*
X4834678Y29128430D01*
X3756913Y28050665D01*
X3403729Y28286655D01*
X2944509Y28378000D01*
X2897491Y28378000D01*
X2438271Y28286655D01*
X2048963Y28026528D01*
X1788836Y27637220D01*
X1697491Y27178000D01*
X425000Y27178000D01*
X425000Y29718000D01*
X1697491Y29718000D01*
X1788836Y29258780D01*
X2048963Y28869472D01*
X2438271Y28609345D01*
X2897491Y28518000D01*
X2944509Y28518000D01*
X3403729Y28609345D01*
X3793037Y28869472D01*
X4053164Y29258780D01*
X4144509Y29718000D01*
X4053164Y30177220D01*
X3793037Y30566528D01*
X3403729Y30826655D01*
X2944509Y30918000D01*
X2897491Y30918000D01*
X2438271Y30826655D01*
X2048963Y30566528D01*
X1788836Y30177220D01*
X1697491Y29718000D01*
X425000Y29718000D01*
X425000Y32258000D01*
X1697491Y32258000D01*
X1788836Y31798780D01*
X2048963Y31409472D01*
X2438271Y31149345D01*
X2897491Y31058000D01*
X2944509Y31058000D01*
X3403729Y31149345D01*
X3793037Y31409472D01*
X4042620Y31783000D01*
X4787339Y31783000D01*
X4929890Y31438000D01*
X5274187Y31093101D01*
X5724263Y30906213D01*
X6211599Y30905788D01*
X6662000Y31091890D01*
X7006899Y31436187D01*
X7193787Y31886263D01*
X7193788Y31888401D01*
X19983788Y31888401D01*
X20169890Y31438000D01*
X20514187Y31093101D01*
X20964263Y30906213D01*
X21451599Y30905788D01*
X21902000Y31091890D01*
X22246899Y31436187D01*
X22433787Y31886263D01*
X22434212Y32373599D01*
X22248110Y32824000D01*
X21903813Y33168899D01*
X21453737Y33355787D01*
X20966401Y33356212D01*
X20516000Y33170110D01*
X20171101Y32825813D01*
X19984213Y32375737D01*
X19983788Y31888401D01*
X7193788Y31888401D01*
X7194212Y32373599D01*
X7008110Y32824000D01*
X6663813Y33168899D01*
X6213737Y33355787D01*
X5726401Y33356212D01*
X5276000Y33170110D01*
X4931101Y32825813D01*
X4892562Y32733000D01*
X4042620Y32733000D01*
X3793037Y33106528D01*
X3403729Y33366655D01*
X2944509Y33458000D01*
X2897491Y33458000D01*
X2438271Y33366655D01*
X2048963Y33106528D01*
X1788836Y32717220D01*
X1697491Y32258000D01*
X425000Y32258000D01*
X425000Y34798000D01*
X1697491Y34798000D01*
X1788836Y34338780D01*
X2048963Y33949472D01*
X2438271Y33689345D01*
X2897491Y33598000D01*
X2944509Y33598000D01*
X3403729Y33689345D01*
X3793037Y33949472D01*
X4042620Y34323000D01*
X4787339Y34323000D01*
X4929890Y33978000D01*
X5274187Y33633101D01*
X5724263Y33446213D01*
X6211599Y33445788D01*
X6662000Y33631890D01*
X7006899Y33976187D01*
X7193787Y34426263D01*
X7193788Y34428401D01*
X19983788Y34428401D01*
X20169890Y33978000D01*
X20514187Y33633101D01*
X20964263Y33446213D01*
X21451599Y33445788D01*
X21902000Y33631890D01*
X22246899Y33976187D01*
X22433787Y34426263D01*
X22434212Y34913599D01*
X22248110Y35364000D01*
X21903813Y35708899D01*
X21453737Y35895787D01*
X20966401Y35896212D01*
X20516000Y35710110D01*
X20171101Y35365813D01*
X19984213Y34915737D01*
X19983788Y34428401D01*
X7193788Y34428401D01*
X7194212Y34913599D01*
X7008110Y35364000D01*
X6663813Y35708899D01*
X6213737Y35895787D01*
X5726401Y35896212D01*
X5276000Y35710110D01*
X4931101Y35365813D01*
X4892562Y35273000D01*
X4042620Y35273000D01*
X3793037Y35646528D01*
X3403729Y35906655D01*
X2944509Y35998000D01*
X2897491Y35998000D01*
X2438271Y35906655D01*
X2048963Y35646528D01*
X1788836Y35257220D01*
X1697491Y34798000D01*
X425000Y34798000D01*
X425000Y37133451D01*
X1789338Y37133451D01*
X1797200Y37093911D01*
X1976153Y36682431D01*
X2298951Y36370756D01*
X2716450Y36206335D01*
X2896000Y36263269D01*
X2896000Y37313000D01*
X2946000Y37313000D01*
X2946000Y36263269D01*
X3125550Y36206335D01*
X3543049Y36370756D01*
X3865847Y36682431D01*
X4044800Y37093911D01*
X4052662Y37133451D01*
X3995709Y37313000D01*
X2946000Y37313000D01*
X2896000Y37313000D01*
X1846291Y37313000D01*
X1789338Y37133451D01*
X425000Y37133451D01*
X425000Y37542549D01*
X1789338Y37542549D01*
X1846291Y37363000D01*
X2896000Y37363000D01*
X2896000Y38412731D01*
X2946000Y38412731D01*
X2946000Y37363000D01*
X3995709Y37363000D01*
X4052662Y37542549D01*
X4044800Y37582089D01*
X3865847Y37993569D01*
X3543049Y38305244D01*
X3125550Y38469665D01*
X2946000Y38412731D01*
X2896000Y38412731D01*
X2716450Y38469665D01*
X2298951Y38305244D01*
X1976153Y37993569D01*
X1797200Y37582089D01*
X1789338Y37542549D01*
X425000Y37542549D01*
X425000Y39508401D01*
X4743788Y39508401D01*
X4929890Y39058000D01*
X5274187Y38713101D01*
X5724263Y38526213D01*
X6211599Y38525788D01*
X6662000Y38711890D01*
X7006899Y39056187D01*
X7193787Y39506263D01*
X7194212Y39993599D01*
X7008110Y40444000D01*
X6663813Y40788899D01*
X6213737Y40975787D01*
X5726401Y40976212D01*
X5276000Y40790110D01*
X4931101Y40445813D01*
X4744213Y39995737D01*
X4743788Y39508401D01*
X425000Y39508401D01*
X425000Y43014000D01*
X1714144Y43014000D01*
X1714144Y41314000D01*
X1738549Y41184298D01*
X1815203Y41065175D01*
X1932163Y40985259D01*
X2071000Y40957144D01*
X3771000Y40957144D01*
X3900702Y40981549D01*
X4019825Y41058203D01*
X4099741Y41175163D01*
X4127856Y41314000D01*
X4127856Y42048401D01*
X4743788Y42048401D01*
X4929890Y41598000D01*
X5274187Y41253101D01*
X5724263Y41066213D01*
X6211599Y41065788D01*
X6662000Y41251890D01*
X7006899Y41596187D01*
X7193787Y42046263D01*
X7194212Y42533599D01*
X7008110Y42984000D01*
X6663813Y43328899D01*
X6213737Y43515787D01*
X5726401Y43516212D01*
X5276000Y43330110D01*
X4931101Y42985813D01*
X4744213Y42535737D01*
X4743788Y42048401D01*
X4127856Y42048401D01*
X4127856Y43014000D01*
X4103451Y43143702D01*
X4026797Y43262825D01*
X3909837Y43342741D01*
X3771000Y43370856D01*
X2071000Y43370856D01*
X1941298Y43346451D01*
X1822175Y43269797D01*
X1742259Y43152837D01*
X1714144Y43014000D01*
X425000Y43014000D01*
X425000Y44704000D01*
X1697491Y44704000D01*
X1788836Y44244780D01*
X2048963Y43855472D01*
X2438271Y43595345D01*
X2897491Y43504000D01*
X2944509Y43504000D01*
X3403729Y43595345D01*
X3793037Y43855472D01*
X4053164Y44244780D01*
X4121514Y44588401D01*
X4743788Y44588401D01*
X4929890Y44138000D01*
X5274187Y43793101D01*
X5724263Y43606213D01*
X6211599Y43605788D01*
X6662000Y43791890D01*
X7006899Y44136187D01*
X7193787Y44586263D01*
X7194212Y45073599D01*
X7008110Y45524000D01*
X6663813Y45868899D01*
X6213737Y46055787D01*
X5726401Y46056212D01*
X5276000Y45870110D01*
X4931101Y45525813D01*
X4744213Y45075737D01*
X4743788Y44588401D01*
X4121514Y44588401D01*
X4144509Y44704000D01*
X4053164Y45163220D01*
X3793037Y45552528D01*
X3403729Y45812655D01*
X2944509Y45904000D01*
X2897491Y45904000D01*
X2438271Y45812655D01*
X2048963Y45552528D01*
X1788836Y45163220D01*
X1697491Y44704000D01*
X425000Y44704000D01*
X425000Y51943000D01*
X922000Y51943000D01*
X922000Y48768000D01*
X958157Y48586225D01*
X1061124Y48432124D01*
X1789314Y47703935D01*
X1788836Y47703220D01*
X1697491Y47244000D01*
X1788836Y46784780D01*
X2048963Y46395472D01*
X2438271Y46135345D01*
X2897491Y46044000D01*
X2944509Y46044000D01*
X3403729Y46135345D01*
X3793037Y46395472D01*
X4053164Y46784780D01*
X4121514Y47128401D01*
X4743788Y47128401D01*
X4929890Y46678000D01*
X5274187Y46333101D01*
X5724263Y46146213D01*
X6211599Y46145788D01*
X6662000Y46331890D01*
X7006899Y46676187D01*
X7193787Y47126263D01*
X7194212Y47613599D01*
X7008110Y48064000D01*
X6663813Y48408899D01*
X6213737Y48595787D01*
X5726401Y48596212D01*
X5276000Y48410110D01*
X4931101Y48065813D01*
X4744213Y47615737D01*
X4743788Y47128401D01*
X4121514Y47128401D01*
X4144509Y47244000D01*
X4053164Y47703220D01*
X3793037Y48092528D01*
X3403729Y48352655D01*
X2944509Y48444000D01*
X2897491Y48444000D01*
X2476494Y48360258D01*
X1872000Y48964752D01*
X1872000Y49494918D01*
X1976153Y49255431D01*
X2298951Y48943756D01*
X2716450Y48779335D01*
X2896000Y48836269D01*
X2896000Y49886000D01*
X2946000Y49886000D01*
X2946000Y48836269D01*
X3125550Y48779335D01*
X3543049Y48943756D01*
X3865847Y49255431D01*
X4044800Y49666911D01*
X4045096Y49668401D01*
X4743788Y49668401D01*
X4929890Y49218000D01*
X5274187Y48873101D01*
X5724263Y48686213D01*
X6211599Y48685788D01*
X6662000Y48871890D01*
X7006899Y49216187D01*
X7193787Y49666263D01*
X7194212Y50153599D01*
X7008110Y50604000D01*
X6663813Y50948899D01*
X6213737Y51135787D01*
X5726401Y51136212D01*
X5276000Y50950110D01*
X4931101Y50605813D01*
X4744213Y50155737D01*
X4743788Y49668401D01*
X4045096Y49668401D01*
X4052662Y49706451D01*
X3995709Y49886000D01*
X2946000Y49886000D01*
X2896000Y49886000D01*
X2876000Y49886000D01*
X2876000Y49936000D01*
X2896000Y49936000D01*
X2896000Y50985731D01*
X2946000Y50985731D01*
X2946000Y49936000D01*
X3995709Y49936000D01*
X4052662Y50115549D01*
X4044800Y50155089D01*
X3865847Y50566569D01*
X3543049Y50878244D01*
X3125550Y51042665D01*
X2946000Y50985731D01*
X2896000Y50985731D01*
X2716450Y51042665D01*
X2298951Y50878244D01*
X1976153Y50566569D01*
X1872000Y50327082D01*
X1872000Y51746248D01*
X1920493Y51794741D01*
X2048963Y51602472D01*
X2438271Y51342345D01*
X2897491Y51251000D01*
X2944509Y51251000D01*
X3403729Y51342345D01*
X3793037Y51602472D01*
X4053164Y51991780D01*
X4144509Y52451000D01*
X4053164Y52910220D01*
X3793037Y53299528D01*
X3403729Y53559655D01*
X2944509Y53651000D01*
X2897491Y53651000D01*
X2438271Y53559655D01*
X2048963Y53299528D01*
X1788836Y52910220D01*
X1787319Y52902592D01*
X1723225Y52889843D01*
X1569124Y52786876D01*
X1569122Y52786873D01*
X1061124Y52278876D01*
X958157Y52124775D01*
X922000Y51943000D01*
X425000Y51943000D01*
X425000Y59938823D01*
X1224662Y59938823D01*
X1520906Y59221857D01*
X2068971Y58672834D01*
X2785419Y58375339D01*
X3561177Y58374662D01*
X4278143Y58670906D01*
X4827166Y59218971D01*
X5124661Y59935419D01*
X5125338Y60711177D01*
X4829094Y61428143D01*
X4281029Y61977166D01*
X3564581Y62274661D01*
X2788823Y62275338D01*
X2071857Y61979094D01*
X1522834Y61431029D01*
X1225339Y60714581D01*
X1224662Y59938823D01*
X425000Y59938823D01*
X425000Y60283140D01*
X642024Y61374195D01*
X1236345Y62263658D01*
X2125806Y62857976D01*
X3216861Y63075000D01*
X23649000Y63075000D01*
X23649000Y55466000D01*
M02*
