G04 #@! TF.FileFunction,Legend,Top*
%FSLAX46Y46*%
G04 Gerber Fmt 4.6, Leading zero omitted, Abs format (unit mm)*
G04 Created by KiCad (PCBNEW 4.0.4-stable) date 08/15/17 16:15:30*
%MOMM*%
%LPD*%
G01*
G04 APERTURE LIST*
%ADD10C,0.100000*%
%ADD11C,0.300000*%
%ADD12C,0.150000*%
%ADD13C,0.187500*%
%ADD14C,0.120000*%
G04 APERTURE END LIST*
D10*
D11*
X71215357Y12271238D02*
X71691548Y10271238D01*
X72072500Y11699810D01*
X72453453Y10271238D01*
X72929643Y12271238D01*
X71342333Y29162238D02*
X72009000Y27162238D01*
X72675667Y29162238D01*
X71310571Y46180238D02*
X71310571Y44561190D01*
X71405810Y44370714D01*
X71501048Y44275476D01*
X71691524Y44180238D01*
X72072476Y44180238D01*
X72262952Y44275476D01*
X72358191Y44370714D01*
X72453429Y44561190D01*
X72453429Y46180238D01*
D12*
X42195738Y4468786D02*
X42576690Y4468786D01*
X42338595Y3802119D02*
X42338595Y4659262D01*
X42386214Y4754500D01*
X42481452Y4802119D01*
X42576690Y4802119D01*
X42910024Y3802119D02*
X42910024Y4468786D01*
X42910024Y4802119D02*
X42862405Y4754500D01*
X42910024Y4706881D01*
X42957643Y4754500D01*
X42910024Y4802119D01*
X42910024Y4706881D01*
X43767167Y3849738D02*
X43671929Y3802119D01*
X43481452Y3802119D01*
X43386214Y3849738D01*
X43338595Y3944976D01*
X43338595Y4325929D01*
X43386214Y4421167D01*
X43481452Y4468786D01*
X43671929Y4468786D01*
X43767167Y4421167D01*
X43814786Y4325929D01*
X43814786Y4230690D01*
X43338595Y4135452D01*
X44386214Y3802119D02*
X44290976Y3849738D01*
X44243357Y3944976D01*
X44243357Y4802119D01*
X45195739Y3802119D02*
X45195739Y4802119D01*
X45195739Y3849738D02*
X45100501Y3802119D01*
X44910024Y3802119D01*
X44814786Y3849738D01*
X44767167Y3897357D01*
X44719548Y3992595D01*
X44719548Y4278310D01*
X44767167Y4373548D01*
X44814786Y4421167D01*
X44910024Y4468786D01*
X45100501Y4468786D01*
X45195739Y4421167D01*
X46576691Y3802119D02*
X46481453Y3849738D01*
X46433834Y3897357D01*
X46386215Y3992595D01*
X46386215Y4278310D01*
X46433834Y4373548D01*
X46481453Y4421167D01*
X46576691Y4468786D01*
X46719549Y4468786D01*
X46814787Y4421167D01*
X46862406Y4373548D01*
X46910025Y4278310D01*
X46910025Y3992595D01*
X46862406Y3897357D01*
X46814787Y3849738D01*
X46719549Y3802119D01*
X46576691Y3802119D01*
X47338596Y3802119D02*
X47338596Y4468786D01*
X47338596Y4278310D02*
X47386215Y4373548D01*
X47433834Y4421167D01*
X47529072Y4468786D01*
X47624311Y4468786D01*
X47957644Y3802119D02*
X47957644Y4468786D01*
X47957644Y4802119D02*
X47910025Y4754500D01*
X47957644Y4706881D01*
X48005263Y4754500D01*
X47957644Y4802119D01*
X47957644Y4706881D01*
X48814787Y3849738D02*
X48719549Y3802119D01*
X48529072Y3802119D01*
X48433834Y3849738D01*
X48386215Y3944976D01*
X48386215Y4325929D01*
X48433834Y4421167D01*
X48529072Y4468786D01*
X48719549Y4468786D01*
X48814787Y4421167D01*
X48862406Y4325929D01*
X48862406Y4230690D01*
X48386215Y4135452D01*
X49290977Y4468786D02*
X49290977Y3802119D01*
X49290977Y4373548D02*
X49338596Y4421167D01*
X49433834Y4468786D01*
X49576692Y4468786D01*
X49671930Y4421167D01*
X49719549Y4325929D01*
X49719549Y3802119D01*
X50052882Y4468786D02*
X50433834Y4468786D01*
X50195739Y4802119D02*
X50195739Y3944976D01*
X50243358Y3849738D01*
X50338596Y3802119D01*
X50433834Y3802119D01*
X51148121Y3849738D02*
X51052883Y3802119D01*
X50862406Y3802119D01*
X50767168Y3849738D01*
X50719549Y3944976D01*
X50719549Y4325929D01*
X50767168Y4421167D01*
X50862406Y4468786D01*
X51052883Y4468786D01*
X51148121Y4421167D01*
X51195740Y4325929D01*
X51195740Y4230690D01*
X50719549Y4135452D01*
X52052883Y3802119D02*
X52052883Y4802119D01*
X52052883Y3849738D02*
X51957645Y3802119D01*
X51767168Y3802119D01*
X51671930Y3849738D01*
X51624311Y3897357D01*
X51576692Y3992595D01*
X51576692Y4278310D01*
X51624311Y4373548D01*
X51671930Y4421167D01*
X51767168Y4468786D01*
X51957645Y4468786D01*
X52052883Y4421167D01*
X53719550Y3849738D02*
X53624312Y3802119D01*
X53433835Y3802119D01*
X53338597Y3849738D01*
X53290978Y3897357D01*
X53243359Y3992595D01*
X53243359Y4278310D01*
X53290978Y4373548D01*
X53338597Y4421167D01*
X53433835Y4468786D01*
X53624312Y4468786D01*
X53719550Y4421167D01*
X54290978Y3802119D02*
X54195740Y3849738D01*
X54148121Y3897357D01*
X54100502Y3992595D01*
X54100502Y4278310D01*
X54148121Y4373548D01*
X54195740Y4421167D01*
X54290978Y4468786D01*
X54433836Y4468786D01*
X54529074Y4421167D01*
X54576693Y4373548D01*
X54624312Y4278310D01*
X54624312Y3992595D01*
X54576693Y3897357D01*
X54529074Y3849738D01*
X54433836Y3802119D01*
X54290978Y3802119D01*
X55052883Y4468786D02*
X55052883Y3802119D01*
X55052883Y4373548D02*
X55100502Y4421167D01*
X55195740Y4468786D01*
X55338598Y4468786D01*
X55433836Y4421167D01*
X55481455Y4325929D01*
X55481455Y3802119D01*
X55814788Y4468786D02*
X56195740Y4468786D01*
X55957645Y4802119D02*
X55957645Y3944976D01*
X56005264Y3849738D01*
X56100502Y3802119D01*
X56195740Y3802119D01*
X56529074Y3802119D02*
X56529074Y4468786D01*
X56529074Y4278310D02*
X56576693Y4373548D01*
X56624312Y4421167D01*
X56719550Y4468786D01*
X56814789Y4468786D01*
X57290979Y3802119D02*
X57195741Y3849738D01*
X57148122Y3897357D01*
X57100503Y3992595D01*
X57100503Y4278310D01*
X57148122Y4373548D01*
X57195741Y4421167D01*
X57290979Y4468786D01*
X57433837Y4468786D01*
X57529075Y4421167D01*
X57576694Y4373548D01*
X57624313Y4278310D01*
X57624313Y3992595D01*
X57576694Y3897357D01*
X57529075Y3849738D01*
X57433837Y3802119D01*
X57290979Y3802119D01*
X58195741Y3802119D02*
X58100503Y3849738D01*
X58052884Y3944976D01*
X58052884Y4802119D01*
X59481456Y3802119D02*
X59386218Y3849738D01*
X59338599Y3897357D01*
X59290980Y3992595D01*
X59290980Y4278310D01*
X59338599Y4373548D01*
X59386218Y4421167D01*
X59481456Y4468786D01*
X59624314Y4468786D01*
X59719552Y4421167D01*
X59767171Y4373548D01*
X59814790Y4278310D01*
X59814790Y3992595D01*
X59767171Y3897357D01*
X59719552Y3849738D01*
X59624314Y3802119D01*
X59481456Y3802119D01*
X60243361Y4468786D02*
X60243361Y3802119D01*
X60243361Y4373548D02*
X60290980Y4421167D01*
X60386218Y4468786D01*
X60529076Y4468786D01*
X60624314Y4421167D01*
X60671933Y4325929D01*
X60671933Y3802119D01*
X61767171Y4468786D02*
X62148123Y4468786D01*
X61910028Y4802119D02*
X61910028Y3944976D01*
X61957647Y3849738D01*
X62052885Y3802119D01*
X62148123Y3802119D01*
X62862410Y3849738D02*
X62767172Y3802119D01*
X62576695Y3802119D01*
X62481457Y3849738D01*
X62433838Y3944976D01*
X62433838Y4325929D01*
X62481457Y4421167D01*
X62576695Y4468786D01*
X62767172Y4468786D01*
X62862410Y4421167D01*
X62910029Y4325929D01*
X62910029Y4230690D01*
X62433838Y4135452D01*
X63719553Y3849738D02*
X63624315Y3802119D01*
X63433838Y3802119D01*
X63338600Y3849738D01*
X63290981Y3944976D01*
X63290981Y4325929D01*
X63338600Y4421167D01*
X63433838Y4468786D01*
X63624315Y4468786D01*
X63719553Y4421167D01*
X63767172Y4325929D01*
X63767172Y4230690D01*
X63290981Y4135452D01*
X64195743Y4468786D02*
X64195743Y3802119D01*
X64195743Y4373548D02*
X64243362Y4421167D01*
X64338600Y4468786D01*
X64481458Y4468786D01*
X64576696Y4421167D01*
X64624315Y4325929D01*
X64624315Y3802119D01*
X65052886Y3849738D02*
X65148124Y3802119D01*
X65338600Y3802119D01*
X65433839Y3849738D01*
X65481458Y3944976D01*
X65481458Y3992595D01*
X65433839Y4087833D01*
X65338600Y4135452D01*
X65195743Y4135452D01*
X65100505Y4183071D01*
X65052886Y4278310D01*
X65052886Y4325929D01*
X65100505Y4421167D01*
X65195743Y4468786D01*
X65338600Y4468786D01*
X65433839Y4421167D01*
X65814791Y4468786D02*
X66052886Y3802119D01*
X66290982Y4468786D02*
X66052886Y3802119D01*
X65957648Y3564024D01*
X65910029Y3516405D01*
X65814791Y3468786D01*
X42696952Y2627286D02*
X42696952Y1817762D01*
X42649333Y1722524D01*
X42601714Y1674905D01*
X42506475Y1627286D01*
X42363618Y1627286D01*
X42268380Y1674905D01*
X42696952Y2008238D02*
X42601714Y1960619D01*
X42411237Y1960619D01*
X42315999Y2008238D01*
X42268380Y2055857D01*
X42220761Y2151095D01*
X42220761Y2436810D01*
X42268380Y2532048D01*
X42315999Y2579667D01*
X42411237Y2627286D01*
X42601714Y2627286D01*
X42696952Y2579667D01*
X43173142Y1960619D02*
X43173142Y2627286D01*
X43173142Y2960619D02*
X43125523Y2913000D01*
X43173142Y2865381D01*
X43220761Y2913000D01*
X43173142Y2960619D01*
X43173142Y2865381D01*
X43506475Y2627286D02*
X43887427Y2627286D01*
X43649332Y2960619D02*
X43649332Y2103476D01*
X43696951Y2008238D01*
X43792189Y1960619D01*
X43887427Y1960619D01*
X44220761Y1960619D02*
X44220761Y2960619D01*
X44649333Y1960619D02*
X44649333Y2484429D01*
X44601714Y2579667D01*
X44506476Y2627286D01*
X44363618Y2627286D01*
X44268380Y2579667D01*
X44220761Y2532048D01*
X45554095Y2627286D02*
X45554095Y1960619D01*
X45125523Y2627286D02*
X45125523Y2103476D01*
X45173142Y2008238D01*
X45268380Y1960619D01*
X45411238Y1960619D01*
X45506476Y2008238D01*
X45554095Y2055857D01*
X46030285Y1960619D02*
X46030285Y2960619D01*
X46030285Y2579667D02*
X46125523Y2627286D01*
X46316000Y2627286D01*
X46411238Y2579667D01*
X46458857Y2532048D01*
X46506476Y2436810D01*
X46506476Y2151095D01*
X46458857Y2055857D01*
X46411238Y2008238D01*
X46316000Y1960619D01*
X46125523Y1960619D01*
X46030285Y2008238D01*
X46935047Y2055857D02*
X46982666Y2008238D01*
X46935047Y1960619D01*
X46887428Y2008238D01*
X46935047Y2055857D01*
X46935047Y1960619D01*
X47839809Y2008238D02*
X47744571Y1960619D01*
X47554094Y1960619D01*
X47458856Y2008238D01*
X47411237Y2055857D01*
X47363618Y2151095D01*
X47363618Y2436810D01*
X47411237Y2532048D01*
X47458856Y2579667D01*
X47554094Y2627286D01*
X47744571Y2627286D01*
X47839809Y2579667D01*
X48411237Y1960619D02*
X48315999Y2008238D01*
X48268380Y2055857D01*
X48220761Y2151095D01*
X48220761Y2436810D01*
X48268380Y2532048D01*
X48315999Y2579667D01*
X48411237Y2627286D01*
X48554095Y2627286D01*
X48649333Y2579667D01*
X48696952Y2532048D01*
X48744571Y2436810D01*
X48744571Y2151095D01*
X48696952Y2055857D01*
X48649333Y2008238D01*
X48554095Y1960619D01*
X48411237Y1960619D01*
X49173142Y1960619D02*
X49173142Y2627286D01*
X49173142Y2532048D02*
X49220761Y2579667D01*
X49315999Y2627286D01*
X49458857Y2627286D01*
X49554095Y2579667D01*
X49601714Y2484429D01*
X49601714Y1960619D01*
X49601714Y2484429D02*
X49649333Y2579667D01*
X49744571Y2627286D01*
X49887428Y2627286D01*
X49982666Y2579667D01*
X50030285Y2484429D01*
X50030285Y1960619D01*
X51220761Y3008238D02*
X50363618Y1722524D01*
X51554094Y2627286D02*
X51554094Y1770143D01*
X51506475Y1674905D01*
X51411237Y1627286D01*
X51363618Y1627286D01*
X51554094Y2960619D02*
X51506475Y2913000D01*
X51554094Y2865381D01*
X51601713Y2913000D01*
X51554094Y2960619D01*
X51554094Y2865381D01*
X52458856Y1960619D02*
X52458856Y2484429D01*
X52411237Y2579667D01*
X52315999Y2627286D01*
X52125522Y2627286D01*
X52030284Y2579667D01*
X52458856Y2008238D02*
X52363618Y1960619D01*
X52125522Y1960619D01*
X52030284Y2008238D01*
X51982665Y2103476D01*
X51982665Y2198714D01*
X52030284Y2293952D01*
X52125522Y2341571D01*
X52363618Y2341571D01*
X52458856Y2389190D01*
X52935046Y1960619D02*
X52935046Y2960619D01*
X53030284Y2341571D02*
X53315999Y1960619D01*
X53315999Y2627286D02*
X52935046Y2246333D01*
X54125523Y2008238D02*
X54030285Y1960619D01*
X53839808Y1960619D01*
X53744570Y2008238D01*
X53696951Y2103476D01*
X53696951Y2484429D01*
X53744570Y2579667D01*
X53839808Y2627286D01*
X54030285Y2627286D01*
X54125523Y2579667D01*
X54173142Y2484429D01*
X54173142Y2389190D01*
X53696951Y2293952D01*
X54601713Y1960619D02*
X54601713Y2627286D01*
X54601713Y2436810D02*
X54649332Y2532048D01*
X54696951Y2579667D01*
X54792189Y2627286D01*
X54887428Y2627286D01*
X55601714Y2008238D02*
X55506476Y1960619D01*
X55315999Y1960619D01*
X55220761Y2008238D01*
X55173142Y2103476D01*
X55173142Y2484429D01*
X55220761Y2579667D01*
X55315999Y2627286D01*
X55506476Y2627286D01*
X55601714Y2579667D01*
X55649333Y2484429D01*
X55649333Y2389190D01*
X55173142Y2293952D01*
X56506476Y1960619D02*
X56506476Y2484429D01*
X56458857Y2579667D01*
X56363619Y2627286D01*
X56173142Y2627286D01*
X56077904Y2579667D01*
X56506476Y2008238D02*
X56411238Y1960619D01*
X56173142Y1960619D01*
X56077904Y2008238D01*
X56030285Y2103476D01*
X56030285Y2198714D01*
X56077904Y2293952D01*
X56173142Y2341571D01*
X56411238Y2341571D01*
X56506476Y2389190D01*
X57411238Y1960619D02*
X57411238Y2960619D01*
X57411238Y2008238D02*
X57316000Y1960619D01*
X57125523Y1960619D01*
X57030285Y2008238D01*
X56982666Y2055857D01*
X56935047Y2151095D01*
X56935047Y2436810D01*
X56982666Y2532048D01*
X57030285Y2579667D01*
X57125523Y2627286D01*
X57316000Y2627286D01*
X57411238Y2579667D01*
X58601714Y3008238D02*
X57744571Y1722524D01*
X58792190Y2627286D02*
X59173142Y2627286D01*
X58935047Y1960619D02*
X58935047Y2817762D01*
X58982666Y2913000D01*
X59077904Y2960619D01*
X59173142Y2960619D01*
X59649333Y1960619D02*
X59554095Y2008238D01*
X59506476Y2055857D01*
X59458857Y2151095D01*
X59458857Y2436810D01*
X59506476Y2532048D01*
X59554095Y2579667D01*
X59649333Y2627286D01*
X59792191Y2627286D01*
X59887429Y2579667D01*
X59935048Y2532048D01*
X59982667Y2436810D01*
X59982667Y2151095D01*
X59935048Y2055857D01*
X59887429Y2008238D01*
X59792191Y1960619D01*
X59649333Y1960619D01*
X60839810Y2008238D02*
X60744572Y1960619D01*
X60554095Y1960619D01*
X60458857Y2008238D01*
X60411238Y2055857D01*
X60363619Y2151095D01*
X60363619Y2436810D01*
X60411238Y2532048D01*
X60458857Y2579667D01*
X60554095Y2627286D01*
X60744572Y2627286D01*
X60839810Y2579667D01*
X61125524Y2627286D02*
X61506476Y2627286D01*
X61268381Y2960619D02*
X61268381Y2103476D01*
X61316000Y2008238D01*
X61411238Y1960619D01*
X61506476Y1960619D01*
D11*
X16748928Y3190857D02*
X16082261Y3190857D01*
X16082261Y2143238D02*
X16082261Y4143238D01*
X17034642Y4143238D01*
X18177500Y4143238D02*
X18558452Y4143238D01*
X18748928Y4048000D01*
X18939405Y3857524D01*
X19034643Y3476571D01*
X19034643Y2809905D01*
X18939405Y2428952D01*
X18748928Y2238476D01*
X18558452Y2143238D01*
X18177500Y2143238D01*
X17987024Y2238476D01*
X17796547Y2428952D01*
X17701309Y2809905D01*
X17701309Y3476571D01*
X17796547Y3857524D01*
X17987024Y4048000D01*
X18177500Y4143238D01*
X21034643Y2333714D02*
X20939405Y2238476D01*
X20653690Y2143238D01*
X20463214Y2143238D01*
X20177500Y2238476D01*
X19987024Y2428952D01*
X19891785Y2619429D01*
X19796547Y3000381D01*
X19796547Y3286095D01*
X19891785Y3667048D01*
X19987024Y3857524D01*
X20177500Y4048000D01*
X20463214Y4143238D01*
X20653690Y4143238D01*
X20939405Y4048000D01*
X21034643Y3952762D01*
X21606071Y4143238D02*
X22748928Y4143238D01*
X22177500Y2143238D02*
X22177500Y4143238D01*
X24748929Y3476571D02*
X25225120Y2143238D01*
X25701310Y3476571D01*
X26844168Y4143238D02*
X27034644Y4143238D01*
X27225120Y4048000D01*
X27320358Y3952762D01*
X27415596Y3762286D01*
X27510835Y3381333D01*
X27510835Y2905143D01*
X27415596Y2524190D01*
X27320358Y2333714D01*
X27225120Y2238476D01*
X27034644Y2143238D01*
X26844168Y2143238D01*
X26653692Y2238476D01*
X26558454Y2333714D01*
X26463215Y2524190D01*
X26367977Y2905143D01*
X26367977Y3381333D01*
X26463215Y3762286D01*
X26558454Y3952762D01*
X26653692Y4048000D01*
X26844168Y4143238D01*
X28367977Y2333714D02*
X28463216Y2238476D01*
X28367977Y2143238D01*
X28272739Y2238476D01*
X28367977Y2333714D01*
X28367977Y2143238D01*
X29225120Y3952762D02*
X29320358Y4048000D01*
X29510835Y4143238D01*
X29987025Y4143238D01*
X30177501Y4048000D01*
X30272739Y3952762D01*
X30367978Y3762286D01*
X30367978Y3571810D01*
X30272739Y3286095D01*
X29129882Y2143238D01*
X30367978Y2143238D01*
D12*
X1172714Y40418289D02*
X1172714Y39954003D01*
X887000Y40204003D01*
X887000Y40096861D01*
X851286Y40025432D01*
X815571Y39989718D01*
X744143Y39954003D01*
X565571Y39954003D01*
X494143Y39989718D01*
X458429Y40025432D01*
X422714Y40096861D01*
X422714Y40311146D01*
X458429Y40382575D01*
X494143Y40418289D01*
X922714Y39704003D02*
X422714Y39525432D01*
X922714Y39346860D01*
X1172714Y39132574D02*
X1172714Y38668288D01*
X887000Y38918288D01*
X887000Y38811146D01*
X851286Y38739717D01*
X815571Y38704003D01*
X744143Y38668288D01*
X565571Y38668288D01*
X494143Y38704003D01*
X458429Y38739717D01*
X422714Y38811146D01*
X422714Y39025431D01*
X458429Y39096860D01*
X494143Y39132574D01*
X172714Y37596859D02*
X1244143Y37596859D01*
X422714Y36489716D02*
X1172714Y36489716D01*
X637000Y36239716D01*
X1172714Y35989716D01*
X422714Y35989716D01*
X1172714Y35489715D02*
X1172714Y35346858D01*
X1137000Y35275430D01*
X1065571Y35204001D01*
X922714Y35168287D01*
X672714Y35168287D01*
X529857Y35204001D01*
X458429Y35275430D01*
X422714Y35346858D01*
X422714Y35489715D01*
X458429Y35561144D01*
X529857Y35632573D01*
X672714Y35668287D01*
X922714Y35668287D01*
X1065571Y35632573D01*
X1137000Y35561144D01*
X1172714Y35489715D01*
X458429Y34882573D02*
X422714Y34775430D01*
X422714Y34596859D01*
X458429Y34525430D01*
X494143Y34489716D01*
X565571Y34454001D01*
X637000Y34454001D01*
X708429Y34489716D01*
X744143Y34525430D01*
X779857Y34596859D01*
X815571Y34739716D01*
X851286Y34811144D01*
X887000Y34846859D01*
X958429Y34882573D01*
X1029857Y34882573D01*
X1101286Y34846859D01*
X1137000Y34811144D01*
X1172714Y34739716D01*
X1172714Y34561144D01*
X1137000Y34454001D01*
X422714Y34132573D02*
X1172714Y34132573D01*
X172714Y33025429D02*
X1244143Y33025429D01*
X422714Y31918286D02*
X1172714Y31918286D01*
X637000Y31668286D01*
X1172714Y31418286D01*
X422714Y31418286D01*
X422714Y31061143D02*
X1172714Y31061143D01*
X458429Y30739714D02*
X422714Y30632571D01*
X422714Y30454000D01*
X458429Y30382571D01*
X494143Y30346857D01*
X565571Y30311142D01*
X637000Y30311142D01*
X708429Y30346857D01*
X744143Y30382571D01*
X779857Y30454000D01*
X815571Y30596857D01*
X851286Y30668285D01*
X887000Y30704000D01*
X958429Y30739714D01*
X1029857Y30739714D01*
X1101286Y30704000D01*
X1137000Y30668285D01*
X1172714Y30596857D01*
X1172714Y30418285D01*
X1137000Y30311142D01*
X1172714Y29846856D02*
X1172714Y29703999D01*
X1137000Y29632571D01*
X1065571Y29561142D01*
X922714Y29525428D01*
X672714Y29525428D01*
X529857Y29561142D01*
X458429Y29632571D01*
X422714Y29703999D01*
X422714Y29846856D01*
X458429Y29918285D01*
X529857Y29989714D01*
X672714Y30025428D01*
X922714Y30025428D01*
X1065571Y29989714D01*
X1137000Y29918285D01*
X1172714Y29846856D01*
X172714Y28453999D02*
X1244143Y28453999D01*
X458429Y27382570D02*
X422714Y27275427D01*
X422714Y27096856D01*
X458429Y27025427D01*
X494143Y26989713D01*
X565571Y26953998D01*
X637000Y26953998D01*
X708429Y26989713D01*
X744143Y27025427D01*
X779857Y27096856D01*
X815571Y27239713D01*
X851286Y27311141D01*
X887000Y27346856D01*
X958429Y27382570D01*
X1029857Y27382570D01*
X1101286Y27346856D01*
X1137000Y27311141D01*
X1172714Y27239713D01*
X1172714Y27061141D01*
X1137000Y26953998D01*
X494143Y26203998D02*
X458429Y26239712D01*
X422714Y26346855D01*
X422714Y26418284D01*
X458429Y26525427D01*
X529857Y26596855D01*
X601286Y26632570D01*
X744143Y26668284D01*
X851286Y26668284D01*
X994143Y26632570D01*
X1065571Y26596855D01*
X1137000Y26525427D01*
X1172714Y26418284D01*
X1172714Y26346855D01*
X1137000Y26239712D01*
X1101286Y26203998D01*
X422714Y25882570D02*
X1172714Y25882570D01*
X422714Y25453998D02*
X851286Y25775427D01*
X1172714Y25453998D02*
X744143Y25882570D01*
X172714Y24382569D02*
X1244143Y24382569D01*
X494143Y22846854D02*
X458429Y22882568D01*
X422714Y22989711D01*
X422714Y23061140D01*
X458429Y23168283D01*
X529857Y23239711D01*
X601286Y23275426D01*
X744143Y23311140D01*
X851286Y23311140D01*
X994143Y23275426D01*
X1065571Y23239711D01*
X1137000Y23168283D01*
X1172714Y23061140D01*
X1172714Y22989711D01*
X1137000Y22882568D01*
X1101286Y22846854D01*
X458429Y22561140D02*
X422714Y22453997D01*
X422714Y22275426D01*
X458429Y22203997D01*
X494143Y22168283D01*
X565571Y22132568D01*
X637000Y22132568D01*
X708429Y22168283D01*
X744143Y22203997D01*
X779857Y22275426D01*
X815571Y22418283D01*
X851286Y22489711D01*
X887000Y22525426D01*
X958429Y22561140D01*
X1029857Y22561140D01*
X1101286Y22525426D01*
X1137000Y22489711D01*
X1172714Y22418283D01*
X1172714Y22239711D01*
X1137000Y22132568D01*
X422714Y21418282D02*
X422714Y21846854D01*
X422714Y21632568D02*
X1172714Y21632568D01*
X1065571Y21703997D01*
X994143Y21775425D01*
X958429Y21846854D01*
X172714Y20346853D02*
X1244143Y20346853D01*
X1137000Y18846852D02*
X1172714Y18918281D01*
X1172714Y19025424D01*
X1137000Y19132567D01*
X1065571Y19203995D01*
X994143Y19239710D01*
X851286Y19275424D01*
X744143Y19275424D01*
X601286Y19239710D01*
X529857Y19203995D01*
X458429Y19132567D01*
X422714Y19025424D01*
X422714Y18953995D01*
X458429Y18846852D01*
X494143Y18811138D01*
X744143Y18811138D01*
X744143Y18953995D01*
X422714Y18489710D02*
X1172714Y18489710D01*
X422714Y18061138D01*
X1172714Y18061138D01*
X422714Y17703996D02*
X1172714Y17703996D01*
X1172714Y17525424D01*
X1137000Y17418281D01*
X1065571Y17346853D01*
X994143Y17311138D01*
X851286Y17275424D01*
X744143Y17275424D01*
X601286Y17311138D01*
X529857Y17346853D01*
X458429Y17418281D01*
X422714Y17525424D01*
X422714Y17703996D01*
X942571Y43269500D02*
X942571Y43840929D01*
X1192571Y44733786D02*
X1228286Y44805215D01*
X1228286Y44948072D01*
X1192571Y45019500D01*
X1121143Y45055215D01*
X1085429Y45055215D01*
X1014000Y45019500D01*
X978286Y44948072D01*
X978286Y44840929D01*
X942571Y44769500D01*
X871143Y44733786D01*
X835429Y44733786D01*
X764000Y44769500D01*
X728286Y44840929D01*
X728286Y44948072D01*
X764000Y45019500D01*
X942571Y45948072D02*
X942571Y46519501D01*
X1228286Y46233787D02*
X656857Y46233787D01*
D13*
X1299714Y55089929D02*
X1299714Y55447072D01*
X942571Y55482786D01*
X978286Y55447072D01*
X1014000Y55375643D01*
X1014000Y55197072D01*
X978286Y55125643D01*
X942571Y55089929D01*
X871143Y55054214D01*
X692571Y55054214D01*
X621143Y55089929D01*
X585429Y55125643D01*
X549714Y55197072D01*
X549714Y55375643D01*
X585429Y55447072D01*
X621143Y55482786D01*
X1335429Y53625642D02*
X371143Y54268499D01*
X1299714Y52875642D02*
X1299714Y52411356D01*
X1014000Y52661356D01*
X1014000Y52554214D01*
X978286Y52482785D01*
X942571Y52447071D01*
X871143Y52411356D01*
X692571Y52411356D01*
X621143Y52447071D01*
X585429Y52482785D01*
X549714Y52554214D01*
X549714Y52768499D01*
X585429Y52839928D01*
X621143Y52875642D01*
X549714Y51411356D02*
X585429Y51482784D01*
X621143Y51518499D01*
X692571Y51554213D01*
X906857Y51554213D01*
X978286Y51518499D01*
X1014000Y51482784D01*
X1049714Y51411356D01*
X1049714Y51304213D01*
X1014000Y51232784D01*
X978286Y51197070D01*
X906857Y51161356D01*
X692571Y51161356D01*
X621143Y51197070D01*
X585429Y51232784D01*
X549714Y51304213D01*
X549714Y51411356D01*
X1049714Y50518499D02*
X549714Y50518499D01*
X1049714Y50839928D02*
X656857Y50839928D01*
X585429Y50804213D01*
X549714Y50732785D01*
X549714Y50625642D01*
X585429Y50554213D01*
X621143Y50518499D01*
X1049714Y50268499D02*
X1049714Y49982785D01*
X1299714Y50161357D02*
X656857Y50161357D01*
X585429Y50125642D01*
X549714Y50054214D01*
X549714Y49982785D01*
D11*
X2559857Y18100714D02*
X2559857Y16957857D01*
X1988429Y17529286D02*
X3131286Y17529286D01*
X3488429Y16457857D02*
X1988429Y15957857D01*
X3488429Y15457857D01*
X2774143Y14957857D02*
X2774143Y14457857D01*
X1988429Y14243571D02*
X1988429Y14957857D01*
X3488429Y14957857D01*
X3488429Y14243571D01*
X1488429Y12100714D02*
X3631286Y12100714D01*
X3417000Y9100715D02*
X3488429Y9243572D01*
X3488429Y9457858D01*
X3417000Y9672143D01*
X3274143Y9815001D01*
X3131286Y9886429D01*
X2845571Y9957858D01*
X2631286Y9957858D01*
X2345571Y9886429D01*
X2202714Y9815001D01*
X2059857Y9672143D01*
X1988429Y9457858D01*
X1988429Y9315001D01*
X2059857Y9100715D01*
X2131286Y9029286D01*
X2631286Y9029286D01*
X2631286Y9315001D01*
X1988429Y8386429D02*
X3488429Y8386429D01*
X1988429Y7529286D01*
X3488429Y7529286D01*
X1988429Y6815000D02*
X3488429Y6815000D01*
X3488429Y6457857D01*
X3417000Y6243572D01*
X3274143Y6100714D01*
X3131286Y6029286D01*
X2845571Y5957857D01*
X2631286Y5957857D01*
X2345571Y6029286D01*
X2202714Y6100714D01*
X2059857Y6243572D01*
X1988429Y6457857D01*
X1988429Y6815000D01*
D14*
X58309000Y46160500D02*
X60309000Y46160500D01*
X60309000Y48200500D02*
X58309000Y48200500D01*
X44385500Y57359000D02*
X41085500Y57359000D01*
X41085500Y57359000D02*
X41085500Y50459000D01*
X44385500Y57359000D02*
X44385500Y50459000D01*
X18673000Y51324000D02*
X18673000Y53324000D01*
X16633000Y53324000D02*
X16633000Y51324000D01*
X27563000Y28210000D02*
X27563000Y30210000D01*
X25523000Y30210000D02*
X25523000Y28210000D01*
X29468000Y28210000D02*
X29468000Y30210000D01*
X27428000Y30210000D02*
X27428000Y28210000D01*
X30412500Y48625000D02*
X30412500Y46625000D01*
X32452500Y46625000D02*
X32452500Y48625000D01*
X31373000Y28210000D02*
X31373000Y30210000D01*
X29333000Y30210000D02*
X29333000Y28210000D01*
X32635000Y48625000D02*
X32635000Y46625000D01*
X34675000Y46625000D02*
X34675000Y48625000D01*
X33544000Y23872000D02*
X35544000Y23872000D01*
X35544000Y25912000D02*
X33544000Y25912000D01*
X37342000Y31766000D02*
X37342000Y33766000D01*
X35302000Y33766000D02*
X35302000Y31766000D01*
X39239000Y52689000D02*
X39239000Y50689000D01*
X41279000Y50689000D02*
X41279000Y52689000D01*
X49831500Y46295500D02*
X47831500Y46295500D01*
X47831500Y44255500D02*
X49831500Y44255500D01*
X58245500Y29015500D02*
X60245500Y29015500D01*
X60245500Y31055500D02*
X58245500Y31055500D01*
X58372500Y12124500D02*
X60372500Y12124500D01*
X60372500Y14164500D02*
X58372500Y14164500D01*
X42295000Y15256000D02*
X42295000Y17256000D01*
X40255000Y17256000D02*
X40255000Y15256000D01*
X42295000Y21860000D02*
X42295000Y23860000D01*
X40255000Y23860000D02*
X40255000Y21860000D01*
X52131500Y52451000D02*
X52131500Y51031000D01*
X45531500Y53211000D02*
X45531500Y51031000D01*
X45531500Y46611000D02*
X45531500Y48791000D01*
X52131500Y47371000D02*
X52131500Y48791000D01*
X45531500Y53211000D02*
X51371500Y53211000D01*
X51371500Y53211000D02*
X52131500Y52451000D01*
X52131500Y47371000D02*
X51371500Y46611000D01*
X51371500Y46611000D02*
X45531500Y46611000D01*
X29255000Y56006000D02*
X29255000Y52706000D01*
X29255000Y52706000D02*
X36155000Y52706000D01*
X29255000Y56006000D02*
X36155000Y56006000D01*
X4251000Y38668000D02*
X1591000Y38668000D01*
X4251000Y25908000D02*
X4251000Y38668000D01*
X1591000Y25908000D02*
X1591000Y38668000D01*
X4251000Y25908000D02*
X1591000Y25908000D01*
X4251000Y24638000D02*
X4251000Y23308000D01*
X4251000Y23308000D02*
X2921000Y23308000D01*
X27746000Y56321000D02*
X25086000Y56321000D01*
X27746000Y53721000D02*
X27746000Y56321000D01*
X25086000Y53721000D02*
X25086000Y56321000D01*
X27746000Y53721000D02*
X25086000Y53721000D01*
X27746000Y52451000D02*
X27746000Y51121000D01*
X27746000Y51121000D02*
X26416000Y51121000D01*
X1591000Y48581000D02*
X4251000Y48581000D01*
X1591000Y53721000D02*
X1591000Y48581000D01*
X4251000Y53721000D02*
X4251000Y48581000D01*
X1591000Y53721000D02*
X4251000Y53721000D01*
X1591000Y54991000D02*
X1591000Y56321000D01*
X1591000Y56321000D02*
X2921000Y56321000D01*
D12*
X51069500Y53653000D02*
X45069500Y53653000D01*
X51069500Y57853000D02*
X45069500Y57853000D01*
D14*
X4251000Y48574000D02*
X1591000Y48574000D01*
X4251000Y43434000D02*
X4251000Y48574000D01*
X1591000Y43434000D02*
X1591000Y48574000D01*
X4251000Y43434000D02*
X1591000Y43434000D01*
X4251000Y42164000D02*
X4251000Y40834000D01*
X4251000Y40834000D02*
X2921000Y40834000D01*
X30026000Y45450000D02*
X30026000Y43450000D01*
X27886000Y43450000D02*
X27886000Y45450000D01*
X30026000Y38401500D02*
X30026000Y36401500D01*
X27886000Y36401500D02*
X27886000Y38401500D01*
X27803500Y42402000D02*
X27803500Y40402000D01*
X25663500Y40402000D02*
X25663500Y42402000D01*
X32375500Y38401500D02*
X32375500Y36401500D01*
X30235500Y36401500D02*
X30235500Y38401500D01*
X34725000Y38401500D02*
X34725000Y36401500D01*
X32585000Y36401500D02*
X32585000Y38401500D01*
X34591500Y42110000D02*
X32591500Y42110000D01*
X32591500Y44250000D02*
X34591500Y44250000D01*
X36947500Y48625000D02*
X36947500Y46625000D01*
X34807500Y46625000D02*
X34807500Y48625000D01*
X43227500Y44205500D02*
X41227500Y44205500D01*
X41227500Y46345500D02*
X43227500Y46345500D01*
X44593000Y16310000D02*
X46593000Y16310000D01*
X46593000Y14170000D02*
X44593000Y14170000D01*
X44593000Y18532500D02*
X46593000Y18532500D01*
X46593000Y16392500D02*
X44593000Y16392500D01*
X44593000Y22914000D02*
X46593000Y22914000D01*
X46593000Y20774000D02*
X44593000Y20774000D01*
X44593000Y24946000D02*
X46593000Y24946000D01*
X46593000Y22806000D02*
X44593000Y22806000D01*
X66913000Y40395500D02*
X64913000Y40395500D01*
X64913000Y42535500D02*
X66913000Y42535500D01*
X66913000Y23377500D02*
X64913000Y23377500D01*
X64913000Y25517500D02*
X66913000Y25517500D01*
X66976500Y6486500D02*
X64976500Y6486500D01*
X64976500Y8626500D02*
X66976500Y8626500D01*
D12*
X12319000Y25781000D02*
X14859000Y25781000D01*
X14859000Y25781000D02*
X14859000Y24511000D01*
X14859000Y24511000D02*
X12319000Y24511000D01*
X12319000Y24511000D02*
X12319000Y25781000D01*
X8509000Y39751000D02*
X8509000Y27051000D01*
X8509000Y27051000D02*
X18669000Y27051000D01*
X18669000Y27051000D02*
X18669000Y39751000D01*
X18669000Y39751000D02*
X8509000Y39751000D01*
X11049000Y57531000D02*
X11049000Y53721000D01*
X11049000Y53721000D02*
X16129000Y53721000D01*
X16129000Y53721000D02*
X16129000Y57531000D01*
X16129000Y57531000D02*
X11049000Y57531000D01*
X4699000Y56261000D02*
X4699000Y20701000D01*
X4699000Y20701000D02*
X22479000Y20701000D01*
X22479000Y20701000D02*
X22479000Y56261000D01*
X22479000Y56261000D02*
X4699000Y56261000D01*
X49466500Y43701000D02*
X49466500Y43693500D01*
X49466500Y29451000D02*
X49466500Y29458500D01*
X43116500Y29451000D02*
X43116500Y29458500D01*
X42041500Y43776000D02*
X49466500Y43776000D01*
X43116500Y29451000D02*
X49466500Y29451000D01*
D14*
X24751000Y11978000D02*
G75*
G03X24751000Y11978000I-6590000J0D01*
G01*
X24711000Y11978000D02*
X11611000Y11978000D01*
X24711000Y11938000D02*
X11611000Y11938000D01*
X24711000Y11898000D02*
X11611000Y11898000D01*
X24710000Y11858000D02*
X11612000Y11858000D01*
X24710000Y11818000D02*
X11612000Y11818000D01*
X24708000Y11778000D02*
X11614000Y11778000D01*
X24707000Y11738000D02*
X11615000Y11738000D01*
X24706000Y11698000D02*
X11616000Y11698000D01*
X24704000Y11658000D02*
X11618000Y11658000D01*
X24702000Y11618000D02*
X11620000Y11618000D01*
X24699000Y11578000D02*
X11623000Y11578000D01*
X24697000Y11538000D02*
X11625000Y11538000D01*
X24694000Y11498000D02*
X11628000Y11498000D01*
X24691000Y11458000D02*
X11631000Y11458000D01*
X24688000Y11418000D02*
X11634000Y11418000D01*
X24684000Y11378000D02*
X11638000Y11378000D01*
X24680000Y11338000D02*
X11642000Y11338000D01*
X24676000Y11298000D02*
X11646000Y11298000D01*
X24672000Y11257000D02*
X11650000Y11257000D01*
X24668000Y11217000D02*
X11654000Y11217000D01*
X24663000Y11177000D02*
X11659000Y11177000D01*
X24658000Y11137000D02*
X11664000Y11137000D01*
X24652000Y11097000D02*
X11670000Y11097000D01*
X24647000Y11057000D02*
X11675000Y11057000D01*
X24641000Y11017000D02*
X11681000Y11017000D01*
X24635000Y10977000D02*
X11687000Y10977000D01*
X24629000Y10937000D02*
X11693000Y10937000D01*
X24622000Y10897000D02*
X11700000Y10897000D01*
X24616000Y10857000D02*
X19541000Y10857000D01*
X16781000Y10857000D02*
X11706000Y10857000D01*
X24609000Y10817000D02*
X19541000Y10817000D01*
X16781000Y10817000D02*
X11713000Y10817000D01*
X24601000Y10777000D02*
X19541000Y10777000D01*
X16781000Y10777000D02*
X11721000Y10777000D01*
X24594000Y10737000D02*
X19541000Y10737000D01*
X16781000Y10737000D02*
X11728000Y10737000D01*
X24586000Y10697000D02*
X19541000Y10697000D01*
X16781000Y10697000D02*
X11736000Y10697000D01*
X24578000Y10657000D02*
X19541000Y10657000D01*
X16781000Y10657000D02*
X11744000Y10657000D01*
X24570000Y10617000D02*
X19541000Y10617000D01*
X16781000Y10617000D02*
X11752000Y10617000D01*
X24561000Y10577000D02*
X19541000Y10577000D01*
X16781000Y10577000D02*
X11761000Y10577000D01*
X24552000Y10537000D02*
X19541000Y10537000D01*
X16781000Y10537000D02*
X11770000Y10537000D01*
X24543000Y10497000D02*
X19541000Y10497000D01*
X16781000Y10497000D02*
X11779000Y10497000D01*
X24534000Y10457000D02*
X19541000Y10457000D01*
X16781000Y10457000D02*
X11788000Y10457000D01*
X24524000Y10417000D02*
X19541000Y10417000D01*
X16781000Y10417000D02*
X11798000Y10417000D01*
X24514000Y10377000D02*
X19541000Y10377000D01*
X16781000Y10377000D02*
X11808000Y10377000D01*
X24504000Y10337000D02*
X19541000Y10337000D01*
X16781000Y10337000D02*
X11818000Y10337000D01*
X24494000Y10297000D02*
X19541000Y10297000D01*
X16781000Y10297000D02*
X11828000Y10297000D01*
X24483000Y10257000D02*
X19541000Y10257000D01*
X16781000Y10257000D02*
X11839000Y10257000D01*
X24472000Y10217000D02*
X19541000Y10217000D01*
X16781000Y10217000D02*
X11850000Y10217000D01*
X24461000Y10177000D02*
X19541000Y10177000D01*
X16781000Y10177000D02*
X11861000Y10177000D01*
X24449000Y10137000D02*
X19541000Y10137000D01*
X16781000Y10137000D02*
X11873000Y10137000D01*
X24438000Y10097000D02*
X19541000Y10097000D01*
X16781000Y10097000D02*
X11884000Y10097000D01*
X24426000Y10057000D02*
X19541000Y10057000D01*
X16781000Y10057000D02*
X11896000Y10057000D01*
X24413000Y10017000D02*
X19541000Y10017000D01*
X16781000Y10017000D02*
X11909000Y10017000D01*
X24401000Y9977000D02*
X19541000Y9977000D01*
X16781000Y9977000D02*
X11921000Y9977000D01*
X24388000Y9937000D02*
X19541000Y9937000D01*
X16781000Y9937000D02*
X11934000Y9937000D01*
X24375000Y9897000D02*
X19541000Y9897000D01*
X16781000Y9897000D02*
X11947000Y9897000D01*
X24361000Y9857000D02*
X19541000Y9857000D01*
X16781000Y9857000D02*
X11961000Y9857000D01*
X24347000Y9817000D02*
X19541000Y9817000D01*
X16781000Y9817000D02*
X11975000Y9817000D01*
X24333000Y9777000D02*
X19541000Y9777000D01*
X16781000Y9777000D02*
X11989000Y9777000D01*
X24319000Y9737000D02*
X19541000Y9737000D01*
X16781000Y9737000D02*
X12003000Y9737000D01*
X24305000Y9697000D02*
X19541000Y9697000D01*
X16781000Y9697000D02*
X12017000Y9697000D01*
X24290000Y9657000D02*
X19541000Y9657000D01*
X16781000Y9657000D02*
X12032000Y9657000D01*
X24274000Y9617000D02*
X19541000Y9617000D01*
X16781000Y9617000D02*
X12048000Y9617000D01*
X24259000Y9577000D02*
X19541000Y9577000D01*
X16781000Y9577000D02*
X12063000Y9577000D01*
X24243000Y9537000D02*
X19541000Y9537000D01*
X16781000Y9537000D02*
X12079000Y9537000D01*
X24227000Y9497000D02*
X19541000Y9497000D01*
X16781000Y9497000D02*
X12095000Y9497000D01*
X24211000Y9457000D02*
X19541000Y9457000D01*
X16781000Y9457000D02*
X12111000Y9457000D01*
X24194000Y9417000D02*
X19541000Y9417000D01*
X16781000Y9417000D02*
X12128000Y9417000D01*
X24177000Y9377000D02*
X19541000Y9377000D01*
X16781000Y9377000D02*
X12145000Y9377000D01*
X24160000Y9337000D02*
X19541000Y9337000D01*
X16781000Y9337000D02*
X12162000Y9337000D01*
X24142000Y9297000D02*
X19541000Y9297000D01*
X16781000Y9297000D02*
X12180000Y9297000D01*
X24124000Y9257000D02*
X19541000Y9257000D01*
X16781000Y9257000D02*
X12198000Y9257000D01*
X24106000Y9217000D02*
X19541000Y9217000D01*
X16781000Y9217000D02*
X12216000Y9217000D01*
X24087000Y9177000D02*
X19541000Y9177000D01*
X16781000Y9177000D02*
X12235000Y9177000D01*
X24068000Y9137000D02*
X19541000Y9137000D01*
X16781000Y9137000D02*
X12254000Y9137000D01*
X24049000Y9097000D02*
X19541000Y9097000D01*
X16781000Y9097000D02*
X12273000Y9097000D01*
X24029000Y9057000D02*
X19541000Y9057000D01*
X16781000Y9057000D02*
X12293000Y9057000D01*
X24009000Y9017000D02*
X19541000Y9017000D01*
X16781000Y9017000D02*
X12313000Y9017000D01*
X23989000Y8977000D02*
X19541000Y8977000D01*
X16781000Y8977000D02*
X12333000Y8977000D01*
X23968000Y8937000D02*
X19541000Y8937000D01*
X16781000Y8937000D02*
X12354000Y8937000D01*
X23947000Y8897000D02*
X19541000Y8897000D01*
X16781000Y8897000D02*
X12375000Y8897000D01*
X23926000Y8857000D02*
X19541000Y8857000D01*
X16781000Y8857000D02*
X12396000Y8857000D01*
X23904000Y8817000D02*
X19541000Y8817000D01*
X16781000Y8817000D02*
X12418000Y8817000D01*
X23882000Y8777000D02*
X19541000Y8777000D01*
X16781000Y8777000D02*
X12440000Y8777000D01*
X23860000Y8737000D02*
X19541000Y8737000D01*
X16781000Y8737000D02*
X12462000Y8737000D01*
X23837000Y8697000D02*
X19541000Y8697000D01*
X16781000Y8697000D02*
X12485000Y8697000D01*
X23814000Y8657000D02*
X19541000Y8657000D01*
X16781000Y8657000D02*
X12508000Y8657000D01*
X23791000Y8617000D02*
X19541000Y8617000D01*
X16781000Y8617000D02*
X12531000Y8617000D01*
X23767000Y8577000D02*
X19541000Y8577000D01*
X16781000Y8577000D02*
X12555000Y8577000D01*
X23742000Y8537000D02*
X19541000Y8537000D01*
X16781000Y8537000D02*
X12580000Y8537000D01*
X23718000Y8497000D02*
X19541000Y8497000D01*
X16781000Y8497000D02*
X12604000Y8497000D01*
X23693000Y8457000D02*
X19541000Y8457000D01*
X16781000Y8457000D02*
X12629000Y8457000D01*
X23667000Y8417000D02*
X19541000Y8417000D01*
X16781000Y8417000D02*
X12655000Y8417000D01*
X23641000Y8377000D02*
X19541000Y8377000D01*
X16781000Y8377000D02*
X12681000Y8377000D01*
X23615000Y8337000D02*
X19541000Y8337000D01*
X16781000Y8337000D02*
X12707000Y8337000D01*
X23588000Y8297000D02*
X19541000Y8297000D01*
X16781000Y8297000D02*
X12734000Y8297000D01*
X23561000Y8257000D02*
X19541000Y8257000D01*
X16781000Y8257000D02*
X12761000Y8257000D01*
X23534000Y8217000D02*
X19541000Y8217000D01*
X16781000Y8217000D02*
X12788000Y8217000D01*
X23506000Y8177000D02*
X19541000Y8177000D01*
X16781000Y8177000D02*
X12816000Y8177000D01*
X23477000Y8137000D02*
X19541000Y8137000D01*
X16781000Y8137000D02*
X12845000Y8137000D01*
X23448000Y8097000D02*
X12874000Y8097000D01*
X23419000Y8057000D02*
X12903000Y8057000D01*
X23389000Y8017000D02*
X12933000Y8017000D01*
X23359000Y7977000D02*
X12963000Y7977000D01*
X23328000Y7937000D02*
X12994000Y7937000D01*
X23297000Y7897000D02*
X13025000Y7897000D01*
X23265000Y7857000D02*
X13057000Y7857000D01*
X23233000Y7817000D02*
X13089000Y7817000D01*
X23200000Y7777000D02*
X13122000Y7777000D01*
X23166000Y7737000D02*
X13156000Y7737000D01*
X23132000Y7697000D02*
X13190000Y7697000D01*
X23098000Y7657000D02*
X13224000Y7657000D01*
X23063000Y7617000D02*
X13259000Y7617000D01*
X23027000Y7577000D02*
X13295000Y7577000D01*
X22991000Y7537000D02*
X13331000Y7537000D01*
X22954000Y7497000D02*
X13368000Y7497000D01*
X22917000Y7457000D02*
X13405000Y7457000D01*
X22879000Y7417000D02*
X13443000Y7417000D01*
X22840000Y7377000D02*
X13482000Y7377000D01*
X22801000Y7337000D02*
X13521000Y7337000D01*
X22761000Y7297000D02*
X13561000Y7297000D01*
X22720000Y7257000D02*
X13602000Y7257000D01*
X22679000Y7217000D02*
X13643000Y7217000D01*
X22637000Y7177000D02*
X13685000Y7177000D01*
X22594000Y7137000D02*
X13728000Y7137000D01*
X22550000Y7097000D02*
X13772000Y7097000D01*
X22506000Y7057000D02*
X13816000Y7057000D01*
X22460000Y7017000D02*
X13862000Y7017000D01*
X22414000Y6977000D02*
X13908000Y6977000D01*
X22367000Y6937000D02*
X13955000Y6937000D01*
X22319000Y6897000D02*
X14003000Y6897000D01*
X22270000Y6857000D02*
X14052000Y6857000D01*
X22221000Y6817000D02*
X14101000Y6817000D01*
X22170000Y6777000D02*
X14152000Y6777000D01*
X22118000Y6737000D02*
X14204000Y6737000D01*
X22065000Y6697000D02*
X14257000Y6697000D01*
X22011000Y6657000D02*
X14311000Y6657000D01*
X21955000Y6617000D02*
X14367000Y6617000D01*
X21899000Y6577000D02*
X14423000Y6577000D01*
X21841000Y6537000D02*
X14481000Y6537000D01*
X21782000Y6497000D02*
X14540000Y6497000D01*
X21721000Y6457000D02*
X14601000Y6457000D01*
X21659000Y6417000D02*
X14663000Y6417000D01*
X21595000Y6377000D02*
X14727000Y6377000D01*
X21530000Y6337000D02*
X14792000Y6337000D01*
X21463000Y6297000D02*
X14859000Y6297000D01*
X21394000Y6257000D02*
X14928000Y6257000D01*
X21323000Y6217000D02*
X14999000Y6217000D01*
X21250000Y6177000D02*
X15072000Y6177000D01*
X21175000Y6137000D02*
X15147000Y6137000D01*
X21097000Y6097000D02*
X15225000Y6097000D01*
X21017000Y6057000D02*
X15305000Y6057000D01*
X20933000Y6017000D02*
X15389000Y6017000D01*
X20847000Y5977000D02*
X15475000Y5977000D01*
X20757000Y5937000D02*
X15565000Y5937000D01*
X20663000Y5897000D02*
X15659000Y5897000D01*
X20566000Y5857000D02*
X15756000Y5857000D01*
X20463000Y5817000D02*
X15859000Y5817000D01*
X20355000Y5777000D02*
X15967000Y5777000D01*
X20241000Y5737000D02*
X16081000Y5737000D01*
X20119000Y5697000D02*
X16203000Y5697000D01*
X19989000Y5657000D02*
X16333000Y5657000D01*
X19847000Y5617000D02*
X16475000Y5617000D01*
X19693000Y5577000D02*
X16629000Y5577000D01*
X19520000Y5537000D02*
X16802000Y5537000D01*
X19321000Y5497000D02*
X17001000Y5497000D01*
X19079000Y5457000D02*
X17243000Y5457000D01*
X18750000Y5417000D02*
X17572000Y5417000D01*
X18161000Y17678000D02*
X18161000Y15878000D01*
X19061000Y16778000D02*
X17261000Y16778000D01*
X38086000Y11978000D02*
G75*
G03X38086000Y11978000I-6590000J0D01*
G01*
X38046000Y11978000D02*
X24946000Y11978000D01*
X38046000Y11938000D02*
X24946000Y11938000D01*
X38046000Y11898000D02*
X24946000Y11898000D01*
X38045000Y11858000D02*
X24947000Y11858000D01*
X38045000Y11818000D02*
X24947000Y11818000D01*
X38043000Y11778000D02*
X24949000Y11778000D01*
X38042000Y11738000D02*
X24950000Y11738000D01*
X38041000Y11698000D02*
X24951000Y11698000D01*
X38039000Y11658000D02*
X24953000Y11658000D01*
X38037000Y11618000D02*
X24955000Y11618000D01*
X38034000Y11578000D02*
X24958000Y11578000D01*
X38032000Y11538000D02*
X24960000Y11538000D01*
X38029000Y11498000D02*
X24963000Y11498000D01*
X38026000Y11458000D02*
X24966000Y11458000D01*
X38023000Y11418000D02*
X24969000Y11418000D01*
X38019000Y11378000D02*
X24973000Y11378000D01*
X38015000Y11338000D02*
X24977000Y11338000D01*
X38011000Y11298000D02*
X24981000Y11298000D01*
X38007000Y11257000D02*
X24985000Y11257000D01*
X38003000Y11217000D02*
X24989000Y11217000D01*
X37998000Y11177000D02*
X24994000Y11177000D01*
X37993000Y11137000D02*
X24999000Y11137000D01*
X37987000Y11097000D02*
X25005000Y11097000D01*
X37982000Y11057000D02*
X25010000Y11057000D01*
X37976000Y11017000D02*
X25016000Y11017000D01*
X37970000Y10977000D02*
X25022000Y10977000D01*
X37964000Y10937000D02*
X25028000Y10937000D01*
X37957000Y10897000D02*
X25035000Y10897000D01*
X37951000Y10857000D02*
X32876000Y10857000D01*
X30116000Y10857000D02*
X25041000Y10857000D01*
X37944000Y10817000D02*
X32876000Y10817000D01*
X30116000Y10817000D02*
X25048000Y10817000D01*
X37936000Y10777000D02*
X32876000Y10777000D01*
X30116000Y10777000D02*
X25056000Y10777000D01*
X37929000Y10737000D02*
X32876000Y10737000D01*
X30116000Y10737000D02*
X25063000Y10737000D01*
X37921000Y10697000D02*
X32876000Y10697000D01*
X30116000Y10697000D02*
X25071000Y10697000D01*
X37913000Y10657000D02*
X32876000Y10657000D01*
X30116000Y10657000D02*
X25079000Y10657000D01*
X37905000Y10617000D02*
X32876000Y10617000D01*
X30116000Y10617000D02*
X25087000Y10617000D01*
X37896000Y10577000D02*
X32876000Y10577000D01*
X30116000Y10577000D02*
X25096000Y10577000D01*
X37887000Y10537000D02*
X32876000Y10537000D01*
X30116000Y10537000D02*
X25105000Y10537000D01*
X37878000Y10497000D02*
X32876000Y10497000D01*
X30116000Y10497000D02*
X25114000Y10497000D01*
X37869000Y10457000D02*
X32876000Y10457000D01*
X30116000Y10457000D02*
X25123000Y10457000D01*
X37859000Y10417000D02*
X32876000Y10417000D01*
X30116000Y10417000D02*
X25133000Y10417000D01*
X37849000Y10377000D02*
X32876000Y10377000D01*
X30116000Y10377000D02*
X25143000Y10377000D01*
X37839000Y10337000D02*
X32876000Y10337000D01*
X30116000Y10337000D02*
X25153000Y10337000D01*
X37829000Y10297000D02*
X32876000Y10297000D01*
X30116000Y10297000D02*
X25163000Y10297000D01*
X37818000Y10257000D02*
X32876000Y10257000D01*
X30116000Y10257000D02*
X25174000Y10257000D01*
X37807000Y10217000D02*
X32876000Y10217000D01*
X30116000Y10217000D02*
X25185000Y10217000D01*
X37796000Y10177000D02*
X32876000Y10177000D01*
X30116000Y10177000D02*
X25196000Y10177000D01*
X37784000Y10137000D02*
X32876000Y10137000D01*
X30116000Y10137000D02*
X25208000Y10137000D01*
X37773000Y10097000D02*
X32876000Y10097000D01*
X30116000Y10097000D02*
X25219000Y10097000D01*
X37761000Y10057000D02*
X32876000Y10057000D01*
X30116000Y10057000D02*
X25231000Y10057000D01*
X37748000Y10017000D02*
X32876000Y10017000D01*
X30116000Y10017000D02*
X25244000Y10017000D01*
X37736000Y9977000D02*
X32876000Y9977000D01*
X30116000Y9977000D02*
X25256000Y9977000D01*
X37723000Y9937000D02*
X32876000Y9937000D01*
X30116000Y9937000D02*
X25269000Y9937000D01*
X37710000Y9897000D02*
X32876000Y9897000D01*
X30116000Y9897000D02*
X25282000Y9897000D01*
X37696000Y9857000D02*
X32876000Y9857000D01*
X30116000Y9857000D02*
X25296000Y9857000D01*
X37682000Y9817000D02*
X32876000Y9817000D01*
X30116000Y9817000D02*
X25310000Y9817000D01*
X37668000Y9777000D02*
X32876000Y9777000D01*
X30116000Y9777000D02*
X25324000Y9777000D01*
X37654000Y9737000D02*
X32876000Y9737000D01*
X30116000Y9737000D02*
X25338000Y9737000D01*
X37640000Y9697000D02*
X32876000Y9697000D01*
X30116000Y9697000D02*
X25352000Y9697000D01*
X37625000Y9657000D02*
X32876000Y9657000D01*
X30116000Y9657000D02*
X25367000Y9657000D01*
X37609000Y9617000D02*
X32876000Y9617000D01*
X30116000Y9617000D02*
X25383000Y9617000D01*
X37594000Y9577000D02*
X32876000Y9577000D01*
X30116000Y9577000D02*
X25398000Y9577000D01*
X37578000Y9537000D02*
X32876000Y9537000D01*
X30116000Y9537000D02*
X25414000Y9537000D01*
X37562000Y9497000D02*
X32876000Y9497000D01*
X30116000Y9497000D02*
X25430000Y9497000D01*
X37546000Y9457000D02*
X32876000Y9457000D01*
X30116000Y9457000D02*
X25446000Y9457000D01*
X37529000Y9417000D02*
X32876000Y9417000D01*
X30116000Y9417000D02*
X25463000Y9417000D01*
X37512000Y9377000D02*
X32876000Y9377000D01*
X30116000Y9377000D02*
X25480000Y9377000D01*
X37495000Y9337000D02*
X32876000Y9337000D01*
X30116000Y9337000D02*
X25497000Y9337000D01*
X37477000Y9297000D02*
X32876000Y9297000D01*
X30116000Y9297000D02*
X25515000Y9297000D01*
X37459000Y9257000D02*
X32876000Y9257000D01*
X30116000Y9257000D02*
X25533000Y9257000D01*
X37441000Y9217000D02*
X32876000Y9217000D01*
X30116000Y9217000D02*
X25551000Y9217000D01*
X37422000Y9177000D02*
X32876000Y9177000D01*
X30116000Y9177000D02*
X25570000Y9177000D01*
X37403000Y9137000D02*
X32876000Y9137000D01*
X30116000Y9137000D02*
X25589000Y9137000D01*
X37384000Y9097000D02*
X32876000Y9097000D01*
X30116000Y9097000D02*
X25608000Y9097000D01*
X37364000Y9057000D02*
X32876000Y9057000D01*
X30116000Y9057000D02*
X25628000Y9057000D01*
X37344000Y9017000D02*
X32876000Y9017000D01*
X30116000Y9017000D02*
X25648000Y9017000D01*
X37324000Y8977000D02*
X32876000Y8977000D01*
X30116000Y8977000D02*
X25668000Y8977000D01*
X37303000Y8937000D02*
X32876000Y8937000D01*
X30116000Y8937000D02*
X25689000Y8937000D01*
X37282000Y8897000D02*
X32876000Y8897000D01*
X30116000Y8897000D02*
X25710000Y8897000D01*
X37261000Y8857000D02*
X32876000Y8857000D01*
X30116000Y8857000D02*
X25731000Y8857000D01*
X37239000Y8817000D02*
X32876000Y8817000D01*
X30116000Y8817000D02*
X25753000Y8817000D01*
X37217000Y8777000D02*
X32876000Y8777000D01*
X30116000Y8777000D02*
X25775000Y8777000D01*
X37195000Y8737000D02*
X32876000Y8737000D01*
X30116000Y8737000D02*
X25797000Y8737000D01*
X37172000Y8697000D02*
X32876000Y8697000D01*
X30116000Y8697000D02*
X25820000Y8697000D01*
X37149000Y8657000D02*
X32876000Y8657000D01*
X30116000Y8657000D02*
X25843000Y8657000D01*
X37126000Y8617000D02*
X32876000Y8617000D01*
X30116000Y8617000D02*
X25866000Y8617000D01*
X37102000Y8577000D02*
X32876000Y8577000D01*
X30116000Y8577000D02*
X25890000Y8577000D01*
X37077000Y8537000D02*
X32876000Y8537000D01*
X30116000Y8537000D02*
X25915000Y8537000D01*
X37053000Y8497000D02*
X32876000Y8497000D01*
X30116000Y8497000D02*
X25939000Y8497000D01*
X37028000Y8457000D02*
X32876000Y8457000D01*
X30116000Y8457000D02*
X25964000Y8457000D01*
X37002000Y8417000D02*
X32876000Y8417000D01*
X30116000Y8417000D02*
X25990000Y8417000D01*
X36976000Y8377000D02*
X32876000Y8377000D01*
X30116000Y8377000D02*
X26016000Y8377000D01*
X36950000Y8337000D02*
X32876000Y8337000D01*
X30116000Y8337000D02*
X26042000Y8337000D01*
X36923000Y8297000D02*
X32876000Y8297000D01*
X30116000Y8297000D02*
X26069000Y8297000D01*
X36896000Y8257000D02*
X32876000Y8257000D01*
X30116000Y8257000D02*
X26096000Y8257000D01*
X36869000Y8217000D02*
X32876000Y8217000D01*
X30116000Y8217000D02*
X26123000Y8217000D01*
X36841000Y8177000D02*
X32876000Y8177000D01*
X30116000Y8177000D02*
X26151000Y8177000D01*
X36812000Y8137000D02*
X32876000Y8137000D01*
X30116000Y8137000D02*
X26180000Y8137000D01*
X36783000Y8097000D02*
X26209000Y8097000D01*
X36754000Y8057000D02*
X26238000Y8057000D01*
X36724000Y8017000D02*
X26268000Y8017000D01*
X36694000Y7977000D02*
X26298000Y7977000D01*
X36663000Y7937000D02*
X26329000Y7937000D01*
X36632000Y7897000D02*
X26360000Y7897000D01*
X36600000Y7857000D02*
X26392000Y7857000D01*
X36568000Y7817000D02*
X26424000Y7817000D01*
X36535000Y7777000D02*
X26457000Y7777000D01*
X36501000Y7737000D02*
X26491000Y7737000D01*
X36467000Y7697000D02*
X26525000Y7697000D01*
X36433000Y7657000D02*
X26559000Y7657000D01*
X36398000Y7617000D02*
X26594000Y7617000D01*
X36362000Y7577000D02*
X26630000Y7577000D01*
X36326000Y7537000D02*
X26666000Y7537000D01*
X36289000Y7497000D02*
X26703000Y7497000D01*
X36252000Y7457000D02*
X26740000Y7457000D01*
X36214000Y7417000D02*
X26778000Y7417000D01*
X36175000Y7377000D02*
X26817000Y7377000D01*
X36136000Y7337000D02*
X26856000Y7337000D01*
X36096000Y7297000D02*
X26896000Y7297000D01*
X36055000Y7257000D02*
X26937000Y7257000D01*
X36014000Y7217000D02*
X26978000Y7217000D01*
X35972000Y7177000D02*
X27020000Y7177000D01*
X35929000Y7137000D02*
X27063000Y7137000D01*
X35885000Y7097000D02*
X27107000Y7097000D01*
X35841000Y7057000D02*
X27151000Y7057000D01*
X35795000Y7017000D02*
X27197000Y7017000D01*
X35749000Y6977000D02*
X27243000Y6977000D01*
X35702000Y6937000D02*
X27290000Y6937000D01*
X35654000Y6897000D02*
X27338000Y6897000D01*
X35605000Y6857000D02*
X27387000Y6857000D01*
X35556000Y6817000D02*
X27436000Y6817000D01*
X35505000Y6777000D02*
X27487000Y6777000D01*
X35453000Y6737000D02*
X27539000Y6737000D01*
X35400000Y6697000D02*
X27592000Y6697000D01*
X35346000Y6657000D02*
X27646000Y6657000D01*
X35290000Y6617000D02*
X27702000Y6617000D01*
X35234000Y6577000D02*
X27758000Y6577000D01*
X35176000Y6537000D02*
X27816000Y6537000D01*
X35117000Y6497000D02*
X27875000Y6497000D01*
X35056000Y6457000D02*
X27936000Y6457000D01*
X34994000Y6417000D02*
X27998000Y6417000D01*
X34930000Y6377000D02*
X28062000Y6377000D01*
X34865000Y6337000D02*
X28127000Y6337000D01*
X34798000Y6297000D02*
X28194000Y6297000D01*
X34729000Y6257000D02*
X28263000Y6257000D01*
X34658000Y6217000D02*
X28334000Y6217000D01*
X34585000Y6177000D02*
X28407000Y6177000D01*
X34510000Y6137000D02*
X28482000Y6137000D01*
X34432000Y6097000D02*
X28560000Y6097000D01*
X34352000Y6057000D02*
X28640000Y6057000D01*
X34268000Y6017000D02*
X28724000Y6017000D01*
X34182000Y5977000D02*
X28810000Y5977000D01*
X34092000Y5937000D02*
X28900000Y5937000D01*
X33998000Y5897000D02*
X28994000Y5897000D01*
X33901000Y5857000D02*
X29091000Y5857000D01*
X33798000Y5817000D02*
X29194000Y5817000D01*
X33690000Y5777000D02*
X29302000Y5777000D01*
X33576000Y5737000D02*
X29416000Y5737000D01*
X33454000Y5697000D02*
X29538000Y5697000D01*
X33324000Y5657000D02*
X29668000Y5657000D01*
X33182000Y5617000D02*
X29810000Y5617000D01*
X33028000Y5577000D02*
X29964000Y5577000D01*
X32855000Y5537000D02*
X30137000Y5537000D01*
X32656000Y5497000D02*
X30336000Y5497000D01*
X32414000Y5457000D02*
X30578000Y5457000D01*
X32085000Y5417000D02*
X30907000Y5417000D01*
X31496000Y17678000D02*
X31496000Y15878000D01*
X32396000Y16778000D02*
X30596000Y16778000D01*
D12*
X58666143Y45073357D02*
X58618524Y45025738D01*
X58475667Y44978119D01*
X58380429Y44978119D01*
X58237571Y45025738D01*
X58142333Y45120976D01*
X58094714Y45216214D01*
X58047095Y45406690D01*
X58047095Y45549548D01*
X58094714Y45740024D01*
X58142333Y45835262D01*
X58237571Y45930500D01*
X58380429Y45978119D01*
X58475667Y45978119D01*
X58618524Y45930500D01*
X58666143Y45882881D01*
X59618524Y44978119D02*
X59047095Y44978119D01*
X59332809Y44978119D02*
X59332809Y45978119D01*
X59237571Y45835262D01*
X59142333Y45740024D01*
X59047095Y45692405D01*
X60189952Y45549548D02*
X60094714Y45597167D01*
X60047095Y45644786D01*
X59999476Y45740024D01*
X59999476Y45787643D01*
X60047095Y45882881D01*
X60094714Y45930500D01*
X60189952Y45978119D01*
X60380429Y45978119D01*
X60475667Y45930500D01*
X60523286Y45882881D01*
X60570905Y45787643D01*
X60570905Y45740024D01*
X60523286Y45644786D01*
X60475667Y45597167D01*
X60380429Y45549548D01*
X60189952Y45549548D01*
X60094714Y45501929D01*
X60047095Y45454310D01*
X59999476Y45359071D01*
X59999476Y45168595D01*
X60047095Y45073357D01*
X60094714Y45025738D01*
X60189952Y44978119D01*
X60380429Y44978119D01*
X60475667Y45025738D01*
X60523286Y45073357D01*
X60570905Y45168595D01*
X60570905Y45359071D01*
X60523286Y45454310D01*
X60475667Y45501929D01*
X60380429Y45549548D01*
X42997381Y58126405D02*
X41997381Y58126405D01*
X41997381Y58364500D01*
X42045000Y58507358D01*
X42140238Y58602596D01*
X42235476Y58650215D01*
X42425952Y58697834D01*
X42568810Y58697834D01*
X42759286Y58650215D01*
X42854524Y58602596D01*
X42949762Y58507358D01*
X42997381Y58364500D01*
X42997381Y58126405D01*
X42997381Y59650215D02*
X42997381Y59078786D01*
X42997381Y59364500D02*
X41997381Y59364500D01*
X42140238Y59269262D01*
X42235476Y59174024D01*
X42283095Y59078786D01*
X19760143Y52157334D02*
X19807762Y52109715D01*
X19855381Y51966858D01*
X19855381Y51871620D01*
X19807762Y51728762D01*
X19712524Y51633524D01*
X19617286Y51585905D01*
X19426810Y51538286D01*
X19283952Y51538286D01*
X19093476Y51585905D01*
X18998238Y51633524D01*
X18903000Y51728762D01*
X18855381Y51871620D01*
X18855381Y51966858D01*
X18903000Y52109715D01*
X18950619Y52157334D01*
X18950619Y52538286D02*
X18903000Y52585905D01*
X18855381Y52681143D01*
X18855381Y52919239D01*
X18903000Y53014477D01*
X18950619Y53062096D01*
X19045857Y53109715D01*
X19141095Y53109715D01*
X19283952Y53062096D01*
X19855381Y52490667D01*
X19855381Y53109715D01*
X27027143Y24598334D02*
X27074762Y24550715D01*
X27122381Y24407858D01*
X27122381Y24312620D01*
X27074762Y24169762D01*
X26979524Y24074524D01*
X26884286Y24026905D01*
X26693810Y23979286D01*
X26550952Y23979286D01*
X26360476Y24026905D01*
X26265238Y24074524D01*
X26170000Y24169762D01*
X26122381Y24312620D01*
X26122381Y24407858D01*
X26170000Y24550715D01*
X26217619Y24598334D01*
X26455714Y25455477D02*
X27122381Y25455477D01*
X26074762Y25217381D02*
X26789048Y24979286D01*
X26789048Y25598334D01*
X28805143Y24725334D02*
X28852762Y24677715D01*
X28900381Y24534858D01*
X28900381Y24439620D01*
X28852762Y24296762D01*
X28757524Y24201524D01*
X28662286Y24153905D01*
X28471810Y24106286D01*
X28328952Y24106286D01*
X28138476Y24153905D01*
X28043238Y24201524D01*
X27948000Y24296762D01*
X27900381Y24439620D01*
X27900381Y24534858D01*
X27948000Y24677715D01*
X27995619Y24725334D01*
X27900381Y25630096D02*
X27900381Y25153905D01*
X28376571Y25106286D01*
X28328952Y25153905D01*
X28281333Y25249143D01*
X28281333Y25487239D01*
X28328952Y25582477D01*
X28376571Y25630096D01*
X28471810Y25677715D01*
X28709905Y25677715D01*
X28805143Y25630096D01*
X28852762Y25582477D01*
X28900381Y25487239D01*
X28900381Y25249143D01*
X28852762Y25153905D01*
X28805143Y25106286D01*
X31726143Y51712834D02*
X31773762Y51665215D01*
X31821381Y51522358D01*
X31821381Y51427120D01*
X31773762Y51284262D01*
X31678524Y51189024D01*
X31583286Y51141405D01*
X31392810Y51093786D01*
X31249952Y51093786D01*
X31059476Y51141405D01*
X30964238Y51189024D01*
X30869000Y51284262D01*
X30821381Y51427120D01*
X30821381Y51522358D01*
X30869000Y51665215D01*
X30916619Y51712834D01*
X30821381Y52569977D02*
X30821381Y52379500D01*
X30869000Y52284262D01*
X30916619Y52236643D01*
X31059476Y52141405D01*
X31249952Y52093786D01*
X31630905Y52093786D01*
X31726143Y52141405D01*
X31773762Y52189024D01*
X31821381Y52284262D01*
X31821381Y52474739D01*
X31773762Y52569977D01*
X31726143Y52617596D01*
X31630905Y52665215D01*
X31392810Y52665215D01*
X31297571Y52617596D01*
X31249952Y52569977D01*
X31202333Y52474739D01*
X31202333Y52284262D01*
X31249952Y52189024D01*
X31297571Y52141405D01*
X31392810Y52093786D01*
X30773643Y24725334D02*
X30821262Y24677715D01*
X30868881Y24534858D01*
X30868881Y24439620D01*
X30821262Y24296762D01*
X30726024Y24201524D01*
X30630786Y24153905D01*
X30440310Y24106286D01*
X30297452Y24106286D01*
X30106976Y24153905D01*
X30011738Y24201524D01*
X29916500Y24296762D01*
X29868881Y24439620D01*
X29868881Y24534858D01*
X29916500Y24677715D01*
X29964119Y24725334D01*
X29868881Y25058667D02*
X29868881Y25725334D01*
X30868881Y25296762D01*
X33948643Y51649334D02*
X33996262Y51601715D01*
X34043881Y51458858D01*
X34043881Y51363620D01*
X33996262Y51220762D01*
X33901024Y51125524D01*
X33805786Y51077905D01*
X33615310Y51030286D01*
X33472452Y51030286D01*
X33281976Y51077905D01*
X33186738Y51125524D01*
X33091500Y51220762D01*
X33043881Y51363620D01*
X33043881Y51458858D01*
X33091500Y51601715D01*
X33139119Y51649334D01*
X34043881Y52125524D02*
X34043881Y52316000D01*
X33996262Y52411239D01*
X33948643Y52458858D01*
X33805786Y52554096D01*
X33615310Y52601715D01*
X33234357Y52601715D01*
X33139119Y52554096D01*
X33091500Y52506477D01*
X33043881Y52411239D01*
X33043881Y52220762D01*
X33091500Y52125524D01*
X33139119Y52077905D01*
X33234357Y52030286D01*
X33472452Y52030286D01*
X33567690Y52077905D01*
X33615310Y52125524D01*
X33662929Y52220762D01*
X33662929Y52411239D01*
X33615310Y52506477D01*
X33567690Y52554096D01*
X33472452Y52601715D01*
X33964643Y22375857D02*
X33917024Y22328238D01*
X33774167Y22280619D01*
X33678929Y22280619D01*
X33536071Y22328238D01*
X33440833Y22423476D01*
X33393214Y22518714D01*
X33345595Y22709190D01*
X33345595Y22852048D01*
X33393214Y23042524D01*
X33440833Y23137762D01*
X33536071Y23233000D01*
X33678929Y23280619D01*
X33774167Y23280619D01*
X33917024Y23233000D01*
X33964643Y23185381D01*
X34917024Y22280619D02*
X34345595Y22280619D01*
X34631309Y22280619D02*
X34631309Y23280619D01*
X34536071Y23137762D01*
X34440833Y23042524D01*
X34345595Y22994905D01*
X35536071Y23280619D02*
X35631310Y23280619D01*
X35726548Y23233000D01*
X35774167Y23185381D01*
X35821786Y23090143D01*
X35869405Y22899667D01*
X35869405Y22661571D01*
X35821786Y22471095D01*
X35774167Y22375857D01*
X35726548Y22328238D01*
X35631310Y22280619D01*
X35536071Y22280619D01*
X35440833Y22328238D01*
X35393214Y22375857D01*
X35345595Y22471095D01*
X35297976Y22661571D01*
X35297976Y22899667D01*
X35345595Y23090143D01*
X35393214Y23185381D01*
X35440833Y23233000D01*
X35536071Y23280619D01*
X38429143Y32123143D02*
X38476762Y32075524D01*
X38524381Y31932667D01*
X38524381Y31837429D01*
X38476762Y31694571D01*
X38381524Y31599333D01*
X38286286Y31551714D01*
X38095810Y31504095D01*
X37952952Y31504095D01*
X37762476Y31551714D01*
X37667238Y31599333D01*
X37572000Y31694571D01*
X37524381Y31837429D01*
X37524381Y31932667D01*
X37572000Y32075524D01*
X37619619Y32123143D01*
X38524381Y33075524D02*
X38524381Y32504095D01*
X38524381Y32789809D02*
X37524381Y32789809D01*
X37667238Y32694571D01*
X37762476Y32599333D01*
X37810095Y32504095D01*
X38524381Y34027905D02*
X38524381Y33456476D01*
X38524381Y33742190D02*
X37524381Y33742190D01*
X37667238Y33646952D01*
X37762476Y33551714D01*
X37810095Y33456476D01*
X40489143Y55999143D02*
X40536762Y55951524D01*
X40584381Y55808667D01*
X40584381Y55713429D01*
X40536762Y55570571D01*
X40441524Y55475333D01*
X40346286Y55427714D01*
X40155810Y55380095D01*
X40012952Y55380095D01*
X39822476Y55427714D01*
X39727238Y55475333D01*
X39632000Y55570571D01*
X39584381Y55713429D01*
X39584381Y55808667D01*
X39632000Y55951524D01*
X39679619Y55999143D01*
X40584381Y56951524D02*
X40584381Y56380095D01*
X40584381Y56665809D02*
X39584381Y56665809D01*
X39727238Y56570571D01*
X39822476Y56475333D01*
X39870095Y56380095D01*
X39584381Y57808667D02*
X39584381Y57618190D01*
X39632000Y57522952D01*
X39679619Y57475333D01*
X39822476Y57380095D01*
X40012952Y57332476D01*
X40393905Y57332476D01*
X40489143Y57380095D01*
X40536762Y57427714D01*
X40584381Y57522952D01*
X40584381Y57713429D01*
X40536762Y57808667D01*
X40489143Y57856286D01*
X40393905Y57903905D01*
X40155810Y57903905D01*
X40060571Y57856286D01*
X40012952Y57808667D01*
X39965333Y57713429D01*
X39965333Y57522952D01*
X40012952Y57427714D01*
X40060571Y57380095D01*
X40155810Y57332476D01*
X52951143Y45045357D02*
X52903524Y44997738D01*
X52760667Y44950119D01*
X52665429Y44950119D01*
X52522571Y44997738D01*
X52427333Y45092976D01*
X52379714Y45188214D01*
X52332095Y45378690D01*
X52332095Y45521548D01*
X52379714Y45712024D01*
X52427333Y45807262D01*
X52522571Y45902500D01*
X52665429Y45950119D01*
X52760667Y45950119D01*
X52903524Y45902500D01*
X52951143Y45854881D01*
X53903524Y44950119D02*
X53332095Y44950119D01*
X53617809Y44950119D02*
X53617809Y45950119D01*
X53522571Y45807262D01*
X53427333Y45712024D01*
X53332095Y45664405D01*
X54236857Y45950119D02*
X54903524Y45950119D01*
X54474952Y44950119D01*
X58602643Y27928357D02*
X58555024Y27880738D01*
X58412167Y27833119D01*
X58316929Y27833119D01*
X58174071Y27880738D01*
X58078833Y27975976D01*
X58031214Y28071214D01*
X57983595Y28261690D01*
X57983595Y28404548D01*
X58031214Y28595024D01*
X58078833Y28690262D01*
X58174071Y28785500D01*
X58316929Y28833119D01*
X58412167Y28833119D01*
X58555024Y28785500D01*
X58602643Y28737881D01*
X59555024Y27833119D02*
X58983595Y27833119D01*
X59269309Y27833119D02*
X59269309Y28833119D01*
X59174071Y28690262D01*
X59078833Y28595024D01*
X58983595Y28547405D01*
X60031214Y27833119D02*
X60221690Y27833119D01*
X60316929Y27880738D01*
X60364548Y27928357D01*
X60459786Y28071214D01*
X60507405Y28261690D01*
X60507405Y28642643D01*
X60459786Y28737881D01*
X60412167Y28785500D01*
X60316929Y28833119D01*
X60126452Y28833119D01*
X60031214Y28785500D01*
X59983595Y28737881D01*
X59935976Y28642643D01*
X59935976Y28404548D01*
X59983595Y28309310D01*
X60031214Y28261690D01*
X60126452Y28214071D01*
X60316929Y28214071D01*
X60412167Y28261690D01*
X60459786Y28309310D01*
X60507405Y28404548D01*
X58729643Y11037357D02*
X58682024Y10989738D01*
X58539167Y10942119D01*
X58443929Y10942119D01*
X58301071Y10989738D01*
X58205833Y11084976D01*
X58158214Y11180214D01*
X58110595Y11370690D01*
X58110595Y11513548D01*
X58158214Y11704024D01*
X58205833Y11799262D01*
X58301071Y11894500D01*
X58443929Y11942119D01*
X58539167Y11942119D01*
X58682024Y11894500D01*
X58729643Y11846881D01*
X59110595Y11846881D02*
X59158214Y11894500D01*
X59253452Y11942119D01*
X59491548Y11942119D01*
X59586786Y11894500D01*
X59634405Y11846881D01*
X59682024Y11751643D01*
X59682024Y11656405D01*
X59634405Y11513548D01*
X59062976Y10942119D01*
X59682024Y10942119D01*
X60301071Y11942119D02*
X60396310Y11942119D01*
X60491548Y11894500D01*
X60539167Y11846881D01*
X60586786Y11751643D01*
X60634405Y11561167D01*
X60634405Y11323071D01*
X60586786Y11132595D01*
X60539167Y11037357D01*
X60491548Y10989738D01*
X60396310Y10942119D01*
X60301071Y10942119D01*
X60205833Y10989738D01*
X60158214Y11037357D01*
X60110595Y11132595D01*
X60062976Y11323071D01*
X60062976Y11561167D01*
X60110595Y11751643D01*
X60158214Y11846881D01*
X60205833Y11894500D01*
X60301071Y11942119D01*
X39600143Y15803643D02*
X39647762Y15756024D01*
X39695381Y15613167D01*
X39695381Y15517929D01*
X39647762Y15375071D01*
X39552524Y15279833D01*
X39457286Y15232214D01*
X39266810Y15184595D01*
X39123952Y15184595D01*
X38933476Y15232214D01*
X38838238Y15279833D01*
X38743000Y15375071D01*
X38695381Y15517929D01*
X38695381Y15613167D01*
X38743000Y15756024D01*
X38790619Y15803643D01*
X38790619Y16184595D02*
X38743000Y16232214D01*
X38695381Y16327452D01*
X38695381Y16565548D01*
X38743000Y16660786D01*
X38790619Y16708405D01*
X38885857Y16756024D01*
X38981095Y16756024D01*
X39123952Y16708405D01*
X39695381Y16136976D01*
X39695381Y16756024D01*
X39695381Y17708405D02*
X39695381Y17136976D01*
X39695381Y17422690D02*
X38695381Y17422690D01*
X38838238Y17327452D01*
X38933476Y17232214D01*
X38981095Y17136976D01*
X39790643Y21963143D02*
X39838262Y21915524D01*
X39885881Y21772667D01*
X39885881Y21677429D01*
X39838262Y21534571D01*
X39743024Y21439333D01*
X39647786Y21391714D01*
X39457310Y21344095D01*
X39314452Y21344095D01*
X39123976Y21391714D01*
X39028738Y21439333D01*
X38933500Y21534571D01*
X38885881Y21677429D01*
X38885881Y21772667D01*
X38933500Y21915524D01*
X38981119Y21963143D01*
X38981119Y22344095D02*
X38933500Y22391714D01*
X38885881Y22486952D01*
X38885881Y22725048D01*
X38933500Y22820286D01*
X38981119Y22867905D01*
X39076357Y22915524D01*
X39171595Y22915524D01*
X39314452Y22867905D01*
X39885881Y22296476D01*
X39885881Y22915524D01*
X38981119Y23296476D02*
X38933500Y23344095D01*
X38885881Y23439333D01*
X38885881Y23677429D01*
X38933500Y23772667D01*
X38981119Y23820286D01*
X39076357Y23867905D01*
X39171595Y23867905D01*
X39314452Y23820286D01*
X39885881Y23248857D01*
X39885881Y23867905D01*
X46791643Y51522357D02*
X46744024Y51474738D01*
X46601167Y51427119D01*
X46505929Y51427119D01*
X46363071Y51474738D01*
X46267833Y51569976D01*
X46220214Y51665214D01*
X46172595Y51855690D01*
X46172595Y51998548D01*
X46220214Y52189024D01*
X46267833Y52284262D01*
X46363071Y52379500D01*
X46505929Y52427119D01*
X46601167Y52427119D01*
X46744024Y52379500D01*
X46791643Y52331881D01*
X47172595Y52331881D02*
X47220214Y52379500D01*
X47315452Y52427119D01*
X47553548Y52427119D01*
X47648786Y52379500D01*
X47696405Y52331881D01*
X47744024Y52236643D01*
X47744024Y52141405D01*
X47696405Y51998548D01*
X47124976Y51427119D01*
X47744024Y51427119D01*
X48601167Y52093786D02*
X48601167Y51427119D01*
X48363071Y52474738D02*
X48124976Y51760452D01*
X48744024Y51760452D01*
X52730548Y52749571D02*
X53492453Y52749571D01*
X53111501Y52368619D02*
X53111501Y53130524D01*
X32916905Y56403619D02*
X32916905Y57403619D01*
X33155000Y57403619D01*
X33297858Y57356000D01*
X33393096Y57260762D01*
X33440715Y57165524D01*
X33488334Y56975048D01*
X33488334Y56832190D01*
X33440715Y56641714D01*
X33393096Y56546476D01*
X33297858Y56451238D01*
X33155000Y56403619D01*
X32916905Y56403619D01*
X33869286Y57308381D02*
X33916905Y57356000D01*
X34012143Y57403619D01*
X34250239Y57403619D01*
X34345477Y57356000D01*
X34393096Y57308381D01*
X34440715Y57213143D01*
X34440715Y57117905D01*
X34393096Y56975048D01*
X33821667Y56403619D01*
X34440715Y56403619D01*
X2587667Y22855619D02*
X2587667Y22141333D01*
X2540047Y21998476D01*
X2444809Y21903238D01*
X2301952Y21855619D01*
X2206714Y21855619D01*
X3587667Y21855619D02*
X3016238Y21855619D01*
X3301952Y21855619D02*
X3301952Y22855619D01*
X3206714Y22712762D01*
X3111476Y22617524D01*
X3016238Y22569905D01*
X11009381Y12874667D02*
X11723667Y12874667D01*
X11866524Y12827047D01*
X11961762Y12731809D01*
X12009381Y12588952D01*
X12009381Y12493714D01*
X11009381Y13255619D02*
X11009381Y13874667D01*
X11390333Y13541333D01*
X11390333Y13684191D01*
X11437952Y13779429D01*
X11485571Y13827048D01*
X11580810Y13874667D01*
X11818905Y13874667D01*
X11914143Y13827048D01*
X11961762Y13779429D01*
X12009381Y13684191D01*
X12009381Y13398476D01*
X11961762Y13303238D01*
X11914143Y13255619D01*
X25582667Y50668619D02*
X25582667Y49954333D01*
X25535047Y49811476D01*
X25439809Y49716238D01*
X25296952Y49668619D01*
X25201714Y49668619D01*
X26058857Y49668619D02*
X26058857Y50668619D01*
X26439810Y50668619D01*
X26535048Y50621000D01*
X26582667Y50573381D01*
X26630286Y50478143D01*
X26630286Y50335286D01*
X26582667Y50240048D01*
X26535048Y50192429D01*
X26439810Y50144810D01*
X26058857Y50144810D01*
X27582667Y49668619D02*
X27011238Y49668619D01*
X27296952Y49668619D02*
X27296952Y50668619D01*
X27201714Y50525762D01*
X27106476Y50430524D01*
X27011238Y50382905D01*
X2087667Y57868619D02*
X2087667Y57154333D01*
X2040047Y57011476D01*
X1944809Y56916238D01*
X1801952Y56868619D01*
X1706714Y56868619D01*
X2563857Y56868619D02*
X2563857Y57868619D01*
X2944810Y57868619D01*
X3040048Y57821000D01*
X3087667Y57773381D01*
X3135286Y57678143D01*
X3135286Y57535286D01*
X3087667Y57440048D01*
X3040048Y57392429D01*
X2944810Y57344810D01*
X2563857Y57344810D01*
X3468619Y57868619D02*
X4087667Y57868619D01*
X3754333Y57487667D01*
X3897191Y57487667D01*
X3992429Y57440048D01*
X4040048Y57392429D01*
X4087667Y57297190D01*
X4087667Y57059095D01*
X4040048Y56963857D01*
X3992429Y56916238D01*
X3897191Y56868619D01*
X3611476Y56868619D01*
X3516238Y56916238D01*
X3468619Y56963857D01*
X47966334Y58285119D02*
X47490143Y58285119D01*
X47490143Y59285119D01*
X48823477Y58285119D02*
X48252048Y58285119D01*
X48537762Y58285119D02*
X48537762Y59285119D01*
X48442524Y59142262D01*
X48347286Y59047024D01*
X48252048Y58999405D01*
X2182905Y39381619D02*
X2182905Y40381619D01*
X2563858Y40381619D01*
X2659096Y40334000D01*
X2706715Y40286381D01*
X2754334Y40191143D01*
X2754334Y40048286D01*
X2706715Y39953048D01*
X2659096Y39905429D01*
X2563858Y39857810D01*
X2182905Y39857810D01*
X3135286Y40286381D02*
X3182905Y40334000D01*
X3278143Y40381619D01*
X3516239Y40381619D01*
X3611477Y40334000D01*
X3659096Y40286381D01*
X3706715Y40191143D01*
X3706715Y40095905D01*
X3659096Y39953048D01*
X3087667Y39381619D01*
X3706715Y39381619D01*
X27693881Y46442334D02*
X27217690Y46109000D01*
X27693881Y45870905D02*
X26693881Y45870905D01*
X26693881Y46251858D01*
X26741500Y46347096D01*
X26789119Y46394715D01*
X26884357Y46442334D01*
X27027214Y46442334D01*
X27122452Y46394715D01*
X27170071Y46347096D01*
X27217690Y46251858D01*
X27217690Y45870905D01*
X26693881Y46775667D02*
X26693881Y47394715D01*
X27074833Y47061381D01*
X27074833Y47204239D01*
X27122452Y47299477D01*
X27170071Y47347096D01*
X27265310Y47394715D01*
X27503405Y47394715D01*
X27598643Y47347096D01*
X27646262Y47299477D01*
X27693881Y47204239D01*
X27693881Y46918524D01*
X27646262Y46823286D01*
X27598643Y46775667D01*
X29344881Y33170834D02*
X28868690Y32837500D01*
X29344881Y32599405D02*
X28344881Y32599405D01*
X28344881Y32980358D01*
X28392500Y33075596D01*
X28440119Y33123215D01*
X28535357Y33170834D01*
X28678214Y33170834D01*
X28773452Y33123215D01*
X28821071Y33075596D01*
X28868690Y32980358D01*
X28868690Y32599405D01*
X28678214Y34027977D02*
X29344881Y34027977D01*
X28297262Y33789881D02*
X29011548Y33551786D01*
X29011548Y34170834D01*
X25407881Y41108334D02*
X24931690Y40775000D01*
X25407881Y40536905D02*
X24407881Y40536905D01*
X24407881Y40917858D01*
X24455500Y41013096D01*
X24503119Y41060715D01*
X24598357Y41108334D01*
X24741214Y41108334D01*
X24836452Y41060715D01*
X24884071Y41013096D01*
X24931690Y40917858D01*
X24931690Y40536905D01*
X24407881Y42013096D02*
X24407881Y41536905D01*
X24884071Y41489286D01*
X24836452Y41536905D01*
X24788833Y41632143D01*
X24788833Y41870239D01*
X24836452Y41965477D01*
X24884071Y42013096D01*
X24979310Y42060715D01*
X25217405Y42060715D01*
X25312643Y42013096D01*
X25360262Y41965477D01*
X25407881Y41870239D01*
X25407881Y41632143D01*
X25360262Y41536905D01*
X25312643Y41489286D01*
X31821381Y33234334D02*
X31345190Y32901000D01*
X31821381Y32662905D02*
X30821381Y32662905D01*
X30821381Y33043858D01*
X30869000Y33139096D01*
X30916619Y33186715D01*
X31011857Y33234334D01*
X31154714Y33234334D01*
X31249952Y33186715D01*
X31297571Y33139096D01*
X31345190Y33043858D01*
X31345190Y32662905D01*
X30821381Y34091477D02*
X30821381Y33901000D01*
X30869000Y33805762D01*
X30916619Y33758143D01*
X31059476Y33662905D01*
X31249952Y33615286D01*
X31630905Y33615286D01*
X31726143Y33662905D01*
X31773762Y33710524D01*
X31821381Y33805762D01*
X31821381Y33996239D01*
X31773762Y34091477D01*
X31726143Y34139096D01*
X31630905Y34186715D01*
X31392810Y34186715D01*
X31297571Y34139096D01*
X31249952Y34091477D01*
X31202333Y33996239D01*
X31202333Y33805762D01*
X31249952Y33710524D01*
X31297571Y33662905D01*
X31392810Y33615286D01*
X34234381Y33234334D02*
X33758190Y32901000D01*
X34234381Y32662905D02*
X33234381Y32662905D01*
X33234381Y33043858D01*
X33282000Y33139096D01*
X33329619Y33186715D01*
X33424857Y33234334D01*
X33567714Y33234334D01*
X33662952Y33186715D01*
X33710571Y33139096D01*
X33758190Y33043858D01*
X33758190Y32662905D01*
X33234381Y33567667D02*
X33234381Y34234334D01*
X34234381Y33805762D01*
X37933334Y42473619D02*
X37600000Y42949810D01*
X37361905Y42473619D02*
X37361905Y43473619D01*
X37742858Y43473619D01*
X37838096Y43426000D01*
X37885715Y43378381D01*
X37933334Y43283143D01*
X37933334Y43140286D01*
X37885715Y43045048D01*
X37838096Y42997429D01*
X37742858Y42949810D01*
X37361905Y42949810D01*
X38504762Y43045048D02*
X38409524Y43092667D01*
X38361905Y43140286D01*
X38314286Y43235524D01*
X38314286Y43283143D01*
X38361905Y43378381D01*
X38409524Y43426000D01*
X38504762Y43473619D01*
X38695239Y43473619D01*
X38790477Y43426000D01*
X38838096Y43378381D01*
X38885715Y43283143D01*
X38885715Y43235524D01*
X38838096Y43140286D01*
X38790477Y43092667D01*
X38695239Y43045048D01*
X38504762Y43045048D01*
X38409524Y42997429D01*
X38361905Y42949810D01*
X38314286Y42854571D01*
X38314286Y42664095D01*
X38361905Y42568857D01*
X38409524Y42521238D01*
X38504762Y42473619D01*
X38695239Y42473619D01*
X38790477Y42521238D01*
X38838096Y42568857D01*
X38885715Y42664095D01*
X38885715Y42854571D01*
X38838096Y42949810D01*
X38790477Y42997429D01*
X38695239Y43045048D01*
X36329881Y51776334D02*
X35853690Y51443000D01*
X36329881Y51204905D02*
X35329881Y51204905D01*
X35329881Y51585858D01*
X35377500Y51681096D01*
X35425119Y51728715D01*
X35520357Y51776334D01*
X35663214Y51776334D01*
X35758452Y51728715D01*
X35806071Y51681096D01*
X35853690Y51585858D01*
X35853690Y51204905D01*
X36329881Y52252524D02*
X36329881Y52443000D01*
X36282262Y52538239D01*
X36234643Y52585858D01*
X36091786Y52681096D01*
X35901310Y52728715D01*
X35520357Y52728715D01*
X35425119Y52681096D01*
X35377500Y52633477D01*
X35329881Y52538239D01*
X35329881Y52347762D01*
X35377500Y52252524D01*
X35425119Y52204905D01*
X35520357Y52157286D01*
X35758452Y52157286D01*
X35853690Y52204905D01*
X35901310Y52252524D01*
X35948929Y52347762D01*
X35948929Y52538239D01*
X35901310Y52633477D01*
X35853690Y52681096D01*
X35758452Y52728715D01*
X41584643Y46673119D02*
X41251309Y47149310D01*
X41013214Y46673119D02*
X41013214Y47673119D01*
X41394167Y47673119D01*
X41489405Y47625500D01*
X41537024Y47577881D01*
X41584643Y47482643D01*
X41584643Y47339786D01*
X41537024Y47244548D01*
X41489405Y47196929D01*
X41394167Y47149310D01*
X41013214Y47149310D01*
X42537024Y46673119D02*
X41965595Y46673119D01*
X42251309Y46673119D02*
X42251309Y47673119D01*
X42156071Y47530262D01*
X42060833Y47435024D01*
X41965595Y47387405D01*
X43156071Y47673119D02*
X43251310Y47673119D01*
X43346548Y47625500D01*
X43394167Y47577881D01*
X43441786Y47482643D01*
X43489405Y47292167D01*
X43489405Y47054071D01*
X43441786Y46863595D01*
X43394167Y46768357D01*
X43346548Y46720738D01*
X43251310Y46673119D01*
X43156071Y46673119D01*
X43060833Y46720738D01*
X43013214Y46768357D01*
X42965595Y46863595D01*
X42917976Y47054071D01*
X42917976Y47292167D01*
X42965595Y47482643D01*
X43013214Y47577881D01*
X43060833Y47625500D01*
X43156071Y47673119D01*
X49776143Y14787619D02*
X49442809Y15263810D01*
X49204714Y14787619D02*
X49204714Y15787619D01*
X49585667Y15787619D01*
X49680905Y15740000D01*
X49728524Y15692381D01*
X49776143Y15597143D01*
X49776143Y15454286D01*
X49728524Y15359048D01*
X49680905Y15311429D01*
X49585667Y15263810D01*
X49204714Y15263810D01*
X50728524Y14787619D02*
X50157095Y14787619D01*
X50442809Y14787619D02*
X50442809Y15787619D01*
X50347571Y15644762D01*
X50252333Y15549524D01*
X50157095Y15501905D01*
X51680905Y14787619D02*
X51109476Y14787619D01*
X51395190Y14787619D02*
X51395190Y15787619D01*
X51299952Y15644762D01*
X51204714Y15549524D01*
X51109476Y15501905D01*
X49395143Y16946619D02*
X49061809Y17422810D01*
X48823714Y16946619D02*
X48823714Y17946619D01*
X49204667Y17946619D01*
X49299905Y17899000D01*
X49347524Y17851381D01*
X49395143Y17756143D01*
X49395143Y17613286D01*
X49347524Y17518048D01*
X49299905Y17470429D01*
X49204667Y17422810D01*
X48823714Y17422810D01*
X50347524Y16946619D02*
X49776095Y16946619D01*
X50061809Y16946619D02*
X50061809Y17946619D01*
X49966571Y17803762D01*
X49871333Y17708524D01*
X49776095Y17660905D01*
X50728476Y17851381D02*
X50776095Y17899000D01*
X50871333Y17946619D01*
X51109429Y17946619D01*
X51204667Y17899000D01*
X51252286Y17851381D01*
X51299905Y17756143D01*
X51299905Y17660905D01*
X51252286Y17518048D01*
X50680857Y16946619D01*
X51299905Y16946619D01*
X49649143Y21137619D02*
X49315809Y21613810D01*
X49077714Y21137619D02*
X49077714Y22137619D01*
X49458667Y22137619D01*
X49553905Y22090000D01*
X49601524Y22042381D01*
X49649143Y21947143D01*
X49649143Y21804286D01*
X49601524Y21709048D01*
X49553905Y21661429D01*
X49458667Y21613810D01*
X49077714Y21613810D01*
X50601524Y21137619D02*
X50030095Y21137619D01*
X50315809Y21137619D02*
X50315809Y22137619D01*
X50220571Y21994762D01*
X50125333Y21899524D01*
X50030095Y21851905D01*
X50934857Y22137619D02*
X51553905Y22137619D01*
X51220571Y21756667D01*
X51363429Y21756667D01*
X51458667Y21709048D01*
X51506286Y21661429D01*
X51553905Y21566190D01*
X51553905Y21328095D01*
X51506286Y21232857D01*
X51458667Y21185238D01*
X51363429Y21137619D01*
X51077714Y21137619D01*
X50982476Y21185238D01*
X50934857Y21232857D01*
X49458643Y23296619D02*
X49125309Y23772810D01*
X48887214Y23296619D02*
X48887214Y24296619D01*
X49268167Y24296619D01*
X49363405Y24249000D01*
X49411024Y24201381D01*
X49458643Y24106143D01*
X49458643Y23963286D01*
X49411024Y23868048D01*
X49363405Y23820429D01*
X49268167Y23772810D01*
X48887214Y23772810D01*
X50411024Y23296619D02*
X49839595Y23296619D01*
X50125309Y23296619D02*
X50125309Y24296619D01*
X50030071Y24153762D01*
X49934833Y24058524D01*
X49839595Y24010905D01*
X51268167Y23963286D02*
X51268167Y23296619D01*
X51030071Y24344238D02*
X50791976Y23629952D01*
X51411024Y23629952D01*
X65143143Y39044619D02*
X64809809Y39520810D01*
X64571714Y39044619D02*
X64571714Y40044619D01*
X64952667Y40044619D01*
X65047905Y39997000D01*
X65095524Y39949381D01*
X65143143Y39854143D01*
X65143143Y39711286D01*
X65095524Y39616048D01*
X65047905Y39568429D01*
X64952667Y39520810D01*
X64571714Y39520810D01*
X66095524Y39044619D02*
X65524095Y39044619D01*
X65809809Y39044619D02*
X65809809Y40044619D01*
X65714571Y39901762D01*
X65619333Y39806524D01*
X65524095Y39758905D01*
X66952667Y40044619D02*
X66762190Y40044619D01*
X66666952Y39997000D01*
X66619333Y39949381D01*
X66524095Y39806524D01*
X66476476Y39616048D01*
X66476476Y39235095D01*
X66524095Y39139857D01*
X66571714Y39092238D01*
X66666952Y39044619D01*
X66857429Y39044619D01*
X66952667Y39092238D01*
X67000286Y39139857D01*
X67047905Y39235095D01*
X67047905Y39473190D01*
X67000286Y39568429D01*
X66952667Y39616048D01*
X66857429Y39663667D01*
X66666952Y39663667D01*
X66571714Y39616048D01*
X66524095Y39568429D01*
X66476476Y39473190D01*
X65270143Y22153619D02*
X64936809Y22629810D01*
X64698714Y22153619D02*
X64698714Y23153619D01*
X65079667Y23153619D01*
X65174905Y23106000D01*
X65222524Y23058381D01*
X65270143Y22963143D01*
X65270143Y22820286D01*
X65222524Y22725048D01*
X65174905Y22677429D01*
X65079667Y22629810D01*
X64698714Y22629810D01*
X65651095Y23058381D02*
X65698714Y23106000D01*
X65793952Y23153619D01*
X66032048Y23153619D01*
X66127286Y23106000D01*
X66174905Y23058381D01*
X66222524Y22963143D01*
X66222524Y22867905D01*
X66174905Y22725048D01*
X65603476Y22153619D01*
X66222524Y22153619D01*
X66603476Y23058381D02*
X66651095Y23106000D01*
X66746333Y23153619D01*
X66984429Y23153619D01*
X67079667Y23106000D01*
X67127286Y23058381D01*
X67174905Y22963143D01*
X67174905Y22867905D01*
X67127286Y22725048D01*
X66555857Y22153619D01*
X67174905Y22153619D01*
X60317143Y6278619D02*
X59983809Y6754810D01*
X59745714Y6278619D02*
X59745714Y7278619D01*
X60126667Y7278619D01*
X60221905Y7231000D01*
X60269524Y7183381D01*
X60317143Y7088143D01*
X60317143Y6945286D01*
X60269524Y6850048D01*
X60221905Y6802429D01*
X60126667Y6754810D01*
X59745714Y6754810D01*
X60698095Y7183381D02*
X60745714Y7231000D01*
X60840952Y7278619D01*
X61079048Y7278619D01*
X61174286Y7231000D01*
X61221905Y7183381D01*
X61269524Y7088143D01*
X61269524Y6992905D01*
X61221905Y6850048D01*
X60650476Y6278619D01*
X61269524Y6278619D01*
X61840952Y6850048D02*
X61745714Y6897667D01*
X61698095Y6945286D01*
X61650476Y7040524D01*
X61650476Y7088143D01*
X61698095Y7183381D01*
X61745714Y7231000D01*
X61840952Y7278619D01*
X62031429Y7278619D01*
X62126667Y7231000D01*
X62174286Y7183381D01*
X62221905Y7088143D01*
X62221905Y7040524D01*
X62174286Y6945286D01*
X62126667Y6897667D01*
X62031429Y6850048D01*
X61840952Y6850048D01*
X61745714Y6802429D01*
X61698095Y6754810D01*
X61650476Y6659571D01*
X61650476Y6469095D01*
X61698095Y6373857D01*
X61745714Y6326238D01*
X61840952Y6278619D01*
X62031429Y6278619D01*
X62126667Y6326238D01*
X62174286Y6373857D01*
X62221905Y6469095D01*
X62221905Y6659571D01*
X62174286Y6754810D01*
X62126667Y6802429D01*
X62031429Y6850048D01*
X18161095Y58142119D02*
X18161095Y57332595D01*
X18208714Y57237357D01*
X18256333Y57189738D01*
X18351571Y57142119D01*
X18542048Y57142119D01*
X18637286Y57189738D01*
X18684905Y57237357D01*
X18732524Y57332595D01*
X18732524Y58142119D01*
X19161095Y58046881D02*
X19208714Y58094500D01*
X19303952Y58142119D01*
X19542048Y58142119D01*
X19637286Y58094500D01*
X19684905Y58046881D01*
X19732524Y57951643D01*
X19732524Y57856405D01*
X19684905Y57713548D01*
X19113476Y57142119D01*
X19732524Y57142119D01*
X51244595Y43854619D02*
X51244595Y43045095D01*
X51292214Y42949857D01*
X51339833Y42902238D01*
X51435071Y42854619D01*
X51625548Y42854619D01*
X51720786Y42902238D01*
X51768405Y42949857D01*
X51816024Y43045095D01*
X51816024Y43854619D01*
X52196976Y43854619D02*
X52816024Y43854619D01*
X52482690Y43473667D01*
X52625548Y43473667D01*
X52720786Y43426048D01*
X52768405Y43378429D01*
X52816024Y43283190D01*
X52816024Y43045095D01*
X52768405Y42949857D01*
X52720786Y42902238D01*
X52625548Y42854619D01*
X52339833Y42854619D01*
X52244595Y42902238D01*
X52196976Y42949857D01*
X26328143Y11335143D02*
X26375762Y11287524D01*
X26423381Y11144667D01*
X26423381Y11049429D01*
X26375762Y10906571D01*
X26280524Y10811333D01*
X26185286Y10763714D01*
X25994810Y10716095D01*
X25851952Y10716095D01*
X25661476Y10763714D01*
X25566238Y10811333D01*
X25471000Y10906571D01*
X25423381Y11049429D01*
X25423381Y11144667D01*
X25471000Y11287524D01*
X25518619Y11335143D01*
X25518619Y11716095D02*
X25471000Y11763714D01*
X25423381Y11858952D01*
X25423381Y12097048D01*
X25471000Y12192286D01*
X25518619Y12239905D01*
X25613857Y12287524D01*
X25709095Y12287524D01*
X25851952Y12239905D01*
X26423381Y11668476D01*
X26423381Y12287524D01*
X25423381Y12620857D02*
X25423381Y13239905D01*
X25804333Y12906571D01*
X25804333Y13049429D01*
X25851952Y13144667D01*
X25899571Y13192286D01*
X25994810Y13239905D01*
X26232905Y13239905D01*
X26328143Y13192286D01*
X26375762Y13144667D01*
X26423381Y13049429D01*
X26423381Y12763714D01*
X26375762Y12668476D01*
X26328143Y12620857D01*
X39663143Y11335143D02*
X39710762Y11287524D01*
X39758381Y11144667D01*
X39758381Y11049429D01*
X39710762Y10906571D01*
X39615524Y10811333D01*
X39520286Y10763714D01*
X39329810Y10716095D01*
X39186952Y10716095D01*
X38996476Y10763714D01*
X38901238Y10811333D01*
X38806000Y10906571D01*
X38758381Y11049429D01*
X38758381Y11144667D01*
X38806000Y11287524D01*
X38853619Y11335143D01*
X38853619Y11716095D02*
X38806000Y11763714D01*
X38758381Y11858952D01*
X38758381Y12097048D01*
X38806000Y12192286D01*
X38853619Y12239905D01*
X38948857Y12287524D01*
X39044095Y12287524D01*
X39186952Y12239905D01*
X39758381Y11668476D01*
X39758381Y12287524D01*
X38758381Y13192286D02*
X38758381Y12716095D01*
X39234571Y12668476D01*
X39186952Y12716095D01*
X39139333Y12811333D01*
X39139333Y13049429D01*
X39186952Y13144667D01*
X39234571Y13192286D01*
X39329810Y13239905D01*
X39567905Y13239905D01*
X39663143Y13192286D01*
X39710762Y13144667D01*
X39758381Y13049429D01*
X39758381Y12811333D01*
X39710762Y12716095D01*
X39663143Y12668476D01*
X69786667Y63622619D02*
X69453333Y64098810D01*
X69215238Y63622619D02*
X69215238Y64622619D01*
X69596191Y64622619D01*
X69691429Y64575000D01*
X69739048Y64527381D01*
X69786667Y64432143D01*
X69786667Y64289286D01*
X69739048Y64194048D01*
X69691429Y64146429D01*
X69596191Y64098810D01*
X69215238Y64098810D01*
X70215238Y64146429D02*
X70548572Y64146429D01*
X70691429Y63622619D02*
X70215238Y63622619D01*
X70215238Y64622619D01*
X70691429Y64622619D01*
X71453334Y64146429D02*
X71120000Y64146429D01*
X71120000Y63622619D02*
X71120000Y64622619D01*
X71596191Y64622619D01*
X72120000Y64622619D02*
X72120000Y64384524D01*
X71881905Y64479762D02*
X72120000Y64384524D01*
X72358096Y64479762D01*
X71977143Y64194048D02*
X72120000Y64384524D01*
X72262858Y64194048D01*
X72881905Y64622619D02*
X72881905Y64384524D01*
X72643810Y64479762D02*
X72881905Y64384524D01*
X73120001Y64479762D01*
X72739048Y64194048D02*
X72881905Y64384524D01*
X73024763Y64194048D01*
X1841667Y63622619D02*
X1508333Y64098810D01*
X1270238Y63622619D02*
X1270238Y64622619D01*
X1651191Y64622619D01*
X1746429Y64575000D01*
X1794048Y64527381D01*
X1841667Y64432143D01*
X1841667Y64289286D01*
X1794048Y64194048D01*
X1746429Y64146429D01*
X1651191Y64098810D01*
X1270238Y64098810D01*
X2270238Y64146429D02*
X2603572Y64146429D01*
X2746429Y63622619D02*
X2270238Y63622619D01*
X2270238Y64622619D01*
X2746429Y64622619D01*
X3508334Y64146429D02*
X3175000Y64146429D01*
X3175000Y63622619D02*
X3175000Y64622619D01*
X3651191Y64622619D01*
X4175000Y64622619D02*
X4175000Y64384524D01*
X3936905Y64479762D02*
X4175000Y64384524D01*
X4413096Y64479762D01*
X4032143Y64194048D02*
X4175000Y64384524D01*
X4317858Y64194048D01*
X4936905Y64622619D02*
X4936905Y64384524D01*
X4698810Y64479762D02*
X4936905Y64384524D01*
X5175001Y64479762D01*
X4794048Y64194048D02*
X4936905Y64384524D01*
X5079763Y64194048D01*
X36766667Y6472619D02*
X36433333Y6948810D01*
X36195238Y6472619D02*
X36195238Y7472619D01*
X36576191Y7472619D01*
X36671429Y7425000D01*
X36719048Y7377381D01*
X36766667Y7282143D01*
X36766667Y7139286D01*
X36719048Y7044048D01*
X36671429Y6996429D01*
X36576191Y6948810D01*
X36195238Y6948810D01*
X37195238Y6996429D02*
X37528572Y6996429D01*
X37671429Y6472619D02*
X37195238Y6472619D01*
X37195238Y7472619D01*
X37671429Y7472619D01*
X38433334Y6996429D02*
X38100000Y6996429D01*
X38100000Y6472619D02*
X38100000Y7472619D01*
X38576191Y7472619D01*
X39100000Y7472619D02*
X39100000Y7234524D01*
X38861905Y7329762D02*
X39100000Y7234524D01*
X39338096Y7329762D01*
X38957143Y7044048D02*
X39100000Y7234524D01*
X39242858Y7044048D01*
X39861905Y7472619D02*
X39861905Y7234524D01*
X39623810Y7329762D02*
X39861905Y7234524D01*
X40100001Y7329762D01*
X39719048Y7044048D02*
X39861905Y7234524D01*
X40004763Y7044048D01*
M02*
