M48
METRIC,TZ
T1C0.400
T2C0.600
T3C0.800
T4C1.000
T5C1.200
T6C3.200
%
G90
G05
T1
X15.43Y39.306
X16.192Y49.593
X16.447Y39.814
X17.907Y24.511
X22.86Y12.065
X23.749Y12.827
X24.511Y32.131
X24.955Y38.417
X27.114Y45.593
X27.559Y34.036
X27.686Y48.641
X28.956Y33.528
X29.21Y48.26
X31.432Y49.625
X33.909Y27.686
X34.544Y28.448
X35.052Y12.065
X35.179Y29.21
X35.941Y13.208
X36.155Y54.356
X36.703Y27.432
X37.338Y32.385
X37.782Y41.148
X37.782Y30.162
X37.973Y31.623
X38.163Y34.608
X38.163Y27.686
X38.227Y35.56
X38.227Y33.655
X40.259Y49.689
X40.259Y37.592
X40.45Y33.084
X41.021Y29.337
X42.735Y50.459
X46.131Y49.911
X47.752Y25.527
X48.768Y11.176
X49.403Y28.702
X49.53Y47.625
X50.419Y11.176
X51.562Y42.164
X51.689Y26.797
X52.832Y39.052
X54.102Y36.068
X54.292Y31.813
X54.483Y14.859
X54.8Y43.116
X55.753Y54.483
X56.134Y39.37
X56.261Y42.926
X56.642Y23.876
X59.309Y46.355
X59.309Y24.701
X59.372Y41.846
X59.436Y7.938
T2
X45.021Y39.751
X45.021Y38.481
X45.021Y37.211
X45.021Y35.941
X45.021Y34.671
X45.021Y33.401
X46.291Y39.751
X46.291Y38.481
X46.291Y37.211
X46.291Y35.941
X46.291Y34.671
X46.291Y33.401
X47.561Y39.751
X47.561Y38.481
X47.561Y37.211
X47.561Y35.941
X47.561Y34.671
X47.561Y33.401
X58.928Y53.721
X58.928Y52.451
X58.928Y51.181
X58.928Y49.911
X58.991Y19.748
X58.991Y18.479
X58.991Y17.209
X58.991Y15.938
X59.182Y36.576
X59.182Y35.306
X59.182Y34.036
X59.182Y32.766
X60.198Y53.721
X60.198Y52.451
X60.198Y51.181
X60.198Y49.911
X60.261Y19.748
X60.261Y18.479
X60.261Y17.209
X60.261Y15.938
X60.452Y36.576
X60.452Y35.306
X60.452Y34.036
X60.452Y32.766
X61.468Y53.721
X61.468Y52.451
X61.468Y51.181
X61.468Y49.911
X61.531Y19.748
X61.531Y18.479
X61.531Y17.209
X61.531Y15.938
X61.722Y36.576
X61.722Y35.306
X61.722Y34.036
X61.722Y32.766
X62.738Y53.721
X62.738Y52.451
X62.738Y51.181
X62.738Y49.911
X62.801Y19.748
X62.801Y18.479
X62.801Y17.209
X62.801Y15.938
X62.992Y36.576
X62.992Y35.306
X62.992Y34.036
X62.992Y32.766
X63.563Y47.307
X63.563Y46.038
X63.563Y44.767
X63.563Y43.497
X63.563Y30.162
X63.563Y28.892
X63.563Y27.622
X63.563Y26.352
X63.627Y13.335
X63.627Y12.065
X63.627Y10.795
X63.627Y9.525
X64.008Y53.721
X64.008Y52.451
X64.008Y51.181
X64.008Y49.911
X64.072Y19.748
X64.072Y18.479
X64.072Y17.209
X64.072Y15.938
X64.262Y36.576
X64.262Y35.306
X64.262Y34.036
X64.262Y32.766
X64.834Y47.307
X64.834Y46.038
X64.834Y44.767
X64.834Y43.497
X64.834Y30.162
X64.834Y28.892
X64.834Y27.622
X64.834Y26.352
X64.897Y13.335
X64.897Y12.065
X64.897Y10.795
X64.897Y9.525
X65.278Y53.721
X65.278Y52.451
X65.278Y51.181
X65.278Y49.911
X65.341Y19.748
X65.341Y18.479
X65.341Y17.209
X65.341Y15.938
X65.532Y36.576
X65.532Y35.306
X65.532Y34.036
X65.532Y32.766
X66.103Y47.307
X66.103Y46.038
X66.103Y44.767
X66.103Y43.497
X66.103Y30.162
X66.103Y28.892
X66.103Y27.622
X66.103Y26.352
X66.167Y13.335
X66.167Y12.065
X66.167Y10.795
X66.167Y9.525
X67.373Y47.307
X67.373Y46.038
X67.373Y44.767
X67.373Y43.497
X67.373Y30.162
X67.373Y28.892
X67.373Y27.622
X67.373Y26.352
X67.437Y13.335
X67.437Y12.065
X67.437Y10.795
X67.437Y9.525
X68.644Y47.307
X68.644Y46.038
X68.644Y44.767
X68.644Y43.497
X68.644Y30.162
X68.644Y28.892
X68.644Y27.622
X68.644Y26.352
X68.707Y13.335
X68.707Y12.065
X68.707Y10.795
X68.707Y9.525
X69.913Y47.307
X69.913Y46.038
X69.913Y44.767
X69.913Y43.497
X69.913Y30.162
X69.913Y28.892
X69.913Y27.622
X69.913Y26.352
X69.977Y13.335
X69.977Y12.065
X69.977Y10.795
X69.977Y9.525
T3
X5.969Y54.991
X5.969Y52.451
X5.969Y49.911
X5.969Y47.371
X5.969Y44.831
X5.969Y42.291
X5.969Y39.751
X5.969Y37.211
X5.969Y34.671
X5.969Y32.131
X5.969Y29.591
X5.969Y27.051
X5.969Y24.511
X5.969Y21.971
X18.669Y47.371
X18.669Y44.831
X18.669Y42.291
X18.669Y21.971
X21.209Y54.991
X21.209Y52.451
X21.209Y49.911
X21.209Y47.371
X21.209Y44.831
X21.209Y42.291
X21.209Y39.751
X21.209Y37.211
X21.209Y34.671
X21.209Y32.131
X21.209Y29.591
X21.209Y27.051
X21.209Y24.511
X21.209Y21.971
T4
X2.921Y54.991
X2.921Y52.451
X2.921Y49.911
X2.921Y47.244
X2.921Y44.704
X2.921Y42.164
X2.921Y37.338
X2.921Y34.798
X2.921Y32.258
X2.921Y29.718
X2.921Y27.178
X2.921Y24.638
X26.416Y54.991
X26.416Y52.451
T5
X18.161Y14.478
X18.161Y9.478
X31.496Y14.478
X31.496Y9.478
T6
X7.112Y8.382
X7.239Y15.113
T0
M30
