G04 #@! TF.FileFunction,Legend,Bot*
%FSLAX46Y46*%
G04 Gerber Fmt 4.6, Leading zero omitted, Abs format (unit mm)*
G04 Created by KiCad (PCBNEW 4.0.4-stable) date 08/15/17 16:15:30*
%MOMM*%
%LPD*%
G01*
G04 APERTURE LIST*
%ADD10C,0.100000*%
%ADD11C,0.120000*%
%ADD12C,0.150000*%
G04 APERTURE END LIST*
D10*
D11*
X62593500Y41952500D02*
X61093500Y41952500D01*
X61093500Y41952500D02*
X61093500Y42222500D01*
X61093500Y42222500D02*
X58263500Y42222500D01*
X62593500Y48852500D02*
X61093500Y48852500D01*
X61093500Y48852500D02*
X61093500Y48582500D01*
X61093500Y48582500D02*
X59993500Y48582500D01*
X62593500Y24807500D02*
X61093500Y24807500D01*
X61093500Y24807500D02*
X61093500Y25077500D01*
X61093500Y25077500D02*
X58263500Y25077500D01*
X62593500Y31707500D02*
X61093500Y31707500D01*
X61093500Y31707500D02*
X61093500Y31437500D01*
X61093500Y31437500D02*
X59993500Y31437500D01*
X11807000Y47641000D02*
X11807000Y49641000D01*
X13847000Y49641000D02*
X13847000Y47641000D01*
X44339000Y24642000D02*
X46339000Y24642000D01*
X46339000Y22602000D02*
X44339000Y22602000D01*
X44339000Y22610000D02*
X46339000Y22610000D01*
X46339000Y20570000D02*
X44339000Y20570000D01*
X44339000Y20578000D02*
X46339000Y20578000D01*
X46339000Y18538000D02*
X44339000Y18538000D01*
X44339000Y18546000D02*
X46339000Y18546000D01*
X46339000Y16506000D02*
X44339000Y16506000D01*
X49280000Y34274000D02*
X49280000Y32274000D01*
X47240000Y32274000D02*
X47240000Y34274000D01*
X47240000Y40783000D02*
X47240000Y42783000D01*
X49280000Y42783000D02*
X49280000Y40783000D01*
X45335000Y40783000D02*
X45335000Y42783000D01*
X47375000Y42783000D02*
X47375000Y40783000D01*
X43430000Y40783000D02*
X43430000Y42783000D01*
X45470000Y42783000D02*
X45470000Y40783000D01*
X66248000Y55266000D02*
X67748000Y55266000D01*
X67748000Y55266000D02*
X67748000Y54996000D01*
X67748000Y54996000D02*
X70578000Y54996000D01*
X66248000Y48366000D02*
X67748000Y48366000D01*
X67748000Y48366000D02*
X67748000Y48636000D01*
X67748000Y48636000D02*
X68848000Y48636000D01*
X66502000Y38121000D02*
X68002000Y38121000D01*
X68002000Y38121000D02*
X68002000Y37851000D01*
X68002000Y37851000D02*
X70832000Y37851000D01*
X66502000Y31221000D02*
X68002000Y31221000D01*
X68002000Y31221000D02*
X68002000Y31491000D01*
X68002000Y31491000D02*
X69102000Y31491000D01*
X66311500Y21293500D02*
X67811500Y21293500D01*
X67811500Y21293500D02*
X67811500Y21023500D01*
X67811500Y21023500D02*
X70641500Y21023500D01*
X66311500Y14393500D02*
X67811500Y14393500D01*
X67811500Y14393500D02*
X67811500Y14663500D01*
X67811500Y14663500D02*
X68911500Y14663500D01*
X62657000Y7980000D02*
X61157000Y7980000D01*
X61157000Y7980000D02*
X61157000Y8250000D01*
X61157000Y8250000D02*
X58327000Y8250000D01*
X62657000Y14880000D02*
X61157000Y14880000D01*
X61157000Y14880000D02*
X61157000Y14610000D01*
X61157000Y14610000D02*
X60057000Y14610000D01*
X9795000Y41729000D02*
X11795000Y41729000D01*
X11795000Y43869000D02*
X9795000Y43869000D01*
X61928500Y54619500D02*
X63928500Y54619500D01*
X63928500Y56759500D02*
X61928500Y56759500D01*
X64913000Y40395500D02*
X66913000Y40395500D01*
X66913000Y42535500D02*
X64913000Y42535500D01*
X53737000Y49730000D02*
X55737000Y49730000D01*
X55737000Y51870000D02*
X53737000Y51870000D01*
X55737000Y53902000D02*
X53737000Y53902000D01*
X53737000Y51762000D02*
X55737000Y51762000D01*
X62182500Y37474500D02*
X64182500Y37474500D01*
X64182500Y39614500D02*
X62182500Y39614500D01*
X64913000Y23377500D02*
X66913000Y23377500D01*
X66913000Y25517500D02*
X64913000Y25517500D01*
X53356000Y32458000D02*
X55356000Y32458000D01*
X55356000Y34598000D02*
X53356000Y34598000D01*
X55356000Y36757000D02*
X53356000Y36757000D01*
X53356000Y34617000D02*
X55356000Y34617000D01*
X61928500Y20647000D02*
X63928500Y20647000D01*
X63928500Y22787000D02*
X61928500Y22787000D01*
X64976500Y6486500D02*
X66976500Y6486500D01*
X66976500Y8626500D02*
X64976500Y8626500D01*
X53483000Y16202000D02*
X55483000Y16202000D01*
X55483000Y18342000D02*
X53483000Y18342000D01*
X55483000Y20501000D02*
X53483000Y20501000D01*
X53483000Y18361000D02*
X55483000Y18361000D01*
X51687000Y25527000D02*
X47627000Y25527000D01*
X51687000Y30607000D02*
X47627000Y30607000D01*
X51687000Y8636000D02*
X47627000Y8636000D01*
X51687000Y13716000D02*
X47627000Y13716000D01*
D12*
X61245738Y44473881D02*
X61340976Y44521500D01*
X61436214Y44616738D01*
X61579071Y44759595D01*
X61674310Y44807214D01*
X61769548Y44807214D01*
X61721929Y44569119D02*
X61817167Y44616738D01*
X61912405Y44711976D01*
X61960024Y44902452D01*
X61960024Y45235786D01*
X61912405Y45426262D01*
X61817167Y45521500D01*
X61721929Y45569119D01*
X61531452Y45569119D01*
X61436214Y45521500D01*
X61340976Y45426262D01*
X61293357Y45235786D01*
X61293357Y44902452D01*
X61340976Y44711976D01*
X61436214Y44616738D01*
X61531452Y44569119D01*
X61721929Y44569119D01*
X60912405Y45473881D02*
X60864786Y45521500D01*
X60769548Y45569119D01*
X60531452Y45569119D01*
X60436214Y45521500D01*
X60388595Y45473881D01*
X60340976Y45378643D01*
X60340976Y45283405D01*
X60388595Y45140548D01*
X60960024Y44569119D01*
X60340976Y44569119D01*
X61626738Y27265381D02*
X61721976Y27313000D01*
X61817214Y27408238D01*
X61960071Y27551095D01*
X62055310Y27598714D01*
X62150548Y27598714D01*
X62102929Y27360619D02*
X62198167Y27408238D01*
X62293405Y27503476D01*
X62341024Y27693952D01*
X62341024Y28027286D01*
X62293405Y28217762D01*
X62198167Y28313000D01*
X62102929Y28360619D01*
X61912452Y28360619D01*
X61817214Y28313000D01*
X61721976Y28217762D01*
X61674357Y28027286D01*
X61674357Y27693952D01*
X61721976Y27503476D01*
X61817214Y27408238D01*
X61912452Y27360619D01*
X62102929Y27360619D01*
X60817214Y28027286D02*
X60817214Y27360619D01*
X61055310Y28408238D02*
X61293405Y27693952D01*
X60674357Y27693952D01*
X11434143Y48807666D02*
X11481762Y48855285D01*
X11529381Y48998142D01*
X11529381Y49093380D01*
X11481762Y49236238D01*
X11386524Y49331476D01*
X11291286Y49379095D01*
X11100810Y49426714D01*
X10957952Y49426714D01*
X10767476Y49379095D01*
X10672238Y49331476D01*
X10577000Y49236238D01*
X10529381Y49093380D01*
X10529381Y48998142D01*
X10577000Y48855285D01*
X10624619Y48807666D01*
X10529381Y48474333D02*
X10529381Y47855285D01*
X10910333Y48188619D01*
X10910333Y48045761D01*
X10957952Y47950523D01*
X11005571Y47902904D01*
X11100810Y47855285D01*
X11338905Y47855285D01*
X11434143Y47902904D01*
X11481762Y47950523D01*
X11529381Y48045761D01*
X11529381Y48331476D01*
X11481762Y48426714D01*
X11434143Y48474333D01*
X50807857Y23391857D02*
X50855476Y23344238D01*
X50998333Y23296619D01*
X51093571Y23296619D01*
X51236429Y23344238D01*
X51331667Y23439476D01*
X51379286Y23534714D01*
X51426905Y23725190D01*
X51426905Y23868048D01*
X51379286Y24058524D01*
X51331667Y24153762D01*
X51236429Y24249000D01*
X51093571Y24296619D01*
X50998333Y24296619D01*
X50855476Y24249000D01*
X50807857Y24201381D01*
X49855476Y23296619D02*
X50426905Y23296619D01*
X50141191Y23296619D02*
X50141191Y24296619D01*
X50236429Y24153762D01*
X50331667Y24058524D01*
X50426905Y24010905D01*
X49474524Y24201381D02*
X49426905Y24249000D01*
X49331667Y24296619D01*
X49093571Y24296619D01*
X48998333Y24249000D01*
X48950714Y24201381D01*
X48903095Y24106143D01*
X48903095Y24010905D01*
X48950714Y23868048D01*
X49522143Y23296619D01*
X48903095Y23296619D01*
X50807857Y21105857D02*
X50855476Y21058238D01*
X50998333Y21010619D01*
X51093571Y21010619D01*
X51236429Y21058238D01*
X51331667Y21153476D01*
X51379286Y21248714D01*
X51426905Y21439190D01*
X51426905Y21582048D01*
X51379286Y21772524D01*
X51331667Y21867762D01*
X51236429Y21963000D01*
X51093571Y22010619D01*
X50998333Y22010619D01*
X50855476Y21963000D01*
X50807857Y21915381D01*
X49855476Y21010619D02*
X50426905Y21010619D01*
X50141191Y21010619D02*
X50141191Y22010619D01*
X50236429Y21867762D01*
X50331667Y21772524D01*
X50426905Y21724905D01*
X49522143Y22010619D02*
X48903095Y22010619D01*
X49236429Y21629667D01*
X49093571Y21629667D01*
X48998333Y21582048D01*
X48950714Y21534429D01*
X48903095Y21439190D01*
X48903095Y21201095D01*
X48950714Y21105857D01*
X48998333Y21058238D01*
X49093571Y21010619D01*
X49379286Y21010619D01*
X49474524Y21058238D01*
X49522143Y21105857D01*
X50807857Y19137357D02*
X50855476Y19089738D01*
X50998333Y19042119D01*
X51093571Y19042119D01*
X51236429Y19089738D01*
X51331667Y19184976D01*
X51379286Y19280214D01*
X51426905Y19470690D01*
X51426905Y19613548D01*
X51379286Y19804024D01*
X51331667Y19899262D01*
X51236429Y19994500D01*
X51093571Y20042119D01*
X50998333Y20042119D01*
X50855476Y19994500D01*
X50807857Y19946881D01*
X49855476Y19042119D02*
X50426905Y19042119D01*
X50141191Y19042119D02*
X50141191Y20042119D01*
X50236429Y19899262D01*
X50331667Y19804024D01*
X50426905Y19756405D01*
X48998333Y19708786D02*
X48998333Y19042119D01*
X49236429Y20089738D02*
X49474524Y19375452D01*
X48855476Y19375452D01*
X50934857Y17168857D02*
X50982476Y17121238D01*
X51125333Y17073619D01*
X51220571Y17073619D01*
X51363429Y17121238D01*
X51458667Y17216476D01*
X51506286Y17311714D01*
X51553905Y17502190D01*
X51553905Y17645048D01*
X51506286Y17835524D01*
X51458667Y17930762D01*
X51363429Y18026000D01*
X51220571Y18073619D01*
X51125333Y18073619D01*
X50982476Y18026000D01*
X50934857Y17978381D01*
X49982476Y17073619D02*
X50553905Y17073619D01*
X50268191Y17073619D02*
X50268191Y18073619D01*
X50363429Y17930762D01*
X50458667Y17835524D01*
X50553905Y17787905D01*
X49077714Y18073619D02*
X49553905Y18073619D01*
X49601524Y17597429D01*
X49553905Y17645048D01*
X49458667Y17692667D01*
X49220571Y17692667D01*
X49125333Y17645048D01*
X49077714Y17597429D01*
X49030095Y17502190D01*
X49030095Y17264095D01*
X49077714Y17168857D01*
X49125333Y17121238D01*
X49220571Y17073619D01*
X49458667Y17073619D01*
X49553905Y17121238D01*
X49601524Y17168857D01*
X46077143Y34043857D02*
X46124762Y34091476D01*
X46172381Y34234333D01*
X46172381Y34329571D01*
X46124762Y34472429D01*
X46029524Y34567667D01*
X45934286Y34615286D01*
X45743810Y34662905D01*
X45600952Y34662905D01*
X45410476Y34615286D01*
X45315238Y34567667D01*
X45220000Y34472429D01*
X45172381Y34329571D01*
X45172381Y34234333D01*
X45220000Y34091476D01*
X45267619Y34043857D01*
X45267619Y33662905D02*
X45220000Y33615286D01*
X45172381Y33520048D01*
X45172381Y33281952D01*
X45220000Y33186714D01*
X45267619Y33139095D01*
X45362857Y33091476D01*
X45458095Y33091476D01*
X45600952Y33139095D01*
X46172381Y33710524D01*
X46172381Y33091476D01*
X45172381Y32234333D02*
X45172381Y32424810D01*
X45220000Y32520048D01*
X45267619Y32567667D01*
X45410476Y32662905D01*
X45600952Y32710524D01*
X45981905Y32710524D01*
X46077143Y32662905D01*
X46124762Y32615286D01*
X46172381Y32520048D01*
X46172381Y32329571D01*
X46124762Y32234333D01*
X46077143Y32186714D01*
X45981905Y32139095D01*
X45743810Y32139095D01*
X45648571Y32186714D01*
X45600952Y32234333D01*
X45553333Y32329571D01*
X45553333Y32520048D01*
X45600952Y32615286D01*
X45648571Y32662905D01*
X45743810Y32710524D01*
X48744143Y47569357D02*
X48791762Y47616976D01*
X48839381Y47759833D01*
X48839381Y47855071D01*
X48791762Y47997929D01*
X48696524Y48093167D01*
X48601286Y48140786D01*
X48410810Y48188405D01*
X48267952Y48188405D01*
X48077476Y48140786D01*
X47982238Y48093167D01*
X47887000Y47997929D01*
X47839381Y47855071D01*
X47839381Y47759833D01*
X47887000Y47616976D01*
X47934619Y47569357D01*
X47934619Y47188405D02*
X47887000Y47140786D01*
X47839381Y47045548D01*
X47839381Y46807452D01*
X47887000Y46712214D01*
X47934619Y46664595D01*
X48029857Y46616976D01*
X48125095Y46616976D01*
X48267952Y46664595D01*
X48839381Y47236024D01*
X48839381Y46616976D01*
X48839381Y46140786D02*
X48839381Y45950310D01*
X48791762Y45855071D01*
X48744143Y45807452D01*
X48601286Y45712214D01*
X48410810Y45664595D01*
X48029857Y45664595D01*
X47934619Y45712214D01*
X47887000Y45759833D01*
X47839381Y45855071D01*
X47839381Y46045548D01*
X47887000Y46140786D01*
X47934619Y46188405D01*
X48029857Y46236024D01*
X48267952Y46236024D01*
X48363190Y46188405D01*
X48410810Y46140786D01*
X48458429Y46045548D01*
X48458429Y45855071D01*
X48410810Y45759833D01*
X48363190Y45712214D01*
X48267952Y45664595D01*
X46775643Y47124857D02*
X46823262Y47172476D01*
X46870881Y47315333D01*
X46870881Y47410571D01*
X46823262Y47553429D01*
X46728024Y47648667D01*
X46632786Y47696286D01*
X46442310Y47743905D01*
X46299452Y47743905D01*
X46108976Y47696286D01*
X46013738Y47648667D01*
X45918500Y47553429D01*
X45870881Y47410571D01*
X45870881Y47315333D01*
X45918500Y47172476D01*
X45966119Y47124857D01*
X45870881Y46791524D02*
X45870881Y46172476D01*
X46251833Y46505810D01*
X46251833Y46362952D01*
X46299452Y46267714D01*
X46347071Y46220095D01*
X46442310Y46172476D01*
X46680405Y46172476D01*
X46775643Y46220095D01*
X46823262Y46267714D01*
X46870881Y46362952D01*
X46870881Y46648667D01*
X46823262Y46743905D01*
X46775643Y46791524D01*
X45870881Y45553429D02*
X45870881Y45458190D01*
X45918500Y45362952D01*
X45966119Y45315333D01*
X46061357Y45267714D01*
X46251833Y45220095D01*
X46489929Y45220095D01*
X46680405Y45267714D01*
X46775643Y45315333D01*
X46823262Y45362952D01*
X46870881Y45458190D01*
X46870881Y45553429D01*
X46823262Y45648667D01*
X46775643Y45696286D01*
X46680405Y45743905D01*
X46489929Y45791524D01*
X46251833Y45791524D01*
X46061357Y45743905D01*
X45966119Y45696286D01*
X45918500Y45648667D01*
X45870881Y45553429D01*
X44807143Y47378857D02*
X44854762Y47426476D01*
X44902381Y47569333D01*
X44902381Y47664571D01*
X44854762Y47807429D01*
X44759524Y47902667D01*
X44664286Y47950286D01*
X44473810Y47997905D01*
X44330952Y47997905D01*
X44140476Y47950286D01*
X44045238Y47902667D01*
X43950000Y47807429D01*
X43902381Y47664571D01*
X43902381Y47569333D01*
X43950000Y47426476D01*
X43997619Y47378857D01*
X43902381Y47045524D02*
X43902381Y46426476D01*
X44283333Y46759810D01*
X44283333Y46616952D01*
X44330952Y46521714D01*
X44378571Y46474095D01*
X44473810Y46426476D01*
X44711905Y46426476D01*
X44807143Y46474095D01*
X44854762Y46521714D01*
X44902381Y46616952D01*
X44902381Y46902667D01*
X44854762Y46997905D01*
X44807143Y47045524D01*
X44902381Y45474095D02*
X44902381Y46045524D01*
X44902381Y45759810D02*
X43902381Y45759810D01*
X44045238Y45855048D01*
X44140476Y45950286D01*
X44188095Y46045524D01*
X67722738Y51458881D02*
X67817976Y51506500D01*
X67913214Y51601738D01*
X68056071Y51744595D01*
X68151310Y51792214D01*
X68246548Y51792214D01*
X68198929Y51554119D02*
X68294167Y51601738D01*
X68389405Y51696976D01*
X68437024Y51887452D01*
X68437024Y52220786D01*
X68389405Y52411262D01*
X68294167Y52506500D01*
X68198929Y52554119D01*
X68008452Y52554119D01*
X67913214Y52506500D01*
X67817976Y52411262D01*
X67770357Y52220786D01*
X67770357Y51887452D01*
X67817976Y51696976D01*
X67913214Y51601738D01*
X68008452Y51554119D01*
X68198929Y51554119D01*
X66817976Y51554119D02*
X67389405Y51554119D01*
X67103691Y51554119D02*
X67103691Y52554119D01*
X67198929Y52411262D01*
X67294167Y52316024D01*
X67389405Y52268405D01*
X68167238Y34186881D02*
X68262476Y34234500D01*
X68357714Y34329738D01*
X68500571Y34472595D01*
X68595810Y34520214D01*
X68691048Y34520214D01*
X68643429Y34282119D02*
X68738667Y34329738D01*
X68833905Y34424976D01*
X68881524Y34615452D01*
X68881524Y34948786D01*
X68833905Y35139262D01*
X68738667Y35234500D01*
X68643429Y35282119D01*
X68452952Y35282119D01*
X68357714Y35234500D01*
X68262476Y35139262D01*
X68214857Y34948786D01*
X68214857Y34615452D01*
X68262476Y34424976D01*
X68357714Y34329738D01*
X68452952Y34282119D01*
X68643429Y34282119D01*
X67881524Y35282119D02*
X67262476Y35282119D01*
X67595810Y34901167D01*
X67452952Y34901167D01*
X67357714Y34853548D01*
X67310095Y34805929D01*
X67262476Y34710690D01*
X67262476Y34472595D01*
X67310095Y34377357D01*
X67357714Y34329738D01*
X67452952Y34282119D01*
X67738667Y34282119D01*
X67833905Y34329738D01*
X67881524Y34377357D01*
X67595738Y17232381D02*
X67690976Y17280000D01*
X67786214Y17375238D01*
X67929071Y17518095D01*
X68024310Y17565714D01*
X68119548Y17565714D01*
X68071929Y17327619D02*
X68167167Y17375238D01*
X68262405Y17470476D01*
X68310024Y17660952D01*
X68310024Y17994286D01*
X68262405Y18184762D01*
X68167167Y18280000D01*
X68071929Y18327619D01*
X67881452Y18327619D01*
X67786214Y18280000D01*
X67690976Y18184762D01*
X67643357Y17994286D01*
X67643357Y17660952D01*
X67690976Y17470476D01*
X67786214Y17375238D01*
X67881452Y17327619D01*
X68071929Y17327619D01*
X66738595Y18327619D02*
X67214786Y18327619D01*
X67262405Y17851429D01*
X67214786Y17899048D01*
X67119548Y17946667D01*
X66881452Y17946667D01*
X66786214Y17899048D01*
X66738595Y17851429D01*
X66690976Y17756190D01*
X66690976Y17518095D01*
X66738595Y17422857D01*
X66786214Y17375238D01*
X66881452Y17327619D01*
X67119548Y17327619D01*
X67214786Y17375238D01*
X67262405Y17422857D01*
X60356738Y10564881D02*
X60451976Y10612500D01*
X60547214Y10707738D01*
X60690071Y10850595D01*
X60785310Y10898214D01*
X60880548Y10898214D01*
X60832929Y10660119D02*
X60928167Y10707738D01*
X61023405Y10802976D01*
X61071024Y10993452D01*
X61071024Y11326786D01*
X61023405Y11517262D01*
X60928167Y11612500D01*
X60832929Y11660119D01*
X60642452Y11660119D01*
X60547214Y11612500D01*
X60451976Y11517262D01*
X60404357Y11326786D01*
X60404357Y10993452D01*
X60451976Y10802976D01*
X60547214Y10707738D01*
X60642452Y10660119D01*
X60832929Y10660119D01*
X59547214Y11660119D02*
X59737691Y11660119D01*
X59832929Y11612500D01*
X59880548Y11564881D01*
X59975786Y11422024D01*
X60023405Y11231548D01*
X60023405Y10850595D01*
X59975786Y10755357D01*
X59928167Y10707738D01*
X59832929Y10660119D01*
X59642452Y10660119D01*
X59547214Y10707738D01*
X59499595Y10755357D01*
X59451976Y10850595D01*
X59451976Y11088690D01*
X59499595Y11183929D01*
X59547214Y11231548D01*
X59642452Y11279167D01*
X59832929Y11279167D01*
X59928167Y11231548D01*
X59975786Y11183929D01*
X60023405Y11088690D01*
X10961666Y44196619D02*
X11295000Y44672810D01*
X11533095Y44196619D02*
X11533095Y45196619D01*
X11152142Y45196619D01*
X11056904Y45149000D01*
X11009285Y45101381D01*
X10961666Y45006143D01*
X10961666Y44863286D01*
X11009285Y44768048D01*
X11056904Y44720429D01*
X11152142Y44672810D01*
X11533095Y44672810D01*
X10580714Y45101381D02*
X10533095Y45149000D01*
X10437857Y45196619D01*
X10199761Y45196619D01*
X10104523Y45149000D01*
X10056904Y45101381D01*
X10009285Y45006143D01*
X10009285Y44910905D01*
X10056904Y44768048D01*
X10628333Y44196619D01*
X10009285Y44196619D01*
X63571357Y57087119D02*
X63904691Y57563310D01*
X64142786Y57087119D02*
X64142786Y58087119D01*
X63761833Y58087119D01*
X63666595Y58039500D01*
X63618976Y57991881D01*
X63571357Y57896643D01*
X63571357Y57753786D01*
X63618976Y57658548D01*
X63666595Y57610929D01*
X63761833Y57563310D01*
X64142786Y57563310D01*
X62618976Y57087119D02*
X63190405Y57087119D01*
X62904691Y57087119D02*
X62904691Y58087119D01*
X62999929Y57944262D01*
X63095167Y57849024D01*
X63190405Y57801405D01*
X61714214Y58087119D02*
X62190405Y58087119D01*
X62238024Y57610929D01*
X62190405Y57658548D01*
X62095167Y57706167D01*
X61857071Y57706167D01*
X61761833Y57658548D01*
X61714214Y57610929D01*
X61666595Y57515690D01*
X61666595Y57277595D01*
X61714214Y57182357D01*
X61761833Y57134738D01*
X61857071Y57087119D01*
X62095167Y57087119D01*
X62190405Y57134738D01*
X62238024Y57182357D01*
X71508857Y41140119D02*
X71842191Y41616310D01*
X72080286Y41140119D02*
X72080286Y42140119D01*
X71699333Y42140119D01*
X71604095Y42092500D01*
X71556476Y42044881D01*
X71508857Y41949643D01*
X71508857Y41806786D01*
X71556476Y41711548D01*
X71604095Y41663929D01*
X71699333Y41616310D01*
X72080286Y41616310D01*
X70556476Y41140119D02*
X71127905Y41140119D01*
X70842191Y41140119D02*
X70842191Y42140119D01*
X70937429Y41997262D01*
X71032667Y41902024D01*
X71127905Y41854405D01*
X70223143Y42140119D02*
X69556476Y42140119D01*
X69985048Y41140119D01*
X55316357Y54602119D02*
X55649691Y55078310D01*
X55887786Y54602119D02*
X55887786Y55602119D01*
X55506833Y55602119D01*
X55411595Y55554500D01*
X55363976Y55506881D01*
X55316357Y55411643D01*
X55316357Y55268786D01*
X55363976Y55173548D01*
X55411595Y55125929D01*
X55506833Y55078310D01*
X55887786Y55078310D01*
X54363976Y54602119D02*
X54935405Y54602119D01*
X54649691Y54602119D02*
X54649691Y55602119D01*
X54744929Y55459262D01*
X54840167Y55364024D01*
X54935405Y55316405D01*
X53887786Y54602119D02*
X53697310Y54602119D01*
X53602071Y54649738D01*
X53554452Y54697357D01*
X53459214Y54840214D01*
X53411595Y55030690D01*
X53411595Y55411643D01*
X53459214Y55506881D01*
X53506833Y55554500D01*
X53602071Y55602119D01*
X53792548Y55602119D01*
X53887786Y55554500D01*
X53935405Y55506881D01*
X53983024Y55411643D01*
X53983024Y55173548D01*
X53935405Y55078310D01*
X53887786Y55030690D01*
X53792548Y54983071D01*
X53602071Y54983071D01*
X53506833Y55030690D01*
X53459214Y55078310D01*
X53411595Y55173548D01*
X55443357Y48188619D02*
X55776691Y48664810D01*
X56014786Y48188619D02*
X56014786Y49188619D01*
X55633833Y49188619D01*
X55538595Y49141000D01*
X55490976Y49093381D01*
X55443357Y48998143D01*
X55443357Y48855286D01*
X55490976Y48760048D01*
X55538595Y48712429D01*
X55633833Y48664810D01*
X56014786Y48664810D01*
X55062405Y49093381D02*
X55014786Y49141000D01*
X54919548Y49188619D01*
X54681452Y49188619D01*
X54586214Y49141000D01*
X54538595Y49093381D01*
X54490976Y48998143D01*
X54490976Y48902905D01*
X54538595Y48760048D01*
X55110024Y48188619D01*
X54490976Y48188619D01*
X53871929Y49188619D02*
X53776690Y49188619D01*
X53681452Y49141000D01*
X53633833Y49093381D01*
X53586214Y48998143D01*
X53538595Y48807667D01*
X53538595Y48569571D01*
X53586214Y48379095D01*
X53633833Y48283857D01*
X53681452Y48236238D01*
X53776690Y48188619D01*
X53871929Y48188619D01*
X53967167Y48236238D01*
X54014786Y48283857D01*
X54062405Y48379095D01*
X54110024Y48569571D01*
X54110024Y48807667D01*
X54062405Y48998143D01*
X54014786Y49093381D01*
X53967167Y49141000D01*
X53871929Y49188619D01*
X61539357Y39933619D02*
X61872691Y40409810D01*
X62110786Y39933619D02*
X62110786Y40933619D01*
X61729833Y40933619D01*
X61634595Y40886000D01*
X61586976Y40838381D01*
X61539357Y40743143D01*
X61539357Y40600286D01*
X61586976Y40505048D01*
X61634595Y40457429D01*
X61729833Y40409810D01*
X62110786Y40409810D01*
X61158405Y40838381D02*
X61110786Y40886000D01*
X61015548Y40933619D01*
X60777452Y40933619D01*
X60682214Y40886000D01*
X60634595Y40838381D01*
X60586976Y40743143D01*
X60586976Y40647905D01*
X60634595Y40505048D01*
X61206024Y39933619D01*
X60586976Y39933619D01*
X59634595Y39933619D02*
X60206024Y39933619D01*
X59920310Y39933619D02*
X59920310Y40933619D01*
X60015548Y40790762D01*
X60110786Y40695524D01*
X60206024Y40647905D01*
X71508857Y23868119D02*
X71842191Y24344310D01*
X72080286Y23868119D02*
X72080286Y24868119D01*
X71699333Y24868119D01*
X71604095Y24820500D01*
X71556476Y24772881D01*
X71508857Y24677643D01*
X71508857Y24534786D01*
X71556476Y24439548D01*
X71604095Y24391929D01*
X71699333Y24344310D01*
X72080286Y24344310D01*
X71127905Y24772881D02*
X71080286Y24820500D01*
X70985048Y24868119D01*
X70746952Y24868119D01*
X70651714Y24820500D01*
X70604095Y24772881D01*
X70556476Y24677643D01*
X70556476Y24582405D01*
X70604095Y24439548D01*
X71175524Y23868119D01*
X70556476Y23868119D01*
X70223143Y24868119D02*
X69604095Y24868119D01*
X69937429Y24487167D01*
X69794571Y24487167D01*
X69699333Y24439548D01*
X69651714Y24391929D01*
X69604095Y24296690D01*
X69604095Y24058595D01*
X69651714Y23963357D01*
X69699333Y23915738D01*
X69794571Y23868119D01*
X70080286Y23868119D01*
X70175524Y23915738D01*
X70223143Y23963357D01*
X54871857Y37266619D02*
X55205191Y37742810D01*
X55443286Y37266619D02*
X55443286Y38266619D01*
X55062333Y38266619D01*
X54967095Y38219000D01*
X54919476Y38171381D01*
X54871857Y38076143D01*
X54871857Y37933286D01*
X54919476Y37838048D01*
X54967095Y37790429D01*
X55062333Y37742810D01*
X55443286Y37742810D01*
X54490905Y38171381D02*
X54443286Y38219000D01*
X54348048Y38266619D01*
X54109952Y38266619D01*
X54014714Y38219000D01*
X53967095Y38171381D01*
X53919476Y38076143D01*
X53919476Y37980905D01*
X53967095Y37838048D01*
X54538524Y37266619D01*
X53919476Y37266619D01*
X53014714Y38266619D02*
X53490905Y38266619D01*
X53538524Y37790429D01*
X53490905Y37838048D01*
X53395667Y37885667D01*
X53157571Y37885667D01*
X53062333Y37838048D01*
X53014714Y37790429D01*
X52967095Y37695190D01*
X52967095Y37457095D01*
X53014714Y37361857D01*
X53062333Y37314238D01*
X53157571Y37266619D01*
X53395667Y37266619D01*
X53490905Y37314238D01*
X53538524Y37361857D01*
X55062357Y31551619D02*
X55395691Y32027810D01*
X55633786Y31551619D02*
X55633786Y32551619D01*
X55252833Y32551619D01*
X55157595Y32504000D01*
X55109976Y32456381D01*
X55062357Y32361143D01*
X55062357Y32218286D01*
X55109976Y32123048D01*
X55157595Y32075429D01*
X55252833Y32027810D01*
X55633786Y32027810D01*
X54681405Y32456381D02*
X54633786Y32504000D01*
X54538548Y32551619D01*
X54300452Y32551619D01*
X54205214Y32504000D01*
X54157595Y32456381D01*
X54109976Y32361143D01*
X54109976Y32265905D01*
X54157595Y32123048D01*
X54729024Y31551619D01*
X54109976Y31551619D01*
X53252833Y32551619D02*
X53443310Y32551619D01*
X53538548Y32504000D01*
X53586167Y32456381D01*
X53681405Y32313524D01*
X53729024Y32123048D01*
X53729024Y31742095D01*
X53681405Y31646857D01*
X53633786Y31599238D01*
X53538548Y31551619D01*
X53348071Y31551619D01*
X53252833Y31599238D01*
X53205214Y31646857D01*
X53157595Y31742095D01*
X53157595Y31980190D01*
X53205214Y32075429D01*
X53252833Y32123048D01*
X53348071Y32170667D01*
X53538548Y32170667D01*
X53633786Y32123048D01*
X53681405Y32075429D01*
X53729024Y31980190D01*
X63571357Y23114619D02*
X63904691Y23590810D01*
X64142786Y23114619D02*
X64142786Y24114619D01*
X63761833Y24114619D01*
X63666595Y24067000D01*
X63618976Y24019381D01*
X63571357Y23924143D01*
X63571357Y23781286D01*
X63618976Y23686048D01*
X63666595Y23638429D01*
X63761833Y23590810D01*
X64142786Y23590810D01*
X63190405Y24019381D02*
X63142786Y24067000D01*
X63047548Y24114619D01*
X62809452Y24114619D01*
X62714214Y24067000D01*
X62666595Y24019381D01*
X62618976Y23924143D01*
X62618976Y23828905D01*
X62666595Y23686048D01*
X63238024Y23114619D01*
X62618976Y23114619D01*
X62285643Y24114619D02*
X61618976Y24114619D01*
X62047548Y23114619D01*
X71508857Y6723119D02*
X71842191Y7199310D01*
X72080286Y6723119D02*
X72080286Y7723119D01*
X71699333Y7723119D01*
X71604095Y7675500D01*
X71556476Y7627881D01*
X71508857Y7532643D01*
X71508857Y7389786D01*
X71556476Y7294548D01*
X71604095Y7246929D01*
X71699333Y7199310D01*
X72080286Y7199310D01*
X71127905Y7627881D02*
X71080286Y7675500D01*
X70985048Y7723119D01*
X70746952Y7723119D01*
X70651714Y7675500D01*
X70604095Y7627881D01*
X70556476Y7532643D01*
X70556476Y7437405D01*
X70604095Y7294548D01*
X71175524Y6723119D01*
X70556476Y6723119D01*
X70080286Y6723119D02*
X69889810Y6723119D01*
X69794571Y6770738D01*
X69746952Y6818357D01*
X69651714Y6961214D01*
X69604095Y7151690D01*
X69604095Y7532643D01*
X69651714Y7627881D01*
X69699333Y7675500D01*
X69794571Y7723119D01*
X69985048Y7723119D01*
X70080286Y7675500D01*
X70127905Y7627881D01*
X70175524Y7532643D01*
X70175524Y7294548D01*
X70127905Y7199310D01*
X70080286Y7151690D01*
X69985048Y7104071D01*
X69794571Y7104071D01*
X69699333Y7151690D01*
X69651714Y7199310D01*
X69604095Y7294548D01*
X54998857Y20947119D02*
X55332191Y21423310D01*
X55570286Y20947119D02*
X55570286Y21947119D01*
X55189333Y21947119D01*
X55094095Y21899500D01*
X55046476Y21851881D01*
X54998857Y21756643D01*
X54998857Y21613786D01*
X55046476Y21518548D01*
X55094095Y21470929D01*
X55189333Y21423310D01*
X55570286Y21423310D01*
X54665524Y21947119D02*
X54046476Y21947119D01*
X54379810Y21566167D01*
X54236952Y21566167D01*
X54141714Y21518548D01*
X54094095Y21470929D01*
X54046476Y21375690D01*
X54046476Y21137595D01*
X54094095Y21042357D01*
X54141714Y20994738D01*
X54236952Y20947119D01*
X54522667Y20947119D01*
X54617905Y20994738D01*
X54665524Y21042357D01*
X53427429Y21947119D02*
X53332190Y21947119D01*
X53236952Y21899500D01*
X53189333Y21851881D01*
X53141714Y21756643D01*
X53094095Y21566167D01*
X53094095Y21328071D01*
X53141714Y21137595D01*
X53189333Y21042357D01*
X53236952Y20994738D01*
X53332190Y20947119D01*
X53427429Y20947119D01*
X53522667Y20994738D01*
X53570286Y21042357D01*
X53617905Y21137595D01*
X53665524Y21328071D01*
X53665524Y21566167D01*
X53617905Y21756643D01*
X53570286Y21851881D01*
X53522667Y21899500D01*
X53427429Y21947119D01*
X55062357Y14851119D02*
X55395691Y15327310D01*
X55633786Y14851119D02*
X55633786Y15851119D01*
X55252833Y15851119D01*
X55157595Y15803500D01*
X55109976Y15755881D01*
X55062357Y15660643D01*
X55062357Y15517786D01*
X55109976Y15422548D01*
X55157595Y15374929D01*
X55252833Y15327310D01*
X55633786Y15327310D01*
X54729024Y15851119D02*
X54109976Y15851119D01*
X54443310Y15470167D01*
X54300452Y15470167D01*
X54205214Y15422548D01*
X54157595Y15374929D01*
X54109976Y15279690D01*
X54109976Y15041595D01*
X54157595Y14946357D01*
X54205214Y14898738D01*
X54300452Y14851119D01*
X54586167Y14851119D01*
X54681405Y14898738D01*
X54729024Y14946357D01*
X53157595Y14851119D02*
X53729024Y14851119D01*
X53443310Y14851119D02*
X53443310Y15851119D01*
X53538548Y15708262D01*
X53633786Y15613024D01*
X53729024Y15565405D01*
X50299857Y27487619D02*
X50633191Y27963810D01*
X50871286Y27487619D02*
X50871286Y28487619D01*
X50490333Y28487619D01*
X50395095Y28440000D01*
X50347476Y28392381D01*
X50299857Y28297143D01*
X50299857Y28154286D01*
X50347476Y28059048D01*
X50395095Y28011429D01*
X50490333Y27963810D01*
X50871286Y27963810D01*
X49347476Y27487619D02*
X49918905Y27487619D01*
X49633191Y27487619D02*
X49633191Y28487619D01*
X49728429Y28344762D01*
X49823667Y28249524D01*
X49918905Y28201905D01*
X48776048Y28059048D02*
X48871286Y28106667D01*
X48918905Y28154286D01*
X48966524Y28249524D01*
X48966524Y28297143D01*
X48918905Y28392381D01*
X48871286Y28440000D01*
X48776048Y28487619D01*
X48585571Y28487619D01*
X48490333Y28440000D01*
X48442714Y28392381D01*
X48395095Y28297143D01*
X48395095Y28249524D01*
X48442714Y28154286D01*
X48490333Y28106667D01*
X48585571Y28059048D01*
X48776048Y28059048D01*
X48871286Y28011429D01*
X48918905Y27963810D01*
X48966524Y27868571D01*
X48966524Y27678095D01*
X48918905Y27582857D01*
X48871286Y27535238D01*
X48776048Y27487619D01*
X48585571Y27487619D01*
X48490333Y27535238D01*
X48442714Y27582857D01*
X48395095Y27678095D01*
X48395095Y27868571D01*
X48442714Y27963810D01*
X48490333Y28011429D01*
X48585571Y28059048D01*
X50172857Y10723619D02*
X50506191Y11199810D01*
X50744286Y10723619D02*
X50744286Y11723619D01*
X50363333Y11723619D01*
X50268095Y11676000D01*
X50220476Y11628381D01*
X50172857Y11533143D01*
X50172857Y11390286D01*
X50220476Y11295048D01*
X50268095Y11247429D01*
X50363333Y11199810D01*
X50744286Y11199810D01*
X49791905Y11628381D02*
X49744286Y11676000D01*
X49649048Y11723619D01*
X49410952Y11723619D01*
X49315714Y11676000D01*
X49268095Y11628381D01*
X49220476Y11533143D01*
X49220476Y11437905D01*
X49268095Y11295048D01*
X49839524Y10723619D01*
X49220476Y10723619D01*
X48363333Y11390286D02*
X48363333Y10723619D01*
X48601429Y11771238D02*
X48839524Y11056952D01*
X48220476Y11056952D01*
M02*
