G04 #@! TF.FileFunction,Copper,L2,Bot,Signal*
%FSLAX46Y46*%
G04 Gerber Fmt 4.6, Leading zero omitted, Abs format (unit mm)*
G04 Created by KiCad (PCBNEW 4.0.4-stable) date 08/15/17 16:15:30*
%MOMM*%
%LPD*%
G01*
G04 APERTURE LIST*
%ADD10C,0.100000*%
%ADD11R,1.270000X1.270000*%
%ADD12R,2.200000X1.200000*%
%ADD13R,1.600000X2.000000*%
%ADD14R,2.000000X1.600000*%
%ADD15R,1.700000X1.700000*%
%ADD16O,1.700000X1.700000*%
%ADD17C,5.999480*%
%ADD18R,2.000000X1.700000*%
%ADD19C,1.750000*%
%ADD20R,4.600000X6.200000*%
%ADD21R,2.000000X1.000000*%
%ADD22R,2.400000X2.400000*%
%ADD23C,2.400000*%
%ADD24C,0.700000*%
%ADD25C,0.800000*%
%ADD26C,0.250000*%
%ADD27C,0.400000*%
%ADD28C,0.200000*%
G04 APERTURE END LIST*
D10*
D11*
X69913500Y47307500D03*
X69913500Y46037500D03*
X69913500Y44767500D03*
X69913500Y43497500D03*
X68643500Y47307500D03*
X68643500Y46037500D03*
X67373500Y46037500D03*
X67373500Y47307500D03*
X66103500Y47307500D03*
X66103500Y46037500D03*
X64833500Y46037500D03*
X64833500Y47307500D03*
X63563500Y47307500D03*
X63563500Y46037500D03*
X66103500Y44767500D03*
X67373500Y44767500D03*
X68643500Y44767500D03*
X68643500Y43497500D03*
X67373500Y43497500D03*
X66103500Y43497500D03*
X64833500Y43497500D03*
X64833500Y44767500D03*
X63563500Y44767500D03*
X63563500Y43497500D03*
D12*
X59363500Y43122500D03*
X59363500Y47682500D03*
D11*
X69913500Y30162500D03*
X69913500Y28892500D03*
X69913500Y27622500D03*
X69913500Y26352500D03*
X68643500Y30162500D03*
X68643500Y28892500D03*
X67373500Y28892500D03*
X67373500Y30162500D03*
X66103500Y30162500D03*
X66103500Y28892500D03*
X64833500Y28892500D03*
X64833500Y30162500D03*
X63563500Y30162500D03*
X63563500Y28892500D03*
X66103500Y27622500D03*
X67373500Y27622500D03*
X68643500Y27622500D03*
X68643500Y26352500D03*
X67373500Y26352500D03*
X66103500Y26352500D03*
X64833500Y26352500D03*
X64833500Y27622500D03*
X63563500Y27622500D03*
X63563500Y26352500D03*
D12*
X59363500Y25977500D03*
X59363500Y30537500D03*
D13*
X12827000Y50641000D03*
X12827000Y46641000D03*
D14*
X47339000Y23622000D03*
X43339000Y23622000D03*
X47339000Y21590000D03*
X43339000Y21590000D03*
X47339000Y19558000D03*
X43339000Y19558000D03*
X47339000Y17526000D03*
X43339000Y17526000D03*
D13*
X48260000Y31274000D03*
X48260000Y35274000D03*
X48260000Y43783000D03*
X48260000Y39783000D03*
X46355000Y43783000D03*
X46355000Y39783000D03*
X44450000Y43783000D03*
X44450000Y39783000D03*
D15*
X2921000Y24638000D03*
D16*
X2921000Y27178000D03*
X2921000Y29718000D03*
X2921000Y32258000D03*
X2921000Y34798000D03*
X2921000Y37338000D03*
D17*
X7112000Y8382000D03*
X7239000Y15113000D03*
D15*
X26416000Y52451000D03*
D16*
X26416000Y54991000D03*
D15*
X2921000Y54991000D03*
D16*
X2921000Y52451000D03*
X2921000Y49911000D03*
D15*
X2921000Y42164000D03*
D16*
X2921000Y44704000D03*
X2921000Y47244000D03*
D11*
X58928000Y49911000D03*
X58928000Y51181000D03*
X58928000Y52451000D03*
X58928000Y53721000D03*
X60198000Y49911000D03*
X60198000Y51181000D03*
X61468000Y51181000D03*
X61468000Y49911000D03*
X62738000Y49911000D03*
X62738000Y51181000D03*
X64008000Y51181000D03*
X64008000Y49911000D03*
X65278000Y49911000D03*
X65278000Y51181000D03*
X62738000Y52451000D03*
X61468000Y52451000D03*
X60198000Y52451000D03*
X60198000Y53721000D03*
X61468000Y53721000D03*
X62738000Y53721000D03*
X64008000Y53721000D03*
X64008000Y52451000D03*
X65278000Y52451000D03*
X65278000Y53721000D03*
D12*
X69478000Y54096000D03*
X69478000Y49536000D03*
D11*
X59182000Y32766000D03*
X59182000Y34036000D03*
X59182000Y35306000D03*
X59182000Y36576000D03*
X60452000Y32766000D03*
X60452000Y34036000D03*
X61722000Y34036000D03*
X61722000Y32766000D03*
X62992000Y32766000D03*
X62992000Y34036000D03*
X64262000Y34036000D03*
X64262000Y32766000D03*
X65532000Y32766000D03*
X65532000Y34036000D03*
X62992000Y35306000D03*
X61722000Y35306000D03*
X60452000Y35306000D03*
X60452000Y36576000D03*
X61722000Y36576000D03*
X62992000Y36576000D03*
X64262000Y36576000D03*
X64262000Y35306000D03*
X65532000Y35306000D03*
X65532000Y36576000D03*
D12*
X69732000Y36951000D03*
X69732000Y32391000D03*
D11*
X58991500Y15938500D03*
X58991500Y17208500D03*
X58991500Y18478500D03*
X58991500Y19748500D03*
X60261500Y15938500D03*
X60261500Y17208500D03*
X61531500Y17208500D03*
X61531500Y15938500D03*
X62801500Y15938500D03*
X62801500Y17208500D03*
X64071500Y17208500D03*
X64071500Y15938500D03*
X65341500Y15938500D03*
X65341500Y17208500D03*
X62801500Y18478500D03*
X61531500Y18478500D03*
X60261500Y18478500D03*
X60261500Y19748500D03*
X61531500Y19748500D03*
X62801500Y19748500D03*
X64071500Y19748500D03*
X64071500Y18478500D03*
X65341500Y18478500D03*
X65341500Y19748500D03*
D12*
X69541500Y20123500D03*
X69541500Y15563500D03*
D11*
X69977000Y13335000D03*
X69977000Y12065000D03*
X69977000Y10795000D03*
X69977000Y9525000D03*
X68707000Y13335000D03*
X68707000Y12065000D03*
X67437000Y12065000D03*
X67437000Y13335000D03*
X66167000Y13335000D03*
X66167000Y12065000D03*
X64897000Y12065000D03*
X64897000Y13335000D03*
X63627000Y13335000D03*
X63627000Y12065000D03*
X66167000Y10795000D03*
X67437000Y10795000D03*
X68707000Y10795000D03*
X68707000Y9525000D03*
X67437000Y9525000D03*
X66167000Y9525000D03*
X64897000Y9525000D03*
X64897000Y10795000D03*
X63627000Y10795000D03*
X63627000Y9525000D03*
D12*
X59427000Y9150000D03*
X59427000Y13710000D03*
D18*
X12795000Y42799000D03*
X8795000Y42799000D03*
X64928500Y55689500D03*
X60928500Y55689500D03*
X67913000Y41465500D03*
X63913000Y41465500D03*
X56737000Y50800000D03*
X52737000Y50800000D03*
X52737000Y52832000D03*
X56737000Y52832000D03*
X65182500Y38544500D03*
X61182500Y38544500D03*
X67913000Y24447500D03*
X63913000Y24447500D03*
X56356000Y33528000D03*
X52356000Y33528000D03*
X52356000Y35687000D03*
X56356000Y35687000D03*
X64928500Y21717000D03*
X60928500Y21717000D03*
X67976500Y7556500D03*
X63976500Y7556500D03*
X56483000Y17272000D03*
X52483000Y17272000D03*
X52483000Y19431000D03*
X56483000Y19431000D03*
D19*
X18669000Y42291000D03*
X18669000Y44831000D03*
X18669000Y47371000D03*
X18669000Y21971000D03*
X5969000Y52451000D03*
X5969000Y49911000D03*
X5969000Y47371000D03*
X5969000Y44831000D03*
X5969000Y42291000D03*
X5969000Y39751000D03*
X5969000Y37211000D03*
X5969000Y34671000D03*
X5969000Y32131000D03*
X5969000Y29591000D03*
X5969000Y27051000D03*
X5969000Y24511000D03*
X5969000Y21971000D03*
X21209000Y21971000D03*
X21209000Y24511000D03*
X21209000Y27051000D03*
X21209000Y29591000D03*
X21209000Y32131000D03*
X21209000Y34671000D03*
X21209000Y37211000D03*
X21209000Y39751000D03*
X21209000Y42291000D03*
X21209000Y44831000D03*
X21209000Y47371000D03*
X21209000Y49911000D03*
X21209000Y52451000D03*
X21209000Y54991000D03*
X5969000Y54991000D03*
D11*
X47561500Y33401000D03*
X47561500Y34671000D03*
X46291500Y34671000D03*
X46291500Y33401000D03*
X45021500Y33401000D03*
X45021500Y34671000D03*
X45021500Y39751000D03*
X45021500Y38481000D03*
X46291500Y38481000D03*
X46291500Y39751000D03*
X47561500Y39751000D03*
X47561500Y38481000D03*
X47561500Y35941000D03*
X47561500Y37211000D03*
X45021500Y37211000D03*
X45021500Y35941000D03*
X46291500Y35941000D03*
X46291500Y37211000D03*
D20*
X54657000Y28067000D03*
X44657000Y28067000D03*
D21*
X52312000Y28067000D03*
X47002000Y28067000D03*
D20*
X54657000Y11176000D03*
X44657000Y11176000D03*
D21*
X52312000Y11176000D03*
X47002000Y11176000D03*
D22*
X18161000Y14478000D03*
D23*
X18161000Y9478000D03*
D22*
X31496000Y14478000D03*
D23*
X31496000Y9478000D03*
D24*
X49403000Y28702000D03*
X51562000Y42164000D03*
X36155000Y54356000D03*
X28956000Y33528000D03*
D25*
X40259000Y49689000D03*
X42735500Y50459000D03*
X31432500Y49625000D03*
X46131500Y49911000D03*
D24*
X38163500Y27686000D03*
X41021000Y29337000D03*
X17907000Y24511000D03*
X59372500Y41846500D03*
X59309000Y24701500D03*
X59436000Y7937500D03*
X27686000Y48641000D03*
X35052000Y12065000D03*
X22860000Y12065000D03*
X35941000Y13208000D03*
X23749000Y12827000D03*
X34544000Y28448000D03*
X33909000Y27686000D03*
X24511000Y32131000D03*
D25*
X29210000Y48260000D03*
X49530000Y47625000D03*
D24*
X36703000Y27432000D03*
X40259000Y37592000D03*
X27559000Y34036000D03*
X52832000Y39052500D03*
X54800500Y43116500D03*
X55753000Y54483000D03*
X54102000Y36068000D03*
X56642000Y23876000D03*
X35179000Y29210000D03*
X16446500Y39814500D03*
X38227000Y35560000D03*
X37973000Y31623000D03*
X24955500Y38417500D03*
X40449500Y33083500D03*
X37782500Y30162500D03*
X37338000Y32385000D03*
X27114500Y45593000D03*
X38163500Y34607500D03*
X38227000Y33655000D03*
X15430500Y39306500D03*
X16192500Y49593500D03*
X37782500Y41148000D03*
X47752000Y25527000D03*
X51689000Y26797000D03*
X54292500Y31813500D03*
X54483000Y14859000D03*
X59309000Y46355000D03*
X56261000Y42926000D03*
X56134000Y39370000D03*
X48768000Y11176000D03*
X50419000Y11176000D03*
D26*
X47339000Y17526000D02*
X47339000Y19558000D01*
X47339000Y19558000D02*
X47339000Y21590000D01*
X47339000Y21590000D02*
X47339000Y23622000D01*
X47339000Y23622000D02*
X48228000Y24511000D01*
X48228000Y24511000D02*
X49149000Y24511000D01*
X49149000Y24511000D02*
X49403000Y24765000D01*
X49403000Y24765000D02*
X49403000Y28702000D01*
X48260000Y30512000D02*
X48260000Y29845000D01*
X48260000Y29845000D02*
X49403000Y28702000D01*
X44450000Y43783000D02*
X46355000Y43783000D01*
X46355000Y43783000D02*
X48260000Y43783000D01*
X48260000Y43783000D02*
X48387000Y43656000D01*
X48387000Y43656000D02*
X48387000Y42418000D01*
X48387000Y42418000D02*
X48641000Y42164000D01*
X48641000Y42164000D02*
X51562000Y42164000D01*
X36155000Y54356000D02*
X36195000Y54356000D01*
D27*
X40259000Y49689000D02*
X40259000Y49720500D01*
X42735500Y50459000D02*
X42735500Y50482500D01*
D26*
X31432500Y49625000D02*
X31527500Y49530000D01*
X31527500Y49530000D02*
X31750000Y49530000D01*
D27*
X46131500Y49911000D02*
X46164500Y49911000D01*
D26*
X38163500Y27686000D02*
X39814500Y29337000D01*
X39814500Y29337000D02*
X41021000Y29337000D01*
X2921000Y29718000D02*
X3683000Y29718000D01*
X3683000Y29718000D02*
X4826000Y30861000D01*
X4826000Y30861000D02*
X11557000Y30861000D01*
X11557000Y30861000D02*
X17907000Y24511000D01*
X64928500Y55689500D02*
X67884500Y55689500D01*
X67884500Y55689500D02*
X69478000Y54096000D01*
X63913000Y41465500D02*
X59753500Y41465500D01*
X59753500Y41465500D02*
X59372500Y41846500D01*
X59363500Y41855500D02*
X59363500Y43122500D01*
X59372500Y41846500D02*
X59363500Y41855500D01*
X65182500Y38544500D02*
X68138500Y38544500D01*
X68138500Y38544500D02*
X69732000Y36951000D01*
X63913000Y24447500D02*
X59563000Y24447500D01*
X59563000Y24447500D02*
X59309000Y24701500D01*
X59363500Y24756000D02*
X59363500Y25977500D01*
X59309000Y24701500D02*
X59363500Y24756000D01*
X64928500Y21717000D02*
X67948000Y21717000D01*
X67948000Y21717000D02*
X69541500Y20123500D01*
X63976500Y7556500D02*
X59817000Y7556500D01*
X59817000Y7556500D02*
X59436000Y7937500D01*
X59427000Y7946500D02*
X59427000Y9150000D01*
X59436000Y7937500D02*
X59427000Y7946500D01*
X56737000Y50800000D02*
X56737000Y49689000D01*
X56737000Y49689000D02*
X57658000Y48768000D01*
X57658000Y48768000D02*
X62103000Y48768000D01*
X62103000Y48768000D02*
X63563500Y47307500D01*
X56356000Y33528000D02*
X56356000Y33306000D01*
X56356000Y33306000D02*
X58039000Y31623000D01*
X58039000Y31623000D02*
X62103000Y31623000D01*
X62103000Y31623000D02*
X63563500Y30162500D01*
X56483000Y17272000D02*
X56483000Y16288000D01*
X56483000Y16288000D02*
X58039000Y14732000D01*
X58039000Y14732000D02*
X62230000Y14732000D01*
X62230000Y14732000D02*
X63627000Y13335000D01*
X69541500Y9960500D02*
X69659500Y9842500D01*
X52737000Y50800000D02*
X49022000Y50800000D01*
X49022000Y50800000D02*
X48133000Y51689000D01*
X48133000Y51689000D02*
X30734000Y51689000D01*
X30734000Y51689000D02*
X27686000Y48641000D01*
X52737000Y52832000D02*
X52737000Y50800000D01*
X50419000Y22352000D02*
X50419000Y19812000D01*
X50419000Y19812000D02*
X49910301Y19303301D01*
X49910301Y19303301D02*
X49910301Y16636301D01*
X49910301Y16636301D02*
X48768000Y15494000D01*
X48768000Y15494000D02*
X37211000Y15494000D01*
X37211000Y15494000D02*
X35052000Y13335000D01*
X35052000Y13335000D02*
X35052000Y12065000D01*
X22860000Y12065000D02*
X19939000Y14986000D01*
X19939000Y14986000D02*
X19939000Y27432000D01*
X19939000Y27432000D02*
X19177000Y28194000D01*
X19177000Y28194000D02*
X19177000Y32639000D01*
X19177000Y32639000D02*
X21209000Y34671000D01*
X52356000Y35687000D02*
X51943000Y35687000D01*
X51943000Y35687000D02*
X50419000Y34163000D01*
X50419000Y34163000D02*
X50419000Y22352000D01*
X52356000Y33528000D02*
X52356000Y33433000D01*
X52356000Y33528000D02*
X52356000Y35687000D01*
X52483000Y19431000D02*
X51308000Y19431000D01*
X51308000Y19431000D02*
X50419000Y18542000D01*
X50419000Y18542000D02*
X50419000Y16383000D01*
X50419000Y16383000D02*
X49022000Y14986000D01*
X49022000Y14986000D02*
X37719000Y14986000D01*
X37719000Y14986000D02*
X35941000Y13208000D01*
X23749000Y12827000D02*
X23114000Y13462000D01*
X23114000Y13462000D02*
X23114000Y27686000D01*
X23114000Y27686000D02*
X21209000Y29591000D01*
X52483000Y17272000D02*
X52483000Y19431000D01*
X34036000Y28956000D02*
X34544000Y28448000D01*
X24320500Y35242500D02*
X21209000Y32131000D01*
X30162500Y35242500D02*
X24320500Y35242500D01*
X34036000Y31369000D02*
X30162500Y35242500D01*
X34036000Y28956000D02*
X34036000Y31369000D01*
X33401000Y28194000D02*
X33401000Y28448000D01*
X33909000Y27686000D02*
X33401000Y28194000D01*
X24511000Y32131000D02*
X27114500Y34734500D01*
X27114500Y34734500D02*
X29908500Y34734500D01*
X29908500Y34734500D02*
X33401000Y31242000D01*
X33401000Y31242000D02*
X33401000Y28448000D01*
X30480000Y48260000D02*
X29210000Y48260000D01*
X31115000Y47625000D02*
X30480000Y48260000D01*
X49530000Y47625000D02*
X31115000Y47625000D01*
X12795000Y42799000D02*
X18161000Y42799000D01*
X18161000Y42799000D02*
X18669000Y42291000D01*
X12827000Y46641000D02*
X12827000Y42831000D01*
X12827000Y42831000D02*
X12795000Y42799000D01*
X36703000Y27432000D02*
X41275000Y32004000D01*
X41275000Y32004000D02*
X41275000Y36576000D01*
X41275000Y36576000D02*
X40259000Y37592000D01*
X27559000Y34036000D02*
X24384000Y30861000D01*
X24384000Y30861000D02*
X20447000Y30861000D01*
X20447000Y30861000D02*
X19685000Y30099000D01*
X19685000Y30099000D02*
X19685000Y28575000D01*
X19685000Y28575000D02*
X21209000Y27051000D01*
X2921000Y44704000D02*
X3302000Y44704000D01*
X3302000Y44704000D02*
X4699000Y46101000D01*
X4699000Y46101000D02*
X6985000Y46101000D01*
X6985000Y46101000D02*
X8795000Y44291000D01*
X8795000Y44291000D02*
X8795000Y42799000D01*
X60928500Y55689500D02*
X56959500Y55689500D01*
X54800500Y41021000D02*
X52832000Y39052500D01*
X54800500Y43116500D02*
X54800500Y41021000D01*
X56959500Y55689500D02*
X55753000Y54483000D01*
X56578500Y38544500D02*
X61182500Y38544500D01*
X54102000Y36068000D02*
X56578500Y38544500D01*
X56642000Y23876000D02*
X58801000Y21717000D01*
X58801000Y21717000D02*
X60928500Y21717000D01*
X35179000Y29210000D02*
X34671000Y29718000D01*
X34671000Y29718000D02*
X34544000Y29718000D01*
X34544000Y29718000D02*
X34544000Y31750000D01*
X34544000Y31750000D02*
X30353000Y35941000D01*
X30353000Y35941000D02*
X20320000Y35941000D01*
X20320000Y35941000D02*
X16446500Y39814500D01*
X8763000Y47371000D02*
X5969000Y47371000D01*
X10033000Y48641000D02*
X8763000Y47371000D01*
X25146000Y48641000D02*
X10033000Y48641000D01*
X38227000Y35560000D02*
X25146000Y48641000D01*
X7683500Y39751000D02*
X5969000Y39751000D01*
X8953500Y41021000D02*
X7683500Y39751000D01*
X28257500Y41021000D02*
X8953500Y41021000D01*
X36385500Y32893000D02*
X28257500Y41021000D01*
X36385500Y31877000D02*
X36385500Y32893000D01*
X36639500Y31623000D02*
X36385500Y31877000D01*
X37973000Y31623000D02*
X36639500Y31623000D01*
X29908500Y38417500D02*
X24955500Y38417500D01*
X35814000Y32512000D02*
X29908500Y38417500D01*
X35814000Y31686500D02*
X35814000Y32512000D01*
X36576000Y30924500D02*
X35814000Y31686500D01*
X38290500Y30924500D02*
X36576000Y30924500D01*
X40449500Y33083500D02*
X38290500Y30924500D01*
X23368000Y37592000D02*
X21209000Y39751000D01*
X29718000Y37592000D02*
X23368000Y37592000D01*
X35242500Y32067500D02*
X29718000Y37592000D01*
X35242500Y31051500D02*
X35242500Y32067500D01*
X36131500Y30162500D02*
X35242500Y31051500D01*
X37782500Y30162500D02*
X36131500Y30162500D01*
X27749500Y42291000D02*
X21209000Y42291000D01*
X37084000Y32956500D02*
X27749500Y42291000D01*
X37084000Y32639000D02*
X37084000Y32956500D01*
X37338000Y32385000D02*
X37084000Y32639000D01*
X37401500Y35306000D02*
X27114500Y45593000D01*
X37465000Y35306000D02*
X37401500Y35306000D01*
X38163500Y34607500D02*
X37465000Y35306000D01*
X21209000Y47371000D02*
X23876000Y47371000D01*
X23876000Y47371000D02*
X37592000Y33655000D01*
X37592000Y33655000D02*
X38227000Y33655000D01*
X18669000Y36068000D02*
X18669000Y21971000D01*
X15430500Y39306500D02*
X18669000Y36068000D01*
X17780000Y51181000D02*
X16192500Y49593500D01*
X23812500Y51181000D02*
X17780000Y51181000D01*
X33909000Y41084500D02*
X23812500Y51181000D01*
X37719000Y41084500D02*
X33909000Y41084500D01*
X37782500Y41148000D02*
X37719000Y41084500D01*
X47752000Y28067000D02*
X47752000Y25527000D01*
X51689000Y26797000D02*
X51562000Y26924000D01*
X51562000Y26924000D02*
X51562000Y28067000D01*
X54060000Y27771000D02*
X54060000Y27940000D01*
X54060000Y27771000D02*
X54060000Y27940000D01*
X67913000Y24447500D02*
X67881500Y24447500D01*
X67881500Y24447500D02*
X66548000Y23114000D01*
X66548000Y23114000D02*
X59880500Y23114000D01*
X59880500Y23114000D02*
X57721500Y25273000D01*
X57721500Y25273000D02*
X57721500Y27241500D01*
X57721500Y27241500D02*
X59363500Y28883500D01*
X59363500Y28883500D02*
X59363500Y30537500D01*
X57150000Y31813500D02*
X58426000Y30537500D01*
X54292500Y31813500D02*
X57150000Y31813500D01*
X58426000Y30537500D02*
X59363500Y30537500D01*
X59363500Y30537500D02*
X58870500Y30537500D01*
X59427000Y13710000D02*
X57664000Y13710000D01*
X57664000Y13710000D02*
X57531000Y13843000D01*
X57531000Y13843000D02*
X57531000Y14097000D01*
X57531000Y14097000D02*
X56769000Y14859000D01*
X56769000Y14859000D02*
X54483000Y14859000D01*
X67976500Y7556500D02*
X67945000Y7556500D01*
X67945000Y7556500D02*
X66548000Y6159500D01*
X66548000Y6159500D02*
X58928000Y6159500D01*
X58928000Y6159500D02*
X57785000Y7302500D01*
X57785000Y7302500D02*
X57785000Y10922000D01*
X57785000Y10922000D02*
X59427000Y12564000D01*
X59427000Y12564000D02*
X59427000Y13710000D01*
X58807000Y13710000D02*
X59427000Y13710000D01*
X56261000Y39497000D02*
X56261000Y42926000D01*
X56134000Y39370000D02*
X56261000Y39497000D01*
X48768000Y11176000D02*
X47752000Y11176000D01*
X50419000Y11176000D02*
X51562000Y11176000D01*
D28*
G36*
X23649000Y51656000D02*
X22039358Y51656000D01*
X22020578Y51674780D01*
X22192702Y51767200D01*
X22379501Y52195698D01*
X22388102Y52663063D01*
X22217195Y53098143D01*
X22192702Y53134800D01*
X22020576Y53227221D01*
X21244355Y52451000D01*
X21258498Y52436857D01*
X21223143Y52401502D01*
X21209000Y52415645D01*
X21194858Y52401502D01*
X21159503Y52436857D01*
X21173645Y52451000D01*
X20397424Y53227221D01*
X20225298Y53134800D01*
X20038499Y52706302D01*
X20029898Y52238937D01*
X20200805Y51803857D01*
X20225298Y51767200D01*
X20397422Y51674780D01*
X20378642Y51656000D01*
X17780000Y51656000D01*
X17598225Y51619843D01*
X17444124Y51516876D01*
X16220723Y50293475D01*
X16053872Y50293621D01*
X15796500Y50187277D01*
X15599415Y49990536D01*
X15492622Y49733350D01*
X15492379Y49454872D01*
X15598723Y49197500D01*
X15680081Y49116000D01*
X10033000Y49116000D01*
X9851225Y49079843D01*
X9697124Y48976876D01*
X8566248Y47846000D01*
X7098186Y47846000D01*
X7008110Y48064000D01*
X6663813Y48408899D01*
X6213737Y48595787D01*
X5726401Y48596212D01*
X5276000Y48410110D01*
X4931101Y48065813D01*
X4744213Y47615737D01*
X4743788Y47128401D01*
X4929890Y46678000D01*
X5031712Y46576000D01*
X4699000Y46576000D01*
X4517225Y46539843D01*
X4363124Y46436876D01*
X4363122Y46436873D01*
X3604651Y45678403D01*
X3403729Y45812655D01*
X2944509Y45904000D01*
X2897491Y45904000D01*
X2438271Y45812655D01*
X2048963Y45552528D01*
X1788836Y45163220D01*
X1697491Y44704000D01*
X1788836Y44244780D01*
X2048963Y43855472D01*
X2438271Y43595345D01*
X2897491Y43504000D01*
X2944509Y43504000D01*
X3403729Y43595345D01*
X3793037Y43855472D01*
X4053164Y44244780D01*
X4144509Y44704000D01*
X4116178Y44846427D01*
X4895751Y45626000D01*
X5031463Y45626000D01*
X4931101Y45525813D01*
X4744213Y45075737D01*
X4743788Y44588401D01*
X4929890Y44138000D01*
X5274187Y43793101D01*
X5724263Y43606213D01*
X6211599Y43605788D01*
X6662000Y43791890D01*
X7006899Y44136187D01*
X7193787Y44586263D01*
X7194212Y45073599D01*
X7091101Y45323148D01*
X8320000Y44094249D01*
X8320000Y44005856D01*
X7795000Y44005856D01*
X7665298Y43981451D01*
X7546175Y43904797D01*
X7466259Y43787837D01*
X7438144Y43649000D01*
X7438144Y41949000D01*
X7462549Y41819298D01*
X7539203Y41700175D01*
X7656163Y41620259D01*
X7795000Y41592144D01*
X9795000Y41592144D01*
X9924702Y41616549D01*
X10043825Y41693203D01*
X10123741Y41810163D01*
X10151856Y41949000D01*
X10151856Y43649000D01*
X10127451Y43778702D01*
X10050797Y43897825D01*
X9933837Y43977741D01*
X9795000Y44005856D01*
X9270000Y44005856D01*
X9270000Y44290995D01*
X9270001Y44291000D01*
X9233844Y44472774D01*
X9199677Y44523908D01*
X9130876Y44626876D01*
X9130873Y44626878D01*
X7320876Y46436876D01*
X7166775Y46539843D01*
X6985000Y46576000D01*
X6906537Y46576000D01*
X7006899Y46676187D01*
X7098173Y46896000D01*
X8763000Y46896000D01*
X8944775Y46932157D01*
X9098876Y47035124D01*
X10229752Y48166000D01*
X17731463Y48166000D01*
X17631101Y48065813D01*
X17444213Y47615737D01*
X17443788Y47128401D01*
X17629890Y46678000D01*
X17974187Y46333101D01*
X18424263Y46146213D01*
X18911599Y46145788D01*
X19362000Y46331890D01*
X19706899Y46676187D01*
X19893787Y47126263D01*
X19894212Y47613599D01*
X19708110Y48064000D01*
X19606288Y48166000D01*
X20271463Y48166000D01*
X20171101Y48065813D01*
X19984213Y47615737D01*
X19983788Y47128401D01*
X20169890Y46678000D01*
X20514187Y46333101D01*
X20964263Y46146213D01*
X21451599Y46145788D01*
X21902000Y46331890D01*
X22246899Y46676187D01*
X22338173Y46896000D01*
X23649000Y46896000D01*
X23649000Y42766000D01*
X22338186Y42766000D01*
X22248110Y42984000D01*
X21903813Y43328899D01*
X21453737Y43515787D01*
X20966401Y43516212D01*
X20516000Y43330110D01*
X20171101Y42985813D01*
X19984213Y42535737D01*
X19983788Y42048401D01*
X20169890Y41598000D01*
X20271712Y41496000D01*
X19606537Y41496000D01*
X19706899Y41596187D01*
X19893787Y42046263D01*
X19894212Y42533599D01*
X19708110Y42984000D01*
X19363813Y43328899D01*
X18913737Y43515787D01*
X18426401Y43516212D01*
X17976000Y43330110D01*
X17919792Y43274000D01*
X14151856Y43274000D01*
X14151856Y43649000D01*
X14127451Y43778702D01*
X14050797Y43897825D01*
X13933837Y43977741D01*
X13795000Y44005856D01*
X13302000Y44005856D01*
X13302000Y44588401D01*
X17443788Y44588401D01*
X17629890Y44138000D01*
X17974187Y43793101D01*
X18424263Y43606213D01*
X18911599Y43605788D01*
X19362000Y43791890D01*
X19706899Y44136187D01*
X19893787Y44586263D01*
X19893788Y44588401D01*
X19983788Y44588401D01*
X20169890Y44138000D01*
X20514187Y43793101D01*
X20964263Y43606213D01*
X21451599Y43605788D01*
X21902000Y43791890D01*
X22246899Y44136187D01*
X22433787Y44586263D01*
X22434212Y45073599D01*
X22248110Y45524000D01*
X21903813Y45868899D01*
X21453737Y46055787D01*
X20966401Y46056212D01*
X20516000Y45870110D01*
X20171101Y45525813D01*
X19984213Y45075737D01*
X19983788Y44588401D01*
X19893788Y44588401D01*
X19894212Y45073599D01*
X19708110Y45524000D01*
X19363813Y45868899D01*
X18913737Y46055787D01*
X18426401Y46056212D01*
X17976000Y45870110D01*
X17631101Y45525813D01*
X17444213Y45075737D01*
X17443788Y44588401D01*
X13302000Y44588401D01*
X13302000Y45284144D01*
X13627000Y45284144D01*
X13756702Y45308549D01*
X13875825Y45385203D01*
X13955741Y45502163D01*
X13983856Y45641000D01*
X13983856Y47641000D01*
X13959451Y47770702D01*
X13882797Y47889825D01*
X13765837Y47969741D01*
X13627000Y47997856D01*
X12027000Y47997856D01*
X11897298Y47973451D01*
X11778175Y47896797D01*
X11698259Y47779837D01*
X11670144Y47641000D01*
X11670144Y45641000D01*
X11694549Y45511298D01*
X11771203Y45392175D01*
X11888163Y45312259D01*
X12027000Y45284144D01*
X12352000Y45284144D01*
X12352000Y44005856D01*
X11795000Y44005856D01*
X11665298Y43981451D01*
X11546175Y43904797D01*
X11466259Y43787837D01*
X11438144Y43649000D01*
X11438144Y41949000D01*
X11462549Y41819298D01*
X11539203Y41700175D01*
X11656163Y41620259D01*
X11795000Y41592144D01*
X13795000Y41592144D01*
X13924702Y41616549D01*
X14043825Y41693203D01*
X14123741Y41810163D01*
X14151856Y41949000D01*
X14151856Y42324000D01*
X17444028Y42324000D01*
X17443788Y42048401D01*
X17629890Y41598000D01*
X17731712Y41496000D01*
X8953500Y41496000D01*
X8771725Y41459843D01*
X8617624Y41356876D01*
X7486748Y40226000D01*
X7098186Y40226000D01*
X7008110Y40444000D01*
X6663813Y40788899D01*
X6213737Y40975787D01*
X5726401Y40976212D01*
X5276000Y40790110D01*
X4931101Y40445813D01*
X4744213Y39995737D01*
X4743788Y39508401D01*
X4929890Y39058000D01*
X5274187Y38713101D01*
X5724263Y38526213D01*
X6211599Y38525788D01*
X6662000Y38711890D01*
X7006899Y39056187D01*
X7098173Y39276000D01*
X7683500Y39276000D01*
X7865275Y39312157D01*
X8019376Y39415124D01*
X9150252Y40546000D01*
X20271463Y40546000D01*
X20171101Y40445813D01*
X19984213Y39995737D01*
X19983788Y39508401D01*
X20169890Y39058000D01*
X20514187Y38713101D01*
X20964263Y38526213D01*
X21451599Y38525788D01*
X21671570Y38616678D01*
X23032124Y37256124D01*
X23186225Y37153157D01*
X23368000Y37117000D01*
X23649000Y37117000D01*
X23649000Y36416000D01*
X22146537Y36416000D01*
X22246899Y36516187D01*
X22433787Y36966263D01*
X22434212Y37453599D01*
X22248110Y37904000D01*
X21903813Y38248899D01*
X21453737Y38435787D01*
X20966401Y38436212D01*
X20516000Y38250110D01*
X20171101Y37905813D01*
X19984213Y37455737D01*
X19983788Y36968401D01*
X19997474Y36935278D01*
X17146475Y39786277D01*
X17146621Y39953128D01*
X17040277Y40210500D01*
X16843536Y40407585D01*
X16586350Y40514378D01*
X16307872Y40514621D01*
X16050500Y40408277D01*
X15853415Y40211536D01*
X15746622Y39954350D01*
X15746604Y39933191D01*
X15570350Y40006378D01*
X15291872Y40006621D01*
X15034500Y39900277D01*
X14837415Y39703536D01*
X14730622Y39446350D01*
X14730379Y39167872D01*
X14836723Y38910500D01*
X15033464Y38713415D01*
X15290650Y38606622D01*
X15458773Y38606475D01*
X18194000Y35871249D01*
X18194000Y25149776D01*
X18046850Y25210878D01*
X17878727Y25211025D01*
X11892876Y31196876D01*
X11738775Y31299843D01*
X11557000Y31336000D01*
X6906537Y31336000D01*
X7006899Y31436187D01*
X7193787Y31886263D01*
X7194212Y32373599D01*
X7008110Y32824000D01*
X6663813Y33168899D01*
X6213737Y33355787D01*
X5726401Y33356212D01*
X5276000Y33170110D01*
X4931101Y32825813D01*
X4744213Y32375737D01*
X4743788Y31888401D01*
X4929890Y31438000D01*
X5031712Y31336000D01*
X4826000Y31336000D01*
X4644225Y31299843D01*
X4490124Y31196876D01*
X3819769Y30526521D01*
X3793037Y30566528D01*
X3403729Y30826655D01*
X2944509Y30918000D01*
X2897491Y30918000D01*
X2438271Y30826655D01*
X2048963Y30566528D01*
X1788836Y30177220D01*
X1697491Y29718000D01*
X1788836Y29258780D01*
X2048963Y28869472D01*
X2438271Y28609345D01*
X2897491Y28518000D01*
X2944509Y28518000D01*
X3403729Y28609345D01*
X3793037Y28869472D01*
X4053164Y29258780D01*
X4092305Y29455553D01*
X5022752Y30386000D01*
X5031463Y30386000D01*
X4931101Y30285813D01*
X4744213Y29835737D01*
X4743788Y29348401D01*
X4929890Y28898000D01*
X5274187Y28553101D01*
X5724263Y28366213D01*
X6211599Y28365788D01*
X6662000Y28551890D01*
X7006899Y28896187D01*
X7193787Y29346263D01*
X7194212Y29833599D01*
X7008110Y30284000D01*
X6906288Y30386000D01*
X11360248Y30386000D01*
X17207025Y24539223D01*
X17206879Y24372372D01*
X17313223Y24115000D01*
X17509964Y23917915D01*
X17767150Y23811122D01*
X18045628Y23810879D01*
X18194000Y23872185D01*
X18194000Y23100186D01*
X17976000Y23010110D01*
X17631101Y22665813D01*
X17444213Y22215737D01*
X17443788Y21728401D01*
X17629890Y21278000D01*
X17974187Y20933101D01*
X18424263Y20746213D01*
X18911599Y20745788D01*
X19362000Y20931890D01*
X19464000Y21033712D01*
X19464000Y19531000D01*
X3429000Y19531000D01*
X3390094Y19523121D01*
X3357319Y19500727D01*
X3335839Y19467346D01*
X3329000Y19431000D01*
X3329000Y18796000D01*
X3336879Y18757094D01*
X3359273Y18724319D01*
X3392654Y18702839D01*
X3429000Y18696000D01*
X19464000Y18696000D01*
X19464000Y16013998D01*
X19361000Y16034856D01*
X16961000Y16034856D01*
X16831298Y16010451D01*
X16712175Y15933797D01*
X16632259Y15816837D01*
X16604144Y15678000D01*
X16604144Y13278000D01*
X16628549Y13148298D01*
X16705203Y13029175D01*
X16822163Y12949259D01*
X16961000Y12921144D01*
X19361000Y12921144D01*
X19490702Y12945549D01*
X19609825Y13022203D01*
X19689741Y13139163D01*
X19717856Y13278000D01*
X19717856Y14535392D01*
X22160025Y12093223D01*
X22159879Y11926372D01*
X22266223Y11669000D01*
X22462964Y11471915D01*
X22720150Y11365122D01*
X22998628Y11364879D01*
X23256000Y11471223D01*
X23453085Y11667964D01*
X23559878Y11925150D01*
X23559879Y11926372D01*
X34351879Y11926372D01*
X34458223Y11669000D01*
X34654964Y11471915D01*
X34912150Y11365122D01*
X35190628Y11364879D01*
X35448000Y11471223D01*
X35645085Y11667964D01*
X35648421Y11676000D01*
X45645144Y11676000D01*
X45645144Y10676000D01*
X45669549Y10546298D01*
X45746203Y10427175D01*
X45863163Y10347259D01*
X46002000Y10319144D01*
X48002000Y10319144D01*
X48131702Y10343549D01*
X48250825Y10420203D01*
X48330741Y10537163D01*
X48345227Y10608697D01*
X48370964Y10582915D01*
X48628150Y10476122D01*
X48906628Y10475879D01*
X49164000Y10582223D01*
X49361085Y10778964D01*
X49467878Y11036150D01*
X49468121Y11314628D01*
X49361777Y11572000D01*
X49165036Y11769085D01*
X48907850Y11875878D01*
X48629372Y11876121D01*
X48372000Y11769777D01*
X48346079Y11743902D01*
X48334451Y11805702D01*
X48257797Y11924825D01*
X48140837Y12004741D01*
X48002000Y12032856D01*
X46002000Y12032856D01*
X45872298Y12008451D01*
X45753175Y11931797D01*
X45673259Y11814837D01*
X45645144Y11676000D01*
X35648421Y11676000D01*
X35751878Y11925150D01*
X35752121Y12203628D01*
X35645777Y12461000D01*
X35527000Y12579985D01*
X35527000Y12631909D01*
X35543964Y12614915D01*
X35801150Y12508122D01*
X36079628Y12507879D01*
X36337000Y12614223D01*
X36534085Y12810964D01*
X36640878Y13068150D01*
X36641025Y13236273D01*
X37915752Y14511000D01*
X49022000Y14511000D01*
X49203775Y14547157D01*
X49357876Y14650124D01*
X50754873Y16047122D01*
X50754876Y16047124D01*
X50857843Y16201225D01*
X50894000Y16383000D01*
X50894000Y18345248D01*
X51126715Y18577963D01*
X51150549Y18451298D01*
X51215466Y18350415D01*
X51154259Y18260837D01*
X51126144Y18122000D01*
X51126144Y16422000D01*
X51150549Y16292298D01*
X51227203Y16173175D01*
X51344163Y16093259D01*
X51483000Y16065144D01*
X53483000Y16065144D01*
X53612702Y16089549D01*
X53731825Y16166203D01*
X53811741Y16283163D01*
X53839856Y16422000D01*
X53839856Y18122000D01*
X53815451Y18251702D01*
X53750534Y18352585D01*
X53811741Y18442163D01*
X53839856Y18581000D01*
X53839856Y20281000D01*
X53828628Y20340673D01*
X55183000Y20340673D01*
X55183000Y19531000D01*
X55258000Y19456000D01*
X56458000Y19456000D01*
X56458000Y20506000D01*
X56508000Y20506000D01*
X56508000Y19456000D01*
X57708000Y19456000D01*
X57783000Y19531000D01*
X57783000Y20340673D01*
X57737328Y20450936D01*
X57652937Y20535328D01*
X57542674Y20581000D01*
X56583000Y20581000D01*
X56508000Y20506000D01*
X56458000Y20506000D01*
X56383000Y20581000D01*
X55423326Y20581000D01*
X55313063Y20535328D01*
X55228672Y20450936D01*
X55183000Y20340673D01*
X53828628Y20340673D01*
X53815451Y20410702D01*
X53738797Y20529825D01*
X53621837Y20609741D01*
X53483000Y20637856D01*
X51483000Y20637856D01*
X51353298Y20613451D01*
X51234175Y20536797D01*
X51154259Y20419837D01*
X51126144Y20281000D01*
X51126144Y19869789D01*
X51039657Y19812000D01*
X50972124Y19766876D01*
X50863397Y19658149D01*
X50894000Y19812000D01*
X50894000Y33966248D01*
X50999144Y34071392D01*
X50999144Y32678000D01*
X51023549Y32548298D01*
X51100203Y32429175D01*
X51217163Y32349259D01*
X51356000Y32321144D01*
X53356000Y32321144D01*
X53485702Y32345549D01*
X53604825Y32422203D01*
X53684741Y32539163D01*
X53712856Y32678000D01*
X53712856Y34378000D01*
X53688451Y34507702D01*
X53623534Y34608585D01*
X53684741Y34698163D01*
X53712856Y34837000D01*
X53712856Y35471638D01*
X53962150Y35368122D01*
X54240628Y35367879D01*
X54498000Y35474223D01*
X54695085Y35670964D01*
X54801878Y35928150D01*
X54802025Y36096273D01*
X55056000Y36350248D01*
X55056000Y35787000D01*
X55131000Y35712000D01*
X56331000Y35712000D01*
X56331000Y36762000D01*
X56381000Y36762000D01*
X56381000Y35712000D01*
X57581000Y35712000D01*
X57656000Y35787000D01*
X57656000Y36596673D01*
X57610328Y36706936D01*
X57525937Y36791328D01*
X57415674Y36837000D01*
X56456000Y36837000D01*
X56381000Y36762000D01*
X56331000Y36762000D01*
X56256000Y36837000D01*
X55542752Y36837000D01*
X56775252Y38069500D01*
X59825644Y38069500D01*
X59825644Y37694500D01*
X59849474Y37567856D01*
X58547000Y37567856D01*
X58417298Y37543451D01*
X58298175Y37466797D01*
X58218259Y37349837D01*
X58190144Y37211000D01*
X58190144Y32143607D01*
X57703239Y32630512D01*
X57712856Y32678000D01*
X57712856Y34378000D01*
X57688451Y34507702D01*
X57611797Y34626825D01*
X57587019Y34643755D01*
X57610328Y34667064D01*
X57656000Y34777327D01*
X57656000Y35587000D01*
X57581000Y35662000D01*
X56381000Y35662000D01*
X56381000Y35642000D01*
X56331000Y35642000D01*
X56331000Y35662000D01*
X55131000Y35662000D01*
X55056000Y35587000D01*
X55056000Y34777327D01*
X55101672Y34667064D01*
X55124068Y34644668D01*
X55107175Y34633797D01*
X55027259Y34516837D01*
X54999144Y34378000D01*
X54999144Y32678000D01*
X55023549Y32548298D01*
X55100203Y32429175D01*
X55217163Y32349259D01*
X55356000Y32321144D01*
X56669104Y32321144D01*
X56701748Y32288500D01*
X54807415Y32288500D01*
X54689536Y32406585D01*
X54432350Y32513378D01*
X54153872Y32513621D01*
X53896500Y32407277D01*
X53699415Y32210536D01*
X53599120Y31969000D01*
X52197000Y31969000D01*
X51978926Y31927967D01*
X51778637Y31799085D01*
X51644272Y31602434D01*
X51597000Y31369000D01*
X51597000Y28923856D01*
X51312000Y28923856D01*
X51182298Y28899451D01*
X51063175Y28822797D01*
X50983259Y28705837D01*
X50955144Y28567000D01*
X50955144Y27567000D01*
X50979549Y27437298D01*
X51056203Y27318175D01*
X51087000Y27297132D01*
X51087000Y27172566D01*
X50989122Y26936850D01*
X50988879Y26658372D01*
X51095223Y26401000D01*
X51291964Y26203915D01*
X51549150Y26097122D01*
X51597000Y26097080D01*
X51597000Y24765000D01*
X51638033Y24546926D01*
X51766915Y24346637D01*
X51963566Y24212272D01*
X52197000Y24165000D01*
X56004055Y24165000D01*
X55942122Y24015850D01*
X55941879Y23737372D01*
X56048223Y23480000D01*
X56244964Y23282915D01*
X56502150Y23176122D01*
X56670273Y23175975D01*
X58465124Y21381124D01*
X58619225Y21278157D01*
X58801000Y21242000D01*
X59571644Y21242000D01*
X59571644Y20867000D01*
X59595474Y20740356D01*
X58356500Y20740356D01*
X58226798Y20715951D01*
X58107675Y20639297D01*
X58027759Y20522337D01*
X57999644Y20383500D01*
X57999644Y15443108D01*
X57377608Y16065144D01*
X57483000Y16065144D01*
X57612702Y16089549D01*
X57731825Y16166203D01*
X57811741Y16283163D01*
X57839856Y16422000D01*
X57839856Y18122000D01*
X57815451Y18251702D01*
X57738797Y18370825D01*
X57714019Y18387755D01*
X57737328Y18411064D01*
X57783000Y18521327D01*
X57783000Y19331000D01*
X57708000Y19406000D01*
X56508000Y19406000D01*
X56508000Y19386000D01*
X56458000Y19386000D01*
X56458000Y19406000D01*
X55258000Y19406000D01*
X55183000Y19331000D01*
X55183000Y18521327D01*
X55228672Y18411064D01*
X55251068Y18388668D01*
X55234175Y18377797D01*
X55154259Y18260837D01*
X55126144Y18122000D01*
X55126144Y16422000D01*
X55150549Y16292298D01*
X55227203Y16173175D01*
X55344163Y16093259D01*
X55483000Y16065144D01*
X56071606Y16065144D01*
X56147124Y15952124D01*
X56765248Y15334000D01*
X54997915Y15334000D01*
X54880036Y15452085D01*
X54622850Y15558878D01*
X54344372Y15559121D01*
X54087000Y15452777D01*
X53889915Y15256036D01*
X53783122Y14998850D01*
X53783025Y14887500D01*
X52387500Y14887500D01*
X52169426Y14846467D01*
X51969137Y14717585D01*
X51834772Y14520934D01*
X51787500Y14287500D01*
X51787500Y12032856D01*
X51312000Y12032856D01*
X51182298Y12008451D01*
X51063175Y11931797D01*
X50983259Y11814837D01*
X50955144Y11676000D01*
X50955144Y11651000D01*
X50933915Y11651000D01*
X50816036Y11769085D01*
X50558850Y11875878D01*
X50280372Y11876121D01*
X50023000Y11769777D01*
X49825915Y11573036D01*
X49719122Y11315850D01*
X49718879Y11037372D01*
X49825223Y10780000D01*
X50021964Y10582915D01*
X50279150Y10476122D01*
X50557628Y10475879D01*
X50815000Y10582223D01*
X50933985Y10701000D01*
X50955144Y10701000D01*
X50955144Y10676000D01*
X50979549Y10546298D01*
X51056203Y10427175D01*
X51173163Y10347259D01*
X51312000Y10319144D01*
X51787500Y10319144D01*
X51787500Y8064500D01*
X51828533Y7846426D01*
X51957415Y7646137D01*
X52154066Y7511772D01*
X52387500Y7464500D01*
X56959500Y7464500D01*
X57177574Y7505533D01*
X57310000Y7590747D01*
X57310000Y7302500D01*
X57346157Y7120725D01*
X57449124Y6966624D01*
X58592124Y5823624D01*
X58746225Y5720657D01*
X58928000Y5684500D01*
X66548000Y5684500D01*
X66729775Y5720657D01*
X66883876Y5823624D01*
X67409896Y6349644D01*
X68976500Y6349644D01*
X69106202Y6374049D01*
X69225325Y6450703D01*
X69305241Y6567663D01*
X69333356Y6706500D01*
X69333356Y8290000D01*
X70675500Y8290000D01*
X70893574Y8331033D01*
X71093863Y8459915D01*
X71228228Y8656566D01*
X71275500Y8890000D01*
X71275500Y16192500D01*
X71234467Y16410574D01*
X71105585Y16610863D01*
X70908934Y16745228D01*
X70675500Y16792500D01*
X68453000Y16792500D01*
X68234926Y16751467D01*
X68034637Y16622585D01*
X67900272Y16425934D01*
X67853000Y16192500D01*
X67853000Y14570000D01*
X63063752Y14570000D01*
X62687108Y14946644D01*
X65976500Y14946644D01*
X66106202Y14971049D01*
X66225325Y15047703D01*
X66305241Y15164663D01*
X66333356Y15303500D01*
X66333356Y20383500D01*
X66308951Y20513202D01*
X66232297Y20632325D01*
X66204660Y20651209D01*
X66257241Y20728163D01*
X66285356Y20867000D01*
X66285356Y21242000D01*
X67751248Y21242000D01*
X68120127Y20873121D01*
X68112759Y20862337D01*
X68084644Y20723500D01*
X68084644Y19523500D01*
X68109049Y19393798D01*
X68185703Y19274675D01*
X68302663Y19194759D01*
X68441500Y19166644D01*
X70641500Y19166644D01*
X70771202Y19191049D01*
X70890325Y19267703D01*
X70970241Y19384663D01*
X70998356Y19523500D01*
X70998356Y20723500D01*
X70973951Y20853202D01*
X70897297Y20972325D01*
X70780337Y21052241D01*
X70641500Y21080356D01*
X69256396Y21080356D01*
X68283876Y22052876D01*
X68129775Y22155843D01*
X67948000Y22192000D01*
X66285356Y22192000D01*
X66285356Y22567000D01*
X66271808Y22639000D01*
X66548000Y22639000D01*
X66729775Y22675157D01*
X66883876Y22778124D01*
X67346396Y23240644D01*
X68913000Y23240644D01*
X69042702Y23265049D01*
X69161825Y23341703D01*
X69241741Y23458663D01*
X69269856Y23597500D01*
X69269856Y25117500D01*
X70802500Y25117500D01*
X71020574Y25158533D01*
X71220863Y25287415D01*
X71355228Y25484066D01*
X71402500Y25717500D01*
X71402500Y33020000D01*
X71361467Y33238074D01*
X71232585Y33438363D01*
X71035934Y33572728D01*
X70802500Y33620000D01*
X68643500Y33620000D01*
X68425426Y33578967D01*
X68225137Y33450085D01*
X68090772Y33253434D01*
X68043500Y33020000D01*
X68043500Y31397500D01*
X63000252Y31397500D01*
X62623608Y31774144D01*
X66167000Y31774144D01*
X66296702Y31798549D01*
X66415825Y31875203D01*
X66495741Y31992163D01*
X66523856Y32131000D01*
X66523856Y37211000D01*
X66499451Y37340702D01*
X66433933Y37442520D01*
X66511241Y37555663D01*
X66539356Y37694500D01*
X66539356Y38069500D01*
X67941748Y38069500D01*
X68310627Y37700621D01*
X68303259Y37689837D01*
X68275144Y37551000D01*
X68275144Y36351000D01*
X68299549Y36221298D01*
X68376203Y36102175D01*
X68493163Y36022259D01*
X68632000Y35994144D01*
X70832000Y35994144D01*
X70961702Y36018549D01*
X71080825Y36095203D01*
X71160741Y36212163D01*
X71188856Y36351000D01*
X71188856Y37551000D01*
X71164451Y37680702D01*
X71087797Y37799825D01*
X70970837Y37879741D01*
X70832000Y37907856D01*
X69446896Y37907856D01*
X68474376Y38880376D01*
X68320275Y38983343D01*
X68138500Y39019500D01*
X66539356Y39019500D01*
X66539356Y39394500D01*
X66514951Y39524202D01*
X66438297Y39643325D01*
X66321337Y39723241D01*
X66182500Y39751356D01*
X64182500Y39751356D01*
X64052798Y39726951D01*
X63933675Y39650297D01*
X63853759Y39533337D01*
X63825644Y39394500D01*
X63825644Y37694500D01*
X63849474Y37567856D01*
X62513710Y37567856D01*
X62539356Y37694500D01*
X62539356Y39394500D01*
X62514951Y39524202D01*
X62438297Y39643325D01*
X62321337Y39723241D01*
X62182500Y39751356D01*
X60182500Y39751356D01*
X60052798Y39726951D01*
X59933675Y39650297D01*
X59853759Y39533337D01*
X59825644Y39394500D01*
X59825644Y39019500D01*
X56746408Y39019500D01*
X56833878Y39230150D01*
X56834121Y39508628D01*
X56736000Y39746099D01*
X56736000Y42411085D01*
X56854085Y42528964D01*
X56960878Y42786150D01*
X56961121Y43064628D01*
X56854777Y43322000D01*
X56658036Y43519085D01*
X56400850Y43625878D01*
X56122372Y43626121D01*
X55865000Y43519777D01*
X55667915Y43323036D01*
X55561122Y43065850D01*
X55560879Y42787372D01*
X55667223Y42530000D01*
X55786000Y42411015D01*
X55786000Y39983610D01*
X55738000Y39963777D01*
X55540915Y39767036D01*
X55434122Y39509850D01*
X55433879Y39231372D01*
X55540223Y38974000D01*
X55736964Y38776915D01*
X55994150Y38670122D01*
X56032337Y38670089D01*
X54130223Y36767975D01*
X53963372Y36768121D01*
X53706000Y36661777D01*
X53692006Y36647808D01*
X53688451Y36666702D01*
X53611797Y36785825D01*
X53494837Y36865741D01*
X53356000Y36893856D01*
X51356000Y36893856D01*
X51226298Y36869451D01*
X51107175Y36792797D01*
X51027259Y36675837D01*
X50999144Y36537000D01*
X50999144Y35414895D01*
X50083124Y34498876D01*
X49980157Y34344775D01*
X49944000Y34163000D01*
X49944000Y29150869D01*
X49800036Y29295085D01*
X49542850Y29401878D01*
X49374727Y29402025D01*
X48859608Y29917144D01*
X49060000Y29917144D01*
X49189702Y29941549D01*
X49308825Y30018203D01*
X49388741Y30135163D01*
X49416856Y30274000D01*
X49416856Y32274000D01*
X49392451Y32403702D01*
X49315797Y32522825D01*
X49198837Y32602741D01*
X49060000Y32630856D01*
X48465239Y32630856D01*
X48496500Y32706327D01*
X48496500Y33301000D01*
X48421500Y33376000D01*
X47586500Y33376000D01*
X47586500Y33356000D01*
X47536500Y33356000D01*
X47536500Y33376000D01*
X46316500Y33376000D01*
X46316500Y32541000D01*
X46391500Y32466000D01*
X47167584Y32466000D01*
X47131259Y32412837D01*
X47103144Y32274000D01*
X47103144Y30274000D01*
X47127549Y30144298D01*
X47204203Y30025175D01*
X47321163Y29945259D01*
X47460000Y29917144D01*
X47785000Y29917144D01*
X47785000Y29845000D01*
X47821157Y29663225D01*
X47924124Y29509124D01*
X48703025Y28730223D01*
X48702879Y28563372D01*
X48809223Y28306000D01*
X48928000Y28187015D01*
X48928000Y24986000D01*
X48228000Y24986000D01*
X48194118Y24979261D01*
X48345085Y25129964D01*
X48451878Y25387150D01*
X48452121Y25665628D01*
X48345777Y25923000D01*
X48227000Y26041985D01*
X48227000Y27295872D01*
X48250825Y27311203D01*
X48330741Y27428163D01*
X48358856Y27567000D01*
X48358856Y28567000D01*
X48334451Y28696702D01*
X48257797Y28815825D01*
X48140837Y28895741D01*
X48002000Y28923856D01*
X46002000Y28923856D01*
X45872298Y28899451D01*
X45753175Y28822797D01*
X45673259Y28705837D01*
X45645144Y28567000D01*
X45645144Y27567000D01*
X45669549Y27437298D01*
X45746203Y27318175D01*
X45863163Y27238259D01*
X46002000Y27210144D01*
X47277000Y27210144D01*
X47277000Y26041915D01*
X47158915Y25924036D01*
X47052122Y25666850D01*
X47051879Y25388372D01*
X47158223Y25131000D01*
X47354964Y24933915D01*
X47612150Y24827122D01*
X47872143Y24826895D01*
X47824104Y24778856D01*
X46339000Y24778856D01*
X46209298Y24754451D01*
X46090175Y24677797D01*
X46010259Y24560837D01*
X45982144Y24422000D01*
X45982144Y22822000D01*
X46006549Y22692298D01*
X46062518Y22605320D01*
X46010259Y22528837D01*
X45982144Y22390000D01*
X45982144Y20790000D01*
X46006549Y20660298D01*
X46062518Y20573320D01*
X46010259Y20496837D01*
X45982144Y20358000D01*
X45982144Y18758000D01*
X46006549Y18628298D01*
X46062518Y18541320D01*
X46010259Y18464837D01*
X45982144Y18326000D01*
X45982144Y16726000D01*
X46006549Y16596298D01*
X46083203Y16477175D01*
X46200163Y16397259D01*
X46339000Y16369144D01*
X48339000Y16369144D01*
X48468702Y16393549D01*
X48587825Y16470203D01*
X48667741Y16587163D01*
X48695856Y16726000D01*
X48695856Y18326000D01*
X48671451Y18455702D01*
X48615482Y18542680D01*
X48667741Y18619163D01*
X48695856Y18758000D01*
X48695856Y20358000D01*
X48671451Y20487702D01*
X48615482Y20574680D01*
X48667741Y20651163D01*
X48695856Y20790000D01*
X48695856Y22390000D01*
X48671451Y22519702D01*
X48615482Y22606680D01*
X48667741Y22683163D01*
X48695856Y22822000D01*
X48695856Y24036000D01*
X49149000Y24036000D01*
X49330775Y24072157D01*
X49484876Y24175124D01*
X49738876Y24429124D01*
X49841843Y24583225D01*
X49878000Y24765000D01*
X49878000Y28187085D01*
X49944000Y28252970D01*
X49944000Y20008752D01*
X49574425Y19639177D01*
X49471458Y19485076D01*
X49435301Y19303301D01*
X49435301Y16833052D01*
X48571248Y15969000D01*
X37211000Y15969000D01*
X37029225Y15932843D01*
X36875124Y15829876D01*
X34716124Y13670876D01*
X34613157Y13516775D01*
X34577000Y13335000D01*
X34577000Y12579915D01*
X34458915Y12462036D01*
X34352122Y12204850D01*
X34351879Y11926372D01*
X23559879Y11926372D01*
X23560072Y12147501D01*
X23609150Y12127122D01*
X23887628Y12126879D01*
X24145000Y12233223D01*
X24342085Y12429964D01*
X24448878Y12687150D01*
X24449121Y12965628D01*
X24342777Y13223000D01*
X24146036Y13420085D01*
X23888850Y13526878D01*
X23720727Y13527025D01*
X23589000Y13658752D01*
X23589000Y15678000D01*
X29939144Y15678000D01*
X29939144Y13278000D01*
X29963549Y13148298D01*
X30040203Y13029175D01*
X30157163Y12949259D01*
X30296000Y12921144D01*
X32696000Y12921144D01*
X32825702Y12945549D01*
X32944825Y13022203D01*
X33024741Y13139163D01*
X33052856Y13278000D01*
X33052856Y15678000D01*
X33028451Y15807702D01*
X32951797Y15926825D01*
X32834837Y16006741D01*
X32696000Y16034856D01*
X30296000Y16034856D01*
X30166298Y16010451D01*
X30047175Y15933797D01*
X29967259Y15816837D01*
X29939144Y15678000D01*
X23589000Y15678000D01*
X23589000Y17426000D01*
X42039000Y17426000D01*
X42039000Y16666327D01*
X42084672Y16556064D01*
X42169063Y16471672D01*
X42279326Y16426000D01*
X43239000Y16426000D01*
X43314000Y16501000D01*
X43314000Y17501000D01*
X43364000Y17501000D01*
X43364000Y16501000D01*
X43439000Y16426000D01*
X44398674Y16426000D01*
X44508937Y16471672D01*
X44593328Y16556064D01*
X44639000Y16666327D01*
X44639000Y17426000D01*
X44564000Y17501000D01*
X43364000Y17501000D01*
X43314000Y17501000D01*
X42114000Y17501000D01*
X42039000Y17426000D01*
X23589000Y17426000D01*
X23589000Y18696000D01*
X24003000Y18696000D01*
X24041906Y18703879D01*
X24074681Y18726273D01*
X24096161Y18759654D01*
X24103000Y18796000D01*
X24103000Y19458000D01*
X42039000Y19458000D01*
X42039000Y18698327D01*
X42084672Y18588064D01*
X42130735Y18542000D01*
X42084672Y18495936D01*
X42039000Y18385673D01*
X42039000Y17626000D01*
X42114000Y17551000D01*
X43314000Y17551000D01*
X43314000Y19533000D01*
X43364000Y19533000D01*
X43364000Y17551000D01*
X44564000Y17551000D01*
X44639000Y17626000D01*
X44639000Y18385673D01*
X44593328Y18495936D01*
X44547265Y18542000D01*
X44593328Y18588064D01*
X44639000Y18698327D01*
X44639000Y19458000D01*
X44564000Y19533000D01*
X43364000Y19533000D01*
X43314000Y19533000D01*
X42114000Y19533000D01*
X42039000Y19458000D01*
X24103000Y19458000D01*
X24103000Y21490000D01*
X42039000Y21490000D01*
X42039000Y20730327D01*
X42084672Y20620064D01*
X42130735Y20574000D01*
X42084672Y20527936D01*
X42039000Y20417673D01*
X42039000Y19658000D01*
X42114000Y19583000D01*
X43314000Y19583000D01*
X43314000Y21565000D01*
X43364000Y21565000D01*
X43364000Y19583000D01*
X44564000Y19583000D01*
X44639000Y19658000D01*
X44639000Y20417673D01*
X44593328Y20527936D01*
X44547265Y20574000D01*
X44593328Y20620064D01*
X44639000Y20730327D01*
X44639000Y21490000D01*
X44564000Y21565000D01*
X43364000Y21565000D01*
X43314000Y21565000D01*
X42114000Y21565000D01*
X42039000Y21490000D01*
X24103000Y21490000D01*
X24103000Y23522000D01*
X42039000Y23522000D01*
X42039000Y22762327D01*
X42084672Y22652064D01*
X42130735Y22606000D01*
X42084672Y22559936D01*
X42039000Y22449673D01*
X42039000Y21690000D01*
X42114000Y21615000D01*
X43314000Y21615000D01*
X43314000Y23597000D01*
X43364000Y23597000D01*
X43364000Y21615000D01*
X44564000Y21615000D01*
X44639000Y21690000D01*
X44639000Y22449673D01*
X44593328Y22559936D01*
X44547265Y22606000D01*
X44593328Y22652064D01*
X44639000Y22762327D01*
X44639000Y23522000D01*
X44564000Y23597000D01*
X43364000Y23597000D01*
X43314000Y23597000D01*
X42114000Y23597000D01*
X42039000Y23522000D01*
X24103000Y23522000D01*
X24103000Y24481673D01*
X42039000Y24481673D01*
X42039000Y23722000D01*
X42114000Y23647000D01*
X43314000Y23647000D01*
X43314000Y24647000D01*
X43364000Y24647000D01*
X43364000Y23647000D01*
X44564000Y23647000D01*
X44639000Y23722000D01*
X44639000Y24481673D01*
X44593328Y24591936D01*
X44508937Y24676328D01*
X44398674Y24722000D01*
X43439000Y24722000D01*
X43364000Y24647000D01*
X43314000Y24647000D01*
X43239000Y24722000D01*
X42279326Y24722000D01*
X42169063Y24676328D01*
X42084672Y24591936D01*
X42039000Y24481673D01*
X24103000Y24481673D01*
X24103000Y30386000D01*
X24384000Y30386000D01*
X24565775Y30422157D01*
X24719876Y30525124D01*
X27530777Y33336025D01*
X27697628Y33335879D01*
X27955000Y33442223D01*
X28152085Y33638964D01*
X28258878Y33896150D01*
X28259121Y34174628D01*
X28224053Y34259500D01*
X29711748Y34259500D01*
X32926000Y31045248D01*
X32926000Y28194000D01*
X32962157Y28012225D01*
X33065124Y27858124D01*
X33209025Y27714224D01*
X33208879Y27547372D01*
X33315223Y27290000D01*
X33511964Y27092915D01*
X33769150Y26986122D01*
X34047628Y26985879D01*
X34305000Y27092223D01*
X34502085Y27288964D01*
X34608878Y27546150D01*
X34609054Y27747943D01*
X34682628Y27747879D01*
X34940000Y27854223D01*
X35137085Y28050964D01*
X35243878Y28308150D01*
X35244054Y28509943D01*
X35317628Y28509879D01*
X35575000Y28616223D01*
X35772085Y28812964D01*
X35878878Y29070150D01*
X35879121Y29348628D01*
X35772777Y29606000D01*
X35576036Y29803085D01*
X35318850Y29909878D01*
X35150727Y29910025D01*
X35019000Y30041752D01*
X35019000Y30603248D01*
X35795624Y29826624D01*
X35949725Y29723657D01*
X36131500Y29687500D01*
X37267585Y29687500D01*
X37385464Y29569415D01*
X37642650Y29462622D01*
X37921128Y29462379D01*
X38160558Y29561309D01*
X36731223Y28131975D01*
X36564372Y28132121D01*
X36307000Y28025777D01*
X36109915Y27829036D01*
X36003122Y27571850D01*
X36002879Y27293372D01*
X36109223Y27036000D01*
X36305964Y26838915D01*
X36563150Y26732122D01*
X36841628Y26731879D01*
X37099000Y26838223D01*
X37296085Y27034964D01*
X37402878Y27292150D01*
X37403025Y27460273D01*
X37471199Y27528447D01*
X37569723Y27290000D01*
X37766464Y27092915D01*
X38023650Y26986122D01*
X38302128Y26985879D01*
X38559500Y27092223D01*
X38756585Y27288964D01*
X38863378Y27546150D01*
X38863525Y27714273D01*
X40011251Y28862000D01*
X40506085Y28862000D01*
X40623964Y28743915D01*
X40881150Y28637122D01*
X41159628Y28636879D01*
X41417000Y28743223D01*
X41614085Y28939964D01*
X41720878Y29197150D01*
X41721121Y29475628D01*
X41614777Y29733000D01*
X41418036Y29930085D01*
X41160850Y30036878D01*
X40882372Y30037121D01*
X40625000Y29930777D01*
X40506015Y29812000D01*
X39814505Y29812000D01*
X39814500Y29812001D01*
X39739916Y29797165D01*
X41610873Y31668122D01*
X41610876Y31668124D01*
X41713843Y31822225D01*
X41750000Y32004000D01*
X41750000Y33301000D01*
X44086500Y33301000D01*
X44086500Y32706327D01*
X44132172Y32596064D01*
X44216563Y32511672D01*
X44326826Y32466000D01*
X44921500Y32466000D01*
X44996500Y32541000D01*
X44996500Y33376000D01*
X45046500Y33376000D01*
X45046500Y32541000D01*
X45121500Y32466000D01*
X46191500Y32466000D01*
X46266500Y32541000D01*
X46266500Y33376000D01*
X45046500Y33376000D01*
X44996500Y33376000D01*
X44161500Y33376000D01*
X44086500Y33301000D01*
X41750000Y33301000D01*
X41750000Y34571000D01*
X44086500Y34571000D01*
X44086500Y33501000D01*
X44161500Y33426000D01*
X44996500Y33426000D01*
X44996500Y34646000D01*
X45046500Y34646000D01*
X45046500Y33426000D01*
X46266500Y33426000D01*
X46266500Y34646000D01*
X45046500Y34646000D01*
X44996500Y34646000D01*
X44161500Y34646000D01*
X44086500Y34571000D01*
X41750000Y34571000D01*
X41750000Y35841000D01*
X44086500Y35841000D01*
X44086500Y34771000D01*
X44161500Y34696000D01*
X44996500Y34696000D01*
X44996500Y35916000D01*
X45046500Y35916000D01*
X45046500Y34696000D01*
X46266500Y34696000D01*
X46266500Y35916000D01*
X45046500Y35916000D01*
X44996500Y35916000D01*
X44161500Y35916000D01*
X44086500Y35841000D01*
X41750000Y35841000D01*
X41750000Y36576000D01*
X41713843Y36757775D01*
X41610876Y36911876D01*
X41411752Y37111000D01*
X44086500Y37111000D01*
X44086500Y36041000D01*
X44161500Y35966000D01*
X44996500Y35966000D01*
X44996500Y37186000D01*
X45046500Y37186000D01*
X45046500Y35966000D01*
X46266500Y35966000D01*
X46266500Y37186000D01*
X46316500Y37186000D01*
X46316500Y35966000D01*
X46336500Y35966000D01*
X46336500Y35916000D01*
X46316500Y35916000D01*
X46316500Y34696000D01*
X46336500Y34696000D01*
X46336500Y34646000D01*
X46316500Y34646000D01*
X46316500Y33426000D01*
X47536500Y33426000D01*
X47536500Y33446000D01*
X47586500Y33446000D01*
X47586500Y33426000D01*
X48421500Y33426000D01*
X48496500Y33501000D01*
X48496500Y33974000D01*
X49119673Y33974000D01*
X49229936Y34019672D01*
X49314328Y34104063D01*
X49360000Y34214326D01*
X49360000Y35174000D01*
X49285000Y35249000D01*
X48496500Y35249000D01*
X48496500Y35299000D01*
X49285000Y35299000D01*
X49360000Y35374000D01*
X49360000Y36333674D01*
X49314328Y36443937D01*
X49229936Y36528328D01*
X49119673Y36574000D01*
X48496500Y36574000D01*
X48496500Y37111000D01*
X48421500Y37186000D01*
X47586500Y37186000D01*
X47586500Y37166000D01*
X47536500Y37166000D01*
X47536500Y37186000D01*
X46316500Y37186000D01*
X46266500Y37186000D01*
X45046500Y37186000D01*
X44996500Y37186000D01*
X44161500Y37186000D01*
X44086500Y37111000D01*
X41411752Y37111000D01*
X40958975Y37563777D01*
X40959121Y37730628D01*
X40852777Y37988000D01*
X40656036Y38185085D01*
X40398850Y38291878D01*
X40120372Y38292121D01*
X39863000Y38185777D01*
X39665915Y37989036D01*
X39559122Y37731850D01*
X39558879Y37453372D01*
X39665223Y37196000D01*
X39861964Y36998915D01*
X40119150Y36892122D01*
X40287273Y36891975D01*
X40800000Y36379248D01*
X40800000Y33695908D01*
X40589350Y33783378D01*
X40310872Y33783621D01*
X40053500Y33677277D01*
X39856415Y33480536D01*
X39749622Y33223350D01*
X39749475Y33055227D01*
X38609602Y31915354D01*
X38566777Y32019000D01*
X38370036Y32216085D01*
X38112850Y32322878D01*
X38037946Y32322943D01*
X38038121Y32523628D01*
X37931777Y32781000D01*
X37735036Y32978085D01*
X37538471Y33059706D01*
X37522843Y33138275D01*
X37480089Y33202260D01*
X37592000Y33180000D01*
X37712085Y33180000D01*
X37829964Y33061915D01*
X38087150Y32955122D01*
X38365628Y32954879D01*
X38623000Y33061223D01*
X38820085Y33257964D01*
X38926878Y33515150D01*
X38927121Y33793628D01*
X38820777Y34051000D01*
X38709005Y34162967D01*
X38756585Y34210464D01*
X38863378Y34467650D01*
X38863621Y34746128D01*
X38757277Y35003500D01*
X38708894Y35051967D01*
X38820085Y35162964D01*
X38926878Y35420150D01*
X38927121Y35698628D01*
X38820777Y35956000D01*
X38624036Y36153085D01*
X38366850Y36259878D01*
X38198726Y36260025D01*
X36077752Y38381000D01*
X44086500Y38381000D01*
X44086500Y37311000D01*
X44161500Y37236000D01*
X44996500Y37236000D01*
X44996500Y38456000D01*
X45046500Y38456000D01*
X45046500Y37236000D01*
X46266500Y37236000D01*
X46266500Y38456000D01*
X46316500Y38456000D01*
X46316500Y37236000D01*
X47536500Y37236000D01*
X47536500Y38456000D01*
X47586500Y38456000D01*
X47586500Y37236000D01*
X48421500Y37236000D01*
X48496500Y37311000D01*
X48496500Y38381000D01*
X48421500Y38456000D01*
X47586500Y38456000D01*
X47536500Y38456000D01*
X46316500Y38456000D01*
X46266500Y38456000D01*
X45046500Y38456000D01*
X44996500Y38456000D01*
X44161500Y38456000D01*
X44086500Y38381000D01*
X36077752Y38381000D01*
X33834416Y40624336D01*
X33909000Y40609500D01*
X37330974Y40609500D01*
X37385464Y40554915D01*
X37642650Y40448122D01*
X37921128Y40447879D01*
X38178500Y40554223D01*
X38375585Y40750964D01*
X38413666Y40842674D01*
X43350000Y40842674D01*
X43350000Y39883000D01*
X43425000Y39808000D01*
X44129500Y39808000D01*
X44161498Y39776002D01*
X44086500Y39776002D01*
X44086500Y39758000D01*
X43425000Y39758000D01*
X43350000Y39683000D01*
X43350000Y38723326D01*
X43395672Y38613063D01*
X43480064Y38528672D01*
X43590327Y38483000D01*
X44350000Y38483000D01*
X44373000Y38506000D01*
X44527000Y38506000D01*
X44550000Y38483000D01*
X45309673Y38483000D01*
X45365200Y38506000D01*
X45439800Y38506000D01*
X45495327Y38483000D01*
X46255000Y38483000D01*
X46298000Y38526000D01*
X46316500Y38526000D01*
X46316500Y38506000D01*
X46432000Y38506000D01*
X46455000Y38483000D01*
X47214673Y38483000D01*
X47270200Y38506000D01*
X47344800Y38506000D01*
X47400327Y38483000D01*
X48160000Y38483000D01*
X48183000Y38506000D01*
X48337000Y38506000D01*
X48360000Y38483000D01*
X49119673Y38483000D01*
X49229936Y38528672D01*
X49314328Y38613063D01*
X49360000Y38723326D01*
X49360000Y38913872D01*
X52131879Y38913872D01*
X52238223Y38656500D01*
X52434964Y38459415D01*
X52692150Y38352622D01*
X52970628Y38352379D01*
X53228000Y38458723D01*
X53425085Y38655464D01*
X53531878Y38912650D01*
X53532025Y39080773D01*
X55136373Y40685122D01*
X55136376Y40685124D01*
X55239343Y40839225D01*
X55275500Y41021000D01*
X55275500Y42601585D01*
X55393585Y42719464D01*
X55500378Y42976650D01*
X55500621Y43255128D01*
X55394277Y43512500D01*
X55197536Y43709585D01*
X54940350Y43816378D01*
X54661872Y43816621D01*
X54404500Y43710277D01*
X54207415Y43513536D01*
X54100622Y43256350D01*
X54100379Y42977872D01*
X54206723Y42720500D01*
X54325500Y42601515D01*
X54325500Y41217751D01*
X52860224Y39752475D01*
X52693372Y39752621D01*
X52436000Y39646277D01*
X52238915Y39449536D01*
X52132122Y39192350D01*
X52131879Y38913872D01*
X49360000Y38913872D01*
X49360000Y39683000D01*
X49285000Y39758000D01*
X48496500Y39758000D01*
X48496500Y39776002D01*
X48421502Y39776002D01*
X48453500Y39808000D01*
X49285000Y39808000D01*
X49360000Y39883000D01*
X49360000Y40842674D01*
X49314328Y40952937D01*
X49229936Y41037328D01*
X49119673Y41083000D01*
X48360000Y41083000D01*
X48285000Y41008000D01*
X48285000Y40674060D01*
X48256174Y40686000D01*
X48235000Y40686000D01*
X48235000Y41008000D01*
X48160000Y41083000D01*
X47400327Y41083000D01*
X47307500Y41044550D01*
X47214673Y41083000D01*
X46455000Y41083000D01*
X46380000Y41008000D01*
X46380000Y40674500D01*
X46330000Y40624500D01*
X46330000Y41008000D01*
X46255000Y41083000D01*
X45495327Y41083000D01*
X45402500Y41044550D01*
X45309673Y41083000D01*
X44550000Y41083000D01*
X44475000Y41008000D01*
X44475000Y40686000D01*
X44425000Y40686000D01*
X44425000Y41008000D01*
X44350000Y41083000D01*
X43590327Y41083000D01*
X43480064Y41037328D01*
X43395672Y40952937D01*
X43350000Y40842674D01*
X38413666Y40842674D01*
X38482378Y41008150D01*
X38482621Y41286628D01*
X38376277Y41544000D01*
X38179536Y41741085D01*
X37922350Y41847878D01*
X37643872Y41848121D01*
X37386500Y41741777D01*
X37203904Y41559500D01*
X34105752Y41559500D01*
X30882252Y44783000D01*
X43293144Y44783000D01*
X43293144Y42783000D01*
X43317549Y42653298D01*
X43394203Y42534175D01*
X43511163Y42454259D01*
X43650000Y42426144D01*
X45250000Y42426144D01*
X45379702Y42450549D01*
X45401276Y42464431D01*
X45416163Y42454259D01*
X45555000Y42426144D01*
X47155000Y42426144D01*
X47284702Y42450549D01*
X47306276Y42464431D01*
X47321163Y42454259D01*
X47460000Y42426144D01*
X47912000Y42426144D01*
X47912000Y42418000D01*
X47948157Y42236225D01*
X48051124Y42082124D01*
X48305124Y41828124D01*
X48459225Y41725157D01*
X48641000Y41689000D01*
X51047085Y41689000D01*
X51164964Y41570915D01*
X51422150Y41464122D01*
X51700628Y41463879D01*
X51958000Y41570223D01*
X52155085Y41766964D01*
X52261878Y42024150D01*
X52262121Y42302628D01*
X52155777Y42560000D01*
X51959036Y42757085D01*
X51701850Y42863878D01*
X51423372Y42864121D01*
X51166000Y42757777D01*
X51047015Y42639000D01*
X49385213Y42639000D01*
X49388741Y42644163D01*
X49416856Y42783000D01*
X49416856Y44783000D01*
X49392451Y44912702D01*
X49315797Y45031825D01*
X49198837Y45111741D01*
X49060000Y45139856D01*
X47460000Y45139856D01*
X47330298Y45115451D01*
X47308724Y45101569D01*
X47293837Y45111741D01*
X47155000Y45139856D01*
X45555000Y45139856D01*
X45425298Y45115451D01*
X45403724Y45101569D01*
X45388837Y45111741D01*
X45250000Y45139856D01*
X43650000Y45139856D01*
X43520298Y45115451D01*
X43401175Y45038797D01*
X43321259Y44921837D01*
X43293144Y44783000D01*
X30882252Y44783000D01*
X29448880Y46216372D01*
X58608879Y46216372D01*
X58715223Y45959000D01*
X58911964Y45761915D01*
X59169150Y45655122D01*
X59447628Y45654879D01*
X59705000Y45761223D01*
X59902085Y45957964D01*
X60008878Y46215150D01*
X60009121Y46493628D01*
X59902777Y46751000D01*
X59706036Y46948085D01*
X59448850Y47054878D01*
X59170372Y47055121D01*
X58913000Y46948777D01*
X58715915Y46752036D01*
X58609122Y46494850D01*
X58608879Y46216372D01*
X29448880Y46216372D01*
X27724285Y47940967D01*
X27824628Y47940879D01*
X28082000Y48047223D01*
X28146359Y48111470D01*
X28459870Y48111470D01*
X28573811Y47835714D01*
X28784605Y47624552D01*
X29060161Y47510131D01*
X29358530Y47509870D01*
X29634286Y47623811D01*
X29795756Y47785000D01*
X30283248Y47785000D01*
X30779122Y47289127D01*
X30779124Y47289124D01*
X30933225Y47186157D01*
X30963384Y47180158D01*
X31115000Y47149999D01*
X31115005Y47150000D01*
X48944437Y47150000D01*
X49104605Y46989552D01*
X49380161Y46875131D01*
X49678530Y46874870D01*
X49954286Y46988811D01*
X50165448Y47199605D01*
X50279869Y47475161D01*
X50280130Y47773530D01*
X50166189Y48049286D01*
X49955395Y48260448D01*
X49679839Y48374869D01*
X49381470Y48375130D01*
X49105714Y48261189D01*
X48944244Y48100000D01*
X31311751Y48100000D01*
X30815876Y48595876D01*
X30661775Y48698843D01*
X30480000Y48735000D01*
X29795563Y48735000D01*
X29635395Y48895448D01*
X29359839Y49009869D01*
X29061470Y49010130D01*
X28785714Y48896189D01*
X28574552Y48685395D01*
X28460131Y48409839D01*
X28459870Y48111470D01*
X28146359Y48111470D01*
X28279085Y48243964D01*
X28385878Y48501150D01*
X28386025Y48669273D01*
X30930752Y51214000D01*
X47936248Y51214000D01*
X48686124Y50464124D01*
X48840225Y50361157D01*
X49022000Y50325000D01*
X51380144Y50325000D01*
X51380144Y49950000D01*
X51404549Y49820298D01*
X51481203Y49701175D01*
X51598163Y49621259D01*
X51737000Y49593144D01*
X53737000Y49593144D01*
X53866702Y49617549D01*
X53985825Y49694203D01*
X54065741Y49811163D01*
X54093856Y49950000D01*
X54093856Y51650000D01*
X54069451Y51779702D01*
X54046621Y51815180D01*
X54065741Y51843163D01*
X54093856Y51982000D01*
X54093856Y53682000D01*
X54069451Y53811702D01*
X53992797Y53930825D01*
X53875837Y54010741D01*
X53737000Y54038856D01*
X51737000Y54038856D01*
X51607298Y54014451D01*
X51488175Y53937797D01*
X51408259Y53820837D01*
X51380144Y53682000D01*
X51380144Y51982000D01*
X51404549Y51852298D01*
X51427379Y51816820D01*
X51408259Y51788837D01*
X51380144Y51650000D01*
X51380144Y51275000D01*
X49218752Y51275000D01*
X48468876Y52024876D01*
X48314775Y52127843D01*
X48133000Y52164000D01*
X30734000Y52164000D01*
X30552225Y52127843D01*
X30457912Y52064825D01*
X30398124Y52024876D01*
X27714223Y49340975D01*
X27547372Y49341121D01*
X27290000Y49234777D01*
X27092915Y49038036D01*
X26986122Y48780850D01*
X26986033Y48679219D01*
X24148376Y51516876D01*
X24103000Y51547195D01*
X24103000Y53301000D01*
X25209144Y53301000D01*
X25209144Y51601000D01*
X25233549Y51471298D01*
X25310203Y51352175D01*
X25427163Y51272259D01*
X25566000Y51244144D01*
X27266000Y51244144D01*
X27395702Y51268549D01*
X27514825Y51345203D01*
X27594741Y51462163D01*
X27622856Y51601000D01*
X27622856Y53301000D01*
X27598451Y53430702D01*
X27521797Y53549825D01*
X27404837Y53629741D01*
X27266000Y53657856D01*
X25566000Y53657856D01*
X25436298Y53633451D01*
X25317175Y53556797D01*
X25237259Y53439837D01*
X25209144Y53301000D01*
X24103000Y53301000D01*
X24103000Y54991000D01*
X25192491Y54991000D01*
X25283836Y54531780D01*
X25543963Y54142472D01*
X25933271Y53882345D01*
X26392491Y53791000D01*
X26439509Y53791000D01*
X26898729Y53882345D01*
X27288037Y54142472D01*
X27422942Y54344372D01*
X55052879Y54344372D01*
X55159223Y54087000D01*
X55355964Y53889915D01*
X55477500Y53839449D01*
X55437000Y53741673D01*
X55437000Y52932000D01*
X55512000Y52857000D01*
X56712000Y52857000D01*
X56712000Y53907000D01*
X56637000Y53982000D01*
X56241939Y53982000D01*
X56346085Y54085964D01*
X56452878Y54343150D01*
X56453025Y54511273D01*
X57156251Y55214500D01*
X59571644Y55214500D01*
X59571644Y54839500D01*
X59595474Y54712856D01*
X58293000Y54712856D01*
X58163298Y54688451D01*
X58044175Y54611797D01*
X57964259Y54494837D01*
X57936144Y54356000D01*
X57936144Y53907121D01*
X57906937Y53936328D01*
X57796674Y53982000D01*
X56837000Y53982000D01*
X56762000Y53907000D01*
X56762000Y52857000D01*
X56782000Y52857000D01*
X56782000Y52807000D01*
X56762000Y52807000D01*
X56762000Y52787000D01*
X56712000Y52787000D01*
X56712000Y52807000D01*
X55512000Y52807000D01*
X55437000Y52732000D01*
X55437000Y51922327D01*
X55460577Y51865406D01*
X55408259Y51788837D01*
X55380144Y51650000D01*
X55380144Y49950000D01*
X55404549Y49820298D01*
X55481203Y49701175D01*
X55598163Y49621259D01*
X55737000Y49593144D01*
X56281067Y49593144D01*
X56298157Y49507225D01*
X56401124Y49353124D01*
X57322124Y48432124D01*
X57476225Y48329157D01*
X57506384Y48323158D01*
X57658000Y48292999D01*
X57658005Y48293000D01*
X61906248Y48293000D01*
X62328500Y47870748D01*
X62328500Y42862500D01*
X62369533Y42644426D01*
X62498415Y42444137D01*
X62572011Y42393852D01*
X62556144Y42315500D01*
X62556144Y41940500D01*
X60072582Y41940500D01*
X60072621Y41985128D01*
X59998033Y42165644D01*
X60463500Y42165644D01*
X60593202Y42190049D01*
X60712325Y42266703D01*
X60792241Y42383663D01*
X60820356Y42522500D01*
X60820356Y43722500D01*
X60795951Y43852202D01*
X60719297Y43971325D01*
X60602337Y44051241D01*
X60463500Y44079356D01*
X58263500Y44079356D01*
X58133798Y44054951D01*
X58014675Y43978297D01*
X57934759Y43861337D01*
X57906644Y43722500D01*
X57906644Y42522500D01*
X57931049Y42392798D01*
X58007703Y42273675D01*
X58124663Y42193759D01*
X58263500Y42165644D01*
X58747071Y42165644D01*
X58672622Y41986350D01*
X58672379Y41707872D01*
X58778723Y41450500D01*
X58975464Y41253415D01*
X59232650Y41146622D01*
X59400774Y41146475D01*
X59417622Y41129627D01*
X59417624Y41129624D01*
X59571725Y41026657D01*
X59753500Y40990500D01*
X62556144Y40990500D01*
X62556144Y40615500D01*
X62580549Y40485798D01*
X62657203Y40366675D01*
X62774163Y40286759D01*
X62913000Y40258644D01*
X64913000Y40258644D01*
X65042702Y40283049D01*
X65161825Y40359703D01*
X65241741Y40476663D01*
X65269856Y40615500D01*
X65269856Y41365500D01*
X66613000Y41365500D01*
X66613000Y40555827D01*
X66658672Y40445564D01*
X66743063Y40361172D01*
X66853326Y40315500D01*
X67813000Y40315500D01*
X67888000Y40390500D01*
X67888000Y41440500D01*
X67938000Y41440500D01*
X67938000Y40390500D01*
X68013000Y40315500D01*
X68972674Y40315500D01*
X69082937Y40361172D01*
X69167328Y40445564D01*
X69213000Y40555827D01*
X69213000Y41365500D01*
X69138000Y41440500D01*
X67938000Y41440500D01*
X67888000Y41440500D01*
X66688000Y41440500D01*
X66613000Y41365500D01*
X65269856Y41365500D01*
X65269856Y42262500D01*
X66613000Y42262500D01*
X66613000Y41565500D01*
X66688000Y41490500D01*
X67888000Y41490500D01*
X67888000Y41510500D01*
X67938000Y41510500D01*
X67938000Y41490500D01*
X69138000Y41490500D01*
X69213000Y41565500D01*
X69213000Y42262500D01*
X70548500Y42262500D01*
X70766574Y42303533D01*
X70966863Y42432415D01*
X71101228Y42629066D01*
X71148500Y42862500D01*
X71148500Y50165000D01*
X71107467Y50383074D01*
X70978585Y50583363D01*
X70781934Y50717728D01*
X70548500Y50765000D01*
X68389500Y50765000D01*
X68171426Y50723967D01*
X67971137Y50595085D01*
X67836772Y50398434D01*
X67789500Y50165000D01*
X67789500Y48542500D01*
X63000252Y48542500D01*
X62623608Y48919144D01*
X65913000Y48919144D01*
X66042702Y48943549D01*
X66161825Y49020203D01*
X66241741Y49137163D01*
X66269856Y49276000D01*
X66269856Y54356000D01*
X66245451Y54485702D01*
X66179933Y54587520D01*
X66257241Y54700663D01*
X66285356Y54839500D01*
X66285356Y55214500D01*
X67687748Y55214500D01*
X68056627Y54845621D01*
X68049259Y54834837D01*
X68021144Y54696000D01*
X68021144Y53496000D01*
X68045549Y53366298D01*
X68122203Y53247175D01*
X68239163Y53167259D01*
X68378000Y53139144D01*
X70578000Y53139144D01*
X70707702Y53163549D01*
X70826825Y53240203D01*
X70906741Y53357163D01*
X70934856Y53496000D01*
X70934856Y54696000D01*
X70910451Y54825702D01*
X70833797Y54944825D01*
X70716837Y55024741D01*
X70578000Y55052856D01*
X69192896Y55052856D01*
X68220376Y56025376D01*
X68066275Y56128343D01*
X67884500Y56164500D01*
X66285356Y56164500D01*
X66285356Y56539500D01*
X66260951Y56669202D01*
X66184297Y56788325D01*
X66067337Y56868241D01*
X65928500Y56896356D01*
X63928500Y56896356D01*
X63798798Y56871951D01*
X63679675Y56795297D01*
X63599759Y56678337D01*
X63571644Y56539500D01*
X63571644Y54839500D01*
X63595474Y54712856D01*
X62259710Y54712856D01*
X62285356Y54839500D01*
X62285356Y56539500D01*
X62260951Y56669202D01*
X62184297Y56788325D01*
X62067337Y56868241D01*
X61928500Y56896356D01*
X59928500Y56896356D01*
X59798798Y56871951D01*
X59679675Y56795297D01*
X59599759Y56678337D01*
X59571644Y56539500D01*
X59571644Y56164500D01*
X56959505Y56164500D01*
X56959500Y56164501D01*
X56807884Y56134342D01*
X56777725Y56128343D01*
X56623624Y56025376D01*
X56623622Y56025373D01*
X55781224Y55182975D01*
X55614372Y55183121D01*
X55357000Y55076777D01*
X55159915Y54880036D01*
X55053122Y54622850D01*
X55052879Y54344372D01*
X27422942Y54344372D01*
X27548164Y54531780D01*
X27639509Y54991000D01*
X27548164Y55450220D01*
X27288037Y55839528D01*
X26898729Y56099655D01*
X26439509Y56191000D01*
X26392491Y56191000D01*
X25933271Y56099655D01*
X25543963Y55839528D01*
X25283836Y55450220D01*
X25192491Y54991000D01*
X24103000Y54991000D01*
X24103000Y59938823D01*
X69169662Y59938823D01*
X69465906Y59221857D01*
X70013971Y58672834D01*
X70730419Y58375339D01*
X71506177Y58374662D01*
X72223143Y58670906D01*
X72772166Y59218971D01*
X73069661Y59935419D01*
X73070338Y60711177D01*
X72774094Y61428143D01*
X72226029Y61977166D01*
X71509581Y62274661D01*
X70733823Y62275338D01*
X70016857Y61979094D01*
X69467834Y61431029D01*
X69170339Y60714581D01*
X69169662Y59938823D01*
X24103000Y59938823D01*
X24103000Y63075000D01*
X71078140Y63075000D01*
X72169195Y62857976D01*
X73058658Y62263655D01*
X73652976Y61374194D01*
X73870000Y60283139D01*
X73870000Y3216861D01*
X73652976Y2125806D01*
X73058658Y1236345D01*
X72169195Y642024D01*
X71078140Y425000D01*
X3216861Y425000D01*
X2125806Y642024D01*
X1236345Y1236342D01*
X642024Y2125805D01*
X510142Y2788823D01*
X36149662Y2788823D01*
X36445906Y2071857D01*
X36993971Y1522834D01*
X37710419Y1225339D01*
X38486177Y1224662D01*
X39203143Y1520906D01*
X39752166Y2068971D01*
X40049661Y2785419D01*
X40050338Y3561177D01*
X39754094Y4278143D01*
X39206029Y4827166D01*
X38489581Y5124661D01*
X37713823Y5125338D01*
X36996857Y4829094D01*
X36447834Y4281029D01*
X36150339Y3564581D01*
X36149662Y2788823D01*
X510142Y2788823D01*
X425000Y3216860D01*
X425000Y8432067D01*
X17150423Y8432067D01*
X17282394Y8226171D01*
X17828329Y7985233D01*
X18424910Y7971555D01*
X18981312Y8187220D01*
X19039606Y8226171D01*
X19171577Y8432067D01*
X30485423Y8432067D01*
X30617394Y8226171D01*
X31163329Y7985233D01*
X31759910Y7971555D01*
X32316312Y8187220D01*
X32374606Y8226171D01*
X32506577Y8432067D01*
X31496000Y9442645D01*
X30485423Y8432067D01*
X19171577Y8432067D01*
X18161000Y9442645D01*
X17150423Y8432067D01*
X425000Y8432067D01*
X425000Y9214090D01*
X16654555Y9214090D01*
X16870220Y8657688D01*
X16909171Y8599394D01*
X17115067Y8467423D01*
X18125645Y9478000D01*
X18196355Y9478000D01*
X19206933Y8467423D01*
X19412829Y8599394D01*
X19653767Y9145329D01*
X19655343Y9214090D01*
X29989555Y9214090D01*
X30205220Y8657688D01*
X30244171Y8599394D01*
X30450067Y8467423D01*
X31460645Y9478000D01*
X31531355Y9478000D01*
X32541933Y8467423D01*
X32747829Y8599394D01*
X32988767Y9145329D01*
X33002445Y9741910D01*
X32786780Y10298312D01*
X32747829Y10356606D01*
X32541933Y10488577D01*
X31531355Y9478000D01*
X31460645Y9478000D01*
X30450067Y10488577D01*
X30244171Y10356606D01*
X30003233Y9810671D01*
X29989555Y9214090D01*
X19655343Y9214090D01*
X19667445Y9741910D01*
X19451780Y10298312D01*
X19412829Y10356606D01*
X19206933Y10488577D01*
X18196355Y9478000D01*
X18125645Y9478000D01*
X17115067Y10488577D01*
X16909171Y10356606D01*
X16668233Y9810671D01*
X16654555Y9214090D01*
X425000Y9214090D01*
X425000Y10523933D01*
X17150423Y10523933D01*
X18161000Y9513355D01*
X19171577Y10523933D01*
X30485423Y10523933D01*
X31496000Y9513355D01*
X32506577Y10523933D01*
X32374606Y10729829D01*
X31828671Y10970767D01*
X31232090Y10984445D01*
X30675688Y10768780D01*
X30617394Y10729829D01*
X30485423Y10523933D01*
X19171577Y10523933D01*
X19039606Y10729829D01*
X18493671Y10970767D01*
X17897090Y10984445D01*
X17340688Y10768780D01*
X17282394Y10729829D01*
X17150423Y10523933D01*
X425000Y10523933D01*
X425000Y14449619D01*
X3888680Y14449619D01*
X4397573Y13218004D01*
X5339047Y12274885D01*
X6569772Y11763843D01*
X7902381Y11762680D01*
X9133996Y12271573D01*
X10077115Y13213047D01*
X10588157Y14443772D01*
X10589320Y15776381D01*
X10080427Y17007996D01*
X9138953Y17951115D01*
X7908228Y18462157D01*
X6575619Y18463320D01*
X5344004Y17954427D01*
X4400885Y17012953D01*
X3889843Y15782228D01*
X3888680Y14449619D01*
X425000Y14449619D01*
X425000Y18696000D01*
X2032000Y18696000D01*
X2070906Y18703879D01*
X2103681Y18726273D01*
X2125161Y18759654D01*
X2132000Y18796000D01*
X2132000Y19431000D01*
X2124121Y19469906D01*
X2101727Y19502681D01*
X2068346Y19524161D01*
X2032000Y19531000D01*
X425000Y19531000D01*
X425000Y21728401D01*
X4743788Y21728401D01*
X4929890Y21278000D01*
X5274187Y20933101D01*
X5724263Y20746213D01*
X6211599Y20745788D01*
X6662000Y20931890D01*
X7006899Y21276187D01*
X7193787Y21726263D01*
X7194212Y22213599D01*
X7008110Y22664000D01*
X6663813Y23008899D01*
X6213737Y23195787D01*
X5726401Y23196212D01*
X5276000Y23010110D01*
X4931101Y22665813D01*
X4744213Y22215737D01*
X4743788Y21728401D01*
X425000Y21728401D01*
X425000Y24538000D01*
X1771000Y24538000D01*
X1771000Y23728327D01*
X1816672Y23618064D01*
X1901063Y23533672D01*
X2011326Y23488000D01*
X2821000Y23488000D01*
X2896000Y23563000D01*
X2896000Y24613000D01*
X2946000Y24613000D01*
X2946000Y23563000D01*
X3021000Y23488000D01*
X3830674Y23488000D01*
X3940937Y23533672D01*
X4025328Y23618064D01*
X4071000Y23728327D01*
X4071000Y24268401D01*
X4743788Y24268401D01*
X4929890Y23818000D01*
X5274187Y23473101D01*
X5724263Y23286213D01*
X6211599Y23285788D01*
X6662000Y23471890D01*
X7006899Y23816187D01*
X7193787Y24266263D01*
X7194212Y24753599D01*
X7008110Y25204000D01*
X6663813Y25548899D01*
X6213737Y25735787D01*
X5726401Y25736212D01*
X5276000Y25550110D01*
X4931101Y25205813D01*
X4744213Y24755737D01*
X4743788Y24268401D01*
X4071000Y24268401D01*
X4071000Y24538000D01*
X3996000Y24613000D01*
X2946000Y24613000D01*
X2896000Y24613000D01*
X1846000Y24613000D01*
X1771000Y24538000D01*
X425000Y24538000D01*
X425000Y25547673D01*
X1771000Y25547673D01*
X1771000Y24738000D01*
X1846000Y24663000D01*
X2896000Y24663000D01*
X2896000Y25713000D01*
X2946000Y25713000D01*
X2946000Y24663000D01*
X3996000Y24663000D01*
X4071000Y24738000D01*
X4071000Y25547673D01*
X4025328Y25657936D01*
X3940937Y25742328D01*
X3830674Y25788000D01*
X3021000Y25788000D01*
X2946000Y25713000D01*
X2896000Y25713000D01*
X2821000Y25788000D01*
X2011326Y25788000D01*
X1901063Y25742328D01*
X1816672Y25657936D01*
X1771000Y25547673D01*
X425000Y25547673D01*
X425000Y27178000D01*
X1697491Y27178000D01*
X1788836Y26718780D01*
X2048963Y26329472D01*
X2438271Y26069345D01*
X2897491Y25978000D01*
X2944509Y25978000D01*
X3403729Y26069345D01*
X3793037Y26329472D01*
X4053164Y26718780D01*
X4070990Y26808401D01*
X4743788Y26808401D01*
X4929890Y26358000D01*
X5274187Y26013101D01*
X5724263Y25826213D01*
X6211599Y25825788D01*
X6662000Y26011890D01*
X7006899Y26356187D01*
X7193787Y26806263D01*
X7194212Y27293599D01*
X7008110Y27744000D01*
X6663813Y28088899D01*
X6213737Y28275787D01*
X5726401Y28276212D01*
X5276000Y28090110D01*
X4931101Y27745813D01*
X4744213Y27295737D01*
X4743788Y26808401D01*
X4070990Y26808401D01*
X4144509Y27178000D01*
X4053164Y27637220D01*
X3793037Y28026528D01*
X3403729Y28286655D01*
X2944509Y28378000D01*
X2897491Y28378000D01*
X2438271Y28286655D01*
X2048963Y28026528D01*
X1788836Y27637220D01*
X1697491Y27178000D01*
X425000Y27178000D01*
X425000Y32258000D01*
X1697491Y32258000D01*
X1788836Y31798780D01*
X2048963Y31409472D01*
X2438271Y31149345D01*
X2897491Y31058000D01*
X2944509Y31058000D01*
X3403729Y31149345D01*
X3793037Y31409472D01*
X4053164Y31798780D01*
X4144509Y32258000D01*
X4053164Y32717220D01*
X3793037Y33106528D01*
X3403729Y33366655D01*
X2944509Y33458000D01*
X2897491Y33458000D01*
X2438271Y33366655D01*
X2048963Y33106528D01*
X1788836Y32717220D01*
X1697491Y32258000D01*
X425000Y32258000D01*
X425000Y34798000D01*
X1697491Y34798000D01*
X1788836Y34338780D01*
X2048963Y33949472D01*
X2438271Y33689345D01*
X2897491Y33598000D01*
X2944509Y33598000D01*
X3403729Y33689345D01*
X3793037Y33949472D01*
X4053164Y34338780D01*
X4070990Y34428401D01*
X4743788Y34428401D01*
X4929890Y33978000D01*
X5274187Y33633101D01*
X5724263Y33446213D01*
X6211599Y33445788D01*
X6662000Y33631890D01*
X7006899Y33976187D01*
X7193787Y34426263D01*
X7194212Y34913599D01*
X7008110Y35364000D01*
X6663813Y35708899D01*
X6213737Y35895787D01*
X5726401Y35896212D01*
X5276000Y35710110D01*
X4931101Y35365813D01*
X4744213Y34915737D01*
X4743788Y34428401D01*
X4070990Y34428401D01*
X4144509Y34798000D01*
X4053164Y35257220D01*
X3793037Y35646528D01*
X3403729Y35906655D01*
X2944509Y35998000D01*
X2897491Y35998000D01*
X2438271Y35906655D01*
X2048963Y35646528D01*
X1788836Y35257220D01*
X1697491Y34798000D01*
X425000Y34798000D01*
X425000Y37338000D01*
X1697491Y37338000D01*
X1788836Y36878780D01*
X2048963Y36489472D01*
X2438271Y36229345D01*
X2897491Y36138000D01*
X2944509Y36138000D01*
X3403729Y36229345D01*
X3793037Y36489472D01*
X4053164Y36878780D01*
X4070990Y36968401D01*
X4743788Y36968401D01*
X4929890Y36518000D01*
X5274187Y36173101D01*
X5724263Y35986213D01*
X6211599Y35985788D01*
X6662000Y36171890D01*
X7006899Y36516187D01*
X7193787Y36966263D01*
X7194212Y37453599D01*
X7008110Y37904000D01*
X6663813Y38248899D01*
X6213737Y38435787D01*
X5726401Y38436212D01*
X5276000Y38250110D01*
X4931101Y37905813D01*
X4744213Y37455737D01*
X4743788Y36968401D01*
X4070990Y36968401D01*
X4144509Y37338000D01*
X4053164Y37797220D01*
X3793037Y38186528D01*
X3403729Y38446655D01*
X2944509Y38538000D01*
X2897491Y38538000D01*
X2438271Y38446655D01*
X2048963Y38186528D01*
X1788836Y37797220D01*
X1697491Y37338000D01*
X425000Y37338000D01*
X425000Y42064000D01*
X1771000Y42064000D01*
X1771000Y41254327D01*
X1816672Y41144064D01*
X1901063Y41059672D01*
X2011326Y41014000D01*
X2821000Y41014000D01*
X2896000Y41089000D01*
X2896000Y42139000D01*
X2946000Y42139000D01*
X2946000Y41089000D01*
X3021000Y41014000D01*
X3830674Y41014000D01*
X3940937Y41059672D01*
X4025328Y41144064D01*
X4071000Y41254327D01*
X4071000Y42048401D01*
X4743788Y42048401D01*
X4929890Y41598000D01*
X5274187Y41253101D01*
X5724263Y41066213D01*
X6211599Y41065788D01*
X6662000Y41251890D01*
X7006899Y41596187D01*
X7193787Y42046263D01*
X7194212Y42533599D01*
X7008110Y42984000D01*
X6663813Y43328899D01*
X6213737Y43515787D01*
X5726401Y43516212D01*
X5276000Y43330110D01*
X4931101Y42985813D01*
X4744213Y42535737D01*
X4743788Y42048401D01*
X4071000Y42048401D01*
X4071000Y42064000D01*
X3996000Y42139000D01*
X2946000Y42139000D01*
X2896000Y42139000D01*
X1846000Y42139000D01*
X1771000Y42064000D01*
X425000Y42064000D01*
X425000Y43073673D01*
X1771000Y43073673D01*
X1771000Y42264000D01*
X1846000Y42189000D01*
X2896000Y42189000D01*
X2896000Y43239000D01*
X2946000Y43239000D01*
X2946000Y42189000D01*
X3996000Y42189000D01*
X4071000Y42264000D01*
X4071000Y43073673D01*
X4025328Y43183936D01*
X3940937Y43268328D01*
X3830674Y43314000D01*
X3021000Y43314000D01*
X2946000Y43239000D01*
X2896000Y43239000D01*
X2821000Y43314000D01*
X2011326Y43314000D01*
X1901063Y43268328D01*
X1816672Y43183936D01*
X1771000Y43073673D01*
X425000Y43073673D01*
X425000Y47244000D01*
X1697491Y47244000D01*
X1788836Y46784780D01*
X2048963Y46395472D01*
X2438271Y46135345D01*
X2897491Y46044000D01*
X2944509Y46044000D01*
X3403729Y46135345D01*
X3793037Y46395472D01*
X4053164Y46784780D01*
X4144509Y47244000D01*
X4053164Y47703220D01*
X3793037Y48092528D01*
X3403729Y48352655D01*
X2944509Y48444000D01*
X2897491Y48444000D01*
X2438271Y48352655D01*
X2048963Y48092528D01*
X1788836Y47703220D01*
X1697491Y47244000D01*
X425000Y47244000D01*
X425000Y49911000D01*
X1697491Y49911000D01*
X1788836Y49451780D01*
X2048963Y49062472D01*
X2438271Y48802345D01*
X2897491Y48711000D01*
X2944509Y48711000D01*
X3403729Y48802345D01*
X3793037Y49062472D01*
X4053164Y49451780D01*
X4096252Y49668401D01*
X4743788Y49668401D01*
X4929890Y49218000D01*
X5274187Y48873101D01*
X5724263Y48686213D01*
X6211599Y48685788D01*
X6662000Y48871890D01*
X7006899Y49216187D01*
X7193787Y49666263D01*
X7194212Y50153599D01*
X7034142Y50541000D01*
X11727000Y50541000D01*
X11727000Y49581326D01*
X11772672Y49471063D01*
X11857064Y49386672D01*
X11967327Y49341000D01*
X12727000Y49341000D01*
X12802000Y49416000D01*
X12802000Y50616000D01*
X12852000Y50616000D01*
X12852000Y49416000D01*
X12927000Y49341000D01*
X13686673Y49341000D01*
X13796936Y49386672D01*
X13881328Y49471063D01*
X13927000Y49581326D01*
X13927000Y50541000D01*
X13852000Y50616000D01*
X12852000Y50616000D01*
X12802000Y50616000D01*
X11802000Y50616000D01*
X11727000Y50541000D01*
X7034142Y50541000D01*
X7008110Y50604000D01*
X6663813Y50948899D01*
X6213737Y51135787D01*
X5726401Y51136212D01*
X5276000Y50950110D01*
X4931101Y50605813D01*
X4744213Y50155737D01*
X4743788Y49668401D01*
X4096252Y49668401D01*
X4144509Y49911000D01*
X4053164Y50370220D01*
X3793037Y50759528D01*
X3403729Y51019655D01*
X2944509Y51111000D01*
X2897491Y51111000D01*
X2438271Y51019655D01*
X2048963Y50759528D01*
X1788836Y50370220D01*
X1697491Y49911000D01*
X425000Y49911000D01*
X425000Y52451000D01*
X1697491Y52451000D01*
X1788836Y51991780D01*
X2048963Y51602472D01*
X2438271Y51342345D01*
X2897491Y51251000D01*
X2944509Y51251000D01*
X3403729Y51342345D01*
X3793037Y51602472D01*
X4053164Y51991780D01*
X4096252Y52208401D01*
X4743788Y52208401D01*
X4929890Y51758000D01*
X5274187Y51413101D01*
X5724263Y51226213D01*
X6211599Y51225788D01*
X6662000Y51411890D01*
X6951288Y51700674D01*
X11727000Y51700674D01*
X11727000Y50741000D01*
X11802000Y50666000D01*
X12802000Y50666000D01*
X12802000Y51866000D01*
X12852000Y51866000D01*
X12852000Y50666000D01*
X13852000Y50666000D01*
X13927000Y50741000D01*
X13927000Y51700674D01*
X13881328Y51810937D01*
X13796936Y51895328D01*
X13686673Y51941000D01*
X12927000Y51941000D01*
X12852000Y51866000D01*
X12802000Y51866000D01*
X12727000Y51941000D01*
X11967327Y51941000D01*
X11857064Y51895328D01*
X11772672Y51810937D01*
X11727000Y51700674D01*
X6951288Y51700674D01*
X7006899Y51756187D01*
X7193787Y52206263D01*
X7194212Y52693599D01*
X7008110Y53144000D01*
X6889741Y53262576D01*
X20432779Y53262576D01*
X21209000Y52486355D01*
X21985221Y53262576D01*
X21892800Y53434702D01*
X21464302Y53621501D01*
X20996937Y53630102D01*
X20561857Y53459195D01*
X20525200Y53434702D01*
X20432779Y53262576D01*
X6889741Y53262576D01*
X6663813Y53488899D01*
X6213737Y53675787D01*
X5726401Y53676212D01*
X5276000Y53490110D01*
X4931101Y53145813D01*
X4744213Y52695737D01*
X4743788Y52208401D01*
X4096252Y52208401D01*
X4144509Y52451000D01*
X4053164Y52910220D01*
X3793037Y53299528D01*
X3403729Y53559655D01*
X2944509Y53651000D01*
X2897491Y53651000D01*
X2438271Y53559655D01*
X2048963Y53299528D01*
X1788836Y52910220D01*
X1697491Y52451000D01*
X425000Y52451000D01*
X425000Y55841000D01*
X1714144Y55841000D01*
X1714144Y54141000D01*
X1738549Y54011298D01*
X1815203Y53892175D01*
X1932163Y53812259D01*
X2071000Y53784144D01*
X3771000Y53784144D01*
X3900702Y53808549D01*
X4019825Y53885203D01*
X4099741Y54002163D01*
X4127856Y54141000D01*
X4127856Y54179424D01*
X5192779Y54179424D01*
X5285200Y54007298D01*
X5713698Y53820499D01*
X6181063Y53811898D01*
X6616143Y53982805D01*
X6652800Y54007298D01*
X6745221Y54179424D01*
X5969000Y54955645D01*
X5192779Y54179424D01*
X4127856Y54179424D01*
X4127856Y54778937D01*
X4789898Y54778937D01*
X4960805Y54343857D01*
X4985298Y54307200D01*
X5157424Y54214779D01*
X5933645Y54991000D01*
X6004355Y54991000D01*
X6780576Y54214779D01*
X6952702Y54307200D01*
X7139501Y54735698D01*
X7139734Y54748401D01*
X19983788Y54748401D01*
X20169890Y54298000D01*
X20514187Y53953101D01*
X20964263Y53766213D01*
X21451599Y53765788D01*
X21902000Y53951890D01*
X22246899Y54296187D01*
X22433787Y54746263D01*
X22434212Y55233599D01*
X22248110Y55684000D01*
X21903813Y56028899D01*
X21453737Y56215787D01*
X20966401Y56216212D01*
X20516000Y56030110D01*
X20171101Y55685813D01*
X19984213Y55235737D01*
X19983788Y54748401D01*
X7139734Y54748401D01*
X7148102Y55203063D01*
X6977195Y55638143D01*
X6952702Y55674800D01*
X6780576Y55767221D01*
X6004355Y54991000D01*
X5933645Y54991000D01*
X5157424Y55767221D01*
X4985298Y55674800D01*
X4798499Y55246302D01*
X4789898Y54778937D01*
X4127856Y54778937D01*
X4127856Y55802576D01*
X5192779Y55802576D01*
X5969000Y55026355D01*
X6745221Y55802576D01*
X6652800Y55974702D01*
X6224302Y56161501D01*
X5756937Y56170102D01*
X5321857Y55999195D01*
X5285200Y55974702D01*
X5192779Y55802576D01*
X4127856Y55802576D01*
X4127856Y55841000D01*
X4103451Y55970702D01*
X4026797Y56089825D01*
X3909837Y56169741D01*
X3771000Y56197856D01*
X2071000Y56197856D01*
X1941298Y56173451D01*
X1822175Y56096797D01*
X1742259Y55979837D01*
X1714144Y55841000D01*
X425000Y55841000D01*
X425000Y59938823D01*
X1224662Y59938823D01*
X1520906Y59221857D01*
X2068971Y58672834D01*
X2785419Y58375339D01*
X3561177Y58374662D01*
X4278143Y58670906D01*
X4827166Y59218971D01*
X5124661Y59935419D01*
X5125338Y60711177D01*
X4829094Y61428143D01*
X4281029Y61977166D01*
X3564581Y62274661D01*
X2788823Y62275338D01*
X2071857Y61979094D01*
X1522834Y61431029D01*
X1225339Y60714581D01*
X1224662Y59938823D01*
X425000Y59938823D01*
X425000Y60283140D01*
X642024Y61374195D01*
X1236345Y62263658D01*
X2125806Y62857976D01*
X3216861Y63075000D01*
X23649000Y63075000D01*
X23649000Y51656000D01*
X23649000Y51656000D01*
G37*
X23649000Y51656000D02*
X22039358Y51656000D01*
X22020578Y51674780D01*
X22192702Y51767200D01*
X22379501Y52195698D01*
X22388102Y52663063D01*
X22217195Y53098143D01*
X22192702Y53134800D01*
X22020576Y53227221D01*
X21244355Y52451000D01*
X21258498Y52436857D01*
X21223143Y52401502D01*
X21209000Y52415645D01*
X21194858Y52401502D01*
X21159503Y52436857D01*
X21173645Y52451000D01*
X20397424Y53227221D01*
X20225298Y53134800D01*
X20038499Y52706302D01*
X20029898Y52238937D01*
X20200805Y51803857D01*
X20225298Y51767200D01*
X20397422Y51674780D01*
X20378642Y51656000D01*
X17780000Y51656000D01*
X17598225Y51619843D01*
X17444124Y51516876D01*
X16220723Y50293475D01*
X16053872Y50293621D01*
X15796500Y50187277D01*
X15599415Y49990536D01*
X15492622Y49733350D01*
X15492379Y49454872D01*
X15598723Y49197500D01*
X15680081Y49116000D01*
X10033000Y49116000D01*
X9851225Y49079843D01*
X9697124Y48976876D01*
X8566248Y47846000D01*
X7098186Y47846000D01*
X7008110Y48064000D01*
X6663813Y48408899D01*
X6213737Y48595787D01*
X5726401Y48596212D01*
X5276000Y48410110D01*
X4931101Y48065813D01*
X4744213Y47615737D01*
X4743788Y47128401D01*
X4929890Y46678000D01*
X5031712Y46576000D01*
X4699000Y46576000D01*
X4517225Y46539843D01*
X4363124Y46436876D01*
X4363122Y46436873D01*
X3604651Y45678403D01*
X3403729Y45812655D01*
X2944509Y45904000D01*
X2897491Y45904000D01*
X2438271Y45812655D01*
X2048963Y45552528D01*
X1788836Y45163220D01*
X1697491Y44704000D01*
X1788836Y44244780D01*
X2048963Y43855472D01*
X2438271Y43595345D01*
X2897491Y43504000D01*
X2944509Y43504000D01*
X3403729Y43595345D01*
X3793037Y43855472D01*
X4053164Y44244780D01*
X4144509Y44704000D01*
X4116178Y44846427D01*
X4895751Y45626000D01*
X5031463Y45626000D01*
X4931101Y45525813D01*
X4744213Y45075737D01*
X4743788Y44588401D01*
X4929890Y44138000D01*
X5274187Y43793101D01*
X5724263Y43606213D01*
X6211599Y43605788D01*
X6662000Y43791890D01*
X7006899Y44136187D01*
X7193787Y44586263D01*
X7194212Y45073599D01*
X7091101Y45323148D01*
X8320000Y44094249D01*
X8320000Y44005856D01*
X7795000Y44005856D01*
X7665298Y43981451D01*
X7546175Y43904797D01*
X7466259Y43787837D01*
X7438144Y43649000D01*
X7438144Y41949000D01*
X7462549Y41819298D01*
X7539203Y41700175D01*
X7656163Y41620259D01*
X7795000Y41592144D01*
X9795000Y41592144D01*
X9924702Y41616549D01*
X10043825Y41693203D01*
X10123741Y41810163D01*
X10151856Y41949000D01*
X10151856Y43649000D01*
X10127451Y43778702D01*
X10050797Y43897825D01*
X9933837Y43977741D01*
X9795000Y44005856D01*
X9270000Y44005856D01*
X9270000Y44290995D01*
X9270001Y44291000D01*
X9233844Y44472774D01*
X9199677Y44523908D01*
X9130876Y44626876D01*
X9130873Y44626878D01*
X7320876Y46436876D01*
X7166775Y46539843D01*
X6985000Y46576000D01*
X6906537Y46576000D01*
X7006899Y46676187D01*
X7098173Y46896000D01*
X8763000Y46896000D01*
X8944775Y46932157D01*
X9098876Y47035124D01*
X10229752Y48166000D01*
X17731463Y48166000D01*
X17631101Y48065813D01*
X17444213Y47615737D01*
X17443788Y47128401D01*
X17629890Y46678000D01*
X17974187Y46333101D01*
X18424263Y46146213D01*
X18911599Y46145788D01*
X19362000Y46331890D01*
X19706899Y46676187D01*
X19893787Y47126263D01*
X19894212Y47613599D01*
X19708110Y48064000D01*
X19606288Y48166000D01*
X20271463Y48166000D01*
X20171101Y48065813D01*
X19984213Y47615737D01*
X19983788Y47128401D01*
X20169890Y46678000D01*
X20514187Y46333101D01*
X20964263Y46146213D01*
X21451599Y46145788D01*
X21902000Y46331890D01*
X22246899Y46676187D01*
X22338173Y46896000D01*
X23649000Y46896000D01*
X23649000Y42766000D01*
X22338186Y42766000D01*
X22248110Y42984000D01*
X21903813Y43328899D01*
X21453737Y43515787D01*
X20966401Y43516212D01*
X20516000Y43330110D01*
X20171101Y42985813D01*
X19984213Y42535737D01*
X19983788Y42048401D01*
X20169890Y41598000D01*
X20271712Y41496000D01*
X19606537Y41496000D01*
X19706899Y41596187D01*
X19893787Y42046263D01*
X19894212Y42533599D01*
X19708110Y42984000D01*
X19363813Y43328899D01*
X18913737Y43515787D01*
X18426401Y43516212D01*
X17976000Y43330110D01*
X17919792Y43274000D01*
X14151856Y43274000D01*
X14151856Y43649000D01*
X14127451Y43778702D01*
X14050797Y43897825D01*
X13933837Y43977741D01*
X13795000Y44005856D01*
X13302000Y44005856D01*
X13302000Y44588401D01*
X17443788Y44588401D01*
X17629890Y44138000D01*
X17974187Y43793101D01*
X18424263Y43606213D01*
X18911599Y43605788D01*
X19362000Y43791890D01*
X19706899Y44136187D01*
X19893787Y44586263D01*
X19893788Y44588401D01*
X19983788Y44588401D01*
X20169890Y44138000D01*
X20514187Y43793101D01*
X20964263Y43606213D01*
X21451599Y43605788D01*
X21902000Y43791890D01*
X22246899Y44136187D01*
X22433787Y44586263D01*
X22434212Y45073599D01*
X22248110Y45524000D01*
X21903813Y45868899D01*
X21453737Y46055787D01*
X20966401Y46056212D01*
X20516000Y45870110D01*
X20171101Y45525813D01*
X19984213Y45075737D01*
X19983788Y44588401D01*
X19893788Y44588401D01*
X19894212Y45073599D01*
X19708110Y45524000D01*
X19363813Y45868899D01*
X18913737Y46055787D01*
X18426401Y46056212D01*
X17976000Y45870110D01*
X17631101Y45525813D01*
X17444213Y45075737D01*
X17443788Y44588401D01*
X13302000Y44588401D01*
X13302000Y45284144D01*
X13627000Y45284144D01*
X13756702Y45308549D01*
X13875825Y45385203D01*
X13955741Y45502163D01*
X13983856Y45641000D01*
X13983856Y47641000D01*
X13959451Y47770702D01*
X13882797Y47889825D01*
X13765837Y47969741D01*
X13627000Y47997856D01*
X12027000Y47997856D01*
X11897298Y47973451D01*
X11778175Y47896797D01*
X11698259Y47779837D01*
X11670144Y47641000D01*
X11670144Y45641000D01*
X11694549Y45511298D01*
X11771203Y45392175D01*
X11888163Y45312259D01*
X12027000Y45284144D01*
X12352000Y45284144D01*
X12352000Y44005856D01*
X11795000Y44005856D01*
X11665298Y43981451D01*
X11546175Y43904797D01*
X11466259Y43787837D01*
X11438144Y43649000D01*
X11438144Y41949000D01*
X11462549Y41819298D01*
X11539203Y41700175D01*
X11656163Y41620259D01*
X11795000Y41592144D01*
X13795000Y41592144D01*
X13924702Y41616549D01*
X14043825Y41693203D01*
X14123741Y41810163D01*
X14151856Y41949000D01*
X14151856Y42324000D01*
X17444028Y42324000D01*
X17443788Y42048401D01*
X17629890Y41598000D01*
X17731712Y41496000D01*
X8953500Y41496000D01*
X8771725Y41459843D01*
X8617624Y41356876D01*
X7486748Y40226000D01*
X7098186Y40226000D01*
X7008110Y40444000D01*
X6663813Y40788899D01*
X6213737Y40975787D01*
X5726401Y40976212D01*
X5276000Y40790110D01*
X4931101Y40445813D01*
X4744213Y39995737D01*
X4743788Y39508401D01*
X4929890Y39058000D01*
X5274187Y38713101D01*
X5724263Y38526213D01*
X6211599Y38525788D01*
X6662000Y38711890D01*
X7006899Y39056187D01*
X7098173Y39276000D01*
X7683500Y39276000D01*
X7865275Y39312157D01*
X8019376Y39415124D01*
X9150252Y40546000D01*
X20271463Y40546000D01*
X20171101Y40445813D01*
X19984213Y39995737D01*
X19983788Y39508401D01*
X20169890Y39058000D01*
X20514187Y38713101D01*
X20964263Y38526213D01*
X21451599Y38525788D01*
X21671570Y38616678D01*
X23032124Y37256124D01*
X23186225Y37153157D01*
X23368000Y37117000D01*
X23649000Y37117000D01*
X23649000Y36416000D01*
X22146537Y36416000D01*
X22246899Y36516187D01*
X22433787Y36966263D01*
X22434212Y37453599D01*
X22248110Y37904000D01*
X21903813Y38248899D01*
X21453737Y38435787D01*
X20966401Y38436212D01*
X20516000Y38250110D01*
X20171101Y37905813D01*
X19984213Y37455737D01*
X19983788Y36968401D01*
X19997474Y36935278D01*
X17146475Y39786277D01*
X17146621Y39953128D01*
X17040277Y40210500D01*
X16843536Y40407585D01*
X16586350Y40514378D01*
X16307872Y40514621D01*
X16050500Y40408277D01*
X15853415Y40211536D01*
X15746622Y39954350D01*
X15746604Y39933191D01*
X15570350Y40006378D01*
X15291872Y40006621D01*
X15034500Y39900277D01*
X14837415Y39703536D01*
X14730622Y39446350D01*
X14730379Y39167872D01*
X14836723Y38910500D01*
X15033464Y38713415D01*
X15290650Y38606622D01*
X15458773Y38606475D01*
X18194000Y35871249D01*
X18194000Y25149776D01*
X18046850Y25210878D01*
X17878727Y25211025D01*
X11892876Y31196876D01*
X11738775Y31299843D01*
X11557000Y31336000D01*
X6906537Y31336000D01*
X7006899Y31436187D01*
X7193787Y31886263D01*
X7194212Y32373599D01*
X7008110Y32824000D01*
X6663813Y33168899D01*
X6213737Y33355787D01*
X5726401Y33356212D01*
X5276000Y33170110D01*
X4931101Y32825813D01*
X4744213Y32375737D01*
X4743788Y31888401D01*
X4929890Y31438000D01*
X5031712Y31336000D01*
X4826000Y31336000D01*
X4644225Y31299843D01*
X4490124Y31196876D01*
X3819769Y30526521D01*
X3793037Y30566528D01*
X3403729Y30826655D01*
X2944509Y30918000D01*
X2897491Y30918000D01*
X2438271Y30826655D01*
X2048963Y30566528D01*
X1788836Y30177220D01*
X1697491Y29718000D01*
X1788836Y29258780D01*
X2048963Y28869472D01*
X2438271Y28609345D01*
X2897491Y28518000D01*
X2944509Y28518000D01*
X3403729Y28609345D01*
X3793037Y28869472D01*
X4053164Y29258780D01*
X4092305Y29455553D01*
X5022752Y30386000D01*
X5031463Y30386000D01*
X4931101Y30285813D01*
X4744213Y29835737D01*
X4743788Y29348401D01*
X4929890Y28898000D01*
X5274187Y28553101D01*
X5724263Y28366213D01*
X6211599Y28365788D01*
X6662000Y28551890D01*
X7006899Y28896187D01*
X7193787Y29346263D01*
X7194212Y29833599D01*
X7008110Y30284000D01*
X6906288Y30386000D01*
X11360248Y30386000D01*
X17207025Y24539223D01*
X17206879Y24372372D01*
X17313223Y24115000D01*
X17509964Y23917915D01*
X17767150Y23811122D01*
X18045628Y23810879D01*
X18194000Y23872185D01*
X18194000Y23100186D01*
X17976000Y23010110D01*
X17631101Y22665813D01*
X17444213Y22215737D01*
X17443788Y21728401D01*
X17629890Y21278000D01*
X17974187Y20933101D01*
X18424263Y20746213D01*
X18911599Y20745788D01*
X19362000Y20931890D01*
X19464000Y21033712D01*
X19464000Y19531000D01*
X3429000Y19531000D01*
X3390094Y19523121D01*
X3357319Y19500727D01*
X3335839Y19467346D01*
X3329000Y19431000D01*
X3329000Y18796000D01*
X3336879Y18757094D01*
X3359273Y18724319D01*
X3392654Y18702839D01*
X3429000Y18696000D01*
X19464000Y18696000D01*
X19464000Y16013998D01*
X19361000Y16034856D01*
X16961000Y16034856D01*
X16831298Y16010451D01*
X16712175Y15933797D01*
X16632259Y15816837D01*
X16604144Y15678000D01*
X16604144Y13278000D01*
X16628549Y13148298D01*
X16705203Y13029175D01*
X16822163Y12949259D01*
X16961000Y12921144D01*
X19361000Y12921144D01*
X19490702Y12945549D01*
X19609825Y13022203D01*
X19689741Y13139163D01*
X19717856Y13278000D01*
X19717856Y14535392D01*
X22160025Y12093223D01*
X22159879Y11926372D01*
X22266223Y11669000D01*
X22462964Y11471915D01*
X22720150Y11365122D01*
X22998628Y11364879D01*
X23256000Y11471223D01*
X23453085Y11667964D01*
X23559878Y11925150D01*
X23559879Y11926372D01*
X34351879Y11926372D01*
X34458223Y11669000D01*
X34654964Y11471915D01*
X34912150Y11365122D01*
X35190628Y11364879D01*
X35448000Y11471223D01*
X35645085Y11667964D01*
X35648421Y11676000D01*
X45645144Y11676000D01*
X45645144Y10676000D01*
X45669549Y10546298D01*
X45746203Y10427175D01*
X45863163Y10347259D01*
X46002000Y10319144D01*
X48002000Y10319144D01*
X48131702Y10343549D01*
X48250825Y10420203D01*
X48330741Y10537163D01*
X48345227Y10608697D01*
X48370964Y10582915D01*
X48628150Y10476122D01*
X48906628Y10475879D01*
X49164000Y10582223D01*
X49361085Y10778964D01*
X49467878Y11036150D01*
X49468121Y11314628D01*
X49361777Y11572000D01*
X49165036Y11769085D01*
X48907850Y11875878D01*
X48629372Y11876121D01*
X48372000Y11769777D01*
X48346079Y11743902D01*
X48334451Y11805702D01*
X48257797Y11924825D01*
X48140837Y12004741D01*
X48002000Y12032856D01*
X46002000Y12032856D01*
X45872298Y12008451D01*
X45753175Y11931797D01*
X45673259Y11814837D01*
X45645144Y11676000D01*
X35648421Y11676000D01*
X35751878Y11925150D01*
X35752121Y12203628D01*
X35645777Y12461000D01*
X35527000Y12579985D01*
X35527000Y12631909D01*
X35543964Y12614915D01*
X35801150Y12508122D01*
X36079628Y12507879D01*
X36337000Y12614223D01*
X36534085Y12810964D01*
X36640878Y13068150D01*
X36641025Y13236273D01*
X37915752Y14511000D01*
X49022000Y14511000D01*
X49203775Y14547157D01*
X49357876Y14650124D01*
X50754873Y16047122D01*
X50754876Y16047124D01*
X50857843Y16201225D01*
X50894000Y16383000D01*
X50894000Y18345248D01*
X51126715Y18577963D01*
X51150549Y18451298D01*
X51215466Y18350415D01*
X51154259Y18260837D01*
X51126144Y18122000D01*
X51126144Y16422000D01*
X51150549Y16292298D01*
X51227203Y16173175D01*
X51344163Y16093259D01*
X51483000Y16065144D01*
X53483000Y16065144D01*
X53612702Y16089549D01*
X53731825Y16166203D01*
X53811741Y16283163D01*
X53839856Y16422000D01*
X53839856Y18122000D01*
X53815451Y18251702D01*
X53750534Y18352585D01*
X53811741Y18442163D01*
X53839856Y18581000D01*
X53839856Y20281000D01*
X53828628Y20340673D01*
X55183000Y20340673D01*
X55183000Y19531000D01*
X55258000Y19456000D01*
X56458000Y19456000D01*
X56458000Y20506000D01*
X56508000Y20506000D01*
X56508000Y19456000D01*
X57708000Y19456000D01*
X57783000Y19531000D01*
X57783000Y20340673D01*
X57737328Y20450936D01*
X57652937Y20535328D01*
X57542674Y20581000D01*
X56583000Y20581000D01*
X56508000Y20506000D01*
X56458000Y20506000D01*
X56383000Y20581000D01*
X55423326Y20581000D01*
X55313063Y20535328D01*
X55228672Y20450936D01*
X55183000Y20340673D01*
X53828628Y20340673D01*
X53815451Y20410702D01*
X53738797Y20529825D01*
X53621837Y20609741D01*
X53483000Y20637856D01*
X51483000Y20637856D01*
X51353298Y20613451D01*
X51234175Y20536797D01*
X51154259Y20419837D01*
X51126144Y20281000D01*
X51126144Y19869789D01*
X51039657Y19812000D01*
X50972124Y19766876D01*
X50863397Y19658149D01*
X50894000Y19812000D01*
X50894000Y33966248D01*
X50999144Y34071392D01*
X50999144Y32678000D01*
X51023549Y32548298D01*
X51100203Y32429175D01*
X51217163Y32349259D01*
X51356000Y32321144D01*
X53356000Y32321144D01*
X53485702Y32345549D01*
X53604825Y32422203D01*
X53684741Y32539163D01*
X53712856Y32678000D01*
X53712856Y34378000D01*
X53688451Y34507702D01*
X53623534Y34608585D01*
X53684741Y34698163D01*
X53712856Y34837000D01*
X53712856Y35471638D01*
X53962150Y35368122D01*
X54240628Y35367879D01*
X54498000Y35474223D01*
X54695085Y35670964D01*
X54801878Y35928150D01*
X54802025Y36096273D01*
X55056000Y36350248D01*
X55056000Y35787000D01*
X55131000Y35712000D01*
X56331000Y35712000D01*
X56331000Y36762000D01*
X56381000Y36762000D01*
X56381000Y35712000D01*
X57581000Y35712000D01*
X57656000Y35787000D01*
X57656000Y36596673D01*
X57610328Y36706936D01*
X57525937Y36791328D01*
X57415674Y36837000D01*
X56456000Y36837000D01*
X56381000Y36762000D01*
X56331000Y36762000D01*
X56256000Y36837000D01*
X55542752Y36837000D01*
X56775252Y38069500D01*
X59825644Y38069500D01*
X59825644Y37694500D01*
X59849474Y37567856D01*
X58547000Y37567856D01*
X58417298Y37543451D01*
X58298175Y37466797D01*
X58218259Y37349837D01*
X58190144Y37211000D01*
X58190144Y32143607D01*
X57703239Y32630512D01*
X57712856Y32678000D01*
X57712856Y34378000D01*
X57688451Y34507702D01*
X57611797Y34626825D01*
X57587019Y34643755D01*
X57610328Y34667064D01*
X57656000Y34777327D01*
X57656000Y35587000D01*
X57581000Y35662000D01*
X56381000Y35662000D01*
X56381000Y35642000D01*
X56331000Y35642000D01*
X56331000Y35662000D01*
X55131000Y35662000D01*
X55056000Y35587000D01*
X55056000Y34777327D01*
X55101672Y34667064D01*
X55124068Y34644668D01*
X55107175Y34633797D01*
X55027259Y34516837D01*
X54999144Y34378000D01*
X54999144Y32678000D01*
X55023549Y32548298D01*
X55100203Y32429175D01*
X55217163Y32349259D01*
X55356000Y32321144D01*
X56669104Y32321144D01*
X56701748Y32288500D01*
X54807415Y32288500D01*
X54689536Y32406585D01*
X54432350Y32513378D01*
X54153872Y32513621D01*
X53896500Y32407277D01*
X53699415Y32210536D01*
X53599120Y31969000D01*
X52197000Y31969000D01*
X51978926Y31927967D01*
X51778637Y31799085D01*
X51644272Y31602434D01*
X51597000Y31369000D01*
X51597000Y28923856D01*
X51312000Y28923856D01*
X51182298Y28899451D01*
X51063175Y28822797D01*
X50983259Y28705837D01*
X50955144Y28567000D01*
X50955144Y27567000D01*
X50979549Y27437298D01*
X51056203Y27318175D01*
X51087000Y27297132D01*
X51087000Y27172566D01*
X50989122Y26936850D01*
X50988879Y26658372D01*
X51095223Y26401000D01*
X51291964Y26203915D01*
X51549150Y26097122D01*
X51597000Y26097080D01*
X51597000Y24765000D01*
X51638033Y24546926D01*
X51766915Y24346637D01*
X51963566Y24212272D01*
X52197000Y24165000D01*
X56004055Y24165000D01*
X55942122Y24015850D01*
X55941879Y23737372D01*
X56048223Y23480000D01*
X56244964Y23282915D01*
X56502150Y23176122D01*
X56670273Y23175975D01*
X58465124Y21381124D01*
X58619225Y21278157D01*
X58801000Y21242000D01*
X59571644Y21242000D01*
X59571644Y20867000D01*
X59595474Y20740356D01*
X58356500Y20740356D01*
X58226798Y20715951D01*
X58107675Y20639297D01*
X58027759Y20522337D01*
X57999644Y20383500D01*
X57999644Y15443108D01*
X57377608Y16065144D01*
X57483000Y16065144D01*
X57612702Y16089549D01*
X57731825Y16166203D01*
X57811741Y16283163D01*
X57839856Y16422000D01*
X57839856Y18122000D01*
X57815451Y18251702D01*
X57738797Y18370825D01*
X57714019Y18387755D01*
X57737328Y18411064D01*
X57783000Y18521327D01*
X57783000Y19331000D01*
X57708000Y19406000D01*
X56508000Y19406000D01*
X56508000Y19386000D01*
X56458000Y19386000D01*
X56458000Y19406000D01*
X55258000Y19406000D01*
X55183000Y19331000D01*
X55183000Y18521327D01*
X55228672Y18411064D01*
X55251068Y18388668D01*
X55234175Y18377797D01*
X55154259Y18260837D01*
X55126144Y18122000D01*
X55126144Y16422000D01*
X55150549Y16292298D01*
X55227203Y16173175D01*
X55344163Y16093259D01*
X55483000Y16065144D01*
X56071606Y16065144D01*
X56147124Y15952124D01*
X56765248Y15334000D01*
X54997915Y15334000D01*
X54880036Y15452085D01*
X54622850Y15558878D01*
X54344372Y15559121D01*
X54087000Y15452777D01*
X53889915Y15256036D01*
X53783122Y14998850D01*
X53783025Y14887500D01*
X52387500Y14887500D01*
X52169426Y14846467D01*
X51969137Y14717585D01*
X51834772Y14520934D01*
X51787500Y14287500D01*
X51787500Y12032856D01*
X51312000Y12032856D01*
X51182298Y12008451D01*
X51063175Y11931797D01*
X50983259Y11814837D01*
X50955144Y11676000D01*
X50955144Y11651000D01*
X50933915Y11651000D01*
X50816036Y11769085D01*
X50558850Y11875878D01*
X50280372Y11876121D01*
X50023000Y11769777D01*
X49825915Y11573036D01*
X49719122Y11315850D01*
X49718879Y11037372D01*
X49825223Y10780000D01*
X50021964Y10582915D01*
X50279150Y10476122D01*
X50557628Y10475879D01*
X50815000Y10582223D01*
X50933985Y10701000D01*
X50955144Y10701000D01*
X50955144Y10676000D01*
X50979549Y10546298D01*
X51056203Y10427175D01*
X51173163Y10347259D01*
X51312000Y10319144D01*
X51787500Y10319144D01*
X51787500Y8064500D01*
X51828533Y7846426D01*
X51957415Y7646137D01*
X52154066Y7511772D01*
X52387500Y7464500D01*
X56959500Y7464500D01*
X57177574Y7505533D01*
X57310000Y7590747D01*
X57310000Y7302500D01*
X57346157Y7120725D01*
X57449124Y6966624D01*
X58592124Y5823624D01*
X58746225Y5720657D01*
X58928000Y5684500D01*
X66548000Y5684500D01*
X66729775Y5720657D01*
X66883876Y5823624D01*
X67409896Y6349644D01*
X68976500Y6349644D01*
X69106202Y6374049D01*
X69225325Y6450703D01*
X69305241Y6567663D01*
X69333356Y6706500D01*
X69333356Y8290000D01*
X70675500Y8290000D01*
X70893574Y8331033D01*
X71093863Y8459915D01*
X71228228Y8656566D01*
X71275500Y8890000D01*
X71275500Y16192500D01*
X71234467Y16410574D01*
X71105585Y16610863D01*
X70908934Y16745228D01*
X70675500Y16792500D01*
X68453000Y16792500D01*
X68234926Y16751467D01*
X68034637Y16622585D01*
X67900272Y16425934D01*
X67853000Y16192500D01*
X67853000Y14570000D01*
X63063752Y14570000D01*
X62687108Y14946644D01*
X65976500Y14946644D01*
X66106202Y14971049D01*
X66225325Y15047703D01*
X66305241Y15164663D01*
X66333356Y15303500D01*
X66333356Y20383500D01*
X66308951Y20513202D01*
X66232297Y20632325D01*
X66204660Y20651209D01*
X66257241Y20728163D01*
X66285356Y20867000D01*
X66285356Y21242000D01*
X67751248Y21242000D01*
X68120127Y20873121D01*
X68112759Y20862337D01*
X68084644Y20723500D01*
X68084644Y19523500D01*
X68109049Y19393798D01*
X68185703Y19274675D01*
X68302663Y19194759D01*
X68441500Y19166644D01*
X70641500Y19166644D01*
X70771202Y19191049D01*
X70890325Y19267703D01*
X70970241Y19384663D01*
X70998356Y19523500D01*
X70998356Y20723500D01*
X70973951Y20853202D01*
X70897297Y20972325D01*
X70780337Y21052241D01*
X70641500Y21080356D01*
X69256396Y21080356D01*
X68283876Y22052876D01*
X68129775Y22155843D01*
X67948000Y22192000D01*
X66285356Y22192000D01*
X66285356Y22567000D01*
X66271808Y22639000D01*
X66548000Y22639000D01*
X66729775Y22675157D01*
X66883876Y22778124D01*
X67346396Y23240644D01*
X68913000Y23240644D01*
X69042702Y23265049D01*
X69161825Y23341703D01*
X69241741Y23458663D01*
X69269856Y23597500D01*
X69269856Y25117500D01*
X70802500Y25117500D01*
X71020574Y25158533D01*
X71220863Y25287415D01*
X71355228Y25484066D01*
X71402500Y25717500D01*
X71402500Y33020000D01*
X71361467Y33238074D01*
X71232585Y33438363D01*
X71035934Y33572728D01*
X70802500Y33620000D01*
X68643500Y33620000D01*
X68425426Y33578967D01*
X68225137Y33450085D01*
X68090772Y33253434D01*
X68043500Y33020000D01*
X68043500Y31397500D01*
X63000252Y31397500D01*
X62623608Y31774144D01*
X66167000Y31774144D01*
X66296702Y31798549D01*
X66415825Y31875203D01*
X66495741Y31992163D01*
X66523856Y32131000D01*
X66523856Y37211000D01*
X66499451Y37340702D01*
X66433933Y37442520D01*
X66511241Y37555663D01*
X66539356Y37694500D01*
X66539356Y38069500D01*
X67941748Y38069500D01*
X68310627Y37700621D01*
X68303259Y37689837D01*
X68275144Y37551000D01*
X68275144Y36351000D01*
X68299549Y36221298D01*
X68376203Y36102175D01*
X68493163Y36022259D01*
X68632000Y35994144D01*
X70832000Y35994144D01*
X70961702Y36018549D01*
X71080825Y36095203D01*
X71160741Y36212163D01*
X71188856Y36351000D01*
X71188856Y37551000D01*
X71164451Y37680702D01*
X71087797Y37799825D01*
X70970837Y37879741D01*
X70832000Y37907856D01*
X69446896Y37907856D01*
X68474376Y38880376D01*
X68320275Y38983343D01*
X68138500Y39019500D01*
X66539356Y39019500D01*
X66539356Y39394500D01*
X66514951Y39524202D01*
X66438297Y39643325D01*
X66321337Y39723241D01*
X66182500Y39751356D01*
X64182500Y39751356D01*
X64052798Y39726951D01*
X63933675Y39650297D01*
X63853759Y39533337D01*
X63825644Y39394500D01*
X63825644Y37694500D01*
X63849474Y37567856D01*
X62513710Y37567856D01*
X62539356Y37694500D01*
X62539356Y39394500D01*
X62514951Y39524202D01*
X62438297Y39643325D01*
X62321337Y39723241D01*
X62182500Y39751356D01*
X60182500Y39751356D01*
X60052798Y39726951D01*
X59933675Y39650297D01*
X59853759Y39533337D01*
X59825644Y39394500D01*
X59825644Y39019500D01*
X56746408Y39019500D01*
X56833878Y39230150D01*
X56834121Y39508628D01*
X56736000Y39746099D01*
X56736000Y42411085D01*
X56854085Y42528964D01*
X56960878Y42786150D01*
X56961121Y43064628D01*
X56854777Y43322000D01*
X56658036Y43519085D01*
X56400850Y43625878D01*
X56122372Y43626121D01*
X55865000Y43519777D01*
X55667915Y43323036D01*
X55561122Y43065850D01*
X55560879Y42787372D01*
X55667223Y42530000D01*
X55786000Y42411015D01*
X55786000Y39983610D01*
X55738000Y39963777D01*
X55540915Y39767036D01*
X55434122Y39509850D01*
X55433879Y39231372D01*
X55540223Y38974000D01*
X55736964Y38776915D01*
X55994150Y38670122D01*
X56032337Y38670089D01*
X54130223Y36767975D01*
X53963372Y36768121D01*
X53706000Y36661777D01*
X53692006Y36647808D01*
X53688451Y36666702D01*
X53611797Y36785825D01*
X53494837Y36865741D01*
X53356000Y36893856D01*
X51356000Y36893856D01*
X51226298Y36869451D01*
X51107175Y36792797D01*
X51027259Y36675837D01*
X50999144Y36537000D01*
X50999144Y35414895D01*
X50083124Y34498876D01*
X49980157Y34344775D01*
X49944000Y34163000D01*
X49944000Y29150869D01*
X49800036Y29295085D01*
X49542850Y29401878D01*
X49374727Y29402025D01*
X48859608Y29917144D01*
X49060000Y29917144D01*
X49189702Y29941549D01*
X49308825Y30018203D01*
X49388741Y30135163D01*
X49416856Y30274000D01*
X49416856Y32274000D01*
X49392451Y32403702D01*
X49315797Y32522825D01*
X49198837Y32602741D01*
X49060000Y32630856D01*
X48465239Y32630856D01*
X48496500Y32706327D01*
X48496500Y33301000D01*
X48421500Y33376000D01*
X47586500Y33376000D01*
X47586500Y33356000D01*
X47536500Y33356000D01*
X47536500Y33376000D01*
X46316500Y33376000D01*
X46316500Y32541000D01*
X46391500Y32466000D01*
X47167584Y32466000D01*
X47131259Y32412837D01*
X47103144Y32274000D01*
X47103144Y30274000D01*
X47127549Y30144298D01*
X47204203Y30025175D01*
X47321163Y29945259D01*
X47460000Y29917144D01*
X47785000Y29917144D01*
X47785000Y29845000D01*
X47821157Y29663225D01*
X47924124Y29509124D01*
X48703025Y28730223D01*
X48702879Y28563372D01*
X48809223Y28306000D01*
X48928000Y28187015D01*
X48928000Y24986000D01*
X48228000Y24986000D01*
X48194118Y24979261D01*
X48345085Y25129964D01*
X48451878Y25387150D01*
X48452121Y25665628D01*
X48345777Y25923000D01*
X48227000Y26041985D01*
X48227000Y27295872D01*
X48250825Y27311203D01*
X48330741Y27428163D01*
X48358856Y27567000D01*
X48358856Y28567000D01*
X48334451Y28696702D01*
X48257797Y28815825D01*
X48140837Y28895741D01*
X48002000Y28923856D01*
X46002000Y28923856D01*
X45872298Y28899451D01*
X45753175Y28822797D01*
X45673259Y28705837D01*
X45645144Y28567000D01*
X45645144Y27567000D01*
X45669549Y27437298D01*
X45746203Y27318175D01*
X45863163Y27238259D01*
X46002000Y27210144D01*
X47277000Y27210144D01*
X47277000Y26041915D01*
X47158915Y25924036D01*
X47052122Y25666850D01*
X47051879Y25388372D01*
X47158223Y25131000D01*
X47354964Y24933915D01*
X47612150Y24827122D01*
X47872143Y24826895D01*
X47824104Y24778856D01*
X46339000Y24778856D01*
X46209298Y24754451D01*
X46090175Y24677797D01*
X46010259Y24560837D01*
X45982144Y24422000D01*
X45982144Y22822000D01*
X46006549Y22692298D01*
X46062518Y22605320D01*
X46010259Y22528837D01*
X45982144Y22390000D01*
X45982144Y20790000D01*
X46006549Y20660298D01*
X46062518Y20573320D01*
X46010259Y20496837D01*
X45982144Y20358000D01*
X45982144Y18758000D01*
X46006549Y18628298D01*
X46062518Y18541320D01*
X46010259Y18464837D01*
X45982144Y18326000D01*
X45982144Y16726000D01*
X46006549Y16596298D01*
X46083203Y16477175D01*
X46200163Y16397259D01*
X46339000Y16369144D01*
X48339000Y16369144D01*
X48468702Y16393549D01*
X48587825Y16470203D01*
X48667741Y16587163D01*
X48695856Y16726000D01*
X48695856Y18326000D01*
X48671451Y18455702D01*
X48615482Y18542680D01*
X48667741Y18619163D01*
X48695856Y18758000D01*
X48695856Y20358000D01*
X48671451Y20487702D01*
X48615482Y20574680D01*
X48667741Y20651163D01*
X48695856Y20790000D01*
X48695856Y22390000D01*
X48671451Y22519702D01*
X48615482Y22606680D01*
X48667741Y22683163D01*
X48695856Y22822000D01*
X48695856Y24036000D01*
X49149000Y24036000D01*
X49330775Y24072157D01*
X49484876Y24175124D01*
X49738876Y24429124D01*
X49841843Y24583225D01*
X49878000Y24765000D01*
X49878000Y28187085D01*
X49944000Y28252970D01*
X49944000Y20008752D01*
X49574425Y19639177D01*
X49471458Y19485076D01*
X49435301Y19303301D01*
X49435301Y16833052D01*
X48571248Y15969000D01*
X37211000Y15969000D01*
X37029225Y15932843D01*
X36875124Y15829876D01*
X34716124Y13670876D01*
X34613157Y13516775D01*
X34577000Y13335000D01*
X34577000Y12579915D01*
X34458915Y12462036D01*
X34352122Y12204850D01*
X34351879Y11926372D01*
X23559879Y11926372D01*
X23560072Y12147501D01*
X23609150Y12127122D01*
X23887628Y12126879D01*
X24145000Y12233223D01*
X24342085Y12429964D01*
X24448878Y12687150D01*
X24449121Y12965628D01*
X24342777Y13223000D01*
X24146036Y13420085D01*
X23888850Y13526878D01*
X23720727Y13527025D01*
X23589000Y13658752D01*
X23589000Y15678000D01*
X29939144Y15678000D01*
X29939144Y13278000D01*
X29963549Y13148298D01*
X30040203Y13029175D01*
X30157163Y12949259D01*
X30296000Y12921144D01*
X32696000Y12921144D01*
X32825702Y12945549D01*
X32944825Y13022203D01*
X33024741Y13139163D01*
X33052856Y13278000D01*
X33052856Y15678000D01*
X33028451Y15807702D01*
X32951797Y15926825D01*
X32834837Y16006741D01*
X32696000Y16034856D01*
X30296000Y16034856D01*
X30166298Y16010451D01*
X30047175Y15933797D01*
X29967259Y15816837D01*
X29939144Y15678000D01*
X23589000Y15678000D01*
X23589000Y17426000D01*
X42039000Y17426000D01*
X42039000Y16666327D01*
X42084672Y16556064D01*
X42169063Y16471672D01*
X42279326Y16426000D01*
X43239000Y16426000D01*
X43314000Y16501000D01*
X43314000Y17501000D01*
X43364000Y17501000D01*
X43364000Y16501000D01*
X43439000Y16426000D01*
X44398674Y16426000D01*
X44508937Y16471672D01*
X44593328Y16556064D01*
X44639000Y16666327D01*
X44639000Y17426000D01*
X44564000Y17501000D01*
X43364000Y17501000D01*
X43314000Y17501000D01*
X42114000Y17501000D01*
X42039000Y17426000D01*
X23589000Y17426000D01*
X23589000Y18696000D01*
X24003000Y18696000D01*
X24041906Y18703879D01*
X24074681Y18726273D01*
X24096161Y18759654D01*
X24103000Y18796000D01*
X24103000Y19458000D01*
X42039000Y19458000D01*
X42039000Y18698327D01*
X42084672Y18588064D01*
X42130735Y18542000D01*
X42084672Y18495936D01*
X42039000Y18385673D01*
X42039000Y17626000D01*
X42114000Y17551000D01*
X43314000Y17551000D01*
X43314000Y19533000D01*
X43364000Y19533000D01*
X43364000Y17551000D01*
X44564000Y17551000D01*
X44639000Y17626000D01*
X44639000Y18385673D01*
X44593328Y18495936D01*
X44547265Y18542000D01*
X44593328Y18588064D01*
X44639000Y18698327D01*
X44639000Y19458000D01*
X44564000Y19533000D01*
X43364000Y19533000D01*
X43314000Y19533000D01*
X42114000Y19533000D01*
X42039000Y19458000D01*
X24103000Y19458000D01*
X24103000Y21490000D01*
X42039000Y21490000D01*
X42039000Y20730327D01*
X42084672Y20620064D01*
X42130735Y20574000D01*
X42084672Y20527936D01*
X42039000Y20417673D01*
X42039000Y19658000D01*
X42114000Y19583000D01*
X43314000Y19583000D01*
X43314000Y21565000D01*
X43364000Y21565000D01*
X43364000Y19583000D01*
X44564000Y19583000D01*
X44639000Y19658000D01*
X44639000Y20417673D01*
X44593328Y20527936D01*
X44547265Y20574000D01*
X44593328Y20620064D01*
X44639000Y20730327D01*
X44639000Y21490000D01*
X44564000Y21565000D01*
X43364000Y21565000D01*
X43314000Y21565000D01*
X42114000Y21565000D01*
X42039000Y21490000D01*
X24103000Y21490000D01*
X24103000Y23522000D01*
X42039000Y23522000D01*
X42039000Y22762327D01*
X42084672Y22652064D01*
X42130735Y22606000D01*
X42084672Y22559936D01*
X42039000Y22449673D01*
X42039000Y21690000D01*
X42114000Y21615000D01*
X43314000Y21615000D01*
X43314000Y23597000D01*
X43364000Y23597000D01*
X43364000Y21615000D01*
X44564000Y21615000D01*
X44639000Y21690000D01*
X44639000Y22449673D01*
X44593328Y22559936D01*
X44547265Y22606000D01*
X44593328Y22652064D01*
X44639000Y22762327D01*
X44639000Y23522000D01*
X44564000Y23597000D01*
X43364000Y23597000D01*
X43314000Y23597000D01*
X42114000Y23597000D01*
X42039000Y23522000D01*
X24103000Y23522000D01*
X24103000Y24481673D01*
X42039000Y24481673D01*
X42039000Y23722000D01*
X42114000Y23647000D01*
X43314000Y23647000D01*
X43314000Y24647000D01*
X43364000Y24647000D01*
X43364000Y23647000D01*
X44564000Y23647000D01*
X44639000Y23722000D01*
X44639000Y24481673D01*
X44593328Y24591936D01*
X44508937Y24676328D01*
X44398674Y24722000D01*
X43439000Y24722000D01*
X43364000Y24647000D01*
X43314000Y24647000D01*
X43239000Y24722000D01*
X42279326Y24722000D01*
X42169063Y24676328D01*
X42084672Y24591936D01*
X42039000Y24481673D01*
X24103000Y24481673D01*
X24103000Y30386000D01*
X24384000Y30386000D01*
X24565775Y30422157D01*
X24719876Y30525124D01*
X27530777Y33336025D01*
X27697628Y33335879D01*
X27955000Y33442223D01*
X28152085Y33638964D01*
X28258878Y33896150D01*
X28259121Y34174628D01*
X28224053Y34259500D01*
X29711748Y34259500D01*
X32926000Y31045248D01*
X32926000Y28194000D01*
X32962157Y28012225D01*
X33065124Y27858124D01*
X33209025Y27714224D01*
X33208879Y27547372D01*
X33315223Y27290000D01*
X33511964Y27092915D01*
X33769150Y26986122D01*
X34047628Y26985879D01*
X34305000Y27092223D01*
X34502085Y27288964D01*
X34608878Y27546150D01*
X34609054Y27747943D01*
X34682628Y27747879D01*
X34940000Y27854223D01*
X35137085Y28050964D01*
X35243878Y28308150D01*
X35244054Y28509943D01*
X35317628Y28509879D01*
X35575000Y28616223D01*
X35772085Y28812964D01*
X35878878Y29070150D01*
X35879121Y29348628D01*
X35772777Y29606000D01*
X35576036Y29803085D01*
X35318850Y29909878D01*
X35150727Y29910025D01*
X35019000Y30041752D01*
X35019000Y30603248D01*
X35795624Y29826624D01*
X35949725Y29723657D01*
X36131500Y29687500D01*
X37267585Y29687500D01*
X37385464Y29569415D01*
X37642650Y29462622D01*
X37921128Y29462379D01*
X38160558Y29561309D01*
X36731223Y28131975D01*
X36564372Y28132121D01*
X36307000Y28025777D01*
X36109915Y27829036D01*
X36003122Y27571850D01*
X36002879Y27293372D01*
X36109223Y27036000D01*
X36305964Y26838915D01*
X36563150Y26732122D01*
X36841628Y26731879D01*
X37099000Y26838223D01*
X37296085Y27034964D01*
X37402878Y27292150D01*
X37403025Y27460273D01*
X37471199Y27528447D01*
X37569723Y27290000D01*
X37766464Y27092915D01*
X38023650Y26986122D01*
X38302128Y26985879D01*
X38559500Y27092223D01*
X38756585Y27288964D01*
X38863378Y27546150D01*
X38863525Y27714273D01*
X40011251Y28862000D01*
X40506085Y28862000D01*
X40623964Y28743915D01*
X40881150Y28637122D01*
X41159628Y28636879D01*
X41417000Y28743223D01*
X41614085Y28939964D01*
X41720878Y29197150D01*
X41721121Y29475628D01*
X41614777Y29733000D01*
X41418036Y29930085D01*
X41160850Y30036878D01*
X40882372Y30037121D01*
X40625000Y29930777D01*
X40506015Y29812000D01*
X39814505Y29812000D01*
X39814500Y29812001D01*
X39739916Y29797165D01*
X41610873Y31668122D01*
X41610876Y31668124D01*
X41713843Y31822225D01*
X41750000Y32004000D01*
X41750000Y33301000D01*
X44086500Y33301000D01*
X44086500Y32706327D01*
X44132172Y32596064D01*
X44216563Y32511672D01*
X44326826Y32466000D01*
X44921500Y32466000D01*
X44996500Y32541000D01*
X44996500Y33376000D01*
X45046500Y33376000D01*
X45046500Y32541000D01*
X45121500Y32466000D01*
X46191500Y32466000D01*
X46266500Y32541000D01*
X46266500Y33376000D01*
X45046500Y33376000D01*
X44996500Y33376000D01*
X44161500Y33376000D01*
X44086500Y33301000D01*
X41750000Y33301000D01*
X41750000Y34571000D01*
X44086500Y34571000D01*
X44086500Y33501000D01*
X44161500Y33426000D01*
X44996500Y33426000D01*
X44996500Y34646000D01*
X45046500Y34646000D01*
X45046500Y33426000D01*
X46266500Y33426000D01*
X46266500Y34646000D01*
X45046500Y34646000D01*
X44996500Y34646000D01*
X44161500Y34646000D01*
X44086500Y34571000D01*
X41750000Y34571000D01*
X41750000Y35841000D01*
X44086500Y35841000D01*
X44086500Y34771000D01*
X44161500Y34696000D01*
X44996500Y34696000D01*
X44996500Y35916000D01*
X45046500Y35916000D01*
X45046500Y34696000D01*
X46266500Y34696000D01*
X46266500Y35916000D01*
X45046500Y35916000D01*
X44996500Y35916000D01*
X44161500Y35916000D01*
X44086500Y35841000D01*
X41750000Y35841000D01*
X41750000Y36576000D01*
X41713843Y36757775D01*
X41610876Y36911876D01*
X41411752Y37111000D01*
X44086500Y37111000D01*
X44086500Y36041000D01*
X44161500Y35966000D01*
X44996500Y35966000D01*
X44996500Y37186000D01*
X45046500Y37186000D01*
X45046500Y35966000D01*
X46266500Y35966000D01*
X46266500Y37186000D01*
X46316500Y37186000D01*
X46316500Y35966000D01*
X46336500Y35966000D01*
X46336500Y35916000D01*
X46316500Y35916000D01*
X46316500Y34696000D01*
X46336500Y34696000D01*
X46336500Y34646000D01*
X46316500Y34646000D01*
X46316500Y33426000D01*
X47536500Y33426000D01*
X47536500Y33446000D01*
X47586500Y33446000D01*
X47586500Y33426000D01*
X48421500Y33426000D01*
X48496500Y33501000D01*
X48496500Y33974000D01*
X49119673Y33974000D01*
X49229936Y34019672D01*
X49314328Y34104063D01*
X49360000Y34214326D01*
X49360000Y35174000D01*
X49285000Y35249000D01*
X48496500Y35249000D01*
X48496500Y35299000D01*
X49285000Y35299000D01*
X49360000Y35374000D01*
X49360000Y36333674D01*
X49314328Y36443937D01*
X49229936Y36528328D01*
X49119673Y36574000D01*
X48496500Y36574000D01*
X48496500Y37111000D01*
X48421500Y37186000D01*
X47586500Y37186000D01*
X47586500Y37166000D01*
X47536500Y37166000D01*
X47536500Y37186000D01*
X46316500Y37186000D01*
X46266500Y37186000D01*
X45046500Y37186000D01*
X44996500Y37186000D01*
X44161500Y37186000D01*
X44086500Y37111000D01*
X41411752Y37111000D01*
X40958975Y37563777D01*
X40959121Y37730628D01*
X40852777Y37988000D01*
X40656036Y38185085D01*
X40398850Y38291878D01*
X40120372Y38292121D01*
X39863000Y38185777D01*
X39665915Y37989036D01*
X39559122Y37731850D01*
X39558879Y37453372D01*
X39665223Y37196000D01*
X39861964Y36998915D01*
X40119150Y36892122D01*
X40287273Y36891975D01*
X40800000Y36379248D01*
X40800000Y33695908D01*
X40589350Y33783378D01*
X40310872Y33783621D01*
X40053500Y33677277D01*
X39856415Y33480536D01*
X39749622Y33223350D01*
X39749475Y33055227D01*
X38609602Y31915354D01*
X38566777Y32019000D01*
X38370036Y32216085D01*
X38112850Y32322878D01*
X38037946Y32322943D01*
X38038121Y32523628D01*
X37931777Y32781000D01*
X37735036Y32978085D01*
X37538471Y33059706D01*
X37522843Y33138275D01*
X37480089Y33202260D01*
X37592000Y33180000D01*
X37712085Y33180000D01*
X37829964Y33061915D01*
X38087150Y32955122D01*
X38365628Y32954879D01*
X38623000Y33061223D01*
X38820085Y33257964D01*
X38926878Y33515150D01*
X38927121Y33793628D01*
X38820777Y34051000D01*
X38709005Y34162967D01*
X38756585Y34210464D01*
X38863378Y34467650D01*
X38863621Y34746128D01*
X38757277Y35003500D01*
X38708894Y35051967D01*
X38820085Y35162964D01*
X38926878Y35420150D01*
X38927121Y35698628D01*
X38820777Y35956000D01*
X38624036Y36153085D01*
X38366850Y36259878D01*
X38198726Y36260025D01*
X36077752Y38381000D01*
X44086500Y38381000D01*
X44086500Y37311000D01*
X44161500Y37236000D01*
X44996500Y37236000D01*
X44996500Y38456000D01*
X45046500Y38456000D01*
X45046500Y37236000D01*
X46266500Y37236000D01*
X46266500Y38456000D01*
X46316500Y38456000D01*
X46316500Y37236000D01*
X47536500Y37236000D01*
X47536500Y38456000D01*
X47586500Y38456000D01*
X47586500Y37236000D01*
X48421500Y37236000D01*
X48496500Y37311000D01*
X48496500Y38381000D01*
X48421500Y38456000D01*
X47586500Y38456000D01*
X47536500Y38456000D01*
X46316500Y38456000D01*
X46266500Y38456000D01*
X45046500Y38456000D01*
X44996500Y38456000D01*
X44161500Y38456000D01*
X44086500Y38381000D01*
X36077752Y38381000D01*
X33834416Y40624336D01*
X33909000Y40609500D01*
X37330974Y40609500D01*
X37385464Y40554915D01*
X37642650Y40448122D01*
X37921128Y40447879D01*
X38178500Y40554223D01*
X38375585Y40750964D01*
X38413666Y40842674D01*
X43350000Y40842674D01*
X43350000Y39883000D01*
X43425000Y39808000D01*
X44129500Y39808000D01*
X44161498Y39776002D01*
X44086500Y39776002D01*
X44086500Y39758000D01*
X43425000Y39758000D01*
X43350000Y39683000D01*
X43350000Y38723326D01*
X43395672Y38613063D01*
X43480064Y38528672D01*
X43590327Y38483000D01*
X44350000Y38483000D01*
X44373000Y38506000D01*
X44527000Y38506000D01*
X44550000Y38483000D01*
X45309673Y38483000D01*
X45365200Y38506000D01*
X45439800Y38506000D01*
X45495327Y38483000D01*
X46255000Y38483000D01*
X46298000Y38526000D01*
X46316500Y38526000D01*
X46316500Y38506000D01*
X46432000Y38506000D01*
X46455000Y38483000D01*
X47214673Y38483000D01*
X47270200Y38506000D01*
X47344800Y38506000D01*
X47400327Y38483000D01*
X48160000Y38483000D01*
X48183000Y38506000D01*
X48337000Y38506000D01*
X48360000Y38483000D01*
X49119673Y38483000D01*
X49229936Y38528672D01*
X49314328Y38613063D01*
X49360000Y38723326D01*
X49360000Y38913872D01*
X52131879Y38913872D01*
X52238223Y38656500D01*
X52434964Y38459415D01*
X52692150Y38352622D01*
X52970628Y38352379D01*
X53228000Y38458723D01*
X53425085Y38655464D01*
X53531878Y38912650D01*
X53532025Y39080773D01*
X55136373Y40685122D01*
X55136376Y40685124D01*
X55239343Y40839225D01*
X55275500Y41021000D01*
X55275500Y42601585D01*
X55393585Y42719464D01*
X55500378Y42976650D01*
X55500621Y43255128D01*
X55394277Y43512500D01*
X55197536Y43709585D01*
X54940350Y43816378D01*
X54661872Y43816621D01*
X54404500Y43710277D01*
X54207415Y43513536D01*
X54100622Y43256350D01*
X54100379Y42977872D01*
X54206723Y42720500D01*
X54325500Y42601515D01*
X54325500Y41217751D01*
X52860224Y39752475D01*
X52693372Y39752621D01*
X52436000Y39646277D01*
X52238915Y39449536D01*
X52132122Y39192350D01*
X52131879Y38913872D01*
X49360000Y38913872D01*
X49360000Y39683000D01*
X49285000Y39758000D01*
X48496500Y39758000D01*
X48496500Y39776002D01*
X48421502Y39776002D01*
X48453500Y39808000D01*
X49285000Y39808000D01*
X49360000Y39883000D01*
X49360000Y40842674D01*
X49314328Y40952937D01*
X49229936Y41037328D01*
X49119673Y41083000D01*
X48360000Y41083000D01*
X48285000Y41008000D01*
X48285000Y40674060D01*
X48256174Y40686000D01*
X48235000Y40686000D01*
X48235000Y41008000D01*
X48160000Y41083000D01*
X47400327Y41083000D01*
X47307500Y41044550D01*
X47214673Y41083000D01*
X46455000Y41083000D01*
X46380000Y41008000D01*
X46380000Y40674500D01*
X46330000Y40624500D01*
X46330000Y41008000D01*
X46255000Y41083000D01*
X45495327Y41083000D01*
X45402500Y41044550D01*
X45309673Y41083000D01*
X44550000Y41083000D01*
X44475000Y41008000D01*
X44475000Y40686000D01*
X44425000Y40686000D01*
X44425000Y41008000D01*
X44350000Y41083000D01*
X43590327Y41083000D01*
X43480064Y41037328D01*
X43395672Y40952937D01*
X43350000Y40842674D01*
X38413666Y40842674D01*
X38482378Y41008150D01*
X38482621Y41286628D01*
X38376277Y41544000D01*
X38179536Y41741085D01*
X37922350Y41847878D01*
X37643872Y41848121D01*
X37386500Y41741777D01*
X37203904Y41559500D01*
X34105752Y41559500D01*
X30882252Y44783000D01*
X43293144Y44783000D01*
X43293144Y42783000D01*
X43317549Y42653298D01*
X43394203Y42534175D01*
X43511163Y42454259D01*
X43650000Y42426144D01*
X45250000Y42426144D01*
X45379702Y42450549D01*
X45401276Y42464431D01*
X45416163Y42454259D01*
X45555000Y42426144D01*
X47155000Y42426144D01*
X47284702Y42450549D01*
X47306276Y42464431D01*
X47321163Y42454259D01*
X47460000Y42426144D01*
X47912000Y42426144D01*
X47912000Y42418000D01*
X47948157Y42236225D01*
X48051124Y42082124D01*
X48305124Y41828124D01*
X48459225Y41725157D01*
X48641000Y41689000D01*
X51047085Y41689000D01*
X51164964Y41570915D01*
X51422150Y41464122D01*
X51700628Y41463879D01*
X51958000Y41570223D01*
X52155085Y41766964D01*
X52261878Y42024150D01*
X52262121Y42302628D01*
X52155777Y42560000D01*
X51959036Y42757085D01*
X51701850Y42863878D01*
X51423372Y42864121D01*
X51166000Y42757777D01*
X51047015Y42639000D01*
X49385213Y42639000D01*
X49388741Y42644163D01*
X49416856Y42783000D01*
X49416856Y44783000D01*
X49392451Y44912702D01*
X49315797Y45031825D01*
X49198837Y45111741D01*
X49060000Y45139856D01*
X47460000Y45139856D01*
X47330298Y45115451D01*
X47308724Y45101569D01*
X47293837Y45111741D01*
X47155000Y45139856D01*
X45555000Y45139856D01*
X45425298Y45115451D01*
X45403724Y45101569D01*
X45388837Y45111741D01*
X45250000Y45139856D01*
X43650000Y45139856D01*
X43520298Y45115451D01*
X43401175Y45038797D01*
X43321259Y44921837D01*
X43293144Y44783000D01*
X30882252Y44783000D01*
X29448880Y46216372D01*
X58608879Y46216372D01*
X58715223Y45959000D01*
X58911964Y45761915D01*
X59169150Y45655122D01*
X59447628Y45654879D01*
X59705000Y45761223D01*
X59902085Y45957964D01*
X60008878Y46215150D01*
X60009121Y46493628D01*
X59902777Y46751000D01*
X59706036Y46948085D01*
X59448850Y47054878D01*
X59170372Y47055121D01*
X58913000Y46948777D01*
X58715915Y46752036D01*
X58609122Y46494850D01*
X58608879Y46216372D01*
X29448880Y46216372D01*
X27724285Y47940967D01*
X27824628Y47940879D01*
X28082000Y48047223D01*
X28146359Y48111470D01*
X28459870Y48111470D01*
X28573811Y47835714D01*
X28784605Y47624552D01*
X29060161Y47510131D01*
X29358530Y47509870D01*
X29634286Y47623811D01*
X29795756Y47785000D01*
X30283248Y47785000D01*
X30779122Y47289127D01*
X30779124Y47289124D01*
X30933225Y47186157D01*
X30963384Y47180158D01*
X31115000Y47149999D01*
X31115005Y47150000D01*
X48944437Y47150000D01*
X49104605Y46989552D01*
X49380161Y46875131D01*
X49678530Y46874870D01*
X49954286Y46988811D01*
X50165448Y47199605D01*
X50279869Y47475161D01*
X50280130Y47773530D01*
X50166189Y48049286D01*
X49955395Y48260448D01*
X49679839Y48374869D01*
X49381470Y48375130D01*
X49105714Y48261189D01*
X48944244Y48100000D01*
X31311751Y48100000D01*
X30815876Y48595876D01*
X30661775Y48698843D01*
X30480000Y48735000D01*
X29795563Y48735000D01*
X29635395Y48895448D01*
X29359839Y49009869D01*
X29061470Y49010130D01*
X28785714Y48896189D01*
X28574552Y48685395D01*
X28460131Y48409839D01*
X28459870Y48111470D01*
X28146359Y48111470D01*
X28279085Y48243964D01*
X28385878Y48501150D01*
X28386025Y48669273D01*
X30930752Y51214000D01*
X47936248Y51214000D01*
X48686124Y50464124D01*
X48840225Y50361157D01*
X49022000Y50325000D01*
X51380144Y50325000D01*
X51380144Y49950000D01*
X51404549Y49820298D01*
X51481203Y49701175D01*
X51598163Y49621259D01*
X51737000Y49593144D01*
X53737000Y49593144D01*
X53866702Y49617549D01*
X53985825Y49694203D01*
X54065741Y49811163D01*
X54093856Y49950000D01*
X54093856Y51650000D01*
X54069451Y51779702D01*
X54046621Y51815180D01*
X54065741Y51843163D01*
X54093856Y51982000D01*
X54093856Y53682000D01*
X54069451Y53811702D01*
X53992797Y53930825D01*
X53875837Y54010741D01*
X53737000Y54038856D01*
X51737000Y54038856D01*
X51607298Y54014451D01*
X51488175Y53937797D01*
X51408259Y53820837D01*
X51380144Y53682000D01*
X51380144Y51982000D01*
X51404549Y51852298D01*
X51427379Y51816820D01*
X51408259Y51788837D01*
X51380144Y51650000D01*
X51380144Y51275000D01*
X49218752Y51275000D01*
X48468876Y52024876D01*
X48314775Y52127843D01*
X48133000Y52164000D01*
X30734000Y52164000D01*
X30552225Y52127843D01*
X30457912Y52064825D01*
X30398124Y52024876D01*
X27714223Y49340975D01*
X27547372Y49341121D01*
X27290000Y49234777D01*
X27092915Y49038036D01*
X26986122Y48780850D01*
X26986033Y48679219D01*
X24148376Y51516876D01*
X24103000Y51547195D01*
X24103000Y53301000D01*
X25209144Y53301000D01*
X25209144Y51601000D01*
X25233549Y51471298D01*
X25310203Y51352175D01*
X25427163Y51272259D01*
X25566000Y51244144D01*
X27266000Y51244144D01*
X27395702Y51268549D01*
X27514825Y51345203D01*
X27594741Y51462163D01*
X27622856Y51601000D01*
X27622856Y53301000D01*
X27598451Y53430702D01*
X27521797Y53549825D01*
X27404837Y53629741D01*
X27266000Y53657856D01*
X25566000Y53657856D01*
X25436298Y53633451D01*
X25317175Y53556797D01*
X25237259Y53439837D01*
X25209144Y53301000D01*
X24103000Y53301000D01*
X24103000Y54991000D01*
X25192491Y54991000D01*
X25283836Y54531780D01*
X25543963Y54142472D01*
X25933271Y53882345D01*
X26392491Y53791000D01*
X26439509Y53791000D01*
X26898729Y53882345D01*
X27288037Y54142472D01*
X27422942Y54344372D01*
X55052879Y54344372D01*
X55159223Y54087000D01*
X55355964Y53889915D01*
X55477500Y53839449D01*
X55437000Y53741673D01*
X55437000Y52932000D01*
X55512000Y52857000D01*
X56712000Y52857000D01*
X56712000Y53907000D01*
X56637000Y53982000D01*
X56241939Y53982000D01*
X56346085Y54085964D01*
X56452878Y54343150D01*
X56453025Y54511273D01*
X57156251Y55214500D01*
X59571644Y55214500D01*
X59571644Y54839500D01*
X59595474Y54712856D01*
X58293000Y54712856D01*
X58163298Y54688451D01*
X58044175Y54611797D01*
X57964259Y54494837D01*
X57936144Y54356000D01*
X57936144Y53907121D01*
X57906937Y53936328D01*
X57796674Y53982000D01*
X56837000Y53982000D01*
X56762000Y53907000D01*
X56762000Y52857000D01*
X56782000Y52857000D01*
X56782000Y52807000D01*
X56762000Y52807000D01*
X56762000Y52787000D01*
X56712000Y52787000D01*
X56712000Y52807000D01*
X55512000Y52807000D01*
X55437000Y52732000D01*
X55437000Y51922327D01*
X55460577Y51865406D01*
X55408259Y51788837D01*
X55380144Y51650000D01*
X55380144Y49950000D01*
X55404549Y49820298D01*
X55481203Y49701175D01*
X55598163Y49621259D01*
X55737000Y49593144D01*
X56281067Y49593144D01*
X56298157Y49507225D01*
X56401124Y49353124D01*
X57322124Y48432124D01*
X57476225Y48329157D01*
X57506384Y48323158D01*
X57658000Y48292999D01*
X57658005Y48293000D01*
X61906248Y48293000D01*
X62328500Y47870748D01*
X62328500Y42862500D01*
X62369533Y42644426D01*
X62498415Y42444137D01*
X62572011Y42393852D01*
X62556144Y42315500D01*
X62556144Y41940500D01*
X60072582Y41940500D01*
X60072621Y41985128D01*
X59998033Y42165644D01*
X60463500Y42165644D01*
X60593202Y42190049D01*
X60712325Y42266703D01*
X60792241Y42383663D01*
X60820356Y42522500D01*
X60820356Y43722500D01*
X60795951Y43852202D01*
X60719297Y43971325D01*
X60602337Y44051241D01*
X60463500Y44079356D01*
X58263500Y44079356D01*
X58133798Y44054951D01*
X58014675Y43978297D01*
X57934759Y43861337D01*
X57906644Y43722500D01*
X57906644Y42522500D01*
X57931049Y42392798D01*
X58007703Y42273675D01*
X58124663Y42193759D01*
X58263500Y42165644D01*
X58747071Y42165644D01*
X58672622Y41986350D01*
X58672379Y41707872D01*
X58778723Y41450500D01*
X58975464Y41253415D01*
X59232650Y41146622D01*
X59400774Y41146475D01*
X59417622Y41129627D01*
X59417624Y41129624D01*
X59571725Y41026657D01*
X59753500Y40990500D01*
X62556144Y40990500D01*
X62556144Y40615500D01*
X62580549Y40485798D01*
X62657203Y40366675D01*
X62774163Y40286759D01*
X62913000Y40258644D01*
X64913000Y40258644D01*
X65042702Y40283049D01*
X65161825Y40359703D01*
X65241741Y40476663D01*
X65269856Y40615500D01*
X65269856Y41365500D01*
X66613000Y41365500D01*
X66613000Y40555827D01*
X66658672Y40445564D01*
X66743063Y40361172D01*
X66853326Y40315500D01*
X67813000Y40315500D01*
X67888000Y40390500D01*
X67888000Y41440500D01*
X67938000Y41440500D01*
X67938000Y40390500D01*
X68013000Y40315500D01*
X68972674Y40315500D01*
X69082937Y40361172D01*
X69167328Y40445564D01*
X69213000Y40555827D01*
X69213000Y41365500D01*
X69138000Y41440500D01*
X67938000Y41440500D01*
X67888000Y41440500D01*
X66688000Y41440500D01*
X66613000Y41365500D01*
X65269856Y41365500D01*
X65269856Y42262500D01*
X66613000Y42262500D01*
X66613000Y41565500D01*
X66688000Y41490500D01*
X67888000Y41490500D01*
X67888000Y41510500D01*
X67938000Y41510500D01*
X67938000Y41490500D01*
X69138000Y41490500D01*
X69213000Y41565500D01*
X69213000Y42262500D01*
X70548500Y42262500D01*
X70766574Y42303533D01*
X70966863Y42432415D01*
X71101228Y42629066D01*
X71148500Y42862500D01*
X71148500Y50165000D01*
X71107467Y50383074D01*
X70978585Y50583363D01*
X70781934Y50717728D01*
X70548500Y50765000D01*
X68389500Y50765000D01*
X68171426Y50723967D01*
X67971137Y50595085D01*
X67836772Y50398434D01*
X67789500Y50165000D01*
X67789500Y48542500D01*
X63000252Y48542500D01*
X62623608Y48919144D01*
X65913000Y48919144D01*
X66042702Y48943549D01*
X66161825Y49020203D01*
X66241741Y49137163D01*
X66269856Y49276000D01*
X66269856Y54356000D01*
X66245451Y54485702D01*
X66179933Y54587520D01*
X66257241Y54700663D01*
X66285356Y54839500D01*
X66285356Y55214500D01*
X67687748Y55214500D01*
X68056627Y54845621D01*
X68049259Y54834837D01*
X68021144Y54696000D01*
X68021144Y53496000D01*
X68045549Y53366298D01*
X68122203Y53247175D01*
X68239163Y53167259D01*
X68378000Y53139144D01*
X70578000Y53139144D01*
X70707702Y53163549D01*
X70826825Y53240203D01*
X70906741Y53357163D01*
X70934856Y53496000D01*
X70934856Y54696000D01*
X70910451Y54825702D01*
X70833797Y54944825D01*
X70716837Y55024741D01*
X70578000Y55052856D01*
X69192896Y55052856D01*
X68220376Y56025376D01*
X68066275Y56128343D01*
X67884500Y56164500D01*
X66285356Y56164500D01*
X66285356Y56539500D01*
X66260951Y56669202D01*
X66184297Y56788325D01*
X66067337Y56868241D01*
X65928500Y56896356D01*
X63928500Y56896356D01*
X63798798Y56871951D01*
X63679675Y56795297D01*
X63599759Y56678337D01*
X63571644Y56539500D01*
X63571644Y54839500D01*
X63595474Y54712856D01*
X62259710Y54712856D01*
X62285356Y54839500D01*
X62285356Y56539500D01*
X62260951Y56669202D01*
X62184297Y56788325D01*
X62067337Y56868241D01*
X61928500Y56896356D01*
X59928500Y56896356D01*
X59798798Y56871951D01*
X59679675Y56795297D01*
X59599759Y56678337D01*
X59571644Y56539500D01*
X59571644Y56164500D01*
X56959505Y56164500D01*
X56959500Y56164501D01*
X56807884Y56134342D01*
X56777725Y56128343D01*
X56623624Y56025376D01*
X56623622Y56025373D01*
X55781224Y55182975D01*
X55614372Y55183121D01*
X55357000Y55076777D01*
X55159915Y54880036D01*
X55053122Y54622850D01*
X55052879Y54344372D01*
X27422942Y54344372D01*
X27548164Y54531780D01*
X27639509Y54991000D01*
X27548164Y55450220D01*
X27288037Y55839528D01*
X26898729Y56099655D01*
X26439509Y56191000D01*
X26392491Y56191000D01*
X25933271Y56099655D01*
X25543963Y55839528D01*
X25283836Y55450220D01*
X25192491Y54991000D01*
X24103000Y54991000D01*
X24103000Y59938823D01*
X69169662Y59938823D01*
X69465906Y59221857D01*
X70013971Y58672834D01*
X70730419Y58375339D01*
X71506177Y58374662D01*
X72223143Y58670906D01*
X72772166Y59218971D01*
X73069661Y59935419D01*
X73070338Y60711177D01*
X72774094Y61428143D01*
X72226029Y61977166D01*
X71509581Y62274661D01*
X70733823Y62275338D01*
X70016857Y61979094D01*
X69467834Y61431029D01*
X69170339Y60714581D01*
X69169662Y59938823D01*
X24103000Y59938823D01*
X24103000Y63075000D01*
X71078140Y63075000D01*
X72169195Y62857976D01*
X73058658Y62263655D01*
X73652976Y61374194D01*
X73870000Y60283139D01*
X73870000Y3216861D01*
X73652976Y2125806D01*
X73058658Y1236345D01*
X72169195Y642024D01*
X71078140Y425000D01*
X3216861Y425000D01*
X2125806Y642024D01*
X1236345Y1236342D01*
X642024Y2125805D01*
X510142Y2788823D01*
X36149662Y2788823D01*
X36445906Y2071857D01*
X36993971Y1522834D01*
X37710419Y1225339D01*
X38486177Y1224662D01*
X39203143Y1520906D01*
X39752166Y2068971D01*
X40049661Y2785419D01*
X40050338Y3561177D01*
X39754094Y4278143D01*
X39206029Y4827166D01*
X38489581Y5124661D01*
X37713823Y5125338D01*
X36996857Y4829094D01*
X36447834Y4281029D01*
X36150339Y3564581D01*
X36149662Y2788823D01*
X510142Y2788823D01*
X425000Y3216860D01*
X425000Y8432067D01*
X17150423Y8432067D01*
X17282394Y8226171D01*
X17828329Y7985233D01*
X18424910Y7971555D01*
X18981312Y8187220D01*
X19039606Y8226171D01*
X19171577Y8432067D01*
X30485423Y8432067D01*
X30617394Y8226171D01*
X31163329Y7985233D01*
X31759910Y7971555D01*
X32316312Y8187220D01*
X32374606Y8226171D01*
X32506577Y8432067D01*
X31496000Y9442645D01*
X30485423Y8432067D01*
X19171577Y8432067D01*
X18161000Y9442645D01*
X17150423Y8432067D01*
X425000Y8432067D01*
X425000Y9214090D01*
X16654555Y9214090D01*
X16870220Y8657688D01*
X16909171Y8599394D01*
X17115067Y8467423D01*
X18125645Y9478000D01*
X18196355Y9478000D01*
X19206933Y8467423D01*
X19412829Y8599394D01*
X19653767Y9145329D01*
X19655343Y9214090D01*
X29989555Y9214090D01*
X30205220Y8657688D01*
X30244171Y8599394D01*
X30450067Y8467423D01*
X31460645Y9478000D01*
X31531355Y9478000D01*
X32541933Y8467423D01*
X32747829Y8599394D01*
X32988767Y9145329D01*
X33002445Y9741910D01*
X32786780Y10298312D01*
X32747829Y10356606D01*
X32541933Y10488577D01*
X31531355Y9478000D01*
X31460645Y9478000D01*
X30450067Y10488577D01*
X30244171Y10356606D01*
X30003233Y9810671D01*
X29989555Y9214090D01*
X19655343Y9214090D01*
X19667445Y9741910D01*
X19451780Y10298312D01*
X19412829Y10356606D01*
X19206933Y10488577D01*
X18196355Y9478000D01*
X18125645Y9478000D01*
X17115067Y10488577D01*
X16909171Y10356606D01*
X16668233Y9810671D01*
X16654555Y9214090D01*
X425000Y9214090D01*
X425000Y10523933D01*
X17150423Y10523933D01*
X18161000Y9513355D01*
X19171577Y10523933D01*
X30485423Y10523933D01*
X31496000Y9513355D01*
X32506577Y10523933D01*
X32374606Y10729829D01*
X31828671Y10970767D01*
X31232090Y10984445D01*
X30675688Y10768780D01*
X30617394Y10729829D01*
X30485423Y10523933D01*
X19171577Y10523933D01*
X19039606Y10729829D01*
X18493671Y10970767D01*
X17897090Y10984445D01*
X17340688Y10768780D01*
X17282394Y10729829D01*
X17150423Y10523933D01*
X425000Y10523933D01*
X425000Y14449619D01*
X3888680Y14449619D01*
X4397573Y13218004D01*
X5339047Y12274885D01*
X6569772Y11763843D01*
X7902381Y11762680D01*
X9133996Y12271573D01*
X10077115Y13213047D01*
X10588157Y14443772D01*
X10589320Y15776381D01*
X10080427Y17007996D01*
X9138953Y17951115D01*
X7908228Y18462157D01*
X6575619Y18463320D01*
X5344004Y17954427D01*
X4400885Y17012953D01*
X3889843Y15782228D01*
X3888680Y14449619D01*
X425000Y14449619D01*
X425000Y18696000D01*
X2032000Y18696000D01*
X2070906Y18703879D01*
X2103681Y18726273D01*
X2125161Y18759654D01*
X2132000Y18796000D01*
X2132000Y19431000D01*
X2124121Y19469906D01*
X2101727Y19502681D01*
X2068346Y19524161D01*
X2032000Y19531000D01*
X425000Y19531000D01*
X425000Y21728401D01*
X4743788Y21728401D01*
X4929890Y21278000D01*
X5274187Y20933101D01*
X5724263Y20746213D01*
X6211599Y20745788D01*
X6662000Y20931890D01*
X7006899Y21276187D01*
X7193787Y21726263D01*
X7194212Y22213599D01*
X7008110Y22664000D01*
X6663813Y23008899D01*
X6213737Y23195787D01*
X5726401Y23196212D01*
X5276000Y23010110D01*
X4931101Y22665813D01*
X4744213Y22215737D01*
X4743788Y21728401D01*
X425000Y21728401D01*
X425000Y24538000D01*
X1771000Y24538000D01*
X1771000Y23728327D01*
X1816672Y23618064D01*
X1901063Y23533672D01*
X2011326Y23488000D01*
X2821000Y23488000D01*
X2896000Y23563000D01*
X2896000Y24613000D01*
X2946000Y24613000D01*
X2946000Y23563000D01*
X3021000Y23488000D01*
X3830674Y23488000D01*
X3940937Y23533672D01*
X4025328Y23618064D01*
X4071000Y23728327D01*
X4071000Y24268401D01*
X4743788Y24268401D01*
X4929890Y23818000D01*
X5274187Y23473101D01*
X5724263Y23286213D01*
X6211599Y23285788D01*
X6662000Y23471890D01*
X7006899Y23816187D01*
X7193787Y24266263D01*
X7194212Y24753599D01*
X7008110Y25204000D01*
X6663813Y25548899D01*
X6213737Y25735787D01*
X5726401Y25736212D01*
X5276000Y25550110D01*
X4931101Y25205813D01*
X4744213Y24755737D01*
X4743788Y24268401D01*
X4071000Y24268401D01*
X4071000Y24538000D01*
X3996000Y24613000D01*
X2946000Y24613000D01*
X2896000Y24613000D01*
X1846000Y24613000D01*
X1771000Y24538000D01*
X425000Y24538000D01*
X425000Y25547673D01*
X1771000Y25547673D01*
X1771000Y24738000D01*
X1846000Y24663000D01*
X2896000Y24663000D01*
X2896000Y25713000D01*
X2946000Y25713000D01*
X2946000Y24663000D01*
X3996000Y24663000D01*
X4071000Y24738000D01*
X4071000Y25547673D01*
X4025328Y25657936D01*
X3940937Y25742328D01*
X3830674Y25788000D01*
X3021000Y25788000D01*
X2946000Y25713000D01*
X2896000Y25713000D01*
X2821000Y25788000D01*
X2011326Y25788000D01*
X1901063Y25742328D01*
X1816672Y25657936D01*
X1771000Y25547673D01*
X425000Y25547673D01*
X425000Y27178000D01*
X1697491Y27178000D01*
X1788836Y26718780D01*
X2048963Y26329472D01*
X2438271Y26069345D01*
X2897491Y25978000D01*
X2944509Y25978000D01*
X3403729Y26069345D01*
X3793037Y26329472D01*
X4053164Y26718780D01*
X4070990Y26808401D01*
X4743788Y26808401D01*
X4929890Y26358000D01*
X5274187Y26013101D01*
X5724263Y25826213D01*
X6211599Y25825788D01*
X6662000Y26011890D01*
X7006899Y26356187D01*
X7193787Y26806263D01*
X7194212Y27293599D01*
X7008110Y27744000D01*
X6663813Y28088899D01*
X6213737Y28275787D01*
X5726401Y28276212D01*
X5276000Y28090110D01*
X4931101Y27745813D01*
X4744213Y27295737D01*
X4743788Y26808401D01*
X4070990Y26808401D01*
X4144509Y27178000D01*
X4053164Y27637220D01*
X3793037Y28026528D01*
X3403729Y28286655D01*
X2944509Y28378000D01*
X2897491Y28378000D01*
X2438271Y28286655D01*
X2048963Y28026528D01*
X1788836Y27637220D01*
X1697491Y27178000D01*
X425000Y27178000D01*
X425000Y32258000D01*
X1697491Y32258000D01*
X1788836Y31798780D01*
X2048963Y31409472D01*
X2438271Y31149345D01*
X2897491Y31058000D01*
X2944509Y31058000D01*
X3403729Y31149345D01*
X3793037Y31409472D01*
X4053164Y31798780D01*
X4144509Y32258000D01*
X4053164Y32717220D01*
X3793037Y33106528D01*
X3403729Y33366655D01*
X2944509Y33458000D01*
X2897491Y33458000D01*
X2438271Y33366655D01*
X2048963Y33106528D01*
X1788836Y32717220D01*
X1697491Y32258000D01*
X425000Y32258000D01*
X425000Y34798000D01*
X1697491Y34798000D01*
X1788836Y34338780D01*
X2048963Y33949472D01*
X2438271Y33689345D01*
X2897491Y33598000D01*
X2944509Y33598000D01*
X3403729Y33689345D01*
X3793037Y33949472D01*
X4053164Y34338780D01*
X4070990Y34428401D01*
X4743788Y34428401D01*
X4929890Y33978000D01*
X5274187Y33633101D01*
X5724263Y33446213D01*
X6211599Y33445788D01*
X6662000Y33631890D01*
X7006899Y33976187D01*
X7193787Y34426263D01*
X7194212Y34913599D01*
X7008110Y35364000D01*
X6663813Y35708899D01*
X6213737Y35895787D01*
X5726401Y35896212D01*
X5276000Y35710110D01*
X4931101Y35365813D01*
X4744213Y34915737D01*
X4743788Y34428401D01*
X4070990Y34428401D01*
X4144509Y34798000D01*
X4053164Y35257220D01*
X3793037Y35646528D01*
X3403729Y35906655D01*
X2944509Y35998000D01*
X2897491Y35998000D01*
X2438271Y35906655D01*
X2048963Y35646528D01*
X1788836Y35257220D01*
X1697491Y34798000D01*
X425000Y34798000D01*
X425000Y37338000D01*
X1697491Y37338000D01*
X1788836Y36878780D01*
X2048963Y36489472D01*
X2438271Y36229345D01*
X2897491Y36138000D01*
X2944509Y36138000D01*
X3403729Y36229345D01*
X3793037Y36489472D01*
X4053164Y36878780D01*
X4070990Y36968401D01*
X4743788Y36968401D01*
X4929890Y36518000D01*
X5274187Y36173101D01*
X5724263Y35986213D01*
X6211599Y35985788D01*
X6662000Y36171890D01*
X7006899Y36516187D01*
X7193787Y36966263D01*
X7194212Y37453599D01*
X7008110Y37904000D01*
X6663813Y38248899D01*
X6213737Y38435787D01*
X5726401Y38436212D01*
X5276000Y38250110D01*
X4931101Y37905813D01*
X4744213Y37455737D01*
X4743788Y36968401D01*
X4070990Y36968401D01*
X4144509Y37338000D01*
X4053164Y37797220D01*
X3793037Y38186528D01*
X3403729Y38446655D01*
X2944509Y38538000D01*
X2897491Y38538000D01*
X2438271Y38446655D01*
X2048963Y38186528D01*
X1788836Y37797220D01*
X1697491Y37338000D01*
X425000Y37338000D01*
X425000Y42064000D01*
X1771000Y42064000D01*
X1771000Y41254327D01*
X1816672Y41144064D01*
X1901063Y41059672D01*
X2011326Y41014000D01*
X2821000Y41014000D01*
X2896000Y41089000D01*
X2896000Y42139000D01*
X2946000Y42139000D01*
X2946000Y41089000D01*
X3021000Y41014000D01*
X3830674Y41014000D01*
X3940937Y41059672D01*
X4025328Y41144064D01*
X4071000Y41254327D01*
X4071000Y42048401D01*
X4743788Y42048401D01*
X4929890Y41598000D01*
X5274187Y41253101D01*
X5724263Y41066213D01*
X6211599Y41065788D01*
X6662000Y41251890D01*
X7006899Y41596187D01*
X7193787Y42046263D01*
X7194212Y42533599D01*
X7008110Y42984000D01*
X6663813Y43328899D01*
X6213737Y43515787D01*
X5726401Y43516212D01*
X5276000Y43330110D01*
X4931101Y42985813D01*
X4744213Y42535737D01*
X4743788Y42048401D01*
X4071000Y42048401D01*
X4071000Y42064000D01*
X3996000Y42139000D01*
X2946000Y42139000D01*
X2896000Y42139000D01*
X1846000Y42139000D01*
X1771000Y42064000D01*
X425000Y42064000D01*
X425000Y43073673D01*
X1771000Y43073673D01*
X1771000Y42264000D01*
X1846000Y42189000D01*
X2896000Y42189000D01*
X2896000Y43239000D01*
X2946000Y43239000D01*
X2946000Y42189000D01*
X3996000Y42189000D01*
X4071000Y42264000D01*
X4071000Y43073673D01*
X4025328Y43183936D01*
X3940937Y43268328D01*
X3830674Y43314000D01*
X3021000Y43314000D01*
X2946000Y43239000D01*
X2896000Y43239000D01*
X2821000Y43314000D01*
X2011326Y43314000D01*
X1901063Y43268328D01*
X1816672Y43183936D01*
X1771000Y43073673D01*
X425000Y43073673D01*
X425000Y47244000D01*
X1697491Y47244000D01*
X1788836Y46784780D01*
X2048963Y46395472D01*
X2438271Y46135345D01*
X2897491Y46044000D01*
X2944509Y46044000D01*
X3403729Y46135345D01*
X3793037Y46395472D01*
X4053164Y46784780D01*
X4144509Y47244000D01*
X4053164Y47703220D01*
X3793037Y48092528D01*
X3403729Y48352655D01*
X2944509Y48444000D01*
X2897491Y48444000D01*
X2438271Y48352655D01*
X2048963Y48092528D01*
X1788836Y47703220D01*
X1697491Y47244000D01*
X425000Y47244000D01*
X425000Y49911000D01*
X1697491Y49911000D01*
X1788836Y49451780D01*
X2048963Y49062472D01*
X2438271Y48802345D01*
X2897491Y48711000D01*
X2944509Y48711000D01*
X3403729Y48802345D01*
X3793037Y49062472D01*
X4053164Y49451780D01*
X4096252Y49668401D01*
X4743788Y49668401D01*
X4929890Y49218000D01*
X5274187Y48873101D01*
X5724263Y48686213D01*
X6211599Y48685788D01*
X6662000Y48871890D01*
X7006899Y49216187D01*
X7193787Y49666263D01*
X7194212Y50153599D01*
X7034142Y50541000D01*
X11727000Y50541000D01*
X11727000Y49581326D01*
X11772672Y49471063D01*
X11857064Y49386672D01*
X11967327Y49341000D01*
X12727000Y49341000D01*
X12802000Y49416000D01*
X12802000Y50616000D01*
X12852000Y50616000D01*
X12852000Y49416000D01*
X12927000Y49341000D01*
X13686673Y49341000D01*
X13796936Y49386672D01*
X13881328Y49471063D01*
X13927000Y49581326D01*
X13927000Y50541000D01*
X13852000Y50616000D01*
X12852000Y50616000D01*
X12802000Y50616000D01*
X11802000Y50616000D01*
X11727000Y50541000D01*
X7034142Y50541000D01*
X7008110Y50604000D01*
X6663813Y50948899D01*
X6213737Y51135787D01*
X5726401Y51136212D01*
X5276000Y50950110D01*
X4931101Y50605813D01*
X4744213Y50155737D01*
X4743788Y49668401D01*
X4096252Y49668401D01*
X4144509Y49911000D01*
X4053164Y50370220D01*
X3793037Y50759528D01*
X3403729Y51019655D01*
X2944509Y51111000D01*
X2897491Y51111000D01*
X2438271Y51019655D01*
X2048963Y50759528D01*
X1788836Y50370220D01*
X1697491Y49911000D01*
X425000Y49911000D01*
X425000Y52451000D01*
X1697491Y52451000D01*
X1788836Y51991780D01*
X2048963Y51602472D01*
X2438271Y51342345D01*
X2897491Y51251000D01*
X2944509Y51251000D01*
X3403729Y51342345D01*
X3793037Y51602472D01*
X4053164Y51991780D01*
X4096252Y52208401D01*
X4743788Y52208401D01*
X4929890Y51758000D01*
X5274187Y51413101D01*
X5724263Y51226213D01*
X6211599Y51225788D01*
X6662000Y51411890D01*
X6951288Y51700674D01*
X11727000Y51700674D01*
X11727000Y50741000D01*
X11802000Y50666000D01*
X12802000Y50666000D01*
X12802000Y51866000D01*
X12852000Y51866000D01*
X12852000Y50666000D01*
X13852000Y50666000D01*
X13927000Y50741000D01*
X13927000Y51700674D01*
X13881328Y51810937D01*
X13796936Y51895328D01*
X13686673Y51941000D01*
X12927000Y51941000D01*
X12852000Y51866000D01*
X12802000Y51866000D01*
X12727000Y51941000D01*
X11967327Y51941000D01*
X11857064Y51895328D01*
X11772672Y51810937D01*
X11727000Y51700674D01*
X6951288Y51700674D01*
X7006899Y51756187D01*
X7193787Y52206263D01*
X7194212Y52693599D01*
X7008110Y53144000D01*
X6889741Y53262576D01*
X20432779Y53262576D01*
X21209000Y52486355D01*
X21985221Y53262576D01*
X21892800Y53434702D01*
X21464302Y53621501D01*
X20996937Y53630102D01*
X20561857Y53459195D01*
X20525200Y53434702D01*
X20432779Y53262576D01*
X6889741Y53262576D01*
X6663813Y53488899D01*
X6213737Y53675787D01*
X5726401Y53676212D01*
X5276000Y53490110D01*
X4931101Y53145813D01*
X4744213Y52695737D01*
X4743788Y52208401D01*
X4096252Y52208401D01*
X4144509Y52451000D01*
X4053164Y52910220D01*
X3793037Y53299528D01*
X3403729Y53559655D01*
X2944509Y53651000D01*
X2897491Y53651000D01*
X2438271Y53559655D01*
X2048963Y53299528D01*
X1788836Y52910220D01*
X1697491Y52451000D01*
X425000Y52451000D01*
X425000Y55841000D01*
X1714144Y55841000D01*
X1714144Y54141000D01*
X1738549Y54011298D01*
X1815203Y53892175D01*
X1932163Y53812259D01*
X2071000Y53784144D01*
X3771000Y53784144D01*
X3900702Y53808549D01*
X4019825Y53885203D01*
X4099741Y54002163D01*
X4127856Y54141000D01*
X4127856Y54179424D01*
X5192779Y54179424D01*
X5285200Y54007298D01*
X5713698Y53820499D01*
X6181063Y53811898D01*
X6616143Y53982805D01*
X6652800Y54007298D01*
X6745221Y54179424D01*
X5969000Y54955645D01*
X5192779Y54179424D01*
X4127856Y54179424D01*
X4127856Y54778937D01*
X4789898Y54778937D01*
X4960805Y54343857D01*
X4985298Y54307200D01*
X5157424Y54214779D01*
X5933645Y54991000D01*
X6004355Y54991000D01*
X6780576Y54214779D01*
X6952702Y54307200D01*
X7139501Y54735698D01*
X7139734Y54748401D01*
X19983788Y54748401D01*
X20169890Y54298000D01*
X20514187Y53953101D01*
X20964263Y53766213D01*
X21451599Y53765788D01*
X21902000Y53951890D01*
X22246899Y54296187D01*
X22433787Y54746263D01*
X22434212Y55233599D01*
X22248110Y55684000D01*
X21903813Y56028899D01*
X21453737Y56215787D01*
X20966401Y56216212D01*
X20516000Y56030110D01*
X20171101Y55685813D01*
X19984213Y55235737D01*
X19983788Y54748401D01*
X7139734Y54748401D01*
X7148102Y55203063D01*
X6977195Y55638143D01*
X6952702Y55674800D01*
X6780576Y55767221D01*
X6004355Y54991000D01*
X5933645Y54991000D01*
X5157424Y55767221D01*
X4985298Y55674800D01*
X4798499Y55246302D01*
X4789898Y54778937D01*
X4127856Y54778937D01*
X4127856Y55802576D01*
X5192779Y55802576D01*
X5969000Y55026355D01*
X6745221Y55802576D01*
X6652800Y55974702D01*
X6224302Y56161501D01*
X5756937Y56170102D01*
X5321857Y55999195D01*
X5285200Y55974702D01*
X5192779Y55802576D01*
X4127856Y55802576D01*
X4127856Y55841000D01*
X4103451Y55970702D01*
X4026797Y56089825D01*
X3909837Y56169741D01*
X3771000Y56197856D01*
X2071000Y56197856D01*
X1941298Y56173451D01*
X1822175Y56096797D01*
X1742259Y55979837D01*
X1714144Y55841000D01*
X425000Y55841000D01*
X425000Y59938823D01*
X1224662Y59938823D01*
X1520906Y59221857D01*
X2068971Y58672834D01*
X2785419Y58375339D01*
X3561177Y58374662D01*
X4278143Y58670906D01*
X4827166Y59218971D01*
X5124661Y59935419D01*
X5125338Y60711177D01*
X4829094Y61428143D01*
X4281029Y61977166D01*
X3564581Y62274661D01*
X2788823Y62275338D01*
X2071857Y61979094D01*
X1522834Y61431029D01*
X1225339Y60714581D01*
X1224662Y59938823D01*
X425000Y59938823D01*
X425000Y60283140D01*
X642024Y61374195D01*
X1236345Y62263658D01*
X2125806Y62857976D01*
X3216861Y63075000D01*
X23649000Y63075000D01*
X23649000Y51656000D01*
G36*
X57526347Y31110348D02*
X57683508Y31005337D01*
X57761555Y30953187D01*
X58039000Y30898000D01*
X60606000Y30898000D01*
X60606000Y29818000D01*
X57150000Y29818000D01*
X57111094Y29810121D01*
X57078319Y29787727D01*
X57056839Y29754346D01*
X57050000Y29718000D01*
X57050000Y24865000D01*
X52297000Y24865000D01*
X52297000Y26061607D01*
X52493902Y26258165D01*
X52638835Y26607204D01*
X52639139Y26955246D01*
X53312000Y26955246D01*
X53534346Y26997083D01*
X53738558Y27128490D01*
X53875556Y27328993D01*
X53923754Y27567000D01*
X53923754Y28567000D01*
X53881917Y28789346D01*
X53750510Y28993558D01*
X53550007Y29130556D01*
X53312000Y29178754D01*
X52297000Y29178754D01*
X52297000Y31269000D01*
X57367695Y31269000D01*
X57526347Y31110348D01*
X57526347Y31110348D01*
G37*
X57526347Y31110348D02*
X57683508Y31005337D01*
X57761555Y30953187D01*
X58039000Y30898000D01*
X60606000Y30898000D01*
X60606000Y29818000D01*
X57150000Y29818000D01*
X57111094Y29810121D01*
X57078319Y29787727D01*
X57056839Y29754346D01*
X57050000Y29718000D01*
X57050000Y24865000D01*
X52297000Y24865000D01*
X52297000Y26061607D01*
X52493902Y26258165D01*
X52638835Y26607204D01*
X52639139Y26955246D01*
X53312000Y26955246D01*
X53534346Y26997083D01*
X53738558Y27128490D01*
X53875556Y27328993D01*
X53923754Y27567000D01*
X53923754Y28567000D01*
X53881917Y28789346D01*
X53750510Y28993558D01*
X53550007Y29130556D01*
X53312000Y29178754D01*
X52297000Y29178754D01*
X52297000Y31269000D01*
X57367695Y31269000D01*
X57526347Y31110348D01*
G36*
X57683508Y14114337D02*
X57761555Y14062187D01*
X58039000Y14007000D01*
X60415500Y14007000D01*
X60415500Y13181000D01*
X56959500Y13181000D01*
X56920594Y13173121D01*
X56887819Y13150727D01*
X56866339Y13117346D01*
X56859500Y13081000D01*
X56859500Y8164500D01*
X52487500Y8164500D01*
X52487500Y10064246D01*
X53312000Y10064246D01*
X53534346Y10106083D01*
X53738558Y10237490D01*
X53875556Y10437993D01*
X53923754Y10676000D01*
X53923754Y11676000D01*
X53881917Y11898346D01*
X53750510Y12102558D01*
X53550007Y12239556D01*
X53312000Y12287754D01*
X52487500Y12287754D01*
X52487500Y14187500D01*
X57574011Y14187500D01*
X57683508Y14114337D01*
X57683508Y14114337D01*
G37*
X57683508Y14114337D02*
X57761555Y14062187D01*
X58039000Y14007000D01*
X60415500Y14007000D01*
X60415500Y13181000D01*
X56959500Y13181000D01*
X56920594Y13173121D01*
X56887819Y13150727D01*
X56866339Y13117346D01*
X56859500Y13081000D01*
X56859500Y8164500D01*
X52487500Y8164500D01*
X52487500Y10064246D01*
X53312000Y10064246D01*
X53534346Y10106083D01*
X53738558Y10237490D01*
X53875556Y10437993D01*
X53923754Y10676000D01*
X53923754Y11676000D01*
X53881917Y11898346D01*
X53750510Y12102558D01*
X53550007Y12239556D01*
X53312000Y12287754D01*
X52487500Y12287754D01*
X52487500Y14187500D01*
X57574011Y14187500D01*
X57683508Y14114337D01*
G36*
X70448500Y42962500D02*
X63028500Y42962500D01*
X63028500Y47842500D01*
X68389500Y47842500D01*
X68428406Y47850379D01*
X68461181Y47872773D01*
X68482661Y47906154D01*
X68489500Y47942500D01*
X68489500Y50065000D01*
X70448500Y50065000D01*
X70448500Y42962500D01*
X70448500Y42962500D01*
G37*
X70448500Y42962500D02*
X63028500Y42962500D01*
X63028500Y47842500D01*
X68389500Y47842500D01*
X68428406Y47850379D01*
X68461181Y47872773D01*
X68482661Y47906154D01*
X68489500Y47942500D01*
X68489500Y50065000D01*
X70448500Y50065000D01*
X70448500Y42962500D01*
G36*
X70702500Y25817500D02*
X69214753Y25817500D01*
X69151007Y25861056D01*
X68913000Y25909254D01*
X66913000Y25909254D01*
X66690654Y25867417D01*
X66613081Y25817500D01*
X65214753Y25817500D01*
X65151007Y25861056D01*
X64913000Y25909254D01*
X63028500Y25909254D01*
X63028500Y30697500D01*
X68643500Y30697500D01*
X68682406Y30705379D01*
X68715181Y30727773D01*
X68736661Y30761154D01*
X68743500Y30797500D01*
X68743500Y32920000D01*
X70702500Y32920000D01*
X70702500Y25817500D01*
X70702500Y25817500D01*
G37*
X70702500Y25817500D02*
X69214753Y25817500D01*
X69151007Y25861056D01*
X68913000Y25909254D01*
X66913000Y25909254D01*
X66690654Y25867417D01*
X66613081Y25817500D01*
X65214753Y25817500D01*
X65151007Y25861056D01*
X64913000Y25909254D01*
X63028500Y25909254D01*
X63028500Y30697500D01*
X68643500Y30697500D01*
X68682406Y30705379D01*
X68715181Y30727773D01*
X68736661Y30761154D01*
X68743500Y30797500D01*
X68743500Y32920000D01*
X70702500Y32920000D01*
X70702500Y25817500D01*
G36*
X70575500Y8990000D02*
X69116021Y8990000D01*
X68976500Y9018254D01*
X66976500Y9018254D01*
X66826342Y8990000D01*
X65116021Y8990000D01*
X64976500Y9018254D01*
X63092000Y9018254D01*
X63092000Y13870000D01*
X68453000Y13870000D01*
X68491906Y13877879D01*
X68524681Y13900273D01*
X68546161Y13933654D01*
X68553000Y13970000D01*
X68553000Y16092500D01*
X70575500Y16092500D01*
X70575500Y8990000D01*
X70575500Y8990000D01*
G37*
X70575500Y8990000D02*
X69116021Y8990000D01*
X68976500Y9018254D01*
X66976500Y9018254D01*
X66826342Y8990000D01*
X65116021Y8990000D01*
X64976500Y9018254D01*
X63092000Y9018254D01*
X63092000Y13870000D01*
X68453000Y13870000D01*
X68491906Y13877879D01*
X68524681Y13900273D01*
X68546161Y13933654D01*
X68553000Y13970000D01*
X68553000Y16092500D01*
X70575500Y16092500D01*
X70575500Y8990000D01*
M02*
