G04 #@! TF.FileFunction,Soldermask,Top*
%FSLAX46Y46*%
G04 Gerber Fmt 4.6, Leading zero omitted, Abs format (unit mm)*
G04 Created by KiCad (PCBNEW 4.0.4-stable) date 08/15/17 16:15:30*
%MOMM*%
%LPD*%
G01*
G04 APERTURE LIST*
%ADD10C,0.100000*%
%ADD11R,1.670000X1.670000*%
%ADD12R,2.400000X2.000000*%
%ADD13R,2.200000X3.900000*%
%ADD14R,2.000000X2.400000*%
%ADD15R,3.900000X2.000000*%
%ADD16R,3.900000X2.200000*%
%ADD17R,2.100000X2.100000*%
%ADD18O,2.100000X2.100000*%
%ADD19C,6.399480*%
%ADD20R,2.600000X4.300000*%
%ADD21R,2.100000X2.400000*%
%ADD22R,2.400000X2.100000*%
%ADD23C,2.150000*%
%ADD24R,1.400000X0.685000*%
%ADD25R,2.800000X2.800000*%
%ADD26C,2.800000*%
%ADD27C,3.600000*%
G04 APERTURE END LIST*
D10*
D11*
X69913500Y47307500D03*
X69913500Y46037500D03*
X69913500Y44767500D03*
X69913500Y43497500D03*
X68643500Y47307500D03*
X68643500Y46037500D03*
X67373500Y46037500D03*
X67373500Y47307500D03*
X66103500Y47307500D03*
X66103500Y46037500D03*
X64833500Y46037500D03*
X64833500Y47307500D03*
X63563500Y47307500D03*
X63563500Y46037500D03*
X66103500Y44767500D03*
X67373500Y44767500D03*
X68643500Y44767500D03*
X68643500Y43497500D03*
X67373500Y43497500D03*
X66103500Y43497500D03*
X64833500Y43497500D03*
X64833500Y44767500D03*
X63563500Y44767500D03*
X63563500Y43497500D03*
D12*
X61309000Y47180500D03*
X57309000Y47180500D03*
D13*
X42735500Y55459000D03*
X42735500Y50459000D03*
D11*
X69913500Y30162500D03*
X69913500Y28892500D03*
X69913500Y27622500D03*
X69913500Y26352500D03*
X68643500Y30162500D03*
X68643500Y28892500D03*
X67373500Y28892500D03*
X67373500Y30162500D03*
X66103500Y30162500D03*
X66103500Y28892500D03*
X64833500Y28892500D03*
X64833500Y30162500D03*
X63563500Y30162500D03*
X63563500Y28892500D03*
X66103500Y27622500D03*
X67373500Y27622500D03*
X68643500Y27622500D03*
X68643500Y26352500D03*
X67373500Y26352500D03*
X66103500Y26352500D03*
X64833500Y26352500D03*
X64833500Y27622500D03*
X63563500Y27622500D03*
X63563500Y26352500D03*
D14*
X17653000Y54324000D03*
X17653000Y50324000D03*
X26543000Y31210000D03*
X26543000Y27210000D03*
X28448000Y31210000D03*
X28448000Y27210000D03*
X31432500Y45625000D03*
X31432500Y49625000D03*
X30353000Y31210000D03*
X30353000Y27210000D03*
X33655000Y45625000D03*
X33655000Y49625000D03*
D12*
X36544000Y24892000D03*
X32544000Y24892000D03*
D14*
X36322000Y34766000D03*
X36322000Y30766000D03*
X40259000Y49689000D03*
X40259000Y53689000D03*
D12*
X46831500Y45275500D03*
X50831500Y45275500D03*
X61245500Y30035500D03*
X57245500Y30035500D03*
X61372500Y13144500D03*
X57372500Y13144500D03*
D14*
X41275000Y18256000D03*
X41275000Y14256000D03*
X41275000Y24860000D03*
X41275000Y20860000D03*
D15*
X51531500Y49911000D03*
X46131500Y49911000D03*
D16*
X31155000Y54356000D03*
X36155000Y54356000D03*
D17*
X2921000Y24638000D03*
D18*
X2921000Y27178000D03*
X2921000Y29718000D03*
X2921000Y32258000D03*
X2921000Y34798000D03*
X2921000Y37338000D03*
D19*
X7112000Y8382000D03*
X7239000Y15113000D03*
D17*
X26416000Y52451000D03*
D18*
X26416000Y54991000D03*
D17*
X2921000Y54991000D03*
D18*
X2921000Y52451000D03*
X2921000Y49911000D03*
D20*
X49969500Y55753000D03*
X46169500Y55753000D03*
D17*
X2921000Y42164000D03*
D18*
X2921000Y44704000D03*
X2921000Y47244000D03*
D11*
X58928000Y49911000D03*
X58928000Y51181000D03*
X58928000Y52451000D03*
X58928000Y53721000D03*
X60198000Y49911000D03*
X60198000Y51181000D03*
X61468000Y51181000D03*
X61468000Y49911000D03*
X62738000Y49911000D03*
X62738000Y51181000D03*
X64008000Y51181000D03*
X64008000Y49911000D03*
X65278000Y49911000D03*
X65278000Y51181000D03*
X62738000Y52451000D03*
X61468000Y52451000D03*
X60198000Y52451000D03*
X60198000Y53721000D03*
X61468000Y53721000D03*
X62738000Y53721000D03*
X64008000Y53721000D03*
X64008000Y52451000D03*
X65278000Y52451000D03*
X65278000Y53721000D03*
X59182000Y32766000D03*
X59182000Y34036000D03*
X59182000Y35306000D03*
X59182000Y36576000D03*
X60452000Y32766000D03*
X60452000Y34036000D03*
X61722000Y34036000D03*
X61722000Y32766000D03*
X62992000Y32766000D03*
X62992000Y34036000D03*
X64262000Y34036000D03*
X64262000Y32766000D03*
X65532000Y32766000D03*
X65532000Y34036000D03*
X62992000Y35306000D03*
X61722000Y35306000D03*
X60452000Y35306000D03*
X60452000Y36576000D03*
X61722000Y36576000D03*
X62992000Y36576000D03*
X64262000Y36576000D03*
X64262000Y35306000D03*
X65532000Y35306000D03*
X65532000Y36576000D03*
X58991500Y15938500D03*
X58991500Y17208500D03*
X58991500Y18478500D03*
X58991500Y19748500D03*
X60261500Y15938500D03*
X60261500Y17208500D03*
X61531500Y17208500D03*
X61531500Y15938500D03*
X62801500Y15938500D03*
X62801500Y17208500D03*
X64071500Y17208500D03*
X64071500Y15938500D03*
X65341500Y15938500D03*
X65341500Y17208500D03*
X62801500Y18478500D03*
X61531500Y18478500D03*
X60261500Y18478500D03*
X60261500Y19748500D03*
X61531500Y19748500D03*
X62801500Y19748500D03*
X64071500Y19748500D03*
X64071500Y18478500D03*
X65341500Y18478500D03*
X65341500Y19748500D03*
X69977000Y13335000D03*
X69977000Y12065000D03*
X69977000Y10795000D03*
X69977000Y9525000D03*
X68707000Y13335000D03*
X68707000Y12065000D03*
X67437000Y12065000D03*
X67437000Y13335000D03*
X66167000Y13335000D03*
X66167000Y12065000D03*
X64897000Y12065000D03*
X64897000Y13335000D03*
X63627000Y13335000D03*
X63627000Y12065000D03*
X66167000Y10795000D03*
X67437000Y10795000D03*
X68707000Y10795000D03*
X68707000Y9525000D03*
X67437000Y9525000D03*
X66167000Y9525000D03*
X64897000Y9525000D03*
X64897000Y10795000D03*
X63627000Y10795000D03*
X63627000Y9525000D03*
D21*
X28956000Y42450000D03*
X28956000Y46450000D03*
X28956000Y35401500D03*
X28956000Y39401500D03*
X26733500Y39402000D03*
X26733500Y43402000D03*
X31305500Y35401500D03*
X31305500Y39401500D03*
X33655000Y35401500D03*
X33655000Y39401500D03*
D22*
X31591500Y43180000D03*
X35591500Y43180000D03*
D21*
X35877500Y45625000D03*
X35877500Y49625000D03*
D22*
X40227500Y45275500D03*
X44227500Y45275500D03*
X47593000Y15240000D03*
X43593000Y15240000D03*
X47593000Y17462500D03*
X43593000Y17462500D03*
X47593000Y21844000D03*
X43593000Y21844000D03*
X47593000Y23876000D03*
X43593000Y23876000D03*
X63913000Y41465500D03*
X67913000Y41465500D03*
X63913000Y24447500D03*
X67913000Y24447500D03*
X63976500Y7556500D03*
X67976500Y7556500D03*
D23*
X18669000Y42291000D03*
X18669000Y44831000D03*
X18669000Y47371000D03*
X18669000Y21971000D03*
X5969000Y52451000D03*
X5969000Y49911000D03*
X5969000Y47371000D03*
X5969000Y44831000D03*
X5969000Y42291000D03*
X5969000Y39751000D03*
X5969000Y37211000D03*
X5969000Y34671000D03*
X5969000Y32131000D03*
X5969000Y29591000D03*
X5969000Y27051000D03*
X5969000Y24511000D03*
X5969000Y21971000D03*
X21209000Y21971000D03*
X21209000Y24511000D03*
X21209000Y27051000D03*
X21209000Y29591000D03*
X21209000Y32131000D03*
X21209000Y34671000D03*
X21209000Y37211000D03*
X21209000Y39751000D03*
X21209000Y42291000D03*
X21209000Y44831000D03*
X21209000Y47371000D03*
X21209000Y49911000D03*
X21209000Y52451000D03*
X21209000Y54991000D03*
X5969000Y54991000D03*
D11*
X47561500Y33401000D03*
X47561500Y34671000D03*
X46291500Y34671000D03*
X46291500Y33401000D03*
X45021500Y33401000D03*
X45021500Y34671000D03*
X45021500Y39751000D03*
X45021500Y38481000D03*
X46291500Y38481000D03*
X46291500Y39751000D03*
X47561500Y39751000D03*
X47561500Y38481000D03*
X47561500Y35941000D03*
X47561500Y37211000D03*
X45021500Y37211000D03*
X45021500Y35941000D03*
X46291500Y35941000D03*
D24*
X42541500Y43326000D03*
X42541500Y42826000D03*
X42541500Y42326000D03*
X42541500Y41826000D03*
X42541500Y41326000D03*
X42541500Y40826000D03*
X42541500Y40326000D03*
X42541500Y39826000D03*
X42541500Y39326000D03*
X42541500Y38826000D03*
X42541500Y38326000D03*
X42541500Y37826000D03*
X42541500Y37326000D03*
X42541500Y36826000D03*
X42541500Y36326000D03*
X42541500Y35826000D03*
X42541500Y35326000D03*
X42541500Y34826000D03*
X42541500Y34326000D03*
X42541500Y33826000D03*
X42541500Y33326000D03*
X42541500Y32826000D03*
X42541500Y32326000D03*
X42541500Y31826000D03*
X42541500Y31326000D03*
X42541500Y30826000D03*
X42541500Y30326000D03*
X42541500Y29826000D03*
X50041500Y29826000D03*
X50041500Y30326000D03*
X50041500Y30826000D03*
X50041500Y31326000D03*
X50041500Y31826000D03*
X50041500Y32326000D03*
X50041500Y32826000D03*
X50041500Y33326000D03*
X50041500Y33826000D03*
X50041500Y34326000D03*
X50041500Y34826000D03*
X50041500Y35326000D03*
X50041500Y35826000D03*
X50041500Y36326000D03*
X50041500Y36826000D03*
X50041500Y37326000D03*
X50041500Y37826000D03*
X50041500Y38326000D03*
X50041500Y38826000D03*
X50041500Y39326000D03*
X50041500Y39826000D03*
X50041500Y40326000D03*
X50041500Y40826000D03*
X50041500Y41326000D03*
X50041500Y41826000D03*
X50041500Y42326000D03*
X50041500Y42826000D03*
X50041500Y43326000D03*
D11*
X46291500Y37211000D03*
D25*
X18161000Y14478000D03*
D26*
X18161000Y9478000D03*
D25*
X31496000Y14478000D03*
D26*
X31496000Y9478000D03*
D27*
X71120000Y60325000D03*
X3175000Y60325000D03*
X38100000Y3175000D03*
M02*
