M48
METRIC,TZ
T1C0.762
T2C0.800
T3C1.000
T4C1.200
T5C2.499
%
G90
G05
T1
X4.064Y66.548
X4.064Y51.308
X6.604Y66.548
X6.604Y51.308
X9.144Y66.548
X9.144Y51.308
X11.684Y66.548
X11.684Y64.008
X11.684Y51.308
X14.224Y66.548
X14.224Y64.008
X14.224Y51.308
X16.764Y66.548
X16.764Y64.008
X16.764Y51.308
X19.304Y66.548
X19.304Y51.308
X21.844Y66.548
X21.844Y51.308
X24.384Y66.548
X24.384Y51.308
X26.924Y66.548
X26.924Y51.308
X29.464Y66.548
X29.464Y51.308
X32.004Y66.548
X32.004Y51.308
X34.544Y66.548
X34.544Y51.308
X37.084Y66.548
X37.084Y51.308
T2
X2.159Y59.944
X19.304Y34.29
X23.114Y34.29
X25.019Y49.657
X37.592Y41.275
X37.592Y21.971
X39.497Y21.717
X41.275Y40.005
X41.402Y53.213
X41.402Y21.463
X44.577Y51.816
X45.593Y56.261
X45.72Y58.166
X46.482Y34.925
X49.276Y29.083
X49.403Y55.118
X49.403Y6.096
X51.689Y71.501
X51.689Y68.961
X51.689Y66.421
X51.689Y63.881
X51.689Y45.466
X51.689Y42.926
X51.689Y40.386
X51.689Y37.846
X51.689Y19.431
X51.689Y16.891
X51.689Y14.351
X51.689Y11.811
X59.309Y71.501
X59.309Y68.961
X59.309Y66.421
X59.309Y63.881
X59.309Y45.466
X59.309Y42.926
X59.309Y40.386
X59.309Y37.846
X59.309Y19.431
X59.309Y16.891
X59.309Y14.351
X59.309Y11.811
X60.96Y55.118
X60.96Y29.083
X71.374Y75.311
X71.374Y73.011
X71.374Y70.711
X71.374Y60.071
X71.374Y57.771
X71.374Y55.471
X71.374Y49.276
X71.374Y46.976
X71.374Y44.676
X71.374Y34.036
X71.374Y31.736
X71.374Y29.436
X71.374Y23.241
X71.374Y20.941
X71.374Y18.641
X71.374Y8.001
X71.374Y5.701
X71.374Y3.401
T3
X3.937Y75.692
X3.937Y73.152
X3.937Y70.612
X4.445Y47.625
X6.985Y47.625
X8.509Y75.311
X9.906Y24.384
X9.906Y21.844
X9.906Y19.304
X11.049Y75.311
X13.589Y75.311
X17.272Y75.184
X17.272Y71.628
X17.399Y44.831
X17.399Y41.021
X19.812Y75.184
X19.812Y71.628
X19.939Y44.831
X19.939Y41.021
X22.352Y75.184
X22.352Y71.628
X22.479Y44.831
X22.479Y41.021
X24.892Y75.184
X24.892Y71.628
X25.019Y44.831
X25.019Y41.021
X27.432Y75.184
X27.432Y71.628
X27.559Y44.831
X29.972Y75.184
X29.972Y71.628
X30.099Y44.831
T4
X21.209Y10.541
X21.209Y5.541
X35.179Y10.541
X35.179Y5.541
T5
X9.779Y11.811
X9.779Y4.826
T0
M30
