G04 #@! TF.FileFunction,Legend,Top*
%FSLAX46Y46*%
G04 Gerber Fmt 4.6, Leading zero omitted, Abs format (unit mm)*
G04 Created by KiCad (PCBNEW 4.0.4-stable) date 07/18/17 15:47:46*
%MOMM*%
%LPD*%
G01*
G04 APERTURE LIST*
%ADD10C,0.100000*%
%ADD11C,0.150000*%
%ADD12C,0.187500*%
%ADD13C,0.300000*%
%ADD14C,0.120000*%
G04 APERTURE END LIST*
D10*
D11*
X16643856Y43301000D02*
X16572427Y43336714D01*
X16465284Y43336714D01*
X16358141Y43301000D01*
X16286713Y43229571D01*
X16250998Y43158143D01*
X16215284Y43015286D01*
X16215284Y42908143D01*
X16250998Y42765286D01*
X16286713Y42693857D01*
X16358141Y42622429D01*
X16465284Y42586714D01*
X16536713Y42586714D01*
X16643856Y42622429D01*
X16679570Y42658143D01*
X16679570Y42908143D01*
X16536713Y42908143D01*
X17000998Y42586714D02*
X17000998Y43336714D01*
X17429570Y42586714D01*
X17429570Y43336714D01*
X17786712Y42586714D02*
X17786712Y43336714D01*
X17965284Y43336714D01*
X18072427Y43301000D01*
X18143855Y43229571D01*
X18179570Y43158143D01*
X18215284Y43015286D01*
X18215284Y42908143D01*
X18179570Y42765286D01*
X18143855Y42693857D01*
X18072427Y42622429D01*
X17965284Y42586714D01*
X17786712Y42586714D01*
X19286713Y42336714D02*
X19286713Y43408143D01*
X20822428Y42658143D02*
X20786714Y42622429D01*
X20679571Y42586714D01*
X20608142Y42586714D01*
X20500999Y42622429D01*
X20429571Y42693857D01*
X20393856Y42765286D01*
X20358142Y42908143D01*
X20358142Y43015286D01*
X20393856Y43158143D01*
X20429571Y43229571D01*
X20500999Y43301000D01*
X20608142Y43336714D01*
X20679571Y43336714D01*
X20786714Y43301000D01*
X20822428Y43265286D01*
X21108142Y42801000D02*
X21465285Y42801000D01*
X21036714Y42586714D02*
X21286714Y43336714D01*
X21536714Y42586714D01*
X21786713Y42586714D02*
X21786713Y43336714D01*
X22215285Y42586714D01*
X22215285Y43336714D01*
X22572427Y42586714D02*
X22572427Y43336714D01*
X22572427Y42979571D02*
X23000999Y42979571D01*
X23000999Y42586714D02*
X23000999Y43336714D01*
X24108142Y42336714D02*
X24108142Y43408143D01*
X25643857Y42658143D02*
X25608143Y42622429D01*
X25501000Y42586714D01*
X25429571Y42586714D01*
X25322428Y42622429D01*
X25251000Y42693857D01*
X25215285Y42765286D01*
X25179571Y42908143D01*
X25179571Y43015286D01*
X25215285Y43158143D01*
X25251000Y43229571D01*
X25322428Y43301000D01*
X25429571Y43336714D01*
X25501000Y43336714D01*
X25608143Y43301000D01*
X25643857Y43265286D01*
X25929571Y42801000D02*
X26286714Y42801000D01*
X25858143Y42586714D02*
X26108143Y43336714D01*
X26358143Y42586714D01*
X26608142Y42586714D02*
X26608142Y43336714D01*
X27036714Y42586714D01*
X27036714Y43336714D01*
X27750999Y42586714D02*
X27393856Y42586714D01*
X27393856Y43336714D01*
X28751000Y42336714D02*
X28751000Y43408143D01*
X29786715Y43336714D02*
X30251001Y43336714D01*
X30001001Y43051000D01*
X30108143Y43051000D01*
X30179572Y43015286D01*
X30215286Y42979571D01*
X30251001Y42908143D01*
X30251001Y42729571D01*
X30215286Y42658143D01*
X30179572Y42622429D01*
X30108143Y42586714D01*
X29893858Y42586714D01*
X29822429Y42622429D01*
X29786715Y42658143D01*
X30501001Y43086714D02*
X30679572Y42586714D01*
X30858144Y43086714D01*
X31072430Y43336714D02*
X31536716Y43336714D01*
X31286716Y43051000D01*
X31393858Y43051000D01*
X31465287Y43015286D01*
X31501001Y42979571D01*
X31536716Y42908143D01*
X31536716Y42729571D01*
X31501001Y42658143D01*
X31465287Y42622429D01*
X31393858Y42586714D01*
X31179573Y42586714D01*
X31108144Y42622429D01*
X31072430Y42658143D01*
X16666282Y47492000D02*
X16594853Y47527714D01*
X16487710Y47527714D01*
X16380567Y47492000D01*
X16309139Y47420571D01*
X16273424Y47349143D01*
X16237710Y47206286D01*
X16237710Y47099143D01*
X16273424Y46956286D01*
X16309139Y46884857D01*
X16380567Y46813429D01*
X16487710Y46777714D01*
X16559139Y46777714D01*
X16666282Y46813429D01*
X16701996Y46849143D01*
X16701996Y47099143D01*
X16559139Y47099143D01*
X17023424Y46777714D02*
X17023424Y47527714D01*
X17451996Y46777714D01*
X17451996Y47527714D01*
X17809138Y46777714D02*
X17809138Y47527714D01*
X17987710Y47527714D01*
X18094853Y47492000D01*
X18166281Y47420571D01*
X18201996Y47349143D01*
X18237710Y47206286D01*
X18237710Y47099143D01*
X18201996Y46956286D01*
X18166281Y46884857D01*
X18094853Y46813429D01*
X17987710Y46777714D01*
X17809138Y46777714D01*
X19309139Y46527714D02*
X19309139Y47599143D01*
X20844854Y46849143D02*
X20809140Y46813429D01*
X20701997Y46777714D01*
X20630568Y46777714D01*
X20523425Y46813429D01*
X20451997Y46884857D01*
X20416282Y46956286D01*
X20380568Y47099143D01*
X20380568Y47206286D01*
X20416282Y47349143D01*
X20451997Y47420571D01*
X20523425Y47492000D01*
X20630568Y47527714D01*
X20701997Y47527714D01*
X20809140Y47492000D01*
X20844854Y47456286D01*
X21130568Y46813429D02*
X21237711Y46777714D01*
X21416282Y46777714D01*
X21487711Y46813429D01*
X21523425Y46849143D01*
X21559140Y46920571D01*
X21559140Y46992000D01*
X21523425Y47063429D01*
X21487711Y47099143D01*
X21416282Y47134857D01*
X21273425Y47170571D01*
X21201997Y47206286D01*
X21166282Y47242000D01*
X21130568Y47313429D01*
X21130568Y47384857D01*
X21166282Y47456286D01*
X21201997Y47492000D01*
X21273425Y47527714D01*
X21451997Y47527714D01*
X21559140Y47492000D01*
X21701997Y46706286D02*
X22273426Y46706286D01*
X22416283Y46813429D02*
X22523426Y46777714D01*
X22701997Y46777714D01*
X22773426Y46813429D01*
X22809140Y46849143D01*
X22844855Y46920571D01*
X22844855Y46992000D01*
X22809140Y47063429D01*
X22773426Y47099143D01*
X22701997Y47134857D01*
X22559140Y47170571D01*
X22487712Y47206286D01*
X22451997Y47242000D01*
X22416283Y47313429D01*
X22416283Y47384857D01*
X22451997Y47456286D01*
X22487712Y47492000D01*
X22559140Y47527714D01*
X22737712Y47527714D01*
X22844855Y47492000D01*
X23523426Y46777714D02*
X23166283Y46777714D01*
X23166283Y47527714D01*
X23666284Y47527714D02*
X23916284Y46777714D01*
X24166284Y47527714D01*
X25166284Y46527714D02*
X25166284Y47599143D01*
X26237713Y46813429D02*
X26344856Y46777714D01*
X26523427Y46777714D01*
X26594856Y46813429D01*
X26630570Y46849143D01*
X26666285Y46920571D01*
X26666285Y46992000D01*
X26630570Y47063429D01*
X26594856Y47099143D01*
X26523427Y47134857D01*
X26380570Y47170571D01*
X26309142Y47206286D01*
X26273427Y47242000D01*
X26237713Y47313429D01*
X26237713Y47384857D01*
X26273427Y47456286D01*
X26309142Y47492000D01*
X26380570Y47527714D01*
X26559142Y47527714D01*
X26666285Y47492000D01*
X27416285Y46849143D02*
X27380571Y46813429D01*
X27273428Y46777714D01*
X27201999Y46777714D01*
X27094856Y46813429D01*
X27023428Y46884857D01*
X26987713Y46956286D01*
X26951999Y47099143D01*
X26951999Y47206286D01*
X26987713Y47349143D01*
X27023428Y47420571D01*
X27094856Y47492000D01*
X27201999Y47527714D01*
X27273428Y47527714D01*
X27380571Y47492000D01*
X27416285Y47456286D01*
X27737713Y46777714D02*
X27737713Y47527714D01*
X28166285Y46777714D02*
X27844856Y47206286D01*
X28166285Y47527714D02*
X27737713Y47099143D01*
X29237714Y46527714D02*
X29237714Y47599143D01*
X30344857Y46777714D02*
X30344857Y47527714D01*
X30594857Y46992000D01*
X30844857Y47527714D01*
X30844857Y46777714D01*
X31344858Y47527714D02*
X31487715Y47527714D01*
X31559143Y47492000D01*
X31630572Y47420571D01*
X31666286Y47277714D01*
X31666286Y47027714D01*
X31630572Y46884857D01*
X31559143Y46813429D01*
X31487715Y46777714D01*
X31344858Y46777714D01*
X31273429Y46813429D01*
X31202000Y46884857D01*
X31166286Y47027714D01*
X31166286Y47277714D01*
X31202000Y47420571D01*
X31273429Y47492000D01*
X31344858Y47527714D01*
X31952000Y46813429D02*
X32059143Y46777714D01*
X32237714Y46777714D01*
X32309143Y46813429D01*
X32344857Y46849143D01*
X32380572Y46920571D01*
X32380572Y46992000D01*
X32344857Y47063429D01*
X32309143Y47099143D01*
X32237714Y47134857D01*
X32094857Y47170571D01*
X32023429Y47206286D01*
X31987714Y47242000D01*
X31952000Y47313429D01*
X31952000Y47384857D01*
X31987714Y47456286D01*
X32023429Y47492000D01*
X32094857Y47527714D01*
X32273429Y47527714D01*
X32380572Y47492000D01*
X32702000Y46777714D02*
X32702000Y47527714D01*
X33809144Y46527714D02*
X33809144Y47599143D01*
X34916287Y46777714D02*
X34916287Y47527714D01*
X35166287Y46992000D01*
X35416287Y47527714D01*
X35416287Y46777714D01*
X35773430Y46777714D02*
X35773430Y47527714D01*
X36094859Y46813429D02*
X36202002Y46777714D01*
X36380573Y46777714D01*
X36452002Y46813429D01*
X36487716Y46849143D01*
X36523431Y46920571D01*
X36523431Y46992000D01*
X36487716Y47063429D01*
X36452002Y47099143D01*
X36380573Y47134857D01*
X36237716Y47170571D01*
X36166288Y47206286D01*
X36130573Y47242000D01*
X36094859Y47313429D01*
X36094859Y47384857D01*
X36130573Y47456286D01*
X36166288Y47492000D01*
X36237716Y47527714D01*
X36416288Y47527714D01*
X36523431Y47492000D01*
X36987717Y47527714D02*
X37130574Y47527714D01*
X37202002Y47492000D01*
X37273431Y47420571D01*
X37309145Y47277714D01*
X37309145Y47027714D01*
X37273431Y46884857D01*
X37202002Y46813429D01*
X37130574Y46777714D01*
X36987717Y46777714D01*
X36916288Y46813429D01*
X36844859Y46884857D01*
X36809145Y47027714D01*
X36809145Y47277714D01*
X36844859Y47420571D01*
X36916288Y47492000D01*
X36987717Y47527714D01*
X38380574Y46527714D02*
X38380574Y47599143D01*
X39416289Y47527714D02*
X39880575Y47527714D01*
X39630575Y47242000D01*
X39737717Y47242000D01*
X39809146Y47206286D01*
X39844860Y47170571D01*
X39880575Y47099143D01*
X39880575Y46920571D01*
X39844860Y46849143D01*
X39809146Y46813429D01*
X39737717Y46777714D01*
X39523432Y46777714D01*
X39452003Y46813429D01*
X39416289Y46849143D01*
X40130575Y47277714D02*
X40309146Y46777714D01*
X40487718Y47277714D01*
X40702004Y47527714D02*
X41166290Y47527714D01*
X40916290Y47242000D01*
X41023432Y47242000D01*
X41094861Y47206286D01*
X41130575Y47170571D01*
X41166290Y47099143D01*
X41166290Y46920571D01*
X41130575Y46849143D01*
X41094861Y46813429D01*
X41023432Y46777714D01*
X40809147Y46777714D01*
X40737718Y46813429D01*
X40702004Y46849143D01*
X16223711Y77753714D02*
X16687997Y77753714D01*
X16437997Y77468000D01*
X16545139Y77468000D01*
X16616568Y77432286D01*
X16652282Y77396571D01*
X16687997Y77325143D01*
X16687997Y77146571D01*
X16652282Y77075143D01*
X16616568Y77039429D01*
X16545139Y77003714D01*
X16330854Y77003714D01*
X16259425Y77039429D01*
X16223711Y77075143D01*
X16937997Y77503714D02*
X17116568Y77003714D01*
X17295140Y77503714D01*
X17509426Y77753714D02*
X17973712Y77753714D01*
X17723712Y77468000D01*
X17830854Y77468000D01*
X17902283Y77432286D01*
X17937997Y77396571D01*
X17973712Y77325143D01*
X17973712Y77146571D01*
X17937997Y77075143D01*
X17902283Y77039429D01*
X17830854Y77003714D01*
X17616569Y77003714D01*
X17545140Y77039429D01*
X17509426Y77075143D01*
X19045141Y76753714D02*
X19045141Y77825143D01*
X20152284Y77003714D02*
X20152284Y77753714D01*
X20402284Y77218000D01*
X20652284Y77753714D01*
X20652284Y77003714D01*
X21152285Y77753714D02*
X21295142Y77753714D01*
X21366570Y77718000D01*
X21437999Y77646571D01*
X21473713Y77503714D01*
X21473713Y77253714D01*
X21437999Y77110857D01*
X21366570Y77039429D01*
X21295142Y77003714D01*
X21152285Y77003714D01*
X21080856Y77039429D01*
X21009427Y77110857D01*
X20973713Y77253714D01*
X20973713Y77503714D01*
X21009427Y77646571D01*
X21080856Y77718000D01*
X21152285Y77753714D01*
X21759427Y77039429D02*
X21866570Y77003714D01*
X22045141Y77003714D01*
X22116570Y77039429D01*
X22152284Y77075143D01*
X22187999Y77146571D01*
X22187999Y77218000D01*
X22152284Y77289429D01*
X22116570Y77325143D01*
X22045141Y77360857D01*
X21902284Y77396571D01*
X21830856Y77432286D01*
X21795141Y77468000D01*
X21759427Y77539429D01*
X21759427Y77610857D01*
X21795141Y77682286D01*
X21830856Y77718000D01*
X21902284Y77753714D01*
X22080856Y77753714D01*
X22187999Y77718000D01*
X22509427Y77003714D02*
X22509427Y77753714D01*
X23616571Y76753714D02*
X23616571Y77825143D01*
X24723714Y77003714D02*
X24723714Y77753714D01*
X24973714Y77218000D01*
X25223714Y77753714D01*
X25223714Y77003714D01*
X25580857Y77003714D02*
X25580857Y77753714D01*
X25902286Y77039429D02*
X26009429Y77003714D01*
X26188000Y77003714D01*
X26259429Y77039429D01*
X26295143Y77075143D01*
X26330858Y77146571D01*
X26330858Y77218000D01*
X26295143Y77289429D01*
X26259429Y77325143D01*
X26188000Y77360857D01*
X26045143Y77396571D01*
X25973715Y77432286D01*
X25938000Y77468000D01*
X25902286Y77539429D01*
X25902286Y77610857D01*
X25938000Y77682286D01*
X25973715Y77718000D01*
X26045143Y77753714D01*
X26223715Y77753714D01*
X26330858Y77718000D01*
X26795144Y77753714D02*
X26938001Y77753714D01*
X27009429Y77718000D01*
X27080858Y77646571D01*
X27116572Y77503714D01*
X27116572Y77253714D01*
X27080858Y77110857D01*
X27009429Y77039429D01*
X26938001Y77003714D01*
X26795144Y77003714D01*
X26723715Y77039429D01*
X26652286Y77110857D01*
X26616572Y77253714D01*
X26616572Y77503714D01*
X26652286Y77646571D01*
X26723715Y77718000D01*
X26795144Y77753714D01*
X28188001Y76753714D02*
X28188001Y77825143D01*
X29259430Y77039429D02*
X29366573Y77003714D01*
X29545144Y77003714D01*
X29616573Y77039429D01*
X29652287Y77075143D01*
X29688002Y77146571D01*
X29688002Y77218000D01*
X29652287Y77289429D01*
X29616573Y77325143D01*
X29545144Y77360857D01*
X29402287Y77396571D01*
X29330859Y77432286D01*
X29295144Y77468000D01*
X29259430Y77539429D01*
X29259430Y77610857D01*
X29295144Y77682286D01*
X29330859Y77718000D01*
X29402287Y77753714D01*
X29580859Y77753714D01*
X29688002Y77718000D01*
X30438002Y77075143D02*
X30402288Y77039429D01*
X30295145Y77003714D01*
X30223716Y77003714D01*
X30116573Y77039429D01*
X30045145Y77110857D01*
X30009430Y77182286D01*
X29973716Y77325143D01*
X29973716Y77432286D01*
X30009430Y77575143D01*
X30045145Y77646571D01*
X30116573Y77718000D01*
X30223716Y77753714D01*
X30295145Y77753714D01*
X30402288Y77718000D01*
X30438002Y77682286D01*
X30759430Y77003714D02*
X30759430Y77753714D01*
X31188002Y77003714D02*
X30866573Y77432286D01*
X31188002Y77753714D02*
X30759430Y77325143D01*
X32259431Y76753714D02*
X32259431Y77825143D01*
X33795146Y77075143D02*
X33759432Y77039429D01*
X33652289Y77003714D01*
X33580860Y77003714D01*
X33473717Y77039429D01*
X33402289Y77110857D01*
X33366574Y77182286D01*
X33330860Y77325143D01*
X33330860Y77432286D01*
X33366574Y77575143D01*
X33402289Y77646571D01*
X33473717Y77718000D01*
X33580860Y77753714D01*
X33652289Y77753714D01*
X33759432Y77718000D01*
X33795146Y77682286D01*
X34080860Y77039429D02*
X34188003Y77003714D01*
X34366574Y77003714D01*
X34438003Y77039429D01*
X34473717Y77075143D01*
X34509432Y77146571D01*
X34509432Y77218000D01*
X34473717Y77289429D01*
X34438003Y77325143D01*
X34366574Y77360857D01*
X34223717Y77396571D01*
X34152289Y77432286D01*
X34116574Y77468000D01*
X34080860Y77539429D01*
X34080860Y77610857D01*
X34116574Y77682286D01*
X34152289Y77718000D01*
X34223717Y77753714D01*
X34402289Y77753714D01*
X34509432Y77718000D01*
X35223718Y77003714D02*
X34795146Y77003714D01*
X35009432Y77003714D02*
X35009432Y77753714D01*
X34938003Y77646571D01*
X34866575Y77575143D01*
X34795146Y77539429D01*
X36295147Y76753714D02*
X36295147Y77825143D01*
X37795148Y77718000D02*
X37723719Y77753714D01*
X37616576Y77753714D01*
X37509433Y77718000D01*
X37438005Y77646571D01*
X37402290Y77575143D01*
X37366576Y77432286D01*
X37366576Y77325143D01*
X37402290Y77182286D01*
X37438005Y77110857D01*
X37509433Y77039429D01*
X37616576Y77003714D01*
X37688005Y77003714D01*
X37795148Y77039429D01*
X37830862Y77075143D01*
X37830862Y77325143D01*
X37688005Y77325143D01*
X38152290Y77003714D02*
X38152290Y77753714D01*
X38580862Y77003714D01*
X38580862Y77753714D01*
X38938004Y77003714D02*
X38938004Y77753714D01*
X39116576Y77753714D01*
X39223719Y77718000D01*
X39295147Y77646571D01*
X39330862Y77575143D01*
X39366576Y77432286D01*
X39366576Y77325143D01*
X39330862Y77182286D01*
X39295147Y77110857D01*
X39223719Y77039429D01*
X39116576Y77003714D01*
X38938004Y77003714D01*
X9424000Y77416429D02*
X9995429Y77416429D01*
X10888286Y77166429D02*
X10959715Y77130714D01*
X11102572Y77130714D01*
X11174000Y77166429D01*
X11209715Y77237857D01*
X11209715Y77273571D01*
X11174000Y77345000D01*
X11102572Y77380714D01*
X10995429Y77380714D01*
X10924000Y77416429D01*
X10888286Y77487857D01*
X10888286Y77523571D01*
X10924000Y77595000D01*
X10995429Y77630714D01*
X11102572Y77630714D01*
X11174000Y77595000D01*
X12102572Y77416429D02*
X12674001Y77416429D01*
X12388287Y77130714D02*
X12388287Y77702143D01*
D12*
X2061714Y75092429D02*
X2061714Y75449572D01*
X1704571Y75485286D01*
X1740286Y75449572D01*
X1776000Y75378143D01*
X1776000Y75199572D01*
X1740286Y75128143D01*
X1704571Y75092429D01*
X1633143Y75056714D01*
X1454571Y75056714D01*
X1383143Y75092429D01*
X1347429Y75128143D01*
X1311714Y75199572D01*
X1311714Y75378143D01*
X1347429Y75449572D01*
X1383143Y75485286D01*
X2097429Y73628142D02*
X1133143Y74270999D01*
X2061714Y72878142D02*
X2061714Y72413856D01*
X1776000Y72663856D01*
X1776000Y72556714D01*
X1740286Y72485285D01*
X1704571Y72449571D01*
X1633143Y72413856D01*
X1454571Y72413856D01*
X1383143Y72449571D01*
X1347429Y72485285D01*
X1311714Y72556714D01*
X1311714Y72770999D01*
X1347429Y72842428D01*
X1383143Y72878142D01*
X1311714Y71413856D02*
X1347429Y71485284D01*
X1383143Y71520999D01*
X1454571Y71556713D01*
X1668857Y71556713D01*
X1740286Y71520999D01*
X1776000Y71485284D01*
X1811714Y71413856D01*
X1811714Y71306713D01*
X1776000Y71235284D01*
X1740286Y71199570D01*
X1668857Y71163856D01*
X1454571Y71163856D01*
X1383143Y71199570D01*
X1347429Y71235284D01*
X1311714Y71306713D01*
X1311714Y71413856D01*
X1811714Y70520999D02*
X1311714Y70520999D01*
X1811714Y70842428D02*
X1418857Y70842428D01*
X1347429Y70806713D01*
X1311714Y70735285D01*
X1311714Y70628142D01*
X1347429Y70556713D01*
X1383143Y70520999D01*
X1811714Y70270999D02*
X1811714Y69985285D01*
X2061714Y70163857D02*
X1418857Y70163857D01*
X1347429Y70128142D01*
X1311714Y70056714D01*
X1311714Y69985285D01*
D13*
X3956857Y14381999D02*
X3956857Y13239142D01*
X3385429Y13810571D02*
X4528286Y13810571D01*
X4885429Y12739142D02*
X3385429Y12239142D01*
X4885429Y11739142D01*
X4171143Y11239142D02*
X4171143Y10739142D01*
X3385429Y10524856D02*
X3385429Y11239142D01*
X4885429Y11239142D01*
X4885429Y10524856D01*
X2885429Y8381999D02*
X5028286Y8381999D01*
X3956857Y6167714D02*
X3956857Y5024857D01*
X4885429Y4524857D02*
X3385429Y4024857D01*
X4885429Y3524857D01*
X4171143Y3024857D02*
X4171143Y2524857D01*
X3385429Y2310571D02*
X3385429Y3024857D01*
X4885429Y3024857D01*
X4885429Y2310571D01*
X87443429Y40602572D02*
X86229143Y40602572D01*
X86086286Y40674001D01*
X86014857Y40745429D01*
X85943429Y40888286D01*
X85943429Y41102572D01*
X86014857Y41245429D01*
X86514857Y40602572D02*
X86443429Y40745429D01*
X86443429Y41031143D01*
X86514857Y41174001D01*
X86586286Y41245429D01*
X86729143Y41316858D01*
X87157714Y41316858D01*
X87300571Y41245429D01*
X87372000Y41174001D01*
X87443429Y41031143D01*
X87443429Y40745429D01*
X87372000Y40602572D01*
X86443429Y39888286D02*
X87443429Y39888286D01*
X87943429Y39888286D02*
X87872000Y39959715D01*
X87800571Y39888286D01*
X87872000Y39816858D01*
X87943429Y39888286D01*
X87800571Y39888286D01*
X87443429Y39388286D02*
X87443429Y38816857D01*
X87943429Y39174000D02*
X86657714Y39174000D01*
X86514857Y39102572D01*
X86443429Y38959714D01*
X86443429Y38816857D01*
X86443429Y38316857D02*
X87943429Y38316857D01*
X86443429Y37674000D02*
X87229143Y37674000D01*
X87372000Y37745429D01*
X87443429Y37888286D01*
X87443429Y38102571D01*
X87372000Y38245429D01*
X87300571Y38316857D01*
X87443429Y36316857D02*
X86443429Y36316857D01*
X87443429Y36959714D02*
X86657714Y36959714D01*
X86514857Y36888286D01*
X86443429Y36745428D01*
X86443429Y36531143D01*
X86514857Y36388286D01*
X86586286Y36316857D01*
X86443429Y35602571D02*
X87943429Y35602571D01*
X87372000Y35602571D02*
X87443429Y35459714D01*
X87443429Y35174000D01*
X87372000Y35031143D01*
X87300571Y34959714D01*
X87157714Y34888285D01*
X86729143Y34888285D01*
X86586286Y34959714D01*
X86514857Y35031143D01*
X86443429Y35174000D01*
X86443429Y35459714D01*
X86514857Y35602571D01*
X86586286Y34245428D02*
X86514857Y34174000D01*
X86443429Y34245428D01*
X86514857Y34316857D01*
X86586286Y34245428D01*
X86443429Y34245428D01*
X86514857Y32888285D02*
X86443429Y33031142D01*
X86443429Y33316856D01*
X86514857Y33459714D01*
X86586286Y33531142D01*
X86729143Y33602571D01*
X87157714Y33602571D01*
X87300571Y33531142D01*
X87372000Y33459714D01*
X87443429Y33316856D01*
X87443429Y33031142D01*
X87372000Y32888285D01*
X86443429Y32031142D02*
X86514857Y32174000D01*
X86586286Y32245428D01*
X86729143Y32316857D01*
X87157714Y32316857D01*
X87300571Y32245428D01*
X87372000Y32174000D01*
X87443429Y32031142D01*
X87443429Y31816857D01*
X87372000Y31674000D01*
X87300571Y31602571D01*
X87157714Y31531142D01*
X86729143Y31531142D01*
X86586286Y31602571D01*
X86514857Y31674000D01*
X86443429Y31816857D01*
X86443429Y32031142D01*
X86443429Y30888285D02*
X87443429Y30888285D01*
X87300571Y30888285D02*
X87372000Y30816857D01*
X87443429Y30673999D01*
X87443429Y30459714D01*
X87372000Y30316857D01*
X87229143Y30245428D01*
X86443429Y30245428D01*
X87229143Y30245428D02*
X87372000Y30173999D01*
X87443429Y30031142D01*
X87443429Y29816857D01*
X87372000Y29673999D01*
X87229143Y29602571D01*
X86443429Y29602571D01*
X88014857Y27816857D02*
X86086286Y29102571D01*
X87443429Y27316856D02*
X86157714Y27316856D01*
X86014857Y27388285D01*
X85943429Y27531142D01*
X85943429Y27602570D01*
X87943429Y27316856D02*
X87872000Y27388285D01*
X87800571Y27316856D01*
X87872000Y27245428D01*
X87943429Y27316856D01*
X87800571Y27316856D01*
X86443429Y25959713D02*
X87229143Y25959713D01*
X87372000Y26031142D01*
X87443429Y26173999D01*
X87443429Y26459713D01*
X87372000Y26602570D01*
X86514857Y25959713D02*
X86443429Y26102570D01*
X86443429Y26459713D01*
X86514857Y26602570D01*
X86657714Y26673999D01*
X86800571Y26673999D01*
X86943429Y26602570D01*
X87014857Y26459713D01*
X87014857Y26102570D01*
X87086286Y25959713D01*
X86443429Y25245427D02*
X87943429Y25245427D01*
X87014857Y25102570D02*
X86443429Y24673999D01*
X87443429Y24673999D02*
X86872000Y25245427D01*
X86514857Y23459713D02*
X86443429Y23602570D01*
X86443429Y23888284D01*
X86514857Y24031141D01*
X86657714Y24102570D01*
X87229143Y24102570D01*
X87372000Y24031141D01*
X87443429Y23888284D01*
X87443429Y23602570D01*
X87372000Y23459713D01*
X87229143Y23388284D01*
X87086286Y23388284D01*
X86943429Y24102570D01*
X86443429Y22745427D02*
X87443429Y22745427D01*
X87157714Y22745427D02*
X87300571Y22673999D01*
X87372000Y22602570D01*
X87443429Y22459713D01*
X87443429Y22316856D01*
X86514857Y21245428D02*
X86443429Y21388285D01*
X86443429Y21673999D01*
X86514857Y21816856D01*
X86657714Y21888285D01*
X87229143Y21888285D01*
X87372000Y21816856D01*
X87443429Y21673999D01*
X87443429Y21388285D01*
X87372000Y21245428D01*
X87229143Y21173999D01*
X87086286Y21173999D01*
X86943429Y21888285D01*
X86443429Y19888285D02*
X87229143Y19888285D01*
X87372000Y19959714D01*
X87443429Y20102571D01*
X87443429Y20388285D01*
X87372000Y20531142D01*
X86514857Y19888285D02*
X86443429Y20031142D01*
X86443429Y20388285D01*
X86514857Y20531142D01*
X86657714Y20602571D01*
X86800571Y20602571D01*
X86943429Y20531142D01*
X87014857Y20388285D01*
X87014857Y20031142D01*
X87086286Y19888285D01*
X86443429Y18531142D02*
X87943429Y18531142D01*
X86514857Y18531142D02*
X86443429Y18673999D01*
X86443429Y18959713D01*
X86514857Y19102571D01*
X86586286Y19173999D01*
X86729143Y19245428D01*
X87157714Y19245428D01*
X87300571Y19173999D01*
X87372000Y19102571D01*
X87443429Y18959713D01*
X87443429Y18673999D01*
X87372000Y18531142D01*
X88014857Y16745428D02*
X86086286Y18031142D01*
X87443429Y16459713D02*
X87443429Y15888284D01*
X86443429Y16245427D02*
X87729143Y16245427D01*
X87872000Y16173999D01*
X87943429Y16031141D01*
X87943429Y15888284D01*
X86443429Y15173998D02*
X86514857Y15316856D01*
X86586286Y15388284D01*
X86729143Y15459713D01*
X87157714Y15459713D01*
X87300571Y15388284D01*
X87372000Y15316856D01*
X87443429Y15173998D01*
X87443429Y14959713D01*
X87372000Y14816856D01*
X87300571Y14745427D01*
X87157714Y14673998D01*
X86729143Y14673998D01*
X86586286Y14745427D01*
X86514857Y14816856D01*
X86443429Y14959713D01*
X86443429Y15173998D01*
X86514857Y13388284D02*
X86443429Y13531141D01*
X86443429Y13816855D01*
X86514857Y13959713D01*
X86586286Y14031141D01*
X86729143Y14102570D01*
X87157714Y14102570D01*
X87300571Y14031141D01*
X87372000Y13959713D01*
X87443429Y13816855D01*
X87443429Y13531141D01*
X87372000Y13388284D01*
X87443429Y12959713D02*
X87443429Y12388284D01*
X87943429Y12745427D02*
X86657714Y12745427D01*
X86514857Y12673999D01*
X86443429Y12531141D01*
X86443429Y12388284D01*
X87082286Y66792856D02*
X87082286Y67792856D01*
X85510857Y67792856D02*
X88510857Y67792856D01*
X88510857Y66364285D01*
X88510857Y64649999D02*
X88510857Y64078570D01*
X88368000Y63792856D01*
X88082286Y63507142D01*
X87510857Y63364284D01*
X86510857Y63364284D01*
X85939429Y63507142D01*
X85653714Y63792856D01*
X85510857Y64078570D01*
X85510857Y64649999D01*
X85653714Y64935713D01*
X85939429Y65221427D01*
X86510857Y65364284D01*
X87510857Y65364284D01*
X88082286Y65221427D01*
X88368000Y64935713D01*
X88510857Y64649999D01*
X85796571Y60364285D02*
X85653714Y60507142D01*
X85510857Y60935713D01*
X85510857Y61221427D01*
X85653714Y61649999D01*
X85939429Y61935713D01*
X86225143Y62078570D01*
X86796571Y62221427D01*
X87225143Y62221427D01*
X87796571Y62078570D01*
X88082286Y61935713D01*
X88368000Y61649999D01*
X88510857Y61221427D01*
X88510857Y60935713D01*
X88368000Y60507142D01*
X88225143Y60364285D01*
X88510857Y59507142D02*
X88510857Y57792856D01*
X85510857Y58649999D02*
X88510857Y58649999D01*
X87510857Y54792857D02*
X85510857Y54078571D01*
X87510857Y53364285D01*
X88510857Y51650000D02*
X88510857Y51364285D01*
X88368000Y51078571D01*
X88225143Y50935714D01*
X87939429Y50792857D01*
X87368000Y50650000D01*
X86653714Y50650000D01*
X86082286Y50792857D01*
X85796571Y50935714D01*
X85653714Y51078571D01*
X85510857Y51364285D01*
X85510857Y51650000D01*
X85653714Y51935714D01*
X85796571Y52078571D01*
X86082286Y52221428D01*
X86653714Y52364285D01*
X87368000Y52364285D01*
X87939429Y52221428D01*
X88225143Y52078571D01*
X88368000Y51935714D01*
X88510857Y51650000D01*
X85796571Y49364285D02*
X85653714Y49221428D01*
X85510857Y49364285D01*
X85653714Y49507142D01*
X85796571Y49364285D01*
X85510857Y49364285D01*
X85510857Y46364286D02*
X85510857Y48078571D01*
X85510857Y47221429D02*
X88510857Y47221429D01*
X88082286Y47507143D01*
X87796571Y47792857D01*
X87653714Y48078571D01*
D14*
X43942000Y71753000D02*
X45362000Y71753000D01*
X43182000Y65153000D02*
X45362000Y65153000D01*
X49782000Y65153000D02*
X47602000Y65153000D01*
X49022000Y71753000D02*
X47602000Y71753000D01*
X43182000Y65153000D02*
X43182000Y70993000D01*
X43182000Y70993000D02*
X43942000Y71753000D01*
X49022000Y71753000D02*
X49782000Y70993000D01*
X49782000Y70993000D02*
X49782000Y65153000D01*
D11*
X33274000Y57658000D02*
X33274000Y60198000D01*
X33274000Y60198000D02*
X34544000Y60198000D01*
X34544000Y60198000D02*
X34544000Y57658000D01*
X34544000Y57658000D02*
X33274000Y57658000D01*
X19304000Y53848000D02*
X32004000Y53848000D01*
X32004000Y53848000D02*
X32004000Y64008000D01*
X32004000Y64008000D02*
X19304000Y64008000D01*
X19304000Y64008000D02*
X19304000Y53848000D01*
X1524000Y56388000D02*
X5334000Y56388000D01*
X5334000Y56388000D02*
X5334000Y61468000D01*
X5334000Y61468000D02*
X1524000Y61468000D01*
X1524000Y61468000D02*
X1524000Y56388000D01*
X2794000Y50038000D02*
X38354000Y50038000D01*
X38354000Y50038000D02*
X38354000Y67818000D01*
X38354000Y67818000D02*
X2794000Y67818000D01*
X2794000Y67818000D02*
X2794000Y50038000D01*
D14*
X54499000Y72891000D02*
X53129000Y72891000D01*
X53129000Y72891000D02*
X53129000Y62491000D01*
X53129000Y62491000D02*
X57869000Y62491000D01*
X57869000Y62491000D02*
X57869000Y72891000D01*
X57869000Y72891000D02*
X56499000Y72891000D01*
X50299000Y72891000D02*
X50299000Y62491000D01*
X50299000Y62491000D02*
X60699000Y62491000D01*
X60699000Y62491000D02*
X60699000Y72891000D01*
X60699000Y72891000D02*
X50299000Y72891000D01*
X56499000Y72891000D02*
G75*
G02X54499000Y72891000I-1000000J0D01*
G01*
X13339000Y44593000D02*
X13339000Y46593000D01*
X11299000Y46593000D02*
X11299000Y44593000D01*
X59899000Y73661000D02*
X59899000Y76961000D01*
X59899000Y76961000D02*
X52999000Y76961000D01*
X59899000Y73661000D02*
X52999000Y73661000D01*
X59899000Y47626000D02*
X59899000Y50926000D01*
X59899000Y50926000D02*
X52999000Y50926000D01*
X59899000Y47626000D02*
X52999000Y47626000D01*
X59899000Y21591000D02*
X59899000Y24891000D01*
X59899000Y24891000D02*
X52999000Y24891000D01*
X59899000Y21591000D02*
X52999000Y21591000D01*
X64024000Y76381000D02*
X66024000Y76381000D01*
X66024000Y74241000D02*
X64024000Y74241000D01*
X64024000Y64951000D02*
X66024000Y64951000D01*
X66024000Y62811000D02*
X64024000Y62811000D01*
X64024000Y50346000D02*
X66024000Y50346000D01*
X66024000Y48206000D02*
X64024000Y48206000D01*
X64024000Y38916000D02*
X66024000Y38916000D01*
X66024000Y36776000D02*
X64024000Y36776000D01*
X64024000Y24311000D02*
X66024000Y24311000D01*
X66024000Y22171000D02*
X64024000Y22171000D01*
X64024000Y12881000D02*
X66024000Y12881000D01*
X66024000Y10741000D02*
X64024000Y10741000D01*
X64024000Y59236000D02*
X66024000Y59236000D01*
X66024000Y57096000D02*
X64024000Y57096000D01*
X64024000Y33201000D02*
X66024000Y33201000D01*
X66024000Y31061000D02*
X64024000Y31061000D01*
D11*
X80264000Y49911000D02*
X73279000Y49911000D01*
X73279000Y49911000D02*
X73279000Y44196000D01*
X73279000Y44196000D02*
X80264000Y44196000D01*
X80264000Y44196000D02*
X80264000Y49911000D01*
D14*
X72494000Y50347000D02*
X72494000Y43606000D01*
X69954000Y50347000D02*
X69954000Y43606000D01*
X72494000Y50347000D02*
X69954000Y50347000D01*
X72494000Y43606000D02*
X69954000Y43606000D01*
X71755000Y50347000D02*
X71755000Y50126000D01*
X71755000Y48426000D02*
X71755000Y47814000D01*
X71755000Y46137000D02*
X71755000Y45514000D01*
X71755000Y43837000D02*
X71755000Y43606000D01*
D11*
X80264000Y75946000D02*
X73279000Y75946000D01*
X73279000Y75946000D02*
X73279000Y70231000D01*
X73279000Y70231000D02*
X80264000Y70231000D01*
X80264000Y70231000D02*
X80264000Y75946000D01*
D14*
X72494000Y76382000D02*
X72494000Y69641000D01*
X69954000Y76382000D02*
X69954000Y69641000D01*
X72494000Y76382000D02*
X69954000Y76382000D01*
X72494000Y69641000D02*
X69954000Y69641000D01*
X71755000Y76382000D02*
X71755000Y76161000D01*
X71755000Y74461000D02*
X71755000Y73849000D01*
X71755000Y72172000D02*
X71755000Y71549000D01*
X71755000Y69872000D02*
X71755000Y69641000D01*
D11*
X80264000Y34671000D02*
X73279000Y34671000D01*
X73279000Y34671000D02*
X73279000Y28956000D01*
X73279000Y28956000D02*
X80264000Y28956000D01*
X80264000Y28956000D02*
X80264000Y34671000D01*
D14*
X72494000Y35107000D02*
X72494000Y28366000D01*
X69954000Y35107000D02*
X69954000Y28366000D01*
X72494000Y35107000D02*
X69954000Y35107000D01*
X72494000Y28366000D02*
X69954000Y28366000D01*
X71755000Y35107000D02*
X71755000Y34886000D01*
X71755000Y33186000D02*
X71755000Y32574000D01*
X71755000Y30897000D02*
X71755000Y30274000D01*
X71755000Y28597000D02*
X71755000Y28366000D01*
D11*
X80264000Y23876000D02*
X73279000Y23876000D01*
X73279000Y23876000D02*
X73279000Y18161000D01*
X73279000Y18161000D02*
X80264000Y18161000D01*
X80264000Y18161000D02*
X80264000Y23876000D01*
D14*
X72494000Y24312000D02*
X72494000Y17571000D01*
X69954000Y24312000D02*
X69954000Y17571000D01*
X72494000Y24312000D02*
X69954000Y24312000D01*
X72494000Y17571000D02*
X69954000Y17571000D01*
X71755000Y24312000D02*
X71755000Y24091000D01*
X71755000Y22391000D02*
X71755000Y21779000D01*
X71755000Y20102000D02*
X71755000Y19479000D01*
X71755000Y17802000D02*
X71755000Y17571000D01*
D11*
X80264000Y8636000D02*
X73279000Y8636000D01*
X73279000Y8636000D02*
X73279000Y2921000D01*
X73279000Y2921000D02*
X80264000Y2921000D01*
X80264000Y2921000D02*
X80264000Y8636000D01*
D14*
X72494000Y9072000D02*
X72494000Y2331000D01*
X69954000Y9072000D02*
X69954000Y2331000D01*
X72494000Y9072000D02*
X69954000Y9072000D01*
X72494000Y2331000D02*
X69954000Y2331000D01*
X71755000Y9072000D02*
X71755000Y8851000D01*
X71755000Y7151000D02*
X71755000Y6539000D01*
X71755000Y4862000D02*
X71755000Y4239000D01*
X71755000Y2562000D02*
X71755000Y2331000D01*
X64024000Y7166000D02*
X66024000Y7166000D01*
X66024000Y5026000D02*
X64024000Y5026000D01*
X54429000Y59071000D02*
X54429000Y61071000D01*
X56569000Y61071000D02*
X56569000Y59071000D01*
X54429000Y33036000D02*
X54429000Y35036000D01*
X56569000Y35036000D02*
X56569000Y33036000D01*
X54429000Y7001000D02*
X54429000Y9001000D01*
X56569000Y9001000D02*
X56569000Y7001000D01*
X54499000Y46856000D02*
X53129000Y46856000D01*
X53129000Y46856000D02*
X53129000Y36456000D01*
X53129000Y36456000D02*
X57869000Y36456000D01*
X57869000Y36456000D02*
X57869000Y46856000D01*
X57869000Y46856000D02*
X56499000Y46856000D01*
X50299000Y46856000D02*
X50299000Y36456000D01*
X50299000Y36456000D02*
X60699000Y36456000D01*
X60699000Y36456000D02*
X60699000Y46856000D01*
X60699000Y46856000D02*
X50299000Y46856000D01*
X56499000Y46856000D02*
G75*
G02X54499000Y46856000I-1000000J0D01*
G01*
X54499000Y20821000D02*
X53129000Y20821000D01*
X53129000Y20821000D02*
X53129000Y10421000D01*
X53129000Y10421000D02*
X57869000Y10421000D01*
X57869000Y10421000D02*
X57869000Y20821000D01*
X57869000Y20821000D02*
X56499000Y20821000D01*
X50299000Y20821000D02*
X50299000Y10421000D01*
X50299000Y10421000D02*
X60699000Y10421000D01*
X60699000Y10421000D02*
X60699000Y20821000D01*
X60699000Y20821000D02*
X50299000Y20821000D01*
X56499000Y20821000D02*
G75*
G02X54499000Y20821000I-1000000J0D01*
G01*
X27759000Y8041000D02*
X14659000Y8041000D01*
X27759000Y8001000D02*
X14659000Y8001000D01*
X27759000Y7961000D02*
X14659000Y7961000D01*
X27758000Y7921000D02*
X14660000Y7921000D01*
X27758000Y7881000D02*
X14660000Y7881000D01*
X27756000Y7841000D02*
X14662000Y7841000D01*
X27755000Y7801000D02*
X14663000Y7801000D01*
X27754000Y7761000D02*
X14664000Y7761000D01*
X27752000Y7721000D02*
X14666000Y7721000D01*
X27750000Y7681000D02*
X14668000Y7681000D01*
X27747000Y7641000D02*
X14671000Y7641000D01*
X27745000Y7601000D02*
X14673000Y7601000D01*
X27742000Y7561000D02*
X14676000Y7561000D01*
X27739000Y7521000D02*
X14679000Y7521000D01*
X27736000Y7481000D02*
X14682000Y7481000D01*
X27732000Y7441000D02*
X14686000Y7441000D01*
X27728000Y7401000D02*
X14690000Y7401000D01*
X27724000Y7361000D02*
X14694000Y7361000D01*
X27720000Y7320000D02*
X14698000Y7320000D01*
X27716000Y7280000D02*
X14702000Y7280000D01*
X27711000Y7240000D02*
X14707000Y7240000D01*
X27706000Y7200000D02*
X14712000Y7200000D01*
X27700000Y7160000D02*
X14718000Y7160000D01*
X27695000Y7120000D02*
X14723000Y7120000D01*
X27689000Y7080000D02*
X14729000Y7080000D01*
X27683000Y7040000D02*
X14735000Y7040000D01*
X27677000Y7000000D02*
X14741000Y7000000D01*
X27670000Y6960000D02*
X14748000Y6960000D01*
X27664000Y6920000D02*
X22589000Y6920000D01*
X19829000Y6920000D02*
X14754000Y6920000D01*
X27657000Y6880000D02*
X22589000Y6880000D01*
X19829000Y6880000D02*
X14761000Y6880000D01*
X27649000Y6840000D02*
X22589000Y6840000D01*
X19829000Y6840000D02*
X14769000Y6840000D01*
X27642000Y6800000D02*
X22589000Y6800000D01*
X19829000Y6800000D02*
X14776000Y6800000D01*
X27634000Y6760000D02*
X22589000Y6760000D01*
X19829000Y6760000D02*
X14784000Y6760000D01*
X27626000Y6720000D02*
X22589000Y6720000D01*
X19829000Y6720000D02*
X14792000Y6720000D01*
X27618000Y6680000D02*
X22589000Y6680000D01*
X19829000Y6680000D02*
X14800000Y6680000D01*
X27609000Y6640000D02*
X22589000Y6640000D01*
X19829000Y6640000D02*
X14809000Y6640000D01*
X27600000Y6600000D02*
X22589000Y6600000D01*
X19829000Y6600000D02*
X14818000Y6600000D01*
X27591000Y6560000D02*
X22589000Y6560000D01*
X19829000Y6560000D02*
X14827000Y6560000D01*
X27582000Y6520000D02*
X22589000Y6520000D01*
X19829000Y6520000D02*
X14836000Y6520000D01*
X27572000Y6480000D02*
X22589000Y6480000D01*
X19829000Y6480000D02*
X14846000Y6480000D01*
X27562000Y6440000D02*
X22589000Y6440000D01*
X19829000Y6440000D02*
X14856000Y6440000D01*
X27552000Y6400000D02*
X22589000Y6400000D01*
X19829000Y6400000D02*
X14866000Y6400000D01*
X27542000Y6360000D02*
X22589000Y6360000D01*
X19829000Y6360000D02*
X14876000Y6360000D01*
X27531000Y6320000D02*
X22589000Y6320000D01*
X19829000Y6320000D02*
X14887000Y6320000D01*
X27520000Y6280000D02*
X22589000Y6280000D01*
X19829000Y6280000D02*
X14898000Y6280000D01*
X27509000Y6240000D02*
X22589000Y6240000D01*
X19829000Y6240000D02*
X14909000Y6240000D01*
X27497000Y6200000D02*
X22589000Y6200000D01*
X19829000Y6200000D02*
X14921000Y6200000D01*
X27486000Y6160000D02*
X22589000Y6160000D01*
X19829000Y6160000D02*
X14932000Y6160000D01*
X27474000Y6120000D02*
X22589000Y6120000D01*
X19829000Y6120000D02*
X14944000Y6120000D01*
X27461000Y6080000D02*
X22589000Y6080000D01*
X19829000Y6080000D02*
X14957000Y6080000D01*
X27449000Y6040000D02*
X22589000Y6040000D01*
X19829000Y6040000D02*
X14969000Y6040000D01*
X27436000Y6000000D02*
X22589000Y6000000D01*
X19829000Y6000000D02*
X14982000Y6000000D01*
X27423000Y5960000D02*
X22589000Y5960000D01*
X19829000Y5960000D02*
X14995000Y5960000D01*
X27409000Y5920000D02*
X22589000Y5920000D01*
X19829000Y5920000D02*
X15009000Y5920000D01*
X27395000Y5880000D02*
X22589000Y5880000D01*
X19829000Y5880000D02*
X15023000Y5880000D01*
X27381000Y5840000D02*
X22589000Y5840000D01*
X19829000Y5840000D02*
X15037000Y5840000D01*
X27367000Y5800000D02*
X22589000Y5800000D01*
X19829000Y5800000D02*
X15051000Y5800000D01*
X27353000Y5760000D02*
X22589000Y5760000D01*
X19829000Y5760000D02*
X15065000Y5760000D01*
X27338000Y5720000D02*
X22589000Y5720000D01*
X19829000Y5720000D02*
X15080000Y5720000D01*
X27322000Y5680000D02*
X22589000Y5680000D01*
X19829000Y5680000D02*
X15096000Y5680000D01*
X27307000Y5640000D02*
X22589000Y5640000D01*
X19829000Y5640000D02*
X15111000Y5640000D01*
X27291000Y5600000D02*
X22589000Y5600000D01*
X19829000Y5600000D02*
X15127000Y5600000D01*
X27275000Y5560000D02*
X22589000Y5560000D01*
X19829000Y5560000D02*
X15143000Y5560000D01*
X27259000Y5520000D02*
X22589000Y5520000D01*
X19829000Y5520000D02*
X15159000Y5520000D01*
X27242000Y5480000D02*
X22589000Y5480000D01*
X19829000Y5480000D02*
X15176000Y5480000D01*
X27225000Y5440000D02*
X22589000Y5440000D01*
X19829000Y5440000D02*
X15193000Y5440000D01*
X27208000Y5400000D02*
X22589000Y5400000D01*
X19829000Y5400000D02*
X15210000Y5400000D01*
X27190000Y5360000D02*
X22589000Y5360000D01*
X19829000Y5360000D02*
X15228000Y5360000D01*
X27172000Y5320000D02*
X22589000Y5320000D01*
X19829000Y5320000D02*
X15246000Y5320000D01*
X27154000Y5280000D02*
X22589000Y5280000D01*
X19829000Y5280000D02*
X15264000Y5280000D01*
X27135000Y5240000D02*
X22589000Y5240000D01*
X19829000Y5240000D02*
X15283000Y5240000D01*
X27116000Y5200000D02*
X22589000Y5200000D01*
X19829000Y5200000D02*
X15302000Y5200000D01*
X27097000Y5160000D02*
X22589000Y5160000D01*
X19829000Y5160000D02*
X15321000Y5160000D01*
X27077000Y5120000D02*
X22589000Y5120000D01*
X19829000Y5120000D02*
X15341000Y5120000D01*
X27057000Y5080000D02*
X22589000Y5080000D01*
X19829000Y5080000D02*
X15361000Y5080000D01*
X27037000Y5040000D02*
X22589000Y5040000D01*
X19829000Y5040000D02*
X15381000Y5040000D01*
X27016000Y5000000D02*
X22589000Y5000000D01*
X19829000Y5000000D02*
X15402000Y5000000D01*
X26995000Y4960000D02*
X22589000Y4960000D01*
X19829000Y4960000D02*
X15423000Y4960000D01*
X26974000Y4920000D02*
X22589000Y4920000D01*
X19829000Y4920000D02*
X15444000Y4920000D01*
X26952000Y4880000D02*
X22589000Y4880000D01*
X19829000Y4880000D02*
X15466000Y4880000D01*
X26930000Y4840000D02*
X22589000Y4840000D01*
X19829000Y4840000D02*
X15488000Y4840000D01*
X26908000Y4800000D02*
X22589000Y4800000D01*
X19829000Y4800000D02*
X15510000Y4800000D01*
X26885000Y4760000D02*
X22589000Y4760000D01*
X19829000Y4760000D02*
X15533000Y4760000D01*
X26862000Y4720000D02*
X22589000Y4720000D01*
X19829000Y4720000D02*
X15556000Y4720000D01*
X26839000Y4680000D02*
X22589000Y4680000D01*
X19829000Y4680000D02*
X15579000Y4680000D01*
X26815000Y4640000D02*
X22589000Y4640000D01*
X19829000Y4640000D02*
X15603000Y4640000D01*
X26790000Y4600000D02*
X22589000Y4600000D01*
X19829000Y4600000D02*
X15628000Y4600000D01*
X26766000Y4560000D02*
X22589000Y4560000D01*
X19829000Y4560000D02*
X15652000Y4560000D01*
X26741000Y4520000D02*
X22589000Y4520000D01*
X19829000Y4520000D02*
X15677000Y4520000D01*
X26715000Y4480000D02*
X22589000Y4480000D01*
X19829000Y4480000D02*
X15703000Y4480000D01*
X26689000Y4440000D02*
X22589000Y4440000D01*
X19829000Y4440000D02*
X15729000Y4440000D01*
X26663000Y4400000D02*
X22589000Y4400000D01*
X19829000Y4400000D02*
X15755000Y4400000D01*
X26636000Y4360000D02*
X22589000Y4360000D01*
X19829000Y4360000D02*
X15782000Y4360000D01*
X26609000Y4320000D02*
X22589000Y4320000D01*
X19829000Y4320000D02*
X15809000Y4320000D01*
X26582000Y4280000D02*
X22589000Y4280000D01*
X19829000Y4280000D02*
X15836000Y4280000D01*
X26554000Y4240000D02*
X22589000Y4240000D01*
X19829000Y4240000D02*
X15864000Y4240000D01*
X26525000Y4200000D02*
X22589000Y4200000D01*
X19829000Y4200000D02*
X15893000Y4200000D01*
X26496000Y4160000D02*
X15922000Y4160000D01*
X26467000Y4120000D02*
X15951000Y4120000D01*
X26437000Y4080000D02*
X15981000Y4080000D01*
X26407000Y4040000D02*
X16011000Y4040000D01*
X26376000Y4000000D02*
X16042000Y4000000D01*
X26345000Y3960000D02*
X16073000Y3960000D01*
X26313000Y3920000D02*
X16105000Y3920000D01*
X26281000Y3880000D02*
X16137000Y3880000D01*
X26248000Y3840000D02*
X16170000Y3840000D01*
X26214000Y3800000D02*
X16204000Y3800000D01*
X26180000Y3760000D02*
X16238000Y3760000D01*
X26146000Y3720000D02*
X16272000Y3720000D01*
X26111000Y3680000D02*
X16307000Y3680000D01*
X26075000Y3640000D02*
X16343000Y3640000D01*
X26039000Y3600000D02*
X16379000Y3600000D01*
X26002000Y3560000D02*
X16416000Y3560000D01*
X25965000Y3520000D02*
X16453000Y3520000D01*
X25927000Y3480000D02*
X16491000Y3480000D01*
X25888000Y3440000D02*
X16530000Y3440000D01*
X25849000Y3400000D02*
X16569000Y3400000D01*
X25809000Y3360000D02*
X16609000Y3360000D01*
X25768000Y3320000D02*
X16650000Y3320000D01*
X25727000Y3280000D02*
X16691000Y3280000D01*
X25685000Y3240000D02*
X16733000Y3240000D01*
X25642000Y3200000D02*
X16776000Y3200000D01*
X25598000Y3160000D02*
X16820000Y3160000D01*
X25554000Y3120000D02*
X16864000Y3120000D01*
X25508000Y3080000D02*
X16910000Y3080000D01*
X25462000Y3040000D02*
X16956000Y3040000D01*
X25415000Y3000000D02*
X17003000Y3000000D01*
X25367000Y2960000D02*
X17051000Y2960000D01*
X25318000Y2920000D02*
X17100000Y2920000D01*
X25269000Y2880000D02*
X17149000Y2880000D01*
X25218000Y2840000D02*
X17200000Y2840000D01*
X25166000Y2800000D02*
X17252000Y2800000D01*
X25113000Y2760000D02*
X17305000Y2760000D01*
X25059000Y2720000D02*
X17359000Y2720000D01*
X25003000Y2680000D02*
X17415000Y2680000D01*
X24947000Y2640000D02*
X17471000Y2640000D01*
X24889000Y2600000D02*
X17529000Y2600000D01*
X24830000Y2560000D02*
X17588000Y2560000D01*
X24769000Y2520000D02*
X17649000Y2520000D01*
X24707000Y2480000D02*
X17711000Y2480000D01*
X24643000Y2440000D02*
X17775000Y2440000D01*
X24578000Y2400000D02*
X17840000Y2400000D01*
X24511000Y2360000D02*
X17907000Y2360000D01*
X24442000Y2320000D02*
X17976000Y2320000D01*
X24371000Y2280000D02*
X18047000Y2280000D01*
X24298000Y2240000D02*
X18120000Y2240000D01*
X24223000Y2200000D02*
X18195000Y2200000D01*
X24145000Y2160000D02*
X18273000Y2160000D01*
X24065000Y2120000D02*
X18353000Y2120000D01*
X23981000Y2080000D02*
X18437000Y2080000D01*
X23895000Y2040000D02*
X18523000Y2040000D01*
X23805000Y2000000D02*
X18613000Y2000000D01*
X23711000Y1960000D02*
X18707000Y1960000D01*
X23614000Y1920000D02*
X18804000Y1920000D01*
X23511000Y1880000D02*
X18907000Y1880000D01*
X23403000Y1840000D02*
X19015000Y1840000D01*
X23289000Y1800000D02*
X19129000Y1800000D01*
X23167000Y1760000D02*
X19251000Y1760000D01*
X23037000Y1720000D02*
X19381000Y1720000D01*
X22895000Y1680000D02*
X19523000Y1680000D01*
X22741000Y1640000D02*
X19677000Y1640000D01*
X22568000Y1600000D02*
X19850000Y1600000D01*
X22369000Y1560000D02*
X20049000Y1560000D01*
X22127000Y1520000D02*
X20291000Y1520000D01*
X21798000Y1480000D02*
X20620000Y1480000D01*
X21209000Y13741000D02*
X21209000Y11941000D01*
X22109000Y12841000D02*
X20309000Y12841000D01*
X27799000Y8041000D02*
G75*
G03X27799000Y8041000I-6590000J0D01*
G01*
X54086000Y27309000D02*
X52086000Y27309000D01*
X52086000Y25269000D02*
X54086000Y25269000D01*
X54086000Y53217000D02*
X52086000Y53217000D01*
X52086000Y51177000D02*
X54086000Y51177000D01*
X15942000Y76514000D02*
X15942000Y73854000D01*
X28702000Y76514000D02*
X15942000Y76514000D01*
X28702000Y73854000D02*
X15942000Y73854000D01*
X28702000Y76514000D02*
X28702000Y73854000D01*
X29972000Y76514000D02*
X31302000Y76514000D01*
X31302000Y76514000D02*
X31302000Y75184000D01*
X15942000Y72958000D02*
X15942000Y70298000D01*
X28702000Y72958000D02*
X15942000Y72958000D01*
X28702000Y70298000D02*
X15942000Y70298000D01*
X28702000Y72958000D02*
X28702000Y70298000D01*
X29972000Y72958000D02*
X31302000Y72958000D01*
X31302000Y72958000D02*
X31302000Y71628000D01*
X3115000Y48955000D02*
X3115000Y46295000D01*
X5715000Y48955000D02*
X3115000Y48955000D01*
X5715000Y46295000D02*
X3115000Y46295000D01*
X5715000Y48955000D02*
X5715000Y46295000D01*
X6985000Y48955000D02*
X8315000Y48955000D01*
X8315000Y48955000D02*
X8315000Y47625000D01*
D11*
X80264000Y60706000D02*
X73279000Y60706000D01*
X73279000Y60706000D02*
X73279000Y54991000D01*
X73279000Y54991000D02*
X80264000Y54991000D01*
X80264000Y54991000D02*
X80264000Y60706000D01*
D14*
X72494000Y61142000D02*
X72494000Y54401000D01*
X69954000Y61142000D02*
X69954000Y54401000D01*
X72494000Y61142000D02*
X69954000Y61142000D01*
X72494000Y54401000D02*
X69954000Y54401000D01*
X71755000Y61142000D02*
X71755000Y60921000D01*
X71755000Y59221000D02*
X71755000Y58609000D01*
X71755000Y56932000D02*
X71755000Y56309000D01*
X71755000Y54632000D02*
X71755000Y54401000D01*
X46973000Y51119000D02*
X46973000Y49219000D01*
X49293000Y49719000D02*
X49293000Y51119000D01*
X47100000Y25084000D02*
X47100000Y23184000D01*
X49420000Y23684000D02*
X49420000Y25084000D01*
X41729000Y8041000D02*
X28629000Y8041000D01*
X41729000Y8001000D02*
X28629000Y8001000D01*
X41729000Y7961000D02*
X28629000Y7961000D01*
X41728000Y7921000D02*
X28630000Y7921000D01*
X41728000Y7881000D02*
X28630000Y7881000D01*
X41726000Y7841000D02*
X28632000Y7841000D01*
X41725000Y7801000D02*
X28633000Y7801000D01*
X41724000Y7761000D02*
X28634000Y7761000D01*
X41722000Y7721000D02*
X28636000Y7721000D01*
X41720000Y7681000D02*
X28638000Y7681000D01*
X41717000Y7641000D02*
X28641000Y7641000D01*
X41715000Y7601000D02*
X28643000Y7601000D01*
X41712000Y7561000D02*
X28646000Y7561000D01*
X41709000Y7521000D02*
X28649000Y7521000D01*
X41706000Y7481000D02*
X28652000Y7481000D01*
X41702000Y7441000D02*
X28656000Y7441000D01*
X41698000Y7401000D02*
X28660000Y7401000D01*
X41694000Y7361000D02*
X28664000Y7361000D01*
X41690000Y7320000D02*
X28668000Y7320000D01*
X41686000Y7280000D02*
X28672000Y7280000D01*
X41681000Y7240000D02*
X28677000Y7240000D01*
X41676000Y7200000D02*
X28682000Y7200000D01*
X41670000Y7160000D02*
X28688000Y7160000D01*
X41665000Y7120000D02*
X28693000Y7120000D01*
X41659000Y7080000D02*
X28699000Y7080000D01*
X41653000Y7040000D02*
X28705000Y7040000D01*
X41647000Y7000000D02*
X28711000Y7000000D01*
X41640000Y6960000D02*
X28718000Y6960000D01*
X41634000Y6920000D02*
X36559000Y6920000D01*
X33799000Y6920000D02*
X28724000Y6920000D01*
X41627000Y6880000D02*
X36559000Y6880000D01*
X33799000Y6880000D02*
X28731000Y6880000D01*
X41619000Y6840000D02*
X36559000Y6840000D01*
X33799000Y6840000D02*
X28739000Y6840000D01*
X41612000Y6800000D02*
X36559000Y6800000D01*
X33799000Y6800000D02*
X28746000Y6800000D01*
X41604000Y6760000D02*
X36559000Y6760000D01*
X33799000Y6760000D02*
X28754000Y6760000D01*
X41596000Y6720000D02*
X36559000Y6720000D01*
X33799000Y6720000D02*
X28762000Y6720000D01*
X41588000Y6680000D02*
X36559000Y6680000D01*
X33799000Y6680000D02*
X28770000Y6680000D01*
X41579000Y6640000D02*
X36559000Y6640000D01*
X33799000Y6640000D02*
X28779000Y6640000D01*
X41570000Y6600000D02*
X36559000Y6600000D01*
X33799000Y6600000D02*
X28788000Y6600000D01*
X41561000Y6560000D02*
X36559000Y6560000D01*
X33799000Y6560000D02*
X28797000Y6560000D01*
X41552000Y6520000D02*
X36559000Y6520000D01*
X33799000Y6520000D02*
X28806000Y6520000D01*
X41542000Y6480000D02*
X36559000Y6480000D01*
X33799000Y6480000D02*
X28816000Y6480000D01*
X41532000Y6440000D02*
X36559000Y6440000D01*
X33799000Y6440000D02*
X28826000Y6440000D01*
X41522000Y6400000D02*
X36559000Y6400000D01*
X33799000Y6400000D02*
X28836000Y6400000D01*
X41512000Y6360000D02*
X36559000Y6360000D01*
X33799000Y6360000D02*
X28846000Y6360000D01*
X41501000Y6320000D02*
X36559000Y6320000D01*
X33799000Y6320000D02*
X28857000Y6320000D01*
X41490000Y6280000D02*
X36559000Y6280000D01*
X33799000Y6280000D02*
X28868000Y6280000D01*
X41479000Y6240000D02*
X36559000Y6240000D01*
X33799000Y6240000D02*
X28879000Y6240000D01*
X41467000Y6200000D02*
X36559000Y6200000D01*
X33799000Y6200000D02*
X28891000Y6200000D01*
X41456000Y6160000D02*
X36559000Y6160000D01*
X33799000Y6160000D02*
X28902000Y6160000D01*
X41444000Y6120000D02*
X36559000Y6120000D01*
X33799000Y6120000D02*
X28914000Y6120000D01*
X41431000Y6080000D02*
X36559000Y6080000D01*
X33799000Y6080000D02*
X28927000Y6080000D01*
X41419000Y6040000D02*
X36559000Y6040000D01*
X33799000Y6040000D02*
X28939000Y6040000D01*
X41406000Y6000000D02*
X36559000Y6000000D01*
X33799000Y6000000D02*
X28952000Y6000000D01*
X41393000Y5960000D02*
X36559000Y5960000D01*
X33799000Y5960000D02*
X28965000Y5960000D01*
X41379000Y5920000D02*
X36559000Y5920000D01*
X33799000Y5920000D02*
X28979000Y5920000D01*
X41365000Y5880000D02*
X36559000Y5880000D01*
X33799000Y5880000D02*
X28993000Y5880000D01*
X41351000Y5840000D02*
X36559000Y5840000D01*
X33799000Y5840000D02*
X29007000Y5840000D01*
X41337000Y5800000D02*
X36559000Y5800000D01*
X33799000Y5800000D02*
X29021000Y5800000D01*
X41323000Y5760000D02*
X36559000Y5760000D01*
X33799000Y5760000D02*
X29035000Y5760000D01*
X41308000Y5720000D02*
X36559000Y5720000D01*
X33799000Y5720000D02*
X29050000Y5720000D01*
X41292000Y5680000D02*
X36559000Y5680000D01*
X33799000Y5680000D02*
X29066000Y5680000D01*
X41277000Y5640000D02*
X36559000Y5640000D01*
X33799000Y5640000D02*
X29081000Y5640000D01*
X41261000Y5600000D02*
X36559000Y5600000D01*
X33799000Y5600000D02*
X29097000Y5600000D01*
X41245000Y5560000D02*
X36559000Y5560000D01*
X33799000Y5560000D02*
X29113000Y5560000D01*
X41229000Y5520000D02*
X36559000Y5520000D01*
X33799000Y5520000D02*
X29129000Y5520000D01*
X41212000Y5480000D02*
X36559000Y5480000D01*
X33799000Y5480000D02*
X29146000Y5480000D01*
X41195000Y5440000D02*
X36559000Y5440000D01*
X33799000Y5440000D02*
X29163000Y5440000D01*
X41178000Y5400000D02*
X36559000Y5400000D01*
X33799000Y5400000D02*
X29180000Y5400000D01*
X41160000Y5360000D02*
X36559000Y5360000D01*
X33799000Y5360000D02*
X29198000Y5360000D01*
X41142000Y5320000D02*
X36559000Y5320000D01*
X33799000Y5320000D02*
X29216000Y5320000D01*
X41124000Y5280000D02*
X36559000Y5280000D01*
X33799000Y5280000D02*
X29234000Y5280000D01*
X41105000Y5240000D02*
X36559000Y5240000D01*
X33799000Y5240000D02*
X29253000Y5240000D01*
X41086000Y5200000D02*
X36559000Y5200000D01*
X33799000Y5200000D02*
X29272000Y5200000D01*
X41067000Y5160000D02*
X36559000Y5160000D01*
X33799000Y5160000D02*
X29291000Y5160000D01*
X41047000Y5120000D02*
X36559000Y5120000D01*
X33799000Y5120000D02*
X29311000Y5120000D01*
X41027000Y5080000D02*
X36559000Y5080000D01*
X33799000Y5080000D02*
X29331000Y5080000D01*
X41007000Y5040000D02*
X36559000Y5040000D01*
X33799000Y5040000D02*
X29351000Y5040000D01*
X40986000Y5000000D02*
X36559000Y5000000D01*
X33799000Y5000000D02*
X29372000Y5000000D01*
X40965000Y4960000D02*
X36559000Y4960000D01*
X33799000Y4960000D02*
X29393000Y4960000D01*
X40944000Y4920000D02*
X36559000Y4920000D01*
X33799000Y4920000D02*
X29414000Y4920000D01*
X40922000Y4880000D02*
X36559000Y4880000D01*
X33799000Y4880000D02*
X29436000Y4880000D01*
X40900000Y4840000D02*
X36559000Y4840000D01*
X33799000Y4840000D02*
X29458000Y4840000D01*
X40878000Y4800000D02*
X36559000Y4800000D01*
X33799000Y4800000D02*
X29480000Y4800000D01*
X40855000Y4760000D02*
X36559000Y4760000D01*
X33799000Y4760000D02*
X29503000Y4760000D01*
X40832000Y4720000D02*
X36559000Y4720000D01*
X33799000Y4720000D02*
X29526000Y4720000D01*
X40809000Y4680000D02*
X36559000Y4680000D01*
X33799000Y4680000D02*
X29549000Y4680000D01*
X40785000Y4640000D02*
X36559000Y4640000D01*
X33799000Y4640000D02*
X29573000Y4640000D01*
X40760000Y4600000D02*
X36559000Y4600000D01*
X33799000Y4600000D02*
X29598000Y4600000D01*
X40736000Y4560000D02*
X36559000Y4560000D01*
X33799000Y4560000D02*
X29622000Y4560000D01*
X40711000Y4520000D02*
X36559000Y4520000D01*
X33799000Y4520000D02*
X29647000Y4520000D01*
X40685000Y4480000D02*
X36559000Y4480000D01*
X33799000Y4480000D02*
X29673000Y4480000D01*
X40659000Y4440000D02*
X36559000Y4440000D01*
X33799000Y4440000D02*
X29699000Y4440000D01*
X40633000Y4400000D02*
X36559000Y4400000D01*
X33799000Y4400000D02*
X29725000Y4400000D01*
X40606000Y4360000D02*
X36559000Y4360000D01*
X33799000Y4360000D02*
X29752000Y4360000D01*
X40579000Y4320000D02*
X36559000Y4320000D01*
X33799000Y4320000D02*
X29779000Y4320000D01*
X40552000Y4280000D02*
X36559000Y4280000D01*
X33799000Y4280000D02*
X29806000Y4280000D01*
X40524000Y4240000D02*
X36559000Y4240000D01*
X33799000Y4240000D02*
X29834000Y4240000D01*
X40495000Y4200000D02*
X36559000Y4200000D01*
X33799000Y4200000D02*
X29863000Y4200000D01*
X40466000Y4160000D02*
X29892000Y4160000D01*
X40437000Y4120000D02*
X29921000Y4120000D01*
X40407000Y4080000D02*
X29951000Y4080000D01*
X40377000Y4040000D02*
X29981000Y4040000D01*
X40346000Y4000000D02*
X30012000Y4000000D01*
X40315000Y3960000D02*
X30043000Y3960000D01*
X40283000Y3920000D02*
X30075000Y3920000D01*
X40251000Y3880000D02*
X30107000Y3880000D01*
X40218000Y3840000D02*
X30140000Y3840000D01*
X40184000Y3800000D02*
X30174000Y3800000D01*
X40150000Y3760000D02*
X30208000Y3760000D01*
X40116000Y3720000D02*
X30242000Y3720000D01*
X40081000Y3680000D02*
X30277000Y3680000D01*
X40045000Y3640000D02*
X30313000Y3640000D01*
X40009000Y3600000D02*
X30349000Y3600000D01*
X39972000Y3560000D02*
X30386000Y3560000D01*
X39935000Y3520000D02*
X30423000Y3520000D01*
X39897000Y3480000D02*
X30461000Y3480000D01*
X39858000Y3440000D02*
X30500000Y3440000D01*
X39819000Y3400000D02*
X30539000Y3400000D01*
X39779000Y3360000D02*
X30579000Y3360000D01*
X39738000Y3320000D02*
X30620000Y3320000D01*
X39697000Y3280000D02*
X30661000Y3280000D01*
X39655000Y3240000D02*
X30703000Y3240000D01*
X39612000Y3200000D02*
X30746000Y3200000D01*
X39568000Y3160000D02*
X30790000Y3160000D01*
X39524000Y3120000D02*
X30834000Y3120000D01*
X39478000Y3080000D02*
X30880000Y3080000D01*
X39432000Y3040000D02*
X30926000Y3040000D01*
X39385000Y3000000D02*
X30973000Y3000000D01*
X39337000Y2960000D02*
X31021000Y2960000D01*
X39288000Y2920000D02*
X31070000Y2920000D01*
X39239000Y2880000D02*
X31119000Y2880000D01*
X39188000Y2840000D02*
X31170000Y2840000D01*
X39136000Y2800000D02*
X31222000Y2800000D01*
X39083000Y2760000D02*
X31275000Y2760000D01*
X39029000Y2720000D02*
X31329000Y2720000D01*
X38973000Y2680000D02*
X31385000Y2680000D01*
X38917000Y2640000D02*
X31441000Y2640000D01*
X38859000Y2600000D02*
X31499000Y2600000D01*
X38800000Y2560000D02*
X31558000Y2560000D01*
X38739000Y2520000D02*
X31619000Y2520000D01*
X38677000Y2480000D02*
X31681000Y2480000D01*
X38613000Y2440000D02*
X31745000Y2440000D01*
X38548000Y2400000D02*
X31810000Y2400000D01*
X38481000Y2360000D02*
X31877000Y2360000D01*
X38412000Y2320000D02*
X31946000Y2320000D01*
X38341000Y2280000D02*
X32017000Y2280000D01*
X38268000Y2240000D02*
X32090000Y2240000D01*
X38193000Y2200000D02*
X32165000Y2200000D01*
X38115000Y2160000D02*
X32243000Y2160000D01*
X38035000Y2120000D02*
X32323000Y2120000D01*
X37951000Y2080000D02*
X32407000Y2080000D01*
X37865000Y2040000D02*
X32493000Y2040000D01*
X37775000Y2000000D02*
X32583000Y2000000D01*
X37681000Y1960000D02*
X32677000Y1960000D01*
X37584000Y1920000D02*
X32774000Y1920000D01*
X37481000Y1880000D02*
X32877000Y1880000D01*
X37373000Y1840000D02*
X32985000Y1840000D01*
X37259000Y1800000D02*
X33099000Y1800000D01*
X37137000Y1760000D02*
X33221000Y1760000D01*
X37007000Y1720000D02*
X33351000Y1720000D01*
X36865000Y1680000D02*
X33493000Y1680000D01*
X36711000Y1640000D02*
X33647000Y1640000D01*
X36538000Y1600000D02*
X33820000Y1600000D01*
X36339000Y1560000D02*
X34019000Y1560000D01*
X36097000Y1520000D02*
X34261000Y1520000D01*
X35768000Y1480000D02*
X34590000Y1480000D01*
X35179000Y13741000D02*
X35179000Y11941000D01*
X36079000Y12841000D02*
X34279000Y12841000D01*
X41769000Y8041000D02*
G75*
G03X41769000Y8041000I-6590000J0D01*
G01*
X14919000Y73981000D02*
X14919000Y76641000D01*
X9779000Y73981000D02*
X14919000Y73981000D01*
X9779000Y76641000D02*
X14919000Y76641000D01*
X9779000Y73981000D02*
X9779000Y76641000D01*
X8509000Y73981000D02*
X7179000Y73981000D01*
X7179000Y73981000D02*
X7179000Y75311000D01*
X7604000Y63758000D02*
X5604000Y63758000D01*
X5604000Y61718000D02*
X7604000Y61718000D01*
X11426000Y35798000D02*
X11426000Y33798000D01*
X13466000Y33798000D02*
X13466000Y35798000D01*
X31429000Y43501000D02*
X31429000Y46161000D01*
X18669000Y43501000D02*
X31429000Y43501000D01*
X18669000Y46161000D02*
X31429000Y46161000D01*
X18669000Y43501000D02*
X18669000Y46161000D01*
X17399000Y43501000D02*
X16069000Y43501000D01*
X16069000Y43501000D02*
X16069000Y44831000D01*
X26349000Y39691000D02*
X26349000Y42351000D01*
X18669000Y39691000D02*
X26349000Y39691000D01*
X18669000Y42351000D02*
X26349000Y42351000D01*
X18669000Y39691000D02*
X18669000Y42351000D01*
X17399000Y39691000D02*
X16069000Y39691000D01*
X16069000Y39691000D02*
X16069000Y41021000D01*
X17072000Y35798000D02*
X17072000Y33798000D01*
X14932000Y33798000D02*
X14932000Y35798000D01*
D11*
X18634000Y32596000D02*
X18684000Y32596000D01*
X18634000Y36746000D02*
X18779000Y36746000D01*
X23784000Y36746000D02*
X23639000Y36746000D01*
X23784000Y32596000D02*
X23639000Y32596000D01*
X18634000Y32596000D02*
X18634000Y36746000D01*
X23784000Y32596000D02*
X23784000Y36746000D01*
X18684000Y32596000D02*
X18684000Y31196000D01*
D14*
X10271000Y70489000D02*
X8271000Y70489000D01*
X8271000Y68449000D02*
X10271000Y68449000D01*
X2607000Y69282000D02*
X5267000Y69282000D01*
X2607000Y74422000D02*
X2607000Y69282000D01*
X5267000Y74422000D02*
X5267000Y69282000D01*
X2607000Y74422000D02*
X5267000Y74422000D01*
X2607000Y75692000D02*
X2607000Y77022000D01*
X2607000Y77022000D02*
X3937000Y77022000D01*
X11541000Y71066000D02*
X9541000Y71066000D01*
X9541000Y73206000D02*
X11541000Y73206000D01*
X43942000Y45718000D02*
X45362000Y45718000D01*
X43182000Y39118000D02*
X45362000Y39118000D01*
X49782000Y39118000D02*
X47602000Y39118000D01*
X49022000Y45718000D02*
X47602000Y45718000D01*
X43182000Y39118000D02*
X43182000Y44958000D01*
X43182000Y44958000D02*
X43942000Y45718000D01*
X49022000Y45718000D02*
X49782000Y44958000D01*
X49782000Y44958000D02*
X49782000Y39118000D01*
X43942000Y19683000D02*
X45362000Y19683000D01*
X43182000Y13083000D02*
X45362000Y13083000D01*
X49782000Y13083000D02*
X47602000Y13083000D01*
X49022000Y19683000D02*
X47602000Y19683000D01*
X43182000Y13083000D02*
X43182000Y18923000D01*
X43182000Y18923000D02*
X43942000Y19683000D01*
X49022000Y19683000D02*
X49782000Y18923000D01*
X49782000Y18923000D02*
X49782000Y13083000D01*
D11*
X42409143Y68286334D02*
X42456762Y68238715D01*
X42504381Y68095858D01*
X42504381Y68000620D01*
X42456762Y67857762D01*
X42361524Y67762524D01*
X42266286Y67714905D01*
X42075810Y67667286D01*
X41932952Y67667286D01*
X41742476Y67714905D01*
X41647238Y67762524D01*
X41552000Y67857762D01*
X41504381Y68000620D01*
X41504381Y68095858D01*
X41552000Y68238715D01*
X41599619Y68286334D01*
X42504381Y69238715D02*
X42504381Y68667286D01*
X42504381Y68953000D02*
X41504381Y68953000D01*
X41647238Y68857762D01*
X41742476Y68762524D01*
X41790095Y68667286D01*
X43643429Y72352048D02*
X43643429Y73113953D01*
X44024381Y72733001D02*
X43262476Y72733001D01*
X8088381Y58420095D02*
X8897905Y58420095D01*
X8993143Y58467714D01*
X9040762Y58515333D01*
X9088381Y58610571D01*
X9088381Y58801048D01*
X9040762Y58896286D01*
X8993143Y58943905D01*
X8897905Y58991524D01*
X8088381Y58991524D01*
X9088381Y59991524D02*
X9088381Y59420095D01*
X9088381Y59705809D02*
X8088381Y59705809D01*
X8231238Y59610571D01*
X8326476Y59515333D01*
X8374095Y59420095D01*
X50800095Y62269619D02*
X50800095Y61460095D01*
X50847714Y61364857D01*
X50895333Y61317238D01*
X50990571Y61269619D01*
X51181048Y61269619D01*
X51276286Y61317238D01*
X51323905Y61364857D01*
X51371524Y61460095D01*
X51371524Y62269619D01*
X51800095Y62174381D02*
X51847714Y62222000D01*
X51942952Y62269619D01*
X52181048Y62269619D01*
X52276286Y62222000D01*
X52323905Y62174381D01*
X52371524Y62079143D01*
X52371524Y61983905D01*
X52323905Y61841048D01*
X51752476Y61269619D01*
X52371524Y61269619D01*
X14426143Y44950143D02*
X14473762Y44902524D01*
X14521381Y44759667D01*
X14521381Y44664429D01*
X14473762Y44521571D01*
X14378524Y44426333D01*
X14283286Y44378714D01*
X14092810Y44331095D01*
X13949952Y44331095D01*
X13759476Y44378714D01*
X13664238Y44426333D01*
X13569000Y44521571D01*
X13521381Y44664429D01*
X13521381Y44759667D01*
X13569000Y44902524D01*
X13616619Y44950143D01*
X14521381Y45902524D02*
X14521381Y45331095D01*
X14521381Y45616809D02*
X13521381Y45616809D01*
X13664238Y45521571D01*
X13759476Y45426333D01*
X13807095Y45331095D01*
X13521381Y46521571D02*
X13521381Y46616810D01*
X13569000Y46712048D01*
X13616619Y46759667D01*
X13711857Y46807286D01*
X13902333Y46854905D01*
X14140429Y46854905D01*
X14330905Y46807286D01*
X14426143Y46759667D01*
X14473762Y46712048D01*
X14521381Y46616810D01*
X14521381Y46521571D01*
X14473762Y46426333D01*
X14426143Y46378714D01*
X14330905Y46331095D01*
X14140429Y46283476D01*
X13902333Y46283476D01*
X13711857Y46331095D01*
X13616619Y46378714D01*
X13569000Y46426333D01*
X13521381Y46521571D01*
X49045905Y74858619D02*
X49045905Y75858619D01*
X49284000Y75858619D01*
X49426858Y75811000D01*
X49522096Y75715762D01*
X49569715Y75620524D01*
X49617334Y75430048D01*
X49617334Y75287190D01*
X49569715Y75096714D01*
X49522096Y75001476D01*
X49426858Y74906238D01*
X49284000Y74858619D01*
X49045905Y74858619D01*
X50569715Y74858619D02*
X49998286Y74858619D01*
X50284000Y74858619D02*
X50284000Y75858619D01*
X50188762Y75715762D01*
X50093524Y75620524D01*
X49998286Y75572905D01*
X58443905Y51363619D02*
X58443905Y52363619D01*
X58682000Y52363619D01*
X58824858Y52316000D01*
X58920096Y52220762D01*
X58967715Y52125524D01*
X59015334Y51935048D01*
X59015334Y51792190D01*
X58967715Y51601714D01*
X58920096Y51506476D01*
X58824858Y51411238D01*
X58682000Y51363619D01*
X58443905Y51363619D01*
X59396286Y52268381D02*
X59443905Y52316000D01*
X59539143Y52363619D01*
X59777239Y52363619D01*
X59872477Y52316000D01*
X59920096Y52268381D01*
X59967715Y52173143D01*
X59967715Y52077905D01*
X59920096Y51935048D01*
X59348667Y51363619D01*
X59967715Y51363619D01*
X58570905Y25328619D02*
X58570905Y26328619D01*
X58809000Y26328619D01*
X58951858Y26281000D01*
X59047096Y26185762D01*
X59094715Y26090524D01*
X59142334Y25900048D01*
X59142334Y25757190D01*
X59094715Y25566714D01*
X59047096Y25471476D01*
X58951858Y25376238D01*
X58809000Y25328619D01*
X58570905Y25328619D01*
X59475667Y26328619D02*
X60094715Y26328619D01*
X59761381Y25947667D01*
X59904239Y25947667D01*
X59999477Y25900048D01*
X60047096Y25852429D01*
X60094715Y25757190D01*
X60094715Y25519095D01*
X60047096Y25423857D01*
X59999477Y25376238D01*
X59904239Y25328619D01*
X59618524Y25328619D01*
X59523286Y25376238D01*
X59475667Y25423857D01*
X9434581Y9344067D02*
X10148867Y9344067D01*
X10291724Y9296447D01*
X10386962Y9201209D01*
X10434581Y9058352D01*
X10434581Y8963114D01*
X10434581Y10344067D02*
X10434581Y9772638D01*
X10434581Y10058352D02*
X9434581Y10058352D01*
X9577438Y9963114D01*
X9672676Y9867876D01*
X9720295Y9772638D01*
X64381143Y73008619D02*
X64047809Y73484810D01*
X63809714Y73008619D02*
X63809714Y74008619D01*
X64190667Y74008619D01*
X64285905Y73961000D01*
X64333524Y73913381D01*
X64381143Y73818143D01*
X64381143Y73675286D01*
X64333524Y73580048D01*
X64285905Y73532429D01*
X64190667Y73484810D01*
X63809714Y73484810D01*
X65333524Y73008619D02*
X64762095Y73008619D01*
X65047809Y73008619D02*
X65047809Y74008619D01*
X64952571Y73865762D01*
X64857333Y73770524D01*
X64762095Y73722905D01*
X65666857Y74008619D02*
X66285905Y74008619D01*
X65952571Y73627667D01*
X66095429Y73627667D01*
X66190667Y73580048D01*
X66238286Y73532429D01*
X66285905Y73437190D01*
X66285905Y73199095D01*
X66238286Y73103857D01*
X66190667Y73056238D01*
X66095429Y73008619D01*
X65809714Y73008619D01*
X65714476Y73056238D01*
X65666857Y73103857D01*
X64381143Y61578619D02*
X64047809Y62054810D01*
X63809714Y61578619D02*
X63809714Y62578619D01*
X64190667Y62578619D01*
X64285905Y62531000D01*
X64333524Y62483381D01*
X64381143Y62388143D01*
X64381143Y62245286D01*
X64333524Y62150048D01*
X64285905Y62102429D01*
X64190667Y62054810D01*
X63809714Y62054810D01*
X65333524Y61578619D02*
X64762095Y61578619D01*
X65047809Y61578619D02*
X65047809Y62578619D01*
X64952571Y62435762D01*
X64857333Y62340524D01*
X64762095Y62292905D01*
X66190667Y62245286D02*
X66190667Y61578619D01*
X65952571Y62626238D02*
X65714476Y61911952D01*
X66333524Y61911952D01*
X64381143Y46973619D02*
X64047809Y47449810D01*
X63809714Y46973619D02*
X63809714Y47973619D01*
X64190667Y47973619D01*
X64285905Y47926000D01*
X64333524Y47878381D01*
X64381143Y47783143D01*
X64381143Y47640286D01*
X64333524Y47545048D01*
X64285905Y47497429D01*
X64190667Y47449810D01*
X63809714Y47449810D01*
X65333524Y46973619D02*
X64762095Y46973619D01*
X65047809Y46973619D02*
X65047809Y47973619D01*
X64952571Y47830762D01*
X64857333Y47735524D01*
X64762095Y47687905D01*
X66238286Y47973619D02*
X65762095Y47973619D01*
X65714476Y47497429D01*
X65762095Y47545048D01*
X65857333Y47592667D01*
X66095429Y47592667D01*
X66190667Y47545048D01*
X66238286Y47497429D01*
X66285905Y47402190D01*
X66285905Y47164095D01*
X66238286Y47068857D01*
X66190667Y47021238D01*
X66095429Y46973619D01*
X65857333Y46973619D01*
X65762095Y47021238D01*
X65714476Y47068857D01*
X64381143Y35543619D02*
X64047809Y36019810D01*
X63809714Y35543619D02*
X63809714Y36543619D01*
X64190667Y36543619D01*
X64285905Y36496000D01*
X64333524Y36448381D01*
X64381143Y36353143D01*
X64381143Y36210286D01*
X64333524Y36115048D01*
X64285905Y36067429D01*
X64190667Y36019810D01*
X63809714Y36019810D01*
X65333524Y35543619D02*
X64762095Y35543619D01*
X65047809Y35543619D02*
X65047809Y36543619D01*
X64952571Y36400762D01*
X64857333Y36305524D01*
X64762095Y36257905D01*
X66190667Y36543619D02*
X66000190Y36543619D01*
X65904952Y36496000D01*
X65857333Y36448381D01*
X65762095Y36305524D01*
X65714476Y36115048D01*
X65714476Y35734095D01*
X65762095Y35638857D01*
X65809714Y35591238D01*
X65904952Y35543619D01*
X66095429Y35543619D01*
X66190667Y35591238D01*
X66238286Y35638857D01*
X66285905Y35734095D01*
X66285905Y35972190D01*
X66238286Y36067429D01*
X66190667Y36115048D01*
X66095429Y36162667D01*
X65904952Y36162667D01*
X65809714Y36115048D01*
X65762095Y36067429D01*
X65714476Y35972190D01*
X64381143Y20938619D02*
X64047809Y21414810D01*
X63809714Y20938619D02*
X63809714Y21938619D01*
X64190667Y21938619D01*
X64285905Y21891000D01*
X64333524Y21843381D01*
X64381143Y21748143D01*
X64381143Y21605286D01*
X64333524Y21510048D01*
X64285905Y21462429D01*
X64190667Y21414810D01*
X63809714Y21414810D01*
X65333524Y20938619D02*
X64762095Y20938619D01*
X65047809Y20938619D02*
X65047809Y21938619D01*
X64952571Y21795762D01*
X64857333Y21700524D01*
X64762095Y21652905D01*
X65666857Y21938619D02*
X66333524Y21938619D01*
X65904952Y20938619D01*
X64381143Y9508619D02*
X64047809Y9984810D01*
X63809714Y9508619D02*
X63809714Y10508619D01*
X64190667Y10508619D01*
X64285905Y10461000D01*
X64333524Y10413381D01*
X64381143Y10318143D01*
X64381143Y10175286D01*
X64333524Y10080048D01*
X64285905Y10032429D01*
X64190667Y9984810D01*
X63809714Y9984810D01*
X65333524Y9508619D02*
X64762095Y9508619D01*
X65047809Y9508619D02*
X65047809Y10508619D01*
X64952571Y10365762D01*
X64857333Y10270524D01*
X64762095Y10222905D01*
X65904952Y10080048D02*
X65809714Y10127667D01*
X65762095Y10175286D01*
X65714476Y10270524D01*
X65714476Y10318143D01*
X65762095Y10413381D01*
X65809714Y10461000D01*
X65904952Y10508619D01*
X66095429Y10508619D01*
X66190667Y10461000D01*
X66238286Y10413381D01*
X66285905Y10318143D01*
X66285905Y10270524D01*
X66238286Y10175286D01*
X66190667Y10127667D01*
X66095429Y10080048D01*
X65904952Y10080048D01*
X65809714Y10032429D01*
X65762095Y9984810D01*
X65714476Y9889571D01*
X65714476Y9699095D01*
X65762095Y9603857D01*
X65809714Y9556238D01*
X65904952Y9508619D01*
X66095429Y9508619D01*
X66190667Y9556238D01*
X66238286Y9603857D01*
X66285905Y9699095D01*
X66285905Y9889571D01*
X66238286Y9984810D01*
X66190667Y10032429D01*
X66095429Y10080048D01*
X64381143Y55863619D02*
X64047809Y56339810D01*
X63809714Y55863619D02*
X63809714Y56863619D01*
X64190667Y56863619D01*
X64285905Y56816000D01*
X64333524Y56768381D01*
X64381143Y56673143D01*
X64381143Y56530286D01*
X64333524Y56435048D01*
X64285905Y56387429D01*
X64190667Y56339810D01*
X63809714Y56339810D01*
X64762095Y56768381D02*
X64809714Y56816000D01*
X64904952Y56863619D01*
X65143048Y56863619D01*
X65238286Y56816000D01*
X65285905Y56768381D01*
X65333524Y56673143D01*
X65333524Y56577905D01*
X65285905Y56435048D01*
X64714476Y55863619D01*
X65333524Y55863619D01*
X66285905Y55863619D02*
X65714476Y55863619D01*
X66000190Y55863619D02*
X66000190Y56863619D01*
X65904952Y56720762D01*
X65809714Y56625524D01*
X65714476Y56577905D01*
X64381143Y29828619D02*
X64047809Y30304810D01*
X63809714Y29828619D02*
X63809714Y30828619D01*
X64190667Y30828619D01*
X64285905Y30781000D01*
X64333524Y30733381D01*
X64381143Y30638143D01*
X64381143Y30495286D01*
X64333524Y30400048D01*
X64285905Y30352429D01*
X64190667Y30304810D01*
X63809714Y30304810D01*
X64762095Y30733381D02*
X64809714Y30781000D01*
X64904952Y30828619D01*
X65143048Y30828619D01*
X65238286Y30781000D01*
X65285905Y30733381D01*
X65333524Y30638143D01*
X65333524Y30542905D01*
X65285905Y30400048D01*
X64714476Y29828619D01*
X65333524Y29828619D01*
X65714476Y30733381D02*
X65762095Y30781000D01*
X65857333Y30828619D01*
X66095429Y30828619D01*
X66190667Y30781000D01*
X66238286Y30733381D01*
X66285905Y30638143D01*
X66285905Y30542905D01*
X66238286Y30400048D01*
X65666857Y29828619D01*
X66285905Y29828619D01*
X84621619Y46640762D02*
X84574000Y46545524D01*
X84478762Y46450286D01*
X84335905Y46307429D01*
X84288286Y46212190D01*
X84288286Y46116952D01*
X84526381Y46164571D02*
X84478762Y46069333D01*
X84383524Y45974095D01*
X84193048Y45926476D01*
X83859714Y45926476D01*
X83669238Y45974095D01*
X83574000Y46069333D01*
X83526381Y46164571D01*
X83526381Y46355048D01*
X83574000Y46450286D01*
X83669238Y46545524D01*
X83859714Y46593143D01*
X84193048Y46593143D01*
X84383524Y46545524D01*
X84478762Y46450286D01*
X84526381Y46355048D01*
X84526381Y46164571D01*
X83526381Y46926476D02*
X83526381Y47545524D01*
X83907333Y47212190D01*
X83907333Y47355048D01*
X83954952Y47450286D01*
X84002571Y47497905D01*
X84097810Y47545524D01*
X84335905Y47545524D01*
X84431143Y47497905D01*
X84478762Y47450286D01*
X84526381Y47355048D01*
X84526381Y47069333D01*
X84478762Y46974095D01*
X84431143Y46926476D01*
X84621619Y72675762D02*
X84574000Y72580524D01*
X84478762Y72485286D01*
X84335905Y72342429D01*
X84288286Y72247190D01*
X84288286Y72151952D01*
X84526381Y72199571D02*
X84478762Y72104333D01*
X84383524Y72009095D01*
X84193048Y71961476D01*
X83859714Y71961476D01*
X83669238Y72009095D01*
X83574000Y72104333D01*
X83526381Y72199571D01*
X83526381Y72390048D01*
X83574000Y72485286D01*
X83669238Y72580524D01*
X83859714Y72628143D01*
X84193048Y72628143D01*
X84383524Y72580524D01*
X84478762Y72485286D01*
X84526381Y72390048D01*
X84526381Y72199571D01*
X84526381Y73580524D02*
X84526381Y73009095D01*
X84526381Y73294809D02*
X83526381Y73294809D01*
X83669238Y73199571D01*
X83764476Y73104333D01*
X83812095Y73009095D01*
X84621619Y31400762D02*
X84574000Y31305524D01*
X84478762Y31210286D01*
X84335905Y31067429D01*
X84288286Y30972190D01*
X84288286Y30876952D01*
X84526381Y30924571D02*
X84478762Y30829333D01*
X84383524Y30734095D01*
X84193048Y30686476D01*
X83859714Y30686476D01*
X83669238Y30734095D01*
X83574000Y30829333D01*
X83526381Y30924571D01*
X83526381Y31115048D01*
X83574000Y31210286D01*
X83669238Y31305524D01*
X83859714Y31353143D01*
X84193048Y31353143D01*
X84383524Y31305524D01*
X84478762Y31210286D01*
X84526381Y31115048D01*
X84526381Y30924571D01*
X83859714Y32210286D02*
X84526381Y32210286D01*
X83478762Y31972190D02*
X84193048Y31734095D01*
X84193048Y32353143D01*
X84621619Y20605762D02*
X84574000Y20510524D01*
X84478762Y20415286D01*
X84335905Y20272429D01*
X84288286Y20177190D01*
X84288286Y20081952D01*
X84526381Y20129571D02*
X84478762Y20034333D01*
X84383524Y19939095D01*
X84193048Y19891476D01*
X83859714Y19891476D01*
X83669238Y19939095D01*
X83574000Y20034333D01*
X83526381Y20129571D01*
X83526381Y20320048D01*
X83574000Y20415286D01*
X83669238Y20510524D01*
X83859714Y20558143D01*
X84193048Y20558143D01*
X84383524Y20510524D01*
X84478762Y20415286D01*
X84526381Y20320048D01*
X84526381Y20129571D01*
X83526381Y21462905D02*
X83526381Y20986714D01*
X84002571Y20939095D01*
X83954952Y20986714D01*
X83907333Y21081952D01*
X83907333Y21320048D01*
X83954952Y21415286D01*
X84002571Y21462905D01*
X84097810Y21510524D01*
X84335905Y21510524D01*
X84431143Y21462905D01*
X84478762Y21415286D01*
X84526381Y21320048D01*
X84526381Y21081952D01*
X84478762Y20986714D01*
X84431143Y20939095D01*
X84621619Y5365762D02*
X84574000Y5270524D01*
X84478762Y5175286D01*
X84335905Y5032429D01*
X84288286Y4937190D01*
X84288286Y4841952D01*
X84526381Y4889571D02*
X84478762Y4794333D01*
X84383524Y4699095D01*
X84193048Y4651476D01*
X83859714Y4651476D01*
X83669238Y4699095D01*
X83574000Y4794333D01*
X83526381Y4889571D01*
X83526381Y5080048D01*
X83574000Y5175286D01*
X83669238Y5270524D01*
X83859714Y5318143D01*
X84193048Y5318143D01*
X84383524Y5270524D01*
X84478762Y5175286D01*
X84526381Y5080048D01*
X84526381Y4889571D01*
X83526381Y6175286D02*
X83526381Y5984809D01*
X83574000Y5889571D01*
X83621619Y5841952D01*
X83764476Y5746714D01*
X83954952Y5699095D01*
X84335905Y5699095D01*
X84431143Y5746714D01*
X84478762Y5794333D01*
X84526381Y5889571D01*
X84526381Y6080048D01*
X84478762Y6175286D01*
X84431143Y6222905D01*
X84335905Y6270524D01*
X84097810Y6270524D01*
X84002571Y6222905D01*
X83954952Y6175286D01*
X83907333Y6080048D01*
X83907333Y5889571D01*
X83954952Y5794333D01*
X84002571Y5746714D01*
X84097810Y5699095D01*
X64381143Y3793619D02*
X64047809Y4269810D01*
X63809714Y3793619D02*
X63809714Y4793619D01*
X64190667Y4793619D01*
X64285905Y4746000D01*
X64333524Y4698381D01*
X64381143Y4603143D01*
X64381143Y4460286D01*
X64333524Y4365048D01*
X64285905Y4317429D01*
X64190667Y4269810D01*
X63809714Y4269810D01*
X64762095Y4698381D02*
X64809714Y4746000D01*
X64904952Y4793619D01*
X65143048Y4793619D01*
X65238286Y4746000D01*
X65285905Y4698381D01*
X65333524Y4603143D01*
X65333524Y4507905D01*
X65285905Y4365048D01*
X64714476Y3793619D01*
X65333524Y3793619D01*
X65666857Y4793619D02*
X66285905Y4793619D01*
X65952571Y4412667D01*
X66095429Y4412667D01*
X66190667Y4365048D01*
X66238286Y4317429D01*
X66285905Y4222190D01*
X66285905Y3984095D01*
X66238286Y3888857D01*
X66190667Y3841238D01*
X66095429Y3793619D01*
X65809714Y3793619D01*
X65714476Y3841238D01*
X65666857Y3888857D01*
X57801381Y59428143D02*
X57325190Y59094809D01*
X57801381Y58856714D02*
X56801381Y58856714D01*
X56801381Y59237667D01*
X56849000Y59332905D01*
X56896619Y59380524D01*
X56991857Y59428143D01*
X57134714Y59428143D01*
X57229952Y59380524D01*
X57277571Y59332905D01*
X57325190Y59237667D01*
X57325190Y58856714D01*
X56896619Y59809095D02*
X56849000Y59856714D01*
X56801381Y59951952D01*
X56801381Y60190048D01*
X56849000Y60285286D01*
X56896619Y60332905D01*
X56991857Y60380524D01*
X57087095Y60380524D01*
X57229952Y60332905D01*
X57801381Y59761476D01*
X57801381Y60380524D01*
X57134714Y61237667D02*
X57801381Y61237667D01*
X56753762Y60999571D02*
X57468048Y60761476D01*
X57468048Y61380524D01*
X57801381Y33393143D02*
X57325190Y33059809D01*
X57801381Y32821714D02*
X56801381Y32821714D01*
X56801381Y33202667D01*
X56849000Y33297905D01*
X56896619Y33345524D01*
X56991857Y33393143D01*
X57134714Y33393143D01*
X57229952Y33345524D01*
X57277571Y33297905D01*
X57325190Y33202667D01*
X57325190Y32821714D01*
X56896619Y33774095D02*
X56849000Y33821714D01*
X56801381Y33916952D01*
X56801381Y34155048D01*
X56849000Y34250286D01*
X56896619Y34297905D01*
X56991857Y34345524D01*
X57087095Y34345524D01*
X57229952Y34297905D01*
X57801381Y33726476D01*
X57801381Y34345524D01*
X56801381Y35250286D02*
X56801381Y34774095D01*
X57277571Y34726476D01*
X57229952Y34774095D01*
X57182333Y34869333D01*
X57182333Y35107429D01*
X57229952Y35202667D01*
X57277571Y35250286D01*
X57372810Y35297905D01*
X57610905Y35297905D01*
X57706143Y35250286D01*
X57753762Y35202667D01*
X57801381Y35107429D01*
X57801381Y34869333D01*
X57753762Y34774095D01*
X57706143Y34726476D01*
X57801381Y7358143D02*
X57325190Y7024809D01*
X57801381Y6786714D02*
X56801381Y6786714D01*
X56801381Y7167667D01*
X56849000Y7262905D01*
X56896619Y7310524D01*
X56991857Y7358143D01*
X57134714Y7358143D01*
X57229952Y7310524D01*
X57277571Y7262905D01*
X57325190Y7167667D01*
X57325190Y6786714D01*
X56896619Y7739095D02*
X56849000Y7786714D01*
X56801381Y7881952D01*
X56801381Y8120048D01*
X56849000Y8215286D01*
X56896619Y8262905D01*
X56991857Y8310524D01*
X57087095Y8310524D01*
X57229952Y8262905D01*
X57801381Y7691476D01*
X57801381Y8310524D01*
X56801381Y9167667D02*
X56801381Y8977190D01*
X56849000Y8881952D01*
X56896619Y8834333D01*
X57039476Y8739095D01*
X57229952Y8691476D01*
X57610905Y8691476D01*
X57706143Y8739095D01*
X57753762Y8786714D01*
X57801381Y8881952D01*
X57801381Y9072429D01*
X57753762Y9167667D01*
X57706143Y9215286D01*
X57610905Y9262905D01*
X57372810Y9262905D01*
X57277571Y9215286D01*
X57229952Y9167667D01*
X57182333Y9072429D01*
X57182333Y8881952D01*
X57229952Y8786714D01*
X57277571Y8739095D01*
X57372810Y8691476D01*
X50927095Y36107619D02*
X50927095Y35298095D01*
X50974714Y35202857D01*
X51022333Y35155238D01*
X51117571Y35107619D01*
X51308048Y35107619D01*
X51403286Y35155238D01*
X51450905Y35202857D01*
X51498524Y35298095D01*
X51498524Y36107619D01*
X51879476Y36107619D02*
X52498524Y36107619D01*
X52165190Y35726667D01*
X52308048Y35726667D01*
X52403286Y35679048D01*
X52450905Y35631429D01*
X52498524Y35536190D01*
X52498524Y35298095D01*
X52450905Y35202857D01*
X52403286Y35155238D01*
X52308048Y35107619D01*
X52022333Y35107619D01*
X51927095Y35155238D01*
X51879476Y35202857D01*
X50927095Y9945619D02*
X50927095Y9136095D01*
X50974714Y9040857D01*
X51022333Y8993238D01*
X51117571Y8945619D01*
X51308048Y8945619D01*
X51403286Y8993238D01*
X51450905Y9040857D01*
X51498524Y9136095D01*
X51498524Y9945619D01*
X52403286Y9612286D02*
X52403286Y8945619D01*
X52165190Y9993238D02*
X51927095Y9278952D01*
X52546143Y9278952D01*
X29126143Y7398143D02*
X29173762Y7350524D01*
X29221381Y7207667D01*
X29221381Y7112429D01*
X29173762Y6969571D01*
X29078524Y6874333D01*
X28983286Y6826714D01*
X28792810Y6779095D01*
X28649952Y6779095D01*
X28459476Y6826714D01*
X28364238Y6874333D01*
X28269000Y6969571D01*
X28221381Y7112429D01*
X28221381Y7207667D01*
X28269000Y7350524D01*
X28316619Y7398143D01*
X29221381Y8350524D02*
X29221381Y7779095D01*
X29221381Y8064809D02*
X28221381Y8064809D01*
X28364238Y7969571D01*
X28459476Y7874333D01*
X28507095Y7779095D01*
X29221381Y9302905D02*
X29221381Y8731476D01*
X29221381Y9017190D02*
X28221381Y9017190D01*
X28364238Y8921952D01*
X28459476Y8826714D01*
X28507095Y8731476D01*
X52443143Y27681857D02*
X52395524Y27634238D01*
X52252667Y27586619D01*
X52157429Y27586619D01*
X52014571Y27634238D01*
X51919333Y27729476D01*
X51871714Y27824714D01*
X51824095Y28015190D01*
X51824095Y28158048D01*
X51871714Y28348524D01*
X51919333Y28443762D01*
X52014571Y28539000D01*
X52157429Y28586619D01*
X52252667Y28586619D01*
X52395524Y28539000D01*
X52443143Y28491381D01*
X53395524Y27586619D02*
X52824095Y27586619D01*
X53109809Y27586619D02*
X53109809Y28586619D01*
X53014571Y28443762D01*
X52919333Y28348524D01*
X52824095Y28300905D01*
X53776476Y28491381D02*
X53824095Y28539000D01*
X53919333Y28586619D01*
X54157429Y28586619D01*
X54252667Y28539000D01*
X54300286Y28491381D01*
X54347905Y28396143D01*
X54347905Y28300905D01*
X54300286Y28158048D01*
X53728857Y27586619D01*
X54347905Y27586619D01*
X52443143Y53589857D02*
X52395524Y53542238D01*
X52252667Y53494619D01*
X52157429Y53494619D01*
X52014571Y53542238D01*
X51919333Y53637476D01*
X51871714Y53732714D01*
X51824095Y53923190D01*
X51824095Y54066048D01*
X51871714Y54256524D01*
X51919333Y54351762D01*
X52014571Y54447000D01*
X52157429Y54494619D01*
X52252667Y54494619D01*
X52395524Y54447000D01*
X52443143Y54399381D01*
X53395524Y53494619D02*
X52824095Y53494619D01*
X53109809Y53494619D02*
X53109809Y54494619D01*
X53014571Y54351762D01*
X52919333Y54256524D01*
X52824095Y54208905D01*
X54252667Y54494619D02*
X54062190Y54494619D01*
X53966952Y54447000D01*
X53919333Y54399381D01*
X53824095Y54256524D01*
X53776476Y54066048D01*
X53776476Y53685095D01*
X53824095Y53589857D01*
X53871714Y53542238D01*
X53966952Y53494619D01*
X54157429Y53494619D01*
X54252667Y53542238D01*
X54300286Y53589857D01*
X54347905Y53685095D01*
X54347905Y53923190D01*
X54300286Y54018429D01*
X54252667Y54066048D01*
X54157429Y54113667D01*
X53966952Y54113667D01*
X53871714Y54066048D01*
X53824095Y54018429D01*
X53776476Y53923190D01*
X31754381Y74850667D02*
X32468667Y74850667D01*
X32611524Y74803047D01*
X32706762Y74707809D01*
X32754381Y74564952D01*
X32754381Y74469714D01*
X31849619Y75279238D02*
X31802000Y75326857D01*
X31754381Y75422095D01*
X31754381Y75660191D01*
X31802000Y75755429D01*
X31849619Y75803048D01*
X31944857Y75850667D01*
X32040095Y75850667D01*
X32182952Y75803048D01*
X32754381Y75231619D01*
X32754381Y75850667D01*
X31754381Y71294667D02*
X32468667Y71294667D01*
X32611524Y71247047D01*
X32706762Y71151809D01*
X32754381Y71008952D01*
X32754381Y70913714D01*
X31754381Y71675619D02*
X31754381Y72294667D01*
X32135333Y71961333D01*
X32135333Y72104191D01*
X32182952Y72199429D01*
X32230571Y72247048D01*
X32325810Y72294667D01*
X32563905Y72294667D01*
X32659143Y72247048D01*
X32706762Y72199429D01*
X32754381Y72104191D01*
X32754381Y71818476D01*
X32706762Y71723238D01*
X32659143Y71675619D01*
X8767381Y46791667D02*
X9481667Y46791667D01*
X9624524Y46744047D01*
X9719762Y46648809D01*
X9767381Y46505952D01*
X9767381Y46410714D01*
X9767381Y47267857D02*
X8767381Y47267857D01*
X8767381Y47648810D01*
X8815000Y47744048D01*
X8862619Y47791667D01*
X8957857Y47839286D01*
X9100714Y47839286D01*
X9195952Y47791667D01*
X9243571Y47744048D01*
X9291190Y47648810D01*
X9291190Y47267857D01*
X9767381Y48791667D02*
X9767381Y48220238D01*
X9767381Y48505952D02*
X8767381Y48505952D01*
X8910238Y48410714D01*
X9005476Y48315476D01*
X9053095Y48220238D01*
X84621619Y57435762D02*
X84574000Y57340524D01*
X84478762Y57245286D01*
X84335905Y57102429D01*
X84288286Y57007190D01*
X84288286Y56911952D01*
X84526381Y56959571D02*
X84478762Y56864333D01*
X84383524Y56769095D01*
X84193048Y56721476D01*
X83859714Y56721476D01*
X83669238Y56769095D01*
X83574000Y56864333D01*
X83526381Y56959571D01*
X83526381Y57150048D01*
X83574000Y57245286D01*
X83669238Y57340524D01*
X83859714Y57388143D01*
X84193048Y57388143D01*
X84383524Y57340524D01*
X84478762Y57245286D01*
X84526381Y57150048D01*
X84526381Y56959571D01*
X83621619Y57769095D02*
X83574000Y57816714D01*
X83526381Y57911952D01*
X83526381Y58150048D01*
X83574000Y58245286D01*
X83621619Y58292905D01*
X83716857Y58340524D01*
X83812095Y58340524D01*
X83954952Y58292905D01*
X84526381Y57721476D01*
X84526381Y58340524D01*
X45585381Y49657095D02*
X46394905Y49657095D01*
X46490143Y49704714D01*
X46537762Y49752333D01*
X46585381Y49847571D01*
X46585381Y50038048D01*
X46537762Y50133286D01*
X46490143Y50180905D01*
X46394905Y50228524D01*
X45585381Y50228524D01*
X45585381Y51180905D02*
X45585381Y50704714D01*
X46061571Y50657095D01*
X46013952Y50704714D01*
X45966333Y50799952D01*
X45966333Y51038048D01*
X46013952Y51133286D01*
X46061571Y51180905D01*
X46156810Y51228524D01*
X46394905Y51228524D01*
X46490143Y51180905D01*
X46537762Y51133286D01*
X46585381Y51038048D01*
X46585381Y50799952D01*
X46537762Y50704714D01*
X46490143Y50657095D01*
X45712381Y23622095D02*
X46521905Y23622095D01*
X46617143Y23669714D01*
X46664762Y23717333D01*
X46712381Y23812571D01*
X46712381Y24003048D01*
X46664762Y24098286D01*
X46617143Y24145905D01*
X46521905Y24193524D01*
X45712381Y24193524D01*
X45712381Y24574476D02*
X45712381Y25241143D01*
X46712381Y24812571D01*
X43096143Y7398143D02*
X43143762Y7350524D01*
X43191381Y7207667D01*
X43191381Y7112429D01*
X43143762Y6969571D01*
X43048524Y6874333D01*
X42953286Y6826714D01*
X42762810Y6779095D01*
X42619952Y6779095D01*
X42429476Y6826714D01*
X42334238Y6874333D01*
X42239000Y6969571D01*
X42191381Y7112429D01*
X42191381Y7207667D01*
X42239000Y7350524D01*
X42286619Y7398143D01*
X43191381Y8350524D02*
X43191381Y7779095D01*
X43191381Y8064809D02*
X42191381Y8064809D01*
X42334238Y7969571D01*
X42429476Y7874333D01*
X42477095Y7779095D01*
X42191381Y8683857D02*
X42191381Y9350524D01*
X43191381Y8921952D01*
X6631381Y74572905D02*
X5631381Y74572905D01*
X5631381Y74953858D01*
X5679000Y75049096D01*
X5726619Y75096715D01*
X5821857Y75144334D01*
X5964714Y75144334D01*
X6059952Y75096715D01*
X6107571Y75049096D01*
X6155190Y74953858D01*
X6155190Y74572905D01*
X6631381Y76096715D02*
X6631381Y75525286D01*
X6631381Y75811000D02*
X5631381Y75811000D01*
X5774238Y75715762D01*
X5869476Y75620524D01*
X5917095Y75525286D01*
X5961143Y64130857D02*
X5913524Y64083238D01*
X5770667Y64035619D01*
X5675429Y64035619D01*
X5532571Y64083238D01*
X5437333Y64178476D01*
X5389714Y64273714D01*
X5342095Y64464190D01*
X5342095Y64607048D01*
X5389714Y64797524D01*
X5437333Y64892762D01*
X5532571Y64988000D01*
X5675429Y65035619D01*
X5770667Y65035619D01*
X5913524Y64988000D01*
X5961143Y64940381D01*
X6913524Y64035619D02*
X6342095Y64035619D01*
X6627809Y64035619D02*
X6627809Y65035619D01*
X6532571Y64892762D01*
X6437333Y64797524D01*
X6342095Y64749905D01*
X7484952Y64607048D02*
X7389714Y64654667D01*
X7342095Y64702286D01*
X7294476Y64797524D01*
X7294476Y64845143D01*
X7342095Y64940381D01*
X7389714Y64988000D01*
X7484952Y65035619D01*
X7675429Y65035619D01*
X7770667Y64988000D01*
X7818286Y64940381D01*
X7865905Y64845143D01*
X7865905Y64797524D01*
X7818286Y64702286D01*
X7770667Y64654667D01*
X7675429Y64607048D01*
X7484952Y64607048D01*
X7389714Y64559429D01*
X7342095Y64511810D01*
X7294476Y64416571D01*
X7294476Y64226095D01*
X7342095Y64130857D01*
X7389714Y64083238D01*
X7484952Y64035619D01*
X7675429Y64035619D01*
X7770667Y64083238D01*
X7818286Y64130857D01*
X7865905Y64226095D01*
X7865905Y64416571D01*
X7818286Y64511810D01*
X7770667Y64559429D01*
X7675429Y64607048D01*
X11053143Y34155143D02*
X11100762Y34107524D01*
X11148381Y33964667D01*
X11148381Y33869429D01*
X11100762Y33726571D01*
X11005524Y33631333D01*
X10910286Y33583714D01*
X10719810Y33536095D01*
X10576952Y33536095D01*
X10386476Y33583714D01*
X10291238Y33631333D01*
X10196000Y33726571D01*
X10148381Y33869429D01*
X10148381Y33964667D01*
X10196000Y34107524D01*
X10243619Y34155143D01*
X11148381Y35107524D02*
X11148381Y34536095D01*
X11148381Y34821809D02*
X10148381Y34821809D01*
X10291238Y34726571D01*
X10386476Y34631333D01*
X10434095Y34536095D01*
X11148381Y35583714D02*
X11148381Y35774190D01*
X11100762Y35869429D01*
X11053143Y35917048D01*
X10910286Y36012286D01*
X10719810Y36059905D01*
X10338857Y36059905D01*
X10243619Y36012286D01*
X10196000Y35964667D01*
X10148381Y35869429D01*
X10148381Y35678952D01*
X10196000Y35583714D01*
X10243619Y35536095D01*
X10338857Y35488476D01*
X10576952Y35488476D01*
X10672190Y35536095D01*
X10719810Y35583714D01*
X10767429Y35678952D01*
X10767429Y35869429D01*
X10719810Y35964667D01*
X10672190Y36012286D01*
X10576952Y36059905D01*
X15521381Y44092905D02*
X14521381Y44092905D01*
X14521381Y44473858D01*
X14569000Y44569096D01*
X14616619Y44616715D01*
X14711857Y44664334D01*
X14854714Y44664334D01*
X14949952Y44616715D01*
X14997571Y44569096D01*
X15045190Y44473858D01*
X15045190Y44092905D01*
X14616619Y45045286D02*
X14569000Y45092905D01*
X14521381Y45188143D01*
X14521381Y45426239D01*
X14569000Y45521477D01*
X14616619Y45569096D01*
X14711857Y45616715D01*
X14807095Y45616715D01*
X14949952Y45569096D01*
X15521381Y44997667D01*
X15521381Y45616715D01*
X15521381Y40282905D02*
X14521381Y40282905D01*
X14521381Y40663858D01*
X14569000Y40759096D01*
X14616619Y40806715D01*
X14711857Y40854334D01*
X14854714Y40854334D01*
X14949952Y40806715D01*
X14997571Y40759096D01*
X15045190Y40663858D01*
X15045190Y40282905D01*
X14521381Y41187667D02*
X14521381Y41806715D01*
X14902333Y41473381D01*
X14902333Y41616239D01*
X14949952Y41711477D01*
X14997571Y41759096D01*
X15092810Y41806715D01*
X15330905Y41806715D01*
X15426143Y41759096D01*
X15473762Y41711477D01*
X15521381Y41616239D01*
X15521381Y41330524D01*
X15473762Y41235286D01*
X15426143Y41187667D01*
X14604381Y34631334D02*
X14128190Y34298000D01*
X14604381Y34059905D02*
X13604381Y34059905D01*
X13604381Y34440858D01*
X13652000Y34536096D01*
X13699619Y34583715D01*
X13794857Y34631334D01*
X13937714Y34631334D01*
X14032952Y34583715D01*
X14080571Y34536096D01*
X14128190Y34440858D01*
X14128190Y34059905D01*
X13604381Y34964667D02*
X13604381Y35631334D01*
X14604381Y35202762D01*
X17161381Y33909095D02*
X17970905Y33909095D01*
X18066143Y33956714D01*
X18113762Y34004333D01*
X18161381Y34099571D01*
X18161381Y34290048D01*
X18113762Y34385286D01*
X18066143Y34432905D01*
X17970905Y34480524D01*
X17161381Y34480524D01*
X17589952Y35099571D02*
X17542333Y35004333D01*
X17494714Y34956714D01*
X17399476Y34909095D01*
X17351857Y34909095D01*
X17256619Y34956714D01*
X17209000Y35004333D01*
X17161381Y35099571D01*
X17161381Y35290048D01*
X17209000Y35385286D01*
X17256619Y35432905D01*
X17351857Y35480524D01*
X17399476Y35480524D01*
X17494714Y35432905D01*
X17542333Y35385286D01*
X17589952Y35290048D01*
X17589952Y35099571D01*
X17637571Y35004333D01*
X17685190Y34956714D01*
X17780429Y34909095D01*
X17970905Y34909095D01*
X18066143Y34956714D01*
X18113762Y35004333D01*
X18161381Y35099571D01*
X18161381Y35290048D01*
X18113762Y35385286D01*
X18066143Y35432905D01*
X17970905Y35480524D01*
X17780429Y35480524D01*
X17685190Y35432905D01*
X17637571Y35385286D01*
X17589952Y35290048D01*
X8628143Y70861857D02*
X8580524Y70814238D01*
X8437667Y70766619D01*
X8342429Y70766619D01*
X8199571Y70814238D01*
X8104333Y70909476D01*
X8056714Y71004714D01*
X8009095Y71195190D01*
X8009095Y71338048D01*
X8056714Y71528524D01*
X8104333Y71623762D01*
X8199571Y71719000D01*
X8342429Y71766619D01*
X8437667Y71766619D01*
X8580524Y71719000D01*
X8628143Y71671381D01*
X9009095Y71671381D02*
X9056714Y71719000D01*
X9151952Y71766619D01*
X9390048Y71766619D01*
X9485286Y71719000D01*
X9532905Y71671381D01*
X9580524Y71576143D01*
X9580524Y71480905D01*
X9532905Y71338048D01*
X8961476Y70766619D01*
X9580524Y70766619D01*
X10199571Y71766619D02*
X10294810Y71766619D01*
X10390048Y71719000D01*
X10437667Y71671381D01*
X10485286Y71576143D01*
X10532905Y71385667D01*
X10532905Y71147571D01*
X10485286Y70957095D01*
X10437667Y70861857D01*
X10390048Y70814238D01*
X10294810Y70766619D01*
X10199571Y70766619D01*
X10104333Y70814238D01*
X10056714Y70861857D01*
X10009095Y70957095D01*
X9961476Y71147571D01*
X9961476Y71385667D01*
X10009095Y71576143D01*
X10056714Y71671381D01*
X10104333Y71719000D01*
X10199571Y71766619D01*
X3103667Y78569619D02*
X3103667Y77855333D01*
X3056047Y77712476D01*
X2960809Y77617238D01*
X2817952Y77569619D01*
X2722714Y77569619D01*
X3579857Y77569619D02*
X3579857Y78569619D01*
X3960810Y78569619D01*
X4056048Y78522000D01*
X4103667Y78474381D01*
X4151286Y78379143D01*
X4151286Y78236286D01*
X4103667Y78141048D01*
X4056048Y78093429D01*
X3960810Y78045810D01*
X3579857Y78045810D01*
X4532238Y78474381D02*
X4579857Y78522000D01*
X4675095Y78569619D01*
X4913191Y78569619D01*
X5008429Y78522000D01*
X5056048Y78474381D01*
X5103667Y78379143D01*
X5103667Y78283905D01*
X5056048Y78141048D01*
X4484619Y77569619D01*
X5103667Y77569619D01*
X10374334Y73533619D02*
X10041000Y74009810D01*
X9802905Y73533619D02*
X9802905Y74533619D01*
X10183858Y74533619D01*
X10279096Y74486000D01*
X10326715Y74438381D01*
X10374334Y74343143D01*
X10374334Y74200286D01*
X10326715Y74105048D01*
X10279096Y74057429D01*
X10183858Y74009810D01*
X9802905Y74009810D01*
X10945762Y74105048D02*
X10850524Y74152667D01*
X10802905Y74200286D01*
X10755286Y74295524D01*
X10755286Y74343143D01*
X10802905Y74438381D01*
X10850524Y74486000D01*
X10945762Y74533619D01*
X11136239Y74533619D01*
X11231477Y74486000D01*
X11279096Y74438381D01*
X11326715Y74343143D01*
X11326715Y74295524D01*
X11279096Y74200286D01*
X11231477Y74152667D01*
X11136239Y74105048D01*
X10945762Y74105048D01*
X10850524Y74057429D01*
X10802905Y74009810D01*
X10755286Y73914571D01*
X10755286Y73724095D01*
X10802905Y73628857D01*
X10850524Y73581238D01*
X10945762Y73533619D01*
X11136239Y73533619D01*
X11231477Y73581238D01*
X11279096Y73628857D01*
X11326715Y73724095D01*
X11326715Y73914571D01*
X11279096Y74009810D01*
X11231477Y74057429D01*
X11136239Y74105048D01*
X42409143Y42251334D02*
X42456762Y42203715D01*
X42504381Y42060858D01*
X42504381Y41965620D01*
X42456762Y41822762D01*
X42361524Y41727524D01*
X42266286Y41679905D01*
X42075810Y41632286D01*
X41932952Y41632286D01*
X41742476Y41679905D01*
X41647238Y41727524D01*
X41552000Y41822762D01*
X41504381Y41965620D01*
X41504381Y42060858D01*
X41552000Y42203715D01*
X41599619Y42251334D01*
X41599619Y42632286D02*
X41552000Y42679905D01*
X41504381Y42775143D01*
X41504381Y43013239D01*
X41552000Y43108477D01*
X41599619Y43156096D01*
X41694857Y43203715D01*
X41790095Y43203715D01*
X41932952Y43156096D01*
X42504381Y42584667D01*
X42504381Y43203715D01*
X43643429Y46317048D02*
X43643429Y47078953D01*
X44024381Y46698001D02*
X43262476Y46698001D01*
X42409143Y16216334D02*
X42456762Y16168715D01*
X42504381Y16025858D01*
X42504381Y15930620D01*
X42456762Y15787762D01*
X42361524Y15692524D01*
X42266286Y15644905D01*
X42075810Y15597286D01*
X41932952Y15597286D01*
X41742476Y15644905D01*
X41647238Y15692524D01*
X41552000Y15787762D01*
X41504381Y15930620D01*
X41504381Y16025858D01*
X41552000Y16168715D01*
X41599619Y16216334D01*
X41504381Y16549667D02*
X41504381Y17168715D01*
X41885333Y16835381D01*
X41885333Y16978239D01*
X41932952Y17073477D01*
X41980571Y17121096D01*
X42075810Y17168715D01*
X42313905Y17168715D01*
X42409143Y17121096D01*
X42456762Y17073477D01*
X42504381Y16978239D01*
X42504381Y16692524D01*
X42456762Y16597286D01*
X42409143Y16549667D01*
X43643429Y20282048D02*
X43643429Y21043953D01*
X44024381Y20663001D02*
X43262476Y20663001D01*
X84614048Y8557619D02*
X85233096Y8557619D01*
X84899762Y8176667D01*
X85042620Y8176667D01*
X85137858Y8129048D01*
X85185477Y8081429D01*
X85233096Y7986190D01*
X85233096Y7748095D01*
X85185477Y7652857D01*
X85137858Y7605238D01*
X85042620Y7557619D01*
X84756905Y7557619D01*
X84661667Y7605238D01*
X84614048Y7652857D01*
X85661667Y7652857D02*
X85709286Y7605238D01*
X85661667Y7557619D01*
X85614048Y7605238D01*
X85661667Y7652857D01*
X85661667Y7557619D01*
X86042619Y8557619D02*
X86661667Y8557619D01*
X86328333Y8176667D01*
X86471191Y8176667D01*
X86566429Y8129048D01*
X86614048Y8081429D01*
X86661667Y7986190D01*
X86661667Y7748095D01*
X86614048Y7652857D01*
X86566429Y7605238D01*
X86471191Y7557619D01*
X86185476Y7557619D01*
X86090238Y7605238D01*
X86042619Y7652857D01*
X87090238Y7557619D02*
X87090238Y8224286D01*
X87090238Y8129048D02*
X87137857Y8176667D01*
X87233095Y8224286D01*
X87375953Y8224286D01*
X87471191Y8176667D01*
X87518810Y8081429D01*
X87518810Y7557619D01*
X87518810Y8081429D02*
X87566429Y8176667D01*
X87661667Y8224286D01*
X87804524Y8224286D01*
X87899762Y8176667D01*
X87947381Y8081429D01*
X87947381Y7557619D01*
X88423571Y7557619D02*
X88423571Y8224286D01*
X88423571Y8129048D02*
X88471190Y8176667D01*
X88566428Y8224286D01*
X88709286Y8224286D01*
X88804524Y8176667D01*
X88852143Y8081429D01*
X88852143Y7557619D01*
X88852143Y8081429D02*
X88899762Y8176667D01*
X88995000Y8224286D01*
X89137857Y8224286D01*
X89233095Y8176667D01*
X89280714Y8081429D01*
X89280714Y7557619D01*
M02*
