G04 #@! TF.FileFunction,Legend,Bot*
%FSLAX46Y46*%
G04 Gerber Fmt 4.6, Leading zero omitted, Abs format (unit mm)*
G04 Created by KiCad (PCBNEW 4.0.4-stable) date 07/19/17 16:13:46*
%MOMM*%
%LPD*%
G01*
G04 APERTURE LIST*
%ADD10C,0.100000*%
%ADD11C,0.120000*%
%ADD12C,0.150000*%
G04 APERTURE END LIST*
D10*
D11*
X64012000Y69453000D02*
X64012000Y67453000D01*
X61972000Y67453000D02*
X61972000Y69453000D01*
X56519000Y69453000D02*
X56519000Y67453000D01*
X54479000Y67453000D02*
X54479000Y69453000D01*
X64139000Y43926000D02*
X64139000Y41926000D01*
X62099000Y41926000D02*
X62099000Y43926000D01*
X67314000Y43926000D02*
X67314000Y41926000D01*
X65274000Y41926000D02*
X65274000Y43926000D01*
X67314000Y17891000D02*
X67314000Y15891000D01*
X65274000Y15891000D02*
X65274000Y17891000D01*
X64139000Y17891000D02*
X64139000Y15891000D01*
X62099000Y15891000D02*
X62099000Y17891000D01*
X44974000Y67891000D02*
X46974000Y67891000D01*
X46974000Y70031000D02*
X44974000Y70031000D01*
X40459000Y69961000D02*
X40459000Y67961000D01*
X42599000Y67961000D02*
X42599000Y69961000D01*
X45609000Y41856000D02*
X47609000Y41856000D01*
X47609000Y43996000D02*
X45609000Y43996000D01*
X45609000Y39316000D02*
X47609000Y39316000D01*
X47609000Y41456000D02*
X45609000Y41456000D01*
X45609000Y15821000D02*
X47609000Y15821000D01*
X47609000Y17961000D02*
X45609000Y17961000D01*
X45609000Y13281000D02*
X47609000Y13281000D01*
X47609000Y15421000D02*
X45609000Y15421000D01*
X59434000Y54991000D02*
X55374000Y54991000D01*
X59434000Y60071000D02*
X55374000Y60071000D01*
X13596000Y16724000D02*
X13596000Y26964000D01*
X29486000Y16724000D02*
X29486000Y26964000D01*
X29486000Y16724000D02*
X13596000Y16724000D01*
X29486000Y26964000D02*
X13596000Y26964000D01*
X13596000Y19304000D02*
X10956000Y19304000D01*
X13596000Y21844000D02*
X10972000Y21844000D01*
X13596000Y24384000D02*
X10972000Y24384000D01*
X59434000Y28956000D02*
X55374000Y28956000D01*
X59434000Y34036000D02*
X55374000Y34036000D01*
X67314000Y69453000D02*
X67314000Y67453000D01*
X65274000Y67453000D02*
X65274000Y69453000D01*
X56519000Y43418000D02*
X56519000Y41418000D01*
X54479000Y41418000D02*
X54479000Y43418000D01*
X56646000Y17383000D02*
X56646000Y15383000D01*
X54606000Y15383000D02*
X54606000Y17383000D01*
D12*
X63304143Y63294666D02*
X63351762Y63342285D01*
X63399381Y63485142D01*
X63399381Y63580380D01*
X63351762Y63723238D01*
X63256524Y63818476D01*
X63161286Y63866095D01*
X62970810Y63913714D01*
X62827952Y63913714D01*
X62637476Y63866095D01*
X62542238Y63818476D01*
X62447000Y63723238D01*
X62399381Y63580380D01*
X62399381Y63485142D01*
X62447000Y63342285D01*
X62494619Y63294666D01*
X62732714Y62437523D02*
X63399381Y62437523D01*
X62351762Y62675619D02*
X63066048Y62913714D01*
X63066048Y62294666D01*
X56021143Y63294666D02*
X56068762Y63342285D01*
X56116381Y63485142D01*
X56116381Y63580380D01*
X56068762Y63723238D01*
X55973524Y63818476D01*
X55878286Y63866095D01*
X55687810Y63913714D01*
X55544952Y63913714D01*
X55354476Y63866095D01*
X55259238Y63818476D01*
X55164000Y63723238D01*
X55116381Y63580380D01*
X55116381Y63485142D01*
X55164000Y63342285D01*
X55211619Y63294666D01*
X55116381Y62389904D02*
X55116381Y62866095D01*
X55592571Y62913714D01*
X55544952Y62866095D01*
X55497333Y62770857D01*
X55497333Y62532761D01*
X55544952Y62437523D01*
X55592571Y62389904D01*
X55687810Y62342285D01*
X55925905Y62342285D01*
X56021143Y62389904D01*
X56068762Y62437523D01*
X56116381Y62532761D01*
X56116381Y62770857D01*
X56068762Y62866095D01*
X56021143Y62913714D01*
X63441143Y38302666D02*
X63488762Y38350285D01*
X63536381Y38493142D01*
X63536381Y38588380D01*
X63488762Y38731238D01*
X63393524Y38826476D01*
X63298286Y38874095D01*
X63107810Y38921714D01*
X62964952Y38921714D01*
X62774476Y38874095D01*
X62679238Y38826476D01*
X62584000Y38731238D01*
X62536381Y38588380D01*
X62536381Y38493142D01*
X62584000Y38350285D01*
X62631619Y38302666D01*
X62536381Y37445523D02*
X62536381Y37636000D01*
X62584000Y37731238D01*
X62631619Y37778857D01*
X62774476Y37874095D01*
X62964952Y37921714D01*
X63345905Y37921714D01*
X63441143Y37874095D01*
X63488762Y37826476D01*
X63536381Y37731238D01*
X63536381Y37540761D01*
X63488762Y37445523D01*
X63441143Y37397904D01*
X63345905Y37350285D01*
X63107810Y37350285D01*
X63012571Y37397904D01*
X62964952Y37445523D01*
X62917333Y37540761D01*
X62917333Y37731238D01*
X62964952Y37826476D01*
X63012571Y37874095D01*
X63107810Y37921714D01*
X66641143Y37902666D02*
X66688762Y37950285D01*
X66736381Y38093142D01*
X66736381Y38188380D01*
X66688762Y38331238D01*
X66593524Y38426476D01*
X66498286Y38474095D01*
X66307810Y38521714D01*
X66164952Y38521714D01*
X65974476Y38474095D01*
X65879238Y38426476D01*
X65784000Y38331238D01*
X65736381Y38188380D01*
X65736381Y38093142D01*
X65784000Y37950285D01*
X65831619Y37902666D01*
X65736381Y37569333D02*
X65736381Y36902666D01*
X66736381Y37331238D01*
X66541143Y12002666D02*
X66588762Y12050285D01*
X66636381Y12193142D01*
X66636381Y12288380D01*
X66588762Y12431238D01*
X66493524Y12526476D01*
X66398286Y12574095D01*
X66207810Y12621714D01*
X66064952Y12621714D01*
X65874476Y12574095D01*
X65779238Y12526476D01*
X65684000Y12431238D01*
X65636381Y12288380D01*
X65636381Y12193142D01*
X65684000Y12050285D01*
X65731619Y12002666D01*
X66064952Y11431238D02*
X66017333Y11526476D01*
X65969714Y11574095D01*
X65874476Y11621714D01*
X65826857Y11621714D01*
X65731619Y11574095D01*
X65684000Y11526476D01*
X65636381Y11431238D01*
X65636381Y11240761D01*
X65684000Y11145523D01*
X65731619Y11097904D01*
X65826857Y11050285D01*
X65874476Y11050285D01*
X65969714Y11097904D01*
X66017333Y11145523D01*
X66064952Y11240761D01*
X66064952Y11431238D01*
X66112571Y11526476D01*
X66160190Y11574095D01*
X66255429Y11621714D01*
X66445905Y11621714D01*
X66541143Y11574095D01*
X66588762Y11526476D01*
X66636381Y11431238D01*
X66636381Y11240761D01*
X66588762Y11145523D01*
X66541143Y11097904D01*
X66445905Y11050285D01*
X66255429Y11050285D01*
X66160190Y11097904D01*
X66112571Y11145523D01*
X66064952Y11240761D01*
X63341143Y12002666D02*
X63388762Y12050285D01*
X63436381Y12193142D01*
X63436381Y12288380D01*
X63388762Y12431238D01*
X63293524Y12526476D01*
X63198286Y12574095D01*
X63007810Y12621714D01*
X62864952Y12621714D01*
X62674476Y12574095D01*
X62579238Y12526476D01*
X62484000Y12431238D01*
X62436381Y12288380D01*
X62436381Y12193142D01*
X62484000Y12050285D01*
X62531619Y12002666D01*
X63436381Y11526476D02*
X63436381Y11336000D01*
X63388762Y11240761D01*
X63341143Y11193142D01*
X63198286Y11097904D01*
X63007810Y11050285D01*
X62626857Y11050285D01*
X62531619Y11097904D01*
X62484000Y11145523D01*
X62436381Y11240761D01*
X62436381Y11431238D01*
X62484000Y11526476D01*
X62531619Y11574095D01*
X62626857Y11621714D01*
X62864952Y11621714D01*
X62960190Y11574095D01*
X63007810Y11526476D01*
X63055429Y11431238D01*
X63055429Y11240761D01*
X63007810Y11145523D01*
X62960190Y11097904D01*
X62864952Y11050285D01*
X46140666Y70358619D02*
X46474000Y70834810D01*
X46712095Y70358619D02*
X46712095Y71358619D01*
X46331142Y71358619D01*
X46235904Y71311000D01*
X46188285Y71263381D01*
X46140666Y71168143D01*
X46140666Y71025286D01*
X46188285Y70930048D01*
X46235904Y70882429D01*
X46331142Y70834810D01*
X46712095Y70834810D01*
X45188285Y70358619D02*
X45759714Y70358619D01*
X45474000Y70358619D02*
X45474000Y71358619D01*
X45569238Y71215762D01*
X45664476Y71120524D01*
X45759714Y71072905D01*
X43831381Y69127666D02*
X43355190Y69461000D01*
X43831381Y69699095D02*
X42831381Y69699095D01*
X42831381Y69318142D01*
X42879000Y69222904D01*
X42926619Y69175285D01*
X43021857Y69127666D01*
X43164714Y69127666D01*
X43259952Y69175285D01*
X43307571Y69222904D01*
X43355190Y69318142D01*
X43355190Y69699095D01*
X42926619Y68746714D02*
X42879000Y68699095D01*
X42831381Y68603857D01*
X42831381Y68365761D01*
X42879000Y68270523D01*
X42926619Y68222904D01*
X43021857Y68175285D01*
X43117095Y68175285D01*
X43259952Y68222904D01*
X43831381Y68794333D01*
X43831381Y68175285D01*
X46775666Y44323619D02*
X47109000Y44799810D01*
X47347095Y44323619D02*
X47347095Y45323619D01*
X46966142Y45323619D01*
X46870904Y45276000D01*
X46823285Y45228381D01*
X46775666Y45133143D01*
X46775666Y44990286D01*
X46823285Y44895048D01*
X46870904Y44847429D01*
X46966142Y44799810D01*
X47347095Y44799810D01*
X46442333Y45323619D02*
X45823285Y45323619D01*
X46156619Y44942667D01*
X46013761Y44942667D01*
X45918523Y44895048D01*
X45870904Y44847429D01*
X45823285Y44752190D01*
X45823285Y44514095D01*
X45870904Y44418857D01*
X45918523Y44371238D01*
X46013761Y44323619D01*
X46299476Y44323619D01*
X46394714Y44371238D01*
X46442333Y44418857D01*
X46775666Y41783619D02*
X47109000Y42259810D01*
X47347095Y41783619D02*
X47347095Y42783619D01*
X46966142Y42783619D01*
X46870904Y42736000D01*
X46823285Y42688381D01*
X46775666Y42593143D01*
X46775666Y42450286D01*
X46823285Y42355048D01*
X46870904Y42307429D01*
X46966142Y42259810D01*
X47347095Y42259810D01*
X45918523Y42450286D02*
X45918523Y41783619D01*
X46156619Y42831238D02*
X46394714Y42116952D01*
X45775666Y42116952D01*
X46775666Y18288619D02*
X47109000Y18764810D01*
X47347095Y18288619D02*
X47347095Y19288619D01*
X46966142Y19288619D01*
X46870904Y19241000D01*
X46823285Y19193381D01*
X46775666Y19098143D01*
X46775666Y18955286D01*
X46823285Y18860048D01*
X46870904Y18812429D01*
X46966142Y18764810D01*
X47347095Y18764810D01*
X45870904Y19288619D02*
X46347095Y19288619D01*
X46394714Y18812429D01*
X46347095Y18860048D01*
X46251857Y18907667D01*
X46013761Y18907667D01*
X45918523Y18860048D01*
X45870904Y18812429D01*
X45823285Y18717190D01*
X45823285Y18479095D01*
X45870904Y18383857D01*
X45918523Y18336238D01*
X46013761Y18288619D01*
X46251857Y18288619D01*
X46347095Y18336238D01*
X46394714Y18383857D01*
X46775666Y15748619D02*
X47109000Y16224810D01*
X47347095Y15748619D02*
X47347095Y16748619D01*
X46966142Y16748619D01*
X46870904Y16701000D01*
X46823285Y16653381D01*
X46775666Y16558143D01*
X46775666Y16415286D01*
X46823285Y16320048D01*
X46870904Y16272429D01*
X46966142Y16224810D01*
X47347095Y16224810D01*
X45918523Y16748619D02*
X46109000Y16748619D01*
X46204238Y16701000D01*
X46251857Y16653381D01*
X46347095Y16510524D01*
X46394714Y16320048D01*
X46394714Y15939095D01*
X46347095Y15843857D01*
X46299476Y15796238D01*
X46204238Y15748619D01*
X46013761Y15748619D01*
X45918523Y15796238D01*
X45870904Y15843857D01*
X45823285Y15939095D01*
X45823285Y16177190D01*
X45870904Y16272429D01*
X45918523Y16320048D01*
X46013761Y16367667D01*
X46204238Y16367667D01*
X46299476Y16320048D01*
X46347095Y16272429D01*
X46394714Y16177190D01*
X57570666Y60438619D02*
X57904000Y60914810D01*
X58142095Y60438619D02*
X58142095Y61438619D01*
X57761142Y61438619D01*
X57665904Y61391000D01*
X57618285Y61343381D01*
X57570666Y61248143D01*
X57570666Y61105286D01*
X57618285Y61010048D01*
X57665904Y60962429D01*
X57761142Y60914810D01*
X58142095Y60914810D01*
X57094476Y60438619D02*
X56904000Y60438619D01*
X56808761Y60486238D01*
X56761142Y60533857D01*
X56665904Y60676714D01*
X56618285Y60867190D01*
X56618285Y61248143D01*
X56665904Y61343381D01*
X56713523Y61391000D01*
X56808761Y61438619D01*
X56999238Y61438619D01*
X57094476Y61391000D01*
X57142095Y61343381D01*
X57189714Y61248143D01*
X57189714Y61010048D01*
X57142095Y60914810D01*
X57094476Y60867190D01*
X56999238Y60819571D01*
X56808761Y60819571D01*
X56713523Y60867190D01*
X56665904Y60914810D01*
X56618285Y61010048D01*
X29938381Y22605905D02*
X30747905Y22605905D01*
X30843143Y22558286D01*
X30890762Y22510667D01*
X30938381Y22415429D01*
X30938381Y22224952D01*
X30890762Y22129714D01*
X30843143Y22082095D01*
X30747905Y22034476D01*
X29938381Y22034476D01*
X29938381Y21129714D02*
X29938381Y21320191D01*
X29986000Y21415429D01*
X30033619Y21463048D01*
X30176476Y21558286D01*
X30366952Y21605905D01*
X30747905Y21605905D01*
X30843143Y21558286D01*
X30890762Y21510667D01*
X30938381Y21415429D01*
X30938381Y21224952D01*
X30890762Y21129714D01*
X30843143Y21082095D01*
X30747905Y21034476D01*
X30509810Y21034476D01*
X30414571Y21082095D01*
X30366952Y21129714D01*
X30319333Y21224952D01*
X30319333Y21415429D01*
X30366952Y21510667D01*
X30414571Y21558286D01*
X30509810Y21605905D01*
X58046857Y34403619D02*
X58380191Y34879810D01*
X58618286Y34403619D02*
X58618286Y35403619D01*
X58237333Y35403619D01*
X58142095Y35356000D01*
X58094476Y35308381D01*
X58046857Y35213143D01*
X58046857Y35070286D01*
X58094476Y34975048D01*
X58142095Y34927429D01*
X58237333Y34879810D01*
X58618286Y34879810D01*
X57665905Y35308381D02*
X57618286Y35356000D01*
X57523048Y35403619D01*
X57284952Y35403619D01*
X57189714Y35356000D01*
X57142095Y35308381D01*
X57094476Y35213143D01*
X57094476Y35117905D01*
X57142095Y34975048D01*
X57713524Y34403619D01*
X57094476Y34403619D01*
X56523048Y34975048D02*
X56618286Y35022667D01*
X56665905Y35070286D01*
X56713524Y35165524D01*
X56713524Y35213143D01*
X56665905Y35308381D01*
X56618286Y35356000D01*
X56523048Y35403619D01*
X56332571Y35403619D01*
X56237333Y35356000D01*
X56189714Y35308381D01*
X56142095Y35213143D01*
X56142095Y35165524D01*
X56189714Y35070286D01*
X56237333Y35022667D01*
X56332571Y34975048D01*
X56523048Y34975048D01*
X56618286Y34927429D01*
X56665905Y34879810D01*
X56713524Y34784571D01*
X56713524Y34594095D01*
X56665905Y34498857D01*
X56618286Y34451238D01*
X56523048Y34403619D01*
X56332571Y34403619D01*
X56237333Y34451238D01*
X56189714Y34498857D01*
X56142095Y34594095D01*
X56142095Y34784571D01*
X56189714Y34879810D01*
X56237333Y34927429D01*
X56332571Y34975048D01*
X68401143Y69095857D02*
X68448762Y69143476D01*
X68496381Y69286333D01*
X68496381Y69381571D01*
X68448762Y69524429D01*
X68353524Y69619667D01*
X68258286Y69667286D01*
X68067810Y69714905D01*
X67924952Y69714905D01*
X67734476Y69667286D01*
X67639238Y69619667D01*
X67544000Y69524429D01*
X67496381Y69381571D01*
X67496381Y69286333D01*
X67544000Y69143476D01*
X67591619Y69095857D01*
X68496381Y68143476D02*
X68496381Y68714905D01*
X68496381Y68429191D02*
X67496381Y68429191D01*
X67639238Y68524429D01*
X67734476Y68619667D01*
X67782095Y68714905D01*
X67496381Y67810143D02*
X67496381Y67191095D01*
X67877333Y67524429D01*
X67877333Y67381571D01*
X67924952Y67286333D01*
X67972571Y67238714D01*
X68067810Y67191095D01*
X68305905Y67191095D01*
X68401143Y67238714D01*
X68448762Y67286333D01*
X68496381Y67381571D01*
X68496381Y67667286D01*
X68448762Y67762524D01*
X68401143Y67810143D01*
X57606143Y43060857D02*
X57653762Y43108476D01*
X57701381Y43251333D01*
X57701381Y43346571D01*
X57653762Y43489429D01*
X57558524Y43584667D01*
X57463286Y43632286D01*
X57272810Y43679905D01*
X57129952Y43679905D01*
X56939476Y43632286D01*
X56844238Y43584667D01*
X56749000Y43489429D01*
X56701381Y43346571D01*
X56701381Y43251333D01*
X56749000Y43108476D01*
X56796619Y43060857D01*
X57701381Y42108476D02*
X57701381Y42679905D01*
X57701381Y42394191D02*
X56701381Y42394191D01*
X56844238Y42489429D01*
X56939476Y42584667D01*
X56987095Y42679905D01*
X57034714Y41251333D02*
X57701381Y41251333D01*
X56653762Y41489429D02*
X57368048Y41727524D01*
X57368048Y41108476D01*
X57733143Y17025857D02*
X57780762Y17073476D01*
X57828381Y17216333D01*
X57828381Y17311571D01*
X57780762Y17454429D01*
X57685524Y17549667D01*
X57590286Y17597286D01*
X57399810Y17644905D01*
X57256952Y17644905D01*
X57066476Y17597286D01*
X56971238Y17549667D01*
X56876000Y17454429D01*
X56828381Y17311571D01*
X56828381Y17216333D01*
X56876000Y17073476D01*
X56923619Y17025857D01*
X57828381Y16073476D02*
X57828381Y16644905D01*
X57828381Y16359191D02*
X56828381Y16359191D01*
X56971238Y16454429D01*
X57066476Y16549667D01*
X57114095Y16644905D01*
X56828381Y15168714D02*
X56828381Y15644905D01*
X57304571Y15692524D01*
X57256952Y15644905D01*
X57209333Y15549667D01*
X57209333Y15311571D01*
X57256952Y15216333D01*
X57304571Y15168714D01*
X57399810Y15121095D01*
X57637905Y15121095D01*
X57733143Y15168714D01*
X57780762Y15216333D01*
X57828381Y15311571D01*
X57828381Y15549667D01*
X57780762Y15644905D01*
X57733143Y15692524D01*
M02*
