G04 #@! TF.FileFunction,Soldermask,Top*
%FSLAX46Y46*%
G04 Gerber Fmt 4.6, Leading zero omitted, Abs format (unit mm)*
G04 Created by KiCad (PCBNEW 4.0.4-stable) date 08/21/17 00:53:09*
%MOMM*%
%LPD*%
G01*
G04 APERTURE LIST*
%ADD10C,0.100000*%
%ADD11R,1.670000X1.670000*%
%ADD12R,2.400000X2.000000*%
%ADD13R,2.200000X3.900000*%
%ADD14R,2.000000X2.400000*%
%ADD15R,3.900000X2.000000*%
%ADD16R,3.900000X2.200000*%
%ADD17R,2.100000X2.100000*%
%ADD18O,2.100000X2.100000*%
%ADD19C,6.399480*%
%ADD20R,2.600000X4.300000*%
%ADD21R,2.100000X2.400000*%
%ADD22R,2.400000X2.100000*%
%ADD23C,2.150000*%
%ADD24R,1.400000X0.685000*%
%ADD25R,2.800000X2.800000*%
%ADD26C,2.800000*%
%ADD27R,2.000000X3.900000*%
%ADD28C,6.000000*%
%ADD29C,5.800000*%
%ADD30C,1.000000*%
G04 APERTURE END LIST*
D10*
D11*
X59880500Y33210500D03*
X59880500Y34480500D03*
X59880500Y35750500D03*
X59880500Y37020500D03*
X61150500Y33210500D03*
X61150500Y34480500D03*
X62420500Y34480500D03*
X62420500Y33210500D03*
X63690500Y33210500D03*
X63690500Y34480500D03*
X64960500Y34480500D03*
X64960500Y33210500D03*
X66230500Y33210500D03*
X66230500Y34480500D03*
X63690500Y35750500D03*
X62420500Y35750500D03*
X61150500Y35750500D03*
X61150500Y37020500D03*
X62420500Y37020500D03*
X63690500Y37020500D03*
X64960500Y37020500D03*
X64960500Y35750500D03*
X66230500Y35750500D03*
X66230500Y37020500D03*
X70675500Y45275500D03*
X70675500Y44005500D03*
X70675500Y42735500D03*
X70675500Y41465500D03*
X69405500Y45275500D03*
X69405500Y44005500D03*
X68135500Y44005500D03*
X68135500Y45275500D03*
X66865500Y45275500D03*
X66865500Y44005500D03*
X65595500Y44005500D03*
X65595500Y45275500D03*
X64325500Y45275500D03*
X64325500Y44005500D03*
X66865500Y42735500D03*
X68135500Y42735500D03*
X69405500Y42735500D03*
X69405500Y41465500D03*
X68135500Y41465500D03*
X66865500Y41465500D03*
X65595500Y41465500D03*
X65595500Y42735500D03*
X64325500Y42735500D03*
X64325500Y41465500D03*
D12*
X56737000Y40068500D03*
X52737000Y40068500D03*
D13*
X42735500Y55459000D03*
X42735500Y50459000D03*
D11*
X70675500Y30035500D03*
X70675500Y28765500D03*
X70675500Y27495500D03*
X70675500Y26225500D03*
X69405500Y30035500D03*
X69405500Y28765500D03*
X68135500Y28765500D03*
X68135500Y30035500D03*
X66865500Y30035500D03*
X66865500Y28765500D03*
X65595500Y28765500D03*
X65595500Y30035500D03*
X64325500Y30035500D03*
X64325500Y28765500D03*
X66865500Y27495500D03*
X68135500Y27495500D03*
X69405500Y27495500D03*
X69405500Y26225500D03*
X68135500Y26225500D03*
X66865500Y26225500D03*
X65595500Y26225500D03*
X65595500Y27495500D03*
X64325500Y27495500D03*
X64325500Y26225500D03*
D14*
X17653000Y54324000D03*
X17653000Y50324000D03*
X31432500Y45625000D03*
X31432500Y49625000D03*
X33655000Y45625000D03*
X33655000Y49625000D03*
X40259000Y49689000D03*
X40259000Y53689000D03*
D12*
X46831500Y45275500D03*
X50831500Y45275500D03*
X56927500Y35877500D03*
X52927500Y35877500D03*
X56927500Y30734000D03*
X52927500Y30734000D03*
D14*
X39878000Y19399000D03*
X39878000Y15399000D03*
X39878000Y25749000D03*
X39878000Y21749000D03*
D15*
X51531500Y49911000D03*
X46131500Y49911000D03*
D16*
X31155000Y54356000D03*
X36155000Y54356000D03*
D17*
X2921000Y24638000D03*
D18*
X2921000Y27178000D03*
X2921000Y29718000D03*
X2921000Y32258000D03*
X2921000Y34798000D03*
X2921000Y37338000D03*
D19*
X8382000Y8255000D03*
X8509000Y14986000D03*
D17*
X26416000Y52451000D03*
D18*
X26416000Y54991000D03*
D17*
X2921000Y54991000D03*
D18*
X2921000Y52451000D03*
X2921000Y49911000D03*
D20*
X49969500Y55753000D03*
X46169500Y55753000D03*
D17*
X2921000Y42164000D03*
D18*
X2921000Y44704000D03*
X2921000Y47244000D03*
D11*
X59880500Y48450500D03*
X59880500Y49720500D03*
X59880500Y50990500D03*
X59880500Y52260500D03*
X61150500Y48450500D03*
X61150500Y49720500D03*
X62420500Y49720500D03*
X62420500Y48450500D03*
X63690500Y48450500D03*
X63690500Y49720500D03*
X64960500Y49720500D03*
X64960500Y48450500D03*
X66230500Y48450500D03*
X66230500Y49720500D03*
X63690500Y50990500D03*
X62420500Y50990500D03*
X61150500Y50990500D03*
X61150500Y52260500D03*
X62420500Y52260500D03*
X63690500Y52260500D03*
X64960500Y52260500D03*
X64960500Y50990500D03*
X66230500Y50990500D03*
X66230500Y52260500D03*
X59880500Y17970500D03*
X59880500Y19240500D03*
X59880500Y20510500D03*
X59880500Y21780500D03*
X61150500Y17970500D03*
X61150500Y19240500D03*
X62420500Y19240500D03*
X62420500Y17970500D03*
X63690500Y17970500D03*
X63690500Y19240500D03*
X64960500Y19240500D03*
X64960500Y17970500D03*
X66230500Y17970500D03*
X66230500Y19240500D03*
X63690500Y20510500D03*
X62420500Y20510500D03*
X61150500Y20510500D03*
X61150500Y21780500D03*
X62420500Y21780500D03*
X63690500Y21780500D03*
X64960500Y21780500D03*
X64960500Y20510500D03*
X66230500Y20510500D03*
X66230500Y21780500D03*
X70675500Y14795500D03*
X70675500Y13525500D03*
X70675500Y12255500D03*
X70675500Y10985500D03*
X69405500Y14795500D03*
X69405500Y13525500D03*
X68135500Y13525500D03*
X68135500Y14795500D03*
X66865500Y14795500D03*
X66865500Y13525500D03*
X65595500Y13525500D03*
X65595500Y14795500D03*
X64325500Y14795500D03*
X64325500Y13525500D03*
X66865500Y12255500D03*
X68135500Y12255500D03*
X69405500Y12255500D03*
X69405500Y10985500D03*
X68135500Y10985500D03*
X66865500Y10985500D03*
X65595500Y10985500D03*
X65595500Y12255500D03*
X64325500Y12255500D03*
X64325500Y10985500D03*
D21*
X28956000Y42450000D03*
X28956000Y46450000D03*
X28956000Y35401500D03*
X28956000Y39401500D03*
X26733500Y39402000D03*
X26733500Y43402000D03*
X31305500Y35401500D03*
X31305500Y39401500D03*
X33655000Y35401500D03*
X33655000Y39401500D03*
D22*
X31591500Y43180000D03*
X35591500Y43180000D03*
D21*
X35877500Y45625000D03*
X35877500Y49625000D03*
D22*
X40227500Y45275500D03*
X44227500Y45275500D03*
X46069000Y15367000D03*
X42069000Y15367000D03*
X46069000Y19367500D03*
X42069000Y19367500D03*
X46069000Y21780500D03*
X42069000Y21780500D03*
X46069000Y25654000D03*
X42069000Y25654000D03*
X31274000Y57404000D03*
X35274000Y57404000D03*
D21*
X55118000Y10890500D03*
X55118000Y14890500D03*
D23*
X18669000Y42291000D03*
X18669000Y44831000D03*
X18669000Y47371000D03*
X18669000Y21971000D03*
X5969000Y52451000D03*
X5969000Y49911000D03*
X5969000Y47371000D03*
X5969000Y44831000D03*
X5969000Y42291000D03*
X5969000Y39751000D03*
X5969000Y37211000D03*
X5969000Y34671000D03*
X5969000Y32131000D03*
X5969000Y29591000D03*
X5969000Y27051000D03*
X5969000Y24511000D03*
X5969000Y21971000D03*
X21209000Y21971000D03*
X21209000Y24511000D03*
X21209000Y27051000D03*
X21209000Y29591000D03*
X21209000Y32131000D03*
X21209000Y34671000D03*
X21209000Y37211000D03*
X21209000Y39751000D03*
X21209000Y42291000D03*
X21209000Y44831000D03*
X21209000Y47371000D03*
X21209000Y49911000D03*
X21209000Y52451000D03*
X21209000Y54991000D03*
X5969000Y54991000D03*
D11*
X47561500Y33401000D03*
X47561500Y34671000D03*
X46291500Y34671000D03*
X46291500Y33401000D03*
X45021500Y33401000D03*
X45021500Y34671000D03*
X45021500Y39751000D03*
X45021500Y38481000D03*
X46291500Y38481000D03*
X46291500Y39751000D03*
X47561500Y39751000D03*
X47561500Y38481000D03*
X47561500Y35941000D03*
X47561500Y37211000D03*
X45021500Y37211000D03*
X45021500Y35941000D03*
X46291500Y35941000D03*
D24*
X42541500Y43326000D03*
X42541500Y42826000D03*
X42541500Y42326000D03*
X42541500Y41826000D03*
X42541500Y41326000D03*
X42541500Y40826000D03*
X42541500Y40326000D03*
X42541500Y39826000D03*
X42541500Y39326000D03*
X42541500Y38826000D03*
X42541500Y38326000D03*
X42541500Y37826000D03*
X42541500Y37326000D03*
X42541500Y36826000D03*
X42541500Y36326000D03*
X42541500Y35826000D03*
X42541500Y35326000D03*
X42541500Y34826000D03*
X42541500Y34326000D03*
X42541500Y33826000D03*
X42541500Y33326000D03*
X42541500Y32826000D03*
X42541500Y32326000D03*
X42541500Y31826000D03*
X42541500Y31326000D03*
X42541500Y30826000D03*
X42541500Y30326000D03*
X42541500Y29826000D03*
X50041500Y29826000D03*
X50041500Y30326000D03*
X50041500Y30826000D03*
X50041500Y31326000D03*
X50041500Y31826000D03*
X50041500Y32326000D03*
X50041500Y32826000D03*
X50041500Y33326000D03*
X50041500Y33826000D03*
X50041500Y34326000D03*
X50041500Y34826000D03*
X50041500Y35326000D03*
X50041500Y35826000D03*
X50041500Y36326000D03*
X50041500Y36826000D03*
X50041500Y37326000D03*
X50041500Y37826000D03*
X50041500Y38326000D03*
X50041500Y38826000D03*
X50041500Y39326000D03*
X50041500Y39826000D03*
X50041500Y40326000D03*
X50041500Y40826000D03*
X50041500Y41326000D03*
X50041500Y41826000D03*
X50041500Y42326000D03*
X50041500Y42826000D03*
X50041500Y43326000D03*
D11*
X46291500Y37211000D03*
D25*
X18161000Y14478000D03*
D26*
X18161000Y9478000D03*
D25*
X31496000Y14478000D03*
D26*
X31496000Y9478000D03*
D27*
X51079400Y26728400D03*
X51079400Y21328400D03*
D28*
X59944000Y60071000D03*
X3429000Y60071000D03*
X59944000Y3556000D03*
X3429000Y3556000D03*
D29*
X75819000Y43370500D03*
D30*
X77844000Y43370500D03*
X77250891Y41938609D03*
X75819000Y41345500D03*
X74387109Y41938609D03*
X73794000Y43370500D03*
X74387109Y44802391D03*
X75819000Y45395500D03*
X77250891Y44802391D03*
D29*
X75819000Y28130500D03*
D30*
X77844000Y28130500D03*
X77250891Y26698609D03*
X75819000Y26105500D03*
X74387109Y26698609D03*
X73794000Y28130500D03*
X74387109Y29562391D03*
X75819000Y30155500D03*
X77250891Y29562391D03*
D29*
X75819000Y12890500D03*
D30*
X77844000Y12890500D03*
X77250891Y11458609D03*
X75819000Y10865500D03*
X74387109Y11458609D03*
X73794000Y12890500D03*
X74387109Y14322391D03*
X75819000Y14915500D03*
X77250891Y14322391D03*
M02*
