G04 #@! TF.FileFunction,Copper,L2,Bot,Signal*
%FSLAX46Y46*%
G04 Gerber Fmt 4.6, Leading zero omitted, Abs format (unit mm)*
G04 Created by KiCad (PCBNEW 4.0.4-stable) date 08/21/17 00:53:09*
%MOMM*%
%LPD*%
G01*
G04 APERTURE LIST*
%ADD10C,0.100000*%
%ADD11R,1.270000X1.270000*%
%ADD12R,2.200000X1.200000*%
%ADD13R,2.000000X1.600000*%
%ADD14R,1.600000X2.000000*%
%ADD15R,1.700000X1.700000*%
%ADD16O,1.700000X1.700000*%
%ADD17C,5.999480*%
%ADD18R,2.000000X1.700000*%
%ADD19R,1.700000X2.000000*%
%ADD20C,1.750000*%
%ADD21R,4.600000X6.200000*%
%ADD22R,2.000000X1.000000*%
%ADD23R,2.400000X2.400000*%
%ADD24C,2.400000*%
%ADD25C,5.600000*%
%ADD26C,5.400000*%
%ADD27C,0.600000*%
%ADD28C,1.200000*%
%ADD29C,0.800000*%
%ADD30C,0.600000*%
%ADD31C,0.250000*%
%ADD32C,0.200000*%
G04 APERTURE END LIST*
D10*
D11*
X59880500Y33210500D03*
X59880500Y34480500D03*
X59880500Y35750500D03*
X59880500Y37020500D03*
X61150500Y33210500D03*
X61150500Y34480500D03*
X62420500Y34480500D03*
X62420500Y33210500D03*
X63690500Y33210500D03*
X63690500Y34480500D03*
X64960500Y34480500D03*
X64960500Y33210500D03*
X66230500Y33210500D03*
X66230500Y34480500D03*
X63690500Y35750500D03*
X62420500Y35750500D03*
X61150500Y35750500D03*
X61150500Y37020500D03*
X62420500Y37020500D03*
X63690500Y37020500D03*
X64960500Y37020500D03*
X64960500Y35750500D03*
X66230500Y35750500D03*
X66230500Y37020500D03*
D12*
X70430500Y37395500D03*
X70430500Y32835500D03*
D13*
X39909500Y34544000D03*
X35909500Y34544000D03*
D11*
X70675500Y45275500D03*
X70675500Y44005500D03*
X70675500Y42735500D03*
X70675500Y41465500D03*
X69405500Y45275500D03*
X69405500Y44005500D03*
X68135500Y44005500D03*
X68135500Y45275500D03*
X66865500Y45275500D03*
X66865500Y44005500D03*
X65595500Y44005500D03*
X65595500Y45275500D03*
X64325500Y45275500D03*
X64325500Y44005500D03*
X66865500Y42735500D03*
X68135500Y42735500D03*
X69405500Y42735500D03*
X69405500Y41465500D03*
X68135500Y41465500D03*
X66865500Y41465500D03*
X65595500Y41465500D03*
X65595500Y42735500D03*
X64325500Y42735500D03*
X64325500Y41465500D03*
D12*
X60125500Y41090500D03*
X60125500Y45650500D03*
D11*
X70675500Y30035500D03*
X70675500Y28765500D03*
X70675500Y27495500D03*
X70675500Y26225500D03*
X69405500Y30035500D03*
X69405500Y28765500D03*
X68135500Y28765500D03*
X68135500Y30035500D03*
X66865500Y30035500D03*
X66865500Y28765500D03*
X65595500Y28765500D03*
X65595500Y30035500D03*
X64325500Y30035500D03*
X64325500Y28765500D03*
X66865500Y27495500D03*
X68135500Y27495500D03*
X69405500Y27495500D03*
X69405500Y26225500D03*
X68135500Y26225500D03*
X66865500Y26225500D03*
X65595500Y26225500D03*
X65595500Y27495500D03*
X64325500Y27495500D03*
X64325500Y26225500D03*
D12*
X60125500Y25850500D03*
X60125500Y30410500D03*
D14*
X12827000Y50641000D03*
X12827000Y46641000D03*
D13*
X39909500Y32512000D03*
X35909500Y32512000D03*
D14*
X38227000Y37243000D03*
X38227000Y41243000D03*
D13*
X39909500Y30480000D03*
X35909500Y30480000D03*
D14*
X42608500Y38322000D03*
X42608500Y34322000D03*
D13*
X47339000Y23622000D03*
X43339000Y23622000D03*
X47339000Y21590000D03*
X43339000Y21590000D03*
X47339000Y19558000D03*
X43339000Y19558000D03*
X47339000Y17526000D03*
X43339000Y17526000D03*
X68307200Y50927000D03*
X72307200Y50927000D03*
D14*
X48260000Y43783000D03*
X48260000Y39783000D03*
X46355000Y43783000D03*
X46355000Y39783000D03*
X44450000Y43783000D03*
X44450000Y39783000D03*
D15*
X2921000Y24638000D03*
D16*
X2921000Y27178000D03*
X2921000Y29718000D03*
X2921000Y32258000D03*
X2921000Y34798000D03*
X2921000Y37338000D03*
D17*
X8382000Y8255000D03*
X8509000Y14986000D03*
D15*
X26416000Y52451000D03*
D16*
X26416000Y54991000D03*
D15*
X2921000Y54991000D03*
D16*
X2921000Y52451000D03*
X2921000Y49911000D03*
D15*
X2921000Y42164000D03*
D16*
X2921000Y44704000D03*
X2921000Y47244000D03*
D11*
X59880500Y48450500D03*
X59880500Y49720500D03*
X59880500Y50990500D03*
X59880500Y52260500D03*
X61150500Y48450500D03*
X61150500Y49720500D03*
X62420500Y49720500D03*
X62420500Y48450500D03*
X63690500Y48450500D03*
X63690500Y49720500D03*
X64960500Y49720500D03*
X64960500Y48450500D03*
X66230500Y48450500D03*
X66230500Y49720500D03*
X63690500Y50990500D03*
X62420500Y50990500D03*
X61150500Y50990500D03*
X61150500Y52260500D03*
X62420500Y52260500D03*
X63690500Y52260500D03*
X64960500Y52260500D03*
X64960500Y50990500D03*
X66230500Y50990500D03*
X66230500Y52260500D03*
D12*
X70430500Y52635500D03*
X70430500Y48075500D03*
D11*
X59880500Y17970500D03*
X59880500Y19240500D03*
X59880500Y20510500D03*
X59880500Y21780500D03*
X61150500Y17970500D03*
X61150500Y19240500D03*
X62420500Y19240500D03*
X62420500Y17970500D03*
X63690500Y17970500D03*
X63690500Y19240500D03*
X64960500Y19240500D03*
X64960500Y17970500D03*
X66230500Y17970500D03*
X66230500Y19240500D03*
X63690500Y20510500D03*
X62420500Y20510500D03*
X61150500Y20510500D03*
X61150500Y21780500D03*
X62420500Y21780500D03*
X63690500Y21780500D03*
X64960500Y21780500D03*
X64960500Y20510500D03*
X66230500Y20510500D03*
X66230500Y21780500D03*
D12*
X70430500Y22155500D03*
X70430500Y17595500D03*
D11*
X70675500Y14795500D03*
X70675500Y13525500D03*
X70675500Y12255500D03*
X70675500Y10985500D03*
X69405500Y14795500D03*
X69405500Y13525500D03*
X68135500Y13525500D03*
X68135500Y14795500D03*
X66865500Y14795500D03*
X66865500Y13525500D03*
X65595500Y13525500D03*
X65595500Y14795500D03*
X64325500Y14795500D03*
X64325500Y13525500D03*
X66865500Y12255500D03*
X68135500Y12255500D03*
X69405500Y12255500D03*
X69405500Y10985500D03*
X68135500Y10985500D03*
X66865500Y10985500D03*
X65595500Y10985500D03*
X65595500Y12255500D03*
X64325500Y12255500D03*
X64325500Y10985500D03*
D12*
X60125500Y10610500D03*
X60125500Y15170500D03*
D18*
X12795000Y42799000D03*
X8795000Y42799000D03*
D19*
X57340500Y52990500D03*
X57340500Y48990500D03*
X54991000Y41814500D03*
X54991000Y37814500D03*
D18*
X51606200Y57810400D03*
X47606200Y57810400D03*
X47606200Y59944000D03*
X51606200Y59944000D03*
D19*
X57340500Y37750500D03*
X57340500Y33750500D03*
X53276500Y19526500D03*
X53276500Y23526500D03*
D18*
X51657000Y52476400D03*
X47657000Y52476400D03*
X47657000Y54610000D03*
X51657000Y54610000D03*
D19*
X57340500Y22510500D03*
X57340500Y18510500D03*
D18*
X47389800Y6324600D03*
X43389800Y6324600D03*
X43389800Y8432800D03*
X47389800Y8432800D03*
D20*
X18669000Y42291000D03*
X18669000Y44831000D03*
X18669000Y47371000D03*
X18669000Y21971000D03*
X5969000Y52451000D03*
X5969000Y49911000D03*
X5969000Y47371000D03*
X5969000Y44831000D03*
X5969000Y42291000D03*
X5969000Y39751000D03*
X5969000Y37211000D03*
X5969000Y34671000D03*
X5969000Y32131000D03*
X5969000Y29591000D03*
X5969000Y27051000D03*
X5969000Y24511000D03*
X5969000Y21971000D03*
X21209000Y21971000D03*
X21209000Y24511000D03*
X21209000Y27051000D03*
X21209000Y29591000D03*
X21209000Y32131000D03*
X21209000Y34671000D03*
X21209000Y37211000D03*
X21209000Y39751000D03*
X21209000Y42291000D03*
X21209000Y44831000D03*
X21209000Y47371000D03*
X21209000Y49911000D03*
X21209000Y52451000D03*
X21209000Y54991000D03*
X5969000Y54991000D03*
D11*
X47561500Y33401000D03*
X47561500Y34671000D03*
X46291500Y34671000D03*
X46291500Y33401000D03*
X45021500Y33401000D03*
X45021500Y34671000D03*
X45021500Y39751000D03*
X45021500Y38481000D03*
X46291500Y38481000D03*
X46291500Y39751000D03*
X47561500Y39751000D03*
X47561500Y38481000D03*
X47561500Y35941000D03*
X47561500Y37211000D03*
X45021500Y37211000D03*
X45021500Y35941000D03*
X46291500Y35941000D03*
X46291500Y37211000D03*
D21*
X54720500Y28130500D03*
X44720500Y28130500D03*
D22*
X52375500Y28130500D03*
X47065500Y28130500D03*
D21*
X54720500Y12890500D03*
X44720500Y12890500D03*
D22*
X52375500Y12890500D03*
X47065500Y12890500D03*
D23*
X18161000Y14478000D03*
D24*
X18161000Y9478000D03*
D23*
X31496000Y14478000D03*
D24*
X31496000Y9478000D03*
D14*
X40259000Y37243000D03*
X40259000Y41243000D03*
D13*
X68383400Y35229800D03*
X72383400Y35229800D03*
X68383400Y19913600D03*
X72383400Y19913600D03*
D25*
X59944000Y60071000D03*
X3429000Y60071000D03*
X59944000Y3556000D03*
X3429000Y3556000D03*
D26*
X75819000Y43370500D03*
D27*
X77844000Y43370500D03*
X77250891Y41938609D03*
X75819000Y41345500D03*
X74387109Y41938609D03*
X73794000Y43370500D03*
X74387109Y44802391D03*
X75819000Y45395500D03*
X77250891Y44802391D03*
D26*
X75819000Y28130500D03*
D27*
X77844000Y28130500D03*
X77250891Y26698609D03*
X75819000Y26105500D03*
X74387109Y26698609D03*
X73794000Y28130500D03*
X74387109Y29562391D03*
X75819000Y30155500D03*
X77250891Y29562391D03*
D26*
X75819000Y12890500D03*
D27*
X77844000Y12890500D03*
X77250891Y11458609D03*
X75819000Y10865500D03*
X74387109Y11458609D03*
X73794000Y12890500D03*
X74387109Y14322391D03*
X75819000Y14915500D03*
X77250891Y14322391D03*
D28*
X49466500Y28575000D03*
X51371500Y43624500D03*
X51079400Y21328400D03*
X33655000Y49625000D03*
X59563000Y45656500D03*
X36155000Y54356000D03*
X28956000Y33528000D03*
X40259000Y49689000D03*
X42735500Y50459000D03*
X46131500Y49911000D03*
D29*
X39878000Y29781500D03*
X17907000Y24511000D03*
X60007500Y10541000D03*
X56184800Y46253400D03*
X58674000Y42481500D03*
X57632600Y46990000D03*
X54673500Y34671000D03*
X51244500Y36068000D03*
X15875000Y54483000D03*
X9169400Y49885600D03*
X9169400Y45872400D03*
X19126200Y34848800D03*
X8153400Y46278800D03*
X8839200Y54686200D03*
X19913600Y56083200D03*
X36906200Y10896600D03*
X29210000Y48260000D03*
X49530000Y47625000D03*
X51498500Y30797500D03*
X52895500Y34417000D03*
X40563800Y38938200D03*
X38925500Y32639000D03*
X40513000Y37655500D03*
X43789600Y37007800D03*
X43688000Y34798000D03*
X15621000Y28397200D03*
X9906000Y40513000D03*
X44907200Y41630600D03*
X57340500Y48895000D03*
X54864000Y37528500D03*
X48895000Y36068000D03*
X48895000Y32639000D03*
X57404000Y18351500D03*
X27305000Y46672500D03*
X38862000Y39649400D03*
X36703000Y37719000D03*
X36766500Y36576000D03*
X35687000Y38036500D03*
X27305000Y45593000D03*
X38036500Y39116000D03*
X35623500Y39116000D03*
X10795000Y41402000D03*
X43878500Y41973500D03*
X48006000Y26733500D03*
X51498500Y29337000D03*
X51308000Y35052000D03*
X54673500Y17335500D03*
X49085500Y18796000D03*
X50419000Y14922500D03*
D30*
X66230500Y19316700D02*
X66827400Y19913600D01*
X66827400Y19913600D02*
X68383400Y19913600D01*
X68383400Y19913600D02*
X66827400Y19913600D01*
X66827400Y19913600D02*
X66230500Y20510500D01*
X66230500Y49720500D02*
X66255900Y49720500D01*
X66255900Y49720500D02*
X66878200Y50342800D01*
X66878200Y50342800D02*
X68383400Y50342800D01*
X68383400Y50342800D02*
X66878200Y50342800D01*
X66878200Y50342800D02*
X66230500Y50990500D01*
X66230500Y34480500D02*
X66230500Y34709100D01*
X66230500Y34709100D02*
X66751200Y35229800D01*
X66751200Y35229800D02*
X68383400Y35229800D01*
X68383400Y35229800D02*
X66751200Y35229800D01*
X66751200Y35229800D02*
X66230500Y35750500D01*
X66230500Y19240500D02*
X66230500Y19316700D01*
X47339000Y23622000D02*
X47942500Y23622000D01*
X47942500Y23622000D02*
X49466500Y25146000D01*
X49466500Y25146000D02*
X49466500Y28575000D01*
X48260000Y43783000D02*
X51213000Y43783000D01*
X51213000Y43783000D02*
X51371500Y43624500D01*
X47339000Y23622000D02*
X47339000Y21590000D01*
X47339000Y21590000D02*
X47339000Y19558000D01*
X47339000Y19558000D02*
X47339000Y17526000D01*
X47339000Y23622000D02*
X48133000Y23622000D01*
X44450000Y43783000D02*
X46355000Y43783000D01*
X46355000Y43783000D02*
X48260000Y43783000D01*
X48260000Y43783000D02*
X48387000Y43656000D01*
X51079400Y21328400D02*
X51079400Y21336000D01*
X33655000Y49625000D02*
X33655000Y49631600D01*
X44720500Y11985000D02*
X44720500Y12890500D01*
D31*
X59563000Y45656500D02*
X59569000Y45650500D01*
X59569000Y45650500D02*
X60125500Y45650500D01*
D30*
X36155000Y54356000D02*
X36195000Y54356000D01*
X40259000Y49689000D02*
X40259000Y49720500D01*
X42735500Y50459000D02*
X42735500Y50482500D01*
X46131500Y49911000D02*
X46164500Y49911000D01*
D31*
X39878000Y29781500D02*
X39909500Y29813000D01*
X39909500Y29813000D02*
X39909500Y30480000D01*
X40259000Y30480000D02*
X39909500Y30480000D01*
X2921000Y29718000D02*
X3683000Y29718000D01*
X3683000Y29718000D02*
X4826000Y30861000D01*
X4826000Y30861000D02*
X11557000Y30861000D01*
X11557000Y30861000D02*
X17907000Y24511000D01*
X57340500Y52990500D02*
X58324500Y52990500D01*
X69408500Y53657500D02*
X70430500Y52635500D01*
X58991500Y53657500D02*
X69408500Y53657500D01*
X58324500Y52990500D02*
X58991500Y53657500D01*
X57340500Y52990500D02*
X58070500Y52990500D01*
X60125500Y41090500D02*
X55715000Y41090500D01*
X55715000Y41090500D02*
X54991000Y41814500D01*
X59877500Y41338500D02*
X60125500Y41090500D01*
X57340500Y37750500D02*
X58070500Y37750500D01*
X58070500Y37750500D02*
X58610500Y38290500D01*
X58610500Y38290500D02*
X69535500Y38290500D01*
X69535500Y38290500D02*
X70430500Y37395500D01*
X60125500Y25850500D02*
X58997500Y25850500D01*
X54800500Y21050500D02*
X53276500Y19526500D01*
X54800500Y22987000D02*
X54800500Y21050500D01*
X55943500Y24130000D02*
X54800500Y22987000D01*
X57277000Y24130000D02*
X55943500Y24130000D01*
X58997500Y25850500D02*
X57277000Y24130000D01*
X57340500Y22510500D02*
X58070500Y22510500D01*
X58070500Y22510500D02*
X58737500Y23177500D01*
X58737500Y23177500D02*
X69408500Y23177500D01*
X69408500Y23177500D02*
X70430500Y22155500D01*
X60007500Y10541000D02*
X60077000Y10610500D01*
X60077000Y10610500D02*
X60125500Y10610500D01*
X51606200Y57810400D02*
X53187600Y57810400D01*
X55041800Y47396400D02*
X56184800Y46253400D01*
X55041800Y55956200D02*
X55041800Y47396400D01*
X53187600Y57810400D02*
X55041800Y55956200D01*
X58928000Y42735500D02*
X64325500Y42735500D01*
X58674000Y42481500D02*
X58928000Y42735500D01*
X52730400Y52476400D02*
X51657000Y52476400D01*
X54508400Y50698400D02*
X52730400Y52476400D01*
X54508400Y46634400D02*
X54508400Y50698400D01*
X55778400Y45364400D02*
X54508400Y46634400D01*
X56489600Y45364400D02*
X55778400Y45364400D01*
X57073800Y45948600D02*
X56489600Y45364400D01*
X57073800Y46431200D02*
X57073800Y45948600D01*
X57632600Y46990000D02*
X57073800Y46431200D01*
X53149500Y36195000D02*
X54673500Y34671000D01*
X51371500Y36195000D02*
X53149500Y36195000D01*
X51244500Y36068000D02*
X51371500Y36195000D01*
X64325500Y10985500D02*
X63690500Y10985500D01*
X63690500Y10985500D02*
X60579000Y7874000D01*
X49504600Y6324600D02*
X47389800Y6324600D01*
X51054000Y7874000D02*
X49504600Y6324600D01*
X60579000Y7874000D02*
X51054000Y7874000D01*
X64325500Y10985500D02*
X64325500Y10782300D01*
X64325500Y10985500D02*
X64325500Y10629900D01*
X16129000Y54737000D02*
X16129000Y56819800D01*
X15875000Y54483000D02*
X16129000Y54737000D01*
X9169400Y49885600D02*
X9169400Y45872400D01*
X47606200Y59944000D02*
X47606200Y57810400D01*
X47606200Y57810400D02*
X46615600Y56819800D01*
X46615600Y56819800D02*
X16129000Y56819800D01*
X16129000Y56819800D02*
X16103600Y56819800D01*
X47657000Y52476400D02*
X45720000Y52476400D01*
X19304000Y34671000D02*
X21209000Y34671000D01*
X19126200Y34848800D02*
X19304000Y34671000D01*
X8153400Y54000400D02*
X8153400Y46278800D01*
X8839200Y54686200D02*
X8153400Y54000400D01*
X20116800Y56286400D02*
X19913600Y56083200D01*
X41910000Y56286400D02*
X20116800Y56286400D01*
X45720000Y52476400D02*
X41910000Y56286400D01*
X47657000Y54610000D02*
X47657000Y52476400D01*
X43389800Y6324600D02*
X43389800Y8432800D01*
X43389800Y8432800D02*
X43364400Y8458200D01*
X43364400Y8458200D02*
X39344600Y8458200D01*
X39344600Y8458200D02*
X36906200Y10896600D01*
X30480000Y48260000D02*
X29210000Y48260000D01*
X31115000Y47625000D02*
X30480000Y48260000D01*
X49530000Y47625000D02*
X31115000Y47625000D01*
X51498500Y33020000D02*
X51498500Y30797500D01*
X52895500Y34417000D02*
X51498500Y33020000D01*
X12795000Y42799000D02*
X18161000Y42799000D01*
X18161000Y42799000D02*
X18669000Y42291000D01*
X12827000Y46641000D02*
X12827000Y42831000D01*
X12827000Y42831000D02*
X12795000Y42799000D01*
X40919400Y32512000D02*
X39909500Y32512000D01*
X41376600Y32969200D02*
X40919400Y32512000D01*
X41376600Y38481000D02*
X41376600Y32969200D01*
X41275000Y38582600D02*
X41376600Y38481000D01*
X40919400Y38582600D02*
X41275000Y38582600D01*
X40563800Y38938200D02*
X40919400Y38582600D01*
X40830500Y32512000D02*
X39909500Y32512000D01*
X38925500Y32639000D02*
X39052500Y32512000D01*
D30*
X39052500Y32512000D02*
X39909500Y32512000D01*
D31*
X39909500Y32162500D02*
X39909500Y32512000D01*
D30*
X39909500Y32544000D02*
X39909500Y34544000D01*
D31*
X40513000Y37655500D02*
X40259000Y37401500D01*
X40259000Y37401500D02*
X40259000Y37243000D01*
D30*
X40227000Y37243000D02*
X38227000Y37243000D01*
D31*
X43815000Y37115500D02*
X42608500Y38322000D01*
X43815000Y37033200D02*
X43815000Y37115500D01*
X43789600Y37007800D02*
X43815000Y37033200D01*
X43275500Y38322000D02*
X42608500Y38322000D01*
X43688000Y34798000D02*
X43212000Y34322000D01*
X43212000Y34322000D02*
X42608500Y34322000D01*
X16967200Y27051000D02*
X21209000Y27051000D01*
X15621000Y28397200D02*
X16967200Y27051000D01*
X9906000Y41478200D02*
X9906000Y40513000D01*
X10160000Y41732200D02*
X9906000Y41478200D01*
X10160000Y44221400D02*
X10160000Y41732200D01*
X10058400Y44323000D02*
X10160000Y44221400D01*
X10058400Y48641000D02*
X10058400Y44323000D01*
X10617200Y49199800D02*
X10058400Y48641000D01*
X15138400Y49199800D02*
X10617200Y49199800D01*
X17094200Y51155600D02*
X15138400Y49199800D01*
X28549600Y51155600D02*
X17094200Y51155600D01*
X31369000Y48336200D02*
X28549600Y51155600D01*
X50190400Y48336200D02*
X31369000Y48336200D01*
X52501800Y46024800D02*
X50190400Y48336200D01*
X52501800Y43103800D02*
X52501800Y46024800D01*
X51511200Y42113200D02*
X52501800Y43103800D01*
X45389800Y42113200D02*
X51511200Y42113200D01*
X44907200Y41630600D02*
X45389800Y42113200D01*
X2921000Y52451000D02*
X2794000Y52451000D01*
X2794000Y52451000D02*
X1397000Y51054000D01*
X1397000Y46228000D02*
X2921000Y44704000D01*
X1397000Y51054000D02*
X1397000Y46228000D01*
X2921000Y44704000D02*
X3556000Y44704000D01*
X2921000Y44704000D02*
X3302000Y44704000D01*
X57340500Y48895000D02*
X57340500Y48990500D01*
X54864000Y37528500D02*
X54991000Y37655500D01*
X54991000Y37655500D02*
X54991000Y37814500D01*
X55658000Y35433000D02*
X57340500Y33750500D01*
X54737000Y35433000D02*
X55658000Y35433000D01*
X53340000Y36830000D02*
X54737000Y35433000D01*
X49657000Y36830000D02*
X53340000Y36830000D01*
X48895000Y36068000D02*
X49657000Y36830000D01*
X56610000Y33750500D02*
X57340500Y33750500D01*
X52229000Y23526500D02*
X53276500Y23526500D01*
X50673000Y25082500D02*
X52229000Y23526500D01*
X50673000Y30861000D02*
X50673000Y25082500D01*
X48895000Y32639000D02*
X50673000Y30861000D01*
X57404000Y18351500D02*
X57340500Y18415000D01*
X57340500Y18415000D02*
X57340500Y18510500D01*
X37084000Y39878000D02*
X33337500Y43624500D01*
X30289500Y46672500D02*
X27305000Y46672500D01*
X33337500Y43624500D02*
X30289500Y46672500D01*
X38633400Y39878000D02*
X37084000Y39878000D01*
X38862000Y39649400D02*
X38633400Y39878000D01*
X13144500Y41021000D02*
X11493500Y41021000D01*
X36703000Y37719000D02*
X36258500Y37274500D01*
X36258500Y37274500D02*
X35369500Y37274500D01*
X35369500Y37274500D02*
X31623000Y41021000D01*
X31623000Y41021000D02*
X13144500Y41021000D01*
X10223500Y39751000D02*
X5969000Y39751000D01*
X11493500Y41021000D02*
X10223500Y39751000D01*
X10985500Y37211000D02*
X5969000Y37211000D01*
X12319000Y38544500D02*
X10985500Y37211000D01*
X33020000Y38544500D02*
X12319000Y38544500D01*
X34734500Y36830000D02*
X33020000Y38544500D01*
X36512500Y36830000D02*
X34734500Y36830000D01*
X36766500Y36576000D02*
X36512500Y36830000D01*
X35687000Y38036500D02*
X29591000Y44132500D01*
X29591000Y44132500D02*
X23050500Y44132500D01*
X21209000Y42291000D02*
X23050500Y44132500D01*
X38036500Y39116000D02*
X37769800Y39116000D01*
X36766500Y39370000D02*
X30543500Y45593000D01*
X30543500Y45593000D02*
X27305000Y45593000D01*
X37515800Y39370000D02*
X36766500Y39370000D01*
X37769800Y39116000D02*
X37515800Y39370000D01*
X38036500Y39116000D02*
X37909500Y38989000D01*
X35623500Y39116000D02*
X29972000Y44767500D01*
X29972000Y44767500D02*
X27114500Y44767500D01*
X27114500Y44767500D02*
X24511000Y47371000D01*
X21209000Y47371000D02*
X24511000Y47371000D01*
X43878500Y41973500D02*
X38798500Y47053500D01*
X38798500Y47053500D02*
X30797500Y47053500D01*
X30797500Y47053500D02*
X30353000Y47498000D01*
X30353000Y47498000D02*
X27114500Y47498000D01*
X27114500Y47498000D02*
X25971500Y48641000D01*
X25971500Y48641000D02*
X11430000Y48641000D01*
X11430000Y48641000D02*
X10795000Y48006000D01*
X10795000Y48006000D02*
X10795000Y41402000D01*
X47815500Y28130500D02*
X47815500Y26924000D01*
X47815500Y26924000D02*
X48006000Y26733500D01*
X51625500Y28130500D02*
X51625500Y29210000D01*
X51625500Y29210000D02*
X51498500Y29337000D01*
X58532000Y32004000D02*
X60125500Y30410500D01*
X56324500Y32004000D02*
X58532000Y32004000D01*
X53149500Y35179000D02*
X56324500Y32004000D01*
X51435000Y35179000D02*
X53149500Y35179000D01*
X51308000Y35052000D02*
X51435000Y35179000D01*
X60077000Y30410500D02*
X60125500Y30410500D01*
X59950000Y30410500D02*
X60125500Y30410500D01*
X58595500Y16700500D02*
X60125500Y15170500D01*
X55308500Y16700500D02*
X58595500Y16700500D01*
X54673500Y17335500D02*
X55308500Y16700500D01*
X47815500Y12890500D02*
X47815500Y15176500D01*
X49085500Y16446500D02*
X49085500Y18796000D01*
X47815500Y15176500D02*
X49085500Y16446500D01*
X51625500Y12890500D02*
X51625500Y13716000D01*
X51625500Y13716000D02*
X50419000Y14922500D01*
X8795000Y42799000D02*
X8795000Y44164000D01*
X4064000Y46101000D02*
X2921000Y47244000D01*
X6858000Y46101000D02*
X4064000Y46101000D01*
X8795000Y44164000D02*
X6858000Y46101000D01*
X8033000Y43561000D02*
X8795000Y42799000D01*
D32*
G36*
X23649000Y57294800D02*
X16103600Y57294800D01*
X15921825Y57258643D01*
X15767724Y57155676D01*
X15664757Y57001575D01*
X15628600Y56819800D01*
X15654000Y56692105D01*
X15654000Y55203186D01*
X15450714Y55119189D01*
X15239552Y54908395D01*
X15125131Y54632839D01*
X15124870Y54334470D01*
X15238811Y54058714D01*
X15449605Y53847552D01*
X15725161Y53733131D01*
X16023530Y53732870D01*
X16299286Y53846811D01*
X16510448Y54057605D01*
X16624869Y54333161D01*
X16625130Y54631530D01*
X16596705Y54700324D01*
X16604000Y54737000D01*
X16604000Y56344800D01*
X19210138Y56344800D01*
X19163731Y56233039D01*
X19163470Y55934670D01*
X19277411Y55658914D01*
X19488205Y55447752D01*
X19763761Y55333331D01*
X20024643Y55333103D01*
X19984213Y55235737D01*
X19983788Y54748401D01*
X20169890Y54298000D01*
X20514187Y53953101D01*
X20964263Y53766213D01*
X21451599Y53765788D01*
X21902000Y53951890D01*
X22246899Y54296187D01*
X22433787Y54746263D01*
X22434212Y55233599D01*
X22248110Y55684000D01*
X22120932Y55811400D01*
X23649000Y55811400D01*
X23649000Y51630600D01*
X22064758Y51630600D01*
X22020578Y51674780D01*
X22192702Y51767200D01*
X22379501Y52195698D01*
X22388102Y52663063D01*
X22217195Y53098143D01*
X22192702Y53134800D01*
X22020576Y53227221D01*
X21244355Y52451000D01*
X21258498Y52436857D01*
X21223143Y52401502D01*
X21209000Y52415645D01*
X21194858Y52401502D01*
X21159503Y52436857D01*
X21173645Y52451000D01*
X20397424Y53227221D01*
X20225298Y53134800D01*
X20038499Y52706302D01*
X20029898Y52238937D01*
X20200805Y51803857D01*
X20225298Y51767200D01*
X20397422Y51674780D01*
X20353242Y51630600D01*
X17094200Y51630600D01*
X16912425Y51594443D01*
X16814483Y51529000D01*
X16758324Y51491476D01*
X14941648Y49674800D01*
X13927000Y49674800D01*
X13927000Y50541000D01*
X13852000Y50616000D01*
X12852000Y50616000D01*
X12852000Y50596000D01*
X12802000Y50596000D01*
X12802000Y50616000D01*
X11802000Y50616000D01*
X11727000Y50541000D01*
X11727000Y49674800D01*
X10617205Y49674800D01*
X10617200Y49674801D01*
X10435426Y49638644D01*
X10435424Y49638643D01*
X10435425Y49638643D01*
X10281324Y49535676D01*
X10281322Y49535673D01*
X9722524Y48976876D01*
X9644400Y48859955D01*
X9644400Y49300037D01*
X9804848Y49460205D01*
X9919269Y49735761D01*
X9919530Y50034130D01*
X9805589Y50309886D01*
X9594795Y50521048D01*
X9319239Y50635469D01*
X9020870Y50635730D01*
X8745114Y50521789D01*
X8628400Y50405278D01*
X8628400Y51700674D01*
X11727000Y51700674D01*
X11727000Y50741000D01*
X11802000Y50666000D01*
X12802000Y50666000D01*
X12802000Y51866000D01*
X12852000Y51866000D01*
X12852000Y50666000D01*
X13852000Y50666000D01*
X13927000Y50741000D01*
X13927000Y51700674D01*
X13881328Y51810937D01*
X13796936Y51895328D01*
X13686673Y51941000D01*
X12927000Y51941000D01*
X12852000Y51866000D01*
X12802000Y51866000D01*
X12727000Y51941000D01*
X11967327Y51941000D01*
X11857064Y51895328D01*
X11772672Y51810937D01*
X11727000Y51700674D01*
X8628400Y51700674D01*
X8628400Y53262576D01*
X20432779Y53262576D01*
X21209000Y52486355D01*
X21985221Y53262576D01*
X21892800Y53434702D01*
X21464302Y53621501D01*
X20996937Y53630102D01*
X20561857Y53459195D01*
X20525200Y53434702D01*
X20432779Y53262576D01*
X8628400Y53262576D01*
X8628400Y53803648D01*
X8761020Y53936268D01*
X8987730Y53936070D01*
X9263486Y54050011D01*
X9474648Y54260805D01*
X9589069Y54536361D01*
X9589330Y54834730D01*
X9475389Y55110486D01*
X9264595Y55321648D01*
X8989039Y55436069D01*
X8690670Y55436330D01*
X8414914Y55322389D01*
X8203752Y55111595D01*
X8089331Y54836039D01*
X8089131Y54607883D01*
X7817524Y54336276D01*
X7714557Y54182175D01*
X7678400Y54000400D01*
X7678400Y46864363D01*
X7517952Y46704195D01*
X7403531Y46428639D01*
X7403355Y46227397D01*
X7193876Y46436876D01*
X7039775Y46539843D01*
X6898472Y46567950D01*
X7006899Y46676187D01*
X7193787Y47126263D01*
X7194212Y47613599D01*
X7008110Y48064000D01*
X6663813Y48408899D01*
X6213737Y48595787D01*
X5726401Y48596212D01*
X5276000Y48410110D01*
X4931101Y48065813D01*
X4744213Y47615737D01*
X4743788Y47128401D01*
X4929890Y46678000D01*
X5031712Y46576000D01*
X4260752Y46576000D01*
X4052687Y46784065D01*
X4053164Y46784780D01*
X4144509Y47244000D01*
X4053164Y47703220D01*
X3793037Y48092528D01*
X3403729Y48352655D01*
X2944509Y48444000D01*
X2897491Y48444000D01*
X2438271Y48352655D01*
X2048963Y48092528D01*
X1872000Y47827684D01*
X1872000Y49327316D01*
X2048963Y49062472D01*
X2438271Y48802345D01*
X2897491Y48711000D01*
X2944509Y48711000D01*
X3403729Y48802345D01*
X3793037Y49062472D01*
X4053164Y49451780D01*
X4096252Y49668401D01*
X4743788Y49668401D01*
X4929890Y49218000D01*
X5274187Y48873101D01*
X5724263Y48686213D01*
X6211599Y48685788D01*
X6662000Y48871890D01*
X7006899Y49216187D01*
X7193787Y49666263D01*
X7194212Y50153599D01*
X7008110Y50604000D01*
X6663813Y50948899D01*
X6213737Y51135787D01*
X5726401Y51136212D01*
X5276000Y50950110D01*
X4931101Y50605813D01*
X4744213Y50155737D01*
X4743788Y49668401D01*
X4096252Y49668401D01*
X4144509Y49911000D01*
X4053164Y50370220D01*
X3793037Y50759528D01*
X3403729Y51019655D01*
X2944509Y51111000D01*
X2897491Y51111000D01*
X2438271Y51019655D01*
X2048963Y50759528D01*
X1872000Y50494684D01*
X1872000Y50857248D01*
X2389610Y51374859D01*
X2438271Y51342345D01*
X2897491Y51251000D01*
X2944509Y51251000D01*
X3403729Y51342345D01*
X3793037Y51602472D01*
X4053164Y51991780D01*
X4096252Y52208401D01*
X4743788Y52208401D01*
X4929890Y51758000D01*
X5274187Y51413101D01*
X5724263Y51226213D01*
X6211599Y51225788D01*
X6662000Y51411890D01*
X7006899Y51756187D01*
X7193787Y52206263D01*
X7194212Y52693599D01*
X7008110Y53144000D01*
X6663813Y53488899D01*
X6213737Y53675787D01*
X5726401Y53676212D01*
X5276000Y53490110D01*
X4931101Y53145813D01*
X4744213Y52695737D01*
X4743788Y52208401D01*
X4096252Y52208401D01*
X4144509Y52451000D01*
X4053164Y52910220D01*
X3793037Y53299528D01*
X3403729Y53559655D01*
X2944509Y53651000D01*
X2897491Y53651000D01*
X2438271Y53559655D01*
X2048963Y53299528D01*
X1788836Y52910220D01*
X1697491Y52451000D01*
X1767963Y52096715D01*
X1061124Y51389876D01*
X958157Y51235775D01*
X922000Y51054000D01*
X922000Y46228000D01*
X958157Y46046225D01*
X1061124Y45892124D01*
X1789314Y45163935D01*
X1788836Y45163220D01*
X1697491Y44704000D01*
X1788836Y44244780D01*
X2048963Y43855472D01*
X2438271Y43595345D01*
X2897491Y43504000D01*
X2944509Y43504000D01*
X3403729Y43595345D01*
X3793037Y43855472D01*
X4053164Y44244780D01*
X4144509Y44704000D01*
X4053164Y45163220D01*
X3793037Y45552528D01*
X3403729Y45812655D01*
X2944509Y45904000D01*
X2897491Y45904000D01*
X2476494Y45820258D01*
X1872000Y46424752D01*
X1872000Y46660316D01*
X2048963Y46395472D01*
X2438271Y46135345D01*
X2897491Y46044000D01*
X2944509Y46044000D01*
X3365506Y46127742D01*
X3728124Y45765124D01*
X3882225Y45662157D01*
X4064000Y45626000D01*
X5031463Y45626000D01*
X4931101Y45525813D01*
X4744213Y45075737D01*
X4743788Y44588401D01*
X4929890Y44138000D01*
X5274187Y43793101D01*
X5724263Y43606213D01*
X6211599Y43605788D01*
X6662000Y43791890D01*
X7006899Y44136187D01*
X7193787Y44586263D01*
X7194212Y45073599D01*
X7180526Y45106723D01*
X8281393Y44005856D01*
X8184545Y44005856D01*
X8033000Y44036000D01*
X7881455Y44005856D01*
X7795000Y44005856D01*
X7665298Y43981451D01*
X7546175Y43904797D01*
X7466259Y43787837D01*
X7438144Y43649000D01*
X7438144Y41949000D01*
X7462549Y41819298D01*
X7539203Y41700175D01*
X7656163Y41620259D01*
X7795000Y41592144D01*
X9453665Y41592144D01*
X9431000Y41478200D01*
X9431000Y41098563D01*
X9270552Y40938395D01*
X9156131Y40662839D01*
X9155870Y40364470D01*
X9213085Y40226000D01*
X7098186Y40226000D01*
X7008110Y40444000D01*
X6663813Y40788899D01*
X6213737Y40975787D01*
X5726401Y40976212D01*
X5276000Y40790110D01*
X4931101Y40445813D01*
X4744213Y39995737D01*
X4743788Y39508401D01*
X4929890Y39058000D01*
X5274187Y38713101D01*
X5724263Y38526213D01*
X6211599Y38525788D01*
X6662000Y38711890D01*
X7006899Y39056187D01*
X7098173Y39276000D01*
X10223500Y39276000D01*
X10405275Y39312157D01*
X10559376Y39415124D01*
X11690252Y40546000D01*
X20271463Y40546000D01*
X20171101Y40445813D01*
X19984213Y39995737D01*
X19983788Y39508401D01*
X20169890Y39058000D01*
X20208323Y39019500D01*
X12319005Y39019500D01*
X12319000Y39019501D01*
X12167384Y38989342D01*
X12137225Y38983343D01*
X11999024Y38891000D01*
X11983124Y38880376D01*
X10788748Y37686000D01*
X7098186Y37686000D01*
X7008110Y37904000D01*
X6663813Y38248899D01*
X6213737Y38435787D01*
X5726401Y38436212D01*
X5276000Y38250110D01*
X4931101Y37905813D01*
X4744213Y37455737D01*
X4743788Y36968401D01*
X4929890Y36518000D01*
X5274187Y36173101D01*
X5724263Y35986213D01*
X6211599Y35985788D01*
X6662000Y36171890D01*
X7006899Y36516187D01*
X7098173Y36736000D01*
X10985500Y36736000D01*
X11167275Y36772157D01*
X11321376Y36875124D01*
X12515752Y38069500D01*
X20335074Y38069500D01*
X20171101Y37905813D01*
X19984213Y37455737D01*
X19983788Y36968401D01*
X20169890Y36518000D01*
X20514187Y36173101D01*
X20964263Y35986213D01*
X21451599Y35985788D01*
X21902000Y36171890D01*
X22246899Y36516187D01*
X22433787Y36966263D01*
X22434212Y37453599D01*
X22248110Y37904000D01*
X22082899Y38069500D01*
X23649000Y38069500D01*
X23649000Y19531000D01*
X3429000Y19531000D01*
X3390094Y19523121D01*
X3357319Y19500727D01*
X3335839Y19467346D01*
X3329000Y19431000D01*
X3329000Y18796000D01*
X3336879Y18757094D01*
X3359273Y18724319D01*
X3392654Y18702839D01*
X3429000Y18696000D01*
X24003000Y18696000D01*
X24041906Y18703879D01*
X24074681Y18726273D01*
X24096161Y18759654D01*
X24103000Y18796000D01*
X24103000Y28630500D01*
X45708644Y28630500D01*
X45708644Y27630500D01*
X45733049Y27500798D01*
X45809703Y27381675D01*
X45926663Y27301759D01*
X46065500Y27273644D01*
X47340500Y27273644D01*
X47340500Y27086522D01*
X47256131Y26883339D01*
X47255870Y26584970D01*
X47369811Y26309214D01*
X47580605Y26098052D01*
X47856161Y25983631D01*
X48154530Y25983370D01*
X48430286Y26097311D01*
X48641448Y26308105D01*
X48755869Y26583661D01*
X48756130Y26882030D01*
X48642189Y27157786D01*
X48431395Y27368948D01*
X48337136Y27408088D01*
X48394241Y27491663D01*
X48422356Y27630500D01*
X48422356Y28630500D01*
X48397951Y28760202D01*
X48321297Y28879325D01*
X48204337Y28959241D01*
X48065500Y28987356D01*
X46065500Y28987356D01*
X45935798Y28962951D01*
X45816675Y28886297D01*
X45736759Y28769337D01*
X45708644Y28630500D01*
X24103000Y28630500D01*
X24103000Y38069500D01*
X32823248Y38069500D01*
X34398624Y36494124D01*
X34552725Y36391157D01*
X34734500Y36355000D01*
X36046314Y36355000D01*
X36130311Y36151714D01*
X36341105Y35940552D01*
X36616661Y35826131D01*
X36915030Y35825870D01*
X37190786Y35939811D01*
X37215159Y35964141D01*
X37288163Y35914259D01*
X37427000Y35886144D01*
X39027000Y35886144D01*
X39156702Y35910549D01*
X39243680Y35966518D01*
X39320163Y35914259D01*
X39459000Y35886144D01*
X40901600Y35886144D01*
X40901600Y35700856D01*
X38909500Y35700856D01*
X38779798Y35676451D01*
X38660675Y35599797D01*
X38580759Y35482837D01*
X38552644Y35344000D01*
X38552644Y33744000D01*
X38577049Y33614298D01*
X38633018Y33527320D01*
X38580759Y33450837D01*
X38552644Y33312000D01*
X38552644Y33296440D01*
X38501214Y33275189D01*
X38290052Y33064395D01*
X38175631Y32788839D01*
X38175370Y32490470D01*
X38289311Y32214714D01*
X38500105Y32003552D01*
X38552644Y31981736D01*
X38552644Y31712000D01*
X38577049Y31582298D01*
X38633018Y31495320D01*
X38580759Y31418837D01*
X38552644Y31280000D01*
X38552644Y29680000D01*
X38577049Y29550298D01*
X38653703Y29431175D01*
X38770663Y29351259D01*
X38909500Y29323144D01*
X39275822Y29323144D01*
X39452605Y29146052D01*
X39728161Y29031631D01*
X40026530Y29031370D01*
X40302286Y29145311D01*
X40480429Y29323144D01*
X40909500Y29323144D01*
X41039202Y29347549D01*
X41158325Y29424203D01*
X41238241Y29541163D01*
X41266356Y29680000D01*
X41266356Y31280000D01*
X41241951Y31409702D01*
X41185982Y31496680D01*
X41238241Y31573163D01*
X41266356Y31712000D01*
X41266356Y32187204D01*
X41712473Y32633322D01*
X41712476Y32633324D01*
X41815443Y32787425D01*
X41850793Y32965144D01*
X43408500Y32965144D01*
X43538202Y32989549D01*
X43657325Y33066203D01*
X43737241Y33183163D01*
X43765356Y33322000D01*
X43765356Y34047932D01*
X43836530Y34047870D01*
X44112286Y34161811D01*
X44323448Y34372605D01*
X44405828Y34571000D01*
X45356500Y34571000D01*
X45356500Y33976327D01*
X45402172Y33866064D01*
X45486563Y33781672D01*
X45596826Y33736000D01*
X46191500Y33736000D01*
X46266500Y33811000D01*
X46266500Y34646000D01*
X46316500Y34646000D01*
X46316500Y33811000D01*
X46391500Y33736000D01*
X46986174Y33736000D01*
X47096437Y33781672D01*
X47180828Y33866064D01*
X47226500Y33976327D01*
X47226500Y34571000D01*
X47151500Y34646000D01*
X46316500Y34646000D01*
X46266500Y34646000D01*
X45431500Y34646000D01*
X45356500Y34571000D01*
X44405828Y34571000D01*
X44437869Y34648161D01*
X44438130Y34946530D01*
X44324189Y35222286D01*
X44113395Y35433448D01*
X43837839Y35547869D01*
X43678979Y35548008D01*
X43664297Y35570825D01*
X43547337Y35650741D01*
X43408500Y35678856D01*
X41851600Y35678856D01*
X41851600Y35841000D01*
X45356500Y35841000D01*
X45356500Y34771000D01*
X45431500Y34696000D01*
X46266500Y34696000D01*
X46266500Y35916000D01*
X46316500Y35916000D01*
X46316500Y34696000D01*
X47151500Y34696000D01*
X47226500Y34771000D01*
X47226500Y35841000D01*
X47151500Y35916000D01*
X46316500Y35916000D01*
X46266500Y35916000D01*
X45431500Y35916000D01*
X45356500Y35841000D01*
X41851600Y35841000D01*
X41851600Y36965144D01*
X43039563Y36965144D01*
X43039470Y36859270D01*
X43153411Y36583514D01*
X43364205Y36372352D01*
X43639761Y36257931D01*
X43938130Y36257670D01*
X44213886Y36371611D01*
X44425048Y36582405D01*
X44539469Y36857961D01*
X44539690Y37111000D01*
X45356500Y37111000D01*
X45356500Y36041000D01*
X45431500Y35966000D01*
X46266500Y35966000D01*
X46266500Y37186000D01*
X46316500Y37186000D01*
X46316500Y35966000D01*
X47151500Y35966000D01*
X47226500Y36041000D01*
X47226500Y37111000D01*
X47151500Y37186000D01*
X46316500Y37186000D01*
X46266500Y37186000D01*
X45431500Y37186000D01*
X45356500Y37111000D01*
X44539690Y37111000D01*
X44539730Y37156330D01*
X44425789Y37432086D01*
X44214995Y37643248D01*
X43939439Y37757669D01*
X43844499Y37757752D01*
X43765356Y37836895D01*
X43765356Y38381000D01*
X45356500Y38381000D01*
X45356500Y37311000D01*
X45431500Y37236000D01*
X46266500Y37236000D01*
X46266500Y38456000D01*
X46316500Y38456000D01*
X46316500Y37236000D01*
X47151500Y37236000D01*
X47226500Y37311000D01*
X47226500Y38381000D01*
X47151500Y38456000D01*
X46316500Y38456000D01*
X46266500Y38456000D01*
X45431500Y38456000D01*
X45356500Y38381000D01*
X43765356Y38381000D01*
X43765356Y39322000D01*
X43740951Y39451702D01*
X43664297Y39570825D01*
X43547337Y39650741D01*
X43546059Y39651000D01*
X44086500Y39651000D01*
X44086500Y39056327D01*
X44132172Y38946064D01*
X44216563Y38861672D01*
X44326826Y38816000D01*
X44921500Y38816000D01*
X44996500Y38891000D01*
X44996500Y39726000D01*
X45046500Y39726000D01*
X45046500Y38891000D01*
X45121500Y38816000D01*
X45356500Y38816000D01*
X45356500Y38581000D01*
X45431500Y38506000D01*
X46266500Y38506000D01*
X46266500Y39726000D01*
X46316500Y39726000D01*
X46316500Y38506000D01*
X47151500Y38506000D01*
X47226500Y38581000D01*
X47226500Y39651000D01*
X47151500Y39726000D01*
X46316500Y39726000D01*
X46266500Y39726000D01*
X45046500Y39726000D01*
X44996500Y39726000D01*
X44161500Y39726000D01*
X44086500Y39651000D01*
X43546059Y39651000D01*
X43408500Y39678856D01*
X41808500Y39678856D01*
X41678798Y39654451D01*
X41559675Y39577797D01*
X41479759Y39460837D01*
X41451644Y39322000D01*
X41451644Y39022464D01*
X41313898Y39049863D01*
X41313930Y39086730D01*
X41199989Y39362486D01*
X40989195Y39573648D01*
X40713639Y39688069D01*
X40415270Y39688330D01*
X40139514Y39574389D01*
X39928352Y39363595D01*
X39813931Y39088039D01*
X39813670Y38789670D01*
X39892100Y38599856D01*
X39459000Y38599856D01*
X39329298Y38575451D01*
X39242320Y38519482D01*
X39165837Y38571741D01*
X39027000Y38599856D01*
X38581041Y38599856D01*
X38671948Y38690605D01*
X38758685Y38899490D01*
X39010530Y38899270D01*
X39286286Y39013211D01*
X39497448Y39224005D01*
X39611869Y39499561D01*
X39612130Y39797930D01*
X39498189Y40073686D01*
X39287395Y40284848D01*
X39011839Y40399269D01*
X38713470Y40399530D01*
X38600860Y40353000D01*
X37280752Y40353000D01*
X37188079Y40445673D01*
X44086500Y40445673D01*
X44086500Y39851000D01*
X44161500Y39776000D01*
X44996500Y39776000D01*
X44996500Y40611000D01*
X45046500Y40611000D01*
X45046500Y39776000D01*
X46266500Y39776000D01*
X46266500Y40611000D01*
X46316500Y40611000D01*
X46316500Y39776000D01*
X47151500Y39776000D01*
X47226500Y39851000D01*
X47226500Y40445673D01*
X47180828Y40555936D01*
X47096437Y40640328D01*
X46986174Y40686000D01*
X46391500Y40686000D01*
X46316500Y40611000D01*
X46266500Y40611000D01*
X46191500Y40686000D01*
X45121500Y40686000D01*
X45046500Y40611000D01*
X44996500Y40611000D01*
X44921500Y40686000D01*
X44326826Y40686000D01*
X44216563Y40640328D01*
X44132172Y40555936D01*
X44086500Y40445673D01*
X37188079Y40445673D01*
X31055252Y46578500D01*
X38601748Y46578500D01*
X43128568Y42051680D01*
X43128370Y41824970D01*
X43242311Y41549214D01*
X43453105Y41338052D01*
X43728661Y41223631D01*
X44027030Y41223370D01*
X44229411Y41306993D01*
X44271011Y41206314D01*
X44481805Y40995152D01*
X44757361Y40880731D01*
X45055730Y40880470D01*
X45331486Y40994411D01*
X45542648Y41205205D01*
X45657069Y41480761D01*
X45657207Y41638200D01*
X51511200Y41638200D01*
X51692975Y41674357D01*
X51847076Y41777324D01*
X52837676Y42767924D01*
X52868797Y42814500D01*
X53784144Y42814500D01*
X53784144Y40814500D01*
X53808549Y40684798D01*
X53885203Y40565675D01*
X54002163Y40485759D01*
X54141000Y40457644D01*
X55841000Y40457644D01*
X55970702Y40482049D01*
X56089825Y40558703D01*
X56128633Y40615500D01*
X58668644Y40615500D01*
X58668644Y40490500D01*
X58693049Y40360798D01*
X58769703Y40241675D01*
X58886663Y40161759D01*
X59025500Y40133644D01*
X61225500Y40133644D01*
X61355202Y40158049D01*
X61474325Y40234703D01*
X61554241Y40351663D01*
X61582356Y40490500D01*
X61582356Y41690500D01*
X61557951Y41820202D01*
X61481297Y41939325D01*
X61364337Y42019241D01*
X61225500Y42047356D01*
X59300684Y42047356D01*
X59309448Y42056105D01*
X59394320Y42260500D01*
X63150000Y42260500D01*
X63150000Y40640000D01*
X63173936Y40512790D01*
X63249117Y40395955D01*
X63363830Y40317575D01*
X63500000Y40290000D01*
X75882500Y40290000D01*
X76013493Y40315437D01*
X76020895Y40320323D01*
X76423021Y40319972D01*
X77544429Y40783328D01*
X78403156Y41640558D01*
X78868469Y42761156D01*
X78869528Y43974521D01*
X78406172Y45095929D01*
X77548942Y45954656D01*
X76428344Y46419969D01*
X75959629Y46420378D01*
X75955170Y46423425D01*
X75819000Y46451000D01*
X72041500Y46451000D01*
X72041500Y48831500D01*
X72017564Y48958710D01*
X71942383Y49075545D01*
X71827670Y49153925D01*
X71691500Y49181500D01*
X69151500Y49181500D01*
X69024290Y49157564D01*
X68907455Y49082383D01*
X68829075Y48967670D01*
X68801500Y48831500D01*
X68801500Y46451000D01*
X63500000Y46451000D01*
X63372790Y46427064D01*
X63255955Y46351883D01*
X63177575Y46237170D01*
X63150000Y46101000D01*
X63150000Y43210500D01*
X58928000Y43210500D01*
X58891555Y43203251D01*
X58823839Y43231369D01*
X58525470Y43231630D01*
X58249714Y43117689D01*
X58038552Y42906895D01*
X57924131Y42631339D01*
X57923870Y42332970D01*
X58037811Y42057214D01*
X58248605Y41846052D01*
X58524161Y41731631D01*
X58676946Y41731497D01*
X58668644Y41690500D01*
X58668644Y41565500D01*
X56197856Y41565500D01*
X56197856Y42814500D01*
X56173451Y42944202D01*
X56096797Y43063325D01*
X55979837Y43143241D01*
X55841000Y43171356D01*
X54141000Y43171356D01*
X54011298Y43146951D01*
X53892175Y43070297D01*
X53812259Y42953337D01*
X53784144Y42814500D01*
X52868797Y42814500D01*
X52937469Y42917275D01*
X52940643Y42922025D01*
X52976800Y43103800D01*
X52976800Y46024800D01*
X52940643Y46206575D01*
X52837676Y46360676D01*
X50526276Y48672076D01*
X50372175Y48775043D01*
X50190400Y48811200D01*
X31565752Y48811200D01*
X28885476Y51491476D01*
X28731375Y51594443D01*
X28549600Y51630600D01*
X27622856Y51630600D01*
X27622856Y53301000D01*
X27598451Y53430702D01*
X27521797Y53549825D01*
X27404837Y53629741D01*
X27266000Y53657856D01*
X25566000Y53657856D01*
X25436298Y53633451D01*
X25317175Y53556797D01*
X25237259Y53439837D01*
X25209144Y53301000D01*
X25209144Y51630600D01*
X24103000Y51630600D01*
X24103000Y55811400D01*
X25525168Y55811400D01*
X25283836Y55450220D01*
X25192491Y54991000D01*
X25283836Y54531780D01*
X25543963Y54142472D01*
X25933271Y53882345D01*
X26392491Y53791000D01*
X26439509Y53791000D01*
X26898729Y53882345D01*
X27288037Y54142472D01*
X27548164Y54531780D01*
X27639509Y54991000D01*
X27548164Y55450220D01*
X27306832Y55811400D01*
X41713248Y55811400D01*
X45384122Y52140527D01*
X45384124Y52140524D01*
X45538225Y52037557D01*
X45568384Y52031558D01*
X45720000Y52001399D01*
X45720005Y52001400D01*
X46300144Y52001400D01*
X46300144Y51626400D01*
X46324549Y51496698D01*
X46401203Y51377575D01*
X46518163Y51297659D01*
X46657000Y51269544D01*
X48657000Y51269544D01*
X48786702Y51293949D01*
X48905825Y51370603D01*
X48985741Y51487563D01*
X49013856Y51626400D01*
X49013856Y53326400D01*
X48989451Y53456102D01*
X48932952Y53543904D01*
X48985741Y53621163D01*
X49013856Y53760000D01*
X49013856Y55460000D01*
X49002628Y55519673D01*
X50357000Y55519673D01*
X50357000Y54710000D01*
X50432000Y54635000D01*
X51632000Y54635000D01*
X51632000Y55685000D01*
X51682000Y55685000D01*
X51682000Y54635000D01*
X52882000Y54635000D01*
X52957000Y54710000D01*
X52957000Y55519673D01*
X52911328Y55629936D01*
X52826937Y55714328D01*
X52716674Y55760000D01*
X51757000Y55760000D01*
X51682000Y55685000D01*
X51632000Y55685000D01*
X51557000Y55760000D01*
X50597326Y55760000D01*
X50487063Y55714328D01*
X50402672Y55629936D01*
X50357000Y55519673D01*
X49002628Y55519673D01*
X48989451Y55589702D01*
X48912797Y55708825D01*
X48795837Y55788741D01*
X48657000Y55816856D01*
X46657000Y55816856D01*
X46527298Y55792451D01*
X46408175Y55715797D01*
X46328259Y55598837D01*
X46300144Y55460000D01*
X46300144Y53760000D01*
X46324549Y53630298D01*
X46381048Y53542496D01*
X46328259Y53465237D01*
X46300144Y53326400D01*
X46300144Y52951400D01*
X45916751Y52951400D01*
X42523352Y56344800D01*
X46615600Y56344800D01*
X46797375Y56380957D01*
X46951476Y56483924D01*
X47071096Y56603544D01*
X48606200Y56603544D01*
X48735902Y56627949D01*
X48855025Y56704603D01*
X48934941Y56821563D01*
X48963056Y56960400D01*
X48963056Y58660400D01*
X50249344Y58660400D01*
X50249344Y56960400D01*
X50273749Y56830698D01*
X50350403Y56711575D01*
X50467363Y56631659D01*
X50606200Y56603544D01*
X52606200Y56603544D01*
X52735902Y56627949D01*
X52855025Y56704603D01*
X52934941Y56821563D01*
X52963056Y56960400D01*
X52963056Y57335400D01*
X52990848Y57335400D01*
X54566800Y55759448D01*
X54566800Y51311752D01*
X53066276Y52812276D01*
X53013856Y52847302D01*
X53013856Y53326400D01*
X52989451Y53456102D01*
X52912797Y53575225D01*
X52903109Y53581845D01*
X52911328Y53590064D01*
X52957000Y53700327D01*
X52957000Y54510000D01*
X52882000Y54585000D01*
X51682000Y54585000D01*
X51682000Y54565000D01*
X51632000Y54565000D01*
X51632000Y54585000D01*
X50432000Y54585000D01*
X50357000Y54510000D01*
X50357000Y53700327D01*
X50402672Y53590064D01*
X50409613Y53583123D01*
X50408175Y53582197D01*
X50328259Y53465237D01*
X50300144Y53326400D01*
X50300144Y51626400D01*
X50324549Y51496698D01*
X50401203Y51377575D01*
X50518163Y51297659D01*
X50657000Y51269544D01*
X52657000Y51269544D01*
X52786702Y51293949D01*
X52905825Y51370603D01*
X52985741Y51487563D01*
X52996139Y51538909D01*
X54033400Y50501648D01*
X54033400Y46634400D01*
X54069557Y46452625D01*
X54172524Y46298524D01*
X55442524Y45028524D01*
X55596625Y44925557D01*
X55778400Y44889400D01*
X56489600Y44889400D01*
X56671375Y44925557D01*
X56825476Y45028524D01*
X57409673Y45612722D01*
X57409676Y45612724D01*
X57483941Y45723870D01*
X57512644Y45766826D01*
X57548801Y45948600D01*
X57548800Y45948605D01*
X57548800Y46234448D01*
X57554420Y46240068D01*
X57781130Y46239870D01*
X58056886Y46353811D01*
X58268048Y46564605D01*
X58382469Y46840161D01*
X58382730Y47138530D01*
X58268789Y47414286D01*
X58057995Y47625448D01*
X58038257Y47633644D01*
X58190500Y47633644D01*
X58320202Y47658049D01*
X58439325Y47734703D01*
X58519241Y47851663D01*
X58547356Y47990500D01*
X58547356Y49990500D01*
X58522951Y50120202D01*
X58446297Y50239325D01*
X58329337Y50319241D01*
X58190500Y50347356D01*
X56490500Y50347356D01*
X56360798Y50322951D01*
X56241675Y50246297D01*
X56161759Y50129337D01*
X56133644Y49990500D01*
X56133644Y47990500D01*
X56158049Y47860798D01*
X56234703Y47741675D01*
X56351663Y47661759D01*
X56490500Y47633644D01*
X57226356Y47633644D01*
X57208314Y47626189D01*
X56997152Y47415395D01*
X56882731Y47139839D01*
X56882531Y46911683D01*
X56737924Y46767076D01*
X56735450Y46763374D01*
X56610195Y46888848D01*
X56334639Y47003269D01*
X56106483Y47003469D01*
X55516800Y47593152D01*
X55516800Y53990500D01*
X56133644Y53990500D01*
X56133644Y51990500D01*
X56158049Y51860798D01*
X56234703Y51741675D01*
X56351663Y51661759D01*
X56490500Y51633644D01*
X58190500Y51633644D01*
X58320202Y51658049D01*
X58439325Y51734703D01*
X58519241Y51851663D01*
X58547356Y51990500D01*
X58547356Y52579106D01*
X58660376Y52654624D01*
X58888644Y52882892D01*
X58888644Y47815500D01*
X58913049Y47685798D01*
X58989703Y47566675D01*
X59106663Y47486759D01*
X59245500Y47458644D01*
X66865500Y47458644D01*
X66995202Y47483049D01*
X67114325Y47559703D01*
X67194241Y47676663D01*
X67222356Y47815500D01*
X67222356Y49692800D01*
X68383400Y49692800D01*
X68632144Y49742278D01*
X68673848Y49770144D01*
X69307200Y49770144D01*
X69436902Y49794549D01*
X69556025Y49871203D01*
X69635941Y49988163D01*
X69664056Y50127000D01*
X69664056Y51678644D01*
X71530500Y51678644D01*
X71660202Y51703049D01*
X71779325Y51779703D01*
X71859241Y51896663D01*
X71887356Y52035500D01*
X71887356Y53235500D01*
X71862951Y53365202D01*
X71786297Y53484325D01*
X71669337Y53564241D01*
X71530500Y53592356D01*
X70145396Y53592356D01*
X69744376Y53993376D01*
X69590275Y54096343D01*
X69408500Y54132500D01*
X58991500Y54132500D01*
X58809725Y54096343D01*
X58655624Y53993376D01*
X58655622Y53993373D01*
X58547356Y53885107D01*
X58547356Y53990500D01*
X58522951Y54120202D01*
X58446297Y54239325D01*
X58329337Y54319241D01*
X58190500Y54347356D01*
X56490500Y54347356D01*
X56360798Y54322951D01*
X56241675Y54246297D01*
X56161759Y54129337D01*
X56133644Y53990500D01*
X55516800Y53990500D01*
X55516800Y55956195D01*
X55516801Y55956200D01*
X55480643Y56137974D01*
X55480643Y56137975D01*
X55377676Y56292076D01*
X53523476Y58146276D01*
X53369375Y58249243D01*
X53187600Y58285400D01*
X52963056Y58285400D01*
X52963056Y58660400D01*
X52938651Y58790102D01*
X52861997Y58909225D01*
X52852309Y58915845D01*
X52860528Y58924064D01*
X52906200Y59034327D01*
X52906200Y59844000D01*
X52831200Y59919000D01*
X51631200Y59919000D01*
X51631200Y59899000D01*
X51581200Y59899000D01*
X51581200Y59919000D01*
X50381200Y59919000D01*
X50306200Y59844000D01*
X50306200Y59034327D01*
X50351872Y58924064D01*
X50358813Y58917123D01*
X50357375Y58916197D01*
X50277459Y58799237D01*
X50249344Y58660400D01*
X48963056Y58660400D01*
X48938651Y58790102D01*
X48882152Y58877904D01*
X48934941Y58955163D01*
X48963056Y59094000D01*
X48963056Y60794000D01*
X48951828Y60853673D01*
X50306200Y60853673D01*
X50306200Y60044000D01*
X50381200Y59969000D01*
X51581200Y59969000D01*
X51581200Y61019000D01*
X51631200Y61019000D01*
X51631200Y59969000D01*
X52831200Y59969000D01*
X52906200Y60044000D01*
X52906200Y60853673D01*
X52860528Y60963936D01*
X52776137Y61048328D01*
X52665874Y61094000D01*
X51706200Y61094000D01*
X51631200Y61019000D01*
X51581200Y61019000D01*
X51506200Y61094000D01*
X50546526Y61094000D01*
X50436263Y61048328D01*
X50351872Y60963936D01*
X50306200Y60853673D01*
X48951828Y60853673D01*
X48938651Y60923702D01*
X48861997Y61042825D01*
X48745037Y61122741D01*
X48606200Y61150856D01*
X46606200Y61150856D01*
X46476498Y61126451D01*
X46357375Y61049797D01*
X46277459Y60932837D01*
X46249344Y60794000D01*
X46249344Y59094000D01*
X46273749Y58964298D01*
X46330248Y58876496D01*
X46277459Y58799237D01*
X46249344Y58660400D01*
X46249344Y57294800D01*
X24103000Y57294800D01*
X24103000Y63075000D01*
X58965509Y63075000D01*
X58161999Y62742997D01*
X57275117Y61857661D01*
X56794548Y60700323D01*
X56793455Y59447175D01*
X57272003Y58288999D01*
X58157339Y57402117D01*
X59314677Y56921548D01*
X60567825Y56920455D01*
X61726001Y57399003D01*
X62612883Y58284339D01*
X63093452Y59441677D01*
X63094545Y60694825D01*
X62615997Y61853001D01*
X61730661Y62739883D01*
X60923610Y63075000D01*
X77809140Y63075000D01*
X79045995Y62828975D01*
X80059064Y62152064D01*
X80735975Y61138995D01*
X80982000Y59902140D01*
X80982000Y3597860D01*
X80735975Y2361005D01*
X80059064Y1347936D01*
X79045995Y671025D01*
X77809140Y425000D01*
X60615128Y425000D01*
X61726001Y884003D01*
X62612883Y1769339D01*
X63093452Y2926677D01*
X63094545Y4179825D01*
X62615997Y5338001D01*
X61730661Y6224883D01*
X60573323Y6705452D01*
X59320175Y6706545D01*
X58161999Y6227997D01*
X57275117Y5342661D01*
X56794548Y4185323D01*
X56793455Y2932175D01*
X57272003Y1773999D01*
X58157339Y887117D01*
X59270240Y425000D01*
X4100128Y425000D01*
X5211001Y884003D01*
X6097883Y1769339D01*
X6578452Y2926677D01*
X6579545Y4179825D01*
X6100997Y5338001D01*
X5215661Y6224883D01*
X4058323Y6705452D01*
X2805175Y6706545D01*
X1646999Y6227997D01*
X760117Y5342661D01*
X425000Y4535610D01*
X425000Y8432067D01*
X17150423Y8432067D01*
X17282394Y8226171D01*
X17828329Y7985233D01*
X18424910Y7971555D01*
X18981312Y8187220D01*
X19039606Y8226171D01*
X19171577Y8432067D01*
X30485423Y8432067D01*
X30617394Y8226171D01*
X31163329Y7985233D01*
X31759910Y7971555D01*
X32316312Y8187220D01*
X32374606Y8226171D01*
X32506577Y8432067D01*
X31496000Y9442645D01*
X30485423Y8432067D01*
X19171577Y8432067D01*
X18161000Y9442645D01*
X17150423Y8432067D01*
X425000Y8432067D01*
X425000Y9214090D01*
X16654555Y9214090D01*
X16870220Y8657688D01*
X16909171Y8599394D01*
X17115067Y8467423D01*
X18125645Y9478000D01*
X18196355Y9478000D01*
X19206933Y8467423D01*
X19412829Y8599394D01*
X19653767Y9145329D01*
X19655343Y9214090D01*
X29989555Y9214090D01*
X30205220Y8657688D01*
X30244171Y8599394D01*
X30450067Y8467423D01*
X31460645Y9478000D01*
X31531355Y9478000D01*
X32541933Y8467423D01*
X32747829Y8599394D01*
X32988767Y9145329D01*
X33002445Y9741910D01*
X32786780Y10298312D01*
X32747829Y10356606D01*
X32541933Y10488577D01*
X31531355Y9478000D01*
X31460645Y9478000D01*
X30450067Y10488577D01*
X30244171Y10356606D01*
X30003233Y9810671D01*
X29989555Y9214090D01*
X19655343Y9214090D01*
X19667445Y9741910D01*
X19451780Y10298312D01*
X19412829Y10356606D01*
X19206933Y10488577D01*
X18196355Y9478000D01*
X18125645Y9478000D01*
X17115067Y10488577D01*
X16909171Y10356606D01*
X16668233Y9810671D01*
X16654555Y9214090D01*
X425000Y9214090D01*
X425000Y10523933D01*
X17150423Y10523933D01*
X18161000Y9513355D01*
X19171577Y10523933D01*
X30485423Y10523933D01*
X31496000Y9513355D01*
X32506577Y10523933D01*
X32374606Y10729829D01*
X32333275Y10748070D01*
X36156070Y10748070D01*
X36270011Y10472314D01*
X36480805Y10261152D01*
X36756361Y10146731D01*
X36984517Y10146531D01*
X39008722Y8122327D01*
X39008724Y8122324D01*
X39162825Y8019357D01*
X39344600Y7983200D01*
X42032944Y7983200D01*
X42032944Y7582800D01*
X42057349Y7453098D01*
X42105431Y7378377D01*
X42061059Y7313437D01*
X42032944Y7174600D01*
X42032944Y5474600D01*
X42057349Y5344898D01*
X42134003Y5225775D01*
X42250963Y5145859D01*
X42389800Y5117744D01*
X44389800Y5117744D01*
X44519502Y5142149D01*
X44638625Y5218803D01*
X44718541Y5335763D01*
X44746656Y5474600D01*
X44746656Y7174600D01*
X46032944Y7174600D01*
X46032944Y5474600D01*
X46057349Y5344898D01*
X46134003Y5225775D01*
X46250963Y5145859D01*
X46389800Y5117744D01*
X48389800Y5117744D01*
X48519502Y5142149D01*
X48638625Y5218803D01*
X48718541Y5335763D01*
X48746656Y5474600D01*
X48746656Y5849600D01*
X49504600Y5849600D01*
X49686375Y5885757D01*
X49840476Y5988724D01*
X51250751Y7399000D01*
X60579000Y7399000D01*
X60760775Y7435157D01*
X60914876Y7538124D01*
X63275013Y9898261D01*
X63363830Y9837575D01*
X63500000Y9810000D01*
X75882500Y9810000D01*
X76013493Y9835437D01*
X76020895Y9840323D01*
X76423021Y9839972D01*
X77544429Y10303328D01*
X78403156Y11160558D01*
X78868469Y12281156D01*
X78869528Y13494521D01*
X78406172Y14615929D01*
X77548942Y15474656D01*
X76428344Y15939969D01*
X75959629Y15940378D01*
X75955170Y15943425D01*
X75819000Y15971000D01*
X72041500Y15971000D01*
X72041500Y18351500D01*
X72017564Y18478710D01*
X71942383Y18595545D01*
X71827670Y18673925D01*
X71691500Y18701500D01*
X69151500Y18701500D01*
X69024290Y18677564D01*
X68907455Y18602383D01*
X68829075Y18487670D01*
X68801500Y18351500D01*
X68801500Y15971000D01*
X63500000Y15971000D01*
X63372790Y15947064D01*
X63255955Y15871883D01*
X63177575Y15757170D01*
X63150000Y15621000D01*
X63150000Y11116751D01*
X60382248Y8349000D01*
X51054000Y8349000D01*
X50872225Y8312843D01*
X50718124Y8209876D01*
X50718122Y8209873D01*
X49307848Y6799600D01*
X48746656Y6799600D01*
X48746656Y7174600D01*
X48722251Y7304302D01*
X48647365Y7420678D01*
X48689800Y7523127D01*
X48689800Y8332800D01*
X48614800Y8407800D01*
X47414800Y8407800D01*
X47414800Y8387800D01*
X47364800Y8387800D01*
X47364800Y8407800D01*
X46164800Y8407800D01*
X46089800Y8332800D01*
X46089800Y7523127D01*
X46133028Y7418766D01*
X46061059Y7313437D01*
X46032944Y7174600D01*
X44746656Y7174600D01*
X44722251Y7304302D01*
X44674169Y7379023D01*
X44718541Y7443963D01*
X44746656Y7582800D01*
X44746656Y9282800D01*
X44735428Y9342473D01*
X46089800Y9342473D01*
X46089800Y8532800D01*
X46164800Y8457800D01*
X47364800Y8457800D01*
X47364800Y9507800D01*
X47414800Y9507800D01*
X47414800Y8457800D01*
X48614800Y8457800D01*
X48689800Y8532800D01*
X48689800Y9342473D01*
X48644128Y9452736D01*
X48559737Y9537128D01*
X48449474Y9582800D01*
X47489800Y9582800D01*
X47414800Y9507800D01*
X47364800Y9507800D01*
X47289800Y9582800D01*
X46330126Y9582800D01*
X46219863Y9537128D01*
X46135472Y9452736D01*
X46089800Y9342473D01*
X44735428Y9342473D01*
X44722251Y9412502D01*
X44645597Y9531625D01*
X44528637Y9611541D01*
X44389800Y9639656D01*
X42389800Y9639656D01*
X42260098Y9615251D01*
X42140975Y9538597D01*
X42061059Y9421637D01*
X42032944Y9282800D01*
X42032944Y8933200D01*
X39541351Y8933200D01*
X37656132Y10818420D01*
X37656330Y11045130D01*
X37542389Y11320886D01*
X37331595Y11532048D01*
X37056039Y11646469D01*
X36757670Y11646730D01*
X36481914Y11532789D01*
X36270752Y11321995D01*
X36156331Y11046439D01*
X36156070Y10748070D01*
X32333275Y10748070D01*
X31828671Y10970767D01*
X31232090Y10984445D01*
X30675688Y10768780D01*
X30617394Y10729829D01*
X30485423Y10523933D01*
X19171577Y10523933D01*
X19039606Y10729829D01*
X18493671Y10970767D01*
X17897090Y10984445D01*
X17340688Y10768780D01*
X17282394Y10729829D01*
X17150423Y10523933D01*
X425000Y10523933D01*
X425000Y14322619D01*
X5158680Y14322619D01*
X5667573Y13091004D01*
X6609047Y12147885D01*
X7839772Y11636843D01*
X9172381Y11635680D01*
X10403996Y12144573D01*
X11347115Y13086047D01*
X11858157Y14316772D01*
X11859320Y15649381D01*
X11847495Y15678000D01*
X16604144Y15678000D01*
X16604144Y13278000D01*
X16628549Y13148298D01*
X16705203Y13029175D01*
X16822163Y12949259D01*
X16961000Y12921144D01*
X19361000Y12921144D01*
X19490702Y12945549D01*
X19609825Y13022203D01*
X19689741Y13139163D01*
X19717856Y13278000D01*
X19717856Y15678000D01*
X29939144Y15678000D01*
X29939144Y13278000D01*
X29963549Y13148298D01*
X30040203Y13029175D01*
X30157163Y12949259D01*
X30296000Y12921144D01*
X32696000Y12921144D01*
X32825702Y12945549D01*
X32944825Y13022203D01*
X33024741Y13139163D01*
X33052856Y13278000D01*
X33052856Y13390500D01*
X45708644Y13390500D01*
X45708644Y12390500D01*
X45733049Y12260798D01*
X45809703Y12141675D01*
X45926663Y12061759D01*
X46065500Y12033644D01*
X48065500Y12033644D01*
X48195202Y12058049D01*
X48314325Y12134703D01*
X48394241Y12251663D01*
X48422356Y12390500D01*
X48422356Y13390500D01*
X48397951Y13520202D01*
X48321297Y13639325D01*
X48290500Y13660368D01*
X48290500Y14773970D01*
X49668870Y14773970D01*
X49782811Y14498214D01*
X49993605Y14287052D01*
X50269161Y14172631D01*
X50497317Y14172431D01*
X51084775Y13584974D01*
X51046759Y13529337D01*
X51018644Y13390500D01*
X51018644Y12390500D01*
X51043049Y12260798D01*
X51119703Y12141675D01*
X51236663Y12061759D01*
X51375500Y12033644D01*
X51910500Y12033644D01*
X51910500Y9652000D01*
X51934436Y9524790D01*
X52009617Y9407955D01*
X52124330Y9329575D01*
X52260500Y9302000D01*
X57213500Y9302000D01*
X57340710Y9325936D01*
X57457545Y9401117D01*
X57535925Y9515830D01*
X57563500Y9652000D01*
X57563500Y11210500D01*
X58668644Y11210500D01*
X58668644Y10010500D01*
X58693049Y9880798D01*
X58769703Y9761675D01*
X58886663Y9681759D01*
X59025500Y9653644D01*
X61225500Y9653644D01*
X61355202Y9678049D01*
X61474325Y9754703D01*
X61554241Y9871663D01*
X61582356Y10010500D01*
X61582356Y11210500D01*
X61557951Y11340202D01*
X61481297Y11459325D01*
X61364337Y11539241D01*
X61225500Y11567356D01*
X59025500Y11567356D01*
X58895798Y11542951D01*
X58776675Y11466297D01*
X58696759Y11349337D01*
X58668644Y11210500D01*
X57563500Y11210500D01*
X57563500Y14064500D01*
X61404500Y14064500D01*
X61531710Y14088436D01*
X61648545Y14163617D01*
X61726925Y14278330D01*
X61754500Y14414500D01*
X61754500Y16129000D01*
X61730564Y16256210D01*
X61655383Y16373045D01*
X61540670Y16451425D01*
X61404500Y16479000D01*
X59488752Y16479000D01*
X58931376Y17036376D01*
X58777275Y17139343D01*
X58595500Y17175500D01*
X58306655Y17175500D01*
X58320202Y17178049D01*
X58439325Y17254703D01*
X58519241Y17371663D01*
X58547356Y17510500D01*
X58547356Y19510500D01*
X58522951Y19640202D01*
X58446297Y19759325D01*
X58329337Y19839241D01*
X58190500Y19867356D01*
X56490500Y19867356D01*
X56360798Y19842951D01*
X56241675Y19766297D01*
X56161759Y19649337D01*
X56133644Y19510500D01*
X56133644Y17510500D01*
X56158049Y17380798D01*
X56234703Y17261675D01*
X56351663Y17181759D01*
X56382571Y17175500D01*
X55505251Y17175500D01*
X55423432Y17257320D01*
X55423630Y17484030D01*
X55309689Y17759786D01*
X55098895Y17970948D01*
X54823339Y18085369D01*
X54524970Y18085630D01*
X54249214Y17971689D01*
X54038052Y17760895D01*
X53923631Y17485339D01*
X53923370Y17186970D01*
X54037311Y16911214D01*
X54248105Y16700052D01*
X54523661Y16585631D01*
X54751817Y16585431D01*
X54858249Y16479000D01*
X52260500Y16479000D01*
X52133290Y16455064D01*
X52016455Y16379883D01*
X51938075Y16265170D01*
X51910500Y16129000D01*
X51910500Y14102751D01*
X51168932Y14844320D01*
X51169130Y15071030D01*
X51055189Y15346786D01*
X50844395Y15557948D01*
X50568839Y15672369D01*
X50270470Y15672630D01*
X49994714Y15558689D01*
X49783552Y15347895D01*
X49669131Y15072339D01*
X49668870Y14773970D01*
X48290500Y14773970D01*
X48290500Y14979748D01*
X49421376Y16110624D01*
X49524343Y16264725D01*
X49560500Y16446500D01*
X49560500Y18210437D01*
X49720948Y18370605D01*
X49835369Y18646161D01*
X49835630Y18944530D01*
X49721689Y19220286D01*
X49510895Y19431448D01*
X49235339Y19545869D01*
X48936970Y19546130D01*
X48695856Y19446503D01*
X48695856Y20358000D01*
X48671451Y20487702D01*
X48615482Y20574680D01*
X48667741Y20651163D01*
X48695856Y20790000D01*
X48695856Y22390000D01*
X48671451Y22519702D01*
X48615482Y22606680D01*
X48667741Y22683163D01*
X48695856Y22822000D01*
X48695856Y23316885D01*
X48733522Y23373256D01*
X48763449Y23523711D01*
X49926119Y24686380D01*
X50063510Y24892000D01*
X50067022Y24897256D01*
X50116500Y25146000D01*
X50116500Y27881533D01*
X50198000Y27962891D01*
X50198000Y25082500D01*
X50234157Y24900725D01*
X50337124Y24746624D01*
X51893124Y23190624D01*
X52047225Y23087657D01*
X52069644Y23083198D01*
X52069644Y22526500D01*
X52094049Y22396798D01*
X52170703Y22277675D01*
X52287663Y22197759D01*
X52426500Y22169644D01*
X54126500Y22169644D01*
X54256202Y22194049D01*
X54325500Y22238641D01*
X54325500Y21247251D01*
X53961605Y20883356D01*
X52426500Y20883356D01*
X52296798Y20858951D01*
X52177675Y20782297D01*
X52097759Y20665337D01*
X52069644Y20526500D01*
X52069644Y18526500D01*
X52094049Y18396798D01*
X52170703Y18277675D01*
X52287663Y18197759D01*
X52426500Y18169644D01*
X54126500Y18169644D01*
X54256202Y18194049D01*
X54375325Y18270703D01*
X54455241Y18387663D01*
X54483356Y18526500D01*
X54483356Y20061605D01*
X55136373Y20714622D01*
X55136376Y20714624D01*
X55239343Y20868725D01*
X55275500Y21050500D01*
X55275500Y22790248D01*
X56140252Y23655000D01*
X56165628Y23655000D01*
X56161759Y23649337D01*
X56133644Y23510500D01*
X56133644Y21510500D01*
X56158049Y21380798D01*
X56234703Y21261675D01*
X56351663Y21181759D01*
X56490500Y21153644D01*
X58190500Y21153644D01*
X58320202Y21178049D01*
X58439325Y21254703D01*
X58519241Y21371663D01*
X58547356Y21510500D01*
X58547356Y22315604D01*
X58934251Y22702500D01*
X59045166Y22702500D01*
X58996675Y22671297D01*
X58916759Y22554337D01*
X58888644Y22415500D01*
X58888644Y17335500D01*
X58913049Y17205798D01*
X58989703Y17086675D01*
X59106663Y17006759D01*
X59245500Y16978644D01*
X66865500Y16978644D01*
X66995202Y17003049D01*
X67114325Y17079703D01*
X67194241Y17196663D01*
X67222356Y17335500D01*
X67222356Y18800033D01*
X67244563Y18784859D01*
X67383400Y18756744D01*
X69383400Y18756744D01*
X69513102Y18781149D01*
X69632225Y18857803D01*
X69712141Y18974763D01*
X69740256Y19113600D01*
X69740256Y20713600D01*
X69715851Y20843302D01*
X69639197Y20962425D01*
X69522237Y21042341D01*
X69383400Y21070456D01*
X67383400Y21070456D01*
X67253698Y21046051D01*
X67222356Y21025883D01*
X67222356Y22415500D01*
X67197951Y22545202D01*
X67121297Y22664325D01*
X67065426Y22702500D01*
X68973644Y22702500D01*
X68973644Y21555500D01*
X68998049Y21425798D01*
X69074703Y21306675D01*
X69191663Y21226759D01*
X69330500Y21198644D01*
X71530500Y21198644D01*
X71660202Y21223049D01*
X71779325Y21299703D01*
X71859241Y21416663D01*
X71887356Y21555500D01*
X71887356Y22755500D01*
X71862951Y22885202D01*
X71786297Y23004325D01*
X71669337Y23084241D01*
X71530500Y23112356D01*
X70145396Y23112356D01*
X69744376Y23513376D01*
X69590275Y23616343D01*
X69408500Y23652500D01*
X58737500Y23652500D01*
X58555725Y23616343D01*
X58530599Y23599555D01*
X58522951Y23640202D01*
X58446297Y23759325D01*
X58329337Y23839241D01*
X58190500Y23867356D01*
X57686108Y23867356D01*
X58799837Y24981085D01*
X58886663Y24921759D01*
X59025500Y24893644D01*
X61225500Y24893644D01*
X61355202Y24918049D01*
X61474325Y24994703D01*
X61554241Y25111663D01*
X61582356Y25250500D01*
X61582356Y26450500D01*
X61557951Y26580202D01*
X61481297Y26699325D01*
X61364337Y26779241D01*
X61225500Y26807356D01*
X59025500Y26807356D01*
X58895798Y26782951D01*
X58776675Y26706297D01*
X58696759Y26589337D01*
X58668644Y26450500D01*
X58668644Y26191067D01*
X58661624Y26186376D01*
X58661622Y26186373D01*
X57563500Y25088252D01*
X57563500Y29304500D01*
X61404500Y29304500D01*
X61531710Y29328436D01*
X61648545Y29403617D01*
X61726925Y29518330D01*
X61754500Y29654500D01*
X61754500Y30861000D01*
X63150000Y30861000D01*
X63150000Y25400000D01*
X63173936Y25272790D01*
X63249117Y25155955D01*
X63363830Y25077575D01*
X63500000Y25050000D01*
X75819000Y25050000D01*
X75946210Y25073936D01*
X75956223Y25080379D01*
X76423021Y25079972D01*
X77544429Y25543328D01*
X78403156Y26400558D01*
X78868469Y27521156D01*
X78869528Y28734521D01*
X78406172Y29855929D01*
X77548942Y30714656D01*
X76428344Y31179969D01*
X75959629Y31180378D01*
X75955170Y31183425D01*
X75819000Y31211000D01*
X72041500Y31211000D01*
X72041500Y33591500D01*
X72017564Y33718710D01*
X71942383Y33835545D01*
X71827670Y33913925D01*
X71691500Y33941500D01*
X69151500Y33941500D01*
X69024290Y33917564D01*
X68907455Y33842383D01*
X68829075Y33727670D01*
X68801500Y33591500D01*
X68801500Y31211000D01*
X63500000Y31211000D01*
X63372790Y31187064D01*
X63255955Y31111883D01*
X63177575Y30997170D01*
X63150000Y30861000D01*
X61754500Y30861000D01*
X61754500Y31369000D01*
X61730564Y31496210D01*
X61655383Y31613045D01*
X61540670Y31691425D01*
X61404500Y31719000D01*
X59488752Y31719000D01*
X58867876Y32339876D01*
X58713775Y32442843D01*
X58532000Y32479000D01*
X58414922Y32479000D01*
X58439325Y32494703D01*
X58519241Y32611663D01*
X58547356Y32750500D01*
X58547356Y34750500D01*
X58522951Y34880202D01*
X58446297Y34999325D01*
X58329337Y35079241D01*
X58190500Y35107356D01*
X56655396Y35107356D01*
X55993876Y35768876D01*
X55839775Y35871843D01*
X55658000Y35908000D01*
X54933751Y35908000D01*
X54384107Y36457644D01*
X55841000Y36457644D01*
X55970702Y36482049D01*
X56089825Y36558703D01*
X56152479Y36650400D01*
X56158049Y36620798D01*
X56234703Y36501675D01*
X56351663Y36421759D01*
X56490500Y36393644D01*
X58190500Y36393644D01*
X58320202Y36418049D01*
X58439325Y36494703D01*
X58519241Y36611663D01*
X58547356Y36750500D01*
X58547356Y37555604D01*
X58807251Y37815500D01*
X58931219Y37815500D01*
X58916759Y37794337D01*
X58888644Y37655500D01*
X58888644Y32575500D01*
X58913049Y32445798D01*
X58989703Y32326675D01*
X59106663Y32246759D01*
X59245500Y32218644D01*
X66865500Y32218644D01*
X66995202Y32243049D01*
X67114325Y32319703D01*
X67194241Y32436663D01*
X67222356Y32575500D01*
X67222356Y34116233D01*
X67244563Y34101059D01*
X67383400Y34072944D01*
X69383400Y34072944D01*
X69513102Y34097349D01*
X69632225Y34174003D01*
X69712141Y34290963D01*
X69740256Y34429800D01*
X69740256Y36029800D01*
X69715851Y36159502D01*
X69639197Y36278625D01*
X69522237Y36358541D01*
X69383400Y36386656D01*
X67383400Y36386656D01*
X67253698Y36362251D01*
X67222356Y36342083D01*
X67222356Y37655500D01*
X67197951Y37785202D01*
X67178455Y37815500D01*
X68973644Y37815500D01*
X68973644Y36795500D01*
X68998049Y36665798D01*
X69074703Y36546675D01*
X69191663Y36466759D01*
X69330500Y36438644D01*
X71530500Y36438644D01*
X71660202Y36463049D01*
X71779325Y36539703D01*
X71859241Y36656663D01*
X71887356Y36795500D01*
X71887356Y37995500D01*
X71862951Y38125202D01*
X71786297Y38244325D01*
X71669337Y38324241D01*
X71530500Y38352356D01*
X70145396Y38352356D01*
X69871376Y38626376D01*
X69717275Y38729343D01*
X69535500Y38765500D01*
X58610500Y38765500D01*
X58546913Y38752852D01*
X58522951Y38880202D01*
X58446297Y38999325D01*
X58329337Y39079241D01*
X58190500Y39107356D01*
X56490500Y39107356D01*
X56360798Y39082951D01*
X56241675Y39006297D01*
X56179021Y38914600D01*
X56173451Y38944202D01*
X56096797Y39063325D01*
X55979837Y39143241D01*
X55841000Y39171356D01*
X54141000Y39171356D01*
X54011298Y39146951D01*
X53892175Y39070297D01*
X53812259Y38953337D01*
X53784144Y38814500D01*
X53784144Y37057608D01*
X53675876Y37165876D01*
X53521775Y37268843D01*
X53340000Y37305000D01*
X49657005Y37305000D01*
X49657000Y37305001D01*
X49508692Y37275500D01*
X49475225Y37268843D01*
X49321124Y37165876D01*
X48973180Y36817932D01*
X48746470Y36818130D01*
X48470714Y36704189D01*
X48259552Y36493395D01*
X48145131Y36217839D01*
X48144870Y35919470D01*
X48258811Y35643714D01*
X48469605Y35432552D01*
X48745161Y35318131D01*
X49043530Y35317870D01*
X49319286Y35431811D01*
X49530448Y35642605D01*
X49644869Y35918161D01*
X49645069Y36146317D01*
X49853752Y36355000D01*
X50551585Y36355000D01*
X50494631Y36217839D01*
X50494370Y35919470D01*
X50608311Y35643714D01*
X50723535Y35528289D01*
X50672552Y35477395D01*
X50558131Y35201839D01*
X50557870Y34903470D01*
X50671811Y34627714D01*
X50882605Y34416552D01*
X51158161Y34302131D01*
X51456530Y34301870D01*
X51732286Y34415811D01*
X51943448Y34626605D01*
X51975585Y34704000D01*
X52202585Y34704000D01*
X52145631Y34566839D01*
X52145431Y34338683D01*
X51162624Y33355876D01*
X51059657Y33201775D01*
X51023500Y33020000D01*
X51023500Y31383063D01*
X50923007Y31282745D01*
X49644932Y32560820D01*
X49645130Y32787530D01*
X49531189Y33063286D01*
X49320395Y33274448D01*
X49044839Y33388869D01*
X48746470Y33389130D01*
X48470714Y33275189D01*
X48259552Y33064395D01*
X48145131Y32788839D01*
X48144870Y32490470D01*
X48258811Y32214714D01*
X48469605Y32003552D01*
X48745161Y31889131D01*
X48973317Y31888931D01*
X50198000Y30664248D01*
X50198000Y29186900D01*
X50005335Y29379902D01*
X49656296Y29524835D01*
X49278362Y29525165D01*
X48929071Y29380841D01*
X48661598Y29113835D01*
X48516665Y28764796D01*
X48516335Y28386862D01*
X48660659Y28037571D01*
X48816500Y27881457D01*
X48816500Y25415239D01*
X48180118Y24778856D01*
X46339000Y24778856D01*
X46209298Y24754451D01*
X46090175Y24677797D01*
X46010259Y24560837D01*
X45982144Y24422000D01*
X45982144Y22822000D01*
X46006549Y22692298D01*
X46062518Y22605320D01*
X46010259Y22528837D01*
X45982144Y22390000D01*
X45982144Y20790000D01*
X46006549Y20660298D01*
X46062518Y20573320D01*
X46010259Y20496837D01*
X45982144Y20358000D01*
X45982144Y18758000D01*
X46006549Y18628298D01*
X46062518Y18541320D01*
X46010259Y18464837D01*
X45982144Y18326000D01*
X45982144Y16726000D01*
X46006549Y16596298D01*
X46083203Y16477175D01*
X46200163Y16397259D01*
X46339000Y16369144D01*
X48336392Y16369144D01*
X47479624Y15512376D01*
X47376657Y15358275D01*
X47340500Y15176500D01*
X47340500Y13747356D01*
X46065500Y13747356D01*
X45935798Y13722951D01*
X45816675Y13646297D01*
X45736759Y13529337D01*
X45708644Y13390500D01*
X33052856Y13390500D01*
X33052856Y15678000D01*
X33028451Y15807702D01*
X32951797Y15926825D01*
X32834837Y16006741D01*
X32696000Y16034856D01*
X30296000Y16034856D01*
X30166298Y16010451D01*
X30047175Y15933797D01*
X29967259Y15816837D01*
X29939144Y15678000D01*
X19717856Y15678000D01*
X19693451Y15807702D01*
X19616797Y15926825D01*
X19499837Y16006741D01*
X19361000Y16034856D01*
X16961000Y16034856D01*
X16831298Y16010451D01*
X16712175Y15933797D01*
X16632259Y15816837D01*
X16604144Y15678000D01*
X11847495Y15678000D01*
X11350427Y16880996D01*
X10408953Y17824115D01*
X9178228Y18335157D01*
X7845619Y18336320D01*
X6614004Y17827427D01*
X5670885Y16885953D01*
X5159843Y15655228D01*
X5158680Y14322619D01*
X425000Y14322619D01*
X425000Y18696000D01*
X2032000Y18696000D01*
X2070906Y18703879D01*
X2103681Y18726273D01*
X2125161Y18759654D01*
X2132000Y18796000D01*
X2132000Y19431000D01*
X2124121Y19469906D01*
X2101727Y19502681D01*
X2068346Y19524161D01*
X2032000Y19531000D01*
X425000Y19531000D01*
X425000Y21728401D01*
X4743788Y21728401D01*
X4929890Y21278000D01*
X5274187Y20933101D01*
X5724263Y20746213D01*
X6211599Y20745788D01*
X6662000Y20931890D01*
X7006899Y21276187D01*
X7193787Y21726263D01*
X7193788Y21728401D01*
X17443788Y21728401D01*
X17629890Y21278000D01*
X17974187Y20933101D01*
X18424263Y20746213D01*
X18911599Y20745788D01*
X19362000Y20931890D01*
X19706899Y21276187D01*
X19893787Y21726263D01*
X19893788Y21728401D01*
X19983788Y21728401D01*
X20169890Y21278000D01*
X20514187Y20933101D01*
X20964263Y20746213D01*
X21451599Y20745788D01*
X21902000Y20931890D01*
X22246899Y21276187D01*
X22433787Y21726263D01*
X22434212Y22213599D01*
X22248110Y22664000D01*
X21903813Y23008899D01*
X21453737Y23195787D01*
X20966401Y23196212D01*
X20516000Y23010110D01*
X20171101Y22665813D01*
X19984213Y22215737D01*
X19983788Y21728401D01*
X19893788Y21728401D01*
X19894212Y22213599D01*
X19708110Y22664000D01*
X19363813Y23008899D01*
X18913737Y23195787D01*
X18426401Y23196212D01*
X17976000Y23010110D01*
X17631101Y22665813D01*
X17444213Y22215737D01*
X17443788Y21728401D01*
X7193788Y21728401D01*
X7194212Y22213599D01*
X7008110Y22664000D01*
X6663813Y23008899D01*
X6213737Y23195787D01*
X5726401Y23196212D01*
X5276000Y23010110D01*
X4931101Y22665813D01*
X4744213Y22215737D01*
X4743788Y21728401D01*
X425000Y21728401D01*
X425000Y24538000D01*
X1771000Y24538000D01*
X1771000Y23728327D01*
X1816672Y23618064D01*
X1901063Y23533672D01*
X2011326Y23488000D01*
X2821000Y23488000D01*
X2896000Y23563000D01*
X2896000Y24613000D01*
X2946000Y24613000D01*
X2946000Y23563000D01*
X3021000Y23488000D01*
X3830674Y23488000D01*
X3940937Y23533672D01*
X4025328Y23618064D01*
X4071000Y23728327D01*
X4071000Y24268401D01*
X4743788Y24268401D01*
X4929890Y23818000D01*
X5274187Y23473101D01*
X5724263Y23286213D01*
X6211599Y23285788D01*
X6662000Y23471890D01*
X7006899Y23816187D01*
X7193787Y24266263D01*
X7194212Y24753599D01*
X7008110Y25204000D01*
X6663813Y25548899D01*
X6213737Y25735787D01*
X5726401Y25736212D01*
X5276000Y25550110D01*
X4931101Y25205813D01*
X4744213Y24755737D01*
X4743788Y24268401D01*
X4071000Y24268401D01*
X4071000Y24538000D01*
X3996000Y24613000D01*
X2946000Y24613000D01*
X2896000Y24613000D01*
X1846000Y24613000D01*
X1771000Y24538000D01*
X425000Y24538000D01*
X425000Y25547673D01*
X1771000Y25547673D01*
X1771000Y24738000D01*
X1846000Y24663000D01*
X2896000Y24663000D01*
X2896000Y25713000D01*
X2946000Y25713000D01*
X2946000Y24663000D01*
X3996000Y24663000D01*
X4071000Y24738000D01*
X4071000Y25547673D01*
X4025328Y25657936D01*
X3940937Y25742328D01*
X3830674Y25788000D01*
X3021000Y25788000D01*
X2946000Y25713000D01*
X2896000Y25713000D01*
X2821000Y25788000D01*
X2011326Y25788000D01*
X1901063Y25742328D01*
X1816672Y25657936D01*
X1771000Y25547673D01*
X425000Y25547673D01*
X425000Y27178000D01*
X1697491Y27178000D01*
X1788836Y26718780D01*
X2048963Y26329472D01*
X2438271Y26069345D01*
X2897491Y25978000D01*
X2944509Y25978000D01*
X3403729Y26069345D01*
X3793037Y26329472D01*
X4053164Y26718780D01*
X4070990Y26808401D01*
X4743788Y26808401D01*
X4929890Y26358000D01*
X5274187Y26013101D01*
X5724263Y25826213D01*
X6211599Y25825788D01*
X6662000Y26011890D01*
X7006899Y26356187D01*
X7193787Y26806263D01*
X7194212Y27293599D01*
X7008110Y27744000D01*
X6663813Y28088899D01*
X6213737Y28275787D01*
X5726401Y28276212D01*
X5276000Y28090110D01*
X4931101Y27745813D01*
X4744213Y27295737D01*
X4743788Y26808401D01*
X4070990Y26808401D01*
X4144509Y27178000D01*
X4053164Y27637220D01*
X3793037Y28026528D01*
X3403729Y28286655D01*
X2944509Y28378000D01*
X2897491Y28378000D01*
X2438271Y28286655D01*
X2048963Y28026528D01*
X1788836Y27637220D01*
X1697491Y27178000D01*
X425000Y27178000D01*
X425000Y29718000D01*
X1697491Y29718000D01*
X1788836Y29258780D01*
X2048963Y28869472D01*
X2438271Y28609345D01*
X2897491Y28518000D01*
X2944509Y28518000D01*
X3403729Y28609345D01*
X3793037Y28869472D01*
X4053164Y29258780D01*
X4092305Y29455553D01*
X5022752Y30386000D01*
X5031463Y30386000D01*
X4931101Y30285813D01*
X4744213Y29835737D01*
X4743788Y29348401D01*
X4929890Y28898000D01*
X5274187Y28553101D01*
X5724263Y28366213D01*
X6211599Y28365788D01*
X6662000Y28551890D01*
X7006899Y28896187D01*
X7193787Y29346263D01*
X7194212Y29833599D01*
X7008110Y30284000D01*
X6906288Y30386000D01*
X11360248Y30386000D01*
X17157068Y24589180D01*
X17156870Y24362470D01*
X17270811Y24086714D01*
X17481605Y23875552D01*
X17757161Y23761131D01*
X18055530Y23760870D01*
X18331286Y23874811D01*
X18542448Y24085605D01*
X18618351Y24268401D01*
X19983788Y24268401D01*
X20169890Y23818000D01*
X20514187Y23473101D01*
X20964263Y23286213D01*
X21451599Y23285788D01*
X21902000Y23471890D01*
X22246899Y23816187D01*
X22433787Y24266263D01*
X22434212Y24753599D01*
X22248110Y25204000D01*
X21903813Y25548899D01*
X21453737Y25735787D01*
X20966401Y25736212D01*
X20516000Y25550110D01*
X20171101Y25205813D01*
X19984213Y24755737D01*
X19983788Y24268401D01*
X18618351Y24268401D01*
X18656869Y24361161D01*
X18657130Y24659530D01*
X18543189Y24935286D01*
X18332395Y25146448D01*
X18056839Y25260869D01*
X17828683Y25261069D01*
X15422013Y27667739D01*
X15471161Y27647331D01*
X15699317Y27647131D01*
X16631324Y26715124D01*
X16785425Y26612157D01*
X16967200Y26576000D01*
X20079814Y26576000D01*
X20169890Y26358000D01*
X20514187Y26013101D01*
X20964263Y25826213D01*
X21451599Y25825788D01*
X21902000Y26011890D01*
X22246899Y26356187D01*
X22433787Y26806263D01*
X22434212Y27293599D01*
X22248110Y27744000D01*
X21903813Y28088899D01*
X21453737Y28275787D01*
X20966401Y28276212D01*
X20516000Y28090110D01*
X20171101Y27745813D01*
X20079827Y27526000D01*
X17163952Y27526000D01*
X16370932Y28319020D01*
X16371130Y28545730D01*
X16257189Y28821486D01*
X16046395Y29032648D01*
X15770839Y29147069D01*
X15472470Y29147330D01*
X15196714Y29033389D01*
X14985552Y28822595D01*
X14871131Y28547039D01*
X14870870Y28248670D01*
X14891845Y28197907D01*
X13741351Y29348401D01*
X19983788Y29348401D01*
X20169890Y28898000D01*
X20514187Y28553101D01*
X20964263Y28366213D01*
X21451599Y28365788D01*
X21902000Y28551890D01*
X22246899Y28896187D01*
X22433787Y29346263D01*
X22434212Y29833599D01*
X22248110Y30284000D01*
X21903813Y30628899D01*
X21453737Y30815787D01*
X20966401Y30816212D01*
X20516000Y30630110D01*
X20171101Y30285813D01*
X19984213Y29835737D01*
X19983788Y29348401D01*
X13741351Y29348401D01*
X11892876Y31196876D01*
X11738775Y31299843D01*
X11557000Y31336000D01*
X6906537Y31336000D01*
X7006899Y31436187D01*
X7193787Y31886263D01*
X7193788Y31888401D01*
X19983788Y31888401D01*
X20169890Y31438000D01*
X20514187Y31093101D01*
X20964263Y30906213D01*
X21451599Y30905788D01*
X21902000Y31091890D01*
X22246899Y31436187D01*
X22433787Y31886263D01*
X22434212Y32373599D01*
X22248110Y32824000D01*
X21903813Y33168899D01*
X21453737Y33355787D01*
X20966401Y33356212D01*
X20516000Y33170110D01*
X20171101Y32825813D01*
X19984213Y32375737D01*
X19983788Y31888401D01*
X7193788Y31888401D01*
X7194212Y32373599D01*
X7008110Y32824000D01*
X6663813Y33168899D01*
X6213737Y33355787D01*
X5726401Y33356212D01*
X5276000Y33170110D01*
X4931101Y32825813D01*
X4744213Y32375737D01*
X4743788Y31888401D01*
X4929890Y31438000D01*
X5031712Y31336000D01*
X4826000Y31336000D01*
X4644225Y31299843D01*
X4490124Y31196876D01*
X3819769Y30526521D01*
X3793037Y30566528D01*
X3403729Y30826655D01*
X2944509Y30918000D01*
X2897491Y30918000D01*
X2438271Y30826655D01*
X2048963Y30566528D01*
X1788836Y30177220D01*
X1697491Y29718000D01*
X425000Y29718000D01*
X425000Y32258000D01*
X1697491Y32258000D01*
X1788836Y31798780D01*
X2048963Y31409472D01*
X2438271Y31149345D01*
X2897491Y31058000D01*
X2944509Y31058000D01*
X3403729Y31149345D01*
X3793037Y31409472D01*
X4053164Y31798780D01*
X4144509Y32258000D01*
X4053164Y32717220D01*
X3793037Y33106528D01*
X3403729Y33366655D01*
X2944509Y33458000D01*
X2897491Y33458000D01*
X2438271Y33366655D01*
X2048963Y33106528D01*
X1788836Y32717220D01*
X1697491Y32258000D01*
X425000Y32258000D01*
X425000Y34798000D01*
X1697491Y34798000D01*
X1788836Y34338780D01*
X2048963Y33949472D01*
X2438271Y33689345D01*
X2897491Y33598000D01*
X2944509Y33598000D01*
X3403729Y33689345D01*
X3793037Y33949472D01*
X4053164Y34338780D01*
X4070990Y34428401D01*
X4743788Y34428401D01*
X4929890Y33978000D01*
X5274187Y33633101D01*
X5724263Y33446213D01*
X6211599Y33445788D01*
X6662000Y33631890D01*
X7006899Y33976187D01*
X7193787Y34426263D01*
X7194025Y34700270D01*
X18376070Y34700270D01*
X18490011Y34424514D01*
X18700805Y34213352D01*
X18976361Y34098931D01*
X19274730Y34098670D01*
X19510285Y34196000D01*
X20079814Y34196000D01*
X20169890Y33978000D01*
X20514187Y33633101D01*
X20964263Y33446213D01*
X21451599Y33445788D01*
X21902000Y33631890D01*
X22246899Y33976187D01*
X22433787Y34426263D01*
X22434212Y34913599D01*
X22248110Y35364000D01*
X21903813Y35708899D01*
X21453737Y35895787D01*
X20966401Y35896212D01*
X20516000Y35710110D01*
X20171101Y35365813D01*
X20079827Y35146000D01*
X19814900Y35146000D01*
X19762389Y35273086D01*
X19551595Y35484248D01*
X19276039Y35598669D01*
X18977670Y35598930D01*
X18701914Y35484989D01*
X18490752Y35274195D01*
X18376331Y34998639D01*
X18376070Y34700270D01*
X7194025Y34700270D01*
X7194212Y34913599D01*
X7008110Y35364000D01*
X6663813Y35708899D01*
X6213737Y35895787D01*
X5726401Y35896212D01*
X5276000Y35710110D01*
X4931101Y35365813D01*
X4744213Y34915737D01*
X4743788Y34428401D01*
X4070990Y34428401D01*
X4144509Y34798000D01*
X4053164Y35257220D01*
X3793037Y35646528D01*
X3403729Y35906655D01*
X2944509Y35998000D01*
X2897491Y35998000D01*
X2438271Y35906655D01*
X2048963Y35646528D01*
X1788836Y35257220D01*
X1697491Y34798000D01*
X425000Y34798000D01*
X425000Y37338000D01*
X1697491Y37338000D01*
X1788836Y36878780D01*
X2048963Y36489472D01*
X2438271Y36229345D01*
X2897491Y36138000D01*
X2944509Y36138000D01*
X3403729Y36229345D01*
X3793037Y36489472D01*
X4053164Y36878780D01*
X4144509Y37338000D01*
X4053164Y37797220D01*
X3793037Y38186528D01*
X3403729Y38446655D01*
X2944509Y38538000D01*
X2897491Y38538000D01*
X2438271Y38446655D01*
X2048963Y38186528D01*
X1788836Y37797220D01*
X1697491Y37338000D01*
X425000Y37338000D01*
X425000Y42064000D01*
X1771000Y42064000D01*
X1771000Y41254327D01*
X1816672Y41144064D01*
X1901063Y41059672D01*
X2011326Y41014000D01*
X2821000Y41014000D01*
X2896000Y41089000D01*
X2896000Y42139000D01*
X2946000Y42139000D01*
X2946000Y41089000D01*
X3021000Y41014000D01*
X3830674Y41014000D01*
X3940937Y41059672D01*
X4025328Y41144064D01*
X4071000Y41254327D01*
X4071000Y42048401D01*
X4743788Y42048401D01*
X4929890Y41598000D01*
X5274187Y41253101D01*
X5724263Y41066213D01*
X6211599Y41065788D01*
X6662000Y41251890D01*
X7006899Y41596187D01*
X7193787Y42046263D01*
X7194212Y42533599D01*
X7008110Y42984000D01*
X6663813Y43328899D01*
X6213737Y43515787D01*
X5726401Y43516212D01*
X5276000Y43330110D01*
X4931101Y42985813D01*
X4744213Y42535737D01*
X4743788Y42048401D01*
X4071000Y42048401D01*
X4071000Y42064000D01*
X3996000Y42139000D01*
X2946000Y42139000D01*
X2896000Y42139000D01*
X1846000Y42139000D01*
X1771000Y42064000D01*
X425000Y42064000D01*
X425000Y43073673D01*
X1771000Y43073673D01*
X1771000Y42264000D01*
X1846000Y42189000D01*
X2896000Y42189000D01*
X2896000Y43239000D01*
X2946000Y43239000D01*
X2946000Y42189000D01*
X3996000Y42189000D01*
X4071000Y42264000D01*
X4071000Y43073673D01*
X4025328Y43183936D01*
X3940937Y43268328D01*
X3830674Y43314000D01*
X3021000Y43314000D01*
X2946000Y43239000D01*
X2896000Y43239000D01*
X2821000Y43314000D01*
X2011326Y43314000D01*
X1901063Y43268328D01*
X1816672Y43183936D01*
X1771000Y43073673D01*
X425000Y43073673D01*
X425000Y55841000D01*
X1714144Y55841000D01*
X1714144Y54141000D01*
X1738549Y54011298D01*
X1815203Y53892175D01*
X1932163Y53812259D01*
X2071000Y53784144D01*
X3771000Y53784144D01*
X3900702Y53808549D01*
X4019825Y53885203D01*
X4099741Y54002163D01*
X4127856Y54141000D01*
X4127856Y54179424D01*
X5192779Y54179424D01*
X5285200Y54007298D01*
X5713698Y53820499D01*
X6181063Y53811898D01*
X6616143Y53982805D01*
X6652800Y54007298D01*
X6745221Y54179424D01*
X5969000Y54955645D01*
X5192779Y54179424D01*
X4127856Y54179424D01*
X4127856Y54778937D01*
X4789898Y54778937D01*
X4960805Y54343857D01*
X4985298Y54307200D01*
X5157424Y54214779D01*
X5933645Y54991000D01*
X6004355Y54991000D01*
X6780576Y54214779D01*
X6952702Y54307200D01*
X7139501Y54735698D01*
X7148102Y55203063D01*
X6977195Y55638143D01*
X6952702Y55674800D01*
X6780576Y55767221D01*
X6004355Y54991000D01*
X5933645Y54991000D01*
X5157424Y55767221D01*
X4985298Y55674800D01*
X4798499Y55246302D01*
X4789898Y54778937D01*
X4127856Y54778937D01*
X4127856Y55802576D01*
X5192779Y55802576D01*
X5969000Y55026355D01*
X6745221Y55802576D01*
X6652800Y55974702D01*
X6224302Y56161501D01*
X5756937Y56170102D01*
X5321857Y55999195D01*
X5285200Y55974702D01*
X5192779Y55802576D01*
X4127856Y55802576D01*
X4127856Y55841000D01*
X4103451Y55970702D01*
X4026797Y56089825D01*
X3909837Y56169741D01*
X3771000Y56197856D01*
X2071000Y56197856D01*
X1941298Y56173451D01*
X1822175Y56096797D01*
X1742259Y55979837D01*
X1714144Y55841000D01*
X425000Y55841000D01*
X425000Y59092509D01*
X757003Y58288999D01*
X1642339Y57402117D01*
X2799677Y56921548D01*
X4052825Y56920455D01*
X5211001Y57399003D01*
X6097883Y58284339D01*
X6578452Y59441677D01*
X6579545Y60694825D01*
X6100997Y61853001D01*
X5215661Y62739883D01*
X4408610Y63075000D01*
X23649000Y63075000D01*
X23649000Y57294800D01*
X23649000Y57294800D01*
G37*
X23649000Y57294800D02*
X16103600Y57294800D01*
X15921825Y57258643D01*
X15767724Y57155676D01*
X15664757Y57001575D01*
X15628600Y56819800D01*
X15654000Y56692105D01*
X15654000Y55203186D01*
X15450714Y55119189D01*
X15239552Y54908395D01*
X15125131Y54632839D01*
X15124870Y54334470D01*
X15238811Y54058714D01*
X15449605Y53847552D01*
X15725161Y53733131D01*
X16023530Y53732870D01*
X16299286Y53846811D01*
X16510448Y54057605D01*
X16624869Y54333161D01*
X16625130Y54631530D01*
X16596705Y54700324D01*
X16604000Y54737000D01*
X16604000Y56344800D01*
X19210138Y56344800D01*
X19163731Y56233039D01*
X19163470Y55934670D01*
X19277411Y55658914D01*
X19488205Y55447752D01*
X19763761Y55333331D01*
X20024643Y55333103D01*
X19984213Y55235737D01*
X19983788Y54748401D01*
X20169890Y54298000D01*
X20514187Y53953101D01*
X20964263Y53766213D01*
X21451599Y53765788D01*
X21902000Y53951890D01*
X22246899Y54296187D01*
X22433787Y54746263D01*
X22434212Y55233599D01*
X22248110Y55684000D01*
X22120932Y55811400D01*
X23649000Y55811400D01*
X23649000Y51630600D01*
X22064758Y51630600D01*
X22020578Y51674780D01*
X22192702Y51767200D01*
X22379501Y52195698D01*
X22388102Y52663063D01*
X22217195Y53098143D01*
X22192702Y53134800D01*
X22020576Y53227221D01*
X21244355Y52451000D01*
X21258498Y52436857D01*
X21223143Y52401502D01*
X21209000Y52415645D01*
X21194858Y52401502D01*
X21159503Y52436857D01*
X21173645Y52451000D01*
X20397424Y53227221D01*
X20225298Y53134800D01*
X20038499Y52706302D01*
X20029898Y52238937D01*
X20200805Y51803857D01*
X20225298Y51767200D01*
X20397422Y51674780D01*
X20353242Y51630600D01*
X17094200Y51630600D01*
X16912425Y51594443D01*
X16814483Y51529000D01*
X16758324Y51491476D01*
X14941648Y49674800D01*
X13927000Y49674800D01*
X13927000Y50541000D01*
X13852000Y50616000D01*
X12852000Y50616000D01*
X12852000Y50596000D01*
X12802000Y50596000D01*
X12802000Y50616000D01*
X11802000Y50616000D01*
X11727000Y50541000D01*
X11727000Y49674800D01*
X10617205Y49674800D01*
X10617200Y49674801D01*
X10435426Y49638644D01*
X10435424Y49638643D01*
X10435425Y49638643D01*
X10281324Y49535676D01*
X10281322Y49535673D01*
X9722524Y48976876D01*
X9644400Y48859955D01*
X9644400Y49300037D01*
X9804848Y49460205D01*
X9919269Y49735761D01*
X9919530Y50034130D01*
X9805589Y50309886D01*
X9594795Y50521048D01*
X9319239Y50635469D01*
X9020870Y50635730D01*
X8745114Y50521789D01*
X8628400Y50405278D01*
X8628400Y51700674D01*
X11727000Y51700674D01*
X11727000Y50741000D01*
X11802000Y50666000D01*
X12802000Y50666000D01*
X12802000Y51866000D01*
X12852000Y51866000D01*
X12852000Y50666000D01*
X13852000Y50666000D01*
X13927000Y50741000D01*
X13927000Y51700674D01*
X13881328Y51810937D01*
X13796936Y51895328D01*
X13686673Y51941000D01*
X12927000Y51941000D01*
X12852000Y51866000D01*
X12802000Y51866000D01*
X12727000Y51941000D01*
X11967327Y51941000D01*
X11857064Y51895328D01*
X11772672Y51810937D01*
X11727000Y51700674D01*
X8628400Y51700674D01*
X8628400Y53262576D01*
X20432779Y53262576D01*
X21209000Y52486355D01*
X21985221Y53262576D01*
X21892800Y53434702D01*
X21464302Y53621501D01*
X20996937Y53630102D01*
X20561857Y53459195D01*
X20525200Y53434702D01*
X20432779Y53262576D01*
X8628400Y53262576D01*
X8628400Y53803648D01*
X8761020Y53936268D01*
X8987730Y53936070D01*
X9263486Y54050011D01*
X9474648Y54260805D01*
X9589069Y54536361D01*
X9589330Y54834730D01*
X9475389Y55110486D01*
X9264595Y55321648D01*
X8989039Y55436069D01*
X8690670Y55436330D01*
X8414914Y55322389D01*
X8203752Y55111595D01*
X8089331Y54836039D01*
X8089131Y54607883D01*
X7817524Y54336276D01*
X7714557Y54182175D01*
X7678400Y54000400D01*
X7678400Y46864363D01*
X7517952Y46704195D01*
X7403531Y46428639D01*
X7403355Y46227397D01*
X7193876Y46436876D01*
X7039775Y46539843D01*
X6898472Y46567950D01*
X7006899Y46676187D01*
X7193787Y47126263D01*
X7194212Y47613599D01*
X7008110Y48064000D01*
X6663813Y48408899D01*
X6213737Y48595787D01*
X5726401Y48596212D01*
X5276000Y48410110D01*
X4931101Y48065813D01*
X4744213Y47615737D01*
X4743788Y47128401D01*
X4929890Y46678000D01*
X5031712Y46576000D01*
X4260752Y46576000D01*
X4052687Y46784065D01*
X4053164Y46784780D01*
X4144509Y47244000D01*
X4053164Y47703220D01*
X3793037Y48092528D01*
X3403729Y48352655D01*
X2944509Y48444000D01*
X2897491Y48444000D01*
X2438271Y48352655D01*
X2048963Y48092528D01*
X1872000Y47827684D01*
X1872000Y49327316D01*
X2048963Y49062472D01*
X2438271Y48802345D01*
X2897491Y48711000D01*
X2944509Y48711000D01*
X3403729Y48802345D01*
X3793037Y49062472D01*
X4053164Y49451780D01*
X4096252Y49668401D01*
X4743788Y49668401D01*
X4929890Y49218000D01*
X5274187Y48873101D01*
X5724263Y48686213D01*
X6211599Y48685788D01*
X6662000Y48871890D01*
X7006899Y49216187D01*
X7193787Y49666263D01*
X7194212Y50153599D01*
X7008110Y50604000D01*
X6663813Y50948899D01*
X6213737Y51135787D01*
X5726401Y51136212D01*
X5276000Y50950110D01*
X4931101Y50605813D01*
X4744213Y50155737D01*
X4743788Y49668401D01*
X4096252Y49668401D01*
X4144509Y49911000D01*
X4053164Y50370220D01*
X3793037Y50759528D01*
X3403729Y51019655D01*
X2944509Y51111000D01*
X2897491Y51111000D01*
X2438271Y51019655D01*
X2048963Y50759528D01*
X1872000Y50494684D01*
X1872000Y50857248D01*
X2389610Y51374859D01*
X2438271Y51342345D01*
X2897491Y51251000D01*
X2944509Y51251000D01*
X3403729Y51342345D01*
X3793037Y51602472D01*
X4053164Y51991780D01*
X4096252Y52208401D01*
X4743788Y52208401D01*
X4929890Y51758000D01*
X5274187Y51413101D01*
X5724263Y51226213D01*
X6211599Y51225788D01*
X6662000Y51411890D01*
X7006899Y51756187D01*
X7193787Y52206263D01*
X7194212Y52693599D01*
X7008110Y53144000D01*
X6663813Y53488899D01*
X6213737Y53675787D01*
X5726401Y53676212D01*
X5276000Y53490110D01*
X4931101Y53145813D01*
X4744213Y52695737D01*
X4743788Y52208401D01*
X4096252Y52208401D01*
X4144509Y52451000D01*
X4053164Y52910220D01*
X3793037Y53299528D01*
X3403729Y53559655D01*
X2944509Y53651000D01*
X2897491Y53651000D01*
X2438271Y53559655D01*
X2048963Y53299528D01*
X1788836Y52910220D01*
X1697491Y52451000D01*
X1767963Y52096715D01*
X1061124Y51389876D01*
X958157Y51235775D01*
X922000Y51054000D01*
X922000Y46228000D01*
X958157Y46046225D01*
X1061124Y45892124D01*
X1789314Y45163935D01*
X1788836Y45163220D01*
X1697491Y44704000D01*
X1788836Y44244780D01*
X2048963Y43855472D01*
X2438271Y43595345D01*
X2897491Y43504000D01*
X2944509Y43504000D01*
X3403729Y43595345D01*
X3793037Y43855472D01*
X4053164Y44244780D01*
X4144509Y44704000D01*
X4053164Y45163220D01*
X3793037Y45552528D01*
X3403729Y45812655D01*
X2944509Y45904000D01*
X2897491Y45904000D01*
X2476494Y45820258D01*
X1872000Y46424752D01*
X1872000Y46660316D01*
X2048963Y46395472D01*
X2438271Y46135345D01*
X2897491Y46044000D01*
X2944509Y46044000D01*
X3365506Y46127742D01*
X3728124Y45765124D01*
X3882225Y45662157D01*
X4064000Y45626000D01*
X5031463Y45626000D01*
X4931101Y45525813D01*
X4744213Y45075737D01*
X4743788Y44588401D01*
X4929890Y44138000D01*
X5274187Y43793101D01*
X5724263Y43606213D01*
X6211599Y43605788D01*
X6662000Y43791890D01*
X7006899Y44136187D01*
X7193787Y44586263D01*
X7194212Y45073599D01*
X7180526Y45106723D01*
X8281393Y44005856D01*
X8184545Y44005856D01*
X8033000Y44036000D01*
X7881455Y44005856D01*
X7795000Y44005856D01*
X7665298Y43981451D01*
X7546175Y43904797D01*
X7466259Y43787837D01*
X7438144Y43649000D01*
X7438144Y41949000D01*
X7462549Y41819298D01*
X7539203Y41700175D01*
X7656163Y41620259D01*
X7795000Y41592144D01*
X9453665Y41592144D01*
X9431000Y41478200D01*
X9431000Y41098563D01*
X9270552Y40938395D01*
X9156131Y40662839D01*
X9155870Y40364470D01*
X9213085Y40226000D01*
X7098186Y40226000D01*
X7008110Y40444000D01*
X6663813Y40788899D01*
X6213737Y40975787D01*
X5726401Y40976212D01*
X5276000Y40790110D01*
X4931101Y40445813D01*
X4744213Y39995737D01*
X4743788Y39508401D01*
X4929890Y39058000D01*
X5274187Y38713101D01*
X5724263Y38526213D01*
X6211599Y38525788D01*
X6662000Y38711890D01*
X7006899Y39056187D01*
X7098173Y39276000D01*
X10223500Y39276000D01*
X10405275Y39312157D01*
X10559376Y39415124D01*
X11690252Y40546000D01*
X20271463Y40546000D01*
X20171101Y40445813D01*
X19984213Y39995737D01*
X19983788Y39508401D01*
X20169890Y39058000D01*
X20208323Y39019500D01*
X12319005Y39019500D01*
X12319000Y39019501D01*
X12167384Y38989342D01*
X12137225Y38983343D01*
X11999024Y38891000D01*
X11983124Y38880376D01*
X10788748Y37686000D01*
X7098186Y37686000D01*
X7008110Y37904000D01*
X6663813Y38248899D01*
X6213737Y38435787D01*
X5726401Y38436212D01*
X5276000Y38250110D01*
X4931101Y37905813D01*
X4744213Y37455737D01*
X4743788Y36968401D01*
X4929890Y36518000D01*
X5274187Y36173101D01*
X5724263Y35986213D01*
X6211599Y35985788D01*
X6662000Y36171890D01*
X7006899Y36516187D01*
X7098173Y36736000D01*
X10985500Y36736000D01*
X11167275Y36772157D01*
X11321376Y36875124D01*
X12515752Y38069500D01*
X20335074Y38069500D01*
X20171101Y37905813D01*
X19984213Y37455737D01*
X19983788Y36968401D01*
X20169890Y36518000D01*
X20514187Y36173101D01*
X20964263Y35986213D01*
X21451599Y35985788D01*
X21902000Y36171890D01*
X22246899Y36516187D01*
X22433787Y36966263D01*
X22434212Y37453599D01*
X22248110Y37904000D01*
X22082899Y38069500D01*
X23649000Y38069500D01*
X23649000Y19531000D01*
X3429000Y19531000D01*
X3390094Y19523121D01*
X3357319Y19500727D01*
X3335839Y19467346D01*
X3329000Y19431000D01*
X3329000Y18796000D01*
X3336879Y18757094D01*
X3359273Y18724319D01*
X3392654Y18702839D01*
X3429000Y18696000D01*
X24003000Y18696000D01*
X24041906Y18703879D01*
X24074681Y18726273D01*
X24096161Y18759654D01*
X24103000Y18796000D01*
X24103000Y28630500D01*
X45708644Y28630500D01*
X45708644Y27630500D01*
X45733049Y27500798D01*
X45809703Y27381675D01*
X45926663Y27301759D01*
X46065500Y27273644D01*
X47340500Y27273644D01*
X47340500Y27086522D01*
X47256131Y26883339D01*
X47255870Y26584970D01*
X47369811Y26309214D01*
X47580605Y26098052D01*
X47856161Y25983631D01*
X48154530Y25983370D01*
X48430286Y26097311D01*
X48641448Y26308105D01*
X48755869Y26583661D01*
X48756130Y26882030D01*
X48642189Y27157786D01*
X48431395Y27368948D01*
X48337136Y27408088D01*
X48394241Y27491663D01*
X48422356Y27630500D01*
X48422356Y28630500D01*
X48397951Y28760202D01*
X48321297Y28879325D01*
X48204337Y28959241D01*
X48065500Y28987356D01*
X46065500Y28987356D01*
X45935798Y28962951D01*
X45816675Y28886297D01*
X45736759Y28769337D01*
X45708644Y28630500D01*
X24103000Y28630500D01*
X24103000Y38069500D01*
X32823248Y38069500D01*
X34398624Y36494124D01*
X34552725Y36391157D01*
X34734500Y36355000D01*
X36046314Y36355000D01*
X36130311Y36151714D01*
X36341105Y35940552D01*
X36616661Y35826131D01*
X36915030Y35825870D01*
X37190786Y35939811D01*
X37215159Y35964141D01*
X37288163Y35914259D01*
X37427000Y35886144D01*
X39027000Y35886144D01*
X39156702Y35910549D01*
X39243680Y35966518D01*
X39320163Y35914259D01*
X39459000Y35886144D01*
X40901600Y35886144D01*
X40901600Y35700856D01*
X38909500Y35700856D01*
X38779798Y35676451D01*
X38660675Y35599797D01*
X38580759Y35482837D01*
X38552644Y35344000D01*
X38552644Y33744000D01*
X38577049Y33614298D01*
X38633018Y33527320D01*
X38580759Y33450837D01*
X38552644Y33312000D01*
X38552644Y33296440D01*
X38501214Y33275189D01*
X38290052Y33064395D01*
X38175631Y32788839D01*
X38175370Y32490470D01*
X38289311Y32214714D01*
X38500105Y32003552D01*
X38552644Y31981736D01*
X38552644Y31712000D01*
X38577049Y31582298D01*
X38633018Y31495320D01*
X38580759Y31418837D01*
X38552644Y31280000D01*
X38552644Y29680000D01*
X38577049Y29550298D01*
X38653703Y29431175D01*
X38770663Y29351259D01*
X38909500Y29323144D01*
X39275822Y29323144D01*
X39452605Y29146052D01*
X39728161Y29031631D01*
X40026530Y29031370D01*
X40302286Y29145311D01*
X40480429Y29323144D01*
X40909500Y29323144D01*
X41039202Y29347549D01*
X41158325Y29424203D01*
X41238241Y29541163D01*
X41266356Y29680000D01*
X41266356Y31280000D01*
X41241951Y31409702D01*
X41185982Y31496680D01*
X41238241Y31573163D01*
X41266356Y31712000D01*
X41266356Y32187204D01*
X41712473Y32633322D01*
X41712476Y32633324D01*
X41815443Y32787425D01*
X41850793Y32965144D01*
X43408500Y32965144D01*
X43538202Y32989549D01*
X43657325Y33066203D01*
X43737241Y33183163D01*
X43765356Y33322000D01*
X43765356Y34047932D01*
X43836530Y34047870D01*
X44112286Y34161811D01*
X44323448Y34372605D01*
X44405828Y34571000D01*
X45356500Y34571000D01*
X45356500Y33976327D01*
X45402172Y33866064D01*
X45486563Y33781672D01*
X45596826Y33736000D01*
X46191500Y33736000D01*
X46266500Y33811000D01*
X46266500Y34646000D01*
X46316500Y34646000D01*
X46316500Y33811000D01*
X46391500Y33736000D01*
X46986174Y33736000D01*
X47096437Y33781672D01*
X47180828Y33866064D01*
X47226500Y33976327D01*
X47226500Y34571000D01*
X47151500Y34646000D01*
X46316500Y34646000D01*
X46266500Y34646000D01*
X45431500Y34646000D01*
X45356500Y34571000D01*
X44405828Y34571000D01*
X44437869Y34648161D01*
X44438130Y34946530D01*
X44324189Y35222286D01*
X44113395Y35433448D01*
X43837839Y35547869D01*
X43678979Y35548008D01*
X43664297Y35570825D01*
X43547337Y35650741D01*
X43408500Y35678856D01*
X41851600Y35678856D01*
X41851600Y35841000D01*
X45356500Y35841000D01*
X45356500Y34771000D01*
X45431500Y34696000D01*
X46266500Y34696000D01*
X46266500Y35916000D01*
X46316500Y35916000D01*
X46316500Y34696000D01*
X47151500Y34696000D01*
X47226500Y34771000D01*
X47226500Y35841000D01*
X47151500Y35916000D01*
X46316500Y35916000D01*
X46266500Y35916000D01*
X45431500Y35916000D01*
X45356500Y35841000D01*
X41851600Y35841000D01*
X41851600Y36965144D01*
X43039563Y36965144D01*
X43039470Y36859270D01*
X43153411Y36583514D01*
X43364205Y36372352D01*
X43639761Y36257931D01*
X43938130Y36257670D01*
X44213886Y36371611D01*
X44425048Y36582405D01*
X44539469Y36857961D01*
X44539690Y37111000D01*
X45356500Y37111000D01*
X45356500Y36041000D01*
X45431500Y35966000D01*
X46266500Y35966000D01*
X46266500Y37186000D01*
X46316500Y37186000D01*
X46316500Y35966000D01*
X47151500Y35966000D01*
X47226500Y36041000D01*
X47226500Y37111000D01*
X47151500Y37186000D01*
X46316500Y37186000D01*
X46266500Y37186000D01*
X45431500Y37186000D01*
X45356500Y37111000D01*
X44539690Y37111000D01*
X44539730Y37156330D01*
X44425789Y37432086D01*
X44214995Y37643248D01*
X43939439Y37757669D01*
X43844499Y37757752D01*
X43765356Y37836895D01*
X43765356Y38381000D01*
X45356500Y38381000D01*
X45356500Y37311000D01*
X45431500Y37236000D01*
X46266500Y37236000D01*
X46266500Y38456000D01*
X46316500Y38456000D01*
X46316500Y37236000D01*
X47151500Y37236000D01*
X47226500Y37311000D01*
X47226500Y38381000D01*
X47151500Y38456000D01*
X46316500Y38456000D01*
X46266500Y38456000D01*
X45431500Y38456000D01*
X45356500Y38381000D01*
X43765356Y38381000D01*
X43765356Y39322000D01*
X43740951Y39451702D01*
X43664297Y39570825D01*
X43547337Y39650741D01*
X43546059Y39651000D01*
X44086500Y39651000D01*
X44086500Y39056327D01*
X44132172Y38946064D01*
X44216563Y38861672D01*
X44326826Y38816000D01*
X44921500Y38816000D01*
X44996500Y38891000D01*
X44996500Y39726000D01*
X45046500Y39726000D01*
X45046500Y38891000D01*
X45121500Y38816000D01*
X45356500Y38816000D01*
X45356500Y38581000D01*
X45431500Y38506000D01*
X46266500Y38506000D01*
X46266500Y39726000D01*
X46316500Y39726000D01*
X46316500Y38506000D01*
X47151500Y38506000D01*
X47226500Y38581000D01*
X47226500Y39651000D01*
X47151500Y39726000D01*
X46316500Y39726000D01*
X46266500Y39726000D01*
X45046500Y39726000D01*
X44996500Y39726000D01*
X44161500Y39726000D01*
X44086500Y39651000D01*
X43546059Y39651000D01*
X43408500Y39678856D01*
X41808500Y39678856D01*
X41678798Y39654451D01*
X41559675Y39577797D01*
X41479759Y39460837D01*
X41451644Y39322000D01*
X41451644Y39022464D01*
X41313898Y39049863D01*
X41313930Y39086730D01*
X41199989Y39362486D01*
X40989195Y39573648D01*
X40713639Y39688069D01*
X40415270Y39688330D01*
X40139514Y39574389D01*
X39928352Y39363595D01*
X39813931Y39088039D01*
X39813670Y38789670D01*
X39892100Y38599856D01*
X39459000Y38599856D01*
X39329298Y38575451D01*
X39242320Y38519482D01*
X39165837Y38571741D01*
X39027000Y38599856D01*
X38581041Y38599856D01*
X38671948Y38690605D01*
X38758685Y38899490D01*
X39010530Y38899270D01*
X39286286Y39013211D01*
X39497448Y39224005D01*
X39611869Y39499561D01*
X39612130Y39797930D01*
X39498189Y40073686D01*
X39287395Y40284848D01*
X39011839Y40399269D01*
X38713470Y40399530D01*
X38600860Y40353000D01*
X37280752Y40353000D01*
X37188079Y40445673D01*
X44086500Y40445673D01*
X44086500Y39851000D01*
X44161500Y39776000D01*
X44996500Y39776000D01*
X44996500Y40611000D01*
X45046500Y40611000D01*
X45046500Y39776000D01*
X46266500Y39776000D01*
X46266500Y40611000D01*
X46316500Y40611000D01*
X46316500Y39776000D01*
X47151500Y39776000D01*
X47226500Y39851000D01*
X47226500Y40445673D01*
X47180828Y40555936D01*
X47096437Y40640328D01*
X46986174Y40686000D01*
X46391500Y40686000D01*
X46316500Y40611000D01*
X46266500Y40611000D01*
X46191500Y40686000D01*
X45121500Y40686000D01*
X45046500Y40611000D01*
X44996500Y40611000D01*
X44921500Y40686000D01*
X44326826Y40686000D01*
X44216563Y40640328D01*
X44132172Y40555936D01*
X44086500Y40445673D01*
X37188079Y40445673D01*
X31055252Y46578500D01*
X38601748Y46578500D01*
X43128568Y42051680D01*
X43128370Y41824970D01*
X43242311Y41549214D01*
X43453105Y41338052D01*
X43728661Y41223631D01*
X44027030Y41223370D01*
X44229411Y41306993D01*
X44271011Y41206314D01*
X44481805Y40995152D01*
X44757361Y40880731D01*
X45055730Y40880470D01*
X45331486Y40994411D01*
X45542648Y41205205D01*
X45657069Y41480761D01*
X45657207Y41638200D01*
X51511200Y41638200D01*
X51692975Y41674357D01*
X51847076Y41777324D01*
X52837676Y42767924D01*
X52868797Y42814500D01*
X53784144Y42814500D01*
X53784144Y40814500D01*
X53808549Y40684798D01*
X53885203Y40565675D01*
X54002163Y40485759D01*
X54141000Y40457644D01*
X55841000Y40457644D01*
X55970702Y40482049D01*
X56089825Y40558703D01*
X56128633Y40615500D01*
X58668644Y40615500D01*
X58668644Y40490500D01*
X58693049Y40360798D01*
X58769703Y40241675D01*
X58886663Y40161759D01*
X59025500Y40133644D01*
X61225500Y40133644D01*
X61355202Y40158049D01*
X61474325Y40234703D01*
X61554241Y40351663D01*
X61582356Y40490500D01*
X61582356Y41690500D01*
X61557951Y41820202D01*
X61481297Y41939325D01*
X61364337Y42019241D01*
X61225500Y42047356D01*
X59300684Y42047356D01*
X59309448Y42056105D01*
X59394320Y42260500D01*
X63150000Y42260500D01*
X63150000Y40640000D01*
X63173936Y40512790D01*
X63249117Y40395955D01*
X63363830Y40317575D01*
X63500000Y40290000D01*
X75882500Y40290000D01*
X76013493Y40315437D01*
X76020895Y40320323D01*
X76423021Y40319972D01*
X77544429Y40783328D01*
X78403156Y41640558D01*
X78868469Y42761156D01*
X78869528Y43974521D01*
X78406172Y45095929D01*
X77548942Y45954656D01*
X76428344Y46419969D01*
X75959629Y46420378D01*
X75955170Y46423425D01*
X75819000Y46451000D01*
X72041500Y46451000D01*
X72041500Y48831500D01*
X72017564Y48958710D01*
X71942383Y49075545D01*
X71827670Y49153925D01*
X71691500Y49181500D01*
X69151500Y49181500D01*
X69024290Y49157564D01*
X68907455Y49082383D01*
X68829075Y48967670D01*
X68801500Y48831500D01*
X68801500Y46451000D01*
X63500000Y46451000D01*
X63372790Y46427064D01*
X63255955Y46351883D01*
X63177575Y46237170D01*
X63150000Y46101000D01*
X63150000Y43210500D01*
X58928000Y43210500D01*
X58891555Y43203251D01*
X58823839Y43231369D01*
X58525470Y43231630D01*
X58249714Y43117689D01*
X58038552Y42906895D01*
X57924131Y42631339D01*
X57923870Y42332970D01*
X58037811Y42057214D01*
X58248605Y41846052D01*
X58524161Y41731631D01*
X58676946Y41731497D01*
X58668644Y41690500D01*
X58668644Y41565500D01*
X56197856Y41565500D01*
X56197856Y42814500D01*
X56173451Y42944202D01*
X56096797Y43063325D01*
X55979837Y43143241D01*
X55841000Y43171356D01*
X54141000Y43171356D01*
X54011298Y43146951D01*
X53892175Y43070297D01*
X53812259Y42953337D01*
X53784144Y42814500D01*
X52868797Y42814500D01*
X52937469Y42917275D01*
X52940643Y42922025D01*
X52976800Y43103800D01*
X52976800Y46024800D01*
X52940643Y46206575D01*
X52837676Y46360676D01*
X50526276Y48672076D01*
X50372175Y48775043D01*
X50190400Y48811200D01*
X31565752Y48811200D01*
X28885476Y51491476D01*
X28731375Y51594443D01*
X28549600Y51630600D01*
X27622856Y51630600D01*
X27622856Y53301000D01*
X27598451Y53430702D01*
X27521797Y53549825D01*
X27404837Y53629741D01*
X27266000Y53657856D01*
X25566000Y53657856D01*
X25436298Y53633451D01*
X25317175Y53556797D01*
X25237259Y53439837D01*
X25209144Y53301000D01*
X25209144Y51630600D01*
X24103000Y51630600D01*
X24103000Y55811400D01*
X25525168Y55811400D01*
X25283836Y55450220D01*
X25192491Y54991000D01*
X25283836Y54531780D01*
X25543963Y54142472D01*
X25933271Y53882345D01*
X26392491Y53791000D01*
X26439509Y53791000D01*
X26898729Y53882345D01*
X27288037Y54142472D01*
X27548164Y54531780D01*
X27639509Y54991000D01*
X27548164Y55450220D01*
X27306832Y55811400D01*
X41713248Y55811400D01*
X45384122Y52140527D01*
X45384124Y52140524D01*
X45538225Y52037557D01*
X45568384Y52031558D01*
X45720000Y52001399D01*
X45720005Y52001400D01*
X46300144Y52001400D01*
X46300144Y51626400D01*
X46324549Y51496698D01*
X46401203Y51377575D01*
X46518163Y51297659D01*
X46657000Y51269544D01*
X48657000Y51269544D01*
X48786702Y51293949D01*
X48905825Y51370603D01*
X48985741Y51487563D01*
X49013856Y51626400D01*
X49013856Y53326400D01*
X48989451Y53456102D01*
X48932952Y53543904D01*
X48985741Y53621163D01*
X49013856Y53760000D01*
X49013856Y55460000D01*
X49002628Y55519673D01*
X50357000Y55519673D01*
X50357000Y54710000D01*
X50432000Y54635000D01*
X51632000Y54635000D01*
X51632000Y55685000D01*
X51682000Y55685000D01*
X51682000Y54635000D01*
X52882000Y54635000D01*
X52957000Y54710000D01*
X52957000Y55519673D01*
X52911328Y55629936D01*
X52826937Y55714328D01*
X52716674Y55760000D01*
X51757000Y55760000D01*
X51682000Y55685000D01*
X51632000Y55685000D01*
X51557000Y55760000D01*
X50597326Y55760000D01*
X50487063Y55714328D01*
X50402672Y55629936D01*
X50357000Y55519673D01*
X49002628Y55519673D01*
X48989451Y55589702D01*
X48912797Y55708825D01*
X48795837Y55788741D01*
X48657000Y55816856D01*
X46657000Y55816856D01*
X46527298Y55792451D01*
X46408175Y55715797D01*
X46328259Y55598837D01*
X46300144Y55460000D01*
X46300144Y53760000D01*
X46324549Y53630298D01*
X46381048Y53542496D01*
X46328259Y53465237D01*
X46300144Y53326400D01*
X46300144Y52951400D01*
X45916751Y52951400D01*
X42523352Y56344800D01*
X46615600Y56344800D01*
X46797375Y56380957D01*
X46951476Y56483924D01*
X47071096Y56603544D01*
X48606200Y56603544D01*
X48735902Y56627949D01*
X48855025Y56704603D01*
X48934941Y56821563D01*
X48963056Y56960400D01*
X48963056Y58660400D01*
X50249344Y58660400D01*
X50249344Y56960400D01*
X50273749Y56830698D01*
X50350403Y56711575D01*
X50467363Y56631659D01*
X50606200Y56603544D01*
X52606200Y56603544D01*
X52735902Y56627949D01*
X52855025Y56704603D01*
X52934941Y56821563D01*
X52963056Y56960400D01*
X52963056Y57335400D01*
X52990848Y57335400D01*
X54566800Y55759448D01*
X54566800Y51311752D01*
X53066276Y52812276D01*
X53013856Y52847302D01*
X53013856Y53326400D01*
X52989451Y53456102D01*
X52912797Y53575225D01*
X52903109Y53581845D01*
X52911328Y53590064D01*
X52957000Y53700327D01*
X52957000Y54510000D01*
X52882000Y54585000D01*
X51682000Y54585000D01*
X51682000Y54565000D01*
X51632000Y54565000D01*
X51632000Y54585000D01*
X50432000Y54585000D01*
X50357000Y54510000D01*
X50357000Y53700327D01*
X50402672Y53590064D01*
X50409613Y53583123D01*
X50408175Y53582197D01*
X50328259Y53465237D01*
X50300144Y53326400D01*
X50300144Y51626400D01*
X50324549Y51496698D01*
X50401203Y51377575D01*
X50518163Y51297659D01*
X50657000Y51269544D01*
X52657000Y51269544D01*
X52786702Y51293949D01*
X52905825Y51370603D01*
X52985741Y51487563D01*
X52996139Y51538909D01*
X54033400Y50501648D01*
X54033400Y46634400D01*
X54069557Y46452625D01*
X54172524Y46298524D01*
X55442524Y45028524D01*
X55596625Y44925557D01*
X55778400Y44889400D01*
X56489600Y44889400D01*
X56671375Y44925557D01*
X56825476Y45028524D01*
X57409673Y45612722D01*
X57409676Y45612724D01*
X57483941Y45723870D01*
X57512644Y45766826D01*
X57548801Y45948600D01*
X57548800Y45948605D01*
X57548800Y46234448D01*
X57554420Y46240068D01*
X57781130Y46239870D01*
X58056886Y46353811D01*
X58268048Y46564605D01*
X58382469Y46840161D01*
X58382730Y47138530D01*
X58268789Y47414286D01*
X58057995Y47625448D01*
X58038257Y47633644D01*
X58190500Y47633644D01*
X58320202Y47658049D01*
X58439325Y47734703D01*
X58519241Y47851663D01*
X58547356Y47990500D01*
X58547356Y49990500D01*
X58522951Y50120202D01*
X58446297Y50239325D01*
X58329337Y50319241D01*
X58190500Y50347356D01*
X56490500Y50347356D01*
X56360798Y50322951D01*
X56241675Y50246297D01*
X56161759Y50129337D01*
X56133644Y49990500D01*
X56133644Y47990500D01*
X56158049Y47860798D01*
X56234703Y47741675D01*
X56351663Y47661759D01*
X56490500Y47633644D01*
X57226356Y47633644D01*
X57208314Y47626189D01*
X56997152Y47415395D01*
X56882731Y47139839D01*
X56882531Y46911683D01*
X56737924Y46767076D01*
X56735450Y46763374D01*
X56610195Y46888848D01*
X56334639Y47003269D01*
X56106483Y47003469D01*
X55516800Y47593152D01*
X55516800Y53990500D01*
X56133644Y53990500D01*
X56133644Y51990500D01*
X56158049Y51860798D01*
X56234703Y51741675D01*
X56351663Y51661759D01*
X56490500Y51633644D01*
X58190500Y51633644D01*
X58320202Y51658049D01*
X58439325Y51734703D01*
X58519241Y51851663D01*
X58547356Y51990500D01*
X58547356Y52579106D01*
X58660376Y52654624D01*
X58888644Y52882892D01*
X58888644Y47815500D01*
X58913049Y47685798D01*
X58989703Y47566675D01*
X59106663Y47486759D01*
X59245500Y47458644D01*
X66865500Y47458644D01*
X66995202Y47483049D01*
X67114325Y47559703D01*
X67194241Y47676663D01*
X67222356Y47815500D01*
X67222356Y49692800D01*
X68383400Y49692800D01*
X68632144Y49742278D01*
X68673848Y49770144D01*
X69307200Y49770144D01*
X69436902Y49794549D01*
X69556025Y49871203D01*
X69635941Y49988163D01*
X69664056Y50127000D01*
X69664056Y51678644D01*
X71530500Y51678644D01*
X71660202Y51703049D01*
X71779325Y51779703D01*
X71859241Y51896663D01*
X71887356Y52035500D01*
X71887356Y53235500D01*
X71862951Y53365202D01*
X71786297Y53484325D01*
X71669337Y53564241D01*
X71530500Y53592356D01*
X70145396Y53592356D01*
X69744376Y53993376D01*
X69590275Y54096343D01*
X69408500Y54132500D01*
X58991500Y54132500D01*
X58809725Y54096343D01*
X58655624Y53993376D01*
X58655622Y53993373D01*
X58547356Y53885107D01*
X58547356Y53990500D01*
X58522951Y54120202D01*
X58446297Y54239325D01*
X58329337Y54319241D01*
X58190500Y54347356D01*
X56490500Y54347356D01*
X56360798Y54322951D01*
X56241675Y54246297D01*
X56161759Y54129337D01*
X56133644Y53990500D01*
X55516800Y53990500D01*
X55516800Y55956195D01*
X55516801Y55956200D01*
X55480643Y56137974D01*
X55480643Y56137975D01*
X55377676Y56292076D01*
X53523476Y58146276D01*
X53369375Y58249243D01*
X53187600Y58285400D01*
X52963056Y58285400D01*
X52963056Y58660400D01*
X52938651Y58790102D01*
X52861997Y58909225D01*
X52852309Y58915845D01*
X52860528Y58924064D01*
X52906200Y59034327D01*
X52906200Y59844000D01*
X52831200Y59919000D01*
X51631200Y59919000D01*
X51631200Y59899000D01*
X51581200Y59899000D01*
X51581200Y59919000D01*
X50381200Y59919000D01*
X50306200Y59844000D01*
X50306200Y59034327D01*
X50351872Y58924064D01*
X50358813Y58917123D01*
X50357375Y58916197D01*
X50277459Y58799237D01*
X50249344Y58660400D01*
X48963056Y58660400D01*
X48938651Y58790102D01*
X48882152Y58877904D01*
X48934941Y58955163D01*
X48963056Y59094000D01*
X48963056Y60794000D01*
X48951828Y60853673D01*
X50306200Y60853673D01*
X50306200Y60044000D01*
X50381200Y59969000D01*
X51581200Y59969000D01*
X51581200Y61019000D01*
X51631200Y61019000D01*
X51631200Y59969000D01*
X52831200Y59969000D01*
X52906200Y60044000D01*
X52906200Y60853673D01*
X52860528Y60963936D01*
X52776137Y61048328D01*
X52665874Y61094000D01*
X51706200Y61094000D01*
X51631200Y61019000D01*
X51581200Y61019000D01*
X51506200Y61094000D01*
X50546526Y61094000D01*
X50436263Y61048328D01*
X50351872Y60963936D01*
X50306200Y60853673D01*
X48951828Y60853673D01*
X48938651Y60923702D01*
X48861997Y61042825D01*
X48745037Y61122741D01*
X48606200Y61150856D01*
X46606200Y61150856D01*
X46476498Y61126451D01*
X46357375Y61049797D01*
X46277459Y60932837D01*
X46249344Y60794000D01*
X46249344Y59094000D01*
X46273749Y58964298D01*
X46330248Y58876496D01*
X46277459Y58799237D01*
X46249344Y58660400D01*
X46249344Y57294800D01*
X24103000Y57294800D01*
X24103000Y63075000D01*
X58965509Y63075000D01*
X58161999Y62742997D01*
X57275117Y61857661D01*
X56794548Y60700323D01*
X56793455Y59447175D01*
X57272003Y58288999D01*
X58157339Y57402117D01*
X59314677Y56921548D01*
X60567825Y56920455D01*
X61726001Y57399003D01*
X62612883Y58284339D01*
X63093452Y59441677D01*
X63094545Y60694825D01*
X62615997Y61853001D01*
X61730661Y62739883D01*
X60923610Y63075000D01*
X77809140Y63075000D01*
X79045995Y62828975D01*
X80059064Y62152064D01*
X80735975Y61138995D01*
X80982000Y59902140D01*
X80982000Y3597860D01*
X80735975Y2361005D01*
X80059064Y1347936D01*
X79045995Y671025D01*
X77809140Y425000D01*
X60615128Y425000D01*
X61726001Y884003D01*
X62612883Y1769339D01*
X63093452Y2926677D01*
X63094545Y4179825D01*
X62615997Y5338001D01*
X61730661Y6224883D01*
X60573323Y6705452D01*
X59320175Y6706545D01*
X58161999Y6227997D01*
X57275117Y5342661D01*
X56794548Y4185323D01*
X56793455Y2932175D01*
X57272003Y1773999D01*
X58157339Y887117D01*
X59270240Y425000D01*
X4100128Y425000D01*
X5211001Y884003D01*
X6097883Y1769339D01*
X6578452Y2926677D01*
X6579545Y4179825D01*
X6100997Y5338001D01*
X5215661Y6224883D01*
X4058323Y6705452D01*
X2805175Y6706545D01*
X1646999Y6227997D01*
X760117Y5342661D01*
X425000Y4535610D01*
X425000Y8432067D01*
X17150423Y8432067D01*
X17282394Y8226171D01*
X17828329Y7985233D01*
X18424910Y7971555D01*
X18981312Y8187220D01*
X19039606Y8226171D01*
X19171577Y8432067D01*
X30485423Y8432067D01*
X30617394Y8226171D01*
X31163329Y7985233D01*
X31759910Y7971555D01*
X32316312Y8187220D01*
X32374606Y8226171D01*
X32506577Y8432067D01*
X31496000Y9442645D01*
X30485423Y8432067D01*
X19171577Y8432067D01*
X18161000Y9442645D01*
X17150423Y8432067D01*
X425000Y8432067D01*
X425000Y9214090D01*
X16654555Y9214090D01*
X16870220Y8657688D01*
X16909171Y8599394D01*
X17115067Y8467423D01*
X18125645Y9478000D01*
X18196355Y9478000D01*
X19206933Y8467423D01*
X19412829Y8599394D01*
X19653767Y9145329D01*
X19655343Y9214090D01*
X29989555Y9214090D01*
X30205220Y8657688D01*
X30244171Y8599394D01*
X30450067Y8467423D01*
X31460645Y9478000D01*
X31531355Y9478000D01*
X32541933Y8467423D01*
X32747829Y8599394D01*
X32988767Y9145329D01*
X33002445Y9741910D01*
X32786780Y10298312D01*
X32747829Y10356606D01*
X32541933Y10488577D01*
X31531355Y9478000D01*
X31460645Y9478000D01*
X30450067Y10488577D01*
X30244171Y10356606D01*
X30003233Y9810671D01*
X29989555Y9214090D01*
X19655343Y9214090D01*
X19667445Y9741910D01*
X19451780Y10298312D01*
X19412829Y10356606D01*
X19206933Y10488577D01*
X18196355Y9478000D01*
X18125645Y9478000D01*
X17115067Y10488577D01*
X16909171Y10356606D01*
X16668233Y9810671D01*
X16654555Y9214090D01*
X425000Y9214090D01*
X425000Y10523933D01*
X17150423Y10523933D01*
X18161000Y9513355D01*
X19171577Y10523933D01*
X30485423Y10523933D01*
X31496000Y9513355D01*
X32506577Y10523933D01*
X32374606Y10729829D01*
X32333275Y10748070D01*
X36156070Y10748070D01*
X36270011Y10472314D01*
X36480805Y10261152D01*
X36756361Y10146731D01*
X36984517Y10146531D01*
X39008722Y8122327D01*
X39008724Y8122324D01*
X39162825Y8019357D01*
X39344600Y7983200D01*
X42032944Y7983200D01*
X42032944Y7582800D01*
X42057349Y7453098D01*
X42105431Y7378377D01*
X42061059Y7313437D01*
X42032944Y7174600D01*
X42032944Y5474600D01*
X42057349Y5344898D01*
X42134003Y5225775D01*
X42250963Y5145859D01*
X42389800Y5117744D01*
X44389800Y5117744D01*
X44519502Y5142149D01*
X44638625Y5218803D01*
X44718541Y5335763D01*
X44746656Y5474600D01*
X44746656Y7174600D01*
X46032944Y7174600D01*
X46032944Y5474600D01*
X46057349Y5344898D01*
X46134003Y5225775D01*
X46250963Y5145859D01*
X46389800Y5117744D01*
X48389800Y5117744D01*
X48519502Y5142149D01*
X48638625Y5218803D01*
X48718541Y5335763D01*
X48746656Y5474600D01*
X48746656Y5849600D01*
X49504600Y5849600D01*
X49686375Y5885757D01*
X49840476Y5988724D01*
X51250751Y7399000D01*
X60579000Y7399000D01*
X60760775Y7435157D01*
X60914876Y7538124D01*
X63275013Y9898261D01*
X63363830Y9837575D01*
X63500000Y9810000D01*
X75882500Y9810000D01*
X76013493Y9835437D01*
X76020895Y9840323D01*
X76423021Y9839972D01*
X77544429Y10303328D01*
X78403156Y11160558D01*
X78868469Y12281156D01*
X78869528Y13494521D01*
X78406172Y14615929D01*
X77548942Y15474656D01*
X76428344Y15939969D01*
X75959629Y15940378D01*
X75955170Y15943425D01*
X75819000Y15971000D01*
X72041500Y15971000D01*
X72041500Y18351500D01*
X72017564Y18478710D01*
X71942383Y18595545D01*
X71827670Y18673925D01*
X71691500Y18701500D01*
X69151500Y18701500D01*
X69024290Y18677564D01*
X68907455Y18602383D01*
X68829075Y18487670D01*
X68801500Y18351500D01*
X68801500Y15971000D01*
X63500000Y15971000D01*
X63372790Y15947064D01*
X63255955Y15871883D01*
X63177575Y15757170D01*
X63150000Y15621000D01*
X63150000Y11116751D01*
X60382248Y8349000D01*
X51054000Y8349000D01*
X50872225Y8312843D01*
X50718124Y8209876D01*
X50718122Y8209873D01*
X49307848Y6799600D01*
X48746656Y6799600D01*
X48746656Y7174600D01*
X48722251Y7304302D01*
X48647365Y7420678D01*
X48689800Y7523127D01*
X48689800Y8332800D01*
X48614800Y8407800D01*
X47414800Y8407800D01*
X47414800Y8387800D01*
X47364800Y8387800D01*
X47364800Y8407800D01*
X46164800Y8407800D01*
X46089800Y8332800D01*
X46089800Y7523127D01*
X46133028Y7418766D01*
X46061059Y7313437D01*
X46032944Y7174600D01*
X44746656Y7174600D01*
X44722251Y7304302D01*
X44674169Y7379023D01*
X44718541Y7443963D01*
X44746656Y7582800D01*
X44746656Y9282800D01*
X44735428Y9342473D01*
X46089800Y9342473D01*
X46089800Y8532800D01*
X46164800Y8457800D01*
X47364800Y8457800D01*
X47364800Y9507800D01*
X47414800Y9507800D01*
X47414800Y8457800D01*
X48614800Y8457800D01*
X48689800Y8532800D01*
X48689800Y9342473D01*
X48644128Y9452736D01*
X48559737Y9537128D01*
X48449474Y9582800D01*
X47489800Y9582800D01*
X47414800Y9507800D01*
X47364800Y9507800D01*
X47289800Y9582800D01*
X46330126Y9582800D01*
X46219863Y9537128D01*
X46135472Y9452736D01*
X46089800Y9342473D01*
X44735428Y9342473D01*
X44722251Y9412502D01*
X44645597Y9531625D01*
X44528637Y9611541D01*
X44389800Y9639656D01*
X42389800Y9639656D01*
X42260098Y9615251D01*
X42140975Y9538597D01*
X42061059Y9421637D01*
X42032944Y9282800D01*
X42032944Y8933200D01*
X39541351Y8933200D01*
X37656132Y10818420D01*
X37656330Y11045130D01*
X37542389Y11320886D01*
X37331595Y11532048D01*
X37056039Y11646469D01*
X36757670Y11646730D01*
X36481914Y11532789D01*
X36270752Y11321995D01*
X36156331Y11046439D01*
X36156070Y10748070D01*
X32333275Y10748070D01*
X31828671Y10970767D01*
X31232090Y10984445D01*
X30675688Y10768780D01*
X30617394Y10729829D01*
X30485423Y10523933D01*
X19171577Y10523933D01*
X19039606Y10729829D01*
X18493671Y10970767D01*
X17897090Y10984445D01*
X17340688Y10768780D01*
X17282394Y10729829D01*
X17150423Y10523933D01*
X425000Y10523933D01*
X425000Y14322619D01*
X5158680Y14322619D01*
X5667573Y13091004D01*
X6609047Y12147885D01*
X7839772Y11636843D01*
X9172381Y11635680D01*
X10403996Y12144573D01*
X11347115Y13086047D01*
X11858157Y14316772D01*
X11859320Y15649381D01*
X11847495Y15678000D01*
X16604144Y15678000D01*
X16604144Y13278000D01*
X16628549Y13148298D01*
X16705203Y13029175D01*
X16822163Y12949259D01*
X16961000Y12921144D01*
X19361000Y12921144D01*
X19490702Y12945549D01*
X19609825Y13022203D01*
X19689741Y13139163D01*
X19717856Y13278000D01*
X19717856Y15678000D01*
X29939144Y15678000D01*
X29939144Y13278000D01*
X29963549Y13148298D01*
X30040203Y13029175D01*
X30157163Y12949259D01*
X30296000Y12921144D01*
X32696000Y12921144D01*
X32825702Y12945549D01*
X32944825Y13022203D01*
X33024741Y13139163D01*
X33052856Y13278000D01*
X33052856Y13390500D01*
X45708644Y13390500D01*
X45708644Y12390500D01*
X45733049Y12260798D01*
X45809703Y12141675D01*
X45926663Y12061759D01*
X46065500Y12033644D01*
X48065500Y12033644D01*
X48195202Y12058049D01*
X48314325Y12134703D01*
X48394241Y12251663D01*
X48422356Y12390500D01*
X48422356Y13390500D01*
X48397951Y13520202D01*
X48321297Y13639325D01*
X48290500Y13660368D01*
X48290500Y14773970D01*
X49668870Y14773970D01*
X49782811Y14498214D01*
X49993605Y14287052D01*
X50269161Y14172631D01*
X50497317Y14172431D01*
X51084775Y13584974D01*
X51046759Y13529337D01*
X51018644Y13390500D01*
X51018644Y12390500D01*
X51043049Y12260798D01*
X51119703Y12141675D01*
X51236663Y12061759D01*
X51375500Y12033644D01*
X51910500Y12033644D01*
X51910500Y9652000D01*
X51934436Y9524790D01*
X52009617Y9407955D01*
X52124330Y9329575D01*
X52260500Y9302000D01*
X57213500Y9302000D01*
X57340710Y9325936D01*
X57457545Y9401117D01*
X57535925Y9515830D01*
X57563500Y9652000D01*
X57563500Y11210500D01*
X58668644Y11210500D01*
X58668644Y10010500D01*
X58693049Y9880798D01*
X58769703Y9761675D01*
X58886663Y9681759D01*
X59025500Y9653644D01*
X61225500Y9653644D01*
X61355202Y9678049D01*
X61474325Y9754703D01*
X61554241Y9871663D01*
X61582356Y10010500D01*
X61582356Y11210500D01*
X61557951Y11340202D01*
X61481297Y11459325D01*
X61364337Y11539241D01*
X61225500Y11567356D01*
X59025500Y11567356D01*
X58895798Y11542951D01*
X58776675Y11466297D01*
X58696759Y11349337D01*
X58668644Y11210500D01*
X57563500Y11210500D01*
X57563500Y14064500D01*
X61404500Y14064500D01*
X61531710Y14088436D01*
X61648545Y14163617D01*
X61726925Y14278330D01*
X61754500Y14414500D01*
X61754500Y16129000D01*
X61730564Y16256210D01*
X61655383Y16373045D01*
X61540670Y16451425D01*
X61404500Y16479000D01*
X59488752Y16479000D01*
X58931376Y17036376D01*
X58777275Y17139343D01*
X58595500Y17175500D01*
X58306655Y17175500D01*
X58320202Y17178049D01*
X58439325Y17254703D01*
X58519241Y17371663D01*
X58547356Y17510500D01*
X58547356Y19510500D01*
X58522951Y19640202D01*
X58446297Y19759325D01*
X58329337Y19839241D01*
X58190500Y19867356D01*
X56490500Y19867356D01*
X56360798Y19842951D01*
X56241675Y19766297D01*
X56161759Y19649337D01*
X56133644Y19510500D01*
X56133644Y17510500D01*
X56158049Y17380798D01*
X56234703Y17261675D01*
X56351663Y17181759D01*
X56382571Y17175500D01*
X55505251Y17175500D01*
X55423432Y17257320D01*
X55423630Y17484030D01*
X55309689Y17759786D01*
X55098895Y17970948D01*
X54823339Y18085369D01*
X54524970Y18085630D01*
X54249214Y17971689D01*
X54038052Y17760895D01*
X53923631Y17485339D01*
X53923370Y17186970D01*
X54037311Y16911214D01*
X54248105Y16700052D01*
X54523661Y16585631D01*
X54751817Y16585431D01*
X54858249Y16479000D01*
X52260500Y16479000D01*
X52133290Y16455064D01*
X52016455Y16379883D01*
X51938075Y16265170D01*
X51910500Y16129000D01*
X51910500Y14102751D01*
X51168932Y14844320D01*
X51169130Y15071030D01*
X51055189Y15346786D01*
X50844395Y15557948D01*
X50568839Y15672369D01*
X50270470Y15672630D01*
X49994714Y15558689D01*
X49783552Y15347895D01*
X49669131Y15072339D01*
X49668870Y14773970D01*
X48290500Y14773970D01*
X48290500Y14979748D01*
X49421376Y16110624D01*
X49524343Y16264725D01*
X49560500Y16446500D01*
X49560500Y18210437D01*
X49720948Y18370605D01*
X49835369Y18646161D01*
X49835630Y18944530D01*
X49721689Y19220286D01*
X49510895Y19431448D01*
X49235339Y19545869D01*
X48936970Y19546130D01*
X48695856Y19446503D01*
X48695856Y20358000D01*
X48671451Y20487702D01*
X48615482Y20574680D01*
X48667741Y20651163D01*
X48695856Y20790000D01*
X48695856Y22390000D01*
X48671451Y22519702D01*
X48615482Y22606680D01*
X48667741Y22683163D01*
X48695856Y22822000D01*
X48695856Y23316885D01*
X48733522Y23373256D01*
X48763449Y23523711D01*
X49926119Y24686380D01*
X50063510Y24892000D01*
X50067022Y24897256D01*
X50116500Y25146000D01*
X50116500Y27881533D01*
X50198000Y27962891D01*
X50198000Y25082500D01*
X50234157Y24900725D01*
X50337124Y24746624D01*
X51893124Y23190624D01*
X52047225Y23087657D01*
X52069644Y23083198D01*
X52069644Y22526500D01*
X52094049Y22396798D01*
X52170703Y22277675D01*
X52287663Y22197759D01*
X52426500Y22169644D01*
X54126500Y22169644D01*
X54256202Y22194049D01*
X54325500Y22238641D01*
X54325500Y21247251D01*
X53961605Y20883356D01*
X52426500Y20883356D01*
X52296798Y20858951D01*
X52177675Y20782297D01*
X52097759Y20665337D01*
X52069644Y20526500D01*
X52069644Y18526500D01*
X52094049Y18396798D01*
X52170703Y18277675D01*
X52287663Y18197759D01*
X52426500Y18169644D01*
X54126500Y18169644D01*
X54256202Y18194049D01*
X54375325Y18270703D01*
X54455241Y18387663D01*
X54483356Y18526500D01*
X54483356Y20061605D01*
X55136373Y20714622D01*
X55136376Y20714624D01*
X55239343Y20868725D01*
X55275500Y21050500D01*
X55275500Y22790248D01*
X56140252Y23655000D01*
X56165628Y23655000D01*
X56161759Y23649337D01*
X56133644Y23510500D01*
X56133644Y21510500D01*
X56158049Y21380798D01*
X56234703Y21261675D01*
X56351663Y21181759D01*
X56490500Y21153644D01*
X58190500Y21153644D01*
X58320202Y21178049D01*
X58439325Y21254703D01*
X58519241Y21371663D01*
X58547356Y21510500D01*
X58547356Y22315604D01*
X58934251Y22702500D01*
X59045166Y22702500D01*
X58996675Y22671297D01*
X58916759Y22554337D01*
X58888644Y22415500D01*
X58888644Y17335500D01*
X58913049Y17205798D01*
X58989703Y17086675D01*
X59106663Y17006759D01*
X59245500Y16978644D01*
X66865500Y16978644D01*
X66995202Y17003049D01*
X67114325Y17079703D01*
X67194241Y17196663D01*
X67222356Y17335500D01*
X67222356Y18800033D01*
X67244563Y18784859D01*
X67383400Y18756744D01*
X69383400Y18756744D01*
X69513102Y18781149D01*
X69632225Y18857803D01*
X69712141Y18974763D01*
X69740256Y19113600D01*
X69740256Y20713600D01*
X69715851Y20843302D01*
X69639197Y20962425D01*
X69522237Y21042341D01*
X69383400Y21070456D01*
X67383400Y21070456D01*
X67253698Y21046051D01*
X67222356Y21025883D01*
X67222356Y22415500D01*
X67197951Y22545202D01*
X67121297Y22664325D01*
X67065426Y22702500D01*
X68973644Y22702500D01*
X68973644Y21555500D01*
X68998049Y21425798D01*
X69074703Y21306675D01*
X69191663Y21226759D01*
X69330500Y21198644D01*
X71530500Y21198644D01*
X71660202Y21223049D01*
X71779325Y21299703D01*
X71859241Y21416663D01*
X71887356Y21555500D01*
X71887356Y22755500D01*
X71862951Y22885202D01*
X71786297Y23004325D01*
X71669337Y23084241D01*
X71530500Y23112356D01*
X70145396Y23112356D01*
X69744376Y23513376D01*
X69590275Y23616343D01*
X69408500Y23652500D01*
X58737500Y23652500D01*
X58555725Y23616343D01*
X58530599Y23599555D01*
X58522951Y23640202D01*
X58446297Y23759325D01*
X58329337Y23839241D01*
X58190500Y23867356D01*
X57686108Y23867356D01*
X58799837Y24981085D01*
X58886663Y24921759D01*
X59025500Y24893644D01*
X61225500Y24893644D01*
X61355202Y24918049D01*
X61474325Y24994703D01*
X61554241Y25111663D01*
X61582356Y25250500D01*
X61582356Y26450500D01*
X61557951Y26580202D01*
X61481297Y26699325D01*
X61364337Y26779241D01*
X61225500Y26807356D01*
X59025500Y26807356D01*
X58895798Y26782951D01*
X58776675Y26706297D01*
X58696759Y26589337D01*
X58668644Y26450500D01*
X58668644Y26191067D01*
X58661624Y26186376D01*
X58661622Y26186373D01*
X57563500Y25088252D01*
X57563500Y29304500D01*
X61404500Y29304500D01*
X61531710Y29328436D01*
X61648545Y29403617D01*
X61726925Y29518330D01*
X61754500Y29654500D01*
X61754500Y30861000D01*
X63150000Y30861000D01*
X63150000Y25400000D01*
X63173936Y25272790D01*
X63249117Y25155955D01*
X63363830Y25077575D01*
X63500000Y25050000D01*
X75819000Y25050000D01*
X75946210Y25073936D01*
X75956223Y25080379D01*
X76423021Y25079972D01*
X77544429Y25543328D01*
X78403156Y26400558D01*
X78868469Y27521156D01*
X78869528Y28734521D01*
X78406172Y29855929D01*
X77548942Y30714656D01*
X76428344Y31179969D01*
X75959629Y31180378D01*
X75955170Y31183425D01*
X75819000Y31211000D01*
X72041500Y31211000D01*
X72041500Y33591500D01*
X72017564Y33718710D01*
X71942383Y33835545D01*
X71827670Y33913925D01*
X71691500Y33941500D01*
X69151500Y33941500D01*
X69024290Y33917564D01*
X68907455Y33842383D01*
X68829075Y33727670D01*
X68801500Y33591500D01*
X68801500Y31211000D01*
X63500000Y31211000D01*
X63372790Y31187064D01*
X63255955Y31111883D01*
X63177575Y30997170D01*
X63150000Y30861000D01*
X61754500Y30861000D01*
X61754500Y31369000D01*
X61730564Y31496210D01*
X61655383Y31613045D01*
X61540670Y31691425D01*
X61404500Y31719000D01*
X59488752Y31719000D01*
X58867876Y32339876D01*
X58713775Y32442843D01*
X58532000Y32479000D01*
X58414922Y32479000D01*
X58439325Y32494703D01*
X58519241Y32611663D01*
X58547356Y32750500D01*
X58547356Y34750500D01*
X58522951Y34880202D01*
X58446297Y34999325D01*
X58329337Y35079241D01*
X58190500Y35107356D01*
X56655396Y35107356D01*
X55993876Y35768876D01*
X55839775Y35871843D01*
X55658000Y35908000D01*
X54933751Y35908000D01*
X54384107Y36457644D01*
X55841000Y36457644D01*
X55970702Y36482049D01*
X56089825Y36558703D01*
X56152479Y36650400D01*
X56158049Y36620798D01*
X56234703Y36501675D01*
X56351663Y36421759D01*
X56490500Y36393644D01*
X58190500Y36393644D01*
X58320202Y36418049D01*
X58439325Y36494703D01*
X58519241Y36611663D01*
X58547356Y36750500D01*
X58547356Y37555604D01*
X58807251Y37815500D01*
X58931219Y37815500D01*
X58916759Y37794337D01*
X58888644Y37655500D01*
X58888644Y32575500D01*
X58913049Y32445798D01*
X58989703Y32326675D01*
X59106663Y32246759D01*
X59245500Y32218644D01*
X66865500Y32218644D01*
X66995202Y32243049D01*
X67114325Y32319703D01*
X67194241Y32436663D01*
X67222356Y32575500D01*
X67222356Y34116233D01*
X67244563Y34101059D01*
X67383400Y34072944D01*
X69383400Y34072944D01*
X69513102Y34097349D01*
X69632225Y34174003D01*
X69712141Y34290963D01*
X69740256Y34429800D01*
X69740256Y36029800D01*
X69715851Y36159502D01*
X69639197Y36278625D01*
X69522237Y36358541D01*
X69383400Y36386656D01*
X67383400Y36386656D01*
X67253698Y36362251D01*
X67222356Y36342083D01*
X67222356Y37655500D01*
X67197951Y37785202D01*
X67178455Y37815500D01*
X68973644Y37815500D01*
X68973644Y36795500D01*
X68998049Y36665798D01*
X69074703Y36546675D01*
X69191663Y36466759D01*
X69330500Y36438644D01*
X71530500Y36438644D01*
X71660202Y36463049D01*
X71779325Y36539703D01*
X71859241Y36656663D01*
X71887356Y36795500D01*
X71887356Y37995500D01*
X71862951Y38125202D01*
X71786297Y38244325D01*
X71669337Y38324241D01*
X71530500Y38352356D01*
X70145396Y38352356D01*
X69871376Y38626376D01*
X69717275Y38729343D01*
X69535500Y38765500D01*
X58610500Y38765500D01*
X58546913Y38752852D01*
X58522951Y38880202D01*
X58446297Y38999325D01*
X58329337Y39079241D01*
X58190500Y39107356D01*
X56490500Y39107356D01*
X56360798Y39082951D01*
X56241675Y39006297D01*
X56179021Y38914600D01*
X56173451Y38944202D01*
X56096797Y39063325D01*
X55979837Y39143241D01*
X55841000Y39171356D01*
X54141000Y39171356D01*
X54011298Y39146951D01*
X53892175Y39070297D01*
X53812259Y38953337D01*
X53784144Y38814500D01*
X53784144Y37057608D01*
X53675876Y37165876D01*
X53521775Y37268843D01*
X53340000Y37305000D01*
X49657005Y37305000D01*
X49657000Y37305001D01*
X49508692Y37275500D01*
X49475225Y37268843D01*
X49321124Y37165876D01*
X48973180Y36817932D01*
X48746470Y36818130D01*
X48470714Y36704189D01*
X48259552Y36493395D01*
X48145131Y36217839D01*
X48144870Y35919470D01*
X48258811Y35643714D01*
X48469605Y35432552D01*
X48745161Y35318131D01*
X49043530Y35317870D01*
X49319286Y35431811D01*
X49530448Y35642605D01*
X49644869Y35918161D01*
X49645069Y36146317D01*
X49853752Y36355000D01*
X50551585Y36355000D01*
X50494631Y36217839D01*
X50494370Y35919470D01*
X50608311Y35643714D01*
X50723535Y35528289D01*
X50672552Y35477395D01*
X50558131Y35201839D01*
X50557870Y34903470D01*
X50671811Y34627714D01*
X50882605Y34416552D01*
X51158161Y34302131D01*
X51456530Y34301870D01*
X51732286Y34415811D01*
X51943448Y34626605D01*
X51975585Y34704000D01*
X52202585Y34704000D01*
X52145631Y34566839D01*
X52145431Y34338683D01*
X51162624Y33355876D01*
X51059657Y33201775D01*
X51023500Y33020000D01*
X51023500Y31383063D01*
X50923007Y31282745D01*
X49644932Y32560820D01*
X49645130Y32787530D01*
X49531189Y33063286D01*
X49320395Y33274448D01*
X49044839Y33388869D01*
X48746470Y33389130D01*
X48470714Y33275189D01*
X48259552Y33064395D01*
X48145131Y32788839D01*
X48144870Y32490470D01*
X48258811Y32214714D01*
X48469605Y32003552D01*
X48745161Y31889131D01*
X48973317Y31888931D01*
X50198000Y30664248D01*
X50198000Y29186900D01*
X50005335Y29379902D01*
X49656296Y29524835D01*
X49278362Y29525165D01*
X48929071Y29380841D01*
X48661598Y29113835D01*
X48516665Y28764796D01*
X48516335Y28386862D01*
X48660659Y28037571D01*
X48816500Y27881457D01*
X48816500Y25415239D01*
X48180118Y24778856D01*
X46339000Y24778856D01*
X46209298Y24754451D01*
X46090175Y24677797D01*
X46010259Y24560837D01*
X45982144Y24422000D01*
X45982144Y22822000D01*
X46006549Y22692298D01*
X46062518Y22605320D01*
X46010259Y22528837D01*
X45982144Y22390000D01*
X45982144Y20790000D01*
X46006549Y20660298D01*
X46062518Y20573320D01*
X46010259Y20496837D01*
X45982144Y20358000D01*
X45982144Y18758000D01*
X46006549Y18628298D01*
X46062518Y18541320D01*
X46010259Y18464837D01*
X45982144Y18326000D01*
X45982144Y16726000D01*
X46006549Y16596298D01*
X46083203Y16477175D01*
X46200163Y16397259D01*
X46339000Y16369144D01*
X48336392Y16369144D01*
X47479624Y15512376D01*
X47376657Y15358275D01*
X47340500Y15176500D01*
X47340500Y13747356D01*
X46065500Y13747356D01*
X45935798Y13722951D01*
X45816675Y13646297D01*
X45736759Y13529337D01*
X45708644Y13390500D01*
X33052856Y13390500D01*
X33052856Y15678000D01*
X33028451Y15807702D01*
X32951797Y15926825D01*
X32834837Y16006741D01*
X32696000Y16034856D01*
X30296000Y16034856D01*
X30166298Y16010451D01*
X30047175Y15933797D01*
X29967259Y15816837D01*
X29939144Y15678000D01*
X19717856Y15678000D01*
X19693451Y15807702D01*
X19616797Y15926825D01*
X19499837Y16006741D01*
X19361000Y16034856D01*
X16961000Y16034856D01*
X16831298Y16010451D01*
X16712175Y15933797D01*
X16632259Y15816837D01*
X16604144Y15678000D01*
X11847495Y15678000D01*
X11350427Y16880996D01*
X10408953Y17824115D01*
X9178228Y18335157D01*
X7845619Y18336320D01*
X6614004Y17827427D01*
X5670885Y16885953D01*
X5159843Y15655228D01*
X5158680Y14322619D01*
X425000Y14322619D01*
X425000Y18696000D01*
X2032000Y18696000D01*
X2070906Y18703879D01*
X2103681Y18726273D01*
X2125161Y18759654D01*
X2132000Y18796000D01*
X2132000Y19431000D01*
X2124121Y19469906D01*
X2101727Y19502681D01*
X2068346Y19524161D01*
X2032000Y19531000D01*
X425000Y19531000D01*
X425000Y21728401D01*
X4743788Y21728401D01*
X4929890Y21278000D01*
X5274187Y20933101D01*
X5724263Y20746213D01*
X6211599Y20745788D01*
X6662000Y20931890D01*
X7006899Y21276187D01*
X7193787Y21726263D01*
X7193788Y21728401D01*
X17443788Y21728401D01*
X17629890Y21278000D01*
X17974187Y20933101D01*
X18424263Y20746213D01*
X18911599Y20745788D01*
X19362000Y20931890D01*
X19706899Y21276187D01*
X19893787Y21726263D01*
X19893788Y21728401D01*
X19983788Y21728401D01*
X20169890Y21278000D01*
X20514187Y20933101D01*
X20964263Y20746213D01*
X21451599Y20745788D01*
X21902000Y20931890D01*
X22246899Y21276187D01*
X22433787Y21726263D01*
X22434212Y22213599D01*
X22248110Y22664000D01*
X21903813Y23008899D01*
X21453737Y23195787D01*
X20966401Y23196212D01*
X20516000Y23010110D01*
X20171101Y22665813D01*
X19984213Y22215737D01*
X19983788Y21728401D01*
X19893788Y21728401D01*
X19894212Y22213599D01*
X19708110Y22664000D01*
X19363813Y23008899D01*
X18913737Y23195787D01*
X18426401Y23196212D01*
X17976000Y23010110D01*
X17631101Y22665813D01*
X17444213Y22215737D01*
X17443788Y21728401D01*
X7193788Y21728401D01*
X7194212Y22213599D01*
X7008110Y22664000D01*
X6663813Y23008899D01*
X6213737Y23195787D01*
X5726401Y23196212D01*
X5276000Y23010110D01*
X4931101Y22665813D01*
X4744213Y22215737D01*
X4743788Y21728401D01*
X425000Y21728401D01*
X425000Y24538000D01*
X1771000Y24538000D01*
X1771000Y23728327D01*
X1816672Y23618064D01*
X1901063Y23533672D01*
X2011326Y23488000D01*
X2821000Y23488000D01*
X2896000Y23563000D01*
X2896000Y24613000D01*
X2946000Y24613000D01*
X2946000Y23563000D01*
X3021000Y23488000D01*
X3830674Y23488000D01*
X3940937Y23533672D01*
X4025328Y23618064D01*
X4071000Y23728327D01*
X4071000Y24268401D01*
X4743788Y24268401D01*
X4929890Y23818000D01*
X5274187Y23473101D01*
X5724263Y23286213D01*
X6211599Y23285788D01*
X6662000Y23471890D01*
X7006899Y23816187D01*
X7193787Y24266263D01*
X7194212Y24753599D01*
X7008110Y25204000D01*
X6663813Y25548899D01*
X6213737Y25735787D01*
X5726401Y25736212D01*
X5276000Y25550110D01*
X4931101Y25205813D01*
X4744213Y24755737D01*
X4743788Y24268401D01*
X4071000Y24268401D01*
X4071000Y24538000D01*
X3996000Y24613000D01*
X2946000Y24613000D01*
X2896000Y24613000D01*
X1846000Y24613000D01*
X1771000Y24538000D01*
X425000Y24538000D01*
X425000Y25547673D01*
X1771000Y25547673D01*
X1771000Y24738000D01*
X1846000Y24663000D01*
X2896000Y24663000D01*
X2896000Y25713000D01*
X2946000Y25713000D01*
X2946000Y24663000D01*
X3996000Y24663000D01*
X4071000Y24738000D01*
X4071000Y25547673D01*
X4025328Y25657936D01*
X3940937Y25742328D01*
X3830674Y25788000D01*
X3021000Y25788000D01*
X2946000Y25713000D01*
X2896000Y25713000D01*
X2821000Y25788000D01*
X2011326Y25788000D01*
X1901063Y25742328D01*
X1816672Y25657936D01*
X1771000Y25547673D01*
X425000Y25547673D01*
X425000Y27178000D01*
X1697491Y27178000D01*
X1788836Y26718780D01*
X2048963Y26329472D01*
X2438271Y26069345D01*
X2897491Y25978000D01*
X2944509Y25978000D01*
X3403729Y26069345D01*
X3793037Y26329472D01*
X4053164Y26718780D01*
X4070990Y26808401D01*
X4743788Y26808401D01*
X4929890Y26358000D01*
X5274187Y26013101D01*
X5724263Y25826213D01*
X6211599Y25825788D01*
X6662000Y26011890D01*
X7006899Y26356187D01*
X7193787Y26806263D01*
X7194212Y27293599D01*
X7008110Y27744000D01*
X6663813Y28088899D01*
X6213737Y28275787D01*
X5726401Y28276212D01*
X5276000Y28090110D01*
X4931101Y27745813D01*
X4744213Y27295737D01*
X4743788Y26808401D01*
X4070990Y26808401D01*
X4144509Y27178000D01*
X4053164Y27637220D01*
X3793037Y28026528D01*
X3403729Y28286655D01*
X2944509Y28378000D01*
X2897491Y28378000D01*
X2438271Y28286655D01*
X2048963Y28026528D01*
X1788836Y27637220D01*
X1697491Y27178000D01*
X425000Y27178000D01*
X425000Y29718000D01*
X1697491Y29718000D01*
X1788836Y29258780D01*
X2048963Y28869472D01*
X2438271Y28609345D01*
X2897491Y28518000D01*
X2944509Y28518000D01*
X3403729Y28609345D01*
X3793037Y28869472D01*
X4053164Y29258780D01*
X4092305Y29455553D01*
X5022752Y30386000D01*
X5031463Y30386000D01*
X4931101Y30285813D01*
X4744213Y29835737D01*
X4743788Y29348401D01*
X4929890Y28898000D01*
X5274187Y28553101D01*
X5724263Y28366213D01*
X6211599Y28365788D01*
X6662000Y28551890D01*
X7006899Y28896187D01*
X7193787Y29346263D01*
X7194212Y29833599D01*
X7008110Y30284000D01*
X6906288Y30386000D01*
X11360248Y30386000D01*
X17157068Y24589180D01*
X17156870Y24362470D01*
X17270811Y24086714D01*
X17481605Y23875552D01*
X17757161Y23761131D01*
X18055530Y23760870D01*
X18331286Y23874811D01*
X18542448Y24085605D01*
X18618351Y24268401D01*
X19983788Y24268401D01*
X20169890Y23818000D01*
X20514187Y23473101D01*
X20964263Y23286213D01*
X21451599Y23285788D01*
X21902000Y23471890D01*
X22246899Y23816187D01*
X22433787Y24266263D01*
X22434212Y24753599D01*
X22248110Y25204000D01*
X21903813Y25548899D01*
X21453737Y25735787D01*
X20966401Y25736212D01*
X20516000Y25550110D01*
X20171101Y25205813D01*
X19984213Y24755737D01*
X19983788Y24268401D01*
X18618351Y24268401D01*
X18656869Y24361161D01*
X18657130Y24659530D01*
X18543189Y24935286D01*
X18332395Y25146448D01*
X18056839Y25260869D01*
X17828683Y25261069D01*
X15422013Y27667739D01*
X15471161Y27647331D01*
X15699317Y27647131D01*
X16631324Y26715124D01*
X16785425Y26612157D01*
X16967200Y26576000D01*
X20079814Y26576000D01*
X20169890Y26358000D01*
X20514187Y26013101D01*
X20964263Y25826213D01*
X21451599Y25825788D01*
X21902000Y26011890D01*
X22246899Y26356187D01*
X22433787Y26806263D01*
X22434212Y27293599D01*
X22248110Y27744000D01*
X21903813Y28088899D01*
X21453737Y28275787D01*
X20966401Y28276212D01*
X20516000Y28090110D01*
X20171101Y27745813D01*
X20079827Y27526000D01*
X17163952Y27526000D01*
X16370932Y28319020D01*
X16371130Y28545730D01*
X16257189Y28821486D01*
X16046395Y29032648D01*
X15770839Y29147069D01*
X15472470Y29147330D01*
X15196714Y29033389D01*
X14985552Y28822595D01*
X14871131Y28547039D01*
X14870870Y28248670D01*
X14891845Y28197907D01*
X13741351Y29348401D01*
X19983788Y29348401D01*
X20169890Y28898000D01*
X20514187Y28553101D01*
X20964263Y28366213D01*
X21451599Y28365788D01*
X21902000Y28551890D01*
X22246899Y28896187D01*
X22433787Y29346263D01*
X22434212Y29833599D01*
X22248110Y30284000D01*
X21903813Y30628899D01*
X21453737Y30815787D01*
X20966401Y30816212D01*
X20516000Y30630110D01*
X20171101Y30285813D01*
X19984213Y29835737D01*
X19983788Y29348401D01*
X13741351Y29348401D01*
X11892876Y31196876D01*
X11738775Y31299843D01*
X11557000Y31336000D01*
X6906537Y31336000D01*
X7006899Y31436187D01*
X7193787Y31886263D01*
X7193788Y31888401D01*
X19983788Y31888401D01*
X20169890Y31438000D01*
X20514187Y31093101D01*
X20964263Y30906213D01*
X21451599Y30905788D01*
X21902000Y31091890D01*
X22246899Y31436187D01*
X22433787Y31886263D01*
X22434212Y32373599D01*
X22248110Y32824000D01*
X21903813Y33168899D01*
X21453737Y33355787D01*
X20966401Y33356212D01*
X20516000Y33170110D01*
X20171101Y32825813D01*
X19984213Y32375737D01*
X19983788Y31888401D01*
X7193788Y31888401D01*
X7194212Y32373599D01*
X7008110Y32824000D01*
X6663813Y33168899D01*
X6213737Y33355787D01*
X5726401Y33356212D01*
X5276000Y33170110D01*
X4931101Y32825813D01*
X4744213Y32375737D01*
X4743788Y31888401D01*
X4929890Y31438000D01*
X5031712Y31336000D01*
X4826000Y31336000D01*
X4644225Y31299843D01*
X4490124Y31196876D01*
X3819769Y30526521D01*
X3793037Y30566528D01*
X3403729Y30826655D01*
X2944509Y30918000D01*
X2897491Y30918000D01*
X2438271Y30826655D01*
X2048963Y30566528D01*
X1788836Y30177220D01*
X1697491Y29718000D01*
X425000Y29718000D01*
X425000Y32258000D01*
X1697491Y32258000D01*
X1788836Y31798780D01*
X2048963Y31409472D01*
X2438271Y31149345D01*
X2897491Y31058000D01*
X2944509Y31058000D01*
X3403729Y31149345D01*
X3793037Y31409472D01*
X4053164Y31798780D01*
X4144509Y32258000D01*
X4053164Y32717220D01*
X3793037Y33106528D01*
X3403729Y33366655D01*
X2944509Y33458000D01*
X2897491Y33458000D01*
X2438271Y33366655D01*
X2048963Y33106528D01*
X1788836Y32717220D01*
X1697491Y32258000D01*
X425000Y32258000D01*
X425000Y34798000D01*
X1697491Y34798000D01*
X1788836Y34338780D01*
X2048963Y33949472D01*
X2438271Y33689345D01*
X2897491Y33598000D01*
X2944509Y33598000D01*
X3403729Y33689345D01*
X3793037Y33949472D01*
X4053164Y34338780D01*
X4070990Y34428401D01*
X4743788Y34428401D01*
X4929890Y33978000D01*
X5274187Y33633101D01*
X5724263Y33446213D01*
X6211599Y33445788D01*
X6662000Y33631890D01*
X7006899Y33976187D01*
X7193787Y34426263D01*
X7194025Y34700270D01*
X18376070Y34700270D01*
X18490011Y34424514D01*
X18700805Y34213352D01*
X18976361Y34098931D01*
X19274730Y34098670D01*
X19510285Y34196000D01*
X20079814Y34196000D01*
X20169890Y33978000D01*
X20514187Y33633101D01*
X20964263Y33446213D01*
X21451599Y33445788D01*
X21902000Y33631890D01*
X22246899Y33976187D01*
X22433787Y34426263D01*
X22434212Y34913599D01*
X22248110Y35364000D01*
X21903813Y35708899D01*
X21453737Y35895787D01*
X20966401Y35896212D01*
X20516000Y35710110D01*
X20171101Y35365813D01*
X20079827Y35146000D01*
X19814900Y35146000D01*
X19762389Y35273086D01*
X19551595Y35484248D01*
X19276039Y35598669D01*
X18977670Y35598930D01*
X18701914Y35484989D01*
X18490752Y35274195D01*
X18376331Y34998639D01*
X18376070Y34700270D01*
X7194025Y34700270D01*
X7194212Y34913599D01*
X7008110Y35364000D01*
X6663813Y35708899D01*
X6213737Y35895787D01*
X5726401Y35896212D01*
X5276000Y35710110D01*
X4931101Y35365813D01*
X4744213Y34915737D01*
X4743788Y34428401D01*
X4070990Y34428401D01*
X4144509Y34798000D01*
X4053164Y35257220D01*
X3793037Y35646528D01*
X3403729Y35906655D01*
X2944509Y35998000D01*
X2897491Y35998000D01*
X2438271Y35906655D01*
X2048963Y35646528D01*
X1788836Y35257220D01*
X1697491Y34798000D01*
X425000Y34798000D01*
X425000Y37338000D01*
X1697491Y37338000D01*
X1788836Y36878780D01*
X2048963Y36489472D01*
X2438271Y36229345D01*
X2897491Y36138000D01*
X2944509Y36138000D01*
X3403729Y36229345D01*
X3793037Y36489472D01*
X4053164Y36878780D01*
X4144509Y37338000D01*
X4053164Y37797220D01*
X3793037Y38186528D01*
X3403729Y38446655D01*
X2944509Y38538000D01*
X2897491Y38538000D01*
X2438271Y38446655D01*
X2048963Y38186528D01*
X1788836Y37797220D01*
X1697491Y37338000D01*
X425000Y37338000D01*
X425000Y42064000D01*
X1771000Y42064000D01*
X1771000Y41254327D01*
X1816672Y41144064D01*
X1901063Y41059672D01*
X2011326Y41014000D01*
X2821000Y41014000D01*
X2896000Y41089000D01*
X2896000Y42139000D01*
X2946000Y42139000D01*
X2946000Y41089000D01*
X3021000Y41014000D01*
X3830674Y41014000D01*
X3940937Y41059672D01*
X4025328Y41144064D01*
X4071000Y41254327D01*
X4071000Y42048401D01*
X4743788Y42048401D01*
X4929890Y41598000D01*
X5274187Y41253101D01*
X5724263Y41066213D01*
X6211599Y41065788D01*
X6662000Y41251890D01*
X7006899Y41596187D01*
X7193787Y42046263D01*
X7194212Y42533599D01*
X7008110Y42984000D01*
X6663813Y43328899D01*
X6213737Y43515787D01*
X5726401Y43516212D01*
X5276000Y43330110D01*
X4931101Y42985813D01*
X4744213Y42535737D01*
X4743788Y42048401D01*
X4071000Y42048401D01*
X4071000Y42064000D01*
X3996000Y42139000D01*
X2946000Y42139000D01*
X2896000Y42139000D01*
X1846000Y42139000D01*
X1771000Y42064000D01*
X425000Y42064000D01*
X425000Y43073673D01*
X1771000Y43073673D01*
X1771000Y42264000D01*
X1846000Y42189000D01*
X2896000Y42189000D01*
X2896000Y43239000D01*
X2946000Y43239000D01*
X2946000Y42189000D01*
X3996000Y42189000D01*
X4071000Y42264000D01*
X4071000Y43073673D01*
X4025328Y43183936D01*
X3940937Y43268328D01*
X3830674Y43314000D01*
X3021000Y43314000D01*
X2946000Y43239000D01*
X2896000Y43239000D01*
X2821000Y43314000D01*
X2011326Y43314000D01*
X1901063Y43268328D01*
X1816672Y43183936D01*
X1771000Y43073673D01*
X425000Y43073673D01*
X425000Y55841000D01*
X1714144Y55841000D01*
X1714144Y54141000D01*
X1738549Y54011298D01*
X1815203Y53892175D01*
X1932163Y53812259D01*
X2071000Y53784144D01*
X3771000Y53784144D01*
X3900702Y53808549D01*
X4019825Y53885203D01*
X4099741Y54002163D01*
X4127856Y54141000D01*
X4127856Y54179424D01*
X5192779Y54179424D01*
X5285200Y54007298D01*
X5713698Y53820499D01*
X6181063Y53811898D01*
X6616143Y53982805D01*
X6652800Y54007298D01*
X6745221Y54179424D01*
X5969000Y54955645D01*
X5192779Y54179424D01*
X4127856Y54179424D01*
X4127856Y54778937D01*
X4789898Y54778937D01*
X4960805Y54343857D01*
X4985298Y54307200D01*
X5157424Y54214779D01*
X5933645Y54991000D01*
X6004355Y54991000D01*
X6780576Y54214779D01*
X6952702Y54307200D01*
X7139501Y54735698D01*
X7148102Y55203063D01*
X6977195Y55638143D01*
X6952702Y55674800D01*
X6780576Y55767221D01*
X6004355Y54991000D01*
X5933645Y54991000D01*
X5157424Y55767221D01*
X4985298Y55674800D01*
X4798499Y55246302D01*
X4789898Y54778937D01*
X4127856Y54778937D01*
X4127856Y55802576D01*
X5192779Y55802576D01*
X5969000Y55026355D01*
X6745221Y55802576D01*
X6652800Y55974702D01*
X6224302Y56161501D01*
X5756937Y56170102D01*
X5321857Y55999195D01*
X5285200Y55974702D01*
X5192779Y55802576D01*
X4127856Y55802576D01*
X4127856Y55841000D01*
X4103451Y55970702D01*
X4026797Y56089825D01*
X3909837Y56169741D01*
X3771000Y56197856D01*
X2071000Y56197856D01*
X1941298Y56173451D01*
X1822175Y56096797D01*
X1742259Y55979837D01*
X1714144Y55841000D01*
X425000Y55841000D01*
X425000Y59092509D01*
X757003Y58288999D01*
X1642339Y57402117D01*
X2799677Y56921548D01*
X4052825Y56920455D01*
X5211001Y57399003D01*
X6097883Y58284339D01*
X6578452Y59441677D01*
X6579545Y60694825D01*
X6100997Y61853001D01*
X5215661Y62739883D01*
X4408610Y63075000D01*
X23649000Y63075000D01*
X23649000Y57294800D01*
G36*
X71591500Y15621000D02*
X71599379Y15582094D01*
X71621773Y15549319D01*
X71655154Y15527839D01*
X71691500Y15521000D01*
X75582305Y15521000D01*
X75451286Y15466864D01*
X75268278Y15284176D01*
X75169113Y15045360D01*
X75168888Y14786774D01*
X75267636Y14547786D01*
X75450324Y14364778D01*
X75689140Y14265613D01*
X75734754Y14265573D01*
X75766731Y11515545D01*
X75690274Y11515612D01*
X75451286Y11416864D01*
X75268278Y11234176D01*
X75169113Y10995360D01*
X75168888Y10736774D01*
X75267636Y10497786D01*
X75450324Y10314778D01*
X75582244Y10260000D01*
X63600000Y10260000D01*
X63600000Y11329883D01*
X73736997Y11329883D01*
X73835745Y11090895D01*
X74018433Y10907887D01*
X74257249Y10808722D01*
X74515835Y10808497D01*
X74754823Y10907245D01*
X74937831Y11089933D01*
X75036996Y11328749D01*
X75037221Y11587335D01*
X74938473Y11826323D01*
X74755785Y12009331D01*
X74516969Y12108496D01*
X74258383Y12108721D01*
X74019395Y12009973D01*
X73836387Y11827285D01*
X73737222Y11588469D01*
X73736997Y11329883D01*
X63600000Y11329883D01*
X63600000Y12761774D01*
X73143888Y12761774D01*
X73242636Y12522786D01*
X73425324Y12339778D01*
X73664140Y12240613D01*
X73922726Y12240388D01*
X74161714Y12339136D01*
X74344722Y12521824D01*
X74443887Y12760640D01*
X74444112Y13019226D01*
X74345364Y13258214D01*
X74162676Y13441222D01*
X73923860Y13540387D01*
X73665274Y13540612D01*
X73426286Y13441864D01*
X73243278Y13259176D01*
X73144113Y13020360D01*
X73143888Y12761774D01*
X63600000Y12761774D01*
X63600000Y14193665D01*
X73736997Y14193665D01*
X73835745Y13954677D01*
X74018433Y13771669D01*
X74257249Y13672504D01*
X74515835Y13672279D01*
X74754823Y13771027D01*
X74937831Y13953715D01*
X75036996Y14192531D01*
X75037221Y14451117D01*
X74938473Y14690105D01*
X74755785Y14873113D01*
X74516969Y14972278D01*
X74258383Y14972503D01*
X74019395Y14873755D01*
X73836387Y14691067D01*
X73737222Y14452251D01*
X73736997Y14193665D01*
X63600000Y14193665D01*
X63600000Y15521000D01*
X69151500Y15521000D01*
X69190406Y15528879D01*
X69223181Y15551273D01*
X69244661Y15584654D01*
X69251500Y15621000D01*
X69251500Y18251500D01*
X71591500Y18251500D01*
X71591500Y15621000D01*
X71591500Y15621000D01*
G37*
X71591500Y15621000D02*
X71599379Y15582094D01*
X71621773Y15549319D01*
X71655154Y15527839D01*
X71691500Y15521000D01*
X75582305Y15521000D01*
X75451286Y15466864D01*
X75268278Y15284176D01*
X75169113Y15045360D01*
X75168888Y14786774D01*
X75267636Y14547786D01*
X75450324Y14364778D01*
X75689140Y14265613D01*
X75734754Y14265573D01*
X75766731Y11515545D01*
X75690274Y11515612D01*
X75451286Y11416864D01*
X75268278Y11234176D01*
X75169113Y10995360D01*
X75168888Y10736774D01*
X75267636Y10497786D01*
X75450324Y10314778D01*
X75582244Y10260000D01*
X63600000Y10260000D01*
X63600000Y11329883D01*
X73736997Y11329883D01*
X73835745Y11090895D01*
X74018433Y10907887D01*
X74257249Y10808722D01*
X74515835Y10808497D01*
X74754823Y10907245D01*
X74937831Y11089933D01*
X75036996Y11328749D01*
X75037221Y11587335D01*
X74938473Y11826323D01*
X74755785Y12009331D01*
X74516969Y12108496D01*
X74258383Y12108721D01*
X74019395Y12009973D01*
X73836387Y11827285D01*
X73737222Y11588469D01*
X73736997Y11329883D01*
X63600000Y11329883D01*
X63600000Y12761774D01*
X73143888Y12761774D01*
X73242636Y12522786D01*
X73425324Y12339778D01*
X73664140Y12240613D01*
X73922726Y12240388D01*
X74161714Y12339136D01*
X74344722Y12521824D01*
X74443887Y12760640D01*
X74444112Y13019226D01*
X74345364Y13258214D01*
X74162676Y13441222D01*
X73923860Y13540387D01*
X73665274Y13540612D01*
X73426286Y13441864D01*
X73243278Y13259176D01*
X73144113Y13020360D01*
X73143888Y12761774D01*
X63600000Y12761774D01*
X63600000Y14193665D01*
X73736997Y14193665D01*
X73835745Y13954677D01*
X74018433Y13771669D01*
X74257249Y13672504D01*
X74515835Y13672279D01*
X74754823Y13771027D01*
X74937831Y13953715D01*
X75036996Y14192531D01*
X75037221Y14451117D01*
X74938473Y14690105D01*
X74755785Y14873113D01*
X74516969Y14972278D01*
X74258383Y14972503D01*
X74019395Y14873755D01*
X73836387Y14691067D01*
X73737222Y14452251D01*
X73736997Y14193665D01*
X63600000Y14193665D01*
X63600000Y15521000D01*
X69151500Y15521000D01*
X69190406Y15528879D01*
X69223181Y15551273D01*
X69244661Y15584654D01*
X69251500Y15621000D01*
X69251500Y18251500D01*
X71591500Y18251500D01*
X71591500Y15621000D01*
G36*
X61304500Y14514500D02*
X57213500Y14514500D01*
X57174594Y14506621D01*
X57141819Y14484227D01*
X57120339Y14450846D01*
X57113500Y14414500D01*
X57113500Y9752000D01*
X52360500Y9752000D01*
X52360500Y12033644D01*
X53375500Y12033644D01*
X53505202Y12058049D01*
X53624325Y12134703D01*
X53704241Y12251663D01*
X53732356Y12390500D01*
X53732356Y13390500D01*
X53707951Y13520202D01*
X53631297Y13639325D01*
X53514337Y13719241D01*
X53375500Y13747356D01*
X52360500Y13747356D01*
X52360500Y16029000D01*
X61304500Y16029000D01*
X61304500Y14514500D01*
X61304500Y14514500D01*
G37*
X61304500Y14514500D02*
X57213500Y14514500D01*
X57174594Y14506621D01*
X57141819Y14484227D01*
X57120339Y14450846D01*
X57113500Y14414500D01*
X57113500Y9752000D01*
X52360500Y9752000D01*
X52360500Y12033644D01*
X53375500Y12033644D01*
X53505202Y12058049D01*
X53624325Y12134703D01*
X53704241Y12251663D01*
X53732356Y12390500D01*
X53732356Y13390500D01*
X53707951Y13520202D01*
X53631297Y13639325D01*
X53514337Y13719241D01*
X53375500Y13747356D01*
X52360500Y13747356D01*
X52360500Y16029000D01*
X61304500Y16029000D01*
X61304500Y14514500D01*
G36*
X61304500Y29754500D02*
X57213500Y29754500D01*
X57174594Y29746621D01*
X57141819Y29724227D01*
X57120339Y29690846D01*
X57113500Y29654500D01*
X57113500Y24992000D01*
X52360500Y24992000D01*
X52360500Y27273644D01*
X53375500Y27273644D01*
X53505202Y27298049D01*
X53624325Y27374703D01*
X53704241Y27491663D01*
X53732356Y27630500D01*
X53732356Y28630500D01*
X53707951Y28760202D01*
X53631297Y28879325D01*
X53514337Y28959241D01*
X53375500Y28987356D01*
X52360500Y28987356D01*
X52360500Y31269000D01*
X61304500Y31269000D01*
X61304500Y29754500D01*
X61304500Y29754500D01*
G37*
X61304500Y29754500D02*
X57213500Y29754500D01*
X57174594Y29746621D01*
X57141819Y29724227D01*
X57120339Y29690846D01*
X57113500Y29654500D01*
X57113500Y24992000D01*
X52360500Y24992000D01*
X52360500Y27273644D01*
X53375500Y27273644D01*
X53505202Y27298049D01*
X53624325Y27374703D01*
X53704241Y27491663D01*
X53732356Y27630500D01*
X53732356Y28630500D01*
X53707951Y28760202D01*
X53631297Y28879325D01*
X53514337Y28959241D01*
X53375500Y28987356D01*
X52360500Y28987356D01*
X52360500Y31269000D01*
X61304500Y31269000D01*
X61304500Y29754500D01*
G36*
X71591500Y30861000D02*
X71599379Y30822094D01*
X71621773Y30789319D01*
X71655154Y30767839D01*
X71691500Y30761000D01*
X75582305Y30761000D01*
X75451286Y30706864D01*
X75268278Y30524176D01*
X75169113Y30285360D01*
X75168888Y30026774D01*
X75267636Y29787786D01*
X75450324Y29604778D01*
X75689140Y29505613D01*
X75719000Y29505587D01*
X75719000Y26755587D01*
X75690274Y26755612D01*
X75451286Y26656864D01*
X75268278Y26474176D01*
X75169113Y26235360D01*
X75168888Y25976774D01*
X75267636Y25737786D01*
X75450324Y25554778D01*
X75582244Y25500000D01*
X63600000Y25500000D01*
X63600000Y26569883D01*
X73736997Y26569883D01*
X73835745Y26330895D01*
X74018433Y26147887D01*
X74257249Y26048722D01*
X74515835Y26048497D01*
X74754823Y26147245D01*
X74937831Y26329933D01*
X75036996Y26568749D01*
X75037221Y26827335D01*
X74938473Y27066323D01*
X74755785Y27249331D01*
X74516969Y27348496D01*
X74258383Y27348721D01*
X74019395Y27249973D01*
X73836387Y27067285D01*
X73737222Y26828469D01*
X73736997Y26569883D01*
X63600000Y26569883D01*
X63600000Y28001774D01*
X73143888Y28001774D01*
X73242636Y27762786D01*
X73425324Y27579778D01*
X73664140Y27480613D01*
X73922726Y27480388D01*
X74161714Y27579136D01*
X74344722Y27761824D01*
X74443887Y28000640D01*
X74444112Y28259226D01*
X74345364Y28498214D01*
X74162676Y28681222D01*
X73923860Y28780387D01*
X73665274Y28780612D01*
X73426286Y28681864D01*
X73243278Y28499176D01*
X73144113Y28260360D01*
X73143888Y28001774D01*
X63600000Y28001774D01*
X63600000Y29433665D01*
X73736997Y29433665D01*
X73835745Y29194677D01*
X74018433Y29011669D01*
X74257249Y28912504D01*
X74515835Y28912279D01*
X74754823Y29011027D01*
X74937831Y29193715D01*
X75036996Y29432531D01*
X75037221Y29691117D01*
X74938473Y29930105D01*
X74755785Y30113113D01*
X74516969Y30212278D01*
X74258383Y30212503D01*
X74019395Y30113755D01*
X73836387Y29931067D01*
X73737222Y29692251D01*
X73736997Y29433665D01*
X63600000Y29433665D01*
X63600000Y30761000D01*
X69151500Y30761000D01*
X69190406Y30768879D01*
X69223181Y30791273D01*
X69244661Y30824654D01*
X69251500Y30861000D01*
X69251500Y33491500D01*
X71591500Y33491500D01*
X71591500Y30861000D01*
X71591500Y30861000D01*
G37*
X71591500Y30861000D02*
X71599379Y30822094D01*
X71621773Y30789319D01*
X71655154Y30767839D01*
X71691500Y30761000D01*
X75582305Y30761000D01*
X75451286Y30706864D01*
X75268278Y30524176D01*
X75169113Y30285360D01*
X75168888Y30026774D01*
X75267636Y29787786D01*
X75450324Y29604778D01*
X75689140Y29505613D01*
X75719000Y29505587D01*
X75719000Y26755587D01*
X75690274Y26755612D01*
X75451286Y26656864D01*
X75268278Y26474176D01*
X75169113Y26235360D01*
X75168888Y25976774D01*
X75267636Y25737786D01*
X75450324Y25554778D01*
X75582244Y25500000D01*
X63600000Y25500000D01*
X63600000Y26569883D01*
X73736997Y26569883D01*
X73835745Y26330895D01*
X74018433Y26147887D01*
X74257249Y26048722D01*
X74515835Y26048497D01*
X74754823Y26147245D01*
X74937831Y26329933D01*
X75036996Y26568749D01*
X75037221Y26827335D01*
X74938473Y27066323D01*
X74755785Y27249331D01*
X74516969Y27348496D01*
X74258383Y27348721D01*
X74019395Y27249973D01*
X73836387Y27067285D01*
X73737222Y26828469D01*
X73736997Y26569883D01*
X63600000Y26569883D01*
X63600000Y28001774D01*
X73143888Y28001774D01*
X73242636Y27762786D01*
X73425324Y27579778D01*
X73664140Y27480613D01*
X73922726Y27480388D01*
X74161714Y27579136D01*
X74344722Y27761824D01*
X74443887Y28000640D01*
X74444112Y28259226D01*
X74345364Y28498214D01*
X74162676Y28681222D01*
X73923860Y28780387D01*
X73665274Y28780612D01*
X73426286Y28681864D01*
X73243278Y28499176D01*
X73144113Y28260360D01*
X73143888Y28001774D01*
X63600000Y28001774D01*
X63600000Y29433665D01*
X73736997Y29433665D01*
X73835745Y29194677D01*
X74018433Y29011669D01*
X74257249Y28912504D01*
X74515835Y28912279D01*
X74754823Y29011027D01*
X74937831Y29193715D01*
X75036996Y29432531D01*
X75037221Y29691117D01*
X74938473Y29930105D01*
X74755785Y30113113D01*
X74516969Y30212278D01*
X74258383Y30212503D01*
X74019395Y30113755D01*
X73836387Y29931067D01*
X73737222Y29692251D01*
X73736997Y29433665D01*
X63600000Y29433665D01*
X63600000Y30761000D01*
X69151500Y30761000D01*
X69190406Y30768879D01*
X69223181Y30791273D01*
X69244661Y30824654D01*
X69251500Y30861000D01*
X69251500Y33491500D01*
X71591500Y33491500D01*
X71591500Y30861000D01*
G36*
X71591500Y46101000D02*
X71599379Y46062094D01*
X71621773Y46029319D01*
X71655154Y46007839D01*
X71691500Y46001000D01*
X75582305Y46001000D01*
X75451286Y45946864D01*
X75268278Y45764176D01*
X75169113Y45525360D01*
X75168888Y45266774D01*
X75267636Y45027786D01*
X75450324Y44844778D01*
X75689140Y44745613D01*
X75734754Y44745573D01*
X75766731Y41995545D01*
X75690274Y41995612D01*
X75451286Y41896864D01*
X75268278Y41714176D01*
X75169113Y41475360D01*
X75168888Y41216774D01*
X75267636Y40977786D01*
X75450324Y40794778D01*
X75582244Y40740000D01*
X63600000Y40740000D01*
X63600000Y41809883D01*
X73736997Y41809883D01*
X73835745Y41570895D01*
X74018433Y41387887D01*
X74257249Y41288722D01*
X74515835Y41288497D01*
X74754823Y41387245D01*
X74937831Y41569933D01*
X75036996Y41808749D01*
X75037221Y42067335D01*
X74938473Y42306323D01*
X74755785Y42489331D01*
X74516969Y42588496D01*
X74258383Y42588721D01*
X74019395Y42489973D01*
X73836387Y42307285D01*
X73737222Y42068469D01*
X73736997Y41809883D01*
X63600000Y41809883D01*
X63600000Y43241774D01*
X73143888Y43241774D01*
X73242636Y43002786D01*
X73425324Y42819778D01*
X73664140Y42720613D01*
X73922726Y42720388D01*
X74161714Y42819136D01*
X74344722Y43001824D01*
X74443887Y43240640D01*
X74444112Y43499226D01*
X74345364Y43738214D01*
X74162676Y43921222D01*
X73923860Y44020387D01*
X73665274Y44020612D01*
X73426286Y43921864D01*
X73243278Y43739176D01*
X73144113Y43500360D01*
X73143888Y43241774D01*
X63600000Y43241774D01*
X63600000Y44673665D01*
X73736997Y44673665D01*
X73835745Y44434677D01*
X74018433Y44251669D01*
X74257249Y44152504D01*
X74515835Y44152279D01*
X74754823Y44251027D01*
X74937831Y44433715D01*
X75036996Y44672531D01*
X75037221Y44931117D01*
X74938473Y45170105D01*
X74755785Y45353113D01*
X74516969Y45452278D01*
X74258383Y45452503D01*
X74019395Y45353755D01*
X73836387Y45171067D01*
X73737222Y44932251D01*
X73736997Y44673665D01*
X63600000Y44673665D01*
X63600000Y46001000D01*
X69151500Y46001000D01*
X69190406Y46008879D01*
X69223181Y46031273D01*
X69244661Y46064654D01*
X69251500Y46101000D01*
X69251500Y48731500D01*
X71591500Y48731500D01*
X71591500Y46101000D01*
X71591500Y46101000D01*
G37*
X71591500Y46101000D02*
X71599379Y46062094D01*
X71621773Y46029319D01*
X71655154Y46007839D01*
X71691500Y46001000D01*
X75582305Y46001000D01*
X75451286Y45946864D01*
X75268278Y45764176D01*
X75169113Y45525360D01*
X75168888Y45266774D01*
X75267636Y45027786D01*
X75450324Y44844778D01*
X75689140Y44745613D01*
X75734754Y44745573D01*
X75766731Y41995545D01*
X75690274Y41995612D01*
X75451286Y41896864D01*
X75268278Y41714176D01*
X75169113Y41475360D01*
X75168888Y41216774D01*
X75267636Y40977786D01*
X75450324Y40794778D01*
X75582244Y40740000D01*
X63600000Y40740000D01*
X63600000Y41809883D01*
X73736997Y41809883D01*
X73835745Y41570895D01*
X74018433Y41387887D01*
X74257249Y41288722D01*
X74515835Y41288497D01*
X74754823Y41387245D01*
X74937831Y41569933D01*
X75036996Y41808749D01*
X75037221Y42067335D01*
X74938473Y42306323D01*
X74755785Y42489331D01*
X74516969Y42588496D01*
X74258383Y42588721D01*
X74019395Y42489973D01*
X73836387Y42307285D01*
X73737222Y42068469D01*
X73736997Y41809883D01*
X63600000Y41809883D01*
X63600000Y43241774D01*
X73143888Y43241774D01*
X73242636Y43002786D01*
X73425324Y42819778D01*
X73664140Y42720613D01*
X73922726Y42720388D01*
X74161714Y42819136D01*
X74344722Y43001824D01*
X74443887Y43240640D01*
X74444112Y43499226D01*
X74345364Y43738214D01*
X74162676Y43921222D01*
X73923860Y44020387D01*
X73665274Y44020612D01*
X73426286Y43921864D01*
X73243278Y43739176D01*
X73144113Y43500360D01*
X73143888Y43241774D01*
X63600000Y43241774D01*
X63600000Y44673665D01*
X73736997Y44673665D01*
X73835745Y44434677D01*
X74018433Y44251669D01*
X74257249Y44152504D01*
X74515835Y44152279D01*
X74754823Y44251027D01*
X74937831Y44433715D01*
X75036996Y44672531D01*
X75037221Y44931117D01*
X74938473Y45170105D01*
X74755785Y45353113D01*
X74516969Y45452278D01*
X74258383Y45452503D01*
X74019395Y45353755D01*
X73836387Y45171067D01*
X73737222Y44932251D01*
X73736997Y44673665D01*
X63600000Y44673665D01*
X63600000Y46001000D01*
X69151500Y46001000D01*
X69190406Y46008879D01*
X69223181Y46031273D01*
X69244661Y46064654D01*
X69251500Y46101000D01*
X69251500Y48731500D01*
X71591500Y48731500D01*
X71591500Y46101000D01*
M02*
