M48
METRIC,TZ
T1C0.400
T2C0.500
T3C0.600
T4C0.800
T5C1.000
T6C1.200
T7C2.700
T8C3.200
%
G90
G05
T1
X8.153Y46.279
X8.839Y54.686
X9.169Y49.886
X9.169Y45.872
X9.906Y40.513
X10.795Y41.402
X15.621Y28.397
X15.875Y54.483
X17.907Y24.511
X19.126Y34.849
X19.914Y56.083
X27.305Y46.672
X27.305Y45.593
X29.21Y48.26
X35.623Y39.116
X35.687Y38.036
X36.703Y37.719
X36.767Y36.576
X36.906Y10.897
X38.036Y39.116
X38.862Y39.649
X38.925Y32.639
X39.878Y29.781
X40.513Y37.655
X40.564Y38.938
X43.688Y34.798
X43.79Y37.008
X43.878Y41.974
X44.907Y41.631
X48.006Y26.733
X48.895Y36.068
X48.895Y32.639
X49.085Y18.796
X49.53Y47.625
X50.419Y14.922
X51.244Y36.068
X51.308Y35.052
X51.498Y30.797
X51.498Y29.337
X52.895Y34.417
X54.673Y34.671
X54.673Y17.335
X54.864Y37.529
X56.185Y46.253
X57.34Y48.895
X57.404Y18.351
X57.633Y46.99
X58.674Y42.481
X60.008Y10.541
T2
X73.794Y43.37
X73.794Y28.13
X73.794Y12.89
X74.387Y44.802
X74.387Y41.939
X74.387Y29.562
X74.387Y26.699
X74.387Y14.322
X74.387Y11.459
X75.819Y45.395
X75.819Y41.346
X75.819Y30.155
X75.819Y26.105
X75.819Y14.915
X75.819Y10.865
X77.251Y44.802
X77.251Y41.939
X77.251Y29.562
X77.251Y26.699
X77.251Y14.322
X77.251Y11.459
X77.844Y43.37
X77.844Y28.13
X77.844Y12.89
T3
X45.021Y39.751
X45.021Y38.481
X45.021Y37.211
X45.021Y35.941
X45.021Y34.671
X45.021Y33.401
X46.291Y39.751
X46.291Y38.481
X46.291Y37.211
X46.291Y35.941
X46.291Y34.671
X46.291Y33.401
X47.561Y39.751
X47.561Y38.481
X47.561Y37.211
X47.561Y35.941
X47.561Y34.671
X47.561Y33.401
X59.88Y52.261
X59.88Y50.99
X59.88Y49.721
X59.88Y48.45
X59.88Y37.02
X59.88Y35.75
X59.88Y34.48
X59.88Y33.21
X59.88Y21.78
X59.88Y20.511
X59.88Y19.241
X59.88Y17.97
X61.15Y52.261
X61.15Y50.99
X61.15Y49.721
X61.15Y48.45
X61.15Y37.02
X61.15Y35.75
X61.15Y34.48
X61.15Y33.21
X61.15Y21.78
X61.15Y20.511
X61.15Y19.241
X61.15Y17.97
X62.42Y52.261
X62.42Y50.99
X62.42Y49.721
X62.42Y48.45
X62.42Y37.02
X62.42Y35.75
X62.42Y34.48
X62.42Y33.21
X62.42Y21.78
X62.42Y20.511
X62.42Y19.241
X62.42Y17.97
X63.691Y52.261
X63.691Y50.99
X63.691Y49.721
X63.691Y48.45
X63.691Y37.02
X63.691Y35.75
X63.691Y34.48
X63.691Y33.21
X63.691Y21.78
X63.691Y20.511
X63.691Y19.241
X63.691Y17.97
X64.325Y45.276
X64.325Y44.005
X64.325Y42.735
X64.325Y41.465
X64.325Y30.035
X64.325Y28.765
X64.325Y27.495
X64.325Y26.226
X64.325Y14.795
X64.325Y13.525
X64.325Y12.255
X64.325Y10.986
X64.96Y52.261
X64.96Y50.99
X64.96Y49.721
X64.96Y48.45
X64.96Y37.02
X64.96Y35.75
X64.96Y34.48
X64.96Y33.21
X64.96Y21.78
X64.96Y20.511
X64.96Y19.241
X64.96Y17.97
X65.596Y45.276
X65.596Y44.005
X65.596Y42.735
X65.596Y41.465
X65.596Y30.035
X65.596Y28.765
X65.596Y27.495
X65.596Y26.226
X65.596Y14.795
X65.596Y13.525
X65.596Y12.255
X65.596Y10.986
X66.23Y52.261
X66.23Y50.99
X66.23Y49.721
X66.23Y48.45
X66.23Y37.02
X66.23Y35.75
X66.23Y34.48
X66.23Y33.21
X66.23Y21.78
X66.23Y20.511
X66.23Y19.241
X66.23Y17.97
X66.865Y45.276
X66.865Y44.005
X66.865Y42.735
X66.865Y41.465
X66.865Y30.035
X66.865Y28.765
X66.865Y27.495
X66.865Y26.226
X66.865Y14.795
X66.865Y13.525
X66.865Y12.255
X66.865Y10.986
X68.135Y45.276
X68.135Y44.005
X68.135Y42.735
X68.135Y41.465
X68.135Y30.035
X68.135Y28.765
X68.135Y27.495
X68.135Y26.226
X68.135Y14.795
X68.135Y13.525
X68.135Y12.255
X68.135Y10.986
X69.406Y45.276
X69.406Y44.005
X69.406Y42.735
X69.406Y41.465
X69.406Y30.035
X69.406Y28.765
X69.406Y27.495
X69.406Y26.226
X69.406Y14.795
X69.406Y13.525
X69.406Y12.255
X69.406Y10.986
X70.675Y45.276
X70.675Y44.005
X70.675Y42.735
X70.675Y41.465
X70.675Y30.035
X70.675Y28.765
X70.675Y27.495
X70.675Y26.226
X70.675Y14.795
X70.675Y13.525
X70.675Y12.255
X70.675Y10.986
T4
X5.969Y54.991
X5.969Y52.451
X5.969Y49.911
X5.969Y47.371
X5.969Y44.831
X5.969Y42.291
X5.969Y39.751
X5.969Y37.211
X5.969Y34.671
X5.969Y32.131
X5.969Y29.591
X5.969Y27.051
X5.969Y24.511
X5.969Y21.971
X18.669Y47.371
X18.669Y44.831
X18.669Y42.291
X18.669Y21.971
X21.209Y54.991
X21.209Y52.451
X21.209Y49.911
X21.209Y47.371
X21.209Y44.831
X21.209Y42.291
X21.209Y39.751
X21.209Y37.211
X21.209Y34.671
X21.209Y32.131
X21.209Y29.591
X21.209Y27.051
X21.209Y24.511
X21.209Y21.971
X28.956Y33.528
X33.655Y49.625
X36.155Y54.356
X40.259Y49.689
X42.735Y50.459
X46.131Y49.911
X49.466Y28.575
X51.079Y21.328
X51.371Y43.624
X59.563Y45.657
T5
X2.921Y54.991
X2.921Y52.451
X2.921Y49.911
X2.921Y47.244
X2.921Y44.704
X2.921Y42.164
X2.921Y37.338
X2.921Y34.798
X2.921Y32.258
X2.921Y29.718
X2.921Y27.178
X2.921Y24.638
X26.416Y54.991
X26.416Y52.451
T6
X18.161Y14.478
X18.161Y9.478
X31.496Y14.478
X31.496Y9.478
T7
X75.819Y43.37
X75.819Y28.13
X75.819Y12.89
T8
X3.429Y60.071
X3.429Y3.556
X8.382Y8.255
X8.509Y14.986
X59.944Y60.071
X59.944Y3.556
T0
M30
