G04 #@! TF.FileFunction,Soldermask,Bot*
%FSLAX46Y46*%
G04 Gerber Fmt 4.6, Leading zero omitted, Abs format (unit mm)*
G04 Created by KiCad (PCBNEW 4.0.4-stable) date 08/21/17 00:53:09*
%MOMM*%
%LPD*%
G01*
G04 APERTURE LIST*
%ADD10C,0.100000*%
%ADD11R,1.670000X1.670000*%
%ADD12R,2.600000X1.600000*%
%ADD13R,2.400000X2.000000*%
%ADD14R,2.000000X2.400000*%
%ADD15R,2.100000X2.100000*%
%ADD16O,2.100000X2.100000*%
%ADD17C,6.399480*%
%ADD18R,2.400000X2.100000*%
%ADD19R,2.100000X2.400000*%
%ADD20C,2.150000*%
%ADD21R,5.000000X6.600000*%
%ADD22R,2.400000X1.400000*%
%ADD23R,2.800000X2.800000*%
%ADD24C,2.800000*%
%ADD25C,6.000000*%
%ADD26C,5.800000*%
%ADD27C,1.000000*%
G04 APERTURE END LIST*
D10*
D11*
X59880500Y33210500D03*
X59880500Y34480500D03*
X59880500Y35750500D03*
X59880500Y37020500D03*
X61150500Y33210500D03*
X61150500Y34480500D03*
X62420500Y34480500D03*
X62420500Y33210500D03*
X63690500Y33210500D03*
X63690500Y34480500D03*
X64960500Y34480500D03*
X64960500Y33210500D03*
X66230500Y33210500D03*
X66230500Y34480500D03*
X63690500Y35750500D03*
X62420500Y35750500D03*
X61150500Y35750500D03*
X61150500Y37020500D03*
X62420500Y37020500D03*
X63690500Y37020500D03*
X64960500Y37020500D03*
X64960500Y35750500D03*
X66230500Y35750500D03*
X66230500Y37020500D03*
D12*
X70430500Y37395500D03*
X70430500Y32835500D03*
D13*
X39909500Y34544000D03*
X35909500Y34544000D03*
D11*
X70675500Y45275500D03*
X70675500Y44005500D03*
X70675500Y42735500D03*
X70675500Y41465500D03*
X69405500Y45275500D03*
X69405500Y44005500D03*
X68135500Y44005500D03*
X68135500Y45275500D03*
X66865500Y45275500D03*
X66865500Y44005500D03*
X65595500Y44005500D03*
X65595500Y45275500D03*
X64325500Y45275500D03*
X64325500Y44005500D03*
X66865500Y42735500D03*
X68135500Y42735500D03*
X69405500Y42735500D03*
X69405500Y41465500D03*
X68135500Y41465500D03*
X66865500Y41465500D03*
X65595500Y41465500D03*
X65595500Y42735500D03*
X64325500Y42735500D03*
X64325500Y41465500D03*
D12*
X60125500Y41090500D03*
X60125500Y45650500D03*
D11*
X70675500Y30035500D03*
X70675500Y28765500D03*
X70675500Y27495500D03*
X70675500Y26225500D03*
X69405500Y30035500D03*
X69405500Y28765500D03*
X68135500Y28765500D03*
X68135500Y30035500D03*
X66865500Y30035500D03*
X66865500Y28765500D03*
X65595500Y28765500D03*
X65595500Y30035500D03*
X64325500Y30035500D03*
X64325500Y28765500D03*
X66865500Y27495500D03*
X68135500Y27495500D03*
X69405500Y27495500D03*
X69405500Y26225500D03*
X68135500Y26225500D03*
X66865500Y26225500D03*
X65595500Y26225500D03*
X65595500Y27495500D03*
X64325500Y27495500D03*
X64325500Y26225500D03*
D12*
X60125500Y25850500D03*
X60125500Y30410500D03*
D14*
X12827000Y50641000D03*
X12827000Y46641000D03*
D13*
X39909500Y32512000D03*
X35909500Y32512000D03*
D14*
X38227000Y37243000D03*
X38227000Y41243000D03*
D13*
X39909500Y30480000D03*
X35909500Y30480000D03*
D14*
X42608500Y38322000D03*
X42608500Y34322000D03*
D13*
X47339000Y23622000D03*
X43339000Y23622000D03*
X47339000Y21590000D03*
X43339000Y21590000D03*
X47339000Y19558000D03*
X43339000Y19558000D03*
X47339000Y17526000D03*
X43339000Y17526000D03*
X68307200Y50927000D03*
X72307200Y50927000D03*
D14*
X48260000Y43783000D03*
X48260000Y39783000D03*
X46355000Y43783000D03*
X46355000Y39783000D03*
X44450000Y43783000D03*
X44450000Y39783000D03*
D15*
X2921000Y24638000D03*
D16*
X2921000Y27178000D03*
X2921000Y29718000D03*
X2921000Y32258000D03*
X2921000Y34798000D03*
X2921000Y37338000D03*
D17*
X8382000Y8255000D03*
X8509000Y14986000D03*
D15*
X26416000Y52451000D03*
D16*
X26416000Y54991000D03*
D15*
X2921000Y54991000D03*
D16*
X2921000Y52451000D03*
X2921000Y49911000D03*
D15*
X2921000Y42164000D03*
D16*
X2921000Y44704000D03*
X2921000Y47244000D03*
D11*
X59880500Y48450500D03*
X59880500Y49720500D03*
X59880500Y50990500D03*
X59880500Y52260500D03*
X61150500Y48450500D03*
X61150500Y49720500D03*
X62420500Y49720500D03*
X62420500Y48450500D03*
X63690500Y48450500D03*
X63690500Y49720500D03*
X64960500Y49720500D03*
X64960500Y48450500D03*
X66230500Y48450500D03*
X66230500Y49720500D03*
X63690500Y50990500D03*
X62420500Y50990500D03*
X61150500Y50990500D03*
X61150500Y52260500D03*
X62420500Y52260500D03*
X63690500Y52260500D03*
X64960500Y52260500D03*
X64960500Y50990500D03*
X66230500Y50990500D03*
X66230500Y52260500D03*
D12*
X70430500Y52635500D03*
X70430500Y48075500D03*
D11*
X59880500Y17970500D03*
X59880500Y19240500D03*
X59880500Y20510500D03*
X59880500Y21780500D03*
X61150500Y17970500D03*
X61150500Y19240500D03*
X62420500Y19240500D03*
X62420500Y17970500D03*
X63690500Y17970500D03*
X63690500Y19240500D03*
X64960500Y19240500D03*
X64960500Y17970500D03*
X66230500Y17970500D03*
X66230500Y19240500D03*
X63690500Y20510500D03*
X62420500Y20510500D03*
X61150500Y20510500D03*
X61150500Y21780500D03*
X62420500Y21780500D03*
X63690500Y21780500D03*
X64960500Y21780500D03*
X64960500Y20510500D03*
X66230500Y20510500D03*
X66230500Y21780500D03*
D12*
X70430500Y22155500D03*
X70430500Y17595500D03*
D11*
X70675500Y14795500D03*
X70675500Y13525500D03*
X70675500Y12255500D03*
X70675500Y10985500D03*
X69405500Y14795500D03*
X69405500Y13525500D03*
X68135500Y13525500D03*
X68135500Y14795500D03*
X66865500Y14795500D03*
X66865500Y13525500D03*
X65595500Y13525500D03*
X65595500Y14795500D03*
X64325500Y14795500D03*
X64325500Y13525500D03*
X66865500Y12255500D03*
X68135500Y12255500D03*
X69405500Y12255500D03*
X69405500Y10985500D03*
X68135500Y10985500D03*
X66865500Y10985500D03*
X65595500Y10985500D03*
X65595500Y12255500D03*
X64325500Y12255500D03*
X64325500Y10985500D03*
D12*
X60125500Y10610500D03*
X60125500Y15170500D03*
D18*
X12795000Y42799000D03*
X8795000Y42799000D03*
D19*
X57340500Y52990500D03*
X57340500Y48990500D03*
X54991000Y41814500D03*
X54991000Y37814500D03*
D18*
X51606200Y57810400D03*
X47606200Y57810400D03*
X47606200Y59944000D03*
X51606200Y59944000D03*
D19*
X57340500Y37750500D03*
X57340500Y33750500D03*
X53276500Y19526500D03*
X53276500Y23526500D03*
D18*
X51657000Y52476400D03*
X47657000Y52476400D03*
X47657000Y54610000D03*
X51657000Y54610000D03*
D19*
X57340500Y22510500D03*
X57340500Y18510500D03*
D18*
X47389800Y6324600D03*
X43389800Y6324600D03*
X43389800Y8432800D03*
X47389800Y8432800D03*
D20*
X18669000Y42291000D03*
X18669000Y44831000D03*
X18669000Y47371000D03*
X18669000Y21971000D03*
X5969000Y52451000D03*
X5969000Y49911000D03*
X5969000Y47371000D03*
X5969000Y44831000D03*
X5969000Y42291000D03*
X5969000Y39751000D03*
X5969000Y37211000D03*
X5969000Y34671000D03*
X5969000Y32131000D03*
X5969000Y29591000D03*
X5969000Y27051000D03*
X5969000Y24511000D03*
X5969000Y21971000D03*
X21209000Y21971000D03*
X21209000Y24511000D03*
X21209000Y27051000D03*
X21209000Y29591000D03*
X21209000Y32131000D03*
X21209000Y34671000D03*
X21209000Y37211000D03*
X21209000Y39751000D03*
X21209000Y42291000D03*
X21209000Y44831000D03*
X21209000Y47371000D03*
X21209000Y49911000D03*
X21209000Y52451000D03*
X21209000Y54991000D03*
X5969000Y54991000D03*
D11*
X47561500Y33401000D03*
X47561500Y34671000D03*
X46291500Y34671000D03*
X46291500Y33401000D03*
X45021500Y33401000D03*
X45021500Y34671000D03*
X45021500Y39751000D03*
X45021500Y38481000D03*
X46291500Y38481000D03*
X46291500Y39751000D03*
X47561500Y39751000D03*
X47561500Y38481000D03*
X47561500Y35941000D03*
X47561500Y37211000D03*
X45021500Y37211000D03*
X45021500Y35941000D03*
X46291500Y35941000D03*
X46291500Y37211000D03*
D21*
X54720500Y28130500D03*
X44720500Y28130500D03*
D22*
X52375500Y28130500D03*
X47065500Y28130500D03*
D21*
X54720500Y12890500D03*
X44720500Y12890500D03*
D22*
X52375500Y12890500D03*
X47065500Y12890500D03*
D23*
X18161000Y14478000D03*
D24*
X18161000Y9478000D03*
D23*
X31496000Y14478000D03*
D24*
X31496000Y9478000D03*
D14*
X40259000Y37243000D03*
X40259000Y41243000D03*
D13*
X68383400Y35229800D03*
X72383400Y35229800D03*
X68383400Y19913600D03*
X72383400Y19913600D03*
D25*
X59944000Y60071000D03*
X3429000Y60071000D03*
X59944000Y3556000D03*
X3429000Y3556000D03*
D26*
X75819000Y43370500D03*
D27*
X77844000Y43370500D03*
X77250891Y41938609D03*
X75819000Y41345500D03*
X74387109Y41938609D03*
X73794000Y43370500D03*
X74387109Y44802391D03*
X75819000Y45395500D03*
X77250891Y44802391D03*
D26*
X75819000Y28130500D03*
D27*
X77844000Y28130500D03*
X77250891Y26698609D03*
X75819000Y26105500D03*
X74387109Y26698609D03*
X73794000Y28130500D03*
X74387109Y29562391D03*
X75819000Y30155500D03*
X77250891Y29562391D03*
D26*
X75819000Y12890500D03*
D27*
X77844000Y12890500D03*
X77250891Y11458609D03*
X75819000Y10865500D03*
X74387109Y11458609D03*
X73794000Y12890500D03*
X74387109Y14322391D03*
X75819000Y14915500D03*
X77250891Y14322391D03*
M02*
